<svg xmlns="http://www.w3.org/2000/svg" width="300" height="324" fill="none"><path fill="#fff" d="M4 .5h292a3.5 3.5 0 0 1 3.5 3.5v316a3.5 3.5 0 0 1-3.5 3.5H4A3.5 3.5 0 0 1 .5 320V4A3.5 3.5 0 0 1 4 .5"/><path stroke="#E2E8F0" d="M4 .5h292a3.5 3.5 0 0 1 3.5 3.5v316a3.5 3.5 0 0 1-3.5 3.5H4A3.5 3.5 0 0 1 .5 320V4A3.5 3.5 0 0 1 4 .5Z"/><path fill="#62748E" d="M40.824 55.84v-1.675l4.937-7.801h1.398v2.386h-.852l-3.324 5.267v.091h6.892v1.733zM46.375 58v-2.67l.023-.75v-8.216h1.988V58zm9.617.222q-1.404 0-2.41-.71-1-.717-1.54-2.063-.533-1.353-.534-3.256.006-1.903.54-3.238.54-1.341 1.54-2.046 1.005-.705 2.404-.704 1.396 0 2.403.704 1.005.705 1.54 2.046.54 1.34.54 3.238 0 1.91-.54 3.262-.535 1.346-1.54 2.056-1 .71-2.404.71m0-1.779q1.09 0 1.721-1.074.636-1.08.636-3.176 0-1.386-.29-2.33-.289-.942-.817-1.42a1.8 1.8 0 0 0-1.25-.483q-1.086 0-1.716 1.08-.63 1.074-.637 3.153-.005 1.393.279 2.341.289.95.818 1.432.528.477 1.256.477m6.16-.602v-1.676l4.938-7.801h1.397v2.386h-.852l-3.324 5.267v.091h6.892v1.733zM67.703 58v-2.67l.023-.75v-8.216h1.989V58z"/><path fill="#020618" d="M41.896 101V79.182h8.608q2.483 0 4.23.948 1.746.938 2.663 2.61.927 1.662.927 3.835 0 2.175-.938 3.835-.937 1.662-2.716 2.59-1.77.926-4.283.926h-5.486V90.23h4.74q1.332 0 2.195-.458.874-.468 1.3-1.289.436-.831.436-1.907 0-1.086-.436-1.896a2.9 2.9 0 0 0-1.3-1.268q-.873-.458-2.216-.458h-3.11V101zm23.566.309q-1.566 0-2.792-.543a4.5 4.5 0 0 1-1.939-1.63q-.703-1.087-.703-2.706 0-1.365.501-2.29a4.05 4.05 0 0 1 1.364-1.492 6.6 6.6 0 0 1 1.96-.852 15 15 0 0 1 2.322-.405q1.428-.15 2.302-.277.873-.14 1.267-.405.394-.266.394-.788v-.065q0-1.011-.639-1.565-.628-.555-1.79-.554-1.224 0-1.95.543-.724.532-.958 1.342l-4.197-.34q.32-1.492 1.257-2.579.937-1.097 2.418-1.683 1.491-.597 3.452-.597 1.364 0 2.61.32 1.257.32 2.227.99a4.8 4.8 0 0 1 1.544 1.727q.565 1.044.565 2.503V101h-4.304v-2.27h-.128a4.6 4.6 0 0 1-1.055 1.354q-.66.575-1.587.905-.927.32-2.141.32m1.3-3.132q1.001 0 1.768-.394.766-.405 1.204-1.087.436-.682.437-1.545v-1.736a2.4 2.4 0 0 1-.587.255q-.361.107-.82.203-.457.085-.916.16l-.831.117a5.6 5.6 0 0 0-1.396.373q-.596.255-.926.692-.33.427-.33 1.066 0 .926.67 1.416.682.48 1.726.48m18.808 9.3q-2.204 0-3.782-.607-1.566-.597-2.493-1.63a5 5 0 0 1-1.204-2.322l4.198-.565q.191.49.607.916t1.097.682q.693.267 1.684.266 1.48 0 2.44-.724.968-.714.969-2.397v-2.994h-.192a4.3 4.3 0 0 1-.895 1.29q-.597.606-1.534.99t-2.237.384q-1.844 0-3.356-.853-1.502-.863-2.397-2.631-.885-1.78-.884-4.496 0-2.78.905-4.645.906-1.864 2.408-2.79a6.2 6.2 0 0 1 3.313-.928q1.374 0 2.301.469.927.458 1.492 1.15.575.683.884 1.343h.17v-2.749h4.507v16.524q0 2.088-1.023 3.494t-2.834 2.109q-1.8.714-4.144.714m.096-10.12q1.097 0 1.853-.544.768-.555 1.172-1.576.416-1.034.416-2.472 0-1.439-.405-2.493-.404-1.065-1.172-1.651-.767-.585-1.864-.586-1.118 0-1.886.607-.766.597-1.161 1.662-.394 1.065-.394 2.46 0 1.418.394 2.451.405 1.023 1.161 1.588.767.553 1.886.553m18.974 3.963q-2.526 0-4.347-1.023a7 7 0 0 1-2.791-2.92q-.98-1.895-.98-4.484 0-2.524.98-4.432.98-1.907 2.759-2.972 1.79-1.065 4.197-1.066 1.62 0 3.015.522 1.407.512 2.451 1.545 1.055 1.034 1.64 2.6.586 1.554.586 3.643v1.246H98.333v-2.812h9.545q0-.98-.426-1.737a3.05 3.05 0 0 0-1.182-1.182q-.746-.437-1.737-.437-1.034 0-1.832.48a3.36 3.36 0 0 0-1.236 1.267 3.6 3.6 0 0 0-.458 1.758v2.674q0 1.215.447 2.099.459.885 1.289 1.363.831.48 1.971.48.756 0 1.385-.213a2.9 2.9 0 0 0 1.076-.64 2.8 2.8 0 0 0 .682-1.043l4.197.276a5.74 5.74 0 0 1-1.31 2.642q-.98 1.12-2.536 1.748-1.544.618-3.568.618m21.954-9.78V101h-4.539V84.636h4.326v2.887h.191a4.57 4.57 0 0 1 1.822-2.258q1.279-.842 3.1-.842 1.705 0 2.972.746 1.269.746 1.971 2.13.703 1.375.703 3.282V101h-4.538v-9.61q.011-1.5-.767-2.343-.777-.852-2.141-.852-.916 0-1.62.394a2.75 2.75 0 0 0-1.086 1.15q-.384.747-.394 1.8m21.517 9.78q-2.482 0-4.294-1.055a7.2 7.2 0 0 1-2.78-2.962q-.98-1.907-.98-4.42 0-2.536.98-4.433.98-1.906 2.78-2.961 1.812-1.065 4.294-1.066 2.482 0 4.282 1.066 1.811 1.055 2.792 2.961.98 1.897.98 4.432 0 2.514-.98 4.421a7.2 7.2 0 0 1-2.792 2.962q-1.8 1.055-4.282 1.055m.021-3.516q1.129 0 1.886-.64.756-.65 1.14-1.768.393-1.118.394-2.546 0-1.427-.394-2.546-.384-1.118-1.14-1.769-.757-.65-1.886-.65-1.14 0-1.918.65-.767.65-1.161 1.769-.383 1.118-.383 2.546t.383 2.546q.394 1.118 1.161 1.769.778.639 1.918.639m19.688-13.168v3.41h-9.855v-3.41zm-7.618-3.92h4.539v15.256q0 .628.192.98.191.34.532.48a2.2 2.2 0 0 0 .81.138q.32 0 .639-.054l.49-.096.714 3.378q-.34.106-.959.245a7.8 7.8 0 0 1-1.502.181q-1.641.064-2.876-.437-1.226-.5-1.907-1.556-.683-1.054-.672-2.663zm-109.591 39.92v3.409h-10.1v-3.409zM42.823 137v-17.546q0-1.78.693-2.951a4.45 4.45 0 0 1 1.917-1.758q1.215-.586 2.76-.586 1.044 0 1.906.16.874.159 1.3.288l-.81 3.409a6 6 0 0 0-.66-.16 4 4 0 0 0-.788-.075q-1.002 0-1.396.469-.394.458-.394 1.289V137zm17.368.32q-2.482 0-4.294-1.055a7.2 7.2 0 0 1-2.78-2.962q-.98-1.907-.98-4.421 0-2.535.98-4.432.98-1.906 2.78-2.961 1.812-1.066 4.294-1.066t4.282 1.066q1.811 1.055 2.792 2.961.98 1.897.98 4.432 0 2.514-.98 4.421a7.2 7.2 0 0 1-2.791 2.962q-1.8 1.055-4.283 1.055m.021-3.516q1.13 0 1.886-.639.756-.65 1.14-1.769.394-1.118.394-2.546t-.394-2.546q-.384-1.119-1.14-1.768-.756-.65-1.886-.65-1.14 0-1.917.65-.768.65-1.162 1.768-.383 1.118-.383 2.546t.383 2.546q.394 1.12 1.162 1.769.777.639 1.917.639m21.477-3.771v-9.397h4.539V137H81.87v-2.972h-.17a4.83 4.83 0 0 1-1.844 2.311q-1.279.874-3.121.874-1.64 0-2.888-.746-1.245-.746-1.949-2.12-.693-1.374-.703-3.292v-10.419h4.538v9.61q.011 1.449.778 2.29.767.842 2.056.842a3.26 3.26 0 0 0 1.534-.373 2.93 2.93 0 0 0 1.15-1.129q.448-.746.438-1.843m12.707-2.493V137h-4.538v-16.364h4.325v2.887h.192a4.57 4.57 0 0 1 1.822-2.258q1.278-.842 3.1-.842 1.704 0 2.972.746 1.267.745 1.971 2.131.703 1.374.703 3.281V137h-4.538v-9.609q.01-1.503-.767-2.344-.779-.852-2.142-.852-.915 0-1.619.394a2.75 2.75 0 0 0-1.087 1.15q-.383.747-.394 1.801m20.154 9.726q-1.865 0-3.377-.958-1.502-.97-2.387-2.845-.873-1.885-.873-4.624 0-2.812.905-4.676.906-1.875 2.408-2.802a6.17 6.17 0 0 1 3.313-.938q1.374 0 2.291.469.927.458 1.491 1.151.576.681.874 1.342h.138v-8.203h4.528V137h-4.474v-2.621h-.192a5.8 5.8 0 0 1-.906 1.353q-.575.66-1.502 1.098-.916.436-2.237.436m1.438-3.611q1.098 0 1.854-.597.767-.607 1.172-1.694.415-1.086.415-2.546t-.405-2.535q-.405-1.077-1.172-1.662-.766-.586-1.864-.586-1.119 0-1.886.607t-1.161 1.683-.394 2.493q0 1.428.394 2.525.405 1.087 1.161 1.705.767.607 1.886.607"/><path fill="#62748E" d="m43.523 170-3.182-11.636h1.432l2.432 9.477h.113l2.477-9.477h1.591l2.478 9.477h.113l2.432-9.477h1.432L51.659 170h-1.454l-2.569-9.273h-.09L44.976 170zm15.738.182q-1.26 0-2.176-.557a3.74 3.74 0 0 1-1.403-1.568q-.489-1.012-.489-2.352 0-1.341.489-2.364.495-1.029 1.375-1.602.886-.58 2.068-.58.682 0 1.347.227.664.228 1.21.739.544.505.87 1.341.323.835.323 2.057v.568h-6.727v-1.159h5.363q0-.74-.295-1.318a2.2 2.2 0 0 0-.83-.915q-.534-.336-1.261-.335-.801 0-1.386.397a2.6 2.6 0 0 0-.892 1.023 3 3 0 0 0-.313 1.352v.773q0 .989.341 1.676.347.682.96 1.04.615.352 1.426.352.529 0 .955-.147a2.05 2.05 0 0 0 .744-.455q.314-.307.483-.761l1.296.363q-.205.66-.688 1.159a3.35 3.35 0 0 1-1.193.773 4.4 4.4 0 0 1-1.597.273m13.7 0q-1.228 0-2.114-.58a3.77 3.77 0 0 1-1.364-1.596q-.477-1.017-.477-2.324 0-1.33.488-2.347.495-1.023 1.375-1.596.886-.58 2.069-.58.92 0 1.659.341.738.34 1.21.955.472.613.585 1.431h-1.34q-.154-.596-.683-1.056-.522-.466-1.409-.466-.783 0-1.375.409-.585.403-.914 1.142-.325.732-.324 1.721 0 1.012.318 1.762.324.75.909 1.164.591.415 1.386.415.523 0 .95-.182.425-.181.72-.522.297-.342.421-.818h1.341a3.1 3.1 0 0 1-.562 1.392 3.15 3.15 0 0 1-1.177.977q-.726.358-1.693.358m8.937 0q-1.183 0-2.074-.563-.886-.562-1.386-1.574-.495-1.011-.495-2.363 0-1.364.495-2.381.5-1.017 1.386-1.579.892-.563 2.074-.563t2.068.563q.893.562 1.386 1.579.5 1.017.5 2.381 0 1.352-.5 2.363a3.77 3.77 0 0 1-1.386 1.574q-.886.563-2.068.563m0-1.205q.897 0 1.477-.46.579-.46.858-1.21t.278-1.625a4.7 4.7 0 0 0-.278-1.631 2.74 2.74 0 0 0-.858-1.221q-.58-.466-1.477-.466t-1.477.466q-.58.465-.859 1.221a4.7 4.7 0 0 0-.278 1.631q0 .875.278 1.625.279.75.859 1.21.579.46 1.477.46m11.501-2.545v-5.159h1.341V170H93.4v-1.477h-.092q-.307.665-.954 1.13-.648.46-1.637.461-.818 0-1.454-.358-.637-.364-1-1.091-.364-.733-.364-1.847v-5.545h1.341v5.454q0 .955.534 1.523.54.568 1.375.568.5 0 1.017-.256.523-.255.875-.784.358-.528.358-1.346m5.138-8.068V170h-1.341v-11.636zm5.751 11.818q-1.09 0-1.926-.551-.835-.557-1.307-1.569-.471-1.017-.471-2.403 0-1.375.471-2.386.472-1.012 1.313-1.563t1.943-.551q.852 0 1.347.284.5.279.761.637.267.352.415.579h.113v-4.295h1.341V170h-1.295v-1.341h-.159q-.148.239-.421.602-.272.359-.778.642-.505.279-1.347.279m.182-1.205q.807 0 1.364-.42.556-.426.846-1.176.29-.756.29-1.745 0-.977-.284-1.71-.284-.738-.841-1.148-.556-.414-1.375-.414-.852 0-1.42.437-.562.432-.847 1.176a4.7 4.7 0 0 0-.278 1.659q0 .933.284 1.694.29.755.852 1.204.569.444 1.409.443m7.801-4.227V170h-1.341v-8.727h1.296v1.363h.113q.308-.665.932-1.068.626-.41 1.614-.409.886 0 1.551.364.665.357 1.034 1.091.369.726.369 1.841V170h-1.34v-5.455q0-1.028-.535-1.602-.534-.579-1.465-.579-.642 0-1.148.278a2 2 0 0 0-.79.813q-.29.533-.29 1.295m9.178-6.386v4h-1.25v-4zm6.183 2.909v1.136h-4.523v-1.136zm-3.204-2.091h1.34v8.318q0 .569.165.852a.85.85 0 0 0 .432.375q.267.091.563.091.22 0 .363-.023l.227-.045.273 1.205a3 3 0 0 1-.38.102q-.245.057-.62.057-.569 0-1.113-.245a2.2 2.2 0 0 1-.898-.744q-.352-.5-.352-1.261zm13.608 2.091v1.136h-4.705v-1.136zM134.74 170v-9.932q0-.75.352-1.25a2.2 2.2 0 0 1 .915-.75q.563-.25 1.188-.25.494 0 .806.08t.466.147l-.386 1.16a6 6 0 0 0-.284-.086 1.7 1.7 0 0 0-.466-.051q-.665 0-.96.335-.29.336-.29.983V170zm5.175 0v-8.727h1.341V170zm.682-10.182a.96.96 0 0 1-.677-.267.86.86 0 0 1-.278-.642.86.86 0 0 1 .278-.642.96.96 0 0 1 .677-.267q.391 0 .67.267a.85.85 0 0 1 .284.642q0 .375-.284.642a.93.93 0 0 1-.67.267m4.456 4.932V170h-1.341v-8.727h1.295v1.363h.114q.306-.665.932-1.068.624-.41 1.613-.409.887 0 1.551.364.666.357 1.034 1.091.37.726.37 1.841V170h-1.341v-5.455q0-1.028-.534-1.602-.534-.579-1.466-.579-.642 0-1.148.278a2 2 0 0 0-.79.813q-.29.533-.289 1.295m11.313 5.432q-1.09 0-1.926-.551-.834-.557-1.306-1.569-.472-1.017-.472-2.403 0-1.375.472-2.386.47-1.012 1.312-1.563.841-.55 1.943-.551.852 0 1.347.284.5.279.761.637.267.352.415.579h.114v-4.295h1.34V170h-1.295v-1.341h-.159q-.148.239-.421.602-.272.359-.778.642-.505.279-1.347.279m.182-1.205q.807 0 1.364-.42.556-.426.847-1.176.29-.756.289-1.745 0-.977-.284-1.71-.283-.738-.841-1.148-.556-.414-1.375-.414-.852 0-1.42.437-.562.432-.847 1.176a4.7 4.7 0 0 0-.278 1.659q0 .933.284 1.694.29.755.852 1.204.569.444 1.409.443M169.486 170l-2.659-8.727h1.409l1.886 6.682h.091l1.864-6.682h1.432l1.84 6.659h.091l1.887-6.659h1.409L176.077 170h-1.318l-1.91-6.705h-.136L170.804 170zm12.363-5.25V170h-1.34v-11.636h1.34v4.272h.114q.307-.675.921-1.074.619-.402 1.647-.403.893 0 1.563.358.67.353 1.04 1.085.375.728.375 1.853V170h-1.341v-5.455q0-1.04-.54-1.607-.534-.574-1.483-.574-.66 0-1.182.278a2.03 2.03 0 0 0-.818.813q-.296.533-.296 1.295m10.681 5.455a3.55 3.55 0 0 1-1.506-.313 2.6 2.6 0 0 1-1.074-.915q-.397-.602-.397-1.454 0-.75.295-1.216.295-.472.79-.739.494-.266 1.091-.398.602-.135 1.21-.215.795-.103 1.29-.154.5-.057.727-.187.233-.13.233-.455v-.045q0-.842-.46-1.307-.455-.466-1.381-.466-.96 0-1.506.42-.545.421-.767.898l-1.272-.454q.34-.797.909-1.239a3.4 3.4 0 0 1 1.25-.625 5.2 5.2 0 0 1 1.341-.182q.42 0 .965.102.552.097 1.063.404.518.306.858.926t.341 1.659V170h-1.341v-1.182h-.068a2.4 2.4 0 0 1-.455.608q-.318.324-.846.551-.53.228-1.29.228m.204-1.205q.797 0 1.341-.312.551-.314.83-.807.284-.495.284-1.04v-1.227q-.085.102-.375.187a6 6 0 0 1-.659.142q-.37.057-.722.102-.346.04-.562.069a5 5 0 0 0-.978.221 1.7 1.7 0 0 0-.727.449q-.273.296-.273.807 0 .699.518 1.057.522.352 1.323.352m10.039-7.727v1.136h-4.523v-1.136zm-3.205-2.091h1.341v8.318q0 .569.165.852a.85.85 0 0 0 .432.375q.267.091.562.091.222 0 .364-.023l.227-.045.273 1.205a3 3 0 0 1-.381.102 2.8 2.8 0 0 1-.619.057 2.7 2.7 0 0 1-1.114-.245 2.2 2.2 0 0 1-.898-.744q-.351-.5-.352-1.261zm10.585 14.091a3 3 0 0 1-.608-.057 1.6 1.6 0 0 1-.369-.102l.341-1.182q.489.124.864.091.375-.035.664-.335.296-.296.54-.961l.25-.682-3.227-8.772h1.454l2.41 6.954h.09l2.41-6.954h1.454l-3.704 10q-.25.676-.62 1.119a2.3 2.3 0 0 1-.858.665 2.64 2.64 0 0 1-1.091.216m11.276-3.091q-1.182 0-2.074-.563-.887-.562-1.386-1.574-.495-1.011-.495-2.363 0-1.364.495-2.381.5-1.017 1.386-1.579.892-.563 2.074-.563t2.068.563q.892.562 1.387 1.579.5 1.017.5 2.381 0 1.352-.5 2.363-.495 1.012-1.387 1.574-.886.563-2.068.563m0-1.205q.898 0 1.477-.46t.858-1.21.279-1.625q0-.876-.279-1.631a2.73 2.73 0 0 0-.858-1.221q-.58-.466-1.477-.466t-1.477.466q-.58.465-.858 1.221a4.7 4.7 0 0 0-.279 1.631q0 .875.279 1.625.277.75.858 1.21.579.46 1.477.46m11.501-2.545v-5.159h1.341V170h-1.341v-1.477h-.091q-.306.665-.954 1.13-.648.46-1.636.461-.819 0-1.455-.358-.637-.364-1-1.091-.364-.733-.364-1.847v-5.545h1.341v5.454q0 .955.534 1.523.54.568 1.375.568.501 0 1.017-.256.524-.255.875-.784.358-.528.358-1.346M43.205 194l-2.66-8.727h1.41l1.886 6.682h.09l1.864-6.682h1.432l1.841 6.659h.091l1.886-6.659h1.41L49.795 194h-1.318l-1.909-6.705h-.136L44.522 194zm14.385.182q-1.262 0-2.177-.557a3.74 3.74 0 0 1-1.403-1.568q-.489-1.012-.489-2.352 0-1.341.489-2.364.495-1.029 1.375-1.602.886-.58 2.068-.58.682 0 1.347.227.664.228 1.21.739.545.505.87 1.341.323.835.323 2.057v.568h-6.727v-1.159h5.364q0-.74-.296-1.318a2.2 2.2 0 0 0-.83-.915q-.534-.336-1.26-.335-.802 0-1.387.397a2.6 2.6 0 0 0-.892 1.023 3 3 0 0 0-.313 1.352v.773q0 .989.341 1.676.346.682.96 1.04.614.352 1.427.352.528 0 .954-.147.432-.154.744-.455.314-.307.483-.761l1.296.363q-.205.66-.688 1.159-.483.495-1.193.773a4.4 4.4 0 0 1-1.596.273m5.653-.182v-8.727h1.295v1.318h.091q.24-.648.864-1.051a2.54 2.54 0 0 1 1.409-.404q.148 0 .37.006.221.006.334.017v1.364a3 3 0 0 0-.312-.051 3 3 0 0 0-.506-.04q-.636 0-1.136.267-.494.262-.784.727a1.96 1.96 0 0 0-.284 1.051V194zm9.346.182q-1.26 0-2.176-.557a3.74 3.74 0 0 1-1.403-1.568q-.489-1.012-.489-2.352 0-1.341.489-2.364.495-1.029 1.375-1.602.886-.58 2.068-.58.682 0 1.347.227.664.228 1.21.739.545.505.87 1.341.323.835.323 2.057v.568h-6.727v-1.159h5.364q0-.74-.296-1.318a2.2 2.2 0 0 0-.83-.915q-.534-.336-1.26-.335-.802 0-1.387.397a2.6 2.6 0 0 0-.892 1.023 3 3 0 0 0-.313 1.352v.773q0 .989.341 1.676.347.682.96 1.04.614.352 1.427.352.528 0 .954-.147.432-.154.744-.455.314-.307.483-.761l1.296.363q-.205.66-.688 1.159-.483.495-1.193.773a4.4 4.4 0 0 1-1.597.273m11.495-11.818V194h-1.341v-11.636zm6.001 11.818q-1.182 0-2.074-.563-.886-.562-1.386-1.574-.494-1.011-.494-2.363 0-1.364.494-2.381.5-1.017 1.386-1.579.892-.563 2.074-.563t2.068.563q.892.562 1.387 1.579.5 1.017.5 2.381 0 1.352-.5 2.363a3.77 3.77 0 0 1-1.387 1.574q-.886.563-2.068.563m0-1.205q.898 0 1.478-.46.579-.46.858-1.21.278-.75.278-1.625a4.7 4.7 0 0 0-.278-1.631 2.74 2.74 0 0 0-.859-1.221q-.579-.466-1.477-.466-.897 0-1.477.466-.579.465-.858 1.221a4.7 4.7 0 0 0-.278 1.631q0 .875.278 1.625.279.75.858 1.21.58.46 1.477.46m9.547 1.205q-1.183 0-2.074-.563-.886-.562-1.386-1.574-.495-1.011-.494-2.363 0-1.364.494-2.381.5-1.017 1.386-1.579.892-.563 2.074-.563t2.068.563q.892.562 1.387 1.579.5 1.017.5 2.381 0 1.352-.5 2.363-.495 1.012-1.387 1.574-.886.563-2.068.563m0-1.205q.898 0 1.477-.46t.858-1.21.279-1.625q0-.876-.279-1.631a2.73 2.73 0 0 0-.858-1.221q-.579-.466-1.477-.466-.897 0-1.477.466-.579.465-.858 1.221a4.7 4.7 0 0 0-.278 1.631q0 .875.278 1.625.279.75.858 1.21.58.46 1.477.46m7.252-2.159-.023-1.659h.273l3.818-3.886h1.659l-4.068 4.113h-.114zm-1.25 3.182v-11.636h1.34V194zm5.545 0-3.409-4.318.954-.932 4.16 5.25zm3.158 0v-8.727h1.341V194zm.681-10.182a.96.96 0 0 1-.676-.267.86.86 0 0 1-.278-.642.86.86 0 0 1 .278-.642.96.96 0 0 1 .676-.267q.393 0 .671.267a.85.85 0 0 1 .284.642q0 .375-.284.642a.94.94 0 0 1-.671.267m4.456 4.932V194h-1.34v-8.727h1.295v1.363h.114q.306-.665.931-1.068.626-.41 1.614-.409.886 0 1.551.364.665.357 1.034 1.091.37.726.37 1.841V194h-1.341v-5.455q0-1.028-.534-1.602-.534-.579-1.466-.579-.642 0-1.148.278a2 2 0 0 0-.79.813q-.29.534-.29 1.295m11.542 8.705q-.972 0-1.671-.25a3.6 3.6 0 0 1-1.165-.648 3.6 3.6 0 0 1-.733-.852l1.069-.75q.181.238.46.545.278.312.761.54.489.233 1.279.233 1.056 0 1.744-.512.687-.511.687-1.602v-1.773h-.113a7 7 0 0 1-.421.591q-.267.347-.772.62-.5.267-1.353.267-1.056 0-1.897-.5-.835-.501-1.324-1.455-.483-.954-.483-2.318 0-1.34.471-2.335.472-1 1.313-1.546.841-.55 1.943-.551.852 0 1.352.284.506.279.773.637.273.352.421.579h.136v-1.386h1.295v8.977q0 1.125-.511 1.83a2.9 2.9 0 0 1-1.364 1.039 5.1 5.1 0 0 1-1.897.336m-.046-4.796q.807 0 1.364-.369.556-.37.846-1.063t.29-1.659q0-.944-.284-1.665t-.841-1.13q-.556-.41-1.375-.409-.852 0-1.42.431a2.64 2.64 0 0 0-.847 1.16 4.5 4.5 0 0 0-.278 1.613q0 .909.284 1.608.29.693.852 1.091.569.392 1.409.392m14.659-7.386v1.136h-4.704v-1.136zM142.334 194v-9.932q0-.75.352-1.25a2.2 2.2 0 0 1 .915-.75q.563-.25 1.187-.25.495 0 .807.08t.466.147l-.386 1.16a6 6 0 0 0-.284-.086 1.7 1.7 0 0 0-.466-.051q-.665 0-.961.335-.29.336-.289.983V194zm8.361.182q-1.183 0-2.074-.563-.886-.562-1.387-1.574-.494-1.011-.494-2.363 0-1.364.494-2.381.5-1.017 1.387-1.579.891-.563 2.074-.563 1.181 0 2.068.563.892.562 1.386 1.579.5 1.017.5 2.381 0 1.352-.5 2.363a3.77 3.77 0 0 1-1.386 1.574q-.887.563-2.068.563m0-1.205q.898 0 1.477-.46a2.7 2.7 0 0 0 .858-1.21q.278-.75.278-1.625 0-.876-.278-1.631a2.75 2.75 0 0 0-.858-1.221q-.58-.466-1.477-.466t-1.478.466q-.579.465-.858 1.221a4.7 4.7 0 0 0-.278 1.631q0 .875.278 1.625.279.75.858 1.21.58.46 1.478.46m6.001 1.023v-8.727h1.295v1.318h.091q.238-.648.864-1.051a2.54 2.54 0 0 1 1.409-.404q.148 0 .369.006.222.006.336.017v1.364a4 4 0 0 0-.313-.051 3 3 0 0 0-.506-.04q-.636 0-1.136.267a2 2 0 0 0-.784.727 1.96 1.96 0 0 0-.284 1.051V194zm5.93.091q-.42 0-.721-.301a.99.99 0 0 1-.301-.722q0-.42.301-.721a.98.98 0 0 1 .721-.302q.421 0 .722.302.301.3.301.721a.96.96 0 0 1-.142.512q-.137.232-.369.375a1 1 0 0 1-.512.136m8.111-.091v-11.636h3.932q1.37 0 2.239.494.875.489 1.295 1.324a4.1 4.1 0 0 1 .421 1.863q0 1.029-.421 1.87-.414.84-1.284 1.341-.87.494-2.227.494h-2.818v-1.25h2.772q.938 0 1.506-.324a1.93 1.93 0 0 0 .824-.875q.261-.557.261-1.256a2.9 2.9 0 0 0-.261-1.25 1.87 1.87 0 0 0-.83-.863q-.573-.318-1.522-.318h-2.478V194zm11.316-11.636V194h-1.341v-11.636zm6.115 11.818q-1.262 0-2.177-.557a3.74 3.74 0 0 1-1.403-1.568q-.489-1.012-.489-2.352 0-1.341.489-2.364.495-1.029 1.375-1.602.886-.58 2.068-.58.683 0 1.347.227.664.228 1.21.739.546.505.869 1.341.324.835.324 2.057v.568h-6.727v-1.159h5.364q0-.74-.296-1.318a2.2 2.2 0 0 0-.829-.915q-.534-.336-1.262-.335-.801 0-1.386.397a2.6 2.6 0 0 0-.892 1.023 3 3 0 0 0-.313 1.352v.773q0 .989.341 1.676.346.682.96 1.04.614.352 1.427.352.528 0 .954-.147.432-.154.744-.455.314-.307.483-.761l1.296.363q-.204.66-.688 1.159-.483.495-1.193.773a4.4 4.4 0 0 1-1.596.273m8.221.023a3.55 3.55 0 0 1-1.505-.313 2.6 2.6 0 0 1-1.074-.915q-.398-.602-.398-1.454 0-.75.295-1.216.296-.472.79-.739.495-.266 1.091-.398.603-.135 1.21-.215.797-.103 1.29-.154.5-.057.727-.187.233-.13.233-.455v-.045q0-.842-.46-1.307-.454-.466-1.381-.466-.96 0-1.505.42-.546.421-.767.898l-1.273-.454q.34-.796.909-1.239a3.4 3.4 0 0 1 1.25-.625 5.2 5.2 0 0 1 1.341-.182q.42 0 .966.102.55.097 1.062.404.517.306.858.926t.341 1.659V194h-1.341v-1.182h-.068q-.136.284-.454.608-.32.324-.847.551-.528.228-1.29.228m.205-1.205q.795 0 1.341-.312a2.13 2.13 0 0 0 1.113-1.847v-1.227q-.085.102-.375.187a6 6 0 0 1-.659.142 28 28 0 0 1-1.284.171 5 5 0 0 0-.977.221 1.7 1.7 0 0 0-.727.449q-.273.296-.273.807 0 .699.517 1.057.523.352 1.324.352m12.424-5.773-1.204.341a2.3 2.3 0 0 0-.335-.585 1.6 1.6 0 0 0-.591-.477q-.375-.188-.96-.188-.802 0-1.336.37-.528.363-.528.926 0 .5.364.789.363.291 1.136.483l1.295.319q1.171.284 1.745.869.574.579.574 1.494 0 .75-.432 1.341-.426.591-1.193.932-.768.34-1.785.341-1.335 0-2.21-.58-.874-.579-1.108-1.693l1.273-.318q.181.705.688 1.057.51.352 1.335.352.938 0 1.488-.398.558-.403.557-.966 0-.454-.318-.761-.318-.312-.977-.466l-1.455-.341q-1.198-.284-1.761-.88-.557-.603-.557-1.506 0-.739.415-1.307a2.8 2.8 0 0 1 1.142-.892q.727-.324 1.648-.324 1.294 0 2.034.568.744.569 1.056 1.5m5.837 6.955q-1.261 0-2.176-.557a3.74 3.74 0 0 1-1.403-1.568q-.489-1.012-.489-2.352 0-1.341.489-2.364.493-1.029 1.375-1.602.885-.58 2.068-.58.681 0 1.346.227.665.228 1.211.739.545.505.869 1.341.324.835.324 2.057v.568h-6.728v-1.159h5.364q0-.74-.295-1.318a2.23 2.23 0 0 0-.83-.915q-.534-.336-1.261-.335-.8 0-1.387.397a2.63 2.63 0 0 0-.892 1.023 3 3 0 0 0-.312 1.352v.773q0 .989.341 1.676.346.682.96 1.04.613.352 1.426.352.528 0 .955-.147.432-.154.744-.455.312-.307.483-.761l1.295.363a2.86 2.86 0 0 1-.687 1.159q-.483.495-1.193.773a4.4 4.4 0 0 1-1.597.273m-170.082 24q-1.228 0-2.114-.58a3.77 3.77 0 0 1-1.364-1.596q-.477-1.017-.477-2.324 0-1.33.489-2.347.495-1.023 1.375-1.596.886-.58 2.068-.58.92 0 1.66.341.738.34 1.21.955.471.613.585 1.431h-1.341q-.154-.596-.682-1.056-.523-.466-1.41-.466-.783 0-1.374.409-.585.403-.915 1.142-.324.732-.324 1.721 0 1.012.318 1.762.325.75.91 1.164.59.415 1.386.415.522 0 .949-.182.426-.181.721-.522.296-.342.42-.818h1.342a3.1 3.1 0 0 1-.563 1.392 3.15 3.15 0 0 1-1.176.977q-.728.358-1.693.358m6.733-5.432V218h-1.341v-11.636h1.34v4.272h.114q.308-.675.92-1.074.62-.402 1.648-.403.892 0 1.563.358.67.353 1.04 1.085.375.728.375 1.853V218h-1.341v-5.455q0-1.04-.54-1.607-.534-.574-1.483-.574-.66 0-1.182.278a2.03 2.03 0 0 0-.818.813q-.295.534-.295 1.295m11.771 5.432q-1.26 0-2.176-.557a3.74 3.74 0 0 1-1.404-1.568q-.488-1.012-.488-2.352 0-1.341.488-2.364.495-1.029 1.375-1.602.886-.58 2.069-.58.681 0 1.346.227.665.228 1.21.739.546.505.87 1.341.324.835.324 2.057v.568h-6.728v-1.159h5.364q0-.74-.296-1.318a2.2 2.2 0 0 0-.829-.915q-.534-.336-1.261-.335-.802 0-1.387.397a2.6 2.6 0 0 0-.892 1.023 3 3 0 0 0-.312 1.352v.773q0 .989.34 1.676.348.682.96 1.04.614.352 1.427.352.528 0 .954-.147.433-.154.745-.455.313-.307.483-.761l1.295.363q-.204.66-.687 1.159-.483.495-1.193.773a4.4 4.4 0 0 1-1.597.273m9.199 0q-1.227 0-2.114-.58A3.77 3.77 0 0 1 69 216.006q-.478-1.017-.478-2.324 0-1.33.489-2.347.495-1.023 1.375-1.596.886-.58 2.068-.58.92 0 1.66.341.738.34 1.21.955.471.613.585 1.431h-1.341q-.154-.596-.682-1.056-.523-.466-1.41-.466-.783 0-1.374.409-.585.403-.915 1.142-.324.732-.324 1.721 0 1.012.318 1.762.325.75.91 1.164.59.415 1.386.415.523 0 .949-.182.426-.181.721-.522.296-.342.42-.818h1.342a3.1 3.1 0 0 1-.563 1.392 3.15 3.15 0 0 1-1.176.977q-.728.358-1.693.358m6.642-3.364-.023-1.659h.273l3.818-3.886h1.66l-4.069 4.113h-.114zM77.868 218v-11.636h1.34V218zm5.545 0-3.409-4.318.955-.932 4.159 5.25zm10.226.205a3.55 3.55 0 0 1-1.505-.313 2.6 2.6 0 0 1-1.074-.915q-.398-.602-.398-1.454 0-.75.295-1.216.295-.472.79-.739.495-.266 1.091-.398.603-.135 1.21-.215.795-.103 1.29-.154.5-.057.727-.187.234-.13.233-.455v-.045q0-.842-.46-1.307-.455-.466-1.38-.466-.96 0-1.506.42-.546.421-.767.898l-1.273-.454q.34-.796.909-1.239.575-.449 1.25-.625a5.2 5.2 0 0 1 1.34-.182q.421 0 .967.102.55.097 1.062.404.517.306.858.926t.341 1.659V218H96.3v-1.182h-.069q-.135.284-.454.608-.32.324-.847.551-.528.228-1.29.228m.205-1.205q.795 0 1.34-.312.552-.314.83-.807.284-.494.284-1.04v-1.227q-.084.102-.375.187-.284.08-.659.142-.369.057-.721.102-.347.04-.563.069a5 5 0 0 0-.977.221q-.45.148-.727.449-.273.296-.273.807 0 .699.517 1.057.522.352 1.324.352m7.584-4.25V218h-1.341v-8.727h1.295v1.363h.114q.306-.665.932-1.068.624-.41 1.613-.409.886 0 1.551.364.665.357 1.034 1.091.37.726.37 1.841V218h-1.341v-5.455q0-1.028-.534-1.602-.534-.579-1.466-.579-.642 0-1.148.278a2 2 0 0 0-.79.813q-.29.534-.289 1.295m11.313 5.432q-1.09 0-1.926-.551-.835-.557-1.306-1.569-.472-1.017-.472-2.403 0-1.375.472-2.386.47-1.012 1.312-1.563.841-.55 1.943-.551.852 0 1.347.284.5.279.761.637.267.352.415.579h.114v-4.295h1.34V218h-1.295v-1.341h-.159q-.148.239-.421.602-.272.359-.778.642-.506.279-1.347.279m.182-1.205q.807 0 1.364-.42.556-.426.847-1.176.29-.756.289-1.745 0-.977-.284-1.71-.283-.738-.841-1.148-.556-.414-1.375-.414-.852 0-1.42.437-.562.432-.847 1.176a4.7 4.7 0 0 0-.278 1.659q0 .933.284 1.694.29.755.852 1.204.569.444 1.409.443m14.756-7.704v1.136h-4.523v-1.136zm-3.205-2.091h1.341v8.318q0 .569.165.852a.85.85 0 0 0 .432.375q.267.091.562.091.222 0 .364-.023l.227-.045.273 1.205a3 3 0 0 1-.381.102 2.8 2.8 0 0 1-.619.057 2.7 2.7 0 0 1-1.114-.245 2.2 2.2 0 0 1-.897-.744q-.353-.5-.353-1.261zM129.696 218v-8.727h1.295v1.318h.091q.238-.648.864-1.051a2.54 2.54 0 0 1 1.409-.404q.148 0 .369.006.222.006.336.017v1.364a4 4 0 0 0-.313-.051 3 3 0 0 0-.506-.04q-.636 0-1.136.267a2 2 0 0 0-.784.727 1.96 1.96 0 0 0-.284 1.051V218zm7.082 3.273a3 3 0 0 1-.608-.057 1.6 1.6 0 0 1-.369-.102l.341-1.182q.489.124.864.091.375-.035.664-.335.296-.296.54-.961l.25-.682-3.227-8.772h1.455l2.409 6.954h.091l2.409-6.954h1.454l-3.704 10q-.25.676-.62 1.119a2.3 2.3 0 0 1-.858.665 2.64 2.64 0 0 1-1.091.216m15.111-3.068a3.55 3.55 0 0 1-1.505-.313 2.6 2.6 0 0 1-1.074-.915q-.398-.602-.398-1.454 0-.75.295-1.216.296-.472.79-.739.495-.266 1.091-.398.603-.135 1.21-.215.797-.103 1.29-.154.5-.057.727-.187.233-.13.233-.455v-.045q0-.842-.46-1.307-.454-.466-1.381-.466-.96 0-1.505.42-.546.421-.767.898l-1.273-.454q.34-.796.909-1.239a3.4 3.4 0 0 1 1.25-.625 5.2 5.2 0 0 1 1.341-.182q.42 0 .966.102.55.097 1.062.404.517.306.858.926t.341 1.659V218h-1.341v-1.182h-.068q-.136.284-.454.608-.32.324-.847.551-.528.228-1.29.228m.205-1.205q.795 0 1.341-.312a2.13 2.13 0 0 0 1.113-1.847v-1.227q-.085.102-.375.187a6 6 0 0 1-.659.142 28 28 0 0 1-1.284.171 5 5 0 0 0-.977.221 1.7 1.7 0 0 0-.727.449q-.273.296-.273.807 0 .699.517 1.057.523.352 1.324.352m9.765 4.455q-.97 0-1.67-.25a3.6 3.6 0 0 1-1.165-.648 3.5 3.5 0 0 1-.733-.852l1.068-.75q.183.238.461.545.278.312.761.54.489.233 1.278.233 1.057 0 1.745-.512.687-.511.687-1.602v-1.773h-.113a7 7 0 0 1-.421.591q-.267.347-.773.62-.5.267-1.352.267a3.65 3.65 0 0 1-1.898-.5q-.835-.501-1.323-1.455-.483-.954-.483-2.318 0-1.34.471-2.335.472-1 1.313-1.546.84-.55 1.943-.551.852 0 1.352.284.506.279.773.637.273.352.42.579h.137v-1.386h1.295v8.977q0 1.125-.511 1.83a2.9 2.9 0 0 1-1.364 1.039 5.1 5.1 0 0 1-1.898.336m-.045-4.796q.806 0 1.364-.369.556-.37.846-1.063t.29-1.659q0-.944-.284-1.665-.285-.722-.841-1.13-.557-.41-1.375-.409-.852 0-1.421.431a2.63 2.63 0 0 0-.846 1.16 4.5 4.5 0 0 0-.279 1.613q0 .909.285 1.608.29.693.852 1.091.568.392 1.409.392m8.841 1.546a3.55 3.55 0 0 1-1.506-.313 2.6 2.6 0 0 1-1.074-.915q-.397-.602-.397-1.454 0-.75.295-1.216.295-.472.79-.739.494-.266 1.091-.398.602-.135 1.21-.215.795-.103 1.29-.154.5-.057.727-.187.233-.13.233-.455v-.045q0-.842-.46-1.307-.455-.466-1.381-.466-.96 0-1.506.42-.545.421-.767.898l-1.272-.454q.34-.796.909-1.239a3.4 3.4 0 0 1 1.25-.625 5.2 5.2 0 0 1 1.341-.182q.42 0 .965.102.552.097 1.063.404.518.306.858.926t.341 1.659V218h-1.341v-1.182h-.068a2.4 2.4 0 0 1-.455.608q-.318.324-.846.551-.53.228-1.29.228m.204-1.205q.797 0 1.341-.312.551-.314.83-.807.284-.494.284-1.04v-1.227q-.085.102-.375.187a6 6 0 0 1-.659.142q-.37.057-.722.102-.346.04-.562.069a5 5 0 0 0-.978.221 1.7 1.7 0 0 0-.727.449q-.273.296-.273.807 0 .699.518 1.057.522.352 1.323.352m6.243 1v-8.727h1.341V218zm.682-10.182a.95.95 0 0 1-.676-.267.86.86 0 0 1-.278-.642q0-.375.278-.642a.95.95 0 0 1 .676-.267q.392 0 .671.267a.85.85 0 0 1 .284.642q0 .375-.284.642a.94.94 0 0 1-.671.267m4.456 4.932V218h-1.341v-8.727h1.296v1.363h.113q.307-.665.932-1.068.625-.41 1.614-.409.887 0 1.551.364.665.357 1.034 1.091.369.726.369 1.841V218h-1.341v-5.455q0-1.028-.534-1.602-.533-.579-1.466-.579-.642 0-1.147.278a2 2 0 0 0-.79.813q-.29.534-.29 1.295m8.996 5.341a.98.98 0 0 1-.722-.301.99.99 0 0 1-.301-.722q0-.42.301-.721a.98.98 0 0 1 .722-.302q.42 0 .721.302.302.3.302.721a.97.97 0 0 1-.143.512 1.06 1.06 0 0 1-.369.375 1 1 0 0 1-.511.136"/><path fill="#18181B" d="M40 254a6 6 0 0 1 6-6h111a6 6 0 0 1 6 6v24a6 6 0 0 1-6 6H46a6 6 0 0 1-6-6z"/><path fill="#F8FAFC" d="M60.202 264.035a3.1 3.1 0 0 0-.388-.811 2.47 2.47 0 0 0-1.333-1.009 3 3 0 0 0-.93-.134q-.86 0-1.55.442-.692.443-1.094 1.298-.398.85-.398 2.083 0 1.238.403 2.093.402.855 1.104 1.298.7.442 1.595.442.83 0 1.447-.338.621-.337.96-.954.343-.622.343-1.462l.397.075h-2.913v-1.268h4.002v1.158q0 1.283-.547 2.227a3.7 3.7 0 0 1-1.501 1.452q-.955.512-2.188.512-1.382 0-2.426-.636-1.039-.636-1.62-1.805-.582-1.173-.582-2.784 0-1.218.338-2.187a4.75 4.75 0 0 1 .95-1.646 4.15 4.15 0 0 1 1.446-1.039 4.5 4.5 0 0 1 1.825-.363q.825 0 1.536.244a4.1 4.1 0 0 1 1.273.691 3.9 3.9 0 0 1 1.427 2.421zm6.693 7.119q-1.074 0-1.875-.492a3.3 3.3 0 0 1-1.243-1.377q-.441-.885-.442-2.068 0-1.189.442-2.079a3.3 3.3 0 0 1 1.243-1.382q.801-.492 1.875-.492t1.874.492a3.3 3.3 0 0 1 1.243 1.382q.442.89.442 2.079 0 1.183-.442 2.068a3.3 3.3 0 0 1-1.243 1.377q-.801.492-1.874.492m.005-1.248q.696 0 1.153-.368.457-.367.676-.979.225-.612.224-1.347a3.9 3.9 0 0 0-.224-1.343 2.2 2.2 0 0 0-.676-.989q-.458-.373-1.153-.373-.702 0-1.164.373a2.2 2.2 0 0 0-.68.989 4 4 0 0 0-.22 1.343q0 .735.22 1.347.222.612.68.979.462.369 1.164.368M75.938 271v-10.182h3.729q1.083 0 1.794.358.711.353 1.064.96.353.601.353 1.357 0 .636-.233 1.074a1.9 1.9 0 0 1-.627.696 2.8 2.8 0 0 1-.855.378v.099q.507.025.99.328.486.298.805.85.318.552.318 1.343 0 .78-.368 1.402-.363.616-1.124.979-.76.358-1.943.358zm1.536-1.317h2.218q1.103 0 1.58-.428.478-.427.478-1.069a1.7 1.7 0 0 0-.244-.885 1.74 1.74 0 0 0-.696-.641q-.447-.239-1.064-.239h-2.272zm0-4.46h2.058q.517 0 .93-.199a1.6 1.6 0 0 0 .661-.557q.249-.363.249-.855 0-.632-.443-1.059-.442-.427-1.357-.427h-2.098zm9.727 5.946q-.726 0-1.312-.268a2.2 2.2 0 0 1-.93-.791q-.338-.517-.338-1.268 0-.646.248-1.064.249-.417.672-.661.422-.243.944-.368a9 9 0 0 1 1.064-.189l1.114-.129q.428-.054.621-.174.194-.119.194-.388v-.034q0-.652-.368-1.01-.363-.358-1.084-.358-.75 0-1.183.333-.427.329-.592.731l-1.397-.318q.249-.695.726-1.124a2.95 2.95 0 0 1 1.109-.626 4.3 4.3 0 0 1 1.318-.199q.457 0 .969.11.517.103.964.387.453.283.741.811.288.522.288 1.357V271h-1.451v-1.044h-.06q-.144.288-.432.567-.29.277-.741.462-.453.184-1.084.184m.323-1.193q.617 0 1.054-.244.443-.243.671-.636.234-.398.234-.85v-.985q-.08.08-.308.15a5 5 0 0 1-.512.114q-.288.045-.562.084l-.457.06a3.7 3.7 0 0 0-.79.184 1.35 1.35 0 0 0-.568.373q-.209.238-.209.636 0 .552.408.835.407.279 1.04.279m8.642 1.178q-1.108 0-1.909-.502a3.33 3.33 0 0 1-1.223-1.397q-.428-.89-.428-2.038 0-1.163.438-2.054a3.36 3.36 0 0 1 1.233-1.397q.795-.502 1.874-.502.87 0 1.551.323.68.319 1.099.895.424.577.502 1.348h-1.447a1.73 1.73 0 0 0-.546-.925q-.423-.388-1.134-.388-.621 0-1.089.328-.462.324-.72.925-.26.596-.26 1.412 0 .835.254 1.442.254.606.716.939.468.333 1.099.333.423 0 .766-.154.348-.16.581-.452.24-.294.333-.706h1.447a2.8 2.8 0 0 1-.482 1.322 2.8 2.8 0 0 1-1.079.915q-.671.333-1.576.333m6.094-2.744-.01-1.815h.259l3.042-3.231h1.78l-3.47 3.679h-.234zm-1.367 2.59v-10.182h1.486V271zm4.822 0-2.734-3.629 1.024-1.039L107.54 271zm6.795 0v-10.182h1.536v4.425h5.076v-4.425h1.542V271h-1.542v-4.44h-5.076V271zm13.488.154q-1.074 0-1.874-.492a3.3 3.3 0 0 1-1.243-1.377q-.443-.885-.443-2.068 0-1.189.443-2.079a3.3 3.3 0 0 1 1.243-1.382q.8-.492 1.874-.492t1.874.492q.8.493 1.243 1.382.443.89.443 2.079 0 1.183-.443 2.068a3.3 3.3 0 0 1-1.243 1.377q-.8.492-1.874.492m.005-1.248q.696 0 1.154-.368a2.16 2.16 0 0 0 .676-.979 3.9 3.9 0 0 0 .223-1.347q0-.731-.223-1.343a2.2 2.2 0 0 0-.676-.989q-.458-.373-1.154-.373-.7 0-1.163.373a2.2 2.2 0 0 0-.681.989 4 4 0 0 0-.219 1.343q0 .735.219 1.347.224.612.681.979.462.369 1.163.368m5.214 1.094v-7.636h1.427v1.243h.094q.239-.632.781-.985.542-.358 1.297-.358.766 0 1.283.358.522.358.771.985h.079q.274-.612.87-.975.597-.368 1.422-.368 1.04 0 1.696.651.66.652.661 1.964V271h-1.487v-4.982q0-.775-.422-1.123a1.54 1.54 0 0 0-1.01-.348q-.725 0-1.128.447-.403.443-.403 1.139V271h-1.481v-5.076q0-.621-.388-.999t-1.009-.378a1.44 1.44 0 0 0-.781.224 1.64 1.64 0 0 0-.572.611 1.9 1.9 0 0 0-.213.91V271zm15.664.154q-1.128 0-1.944-.482a3.28 3.28 0 0 1-1.252-1.367q-.438-.885-.438-2.073 0-1.174.438-2.069a3.4 3.4 0 0 1 1.233-1.397q.795-.502 1.859-.502.646 0 1.253.214t1.089.671q.482.458.76 1.188.279.726.279 1.765v.527h-6.071v-1.113h4.614q0-.587-.239-1.039a1.8 1.8 0 0 0-.671-.721 1.87 1.87 0 0 0-1.004-.264q-.627 0-1.094.308a2.1 2.1 0 0 0-.716.796 2.3 2.3 0 0 0-.248 1.059v.87q0 .765.268 1.302.273.537.761.821a2.26 2.26 0 0 0 1.138.278q.423 0 .771-.119a1.589 1.589 0 0 0 .989-.97l1.407.254a2.56 2.56 0 0 1-.606 1.089 3 3 0 0 1-1.089.721q-.651.253-1.487.253"/></svg>