<svg xmlns="http://www.w3.org/2000/svg" width="304" height="190" fill="none"><g filter="url(#a)"><path fill="#fff" d="M2 9a8 8 0 0 1 8-8h284a8 8 0 0 1 8 8v170a8 8 0 0 1-8 8H10a8 8 0 0 1-8-8z"/><path stroke="#E4E4E7" d="M10 1.5h284a7.5 7.5 0 0 1 7.5 7.5v170a7.5 7.5 0 0 1-7.5 7.5H10a7.5 7.5 0 0 1-7.5-7.5V9A7.5 7.5 0 0 1 10 1.5Z"/><path fill="#71717A" d="M19.233 23.818h1.471l3.46 8.452h.12l3.46-8.452h1.472V34h-1.154v-7.736h-.099L24.781 34h-1.113l-3.182-7.736h-.1V34h-1.153zM34.631 34.16q-1.035 0-1.814-.492a3.34 3.34 0 0 1-1.213-1.377q-.433-.886-.433-2.068 0-1.193.433-2.084a3.34 3.34 0 0 1 1.213-1.382q.78-.492 1.814-.492t1.81.492q.78.493 1.213 1.383.438.89.437 2.083 0 1.183-.437 2.068a3.3 3.3 0 0 1-1.213 1.377q-.775.492-1.81.492m0-1.054q.786 0 1.293-.403.507-.402.75-1.058.244-.657.244-1.422t-.243-1.427a2.4 2.4 0 0 0-.751-1.07q-.508-.406-1.293-.407t-1.292.408a2.4 2.4 0 0 0-.751 1.069q-.244.66-.244 1.427 0 .765.244 1.421t.75 1.06q.509.402 1.293.402m11.222-6.741L43.03 34h-1.193l-2.824-7.636h1.273l2.108 6.085h.08l2.108-6.085zm4.477 7.795q-1.103 0-1.904-.487a3.27 3.27 0 0 1-1.228-1.372q-.427-.885-.427-2.058 0-1.174.427-2.069.433-.9 1.203-1.402.775-.507 1.81-.507.596 0 1.178.2.582.198 1.06.645.475.442.76 1.174.283.73.283 1.8v.497h-5.886v-1.015h4.693q0-.645-.258-1.153a1.95 1.95 0 0 0-.726-.8q-.468-.294-1.104-.294-.701 0-1.213.348a2.3 2.3 0 0 0-.78.895 2.6 2.6 0 0 0-.274 1.183v.677q0 .864.298 1.466.303.597.84.91.537.308 1.248.308.463 0 .836-.13.378-.133.65-.397.274-.268.423-.666l1.134.318q-.18.577-.602 1.014-.422.433-1.044.676-.621.24-1.397.24"/><path fill="#09090B" d="M24.492 60.199q-1.507 0-2.685-.554-1.172-.554-1.861-1.527t-.717-2.23h2.983q.05.845.71 1.37t1.57.526q.724 0 1.278-.32.56-.326.874-.901a2.73 2.73 0 0 0 .32-1.336q0-.766-.328-1.35a2.3 2.3 0 0 0-.887-.908 2.6 2.6 0 0 0-1.3-.334q-.639 0-1.243.263-.597.263-.93.717l-2.735-.49.69-7.67h8.891v2.514h-6.356l-.377 3.643h.085q.384-.54 1.158-.895a4.1 4.1 0 0 1 1.733-.355q1.314 0 2.344.618a4.45 4.45 0 0 1 1.626 1.698q.597 1.072.59 2.471.007 1.47-.682 2.614a4.8 4.8 0 0 1-1.91 1.79q-1.223.645-2.841.646m13.16 0a6.6 6.6 0 0 1-2.166-.377 4.9 4.9 0 0 1-1.861-1.2q-.825-.831-1.307-2.202-.476-1.37-.476-3.366.007-1.833.42-3.274.418-1.449 1.193-2.458a5.2 5.2 0 0 1 1.867-1.534q1.088-.532 2.436-.532 1.456 0 2.572.568 1.115.561 1.79 1.527.682.966.823 2.166h-3.032q-.178-.76-.746-1.193t-1.407-.433q-1.42 0-2.159 1.235-.731 1.236-.745 3.36h.1q.325-.646.88-1.101a4 4 0 0 1 1.271-.703 4.6 4.6 0 0 1 1.513-.249q1.293 0 2.301.611a4.33 4.33 0 0 1 1.59 1.662q.584 1.058.583 2.422 0 1.477-.689 2.628a4.8 4.8 0 0 1-1.91 1.804q-1.222.646-2.841.639m-.014-2.415a2.4 2.4 0 0 0 2.152-1.264q.32-.582.32-1.307 0-.724-.32-1.3a2.363 2.363 0 0 0-2.13-1.257q-.534 0-.988.2a2.5 2.5 0 0 0-.788.553 2.66 2.66 0 0 0-.718 1.811q0 .703.32 1.286.327.582.88.93.561.348 1.272.348M45.273 60v-2.216l5.177-4.794q.66-.64 1.108-1.15a4.4 4.4 0 0 0 .69-1.002q.233-.497.233-1.072 0-.64-.29-1.101a1.9 1.9 0 0 0-.796-.718 2.5 2.5 0 0 0-1.144-.255q-.667 0-1.164.27a1.86 1.86 0 0 0-.767.774q-.27.504-.27 1.2h-2.92q0-1.428.647-2.479a4.3 4.3 0 0 1 1.811-1.626q1.166-.576 2.685-.575 1.562 0 2.72.554 1.164.545 1.811 1.52.645.973.646 2.23a4.3 4.3 0 0 1-.326 1.626q-.32.803-1.144 1.783-.824.972-2.322 2.336l-2.124 2.081v.1h6.108V60zm18.961-15.227-4.687 17.414H56.94l4.688-17.414zm7.012 15.426a6.6 6.6 0 0 1-2.166-.377 4.9 4.9 0 0 1-1.861-1.2q-.825-.831-1.307-2.202-.476-1.37-.476-3.366.007-1.833.42-3.274.418-1.449 1.192-2.458a5.2 5.2 0 0 1 1.868-1.534q1.088-.532 2.436-.532 1.456 0 2.571.568 1.115.561 1.79 1.527.683.966.824 2.166h-3.033q-.177-.76-.746-1.193-.567-.433-1.406-.433-1.42 0-2.159 1.235-.73 1.236-.746 3.36h.1a3.4 3.4 0 0 1 .88-1.101 4 4 0 0 1 1.272-.703 4.6 4.6 0 0 1 1.513-.249q1.292 0 2.3.611a4.33 4.33 0 0 1 1.592 1.662q.582 1.058.582 2.422 0 1.477-.689 2.628a4.8 4.8 0 0 1-1.91 1.804q-1.222.646-2.841.639m-.014-2.415a2.4 2.4 0 0 0 2.151-1.264 2.7 2.7 0 0 0 .32-1.307 2.63 2.63 0 0 0-.32-1.3 2.363 2.363 0 0 0-2.13-1.257q-.533 0-.987.2a2.5 2.5 0 0 0-.789.553 2.66 2.66 0 0 0-.717 1.811q0 .703.32 1.286.325.582.88.93.561.348 1.272.348M84.57 60.32q-1.833-.008-3.154-.902-1.314-.895-2.024-2.593-.703-1.697-.696-4.084 0-2.379.703-4.055.71-1.675 2.024-2.55 1.322-.88 3.147-.88t3.139.88q1.32.881 2.031 2.557.71 1.669.703 4.049 0 2.393-.71 4.09-.703 1.698-2.017 2.593-1.314.894-3.146.895m0-2.55q1.25 0 1.995-1.257.747-1.257.739-3.771 0-1.655-.34-2.756-.335-1.101-.953-1.655a2.08 2.08 0 0 0-1.441-.554q-1.243 0-1.989 1.243-.746 1.242-.753 3.721 0 1.676.334 2.799.34 1.115.959 1.676.618.554 1.449.554m13.77 2.55q-1.834-.008-3.154-.902-1.314-.895-2.024-2.593-.704-1.697-.696-4.084 0-2.379.703-4.055.71-1.675 2.024-2.55 1.321-.88 3.146-.88t3.139.88q1.321.881 2.032 2.557.71 1.669.703 4.049 0 2.393-.711 4.09-.703 1.698-2.017 2.593-1.314.894-3.146.895m0-2.55q1.249 0 1.995-1.257.745-1.257.739-3.771 0-1.655-.341-2.756-.334-1.101-.952-1.655a2.08 2.08 0 0 0-1.442-.554q-1.243 0-1.989 1.243-.746 1.242-.752 3.721-.001 1.676.334 2.799.34 1.115.958 1.676.618.554 1.45.554"/><path fill="#71717A" d="m112.168 55.216-.02-1.452h.238l3.341-3.4h1.452l-3.56 3.6h-.099zM111.074 58V47.818h1.173V58zm4.852 0-2.983-3.778.835-.816 3.64 4.594zm5.551.16q-1.073 0-1.85-.508a3.3 3.3 0 0 1-1.193-1.397q-.417-.89-.417-2.033 0-1.163.427-2.054a3.4 3.4 0 0 1 1.203-1.397q.776-.507 1.81-.507.805 0 1.452.298a2.8 2.8 0 0 1 1.059.836q.412.537.512 1.253h-1.174q-.134-.522-.596-.925-.457-.408-1.233-.408-.686 0-1.203.358-.512.353-.801 1-.283.641-.283 1.506 0 .884.278 1.541.283.656.796 1.02.517.362 1.213.362.458 0 .83-.159.373-.159.632-.457.258-.3.367-.716h1.174q-.1.675-.492 1.218a2.75 2.75 0 0 1-1.03.855q-.636.313-1.481.313m6.965.019a3.1 3.1 0 0 1-1.317-.273 2.26 2.26 0 0 1-.94-.8q-.348-.527-.348-1.274 0-.656.259-1.063.258-.413.691-.647t.954-.348q.527-.12 1.059-.189.696-.09 1.129-.134.436-.05.636-.164.204-.114.204-.398v-.04q0-.735-.403-1.143-.398-.408-1.208-.408-.84 0-1.317.368-.478.367-.672.786l-1.113-.398q.299-.696.795-1.084.503-.393 1.094-.547.597-.159 1.173-.159.368 0 .845.09.483.084.93.353.453.269.751.81.298.542.298 1.452V58h-1.173v-1.034h-.06a2 2 0 0 1-.398.532q-.278.284-.74.482-.463.2-1.129.199m.179-1.054q.696 0 1.173-.273.483-.274.726-.706.249-.433.249-.91v-1.074q-.075.09-.328.164a6 6 0 0 1-.577.124 26 26 0 0 1-1.124.15q-.457.06-.855.193a1.5 1.5 0 0 0-.636.393q-.239.258-.239.706 0 .612.453.925.458.308 1.158.308m6.636-9.307V58h-1.173V47.818zM19.233 88V77.818h6.145v1.094h-4.912v3.44h4.594v1.094h-4.594v3.46h4.991V88zm9.083-7.636 1.83 3.122 1.83-3.122h1.351l-2.465 3.818L33.326 88h-1.352l-1.83-2.963L28.317 88h-1.352l2.426-3.818-2.426-3.818zm9.573 7.795q-1.103 0-1.904-.487a3.27 3.27 0 0 1-1.228-1.372q-.428-.885-.428-2.058 0-1.174.428-2.069.433-.9 1.203-1.402.775-.507 1.81-.507.596 0 1.178.2.581.198 1.059.645.477.443.76 1.174t.284 1.8v.496h-5.887v-1.014h4.694q0-.645-.259-1.153a1.95 1.95 0 0 0-.726-.8q-.467-.294-1.103-.294-.702 0-1.214.348a2.3 2.3 0 0 0-.78.895 2.6 2.6 0 0 0-.274 1.183v.677q0 .864.299 1.466.303.597.84.91.537.308 1.248.308.462 0 .835-.13.379-.133.651-.397.274-.268.423-.666l1.133.318q-.179.578-.601 1.014-.423.433-1.044.677-.621.237-1.397.238M42.836 88v-7.636h1.133v1.153h.08q.208-.567.755-.92a2.23 2.23 0 0 1 1.233-.353q.13 0 .323.005.194.006.294.015v1.193a4 4 0 0 0-.274-.044 3 3 0 0 0-.442-.035q-.557 0-.995.234a1.714 1.714 0 0 0-.935 1.556V88zm8.078.16q-1.073 0-1.849-.508a3.3 3.3 0 0 1-1.193-1.397q-.418-.89-.418-2.033 0-1.163.428-2.054a3.4 3.4 0 0 1 1.203-1.397q.775-.507 1.81-.507.804 0 1.451.299.646.297 1.06.835.411.537.511 1.253h-1.173q-.134-.522-.597-.925-.457-.408-1.233-.408-.685 0-1.203.358-.512.354-.8 1-.285.641-.284 1.506 0 .885.279 1.541.284.656.795 1.02.518.362 1.213.362.458 0 .83-.159.375-.159.632-.457.258-.3.368-.716h1.173q-.099.675-.492 1.218a2.75 2.75 0 0 1-1.029.855q-.636.313-1.482.313m4.718-.16v-7.636h1.174V88zm.597-8.91a.83.83 0 0 1-.592-.233.75.75 0 0 1-.243-.561.75.75 0 0 1 .243-.562.83.83 0 0 1 .592-.234q.343 0 .587.234a.74.74 0 0 1 .248.562.74.74 0 0 1-.248.561.82.82 0 0 1-.587.234m8.135 2.984-1.054.298a2 2 0 0 0-.294-.512 1.4 1.4 0 0 0-.517-.418q-.327-.164-.84-.164-.7 0-1.168.324-.462.318-.462.81 0 .438.318.691t.994.423l1.134.278q1.023.25 1.526.76.502.509.502 1.308 0 .657-.378 1.174-.372.516-1.044.815-.671.298-1.56.298-1.17 0-1.935-.507t-.97-1.481l1.114-.279q.16.617.602.925.448.308 1.168.308.82 0 1.303-.348.487-.353.487-.845a.89.89 0 0 0-.279-.666q-.278-.275-.855-.408l-1.272-.298q-1.05-.25-1.541-.77-.488-.528-.488-1.318 0-.646.363-1.144a2.47 2.47 0 0 1 1-.78 3.5 3.5 0 0 1 1.441-.284q1.135 0 1.78.497.65.498.925 1.313m5.107 6.085q-1.103 0-1.904-.487a3.27 3.27 0 0 1-1.228-1.372q-.428-.885-.428-2.058 0-1.174.428-2.069.433-.9 1.203-1.402.775-.507 1.81-.507.596 0 1.178.2.581.198 1.059.645.478.443.76 1.174.285.73.284 1.8v.496h-5.887v-1.014h4.694q0-.645-.259-1.153a1.95 1.95 0 0 0-.726-.8q-.468-.294-1.103-.294-.702 0-1.214.348a2.3 2.3 0 0 0-.78.895 2.6 2.6 0 0 0-.273 1.183v.677q0 .864.298 1.466.303.597.84.91.537.308 1.248.308.463 0 .835-.13.379-.133.651-.397.275-.268.423-.666l1.133.318q-.179.578-.601 1.014-.423.433-1.044.677-.621.237-1.397.238"/><path fill="#09090B" d="m19.754 114 6.03-11.932v-.099H18.76v-2.514h10.206v2.549L22.929 114zm16.364.199q-1.59 0-2.834-.547-1.236-.554-1.953-1.52-.71-.974-.732-2.244h3.097q.028.532.348.937.327.398.867.618t1.214.22q.703 0 1.243-.248.54-.25.845-.689a1.74 1.74 0 0 0 .306-1.016q0-.582-.327-1.03-.32-.454-.923-.71-.597-.256-1.421-.256h-1.356v-2.258h1.356q.696 0 1.229-.242.54-.24.838-.667.298-.433.298-1.009 0-.546-.263-.958a1.73 1.73 0 0 0-.724-.654 2.36 2.36 0 0 0-1.08-.234q-.624 0-1.143.227a2 2 0 0 0-.831.632q-.312.412-.334.966h-2.947q.021-1.257.717-2.216t1.875-1.498q1.185-.547 2.678-.547 1.505 0 2.634.547 1.13.546 1.755 1.477.632.923.625 2.074.007 1.221-.76 2.038-.76.817-1.982 1.037v.114q1.606.206 2.443 1.115.845.902.839 2.258a3.55 3.55 0 0 1-.718 2.209q-.718.966-1.981 1.52-1.265.554-2.898.554m14.17-15.426-4.687 17.415h-2.606l4.687-17.415zm7.758.681V114h-3.075v-11.626h-.085l-3.331 2.088v-2.728l3.6-2.28zM61.503 114v-2.216l5.178-4.794q.66-.64 1.108-1.151.454-.51.689-1.001a2.5 2.5 0 0 0 .234-1.072q0-.64-.291-1.101a1.9 1.9 0 0 0-.796-.718 2.5 2.5 0 0 0-1.143-.255q-.667 0-1.165.27-.497.27-.767.774t-.27 1.2h-2.919q0-1.428.647-2.479a4.3 4.3 0 0 1 1.81-1.626q1.165-.575 2.685-.575 1.563 0 2.72.554 1.165.546 1.811 1.52.647.972.647 2.23 0 .823-.327 1.626-.32.802-1.143 1.783-.825.972-2.323 2.336l-2.123 2.081v.1h6.108V114zm18.301.32q-1.833-.008-3.153-.902-1.314-.895-2.025-2.593-.702-1.697-.696-4.084 0-2.378.703-4.055.711-1.675 2.025-2.55 1.321-.88 3.146-.88t3.14.88q1.32.881 2.03 2.557.71 1.67.704 4.048 0 2.394-.71 4.091-.704 1.698-2.018 2.593-1.314.894-3.146.895m0-2.55q1.25 0 1.996-1.257.745-1.257.738-3.772 0-1.654-.34-2.755-.334-1.101-.952-1.655a2.08 2.08 0 0 0-1.442-.554q-1.244 0-1.989 1.243t-.752 3.721q0 1.677.333 2.799.341 1.115.96 1.676.617.554 1.448.554"/><path fill="#71717A" d="M92.074 112v-7.636h1.133v1.193h.1q.239-.611.77-.95.532-.343 1.278-.343.756 0 1.258.343.507.339.79.95h.08q.293-.592.88-.94.587-.353 1.407-.353 1.024 0 1.675.642.651.636.652 1.983V112h-1.174v-5.111q0-.845-.462-1.208a1.7 1.7 0 0 0-1.089-.363q-.806 0-1.248.487-.442.483-.442 1.223V112h-1.193v-5.23q0-.651-.423-1.049-.423-.403-1.089-.403-.458 0-.855.244a1.84 1.84 0 0 0-.636.676q-.24.428-.239.989V112zm12.168 0v-7.636h1.173V112zm.596-8.909a.83.83 0 0 1-.591-.234.75.75 0 0 1-.244-.562q0-.328.244-.561a.83.83 0 0 1 .591-.234q.344 0 .587.234a.74.74 0 0 1 .249.561.74.74 0 0 1-.249.562.82.82 0 0 1-.587.234m3.899 4.315V112h-1.173v-7.636h1.134v1.193h.099q.269-.582.815-.935.548-.358 1.412-.358.776 0 1.358.318.581.313.904.955.324.636.324 1.611V112h-1.174v-4.773q0-.9-.467-1.402-.468-.507-1.283-.507-.561 0-1.004.244a1.74 1.74 0 0 0-.691.711q-.254.467-.254 1.133M24.801 134.364a1.56 1.56 0 0 0-.726-1.174q-.636-.417-1.56-.417-.677 0-1.184.218a1.9 1.9 0 0 0-.785.602 1.44 1.44 0 0 0-.279.87q0 .408.194.701.2.288.507.482.309.19.646.314.339.119.622.193l1.034.279q.398.104.885.288.492.184.94.502.452.314.745.806.294.492.294 1.208 0 .825-.433 1.491-.428.666-1.253 1.059-.82.393-1.994.393-1.093 0-1.894-.353-.795-.353-1.252-.984a2.8 2.8 0 0 1-.512-1.467h1.272q.05.576.388.955.343.372.865.556.527.18 1.133.179.707 0 1.268-.228a2.2 2.2 0 0 0 .89-.647 1.53 1.53 0 0 0 .328-.974q0-.507-.283-.825a2.1 2.1 0 0 0-.746-.517 8 8 0 0 0-1-.348l-1.252-.358q-1.192-.344-1.89-.98-.695-.636-.695-1.665 0-.856.462-1.492.468-.641 1.253-.994a4.2 4.2 0 0 1 1.765-.358q.984 0 1.75.353.766.348 1.213.955.452.606.477 1.377zm6.522 0v.994h-3.958v-.994zm-2.804-1.83h1.173v7.278q0 .498.144.746.15.244.378.328.234.08.492.08.195 0 .318-.02l.2-.04.238 1.054q-.12.045-.333.09a2.5 2.5 0 0 1-.542.049q-.497 0-.975-.213a1.94 1.94 0 0 1-.785-.652q-.309-.437-.308-1.103zm6.816 9.645q-.726 0-1.318-.273a2.27 2.27 0 0 1-.94-.801q-.347-.526-.347-1.273 0-.656.258-1.064.258-.412.691-.646t.955-.348q.526-.118 1.059-.189.696-.089 1.128-.134.438-.05.637-.164.204-.114.203-.398v-.04q0-.735-.402-1.143-.398-.408-1.208-.408-.84 0-1.318.368-.477.368-.671.786l-1.114-.398q.299-.696.796-1.084.502-.393 1.093-.547a4.5 4.5 0 0 1 1.174-.159q.368 0 .845.09.482.084.93.353.452.269.75.81.3.541.299 1.452V142H37.66v-1.034h-.06q-.118.249-.397.532t-.74.482q-.463.2-1.13.199m.179-1.054q.696 0 1.173-.273.482-.274.726-.706.248-.433.248-.91v-1.074q-.075.09-.328.164a6 6 0 0 1-.576.124q-.324.05-.632.09-.303.035-.492.059-.458.06-.855.194a1.5 1.5 0 0 0-.636.393q-.24.258-.24.706 0 .612.453.925.457.308 1.159.308m6.636-3.719V142h-1.174v-7.636h1.134v1.193h.1q.267-.582.815-.935.547-.358 1.411-.358.776 0 1.358.318.582.313.905.955.323.636.323 1.611V142h-1.174v-4.773q0-.9-.467-1.402-.468-.507-1.283-.507-.561 0-1.004.244a1.74 1.74 0 0 0-.69.711q-.255.467-.255 1.133m9.9 4.753q-.956 0-1.686-.482-.731-.487-1.144-1.372-.412-.891-.412-2.103 0-1.203.412-2.088.413-.885 1.149-1.368.735-.482 1.7-.482.746 0 1.178.249.438.243.666.557.234.308.364.507h.099v-3.759h1.173V142h-1.133v-1.173h-.14a8 8 0 0 1-.367.527q-.24.313-.681.561-.443.244-1.179.244m.158-1.054q.706 0 1.194-.368.486-.372.74-1.029.255-.661.254-1.526 0-.855-.249-1.497-.248-.646-.736-1.004-.487-.363-1.203-.363-.745 0-1.243.383a2.3 2.3 0 0 0-.74 1.029 4.1 4.1 0 0 0-.244 1.452q0 .815.249 1.481.253.661.745 1.054.498.388 1.233.388"/><path fill="#09090B" d="M24.605 168.199q-1.641 0-2.919-.533-1.272-.54-1.996-1.47a3.34 3.34 0 0 1-.724-2.109q0-.91.412-1.669.42-.768 1.136-1.272a3.75 3.75 0 0 1 1.605-.653v-.1a3.15 3.15 0 0 1-1.889-1.129 3.25 3.25 0 0 1-.724-2.095q0-1.13.66-2.01.66-.888 1.811-1.392 1.158-.511 2.628-.511t2.62.511q1.16.511 1.819 1.399.66.88.668 2.003-.007 1.2-.739 2.095a3.17 3.17 0 0 1-1.875 1.129v.1q.873.142 1.584.653.717.504 1.136 1.272.427.76.433 1.669a3.38 3.38 0 0 1-.731 2.109q-.724.93-2.003 1.47-1.271.533-2.912.533m0-2.259q.732 0 1.279-.262.546-.27.852-.739.312-.476.312-1.094 0-.632-.32-1.115a2.2 2.2 0 0 0-.866-.767 2.7 2.7 0 0 0-1.257-.284 2.7 2.7 0 0 0-1.257.284q-.554.277-.874.767a2 2 0 0 0-.312 1.115q0 .618.305 1.094.305.469.86.739.553.262 1.278.262m0-6.498q.611 0 1.087-.249a1.87 1.87 0 0 0 .745-.689q.27-.44.27-1.015a1.82 1.82 0 0 0-1.008-1.669 2.3 2.3 0 0 0-1.094-.249q-.617 0-1.094.249a1.84 1.84 0 0 0-.745.674 1.86 1.86 0 0 0-.263.995q0 .575.27 1.015t.745.689q.477.249 1.087.249m14.16-6.669-4.687 17.415H31.47l4.688-17.415zm7.758.682V168h-3.076v-11.626h-.085l-3.33 2.088v-2.728l3.6-2.279zM49.98 168v-2.216l5.177-4.794q.66-.64 1.108-1.151.455-.51.69-1.001.233-.497.234-1.072 0-.64-.292-1.101a1.9 1.9 0 0 0-.795-.718 2.5 2.5 0 0 0-1.143-.255q-.669 0-1.165.27-.498.27-.767.774-.27.504-.27 1.2h-2.92q0-1.428.647-2.479a4.3 4.3 0 0 1 1.811-1.626q1.166-.575 2.685-.575 1.562 0 2.72.554 1.164.546 1.811 1.52.645.972.646 2.23 0 .824-.326 1.626-.32.802-1.144 1.783-.824.972-2.322 2.336l-2.124 2.081v.1h6.108V168z"/><path fill="#71717A" d="M68.247 161.406V166h-1.173v-10.182h1.173v3.739h.1q.268-.592.805-.94.542-.353 1.442-.353.78 0 1.367.313.586.308.91.95.328.636.328 1.621V166h-1.173v-4.773q0-.909-.473-1.407-.467-.502-1.297-.502-.578 0-1.034.244-.453.243-.716.711-.26.467-.259 1.133M75.345 166v-7.636h1.134v1.153h.08q.208-.566.755-.92a2.23 2.23 0 0 1 1.233-.353q.13 0 .323.005.194.006.293.015v1.193a4 4 0 0 0-.273-.044 2.6 2.6 0 0 0-.442-.035q-.558 0-.995.234a1.76 1.76 0 0 0-.686.636 1.7 1.7 0 0 0-.248.92V166z"/><path fill="#F4F4F5" d="M282.456 83.658c0 31.921-25.877 57.798-57.798 57.798s-57.798-25.877-57.798-57.798 25.877-57.798 57.798-57.798 57.798 25.877 57.798 57.798m-100.135 0c0 23.382 18.955 42.337 42.337 42.337s42.337-18.955 42.337-42.337-18.955-42.337-42.337-42.337-42.337 18.955-42.337 42.337"/><path fill="#2A9D90" d="M224.658 29.86c0-2.21-1.793-4.014-3.997-3.862a57.796 57.796 0 0 0-53.773 59.45 57.8 57.8 0 0 0 31.492 49.689 57.79 57.79 0 0 0 58.715-3.642 57.8 57.8 0 0 0 18-19.61c1.079-1.928.211-4.32-1.786-5.263l-6.75-3.186c-1.998-.943-4.366-.076-5.493 1.824a42.336 42.336 0 0 1-55.655 16.104 42.33 42.33 0 0 1-23.067-36.395 42.335 42.335 0 0 1 38.32-43.456c2.199-.209 3.994-1.98 3.994-4.19z"/><path fill="#F4F4F5" d="M265.44 83.658c0 22.523-18.259 40.782-40.782 40.782s-40.782-18.259-40.782-40.782 18.259-40.782 40.782-40.782 40.782 18.259 40.782 40.782m-66.222 0c0 14.05 11.39 25.439 25.44 25.439s25.439-11.39 25.439-25.439c0-14.05-11.389-25.44-25.439-25.44s-25.44 11.39-25.44 25.44"/><path fill="#E76E50" d="M224.658 46.876c0-2.209-1.795-4.02-3.994-3.804a40.78 40.78 0 0 0-23.286 70.901 40.784 40.784 0 0 0 63.13-10.874 40.8 40.8 0 0 0 4.931-19.736c-.016-2.209-2.006-3.804-4.203-3.571l-7.302.771c-2.197.233-3.756 2.21-3.871 4.415a25.45 25.45 0 0 1-13.846 21.342 25.44 25.44 0 0 1-28.576-3.752 25.44 25.44 0 0 1-6.735-28.023 25.45 25.45 0 0 1 19.768-16.013c2.182-.346 3.984-2.105 3.984-4.314z"/><path fill="#F4F4F5" d="M248.045 83.658c0 12.917-10.471 23.388-23.387 23.388S201.27 96.575 201.27 83.658s10.471-23.388 23.388-23.388c12.916 0 23.387 10.471 23.387 23.388m-31.657 0a8.27 8.27 0 1 0 16.54 0 8.27 8.27 0 0 0-16.54 0"/><path fill="#274754" d="M224.658 64.27c0-2.209-1.804-4.034-3.981-3.658a23.38 23.38 0 0 0-16.261 11.33 23.394 23.394 0 0 0 8.494 31.939 23.4 23.4 0 0 0 11.673 3.165 23.4 23.4 0 0 0 17.979-8.34c1.421-1.692.753-4.17-1.156-5.282l-6.155-3.59c-1.909-1.112-4.34-.342-6.213.83a8.26 8.26 0 0 1-11.531-11.144 8.26 8.26 0 0 1 3.305-3.175c1.955-1.028 3.846-2.74 3.846-4.95z"/></g><defs><filter id="a" width="304" height="190" x="0" y="0" color-interpolation-filters="sRGB" filterUnits="userSpaceOnUse"><feFlood flood-opacity="0" result="BackgroundImageFix"/><feColorMatrix in="SourceAlpha" result="hardAlpha" values="0 0 0 0 0 0 0 0 0 0 0 0 0 0 0 0 0 0 127 0"/><feOffset dy="1"/><feGaussianBlur stdDeviation="1"/><feColorMatrix values="0 0 0 0 0 0 0 0 0 0 0 0 0 0 0 0 0 0 0.05 0"/><feBlend in2="BackgroundImageFix" result="effect1_dropShadow_15853_31140"/><feBlend in="SourceGraphic" in2="effect1_dropShadow_15853_31140" result="shape"/></filter></defs></svg>