<svg xmlns="http://www.w3.org/2000/svg" width="300" height="322" fill="none"><path fill="#fff" d="M4 .5h292a3.5 3.5 0 0 1 3.5 3.5v314a3.5 3.5 0 0 1-3.5 3.5H4A3.5 3.5 0 0 1 .5 318V4A3.5 3.5 0 0 1 4 .5"/><path stroke="#E2E8F0" d="M4 .5h292a3.5 3.5 0 0 1 3.5 3.5v314a3.5 3.5 0 0 1-3.5 3.5H4A3.5 3.5 0 0 1 .5 318V4A3.5 3.5 0 0 1 4 .5Z"/><path stroke="#020618" stroke-linecap="round" stroke-linejoin="round" stroke-width="3" d="M145.426 40.28c1.162-.99 1.744-1.486 2.352-1.776a5.16 5.16 0 0 1 4.444 0c.608.29 1.19.786 2.352 1.776 1.198 1.02 2.414 1.536 4.014 1.662 1.522.122 2.284.184 2.92.408a5.15 5.15 0 0 1 3.142 3.144c.224.634.286 1.396.408 2.92.126 1.6.64 2.814 1.66 4.012.992 1.162 1.488 1.744 1.778 2.352a5.15 5.15 0 0 1 0 4.444c-.29.608-.786 1.19-1.776 2.352a6.6 6.6 0 0 0-1.662 4.014c-.122 1.522-.184 2.284-.408 2.92a5.16 5.16 0 0 1-3.144 3.142c-.634.224-1.396.286-2.92.408-1.6.126-2.814.64-4.012 1.66-1.162.992-1.744 1.488-2.352 1.778a5.16 5.16 0 0 1-4.444 0c-.608-.29-1.19-.786-2.352-1.776a6.6 6.6 0 0 0-4.014-1.662c-1.522-.122-2.284-.184-2.92-.408a5.16 5.16 0 0 1-3.142-3.144c-.224-.634-.286-1.396-.408-2.92a6.6 6.6 0 0 0-1.66-4.012c-.992-1.162-1.488-1.744-1.78-2.352a5.16 5.16 0 0 1 .002-4.444c.29-.608.786-1.19 1.776-2.352 1.04-1.222 1.538-2.446 1.662-4.014.122-1.522.184-2.284.408-2.92a5.16 5.16 0 0 1 3.144-3.142c.634-.224 1.396-.286 2.92-.408a6.6 6.6 0 0 0 4.012-1.662"/><path stroke="#020618" stroke-linecap="round" stroke-linejoin="round" stroke-width="3" d="m143.334 58.266 3.01 3.442a2 2 0 0 0 3.128-.146l7.194-9.962"/><path fill="#020618" d="M76.325 108.547h-3.111a3 3 0 0 0-.348-1.073 2.7 2.7 0 0 0-.675-.809 3 3 0 0 0-.952-.512 3.7 3.7 0 0 0-1.157-.177q-1.13 0-1.968.561-.838.554-1.3 1.619-.46 1.059-.461 2.571 0 1.555.462 2.614.469 1.058 1.306 1.598.84.54 1.94.54.617 0 1.143-.164.533-.163.944-.476.412-.32.682-.774.278-.454.384-1.037l3.11.015a5.6 5.6 0 0 1-.603 1.931 5.8 5.8 0 0 1-1.286 1.655 6 6 0 0 1-1.917 1.151q-1.109.419-2.507.419-1.947 0-3.48-.881-1.528-.88-2.415-2.55-.88-1.668-.88-4.041 0-2.379.894-4.048.895-1.669 2.429-2.543 1.534-.88 3.452-.88 1.264 0 2.343.355a5.9 5.9 0 0 1 1.925 1.037 5.3 5.3 0 0 1 1.364 1.655q.532.98.682 2.244m5.174 3.146V118h-3.026v-14.545h2.94v5.561h.128a3.1 3.1 0 0 1 1.193-1.513q.825-.554 2.067-.554 1.136 0 1.982.497a3.32 3.32 0 0 1 1.32 1.413q.477.917.47 2.195V118h-3.026v-6.406q.007-1.01-.511-1.57-.512-.561-1.435-.561-.618 0-1.094.263a1.86 1.86 0 0 0-.739.767q-.263.496-.27 1.2m14.426 6.52q-1.683 0-2.898-.682a4.67 4.67 0 0 1-1.86-1.946q-.654-1.264-.654-2.99 0-1.683.653-2.954a4.83 4.83 0 0 1 1.84-1.982q1.194-.71 2.798-.71 1.08 0 2.01.348.938.34 1.634 1.03.703.689 1.094 1.733.39 1.037.39 2.429v.831h-9.211v-1.875h6.363q0-.654-.284-1.158a2.03 2.03 0 0 0-.788-.788q-.498-.292-1.158-.292-.689 0-1.222.32-.526.312-.823.845-.3.526-.306 1.172v1.783q0 .809.299 1.399.305.59.859.909t1.314.32q.504 0 .923-.143a1.9 1.9 0 0 0 .717-.426q.299-.284.455-.696l2.798.185a3.8 3.8 0 0 1-.873 1.761q-.654.747-1.69 1.165-1.03.412-2.38.412m11.911 0q-1.677 0-2.884-.71a4.8 4.8 0 0 1-1.847-1.989q-.639-1.271-.639-2.926 0-1.675.647-2.94a4.8 4.8 0 0 1 1.853-1.982q1.2-.717 2.855-.717 1.428 0 2.5.518a4.2 4.2 0 0 1 1.698 1.456q.624.938.689 2.202h-2.855q-.121-.817-.64-1.314-.51-.504-1.342-.504-.703 0-1.229.383-.518.376-.809 1.101t-.291 1.754q0 1.044.284 1.776.291.732.816 1.115.526.384 1.229.384.519 0 .93-.213a1.8 1.8 0 0 0 .689-.618q.277-.412.363-.988h2.855q-.072 1.251-.682 2.202a4.1 4.1 0 0 1-1.669 1.477q-1.065.533-2.521.533m9.55-3.352.007-3.629h.441l3.494-4.141h3.473l-4.694 5.483h-.718zM114.645 118v-14.545h3.025V118zm6.818 0-3.21-4.751 2.017-2.138 4.737 6.889zm11.319 4.091q-.575 0-1.079-.092a4 4 0 0 1-.824-.221l.682-2.258q.532.163.959.177.433.015.745-.198.32-.213.519-.725l.177-.462-3.913-11.221h3.182l2.258 8.011h.114l2.28-8.011h3.203l-4.24 12.088a5.1 5.1 0 0 1-.831 1.534q-.519.66-1.314 1.016-.795.362-1.918.362m14.429-3.878q-1.656 0-2.863-.703a4.8 4.8 0 0 1-1.853-1.974q-.654-1.272-.654-2.948 0-1.69.654-2.954a4.75 4.75 0 0 1 1.853-1.975q1.207-.71 2.863-.71t2.855.71a4.74 4.74 0 0 1 1.86 1.975q.654 1.263.654 2.954 0 1.676-.654 2.948a4.8 4.8 0 0 1-1.86 1.974q-1.2.703-2.855.703m.014-2.344q.753 0 1.257-.426.504-.433.76-1.179.263-.746.263-1.697 0-.953-.263-1.698-.256-.745-.76-1.179-.504-.433-1.257-.433-.76 0-1.279.433-.512.434-.774 1.179-.255.745-.255 1.698 0 .951.255 1.697.262.746.774 1.179.519.426 1.279.426m14.318-2.514v-6.264h3.026V118h-2.905v-1.982h-.114a3.22 3.22 0 0 1-1.229 1.542q-.852.582-2.081.582-1.093 0-1.924-.497a3.4 3.4 0 0 1-1.3-1.413q-.462-.917-.469-2.195v-6.946h3.026v6.406q.007.966.518 1.527.512.561 1.371.561.547 0 1.023-.248a1.96 1.96 0 0 0 .767-.753q.298-.498.291-1.229m5.446 4.645v-10.909h2.933v1.903h.114q.297-1.015 1.001-1.534a2.63 2.63 0 0 1 1.619-.525 4.6 4.6 0 0 1 .952.106v2.685a4 4 0 0 0-.59-.114q-.376-.05-.688-.05-.668 0-1.194.292-.518.283-.824.795a2.3 2.3 0 0 0-.298 1.179V118zm17.784.213q-1.683 0-2.898-.682a4.67 4.67 0 0 1-1.861-1.946q-.653-1.264-.653-2.99 0-1.683.653-2.954a4.83 4.83 0 0 1 1.84-1.982q1.193-.71 2.798-.71 1.08 0 2.01.348.937.34 1.633 1.03.704.689 1.094 1.733.391 1.037.391 2.429v.831h-9.212v-1.875h6.364q0-.654-.284-1.158a2.03 2.03 0 0 0-.789-.788q-.497-.292-1.157-.292-.69 0-1.222.32-.525.312-.824.845a2.4 2.4 0 0 0-.305 1.172v1.783q0 .809.298 1.399.305.59.86.909t1.313.32q.505 0 .924-.143.419-.141.717-.426.298-.284.455-.696l2.798.185a3.8 3.8 0 0 1-.874 1.761q-.653.747-1.69 1.165-1.03.412-2.379.412m6.981-.213v-10.909h2.884v1.925h.128a3.02 3.02 0 0 1 1.136-1.513q.796-.554 1.903-.554 1.123 0 1.911.561.788.553 1.051 1.506h.114a2.9 2.9 0 0 1 1.207-1.499q.88-.568 2.081-.568 1.527 0 2.479.973.959.966.959 2.741V118h-3.019v-6.74q0-.91-.483-1.364t-1.207-.454q-.825 0-1.286.525-.461.519-.461 1.371V118h-2.934v-6.804q0-.803-.461-1.278-.454-.477-1.201-.476a1.67 1.67 0 0 0-.909.255 1.76 1.76 0 0 0-.632.704q-.234.447-.234 1.051V118zm21.353.206q-1.044 0-1.861-.362a3 3 0 0 1-1.292-1.087q-.47-.724-.469-1.804 0-.909.334-1.527.333-.618.909-.994a4.4 4.4 0 0 1 1.307-.568 10 10 0 0 1 1.548-.27 40 40 0 0 0 1.534-.185q.582-.092.845-.27.263-.177.263-.525v-.043q0-.675-.426-1.044-.419-.369-1.193-.369-.817 0-1.3.362a1.67 1.67 0 0 0-.639.895l-2.798-.227a3.8 3.8 0 0 1 .838-1.719q.624-.732 1.612-1.122.995-.399 2.301-.398.909 0 1.74.213a4.5 4.5 0 0 1 1.484.66q.654.448 1.03 1.151.377.696.377 1.669V118h-2.87v-1.513h-.085a3.1 3.1 0 0 1-.703.902 3.3 3.3 0 0 1-1.058.604q-.618.213-1.428.213m.867-2.088q.667 0 1.179-.263.511-.27.802-.724a1.87 1.87 0 0 0 .291-1.03v-1.158a1.6 1.6 0 0 1-.39.171 7 7 0 0 1-.547.135q-.306.056-.611.106l-.554.078a3.7 3.7 0 0 0-.93.249 1.5 1.5 0 0 0-.618.461q-.22.285-.22.711 0 .618.447.944.455.32 1.151.32m7.624 1.882v-10.909h3.026V118zm1.52-12.315q-.675 0-1.158-.448a1.45 1.45 0 0 1-.476-1.086q0-.626.476-1.073a1.63 1.63 0 0 1 1.158-.454q.675 0 1.15.454.483.447.483 1.073 0 .632-.483 1.086-.475.448-1.15.448m6.955-2.23V118h-3.026v-14.545zm6.039 0-.277 10.184h-2.6l-.284-10.184zm-1.577 14.73q-.703 0-1.208-.497a1.63 1.63 0 0 1-.497-1.208 1.6 1.6 0 0 1 .497-1.193 1.66 1.66 0 0 1 1.208-.497q.675 0 1.186.497a1.625 1.625 0 0 1 .27 2.052 1.8 1.8 0 0 1-.618.618 1.6 1.6 0 0 1-.838.228"/><path fill="#62748E" d="m60.25 147-3.182-11.636h1.431l2.432 9.477h.114l2.477-9.477h1.59l2.478 9.477h.114l2.432-9.477h1.431L68.387 147H66.93l-2.568-9.273h-.091L61.704 147zm15.738.182q-1.261 0-2.176-.557a3.74 3.74 0 0 1-1.404-1.568q-.488-1.012-.488-2.352 0-1.341.488-2.364.495-1.029 1.375-1.602.886-.58 2.069-.58.681 0 1.346.227.665.228 1.21.739.546.505.87 1.341.324.835.324 2.057v.568h-6.728v-1.159h5.364q0-.74-.296-1.318a2.2 2.2 0 0 0-.83-.915q-.533-.336-1.26-.335-.802 0-1.387.397a2.6 2.6 0 0 0-.892 1.023 3 3 0 0 0-.312 1.352v.773q0 .989.34 1.676.348.682.96 1.04.614.352 1.427.352.528 0 .954-.147a2.05 2.05 0 0 0 .745-.455q.313-.307.483-.761l1.295.363q-.204.66-.687 1.159-.483.495-1.194.773a4.4 4.4 0 0 1-1.596.273m16.335-6.955-1.204.341a2.2 2.2 0 0 0-.336-.585 1.6 1.6 0 0 0-.59-.477q-.375-.188-.96-.188-.802 0-1.336.37-.528.363-.528.926 0 .5.363.789.364.291 1.137.483l1.295.319q1.17.284 1.744.869.574.579.574 1.494 0 .75-.432 1.341-.425.591-1.193.932-.767.34-1.784.341-1.335 0-2.21-.58-.875-.579-1.108-1.693l1.273-.318q.18.705.687 1.057.511.352 1.335.352.938 0 1.49-.398.555-.403.556-.966 0-.454-.318-.761-.318-.312-.978-.466l-1.454-.341q-1.2-.284-1.761-.88-.557-.603-.557-1.506 0-.739.414-1.307.42-.568 1.143-.892.727-.324 1.647-.324 1.296 0 2.034.568.745.569 1.057 1.5m5.837 6.955q-1.261 0-2.176-.557a3.74 3.74 0 0 1-1.404-1.568q-.489-1.012-.488-2.352 0-1.341.488-2.364.495-1.029 1.375-1.602.886-.58 2.068-.58.683 0 1.347.227.665.228 1.21.739.546.505.87 1.341.323.835.323 2.057v.568h-6.727v-1.159h5.364q0-.74-.296-1.318a2.2 2.2 0 0 0-.83-.915q-.533-.336-1.26-.335-.802 0-1.387.397a2.6 2.6 0 0 0-.892 1.023 3 3 0 0 0-.312 1.352v.773q0 .989.34 1.676.347.682.96 1.04.615.352 1.427.352.528 0 .954-.147.432-.154.745-.455.312-.307.483-.761l1.295.363a2.86 2.86 0 0 1-.687 1.159q-.483.495-1.194.773a4.4 4.4 0 0 1-1.596.273m6.994-5.432V147h-1.341v-8.727h1.296v1.363h.113q.307-.665.932-1.068.625-.41 1.614-.409.887 0 1.551.364.665.357 1.034 1.091.369.726.369 1.841V147h-1.341v-5.455q0-1.028-.534-1.602-.533-.579-1.466-.579-.642 0-1.147.278a2 2 0 0 0-.79.813q-.29.533-.29 1.295m11.814-3.477v1.136h-4.523v-1.136zm-3.205-2.091h1.341v8.318q0 .569.165.852a.85.85 0 0 0 .432.375q.267.091.562.091.222 0 .364-.023l.227-.045.273 1.205a3 3 0 0 1-.381.102 2.8 2.8 0 0 1-.619.057 2.7 2.7 0 0 1-1.114-.245 2.2 2.2 0 0 1-.897-.744q-.353-.5-.353-1.261zm10.586 14.091q-.341 0-.608-.057a1.6 1.6 0 0 1-.37-.102l.341-1.182q.489.124.864.091a1.04 1.04 0 0 0 .665-.335q.296-.296.54-.961l.25-.682-3.228-8.772h1.455l2.409 6.954h.091l2.409-6.954h1.454l-3.704 10q-.25.676-.619 1.119a2.34 2.34 0 0 1-.858.665 2.65 2.65 0 0 1-1.091.216m11.275-3.091q-1.182 0-2.074-.563-.886-.562-1.386-1.574-.494-1.011-.494-2.363 0-1.364.494-2.381.5-1.017 1.386-1.579.892-.563 2.074-.563 1.183 0 2.068.563.892.562 1.387 1.579.5 1.017.5 2.381 0 1.352-.5 2.363-.495 1.012-1.387 1.574-.886.563-2.068.563m0-1.205q.898 0 1.478-.46a2.7 2.7 0 0 0 .858-1.21q.278-.75.278-1.625 0-.876-.278-1.631a2.75 2.75 0 0 0-.858-1.221q-.58-.466-1.478-.466t-1.477.466q-.579.465-.858 1.221a4.7 4.7 0 0 0-.278 1.631q0 .875.278 1.625.279.75.858 1.21.58.46 1.477.46m11.502-2.545v-5.159h1.341V147h-1.341v-1.477h-.091q-.307.665-.955 1.13-.648.46-1.636.461-.818 0-1.455-.358-.636-.364-1-1.091-.363-.733-.363-1.847v-5.545h1.341v5.454q0 .955.534 1.523.54.568 1.375.568.5 0 1.017-.256.522-.255.875-.784.358-.528.358-1.346m10.865 3.773a3.55 3.55 0 0 1-1.506-.313 2.6 2.6 0 0 1-1.074-.915q-.398-.602-.398-1.454 0-.75.296-1.216.295-.472.79-.739.494-.266 1.091-.398.602-.135 1.21-.215.795-.103 1.29-.154.5-.057.727-.187.233-.13.233-.455v-.045q0-.842-.46-1.307-.455-.466-1.381-.466-.96 0-1.506.42-.545.421-.767.898l-1.273-.454q.342-.797.91-1.239a3.4 3.4 0 0 1 1.25-.625 5.2 5.2 0 0 1 1.34-.182q.422 0 .966.102.552.097 1.063.404.518.306.858.926t.341 1.659V147h-1.341v-1.182h-.068a2.4 2.4 0 0 1-.455.608q-.318.324-.846.551-.53.228-1.29.228m.204-1.205q.797 0 1.341-.312.551-.314.83-.807.284-.495.284-1.04v-1.227q-.085.102-.375.187-.284.08-.659.142-.37.057-.722.102-.346.04-.562.069a5 5 0 0 0-.978.221 1.7 1.7 0 0 0-.727.449q-.273.296-.273.807 0 .699.517 1.057.523.352 1.324.352m10.743 1v-8.727h1.296v1.363h.113q.273-.698.881-1.085.608-.392 1.46-.392.864 0 1.438.392.579.387.903 1.085h.091q.336-.675 1.006-1.074.67-.402 1.608-.403 1.17 0 1.914.733.745.728.745 2.267V147h-1.341v-5.841q0-.966-.529-1.381a1.96 1.96 0 0 0-1.244-.414q-.92 0-1.426.556-.506.552-.506 1.398V147h-1.363v-5.977q0-.744-.483-1.199-.483-.46-1.245-.46-.522 0-.977.278a2.1 2.1 0 0 0-.727.773 2.3 2.3 0 0 0-.273 1.13V147zm16.475.205a3.55 3.55 0 0 1-1.506-.313 2.6 2.6 0 0 1-1.074-.915q-.398-.602-.398-1.454 0-.75.296-1.216.295-.472.79-.739.494-.266 1.091-.398.601-.135 1.21-.215.795-.103 1.29-.154.5-.057.727-.187.233-.13.233-.455v-.045q0-.842-.46-1.307-.456-.466-1.381-.466-.96 0-1.506.42-.545.421-.767.898l-1.273-.454q.342-.797.909-1.239.575-.449 1.25-.625a5.2 5.2 0 0 1 1.341-.182q.422 0 .966.102.552.097 1.063.404.516.306.858.926.34.62.341 1.659V147h-1.341v-1.182h-.068a2.4 2.4 0 0 1-.455.608q-.318.324-.847.551t-1.289.228m.204-1.205q.795 0 1.341-.312.552-.314.83-.807.284-.495.284-1.04v-1.227q-.085.102-.375.187-.285.08-.659.142-.37.057-.722.102-.347.04-.562.069a5 5 0 0 0-.978.221 1.7 1.7 0 0 0-.727.449q-.273.296-.273.807 0 .699.517 1.057.523.352 1.324.352m9.766 4.455q-.972 0-1.671-.25a3.5 3.5 0 0 1-1.164-.648 3.5 3.5 0 0 1-.733-.852l1.068-.75q.181.238.46.545.279.312.761.54.489.233 1.279.233 1.056 0 1.744-.512.687-.511.688-1.602v-1.773h-.114a7 7 0 0 1-.42.591q-.267.347-.773.62-.5.267-1.352.267-1.058 0-1.898-.5-.835-.501-1.324-1.455-.483-.954-.483-2.318 0-1.34.472-2.335.47-1 1.312-1.546.841-.55 1.943-.551.852 0 1.353.284.505.279.772.637.273.352.421.579h.136v-1.386h1.296v8.977q0 1.125-.512 1.83-.505.71-1.363 1.039a5.1 5.1 0 0 1-1.898.336m-.046-4.796q.807 0 1.364-.369.556-.37.847-1.063t.289-1.659q0-.944-.284-1.665-.283-.722-.841-1.13-.556-.41-1.375-.409-.852 0-1.42.431a2.64 2.64 0 0 0-.847 1.16 4.5 4.5 0 0 0-.278 1.613q0 .909.284 1.608.29.693.852 1.091.569.392 1.409.392M201.61 147v-8.727h1.341V147zm.682-10.182a.95.95 0 0 1-.676-.267.86.86 0 0 1-.279-.642q0-.375.279-.642a.95.95 0 0 1 .676-.267q.392 0 .67.267.284.267.284.642t-.284.642a.93.93 0 0 1-.67.267m6.66 10.364q-1.227 0-2.113-.58a3.77 3.77 0 0 1-1.364-1.596q-.477-1.017-.477-2.324 0-1.33.489-2.347.493-1.023 1.375-1.596.886-.58 2.068-.58.92 0 1.659.341.738.34 1.21.955.471.613.585 1.431h-1.341q-.153-.596-.681-1.056-.523-.466-1.41-.466-.784 0-1.375.409-.585.403-.914 1.142-.324.732-.324 1.721 0 1.012.318 1.762.324.75.909 1.164.591.415 1.386.415.523 0 .949-.182.426-.181.722-.522.296-.342.42-.818h1.341a3.1 3.1 0 0 1-.562 1.392 3.16 3.16 0 0 1-1.176.977q-.728.358-1.694.358m11.233-11.818V147h-1.341v-11.636zM222.641 147v-8.727h1.341V147zm.682-10.182a.95.95 0 0 1-.676-.267.86.86 0 0 1-.278-.642q0-.375.278-.642a.95.95 0 0 1 .676-.267q.393 0 .671.267a.85.85 0 0 1 .284.642q0 .375-.284.642a.94.94 0 0 1-.671.267m4.456 4.932V147h-1.341v-8.727h1.296v1.363h.113q.307-.665.932-1.068.625-.41 1.614-.409.887 0 1.551.364.665.357 1.034 1.091.369.726.369 1.841V147h-1.341v-5.455q0-1.028-.534-1.602-.533-.579-1.466-.579-.642 0-1.147.278a2 2 0 0 0-.79.813q-.29.533-.29 1.295m9.269 2.068-.023-1.659h.273l3.818-3.886h1.659l-4.068 4.113h-.114zm-1.25 3.182v-11.636h1.34V147zm5.545 0-3.409-4.318.954-.932 4.16 5.25zM56.945 162.273v1.136h-4.523v-1.136zm-3.205-2.091h1.341v8.318q0 .569.165.852a.85.85 0 0 0 .432.375q.267.091.562.091.222 0 .364-.023l.227-.045.273 1.205q-.136.051-.381.102-.245.057-.62.057-.568 0-1.113-.245a2.2 2.2 0 0 1-.898-.744q-.351-.5-.352-1.261zm8.673 11q-1.181 0-2.073-.563-.887-.562-1.387-1.574-.495-1.011-.494-2.363 0-1.364.494-2.381.5-1.017 1.386-1.579.893-.563 2.074-.563 1.182 0 2.069.563.891.562 1.386 1.579.5 1.017.5 2.381 0 1.352-.5 2.363a3.77 3.77 0 0 1-1.386 1.574q-.886.563-2.069.563m0-1.205q.898 0 1.478-.46.579-.46.858-1.21.278-.75.278-1.625a4.7 4.7 0 0 0-.278-1.631 2.74 2.74 0 0 0-.858-1.221q-.58-.466-1.478-.466-.897 0-1.477.466-.579.465-.858 1.221a4.7 4.7 0 0 0-.278 1.631q0 .875.278 1.625.279.75.858 1.21.58.46 1.477.46m16.684-5.75-1.205.341a2.2 2.2 0 0 0-.335-.585 1.6 1.6 0 0 0-.591-.477q-.375-.188-.96-.188-.802 0-1.335.37-.53.363-.529.926 0 .5.364.789.363.291 1.136.483l1.296.319q1.17.284 1.744.869.573.579.574 1.494 0 .75-.432 1.341-.426.591-1.193.932-.767.34-1.784.341-1.335 0-2.21-.58-.876-.579-1.109-1.693l1.273-.318q.181.705.688 1.057.51.352 1.335.352.937 0 1.489-.398.556-.403.556-.966 0-.454-.318-.761-.318-.312-.977-.466l-1.455-.341q-1.198-.284-1.761-.88-.557-.603-.557-1.506 0-.739.415-1.307.42-.568 1.142-.892.727-.324 1.648-.324 1.295 0 2.034.568.744.569 1.057 1.5M81.274 171v-8.727h1.341V171zm.682-10.182a.95.95 0 0 1-.676-.267.86.86 0 0 1-.279-.642q0-.375.279-.642a.95.95 0 0 1 .676-.267q.392 0 .67.267a.85.85 0 0 1 .284.642.85.85 0 0 1-.284.642.93.93 0 0 1-.67.267m6.638 13.637q-.972 0-1.67-.25a3.6 3.6 0 0 1-1.166-.648 3.5 3.5 0 0 1-.732-.852l1.068-.75q.181.238.46.545.28.312.761.54.489.233 1.279.233 1.056 0 1.744-.512.688-.511.688-1.602v-1.773h-.114a7 7 0 0 1-.42.591q-.268.347-.773.62-.5.267-1.352.267a3.65 3.65 0 0 1-1.898-.5q-.835-.501-1.324-1.455-.483-.954-.483-2.318 0-1.34.471-2.335.472-1 1.313-1.546.84-.55 1.943-.551.853 0 1.353.284.505.279.772.637.273.352.42.579h.137v-1.386h1.296v8.977q0 1.125-.512 1.83-.506.71-1.364 1.039-.852.336-1.897.336m-.046-4.796q.807 0 1.364-.369.556-.37.846-1.063t.29-1.659q0-.944-.284-1.665-.285-.722-.84-1.13-.557-.41-1.376-.409-.852 0-1.42.431a2.63 2.63 0 0 0-.847 1.16 4.5 4.5 0 0 0-.278 1.613q0 .909.284 1.608.29.693.852 1.091.569.392 1.41.392m7.614-3.909V171H94.82v-8.727h1.296v1.363h.113q.307-.665.932-1.068.625-.41 1.614-.409.886 0 1.551.364.665.357 1.034 1.091.369.726.369 1.841V171h-1.341v-5.455q0-1.028-.534-1.602-.534-.579-1.466-.579-.642 0-1.147.278a2 2 0 0 0-.79.813q-.29.533-.29 1.295M108.68 171v-8.727h1.341V171zm.682-10.182a.95.95 0 0 1-.676-.267.86.86 0 0 1-.278-.642q0-.375.278-.642a.95.95 0 0 1 .676-.267q.392 0 .671.267a.85.85 0 0 1 .284.642q0 .375-.284.642a.94.94 0 0 1-.671.267m4.456 4.932V171h-1.341v-8.727h1.296v1.363h.113q.308-.665.932-1.068.625-.41 1.614-.409.886 0 1.551.364.665.357 1.034 1.091.369.726.369 1.841V171h-1.341v-5.455q0-1.028-.534-1.602-.534-.579-1.466-.579-.642 0-1.147.278a2 2 0 0 0-.79.813q-.29.533-.29 1.295m16.314-3.477v1.136h-4.523v-1.136zm-3.204-2.091h1.34v8.318q0 .569.165.852a.85.85 0 0 0 .432.375q.267.091.563.091.22 0 .363-.023l.227-.045.273 1.205a3 3 0 0 1-.38.102q-.245.057-.62.057-.569 0-1.113-.245a2.2 2.2 0 0 1-.898-.744q-.352-.5-.352-1.261zm8.673 11q-1.182 0-2.074-.563-.887-.562-1.386-1.574-.495-1.011-.495-2.363 0-1.364.495-2.381.5-1.017 1.386-1.579.892-.563 2.074-.563t2.068.563q.893.562 1.386 1.579.5 1.017.5 2.381 0 1.352-.5 2.363a3.76 3.76 0 0 1-1.386 1.574q-.886.563-2.068.563m0-1.205q.898 0 1.477-.46a2.7 2.7 0 0 0 .858-1.21q.279-.75.278-1.625 0-.876-.278-1.631a2.75 2.75 0 0 0-.858-1.221q-.58-.466-1.477-.466t-1.477.466q-.58.465-.858 1.221a4.7 4.7 0 0 0-.279 1.631q0 .875.279 1.625.278.75.858 1.21.579.46 1.477.46m11.365 4.296a3 3 0 0 1-.608-.057 1.6 1.6 0 0 1-.369-.102l.341-1.182q.488.124.863.091a1.04 1.04 0 0 0 .665-.335q.296-.296.54-.961l.25-.682-3.228-8.772h1.455l2.409 6.954h.091l2.409-6.954h1.455l-3.705 10q-.25.676-.619 1.119a2.3 2.3 0 0 1-.858.665 2.65 2.65 0 0 1-1.091.216m11.275-3.091q-1.181 0-2.073-.563-.886-.562-1.387-1.574-.494-1.011-.494-2.363 0-1.364.494-2.381.5-1.017 1.387-1.579.892-.563 2.073-.563t2.069.563q.891.562 1.386 1.579.5 1.017.5 2.381 0 1.352-.5 2.363a3.77 3.77 0 0 1-1.386 1.574q-.887.563-2.069.563m0-1.205q.898 0 1.478-.46a2.7 2.7 0 0 0 .858-1.21q.278-.75.278-1.625 0-.876-.278-1.631a2.75 2.75 0 0 0-.858-1.221q-.58-.466-1.478-.466-.897 0-1.477.466-.579.465-.858 1.221a4.7 4.7 0 0 0-.278 1.631q0 .875.278 1.625.279.75.858 1.21.58.46 1.477.46m11.502-2.545v-5.159h1.341V171h-1.341v-1.477h-.091q-.307.665-.955 1.13-.647.46-1.636.461a2.9 2.9 0 0 1-1.454-.358q-.637-.364-1-1.091-.364-.733-.364-1.847v-5.545h1.341v5.454q0 .955.534 1.523.54.568 1.375.568.5 0 1.017-.256.522-.255.875-.784.358-.528.358-1.346M173.54 171v-8.727h1.295v1.318h.091q.238-.648.864-1.051a2.54 2.54 0 0 1 1.409-.404q.147 0 .369.006t.335.017v1.364a3 3 0 0 0-.312-.051 3 3 0 0 0-.506-.04q-.636 0-1.136.267-.495.262-.784.727-.284.46-.284 1.051V171zm13.021.205a3.55 3.55 0 0 1-1.506-.313 2.6 2.6 0 0 1-1.073-.915q-.398-.602-.398-1.454 0-.75.295-1.216.295-.472.79-.739.495-.266 1.091-.398.602-.135 1.21-.215.795-.103 1.29-.154.5-.057.727-.187.233-.13.233-.455v-.045q0-.842-.46-1.307-.454-.466-1.381-.466-.96 0-1.505.42-.546.421-.767.898l-1.273-.454q.34-.797.909-1.239a3.4 3.4 0 0 1 1.25-.625 5.2 5.2 0 0 1 1.341-.182q.42 0 .966.102.55.097 1.062.404.518.306.858.926t.341 1.659V171h-1.341v-1.182h-.068q-.136.284-.455.608-.318.324-.846.551t-1.29.228m.205-1.205q.795 0 1.341-.312a2.14 2.14 0 0 0 .829-.807q.284-.495.284-1.04v-1.227q-.085.102-.375.187a6 6 0 0 1-.659.142q-.37.057-.722.102-.346.04-.562.069a5 5 0 0 0-.977.221q-.45.148-.728.449-.272.296-.272.807 0 .699.517 1.057.523.352 1.324.352m9.788 1.182q-1.227 0-2.114-.58a3.77 3.77 0 0 1-1.363-1.596q-.478-1.017-.478-2.324 0-1.33.489-2.347.495-1.023 1.375-1.596.886-.58 2.068-.58.921 0 1.659.341a3.2 3.2 0 0 1 1.211.955q.471.613.585 1.431h-1.341q-.154-.596-.682-1.056-.522-.466-1.409-.466-.784 0-1.375.409-.585.403-.915 1.142-.324.732-.324 1.721 0 1.012.319 1.762.322.75.909 1.164.591.415 1.386.415.522 0 .949-.182.426-.181.721-.522.296-.342.421-.818h1.341a3.1 3.1 0 0 1-.563 1.392 3.14 3.14 0 0 1-1.176.977q-.727.358-1.693.358m8.937 0q-1.227 0-2.113-.58a3.77 3.77 0 0 1-1.364-1.596q-.477-1.017-.477-2.324 0-1.33.489-2.347.493-1.023 1.375-1.596.885-.58 2.068-.58.92 0 1.659.341.738.34 1.21.955.472.613.585 1.431h-1.341q-.153-.596-.681-1.056-.523-.466-1.41-.466-.783 0-1.375.409-.585.403-.914 1.142-.324.732-.324 1.721 0 1.012.318 1.762.324.75.909 1.164.591.415 1.386.415.523 0 .949-.182.426-.181.722-.522.295-.342.42-.818h1.341a3.1 3.1 0 0 1-.562 1.392 3.16 3.16 0 0 1-1.176.977q-.728.358-1.694.358m8.938 0q-1.182 0-2.074-.563-.887-.562-1.386-1.574-.495-1.011-.495-2.363 0-1.364.495-2.381.5-1.017 1.386-1.579.892-.563 2.074-.563t2.068.563q.892.562 1.387 1.579.5 1.017.5 2.381 0 1.352-.5 2.363-.495 1.012-1.387 1.574-.886.563-2.068.563m0-1.205q.898 0 1.477-.46t.858-1.21.279-1.625q0-.876-.279-1.631a2.73 2.73 0 0 0-.858-1.221q-.58-.466-1.477-.466t-1.477.466q-.58.465-.858 1.221a4.7 4.7 0 0 0-.279 1.631q0 .875.279 1.625.277.75.858 1.21.579.46 1.477.46m11.501-2.545v-5.159h1.341V171h-1.341v-1.477h-.091q-.306.665-.954 1.13-.648.46-1.636.461-.819 0-1.455-.358-.637-.364-1-1.091-.364-.733-.364-1.847v-5.545h1.341v5.454q0 .955.534 1.523.54.568 1.375.568.501 0 1.017-.256.524-.255.875-.784.358-.528.358-1.346m5.138-1.682V171h-1.341v-8.727h1.296v1.363h.113q.308-.665.932-1.068.626-.41 1.614-.409.887 0 1.551.364.665.357 1.034 1.091.369.726.369 1.841V171h-1.341v-5.455q0-1.028-.534-1.602-.533-.579-1.466-.579-.642 0-1.147.278a2 2 0 0 0-.79.813q-.29.533-.29 1.295m11.814-3.477v1.136h-4.523v-1.136zm-3.204-2.091h1.34v8.318q0 .569.165.852a.85.85 0 0 0 .432.375q.267.091.563.091.22 0 .363-.023l.227-.045.273 1.205a3 3 0 0 1-.38.102q-.245.057-.62.057-.568 0-1.113-.245a2.2 2.2 0 0 1-.898-.744q-.352-.5-.352-1.261zm6.198 10.909q-.42 0-.721-.301a.99.99 0 0 1-.301-.722q0-.42.301-.721a.98.98 0 0 1 .721-.302q.421 0 .722.302.301.3.301.721a.96.96 0 0 1-.142.512q-.137.232-.369.375a1 1 0 0 1-.512.136"/><path fill="#18181B" d="M33 211c0-5.523 4.477-10 10-10h214c5.523 0 10 4.477 10 10v20c0 5.523-4.477 10-10 10H43c-5.523 0-10-4.477-10-10z"/><path fill="#F8FAFC" d="M106.848 220.909q0 1.63-.597 2.804-.596 1.168-1.635 1.8-1.035.626-2.352.626-1.323 0-2.361-.626-1.034-.632-1.631-1.805t-.597-2.799q0-1.63.597-2.799.597-1.173 1.63-1.8 1.04-.631 2.362-.631 1.317 0 2.352.631 1.039.627 1.635 1.8.597 1.168.597 2.799m-1.521 0q0-1.243-.403-2.093-.398-.855-1.094-1.293a2.84 2.84 0 0 0-1.566-.442 2.85 2.85 0 0 0-1.571.442q-.691.438-1.094 1.293-.398.85-.398 2.093t.398 2.098q.403.85 1.094 1.293a2.9 2.9 0 0 0 1.571.437q.874 0 1.566-.437.696-.442 1.094-1.293.403-.855.403-2.098m3.317 7.955v-10.5h1.452v1.238h.124q.129-.24.373-.552.243-.313.676-.547.432-.239 1.143-.239a3 3 0 0 1 1.651.468q.726.467 1.138 1.347.418.879.418 2.118t-.413 2.123q-.413.88-1.133 1.357a2.94 2.94 0 0 1-1.646.472q-.696 0-1.138-.234a2.1 2.1 0 0 1-.686-.546 4 4 0 0 1-.383-.557h-.09v4.052zm1.456-6.682q0 .805.234 1.412t.676.949q.443.339 1.084.338.666 0 1.114-.353a2.2 2.2 0 0 0 .676-.969q.234-.612.234-1.377 0-.756-.229-1.357a2.1 2.1 0 0 0-.676-.95q-.448-.348-1.119-.348-.646 0-1.094.333-.442.333-.671.93-.229.596-.229 1.392m10.476 3.972q-1.13 0-1.944-.482a3.3 3.3 0 0 1-1.253-1.367q-.438-.885-.438-2.073 0-1.174.438-2.069a3.4 3.4 0 0 1 1.233-1.397q.795-.502 1.859-.502.647 0 1.253.214t1.089.671q.482.458.761 1.188.278.727.278 1.765v.527h-6.07v-1.113h4.613q0-.587-.238-1.039a1.8 1.8 0 0 0-.672-.721 1.87 1.87 0 0 0-1.004-.264q-.626 0-1.094.308a2.1 2.1 0 0 0-.715.796 2.3 2.3 0 0 0-.249 1.059v.87q0 .765.268 1.302.274.537.761.821.487.278 1.139.278.422 0 .77-.119.348-.125.602-.368t.387-.602l1.407.254a2.54 2.54 0 0 1-.606 1.089 2.95 2.95 0 0 1-1.089.721q-.652.253-1.486.253m6.412-4.688V226h-1.487v-7.636h1.427v1.243h.095q.262-.607.825-.975.566-.368 1.427-.368.78 0 1.367.328a2.2 2.2 0 0 1 .91.965q.323.64.323 1.586V226h-1.487v-4.678q0-.83-.432-1.298-.434-.472-1.188-.472-.518 0-.92.224a1.6 1.6 0 0 0-.632.656q-.228.428-.228 1.034M137.693 226v-10.182h6.383v1.323h-4.847v3.102h4.514v1.317h-4.514v3.118h4.907V226zm8.316 0v-7.636h1.427v1.243h.094q.239-.632.781-.985.542-.358 1.297-.358.766 0 1.283.358.522.358.771.985h.079q.275-.612.87-.975.597-.368 1.422-.368 1.04 0 1.696.651.66.652.661 1.964V226h-1.487v-4.982q0-.775-.422-1.123a1.54 1.54 0 0 0-1.01-.348q-.725 0-1.128.447-.403.443-.403 1.139V226h-1.481v-5.076q0-.621-.388-.999t-1.009-.378a1.44 1.44 0 0 0-.781.224 1.64 1.64 0 0 0-.572.611 1.9 1.9 0 0 0-.213.91V226zm14.595.169q-.725 0-1.312-.268a2.2 2.2 0 0 1-.93-.791q-.338-.517-.338-1.268 0-.646.249-1.064.248-.417.671-.661.423-.243.944-.368a9 9 0 0 1 1.064-.189l1.114-.129q.427-.054.622-.174.193-.119.193-.388v-.034q0-.652-.368-1.01-.362-.358-1.083-.358-.751 0-1.184.333-.427.329-.591.731l-1.397-.318q.248-.696.726-1.124a2.94 2.94 0 0 1 1.108-.626 4.3 4.3 0 0 1 1.318-.199q.457 0 .969.11.517.103.965.387.452.283.741.811.288.522.288 1.357V226h-1.452v-1.044h-.059a2.2 2.2 0 0 1-.433.567 2.3 2.3 0 0 1-.741.462q-.452.184-1.084.184m.324-1.193q.616 0 1.054-.244.442-.243.671-.636.233-.398.233-.85v-.985q-.079.08-.308.15-.224.065-.512.114-.288.045-.562.084l-.457.06a3.7 3.7 0 0 0-.791.184q-.353.129-.566.373-.21.239-.209.636 0 .552.407.835.408.279 1.04.279m5.425 1.024v-7.636h1.486V226zm.751-8.815a.95.95 0 0 1-.667-.258.84.84 0 0 1-.273-.627.83.83 0 0 1 .273-.626.94.94 0 0 1 .667-.263q.387 0 .661.263a.82.82 0 0 1 .278.626.84.84 0 0 1-.278.627.93.93 0 0 1-.661.258m4.222-1.367V226h-1.487v-10.182zM178.01 226h-1.631l3.664-10.182h1.775L185.482 226h-1.63l-2.879-8.332h-.08zm.273-3.987h5.29v1.292h-5.29zm8.55 6.851v-10.5h1.452v1.238h.124q.13-.24.373-.552a2.1 2.1 0 0 1 .676-.547q.433-.239 1.144-.239.924 0 1.65.468.726.467 1.139 1.347.417.879.417 2.118t-.412 2.123q-.412.88-1.134 1.357a2.93 2.93 0 0 1-1.645.472q-.696 0-1.139-.234a2.15 2.15 0 0 1-.686-.546 4 4 0 0 1-.383-.557h-.089v4.052zm1.457-6.682q0 .805.234 1.412.233.606.676.949.442.339 1.084.338.666 0 1.113-.353.447-.357.676-.969.234-.612.234-1.377 0-.756-.229-1.357a2.08 2.08 0 0 0-.676-.95q-.447-.348-1.118-.348-.647 0-1.094.333-.443.333-.671.93-.23.596-.229 1.392m7.184 6.682v-10.5h1.452v1.238h.124q.129-.24.373-.552.243-.313.676-.547.432-.239 1.143-.239a3 3 0 0 1 1.651.468q.726.467 1.138 1.347.418.879.418 2.118t-.413 2.123q-.413.88-1.133 1.357a2.94 2.94 0 0 1-1.646.472q-.696 0-1.138-.234a2.1 2.1 0 0 1-.686-.546 4 4 0 0 1-.383-.557h-.09v4.052zm1.457-6.682q0 .805.233 1.412.234.606.676.949.443.339 1.084.338.667 0 1.114-.353a2.2 2.2 0 0 0 .676-.969q.234-.612.234-1.377 0-.756-.229-1.357a2.1 2.1 0 0 0-.676-.95q-.448-.348-1.119-.348-.646 0-1.094.333-.442.333-.671.93-.228.596-.228 1.392"/><path fill="#fff" d="M43 249.5h214a9.5 9.5 0 0 1 9.5 9.5v20a9.5 9.5 0 0 1-9.5 9.5H43a9.5 9.5 0 0 1-9.5-9.5v-20a9.5 9.5 0 0 1 9.5-9.5"/><path stroke="#E2E8F0" d="M43 249.5h214a9.5 9.5 0 0 1 9.5 9.5v20a9.5 9.5 0 0 1-9.5 9.5H43a9.5 9.5 0 0 1-9.5-9.5v-20a9.5 9.5 0 0 1 9.5-9.5Z"/><path fill="#020618" d="M106.391 274v-10.182h3.629q1.184 0 1.964.408.786.408 1.173 1.128.388.717.388 1.656 0 .935-.393 1.646-.387.705-1.173 1.098-.78.393-1.964.393h-2.749v-1.322h2.61q.746 0 1.213-.214.472-.214.691-.622.219-.407.219-.979 0-.577-.224-.999a1.44 1.44 0 0 0-.691-.647q-.467-.228-1.228-.228h-1.929V274zm5.026-4.594 2.516 4.594h-1.75l-2.466-4.594zm7.074 4.748q-1.13 0-1.944-.482a3.3 3.3 0 0 1-1.253-1.367q-.438-.885-.438-2.073 0-1.174.438-2.069a3.4 3.4 0 0 1 1.233-1.397q.795-.502 1.859-.502.647 0 1.253.214t1.089.671q.482.458.761 1.188.278.726.278 1.765v.527h-6.07v-1.113h4.613q0-.587-.238-1.039a1.8 1.8 0 0 0-.672-.721 1.87 1.87 0 0 0-1.004-.264q-.626 0-1.094.308a2.1 2.1 0 0 0-.715.796 2.3 2.3 0 0 0-.249 1.059v.87q0 .765.268 1.302.274.537.761.821.487.278 1.139.278.422 0 .77-.119.348-.125.602-.368a1.6 1.6 0 0 0 .388-.602l1.406.254a2.54 2.54 0 0 1-.606 1.089 2.95 2.95 0 0 1-1.089.721q-.651.253-1.486.253m10.648-5.926-1.348.239a1.6 1.6 0 0 0-.268-.493 1.34 1.34 0 0 0-.487-.382q-.309-.15-.771-.15-.631 0-1.054.284-.423.278-.423.721 0 .382.284.616.283.234.915.383l1.213.278q1.053.244 1.571.751.516.507.517 1.318 0 .686-.398 1.223-.393.531-1.099.835-.7.303-1.625.303-1.283 0-2.093-.547-.811-.552-.995-1.566l1.437-.219q.133.562.552.851.417.283 1.089.283.73 0 1.168-.303.438-.309.437-.751a.78.78 0 0 0-.268-.602q-.264-.243-.81-.367l-1.293-.284q-1.07-.244-1.581-.775-.507-.532-.507-1.348 0-.676.378-1.183t1.044-.79q.666-.29 1.526-.289 1.238 0 1.949.537.71.532.94 1.427m5.074 5.926q-1.128 0-1.944-.482a3.28 3.28 0 0 1-1.252-1.367q-.438-.885-.438-2.073 0-1.174.438-2.069a3.4 3.4 0 0 1 1.233-1.397q.795-.502 1.859-.502.646 0 1.253.214t1.089.671q.482.458.76 1.188.279.726.279 1.765v.527h-6.071v-1.113h4.614q0-.587-.239-1.039a1.8 1.8 0 0 0-.671-.721 1.87 1.87 0 0 0-1.004-.264q-.627 0-1.094.308a2.1 2.1 0 0 0-.716.796 2.3 2.3 0 0 0-.248 1.059v.87q0 .765.268 1.302.273.537.761.821a2.26 2.26 0 0 0 1.138.278q.423 0 .771-.119a1.589 1.589 0 0 0 .989-.97l1.407.254a2.56 2.56 0 0 1-.606 1.089 3 3 0 0 1-1.089.721q-.651.253-1.487.253m6.412-4.688V274h-1.486v-7.636h1.427v1.243h.094a2.2 2.2 0 0 1 .826-.975q.566-.368 1.426-.368.78 0 1.368.328.586.323.909.965.324.64.324 1.586V274h-1.487v-4.678q0-.83-.433-1.298-.432-.472-1.188-.472a1.85 1.85 0 0 0-.919.224 1.6 1.6 0 0 0-.632.656q-.228.428-.229 1.034m9.74 4.683a2.96 2.96 0 0 1-1.651-.472q-.72-.477-1.133-1.357-.408-.885-.408-2.123t.413-2.118q.417-.88 1.143-1.347a2.97 2.97 0 0 1 1.646-.468q.711 0 1.143.239.438.234.676.547.245.313.378.552h.09v-3.784h1.486V274h-1.452v-1.188h-.124a4 4 0 0 1-.388.557 2.1 2.1 0 0 1-.686.546q-.437.234-1.133.234m.328-1.268q.641 0 1.084-.338.447-.343.676-.949.234-.607.234-1.412 0-.796-.229-1.392-.229-.597-.671-.93t-1.094-.333q-.671 0-1.119.348a2.13 2.13 0 0 0-.676.95 3.9 3.9 0 0 0-.224 1.357q0 .765.229 1.377.23.612.676.969.453.353 1.114.353m9.401 1.119v-10.182h6.384v1.323h-4.848v3.102h4.515v1.317h-4.515v3.118h4.907V274zm8.316 0v-7.636h1.427v1.243h.095q.238-.632.78-.985.543-.358 1.298-.358.765 0 1.283.358.522.358.77.985h.08q.273-.612.87-.975.595-.368 1.422-.368 1.038 0 1.695.651.661.652.661 1.964V274h-1.486v-4.982q0-.775-.423-1.123a1.54 1.54 0 0 0-1.009-.348q-.726 0-1.129.447-.402.443-.402 1.139V274h-1.482v-5.076q0-.621-.388-.999-.387-.378-1.009-.378a1.44 1.44 0 0 0-.781.224 1.64 1.64 0 0 0-.571.611 1.87 1.87 0 0 0-.214.91V274zm14.596.169a3.1 3.1 0 0 1-1.313-.268 2.2 2.2 0 0 1-.929-.791q-.339-.517-.338-1.268 0-.646.248-1.064.25-.417.671-.661a3.5 3.5 0 0 1 .945-.368 9 9 0 0 1 1.064-.189l1.113-.129q.428-.054.622-.174.194-.119.194-.388v-.034q0-.652-.368-1.01-.363-.358-1.084-.358-.75 0-1.183.333-.427.329-.592.731l-1.397-.318q.249-.695.726-1.124a2.95 2.95 0 0 1 1.109-.626 4.3 4.3 0 0 1 1.317-.199q.457 0 .97.11.517.103.964.387.453.283.741.811.288.522.288 1.357V274h-1.451v-1.044h-.06a2.1 2.1 0 0 1-.433.567 2.3 2.3 0 0 1-.74.462q-.453.184-1.084.184m.323-1.193q.616 0 1.054-.244.443-.243.671-.636a1.65 1.65 0 0 0 .234-.85v-.985q-.08.08-.309.15a5 5 0 0 1-.512.114q-.288.045-.561.084l-.458.06a3.7 3.7 0 0 0-.79.184 1.35 1.35 0 0 0-.567.373q-.209.238-.209.636 0 .552.408.835.408.279 1.039.279m5.425 1.024v-7.636h1.487V274zm.751-8.815a.94.94 0 0 1-.666-.258.84.84 0 0 1-.274-.627q0-.368.274-.626a.93.93 0 0 1 .666-.263q.387 0 .661.263a.82.82 0 0 1 .279.626.84.84 0 0 1-.279.627.93.93 0 0 1-.661.258m4.222-1.367V274h-1.486v-10.182z"/></svg>