<svg xmlns="http://www.w3.org/2000/svg" width="300" height="256" fill="none"><path fill="#fff" d="M290.027 0v.5H292q.753.001 1.464.143l.097-.49a8 8 0 0 1 2.883 1.195l-.277.415a7.5 7.5 0 0 1 2.07 2.07l.414-.278a8 8 0 0 1 1.196 2.883l-.49.098q.142.711.143 1.464v2h.5v4h-.5v4h.5v4h-.5v4h.5v4h-.5v4h.5v4h-.5v4h.5v4h-.5v4h.5v4h-.5v4h.5v4h-.5v4h.5v4h-.5v4h.5v4h-.5v4h.5v4h-.5v4h.5v4h-.5v4h.5v4h-.5v4h.5v4h-.5v4h.5v4h-.5v4h.5v4h-.5v4h.5v4h-.5v4h.5v4h-.5v4h.5v4h-.5v4h.5v4h-.5v4h.5v4h-.5v4h.5v4h-.5v4h.5v4h-.5v4h.5v4h-.5v4h.5v4h-.5v4h.5v4h-.5v4h.5v4h-.5v4h.5v4h-.5v4h.5v4h-.5v4h.5v4h-.5v4h.5v4h-.5v2q-.001.753-.143 1.464l.49.097a8 8 0 0 1-1.196 2.883l-.414-.277a7.5 7.5 0 0 1-2.07 2.07l.277.414a8 8 0 0 1-2.883 1.196l-.097-.49a7.5 7.5 0 0 1-1.464.143h-1.973v.5h-3.944v-.5h-3.944v.5h-3.945v-.5h-3.944v.5h-3.944v-.5h-3.945v.5h-3.944v-.5h-3.945v.5h-3.945v-.5h-3.944v.5h-3.944v-.5h-3.945v.5h-3.944v-.5h-3.944v.5h-3.945v-.5h-3.944v.5h-3.945v-.5h-3.945v.5h-3.944v-.5h-3.944v.5h-3.945v-.5h-3.944v.5h-3.944v-.5h-3.945v.5h-3.944v-.5h-3.945v.5h-3.945v-.5h-3.944v.5h-3.944v-.5h-3.945v.5h-3.944v-.5h-3.944v.5h-3.945v-.5h-3.944v.5h-3.944v-.5h-3.946v.5h-3.944v-.5h-3.944v.5h-3.945v-.5h-3.944v.5h-3.944v-.5h-3.945v.5h-3.944v-.5h-3.944v.5h-3.946v-.5h-3.944v.5h-3.944v-.5h-3.945v.5H96.75v-.5h-3.944v.5H88.86v-.5h-3.944v.5h-3.944v-.5h-3.946v.5h-3.944v-.5h-3.944v.5h-3.945v-.5H61.25v.5h-3.944v-.5H53.36v.5h-3.944v-.5h-3.944v.5h-3.946v-.5h-3.944v.5h-3.944v-.5h-3.945v.5H25.75v-.5h-3.944v.5H17.86v-.5h-3.944v.5H9.973v-.5H8q-.752-.001-1.464-.143l-.098.49a8 8 0 0 1-2.883-1.196l.278-.414a7.5 7.5 0 0 1-2.07-2.07l-.415.277a8 8 0 0 1-1.196-2.883l.49-.097A7.5 7.5 0 0 1 .5 248v-2H0v-4h.5v-4H0v-4h.5v-4H0v-4h.5v-4H0v-4h.5v-4H0v-4h.5v-4H0v-4h.5v-4H0v-4h.5v-4H0v-4h.5v-4H0v-4h.5v-4H0v-4h.5v-4H0v-4h.5v-4H0v-4h.5v-4H0v-4h.5v-4H0v-4h.5v-4H0v-4h.5v-4H0v-4h.5v-4H0v-4h.5v-4H0v-4h.5v-4H0v-4h.5v-4H0v-4h.5v-4H0v-4h.5v-4H0v-4h.5v-4H0v-4h.5v-4H0v-4h.5v-4H0v-4h.5v-4H0v-4h.5v-4H0v-4h.5v-4H0v-4h.5v-4H0v-4h.5v-4H0v-4h.5V8q.001-.752.143-1.464l-.49-.098a8 8 0 0 1 1.195-2.883l.415.278a7.5 7.5 0 0 1 2.07-2.07l-.278-.415A8 8 0 0 1 6.438.152l.098.49A7.5 7.5 0 0 1 8 .5h1.973V0h3.944v.5h3.944V0h3.945v.5h3.944V0h3.944v.5h3.945V0h3.944v.5h3.945V0h3.945v.5h3.944V0h3.944v.5h3.945V0h3.944v.5h3.944V0h3.945v.5h3.944V0h3.945v.5h3.945V0h3.944v.5h3.944V0h3.945v.5h3.944V0h3.944v.5h3.945V0h3.944v.5h3.945V0h3.945v.5h3.944V0h3.944v.5h3.945V0h3.944v.5h3.944V0h3.945v.5h3.944V0h3.944v.5h3.946V0h3.944v.5h3.944V0h3.945v.5h3.944V0h3.944v.5h3.945V0h3.944v.5h3.944V0h3.946v.5h3.944V0h3.944v.5h3.945V0h3.944v.5h3.944V0h3.945v.5h3.944V0h3.944v.5h3.946V0h3.944v.5h3.944V0h3.945v.5h3.944V0h3.944v.5h3.945V0h3.944v.5h3.944V0h3.946v.5h3.944V0h3.944v.5h3.945V0h3.944v.5h3.944V0h3.945v.5h3.944V0z"/><path stroke="#fff" stroke-dasharray="4 4" d="M290.027 0v.5H292q.753.001 1.464.143l.097-.49a8 8 0 0 1 2.883 1.195l-.277.415a7.5 7.5 0 0 1 2.07 2.07l.414-.278a8 8 0 0 1 1.196 2.883l-.49.098q.142.711.143 1.464v2h.5v4h-.5v4h.5v4h-.5v4h.5v4h-.5v4h.5v4h-.5v4h.5v4h-.5v4h.5v4h-.5v4h.5v4h-.5v4h.5v4h-.5v4h.5v4h-.5v4h.5v4h-.5v4h.5v4h-.5v4h.5v4h-.5v4h.5v4h-.5v4h.5v4h-.5v4h.5v4h-.5v4h.5v4h-.5v4h.5v4h-.5v4h.5v4h-.5v4h.5v4h-.5v4h.5v4h-.5v4h.5v4h-.5v4h.5v4h-.5v4h.5v4h-.5v4h.5v4h-.5v4h.5v4h-.5v4h.5v4h-.5v4h.5v4h-.5v4h.5v4h-.5v4h.5v4h-.5v4h.5v4h-.5v2q-.001.753-.143 1.464l.49.097a8 8 0 0 1-1.196 2.883l-.414-.277a7.5 7.5 0 0 1-2.07 2.07l.277.414a8 8 0 0 1-2.883 1.196l-.097-.49a7.5 7.5 0 0 1-1.464.143h-1.973v.5h-3.944v-.5h-3.944v.5h-3.945v-.5h-3.944v.5h-3.944v-.5h-3.945v.5h-3.944v-.5h-3.945v.5h-3.945v-.5h-3.944v.5h-3.944v-.5h-3.945v.5h-3.944v-.5h-3.944v.5h-3.945v-.5h-3.944v.5h-3.945v-.5h-3.945v.5h-3.944v-.5h-3.944v.5h-3.945v-.5h-3.944v.5h-3.944v-.5h-3.945v.5h-3.944v-.5h-3.945v.5h-3.945v-.5h-3.944v.5h-3.944v-.5h-3.945v.5h-3.944v-.5h-3.944v.5h-3.945v-.5h-3.944v.5h-3.944v-.5h-3.946v.5h-3.944v-.5h-3.944v.5h-3.945v-.5h-3.944v.5h-3.944v-.5h-3.945v.5h-3.944v-.5h-3.944v.5h-3.946v-.5h-3.944v.5h-3.944v-.5h-3.945v.5H96.75v-.5h-3.944v.5H88.86v-.5h-3.944v.5h-3.944v-.5h-3.946v.5h-3.944v-.5h-3.944v.5h-3.945v-.5H61.25v.5h-3.944v-.5H53.36v.5h-3.944v-.5h-3.944v.5h-3.946v-.5h-3.944v.5h-3.944v-.5h-3.945v.5H25.75v-.5h-3.944v.5H17.86v-.5h-3.944v.5H9.973v-.5H8q-.752-.001-1.464-.143l-.098.49a8 8 0 0 1-2.883-1.196l.278-.414a7.5 7.5 0 0 1-2.07-2.07l-.415.277a8 8 0 0 1-1.196-2.883l.49-.097A7.5 7.5 0 0 1 .5 248v-2H0v-4h.5v-4H0v-4h.5v-4H0v-4h.5v-4H0v-4h.5v-4H0v-4h.5v-4H0v-4h.5v-4H0v-4h.5v-4H0v-4h.5v-4H0v-4h.5v-4H0v-4h.5v-4H0v-4h.5v-4H0v-4h.5v-4H0v-4h.5v-4H0v-4h.5v-4H0v-4h.5v-4H0v-4h.5v-4H0v-4h.5v-4H0v-4h.5v-4H0v-4h.5v-4H0v-4h.5v-4H0v-4h.5v-4H0v-4h.5v-4H0v-4h.5v-4H0v-4h.5v-4H0v-4h.5v-4H0v-4h.5v-4H0v-4h.5v-4H0v-4h.5v-4H0v-4h.5v-4H0v-4h.5V8q.001-.752.143-1.464l-.49-.098a8 8 0 0 1 1.195-2.883l.415.278a7.5 7.5 0 0 1 2.07-2.07l-.278-.415A8 8 0 0 1 6.438.152l.098.49A7.5 7.5 0 0 1 8 .5h1.973V0h3.944v.5h3.944V0h3.945v.5h3.944V0h3.944v.5h3.945V0h3.944v.5h3.945V0h3.945v.5h3.944V0h3.944v.5h3.945V0h3.944v.5h3.944V0h3.945v.5h3.944V0h3.945v.5h3.945V0h3.944v.5h3.944V0h3.945v.5h3.944V0h3.944v.5h3.945V0h3.944v.5h3.945V0h3.945v.5h3.944V0h3.944v.5h3.945V0h3.944v.5h3.944V0h3.945v.5h3.944V0h3.944v.5h3.946V0h3.944v.5h3.944V0h3.945v.5h3.944V0h3.944v.5h3.945V0h3.944v.5h3.944V0h3.946v.5h3.944V0h3.944v.5h3.945V0h3.944v.5h3.944V0h3.945v.5h3.944V0h3.944v.5h3.946V0h3.944v.5h3.944V0h3.945v.5h3.944V0h3.944v.5h3.945V0h3.944v.5h3.944V0h3.946v.5h3.944V0h3.944v.5h3.945V0h3.944v.5h3.944V0h3.945v.5h3.944V0z"/><g filter="url(#a)"><path fill="#fff" d="M126 30a6 6 0 0 1 6-6h36a6 6 0 0 1 6 6v36a6 6 0 0 1-6 6h-36a6 6 0 0 1-6-6z"/><path stroke="#E4E4E7" d="M132 24.5h36a5.5 5.5 0 0 1 5.5 5.5v36a5.5 5.5 0 0 1-5.5 5.5h-36a5.5 5.5 0 0 1-5.5-5.5V30a5.5 5.5 0 0 1 5.5-5.5Z"/><path stroke="#18181B" stroke-linecap="round" stroke-linejoin="round" stroke-width="2" d="M160 48h-6l-2 3h-4l-2-3h-6m20 0v6a2 2 0 0 1-2 2h-16a2 2 0 0 1-2-2v-6m20 0-3.45-6.89a2 2 0 0 0-1.79-1.11h-9.52a2 2 0 0 0-1.79 1.11L140 48"/></g><path fill="#18181B" d="M63.837 102.455V117h-2.344l-6.853-9.908h-.121V117h-2.635v-14.545h2.358l6.846 9.914h.128v-9.914zm7.516 14.758q-1.598 0-2.77-.703a4.8 4.8 0 0 1-1.818-1.967q-.64-1.265-.64-2.955t.64-2.962a4.77 4.77 0 0 1 1.818-1.974q1.172-.703 2.77-.703t2.77.703a4.7 4.7 0 0 1 1.81 1.974q.648 1.272.647 2.962 0 1.69-.646 2.955a4.73 4.73 0 0 1-1.811 1.967q-1.172.703-2.77.703m.014-2.06q.866 0 1.45-.475.58-.483.866-1.293a5.3 5.3 0 0 0 .29-1.804 5.3 5.3 0 0 0-.29-1.811q-.285-.817-.867-1.3t-1.449-.483q-.888 0-1.477.483-.583.483-.874 1.3a5.4 5.4 0 0 0-.284 1.811q0 .994.284 1.804.292.81.874 1.293.59.475 1.477.475m16.405 2.039q-1.285 0-2.302-.661-1.016-.66-1.605-1.917-.59-1.257-.59-3.054 0-1.818.597-3.069.604-1.257 1.627-1.896a4.2 4.2 0 0 1 2.28-.646q.959 0 1.577.327.617.32.98.774.362.447.56.845h.107v-5.44h2.578V117h-2.528v-1.719h-.156a4.4 4.4 0 0 1-.576.845 3.2 3.2 0 0 1-.994.753q-.618.313-1.555.313m.717-2.11q.816 0 1.392-.44.576-.447.874-1.243.298-.795.298-1.854 0-1.058-.298-1.839-.291-.781-.867-1.215-.568-.432-1.399-.433-.86 0-1.435.448-.575.447-.866 1.235-.291.789-.291 1.804 0 1.023.29 1.826.299.795.874 1.257.583.454 1.428.454m10.971 2.138q-1.037 0-1.868-.369a3.05 3.05 0 0 1-1.306-1.108q-.477-.732-.476-1.804 0-.924.34-1.527.342-.604.931-.966a4.7 4.7 0 0 1 1.328-.547q.746-.192 1.541-.277a61 61 0 0 0 1.556-.177q.596-.085.866-.256.277-.178.277-.547v-.043q0-.802-.476-1.242-.476-.441-1.37-.441-.945 0-1.499.412-.547.412-.739.973l-2.4-.341q.285-.995.937-1.662.654-.675 1.598-1.008.945-.341 2.088-.341.789 0 1.57.185.781.184 1.428.61.645.42 1.036 1.144.398.724.398 1.811V117h-2.471v-1.499h-.086a3.1 3.1 0 0 1-.66.853 3.2 3.2 0 0 1-1.058.632q-.633.234-1.485.234m.668-1.889q.774 0 1.342-.305.568-.313.874-.824.312-.512.312-1.115v-1.286q-.12.1-.412.185a6 6 0 0 1-.639.149q-.355.064-.703.114l-.604.085a4.5 4.5 0 0 0-1.03.255 1.7 1.7 0 0 0-.717.498q-.263.312-.263.809 0 .71.519 1.073.519.362 1.321.362m13.125-9.24v1.989h-6.271v-1.989zm-4.723-2.614h2.571v10.242q0 .518.156.795.163.27.426.37t.583.099q.241 0 .44-.036a4 4 0 0 0 .312-.063l.434 2.009q-.207.072-.59.157-.376.086-.923.099-.966.028-1.74-.291a2.7 2.7 0 0 1-1.229-1.009q-.447-.681-.44-1.704zm10.012 13.743q-1.037 0-1.868-.369a3.05 3.05 0 0 1-1.306-1.108q-.477-.732-.476-1.804 0-.924.341-1.527.34-.604.93-.966a4.7 4.7 0 0 1 1.328-.547q.746-.192 1.541-.277.96-.099 1.556-.177.596-.085.866-.256.277-.178.277-.547v-.043q0-.802-.476-1.242-.476-.441-1.37-.441-.945 0-1.499.412-.547.412-.739.973l-2.4-.341q.284-.995.937-1.662.654-.675 1.598-1.008.945-.341 2.088-.341.789 0 1.57.185.781.184 1.428.61.645.42 1.036 1.144.398.724.398 1.811V117h-2.471v-1.499h-.086a3.1 3.1 0 0 1-.66.853 3.2 3.2 0 0 1-1.058.632q-.633.234-1.485.234m.668-1.889q.774 0 1.342-.305.568-.313.874-.824.312-.512.312-1.115v-1.286q-.12.1-.412.185a6 6 0 0 1-.639.149q-.355.064-.703.114l-.604.085a4.5 4.5 0 0 0-1.03.255 1.7 1.7 0 0 0-.717.498q-.263.312-.263.809 0 .71.519 1.073.518.362 1.321.362m7.791 1.669v-14.545h2.571v5.44h.107q.198-.398.561-.845.362-.455.98-.774.618-.327 1.577-.327 1.263 0 2.279.646 1.023.639 1.62 1.896.603 1.251.603 3.069 0 1.797-.589 3.054-.59 1.257-1.605 1.917t-2.301.661q-.938 0-1.556-.313a3.2 3.2 0 0 1-.994-.753 5 5 0 0 1-.575-.845h-.15V117zm2.521-5.455q0 1.059.299 1.854.304.796.873 1.243.576.44 1.392.44.852 0 1.428-.454.575-.462.866-1.257.299-.803.299-1.826 0-1.015-.292-1.804-.291-.788-.866-1.235-.576-.448-1.435-.448-.823 0-1.399.433-.575.434-.873 1.215-.292.781-.292 1.839m13.102 5.675q-1.037 0-1.868-.369a3.05 3.05 0 0 1-1.306-1.108q-.476-.732-.476-1.804 0-.924.341-1.527.34-.604.93-.966a4.7 4.7 0 0 1 1.328-.547q.746-.192 1.541-.277.96-.099 1.556-.177.596-.085.866-.256.277-.178.277-.547v-.043q0-.802-.476-1.242-.476-.441-1.37-.441-.945 0-1.499.412-.547.412-.739.973l-2.4-.341q.284-.995.937-1.662.654-.675 1.598-1.008.945-.341 2.088-.341.789 0 1.57.185.781.184 1.428.61.645.42 1.037 1.144.397.724.397 1.811V117h-2.471v-1.499h-.086a3.1 3.1 0 0 1-.66.853 3.2 3.2 0 0 1-1.058.632q-.633.234-1.485.234m.668-1.889q.774 0 1.342-.305.568-.313.874-.824.312-.512.312-1.115v-1.286q-.12.1-.412.185a6 6 0 0 1-.639.149q-.355.064-.703.114l-.604.085a4.5 4.5 0 0 0-1.029.255 1.7 1.7 0 0 0-.718.498q-.263.312-.263.809 0 .71.519 1.073.519.362 1.321.362m16.3-6.357-2.344.256a1.9 1.9 0 0 0-.348-.668 1.7 1.7 0 0 0-.654-.504q-.411-.192-1.008-.192-.803 0-1.35.348-.539.348-.532.902a.94.94 0 0 0 .348.775q.362.297 1.193.49l1.861.397q1.548.335 2.301 1.059.76.725.767 1.896a2.96 2.96 0 0 1-.604 1.818q-.59.781-1.64 1.222-1.052.44-2.415.44-2.003 0-3.225-.838-1.221-.845-1.455-2.351l2.507-.241q.17.738.724 1.115.554.376 1.442.376.917 0 1.47-.376.561-.376.561-.931a.97.97 0 0 0-.362-.774q-.355-.305-1.108-.469l-1.861-.39q-1.569-.327-2.322-1.101-.753-.781-.746-1.974-.008-1.009.547-1.748.56-.745 1.555-1.15 1.002-.412 2.308-.412 1.918 0 3.019.817 1.108.816 1.371 2.208m7.184 8.239q-1.641 0-2.834-.682a4.6 4.6 0 0 1-1.826-1.946q-.639-1.264-.639-2.976 0-1.683.639-2.954.647-1.278 1.804-1.989 1.158-.717 2.721-.717 1.008 0 1.903.327a4.3 4.3 0 0 1 1.591.994q.696.675 1.094 1.719.397 1.037.397 2.471v.789h-8.941v-1.733h6.477a2.76 2.76 0 0 0-.32-1.314 2.3 2.3 0 0 0-.873-.916q-.554-.334-1.293-.334-.788 0-1.385.383a2.64 2.64 0 0 0-.93.995 2.86 2.86 0 0 0-.334 1.342v1.513q0 .951.348 1.633.348.675.973 1.037.625.355 1.463.355.561 0 1.016-.156.455-.164.788-.476.334-.312.504-.774l2.401.27a3.75 3.75 0 0 1-.867 1.662q-.632.703-1.619 1.094-.987.383-2.258.383m15.648-8.239-2.344.256a1.9 1.9 0 0 0-.348-.668 1.7 1.7 0 0 0-.654-.504q-.411-.192-1.008-.192-.803 0-1.349.348-.54.348-.533.902a.94.94 0 0 0 .348.775q.362.297 1.193.49l1.861.397q1.548.335 2.301 1.059.76.725.767 1.896a2.96 2.96 0 0 1-.604 1.818q-.59.781-1.64 1.222-1.052.44-2.415.44-2.003 0-3.224-.838-1.222-.845-1.456-2.351l2.507-.241q.17.738.724 1.115.554.376 1.442.376.917 0 1.47-.376.561-.376.561-.931a.97.97 0 0 0-.362-.774q-.355-.305-1.108-.469l-1.861-.39q-1.569-.327-2.322-1.101-.753-.781-.746-1.974-.008-1.009.547-1.748.56-.745 1.555-1.15 1.002-.412 2.308-.412 1.918 0 3.019.817 1.108.816 1.371 2.208m10.454 8.246q-1.037 0-1.868-.369a3.05 3.05 0 0 1-1.307-1.108q-.475-.732-.475-1.804 0-.924.341-1.527.34-.604.93-.966a4.7 4.7 0 0 1 1.328-.547q.746-.192 1.541-.277a61 61 0 0 0 1.556-.177q.596-.085.866-.256.277-.178.277-.547v-.043q0-.802-.476-1.242-.476-.441-1.37-.441-.945 0-1.499.412-.547.412-.739.973l-2.4-.341q.284-.995.937-1.662.654-.675 1.598-1.008.945-.341 2.088-.341.789 0 1.57.185.782.184 1.427.61.647.42 1.037 1.144.398.724.398 1.811V117h-2.471v-1.499h-.086a3.1 3.1 0 0 1-.66.853 3.2 3.2 0 0 1-1.058.632q-.633.234-1.485.234m.668-1.889q.774 0 1.342-.305.568-.313.874-.824.312-.512.312-1.115v-1.286q-.12.1-.412.185a6 6 0 0 1-.639.149q-.355.064-.703.114l-.604.085a4.5 4.5 0 0 0-1.03.255 1.7 1.7 0 0 0-.717.498q-.263.312-.263.809 0 .71.519 1.073.518.362 1.321.362m11.726 1.861q-1.286 0-2.301-.661-1.017-.66-1.606-1.917t-.589-3.054q0-1.818.597-3.069.603-1.257 1.626-1.896a4.2 4.2 0 0 1 2.28-.646q.959 0 1.576.327.618.32.981.774.362.447.561.845h.106v-5.44h2.578V117h-2.528v-1.719h-.156a4.4 4.4 0 0 1-.576.845 3.2 3.2 0 0 1-.994.753q-.618.313-1.555.313m.717-2.11q.817 0 1.392-.44.576-.447.874-1.243.298-.795.298-1.854 0-1.058-.298-1.839-.292-.781-.867-1.215-.568-.432-1.399-.433-.86 0-1.435.448-.575.447-.866 1.235-.291.789-.291 1.804 0 1.023.291 1.826.299.795.873 1.257.583.454 1.428.454m11.88 2.11q-1.285 0-2.301-.661-1.016-.66-1.605-1.917-.59-1.257-.589-3.054 0-1.818.596-3.069.604-1.257 1.627-1.896a4.17 4.17 0 0 1 2.279-.646q.96 0 1.577.327.618.32.98.774.363.447.561.845h.107v-5.44h2.578V117h-2.528v-1.719h-.157a4.4 4.4 0 0 1-.575.845 3.2 3.2 0 0 1-.994.753q-.618.313-1.556.313m.718-2.11q.816 0 1.392-.44.575-.447.873-1.243.299-.795.299-1.854 0-1.058-.299-1.839-.291-.781-.866-1.215-.568-.432-1.399-.433-.86 0-1.435.448-.575.447-.866 1.235-.292.789-.292 1.804 0 1.023.292 1.826.298.795.873 1.257.582.454 1.428.454m12.661 2.131q-1.64 0-2.834-.682a4.6 4.6 0 0 1-1.825-1.946q-.639-1.264-.639-2.976 0-1.683.639-2.954.646-1.278 1.804-1.989 1.158-.717 2.72-.717 1.009 0 1.904.327a4.3 4.3 0 0 1 1.591.994q.696.675 1.093 1.719.398 1.037.398 2.471v.789h-8.942v-1.733h6.478a2.8 2.8 0 0 0-.32-1.314 2.3 2.3 0 0 0-.874-.916q-.554-.334-1.292-.334-.789 0-1.385.383a2.65 2.65 0 0 0-.931.995 2.86 2.86 0 0 0-.333 1.342v1.513q0 .951.348 1.633.348.675.973 1.037.624.355 1.463.355.56 0 1.015-.156.455-.164.789-.476.333-.312.504-.774l2.401.27a3.76 3.76 0 0 1-.867 1.662q-.632.703-1.619 1.094-.987.383-2.259.383m11.074-.021q-1.286 0-2.301-.661-1.016-.66-1.605-1.917-.59-1.257-.589-3.054 0-1.818.596-3.069.604-1.257 1.627-1.896a4.2 4.2 0 0 1 2.28-.646q.958 0 1.576.327.618.32.98.774.363.447.561.845h.107v-5.44h2.578V117h-2.528v-1.719h-.157a4.4 4.4 0 0 1-.575.845 3.2 3.2 0 0 1-.994.753q-.618.313-1.556.313m.718-2.11q.816 0 1.392-.44.575-.447.873-1.243.299-.795.299-1.854 0-1.058-.299-1.839-.291-.781-.866-1.215-.568-.432-1.399-.433-.86 0-1.435.448-.575.447-.866 1.235-.292.789-.292 1.804 0 1.023.292 1.826.299.795.873 1.257.582.454 1.428.454"/><path fill="#71717A" d="M29.868 147v-10.182h3.44q1.193 0 1.959.408.765.402 1.133 1.109.369.705.368 1.605 0 .9-.368 1.596-.367.696-1.128 1.094-.76.393-1.944.393h-2.784v-1.114h2.744q.816 0 1.313-.239.501-.238.726-.676.228-.442.228-1.054 0-.611-.228-1.069a1.56 1.56 0 0 0-.731-.706q-.502-.253-1.328-.253h-2.167V147zm4.792-4.574L37.166 147h-1.432l-2.466-4.574zm7.123 4.733q-1.103 0-1.904-.487a3.27 3.27 0 0 1-1.228-1.372q-.427-.885-.427-2.059 0-1.173.427-2.068.434-.9 1.203-1.402.775-.507 1.81-.507.596 0 1.178.199.582.2 1.06.646.476.442.76 1.174.283.73.283 1.799v.498H39.06v-1.015h4.693a2.5 2.5 0 0 0-.258-1.153 1.94 1.94 0 0 0-.726-.8q-.468-.294-1.104-.294-.701 0-1.213.348a2.3 2.3 0 0 0-.78.895 2.6 2.6 0 0 0-.274 1.183v.676q0 .866.298 1.467.304.597.84.91.538.308 1.248.308.463 0 .836-.129a1.8 1.8 0 0 0 .65-.398q.274-.269.424-.666l1.133.318q-.18.577-.602 1.014-.422.433-1.044.676-.621.24-1.397.239m7.194.02q-.726 0-1.317-.273a2.27 2.27 0 0 1-.94-.801q-.348-.526-.348-1.273 0-.656.259-1.064.258-.412.69-.646.434-.234.955-.348.528-.118 1.06-.189.695-.089 1.128-.134.437-.05.636-.164.204-.114.204-.398v-.04q0-.735-.403-1.143-.398-.408-1.208-.408-.84 0-1.317.368-.478.368-.671.786l-1.114-.398q.298-.696.795-1.084.503-.393 1.094-.547a4.5 4.5 0 0 1 1.173-.159q.368 0 .846.09.481.084.93.353t.75.81q.298.541.298 1.452V147h-1.173v-1.034h-.06q-.12.249-.397.532-.279.284-.741.482-.462.2-1.129.199m.18-1.054q.694 0 1.173-.273.482-.274.725-.706.249-.433.249-.91v-1.074q-.075.09-.328.164a6 6 0 0 1-.577.124q-.323.05-.631.09-.304.035-.492.059-.457.06-.856.194a1.5 1.5 0 0 0-.636.393q-.239.258-.239.706 0 .612.453.925.457.308 1.158.308m8.345 1.034q-.954 0-1.685-.482-.73-.487-1.144-1.372-.412-.891-.412-2.103 0-1.203.412-2.088.413-.885 1.149-1.368.735-.482 1.7-.482.746 0 1.178.249.438.243.667.557.233.308.363.507h.099v-3.759h1.173V147H59.87v-1.173h-.14a8 8 0 0 1-.367.527q-.24.313-.681.561-.443.244-1.179.244m.16-1.054q.705 0 1.193-.368.486-.372.74-1.029.255-.661.254-1.526 0-.855-.249-1.497-.247-.646-.736-1.004-.486-.363-1.203-.363-.746 0-1.242.383a2.3 2.3 0 0 0-.741 1.029 4.1 4.1 0 0 0-.244 1.452q0 .815.249 1.481.253.661.745 1.054.498.388 1.233.388m11.837 1.074q-.726 0-1.318-.273a2.27 2.27 0 0 1-.94-.801q-.347-.526-.347-1.273 0-.656.258-1.064.258-.412.691-.646t.955-.348q.526-.118 1.059-.189.696-.089 1.128-.134.438-.05.637-.164.203-.114.204-.398v-.04q0-.735-.403-1.143-.398-.408-1.208-.408-.84 0-1.318.368-.477.368-.671.786l-1.114-.398q.299-.696.796-1.084.503-.393 1.094-.547a4.5 4.5 0 0 1 1.173-.159q.368 0 .845.09.483.084.93.353.452.269.75.81.3.541.299 1.452V147h-1.173v-1.034h-.06q-.12.249-.398.532t-.74.482-1.13.199m.179-1.054q.696 0 1.173-.273.483-.274.726-.706.249-.433.249-.91v-1.074q-.075.09-.329.164a6 6 0 0 1-.576.124q-.323.05-.632.09-.303.035-.492.059-.458.06-.855.194a1.5 1.5 0 0 0-.636.393q-.24.258-.24.706 0 .612.453.925.457.308 1.159.308m6.636-3.719V147H75.14v-7.636h1.134v1.193h.1q.267-.582.815-.935.546-.358 1.412-.358.775 0 1.357.318.582.313.905.955.323.636.323 1.611V147h-1.174v-4.773q0-.9-.467-1.402-.467-.507-1.283-.507-.561 0-1.004.244a1.74 1.74 0 0 0-.69.711q-.255.467-.254 1.133m9.9 4.753q-.956 0-1.686-.482-.731-.487-1.144-1.372-.412-.891-.412-2.103 0-1.203.412-2.088.413-.885 1.149-1.368.735-.482 1.7-.482.746 0 1.178.249.438.243.667.557a9 9 0 0 1 .362.507h.1v-3.759h1.173V147H88.58v-1.173h-.14a8 8 0 0 1-.367.527q-.24.313-.681.561-.442.244-1.179.244m.158-1.054q.706 0 1.194-.368.486-.372.74-1.029.255-.661.254-1.526 0-.855-.249-1.497-.248-.646-.736-1.004-.486-.363-1.203-.363-.745 0-1.243.383a2.3 2.3 0 0 0-.74 1.029 4.1 4.1 0 0 0-.244 1.452q0 .815.249 1.481.253.661.745 1.054.498.388 1.233.388m11.32.895-2.326-7.636h1.233l1.65 5.846h.08l1.63-5.846h1.254l1.61 5.826h.08l1.65-5.826h1.233L103.46 147h-1.154l-1.67-5.866h-.119L98.847 147zm9.646 0v-7.636h1.133v1.153h.08q.209-.566.755-.92a2.23 2.23 0 0 1 1.233-.353q.13 0 .323.005.194.006.294.015v1.193a4 4 0 0 0-.274-.044 2.6 2.6 0 0 0-.442-.035 2.1 2.1 0 0 0-.995.234 1.76 1.76 0 0 0-.686.636 1.7 1.7 0 0 0-.248.92V147zm5.209 0v-7.636h1.173V147zm.596-8.909a.83.83 0 0 1-.592-.234.75.75 0 0 1-.243-.562.75.75 0 0 1 .243-.561.83.83 0 0 1 .592-.234q.343 0 .587.234a.74.74 0 0 1 .248.561.75.75 0 0 1-.248.562.82.82 0 0 1-.587.234m6.047 1.273v.994h-3.958v-.994zm-2.804-1.83h1.173v7.278q0 .498.144.746.15.244.378.328.234.08.492.08.195 0 .319-.02l.198-.04.239 1.054q-.12.045-.333.09a2.5 2.5 0 0 1-.542.049q-.497 0-.974-.213a1.94 1.94 0 0 1-.786-.652q-.308-.437-.308-1.103zm7.688 9.625q-1.103 0-1.904-.487a3.3 3.3 0 0 1-1.228-1.372q-.427-.885-.427-2.059 0-1.173.427-2.068.433-.9 1.203-1.402.776-.507 1.81-.507.597 0 1.178.199.582.2 1.059.646.477.442.761 1.174.283.73.283 1.799v.498h-5.886v-1.015h4.693q0-.646-.258-1.153a1.94 1.94 0 0 0-.726-.8q-.468-.294-1.104-.294-.701 0-1.213.348a2.3 2.3 0 0 0-.781.895 2.6 2.6 0 0 0-.273 1.183v.676q0 .866.298 1.467.304.597.841.91.536.308 1.247.308.463 0 .836-.129.378-.135.651-.398.273-.269.422-.666l1.134.318q-.179.577-.602 1.014a2.9 2.9 0 0 1-1.044.676q-.621.24-1.397.239m11.768 0q-.954 0-1.685-.482-.731-.487-1.144-1.372-.412-.891-.412-2.103 0-1.203.412-2.088t1.149-1.368q.735-.482 1.7-.482.746 0 1.178.249.438.243.666.557.234.308.363.507h.1v-3.759h1.173V147h-1.133v-1.173h-.14a8 8 0 0 1-.367.527q-.24.313-.682.561-.442.244-1.178.244m.159-1.054q.707 0 1.193-.368.487-.372.741-1.029.254-.661.254-1.526 0-.855-.249-1.497-.249-.646-.736-1.004-.486-.363-1.203-.363-.745 0-1.243.383a2.3 2.3 0 0 0-.74 1.029 4.1 4.1 0 0 0-.244 1.452q0 .815.249 1.481.253.661.745 1.054.498.388 1.233.388m5.653.895v-7.636h1.173V147zm.597-8.909a.83.83 0 0 1-.592-.234.75.75 0 0 1-.244-.562.75.75 0 0 1 .244-.561.83.83 0 0 1 .592-.234q.343 0 .586.234a.74.74 0 0 1 .249.561.74.74 0 0 1-.249.562.82.82 0 0 1-.586.234m2.725 8.909v-7.636h1.134v1.153h.079q.209-.566.756-.92a2.23 2.23 0 0 1 1.233-.353q.13 0 .323.005.194.006.293.015v1.193a4 4 0 0 0-.273-.044 2.6 2.6 0 0 0-.443-.035q-.556 0-.994.234a1.711 1.711 0 0 0-.934 1.556V147zm8.178.159q-1.103 0-1.904-.487a3.3 3.3 0 0 1-1.228-1.372q-.427-.885-.427-2.059 0-1.173.427-2.068.433-.9 1.203-1.402.777-.507 1.81-.507.597 0 1.178.199.582.2 1.059.646.478.442.761 1.174.283.73.283 1.799v.498h-5.886v-1.015h4.693q0-.646-.258-1.153a1.94 1.94 0 0 0-.726-.8q-.468-.294-1.104-.294-.701 0-1.213.348a2.3 2.3 0 0 0-.78.895 2.6 2.6 0 0 0-.274 1.183v.676q0 .866.298 1.467.304.597.841.91.537.308 1.247.308.463 0 .836-.129.378-.135.651-.398a1.8 1.8 0 0 0 .423-.666l1.133.318q-.179.577-.601 1.014-.423.433-1.045.676-.62.24-1.397.239m8.049 0q-1.073 0-1.849-.507a3.3 3.3 0 0 1-1.193-1.397q-.418-.89-.418-2.033 0-1.164.428-2.054a3.4 3.4 0 0 1 1.203-1.397q.775-.507 1.81-.507.805 0 1.451.298.647.299 1.059.836a2.6 2.6 0 0 1 .512 1.253h-1.173q-.133-.523-.597-.925-.456-.408-1.233-.408a2.06 2.06 0 0 0-1.203.358q-.512.353-.8.999-.283.642-.283 1.507 0 .885.278 1.541.284.656.795 1.019.517.363 1.213.363.458 0 .831-.159a1.7 1.7 0 0 0 .631-.457q.258-.299.368-.716h1.173a2.7 2.7 0 0 1-.492 1.218 2.74 2.74 0 0 1-1.029.855q-.636.313-1.482.313m8.04-7.795v.994h-3.958v-.994zm-2.804-1.83h1.173v7.278q0 .498.144.746a.74.74 0 0 0 .378.328q.234.08.492.08.194 0 .318-.02l.199-.04.239 1.054q-.12.045-.333.09a2.5 2.5 0 0 1-.542.049q-.498 0-.975-.213a1.94 1.94 0 0 1-.785-.652q-.308-.437-.308-1.103zm5.906-.716V147h-1.173v-10.182zm2.904 13.046a2.6 2.6 0 0 1-.531-.05 1.4 1.4 0 0 1-.324-.09l.299-1.034q.428.11.755.08a.9.9 0 0 0 .582-.293q.258-.26.472-.841l.219-.596-2.824-7.676h1.273l2.108 6.085h.079l2.108-6.085h1.273l-3.241 8.75a3.3 3.3 0 0 1-.542.979 2.04 2.04 0 0 1-.751.582q-.423.189-.955.189m14.296-10.5v.994h-3.957v-.994zm-2.804-1.83h1.174v7.278q0 .498.144.746a.74.74 0 0 0 .378.328q.233.08.492.08.194 0 .318-.02l.199-.04.238 1.054q-.119.045-.333.09a2.5 2.5 0 0 1-.542.049q-.497 0-.974-.213a1.93 1.93 0 0 1-.785-.652q-.309-.437-.309-1.103zm7.589 9.625q-1.034 0-1.814-.492a3.34 3.34 0 0 1-1.213-1.377q-.433-.886-.433-2.068 0-1.194.433-2.084a3.34 3.34 0 0 1 1.213-1.382q.78-.492 1.814-.492t1.81.492q.78.493 1.213 1.382.438.89.438 2.084 0 1.183-.438 2.068a3.3 3.3 0 0 1-1.213 1.377q-.775.492-1.81.492m0-1.054q.786 0 1.293-.403.507-.402.751-1.059.243-.656.243-1.421 0-.766-.243-1.427a2.4 2.4 0 0 0-.751-1.069q-.507-.408-1.293-.408t-1.292.408a2.4 2.4 0 0 0-.751 1.069 4.1 4.1 0 0 0-.243 1.427q0 .765.243 1.421.244.657.751 1.059.507.403 1.292.403m12.073 1.054q-.955 0-1.686-.482-.73-.487-1.143-1.372-.413-.891-.413-2.103 0-1.203.413-2.088t1.148-1.368q.737-.482 1.701-.482.746 0 1.178.249.438.243.666.557.234.308.363.507h.099v-3.759h1.174V147h-1.134v-1.173h-.139a8 8 0 0 1-.368.527 2.2 2.2 0 0 1-.681.561q-.443.244-1.178.244m.159-1.054q.705 0 1.193-.368.488-.372.741-1.029.253-.661.253-1.526 0-.855-.248-1.497-.249-.646-.736-1.004-.488-.363-1.203-.363-.746 0-1.243.383a2.3 2.3 0 0 0-.741 1.029 4.1 4.1 0 0 0-.243 1.452q0 .815.248 1.481.254.661.746 1.054.496.388 1.233.388m7.9 1.074q-.726 0-1.318-.273a2.27 2.27 0 0 1-.939-.801q-.348-.526-.348-1.273 0-.656.258-1.064.258-.412.691-.646t.955-.348q.527-.118 1.059-.189.696-.089 1.128-.134.438-.05.637-.164.203-.114.203-.398v-.04q0-.735-.402-1.143-.398-.408-1.208-.408-.841 0-1.318.368t-.671.786l-1.114-.398q.298-.696.796-1.084a3 3 0 0 1 1.093-.547 4.6 4.6 0 0 1 1.174-.159q.368 0 .845.09.481.084.93.353.452.269.75.81.299.541.299 1.452V147h-1.174v-1.034h-.059q-.12.249-.398.532-.279.284-.741.482-.462.2-1.128.199m.179-1.054q.696 0 1.173-.273.482-.274.726-.706.248-.433.248-.91v-1.074q-.074.09-.328.164a6 6 0 0 1-.576.124q-.323.05-.632.09-.303.035-.492.059-.457.06-.855.194a1.5 1.5 0 0 0-.637.393q-.238.258-.238.706 0 .612.452.925.457.308 1.159.308m8.783-6.761v.994h-3.957v-.994zm-2.804-1.83h1.174v7.278q0 .498.144.746a.74.74 0 0 0 .378.328q.232.08.492.08.194 0 .318-.02l.199-.04.238 1.054q-.119.045-.333.09a2.5 2.5 0 0 1-.542.049q-.497 0-.974-.213a1.94 1.94 0 0 1-.786-.652q-.308-.437-.308-1.103zm6.816 9.645q-.726 0-1.317-.273a2.26 2.26 0 0 1-.94-.801q-.348-.526-.348-1.273 0-.656.259-1.064a1.8 1.8 0 0 1 .691-.646q.432-.234.954-.348.528-.118 1.059-.189.696-.089 1.129-.134.437-.05.636-.164.204-.114.204-.398v-.04q0-.735-.403-1.143-.398-.408-1.208-.408-.84 0-1.317.368t-.671.786l-1.114-.398q.298-.696.795-1.084.503-.393 1.094-.547a4.6 4.6 0 0 1 1.173-.159q.368 0 .846.09.482.084.929.353.453.269.751.81t.298 1.452V147h-1.173v-1.034h-.06a2 2 0 0 1-.397.532q-.279.284-.741.482-.463.2-1.129.199m.179-1.054q.696 0 1.174-.273a1.87 1.87 0 0 0 .974-1.616v-1.074q-.075.09-.328.164a6 6 0 0 1-.577.124q-.323.05-.631.09l-.492.059a4.6 4.6 0 0 0-.856.194 1.5 1.5 0 0 0-.636.393q-.239.258-.239.706 0 .612.453.925.458.308 1.158.308m5.622.875v-10.182h1.173v3.759h.1q.129-.2.358-.507.233-.314.666-.557.437-.249 1.183-.249.965 0 1.7.482.737.483 1.149 1.368t.412 2.088q0 1.212-.412 2.103-.413.885-1.144 1.372-.73.482-1.685.482-.736 0-1.178-.244a2.2 2.2 0 0 1-.682-.561 8 8 0 0 1-.367-.527h-.14V147zm1.153-3.818q0 .865.254 1.526.254.657.741 1.029.486.368 1.193.368.736 0 1.228-.388.497-.393.745-1.054.255-.666.254-1.481 0-.805-.249-1.452a2.24 2.24 0 0 0-.74-1.029q-.492-.383-1.238-.383-.717 0-1.203.363-.487.358-.736 1.004-.249.642-.249 1.497m9.63 3.997q-.726 0-1.317-.273a2.26 2.26 0 0 1-.94-.801q-.348-.526-.348-1.273 0-.656.259-1.064a1.8 1.8 0 0 1 .691-.646q.432-.234.954-.348.528-.118 1.059-.189.696-.089 1.129-.134.437-.05.636-.164.204-.114.204-.398v-.04q0-.735-.403-1.143-.398-.408-1.208-.408-.84 0-1.317.368-.478.368-.671.786l-1.114-.398q.299-.696.795-1.084.503-.393 1.094-.547a4.6 4.6 0 0 1 1.173-.159q.368 0 .846.09.482.084.929.353.453.269.751.81t.298 1.452V147h-1.173v-1.034h-.06a2 2 0 0 1-.397.532q-.279.284-.741.482-.462.2-1.129.199m.179-1.054q.696 0 1.174-.273a1.87 1.87 0 0 0 .974-1.616v-1.074q-.075.09-.328.164a6 6 0 0 1-.577.124q-.323.05-.631.09l-.492.059a4.6 4.6 0 0 0-.856.194 1.5 1.5 0 0 0-.636.393q-.239.258-.239.706 0 .612.453.925.458.308 1.158.308m10.872-5.051-1.054.298a2 2 0 0 0-.293-.512 1.4 1.4 0 0 0-.518-.418q-.327-.164-.84-.164-.7 0-1.168.324-.462.318-.462.81 0 .438.318.691.318.254.994.423l1.134.278q1.023.249 1.526.761.502.507.502 1.307 0 .657-.378 1.173-.372.518-1.044.816-.671.298-1.561.298-1.168 0-1.934-.507-.765-.507-.969-1.482l1.113-.278q.16.616.602.925.447.308 1.168.308.82 0 1.303-.348.487-.353.487-.845a.9.9 0 0 0-.278-.666q-.279-.274-.856-.408l-1.272-.298q-1.05-.249-1.541-.771-.488-.526-.488-1.317 0-.646.363-1.144a2.5 2.5 0 0 1 1-.78 3.5 3.5 0 0 1 1.441-.284q1.134 0 1.78.497.651.498.925 1.313m5.107 6.085q-1.104 0-1.904-.487a3.27 3.27 0 0 1-1.228-1.372q-.428-.885-.428-2.059 0-1.173.428-2.068.432-.9 1.203-1.402.775-.507 1.81-.507.596 0 1.178.199.582.2 1.059.646.477.442.76 1.174.284.73.284 1.799v.498h-5.887v-1.015h4.694q0-.646-.259-1.153a1.94 1.94 0 0 0-.726-.8q-.467-.294-1.103-.294-.702 0-1.213.348a2.3 2.3 0 0 0-.781.895 2.6 2.6 0 0 0-.273 1.183v.676q0 .866.298 1.467.303.597.84.91.537.308 1.248.308.462 0 .835-.129.378-.135.651-.398.274-.269.423-.666l1.134.318a2.5 2.5 0 0 1-.602 1.014q-.423.433-1.044.676-.621.24-1.397.239m10.356-6.085-1.054.298a2 2 0 0 0-.294-.512 1.4 1.4 0 0 0-.517-.418q-.327-.164-.84-.164-.701 0-1.168.324-.462.318-.462.81 0 .438.318.691.318.254.994.423l1.134.278q1.023.249 1.526.761.502.507.502 1.307 0 .657-.378 1.173-.372.518-1.044.816-.671.298-1.561.298-1.169 0-1.934-.507-.766-.507-.969-1.482l1.113-.278q.16.616.602.925.447.308 1.168.308.82 0 1.303-.348.487-.353.487-.845a.89.89 0 0 0-.279-.666q-.278-.274-.855-.408l-1.272-.298q-1.05-.249-1.542-.771-.487-.526-.487-1.317 0-.646.363-1.144.368-.496.999-.78a3.5 3.5 0 0 1 1.442-.284q1.134 0 1.78.497.65.498.925 1.313M53.988 167.179q-.726 0-1.318-.273a2.27 2.27 0 0 1-.94-.801q-.347-.526-.347-1.273 0-.656.258-1.064.259-.412.692-.646t.954-.348q.526-.118 1.059-.189.696-.089 1.129-.134.436-.05.636-.164.204-.114.204-.398v-.04q0-.735-.403-1.143-.398-.408-1.208-.408-.84 0-1.318.368-.477.368-.67.786l-1.114-.398q.298-.696.795-1.084.503-.393 1.094-.547a4.5 4.5 0 0 1 1.173-.159q.368 0 .845.09.483.084.93.353.453.269.75.81.3.541.299 1.452V167h-1.173v-1.034h-.06q-.12.249-.398.532t-.74.482-1.129.199m.179-1.054q.696 0 1.173-.273.483-.274.726-.706.249-.433.249-.91v-1.074q-.075.09-.328.164a6 6 0 0 1-.577.124q-.323.05-.631.09-.304.035-.493.059-.458.06-.855.194a1.5 1.5 0 0 0-.636.393q-.24.258-.239.706 0 .612.453.925.456.308 1.158.308m6.636-3.719V167H59.63v-7.636h1.133v1.193h.1q.267-.582.815-.935.546-.358 1.412-.358.776 0 1.357.318.582.313.905.955.323.636.323 1.611V167h-1.173v-4.773q0-.9-.468-1.402-.467-.507-1.282-.507-.562 0-1.005.244a1.74 1.74 0 0 0-.69.711q-.255.467-.254 1.133m9.9 4.753q-.955 0-1.686-.482-.73-.487-1.143-1.372-.413-.891-.413-2.103 0-1.203.413-2.088t1.148-1.368q.735-.482 1.7-.482.746 0 1.179.249.436.243.666.557.234.308.363.507h.1v-3.759h1.172V167H73.07v-1.173h-.14a8 8 0 0 1-.367.527q-.24.313-.681.561-.443.244-1.178.244m.159-1.054q.705 0 1.193-.368.487-.372.74-1.029.254-.661.254-1.526 0-.855-.249-1.497-.248-.646-.735-1.004-.487-.363-1.203-.363-.747 0-1.243.383a2.3 2.3 0 0 0-.741 1.029 4.1 4.1 0 0 0-.244 1.452q0 .815.249 1.481.254.661.746 1.054.496.388 1.233.388m14.999-5.031-1.054.298a2 2 0 0 0-.293-.512 1.4 1.4 0 0 0-.517-.418q-.33-.164-.84-.164-.702 0-1.169.324-.462.318-.462.81 0 .438.318.691.318.254.994.423l1.134.278q1.023.249 1.526.761.502.507.502 1.307 0 .657-.378 1.173-.372.518-1.044.816-.671.298-1.56.298-1.17 0-1.935-.507t-.97-1.482l1.114-.278q.16.616.602.925.447.308 1.168.308.82 0 1.303-.348.487-.353.487-.845a.89.89 0 0 0-.278-.666q-.279-.274-.856-.408l-1.272-.298q-1.05-.249-1.541-.771-.488-.526-.488-1.317 0-.646.363-1.144a2.5 2.5 0 0 1 1-.78 3.5 3.5 0 0 1 1.441-.284q1.134 0 1.78.497.651.498.925 1.313m5.226-1.71v.994H87.13v-.994zm-2.804-1.83h1.174v7.278q0 .498.144.746.15.244.378.328.233.08.492.08.194 0 .318-.02l.199-.04.239 1.054q-.12.045-.334.09a2.5 2.5 0 0 1-.541.049 2.4 2.4 0 0 1-.975-.213 1.94 1.94 0 0 1-.785-.652q-.309-.437-.309-1.103zm7.59 9.625q-1.035 0-1.815-.492a3.34 3.34 0 0 1-1.213-1.377q-.433-.886-.433-2.068 0-1.194.433-2.084a3.34 3.34 0 0 1 1.213-1.382q.78-.492 1.814-.492t1.81.492a3.3 3.3 0 0 1 1.213 1.382q.438.89.438 2.084 0 1.183-.438 2.068a3.3 3.3 0 0 1-1.213 1.377q-.775.492-1.81.492m0-1.054q.785 0 1.292-.403.507-.402.75-1.059.244-.656.244-1.421 0-.766-.243-1.427a2.4 2.4 0 0 0-.751-1.069q-.507-.408-1.293-.408t-1.292.408a2.4 2.4 0 0 0-.75 1.069 4.1 4.1 0 0 0-.245 1.427q0 .765.244 1.421.245.657.75 1.059.508.403 1.293.403m5.251.895v-7.636h1.133v1.153h.08q.209-.566.755-.92a2.23 2.23 0 0 1 1.233-.353q.13 0 .324.005.194.006.293.015v1.193a4 4 0 0 0-.274-.044 2.6 2.6 0 0 0-.442-.035q-.557 0-.994.234a1.712 1.712 0 0 0-.935 1.556V167zm8.178.159q-1.104 0-1.904-.487a3.27 3.27 0 0 1-1.228-1.372q-.428-.885-.428-2.059 0-1.173.428-2.068.432-.9 1.203-1.402.775-.507 1.81-.507.596 0 1.178.199.582.2 1.059.646.477.442.76 1.174.284.73.284 1.799v.498h-5.886v-1.015h4.693q0-.646-.259-1.153a1.94 1.94 0 0 0-.726-.8q-.467-.294-1.103-.294-.702 0-1.213.348a2.3 2.3 0 0 0-.781.895 2.6 2.6 0 0 0-.273 1.183v.676q0 .866.298 1.467.303.597.84.91.537.308 1.248.308.463 0 .835-.129.378-.135.651-.398.275-.269.423-.666l1.134.318a2.5 2.5 0 0 1-.602 1.014q-.423.433-1.044.676-.621.24-1.397.239m10.356-6.085-1.054.298a2 2 0 0 0-.294-.512 1.4 1.4 0 0 0-.517-.418q-.327-.164-.84-.164-.701 0-1.168.324-.462.318-.462.81 0 .438.318.691.318.254.994.423l1.134.278q1.023.249 1.526.761.502.507.502 1.307 0 .657-.378 1.173-.372.518-1.044.816-.671.298-1.561.298-1.169 0-1.934-.507-.766-.507-.969-1.482l1.113-.278q.16.616.602.925.448.308 1.168.308.82 0 1.303-.348.486-.353.487-.845a.89.89 0 0 0-.279-.666q-.278-.274-.855-.408l-1.272-.298q-1.05-.249-1.542-.771-.487-.526-.487-1.317 0-.646.363-1.144.368-.496.999-.78a3.5 3.5 0 0 1 1.442-.284q1.134 0 1.78.497.65.498.925 1.313m9.243-1.71v.994h-4.116v-.994zM126.018 167v-8.69q0-.656.308-1.094t.8-.656a2.5 2.5 0 0 1 1.039-.219q.433 0 .706.07.275.069.408.129l-.338 1.014a6 6 0 0 0-.249-.075 1.5 1.5 0 0 0-.407-.044q-.582 0-.84.293-.254.293-.254.86V167zm4.528 0v-7.636h1.133v1.153h.08q.209-.566.755-.92a2.23 2.23 0 0 1 1.233-.353q.13 0 .323.005.194.006.294.015v1.193a4 4 0 0 0-.274-.044 2.6 2.6 0 0 0-.442-.035 2.1 2.1 0 0 0-.995.234 1.76 1.76 0 0 0-.686.636 1.7 1.7 0 0 0-.248.92V167zm8.078.159q-1.034 0-1.814-.492a3.34 3.34 0 0 1-1.213-1.377q-.433-.886-.433-2.068 0-1.194.433-2.084a3.34 3.34 0 0 1 1.213-1.382q.78-.492 1.814-.492t1.81.492q.78.493 1.213 1.382.438.89.438 2.084 0 1.183-.438 2.068a3.3 3.3 0 0 1-1.213 1.377q-.775.492-1.81.492m0-1.054q.786 0 1.293-.403.507-.402.751-1.059.243-.656.243-1.421 0-.766-.243-1.427a2.4 2.4 0 0 0-.751-1.069q-.507-.408-1.293-.408t-1.292.408a2.4 2.4 0 0 0-.751 1.069 4.1 4.1 0 0 0-.244 1.427q0 .765.244 1.421.244.657.751 1.059.507.403 1.292.403m5.252.895v-7.636h1.133v1.193h.1q.239-.611.77-.95.532-.343 1.278-.343.756 0 1.258.343.507.339.79.95h.08a2.2 2.2 0 0 1 .88-.94q.587-.353 1.407-.353 1.024 0 1.675.642.651.636.651 1.983V167h-1.173v-5.111q0-.845-.462-1.208a1.7 1.7 0 0 0-1.089-.363q-.806 0-1.248.487-.442.483-.442 1.223V167h-1.194v-5.23q0-.651-.422-1.049-.423-.403-1.089-.403-.457 0-.855.244a1.83 1.83 0 0 0-.636.676q-.24.428-.239.989V167zm16.861 2.864a2.6 2.6 0 0 1-.532-.05 1.4 1.4 0 0 1-.323-.09l.298-1.034q.428.11.756.08a.9.9 0 0 0 .581-.293q.259-.26.473-.841l.218-.596-2.824-7.676h1.273l2.108 6.085h.08l2.108-6.085h1.272l-3.241 8.75a3.3 3.3 0 0 1-.542.979 2 2 0 0 1-.751.582q-.422.189-.954.189m9.866-2.705q-1.034 0-1.815-.492a3.35 3.35 0 0 1-1.213-1.377q-.432-.886-.432-2.068 0-1.194.432-2.084a3.35 3.35 0 0 1 1.213-1.382q.781-.492 1.815-.492t1.81.492q.78.493 1.213 1.382.437.89.437 2.084 0 1.183-.437 2.068a3.3 3.3 0 0 1-1.213 1.377q-.776.492-1.81.492m0-1.054q.785 0 1.293-.403.507-.402.75-1.059.244-.656.244-1.421 0-.766-.244-1.427a2.4 2.4 0 0 0-.75-1.069q-.508-.408-1.293-.408-.786 0-1.293.408a2.4 2.4 0 0 0-.75 1.069 4.1 4.1 0 0 0-.244 1.427q0 .765.244 1.421.243.657.75 1.059.507.403 1.293.403m10.064-2.227v-4.514h1.173V167h-1.173v-1.293h-.08a2.5 2.5 0 0 1-.835.99q-.567.402-1.432.402-.715 0-1.273-.313a2.2 2.2 0 0 1-.875-.954q-.318-.642-.318-1.616v-4.852h1.173v4.772q0 .835.468 1.333.473.497 1.203.497a2 2 0 0 0 .89-.224q.458-.224.765-.686.314-.462.314-1.178m3.322 3.122v-7.636h1.133v1.153h.08q.209-.566.756-.92a2.22 2.22 0 0 1 1.233-.353q.129 0 .323.005.194.006.293.015v1.193a4 4 0 0 0-.273-.044 2.6 2.6 0 0 0-.443-.035q-.556 0-.994.234a1.712 1.712 0 0 0-.935 1.556V167zm9.146 2.864v-10.5h1.134v1.213h.139q.13-.2.358-.507.234-.314.666-.557.438-.249 1.184-.249.963 0 1.7.482.735.483 1.148 1.368t.413 2.088q0 1.212-.413 2.103-.413.885-1.143 1.372-.73.482-1.686.482-.735 0-1.178-.244a2.2 2.2 0 0 1-.681-.561 8 8 0 0 1-.368-.527h-.099v4.037zm1.154-6.682q0 .865.253 1.526.254.657.741 1.029.488.368 1.193.368.736 0 1.228-.388a2.37 2.37 0 0 0 .746-1.054q.254-.666.254-1.481 0-.805-.249-1.452a2.24 2.24 0 0 0-.741-1.029q-.492-.383-1.238-.383-.715 0-1.203.363-.487.358-.736 1.004-.248.642-.248 1.497m7.378 3.818v-7.636h1.133v1.153h.08q.209-.566.755-.92a2.23 2.23 0 0 1 1.233-.353q.13 0 .323.005.195.006.294.015v1.193a4 4 0 0 0-.274-.044 2.6 2.6 0 0 0-.442-.035q-.557 0-.994.234a1.712 1.712 0 0 0-.935 1.556V167zm8.078.159q-1.034 0-1.814-.492a3.34 3.34 0 0 1-1.213-1.377q-.433-.886-.433-2.068 0-1.194.433-2.084a3.34 3.34 0 0 1 1.213-1.382q.78-.492 1.814-.492t1.81.492q.78.493 1.213 1.382.438.89.438 2.084 0 1.183-.438 2.068a3.3 3.3 0 0 1-1.213 1.377q-.775.492-1.81.492m0-1.054q.786 0 1.293-.403.507-.402.751-1.059.243-.656.243-1.421 0-.766-.243-1.427a2.4 2.4 0 0 0-.751-1.069q-.507-.408-1.293-.408t-1.292.408a2.4 2.4 0 0 0-.751 1.069 4.1 4.1 0 0 0-.243 1.427q0 .765.243 1.421.244.657.751 1.059.507.403 1.292.403m5.252-6.741h1.173v8.193q0 .705-.244 1.223a1.75 1.75 0 0 1-.725.8q-.483.284-1.218.284h-.239v-1.094h.219q.537 0 .785-.318.249-.313.249-.895zm.576-1.273a.83.83 0 0 1-.591-.234.75.75 0 0 1-.244-.562q0-.328.244-.561a.83.83 0 0 1 .591-.234q.344 0 .587.234a.74.74 0 0 1 .249.561.74.74 0 0 1-.249.562.82.82 0 0 1-.587.234m5.948 9.068q-1.104 0-1.904-.487a3.27 3.27 0 0 1-1.228-1.372q-.428-.885-.428-2.059 0-1.173.428-2.068.432-.9 1.203-1.402.775-.507 1.809-.507.597 0 1.179.199.58.2 1.059.646.477.442.76 1.174.284.73.284 1.799v.498h-5.887v-1.015h4.693q0-.646-.258-1.153a1.94 1.94 0 0 0-.726-.8q-.466-.294-1.104-.294-.7 0-1.213.348a2.3 2.3 0 0 0-.78.895 2.6 2.6 0 0 0-.274 1.183v.676q0 .866.299 1.467.303.597.84.91.537.308 1.248.308.462 0 .835-.129.378-.135.651-.398a1.8 1.8 0 0 0 .423-.666l1.133.318q-.179.577-.601 1.014-.423.433-1.044.676-.622.24-1.397.239m8.049 0q-1.074 0-1.85-.507a3.3 3.3 0 0 1-1.193-1.397q-.417-.89-.418-2.033 0-1.164.428-2.054a3.4 3.4 0 0 1 1.203-1.397q.775-.507 1.81-.507.805 0 1.452.298.645.299 1.058.836t.513 1.253h-1.174q-.134-.523-.596-.925-.458-.408-1.233-.408-.687 0-1.203.358-.513.353-.801.999-.283.642-.283 1.507 0 .885.278 1.541.283.656.796 1.019.516.363 1.213.363.457 0 .83-.159a1.7 1.7 0 0 0 .999-1.173h1.174q-.1.675-.493 1.218a2.74 2.74 0 0 1-1.029.855q-.636.313-1.481.313m8.039-7.795v.994h-3.958v-.994zm-2.804-1.83h1.173v7.278q0 .498.144.746.15.244.378.328.234.08.492.08.195 0 .318-.02l.199-.04.239 1.054q-.12.045-.333.09a2.5 2.5 0 0 1-.542.049q-.497 0-.974-.213a1.94 1.94 0 0 1-.786-.652q-.308-.437-.308-1.103zm9.841 3.54-1.054.298a2 2 0 0 0-.293-.512 1.44 1.44 0 0 0-.517-.418q-.328-.164-.841-.164-.7 0-1.168.324-.462.318-.462.81 0 .438.318.691.319.254.994.423l1.134.278q1.024.249 1.526.761.502.507.502 1.307 0 .657-.378 1.173-.372.518-1.044.816-.67.298-1.561.298-1.168 0-1.934-.507-.765-.507-.969-1.482l1.114-.278q.159.616.601.925.447.308 1.168.308.82 0 1.303-.348.487-.353.487-.845a.9.9 0 0 0-.278-.666q-.279-.274-.855-.408l-1.273-.298q-1.049-.249-1.541-.771-.487-.526-.487-1.317 0-.646.362-1.144a2.5 2.5 0 0 1 1-.78 3.5 3.5 0 0 1 1.441-.284q1.134 0 1.78.497.652.498.925 1.313m2.761 6.006a.86.86 0 0 1-.632-.264.86.86 0 0 1-.263-.631.86.86 0 0 1 .263-.632.86.86 0 0 1 .632-.263q.367 0 .631.263a.86.86 0 0 1 .263.632.84.84 0 0 1-.124.447.9.9 0 0 1-.323.328.85.85 0 0 1-.447.12"/><g filter="url(#b)"><path fill="#18181B" d="M35.5 202a6 6 0 0 1 6-6h97a6 6 0 0 1 6 6v24a6 6 0 0 1-6 6h-97a6 6 0 0 1-6-6z"/><path fill="#FAFAFA" d="M61.075 212.129h-1.55a2.37 2.37 0 0 0-.93-1.516 2.6 2.6 0 0 0-.791-.398 3.1 3.1 0 0 0-.92-.134q-.88 0-1.576.442-.69.443-1.093 1.298-.398.855-.398 2.088 0 1.243.398 2.098.402.855 1.098 1.293t1.566.437q.483 0 .915-.129.438-.134.79-.393a2.378 2.378 0 0 0 .94-1.496l1.551.005q-.124.75-.482 1.382a3.8 3.8 0 0 1-.91 1.084 4.1 4.1 0 0 1-1.263.701 4.7 4.7 0 0 1-1.55.248q-1.323 0-2.357-.626-1.035-.632-1.63-1.805-.593-1.173-.593-2.799 0-1.63.597-2.799.597-1.173 1.63-1.8 1.035-.631 2.352-.631.81 0 1.512.234.706.228 1.267.676.562.442.93 1.084.368.636.497 1.456m1.72 6.871v-7.636h1.436v1.213h.08a1.85 1.85 0 0 1 .735-.97 2.1 2.1 0 0 1 1.203-.358 7 7 0 0 1 .632.035v1.422a3 3 0 0 0-.318-.055 3 3 0 0 0-.458-.035q-.526 0-.94.224a1.66 1.66 0 0 0-.884 1.497V219zm8.39.154q-1.128 0-1.944-.482a3.28 3.28 0 0 1-1.253-1.367q-.437-.885-.437-2.073 0-1.174.437-2.069a3.4 3.4 0 0 1 1.233-1.397q.795-.502 1.86-.502.645 0 1.252.214a3 3 0 0 1 1.09.671q.48.458.76 1.188.278.727.278 1.765v.527h-6.07v-1.113h4.614q0-.587-.239-1.039a1.8 1.8 0 0 0-.671-.721 1.87 1.87 0 0 0-1.004-.264q-.627 0-1.094.308a2.1 2.1 0 0 0-.716.796 2.3 2.3 0 0 0-.249 1.059v.87q0 .765.269 1.302.273.537.76.821.488.278 1.139.278.422 0 .77-.119.349-.125.602-.368.254-.243.388-.602l1.407.254a2.55 2.55 0 0 1-.607 1.089 2.95 2.95 0 0 1-1.089.721q-.651.253-1.486.253m7.148.015q-.726 0-1.313-.268a2.2 2.2 0 0 1-.93-.791q-.337-.517-.337-1.268 0-.646.248-1.064.25-.417.671-.661.423-.243.945-.368a9 9 0 0 1 1.064-.189l1.114-.129q.428-.054.621-.174.194-.119.194-.388v-.034q0-.652-.368-1.01-.363-.358-1.084-.358-.75 0-1.183.333-.427.329-.592.731l-1.397-.318q.249-.696.726-1.124a2.94 2.94 0 0 1 1.109-.626 4.3 4.3 0 0 1 1.317-.199q.457 0 .97.11.516.103.964.387.453.283.741.811.288.522.288 1.357V219H80.65v-1.044h-.06q-.144.288-.433.567-.288.278-.74.462-.453.184-1.084.184m.323-1.193q.616 0 1.054-.244a1.7 1.7 0 0 0 .671-.636q.234-.398.234-.85v-.985q-.08.08-.308.15-.225.065-.512.114-.29.045-.562.084l-.458.06a3.7 3.7 0 0 0-.79.184 1.35 1.35 0 0 0-.567.373q-.21.239-.209.636 0 .552.408.835.407.279 1.04.279m8.99-6.612v1.193h-4.171v-1.193zm-3.053-1.83h1.487v7.224q0 .432.13.651a.67.67 0 0 0 .332.293q.21.075.453.075a1.7 1.7 0 0 0 .313-.025q.135-.024.209-.04l.268 1.228a2.927 2.927 0 0 1-.965.159 2.6 2.6 0 0 1-1.093-.208 1.9 1.9 0 0 1-.82-.677q-.314-.456-.314-1.148zm7.906 9.62q-1.128 0-1.943-.482a3.28 3.28 0 0 1-1.253-1.367q-.438-.885-.438-2.073 0-1.174.438-2.069a3.4 3.4 0 0 1 1.233-1.397q.795-.502 1.86-.502.645 0 1.252.214a3 3 0 0 1 1.089.671q.482.458.76 1.188.279.727.279 1.765v.527h-6.07v-1.113h4.613q0-.587-.239-1.039a1.8 1.8 0 0 0-.67-.721 1.87 1.87 0 0 0-1.005-.264q-.626 0-1.094.308a2.1 2.1 0 0 0-.716.796 2.3 2.3 0 0 0-.248 1.059v.87q0 .765.268 1.302.274.537.76.821.488.278 1.14.278.422 0 .77-.119.348-.125.602-.368.253-.243.387-.602l1.407.254a2.55 2.55 0 0 1-.606 1.089 2.95 2.95 0 0 1-1.089.721q-.651.253-1.487.253m10.118-4.688V219h-1.487v-7.636h1.427v1.243h.094a2.2 2.2 0 0 1 .826-.975q.566-.368 1.427-.368.78 0 1.367.328a2.2 2.2 0 0 1 .91.965q.323.64.323 1.586V219h-1.487v-4.678q0-.83-.432-1.298-.433-.472-1.189-.472a1.85 1.85 0 0 0-.919.224 1.6 1.6 0 0 0-.632.656q-.228.428-.228 1.034m10.172 4.688q-1.13 0-1.944-.482a3.27 3.27 0 0 1-1.253-1.367q-.438-.885-.438-2.073 0-1.174.438-2.069a3.4 3.4 0 0 1 1.233-1.397q.795-.502 1.859-.502.647 0 1.253.214t1.089.671q.482.458.76 1.188.279.727.279 1.765v.527h-6.071v-1.113h4.614q0-.587-.239-1.039a1.8 1.8 0 0 0-.671-.721 1.87 1.87 0 0 0-1.004-.264q-.627 0-1.094.308a2.1 2.1 0 0 0-.716.796 2.3 2.3 0 0 0-.248 1.059v.87q0 .765.268 1.302.274.537.761.821a2.26 2.26 0 0 0 1.138.278q.423 0 .771-.119.348-.125.602-.368t.387-.602l1.407.254a2.55 2.55 0 0 1-.606 1.089 2.95 2.95 0 0 1-1.089.721q-.651.253-1.486.253m6.567-.154-2.247-7.636h1.536l1.497 5.608h.074l1.502-5.608h1.536l1.491 5.583h.075l1.486-5.583h1.537L125.6 219h-1.516l-1.551-5.513h-.114L120.867 219z"/></g><g filter="url(#c)"><path fill="#fff" d="M156.5 202a6 6 0 0 1 6-6h96a6 6 0 0 1 6 6v24a6 6 0 0 1-6 6h-96a6 6 0 0 1-6-6z"/><path stroke="#E4E4E7" d="M162.5 196.5h96a5.5 5.5 0 0 1 5.5 5.5v24a5.5 5.5 0 0 1-5.5 5.5h-96a5.5 5.5 0 0 1-5.5-5.5v-24a5.5 5.5 0 0 1 5.5-5.5Z"/><path fill="#18181B" d="M173.619 219v-10.182h1.536v8.86h4.613V219zm11.074.154q-1.13 0-1.944-.482a3.3 3.3 0 0 1-1.253-1.367q-.437-.885-.437-2.073 0-1.174.437-2.069a3.4 3.4 0 0 1 1.233-1.397q.795-.502 1.859-.502.647 0 1.253.214a3 3 0 0 1 1.089.671q.483.458.761 1.188.278.727.278 1.765v.527h-6.07v-1.113h4.613q0-.587-.238-1.039a1.8 1.8 0 0 0-.671-.721 1.87 1.87 0 0 0-1.005-.264q-.626 0-1.093.308a2.07 2.07 0 0 0-.716.796 2.3 2.3 0 0 0-.249 1.059v.87q0 .765.269 1.302.273.537.76.821.488.278 1.139.278.422 0 .77-.119.348-.125.602-.368a1.6 1.6 0 0 0 .388-.602l1.407.254a2.55 2.55 0 0 1-.607 1.089 2.95 2.95 0 0 1-1.089.721q-.65.253-1.486.253m7.148.015a3.1 3.1 0 0 1-1.313-.268 2.2 2.2 0 0 1-.929-.791q-.339-.517-.339-1.268 0-.646.249-1.064.249-.417.671-.661a3.5 3.5 0 0 1 .945-.368 9 9 0 0 1 1.064-.189l1.113-.129q.428-.054.622-.174.194-.119.194-.388v-.034q0-.652-.368-1.01-.363-.358-1.084-.358-.75 0-1.183.333-.427.329-.592.731l-1.397-.318q.249-.696.726-1.124a2.9 2.9 0 0 1 1.109-.626 4.3 4.3 0 0 1 1.317-.199q.457 0 .97.11.516.103.964.387.453.283.741.811.288.522.288 1.357V219h-1.452v-1.044h-.059a2.1 2.1 0 0 1-.433.567 2.3 2.3 0 0 1-.74.462q-.453.184-1.084.184m.323-1.193q.616 0 1.054-.244.443-.243.671-.636a1.65 1.65 0 0 0 .234-.85v-.985q-.08.08-.309.15a5 5 0 0 1-.512.114q-.288.045-.561.084l-.458.06a3.7 3.7 0 0 0-.79.184q-.354.129-.567.373-.209.239-.209.636 0 .552.408.835.408.279 1.039.279m5.425 1.024v-7.636h1.437v1.213h.079q.21-.616.736-.97a2.1 2.1 0 0 1 1.203-.358 7 7 0 0 1 .632.035v1.422a3 3 0 0 0-.318-.055 3 3 0 0 0-.458-.035 1.94 1.94 0 0 0-.939.224 1.66 1.66 0 0 0-.885 1.497V219zm6.86-4.534V219h-1.487v-7.636h1.427v1.243h.094a2.2 2.2 0 0 1 .826-.975q.566-.368 1.427-.368.78 0 1.367.328a2.2 2.2 0 0 1 .91.965q.323.64.323 1.586V219h-1.487v-4.678q0-.83-.432-1.298-.434-.472-1.188-.472-.518 0-.92.224a1.6 1.6 0 0 0-.632.656q-.228.428-.228 1.034M215.034 219v-7.636h1.427v1.243h.095q.238-.632.78-.985.543-.358 1.298-.358.765 0 1.283.358.522.358.77.985h.08q.273-.612.87-.975.596-.368 1.422-.368 1.038 0 1.695.651.661.652.661 1.964V219h-1.486v-4.982q0-.775-.423-1.123a1.54 1.54 0 0 0-1.009-.348q-.726 0-1.129.447-.402.443-.402 1.139V219h-1.482v-5.076q0-.621-.388-.999-.387-.378-1.009-.378a1.44 1.44 0 0 0-.781.224 1.64 1.64 0 0 0-.571.611 1.87 1.87 0 0 0-.214.91V219zm15.59.154q-1.074 0-1.874-.492a3.3 3.3 0 0 1-1.243-1.377q-.443-.885-.443-2.068 0-1.189.443-2.079a3.3 3.3 0 0 1 1.243-1.382q.8-.492 1.874-.492t1.874.492q.8.493 1.243 1.382.443.89.443 2.079 0 1.183-.443 2.068a3.3 3.3 0 0 1-1.243 1.377q-.8.492-1.874.492m.005-1.248q.696 0 1.153-.368.458-.367.677-.979a3.9 3.9 0 0 0 .223-1.347q0-.732-.223-1.343a2.2 2.2 0 0 0-.677-.989q-.457-.373-1.153-.373-.7 0-1.163.373a2.2 2.2 0 0 0-.681.989 4 4 0 0 0-.219 1.343q0 .735.219 1.347.224.612.681.979.462.369 1.163.368m5.214 1.094v-7.636h1.437v1.213h.079q.21-.616.736-.97a2.1 2.1 0 0 1 1.203-.358 7 7 0 0 1 .632.035v1.422a3 3 0 0 0-.318-.055 3 3 0 0 0-.458-.035q-.526 0-.94.224a1.67 1.67 0 0 0-.884 1.497V219zm8.391.154q-1.129 0-1.944-.482a3.3 3.3 0 0 1-1.253-1.367q-.438-.885-.437-2.073 0-1.174.437-2.069a3.4 3.4 0 0 1 1.233-1.397q.795-.502 1.859-.502.647 0 1.253.214a3 3 0 0 1 1.089.671q.482.458.761 1.188.278.727.278 1.765v.527h-6.07v-1.113h4.613q0-.587-.238-1.039a1.8 1.8 0 0 0-.671-.721 1.87 1.87 0 0 0-1.005-.264q-.626 0-1.093.308a2.07 2.07 0 0 0-.716.796 2.3 2.3 0 0 0-.249 1.059v.87q0 .765.269 1.302.273.537.76.821.488.278 1.139.278.422 0 .77-.119.348-.125.602-.368a1.6 1.6 0 0 0 .388-.602l1.407.254a2.55 2.55 0 0 1-.607 1.089 2.95 2.95 0 0 1-1.089.721q-.65.253-1.486.253"/></g><defs><filter id="a" width="52" height="52" x="124" y="23" color-interpolation-filters="sRGB" filterUnits="userSpaceOnUse"><feFlood flood-opacity="0" result="BackgroundImageFix"/><feColorMatrix in="SourceAlpha" result="hardAlpha" values="0 0 0 0 0 0 0 0 0 0 0 0 0 0 0 0 0 0 127 0"/><feOffset dy="1"/><feGaussianBlur stdDeviation="1"/><feColorMatrix values="0 0 0 0 0 0 0 0 0 0 0 0 0 0 0 0 0 0 0.05 0"/><feBlend in2="BackgroundImageFix" result="effect1_dropShadow_15855_160448"/><feBlend in="SourceGraphic" in2="effect1_dropShadow_15855_160448" result="shape"/></filter><filter id="b" width="115" height="42" x="32.5" y="194" color-interpolation-filters="sRGB" filterUnits="userSpaceOnUse"><feFlood flood-opacity="0" result="BackgroundImageFix"/><feColorMatrix in="SourceAlpha" result="hardAlpha" values="0 0 0 0 0 0 0 0 0 0 0 0 0 0 0 0 0 0 127 0"/><feOffset dy="1"/><feGaussianBlur stdDeviation="1"/><feColorMatrix values="0 0 0 0 0 0 0 0 0 0 0 0 0 0 0 0 0 0 0.06 0"/><feBlend in2="BackgroundImageFix" result="effect1_dropShadow_15855_160448"/><feColorMatrix in="SourceAlpha" result="hardAlpha" values="0 0 0 0 0 0 0 0 0 0 0 0 0 0 0 0 0 0 127 0"/><feOffset dy="1"/><feGaussianBlur stdDeviation="1.5"/><feColorMatrix values="0 0 0 0 0 0 0 0 0 0 0 0 0 0 0 0 0 0 0.1 0"/><feBlend in2="effect1_dropShadow_15855_160448" result="effect2_dropShadow_15855_160448"/><feBlend in="SourceGraphic" in2="effect2_dropShadow_15855_160448" result="shape"/></filter><filter id="c" width="112" height="40" x="154.5" y="195" color-interpolation-filters="sRGB" filterUnits="userSpaceOnUse"><feFlood flood-opacity="0" result="BackgroundImageFix"/><feColorMatrix in="SourceAlpha" result="hardAlpha" values="0 0 0 0 0 0 0 0 0 0 0 0 0 0 0 0 0 0 127 0"/><feOffset dy="1"/><feGaussianBlur stdDeviation="1"/><feColorMatrix values="0 0 0 0 0 0 0 0 0 0 0 0 0 0 0 0 0 0 0.05 0"/><feBlend in2="BackgroundImageFix" result="effect1_dropShadow_15855_160448"/><feBlend in="SourceGraphic" in2="effect1_dropShadow_15855_160448" result="shape"/></filter></defs></svg>