<svg xmlns="http://www.w3.org/2000/svg" width="304" height="146" fill="none"><g filter="url(#a)"><path fill="#fff" d="M2 9a8 8 0 0 1 8-8h284a8 8 0 0 1 8 8v126a8 8 0 0 1-8 8H10a8 8 0 0 1-8-8z"/><path stroke="#E4E4E7" d="M10 1.5h284a7.5 7.5 0 0 1 7.5 7.5v126a7.5 7.5 0 0 1-7.5 7.5H10a7.5 7.5 0 0 1-7.5-7.5V9l.01-.386A7.5 7.5 0 0 1 10 1.5Z"/><path fill="#09090B" d="M20.642 31h-2.25l4.097-11.636h2.602L29.193 31h-2.25l-3.108-9.25h-.09zm.074-4.562h6.136v1.693h-6.136zm13.06 4.733q-1.307 0-2.244-.574a3.83 3.83 0 0 1-1.438-1.586q-.5-1.017-.5-2.34 0-1.331.512-2.347a3.8 3.8 0 0 1 1.443-1.591q.938-.574 2.216-.574 1.062 0 1.88.392.825.386 1.313 1.097.489.705.557 1.648h-1.966a1.88 1.88 0 0 0-.568-1.052q-.444-.426-1.188-.426-.63 0-1.108.341-.477.336-.744.966-.261.63-.261 1.511 0 .892.26 1.535.263.636.734.982.477.342 1.12.341.453 0 .812-.17.363-.176.608-.506.244-.33.335-.801h1.966a3.4 3.4 0 0 1-.546 1.642 3.23 3.23 0 0 1-1.284 1.114q-.812.398-1.909.398m9.386-8.898v1.59h-5.017v-1.59zm-3.779-2.091h2.057v8.193q0 .415.125.636.13.216.341.296.21.08.466.08.193 0 .352-.029.165-.029.25-.051l.347 1.608a5 5 0 0 1-.472.125q-.3.068-.738.08a3.35 3.35 0 0 1-1.392-.234 2.17 2.17 0 0 1-.983-.806q-.359-.546-.353-1.364zM44.482 31v-8.727h2.057V31zm1.034-9.966a1.2 1.2 0 0 1-.841-.324 1.04 1.04 0 0 1-.352-.79q0-.465.352-.79.352-.329.84-.329.495 0 .842.33.352.324.352.79 0 .46-.352.79a1.19 1.19 0 0 1-.841.323m10.533 1.239L52.941 31h-2.273l-3.108-8.727h2.194l2.005 6.483h.091l2.012-6.483zm4.59 8.898q-1.312 0-2.267-.546a3.7 3.7 0 0 1-1.46-1.557q-.511-1.012-.511-2.38 0-1.347.51-2.364a3.87 3.87 0 0 1 1.444-1.591q.926-.574 2.176-.574.807 0 1.523.262.721.255 1.273.795.556.54.875 1.375.318.83.318 1.977v.63h-7.153v-1.386h5.181a2.2 2.2 0 0 0-.255-1.05 1.86 1.86 0 0 0-.7-.734 1.97 1.97 0 0 0-1.033-.267q-.63 0-1.108.307-.478.3-.745.796a2.3 2.3 0 0 0-.267 1.073v1.21q0 .762.279 1.308.278.54.778.83.501.283 1.17.283.45 0 .813-.125.364-.13.63-.38.268-.25.404-.62l1.92.216q-.181.761-.692 1.33a3.4 3.4 0 0 1-1.296.875q-.79.306-1.807.306M69.52 31V19.364h7.569v1.767h-5.46v3.159h5.068v1.767h-5.068v3.176h5.505V31zm11.285-5.114V31h-2.057v-8.727h1.966v1.483h.103q.3-.733.96-1.165.664-.432 1.642-.432.903 0 1.574.387.676.385 1.045 1.119.375.732.37 1.778V31H84.35v-5.239q0-.875-.455-1.369-.45-.494-1.244-.494-.54 0-.96.238-.416.233-.654.677-.233.443-.233 1.073m11.157 5.285q-1.312 0-2.267-.546a3.7 3.7 0 0 1-1.46-1.557q-.512-1.012-.512-2.38 0-1.347.512-2.364a3.87 3.87 0 0 1 1.443-1.591q.926-.574 2.176-.574.807 0 1.523.262.72.255 1.273.795.555.54.875 1.375.318.83.318 1.977v.63h-7.154v-1.386h5.182a2.2 2.2 0 0 0-.255-1.05q-.25-.467-.7-.734a1.97 1.97 0 0 0-1.034-.267q-.63 0-1.107.307-.478.3-.745.796a2.3 2.3 0 0 0-.267 1.073v1.21q0 .762.279 1.308.278.54.778.83.5.283 1.17.283.45 0 .813-.125.364-.13.63-.38.268-.25.404-.62l1.92.216q-.18.761-.693 1.33a3.4 3.4 0 0 1-1.295.875q-.79.306-1.807.306m5.22-.171v-8.727h1.995v1.454h.091q.24-.755.818-1.165.585-.414 1.335-.414.171 0 .381.017.216.01.358.04v1.892a2 2 0 0 0-.415-.08 4 4 0 0 0-.539-.04q-.563 0-1.012.245-.443.238-.699.664t-.255.983V31zm9.381 3.455q-1.108 0-1.904-.302-.795-.296-1.278-.795a2.76 2.76 0 0 1-.671-1.108l1.853-.449q.124.256.363.506.239.255.642.42.41.17 1.029.17.874 0 1.449-.425.573-.42.573-1.387v-1.653h-.102q-.159.318-.466.653-.3.335-.801.563-.494.227-1.244.227a3.6 3.6 0 0 1-1.824-.472q-.813-.477-1.295-1.42-.478-.949-.478-2.375 0-1.437.478-2.426.482-.994 1.301-1.506a3.34 3.34 0 0 1 1.824-.517q.766 0 1.261.262.5.255.795.619.296.357.449.676h.114v-1.443h2.028v8.869q0 1.12-.534 1.852-.534.734-1.46 1.097t-2.102.364m.017-5.194q.653 0 1.113-.318t.699-.915.239-1.431q0-.824-.239-1.444-.233-.618-.693-.96-.454-.346-1.119-.346-.688 0-1.148.357-.46.36-.693.983a4 4 0 0 0-.233 1.41q0 .801.233 1.403.239.596.699.932.465.33 1.142.33m7.066 5.012q-.421 0-.779-.069a3 3 0 0 1-.562-.147l.477-1.602q.449.13.801.125a.98.98 0 0 0 .619-.222q.273-.21.461-.705l.176-.471-3.165-8.91h2.182l2.011 6.592h.091l2.017-6.591h2.188l-3.495 9.784a3.9 3.9 0 0 1-.647 1.187 2.64 2.64 0 0 1-.989.762q-.58.267-1.386.267"/><path fill="#71717A" d="M18.358 43.818h1.412l2.824 4.753h.12l2.823-4.753h1.412l-3.68 5.986V54h-1.232v-4.196zM30.407 54.16q-1.035 0-1.815-.492a3.34 3.34 0 0 1-1.213-1.377q-.432-.885-.433-2.068 0-1.194.433-2.084a3.34 3.34 0 0 1 1.213-1.382q.78-.492 1.815-.492 1.033 0 1.81.492.78.493 1.212 1.383.438.89.438 2.083 0 1.182-.438 2.068a3.3 3.3 0 0 1-1.213 1.377q-.775.492-1.81.492m0-1.054q.785 0 1.292-.403.507-.402.75-1.058.245-.657.245-1.422t-.244-1.427a2.4 2.4 0 0 0-.75-1.07q-.509-.406-1.293-.407-.786 0-1.293.408a2.4 2.4 0 0 0-.75 1.069q-.244.66-.244 1.427 0 .765.243 1.422.244.656.751 1.058.507.403 1.293.403m10.063-2.227v-4.514h1.174V54H40.47v-1.293h-.08a2.5 2.5 0 0 1-.834.99q-.567.402-1.432.402-.716 0-1.273-.313a2.2 2.2 0 0 1-.875-.954q-.318-.642-.318-1.616v-4.852h1.173v4.772q0 .835.467 1.333.472.497 1.204.497.437 0 .89-.224.457-.224.765-.686.313-.462.313-1.178m4.337-7.06v3.5h-1.094v-3.5zM46.897 54v-7.636h1.133v1.153h.08q.207-.566.755-.92a2.22 2.22 0 0 1 1.233-.353q.13 0 .323.005.195.006.293.015v1.193q-.06-.015-.273-.044a3 3 0 0 0-.443-.035q-.556 0-.994.233a1.76 1.76 0 0 0-.686.637 1.7 1.7 0 0 0-.249.92V54zm8.177.16q-1.103 0-1.904-.488a3.27 3.27 0 0 1-1.228-1.372q-.427-.885-.427-2.058 0-1.174.427-2.069.434-.9 1.203-1.402.775-.507 1.81-.507.596 0 1.178.2.582.198 1.06.645.477.442.76 1.174.283.73.283 1.8v.497H52.35v-1.015h4.693q0-.646-.258-1.153a1.95 1.95 0 0 0-.726-.8q-.468-.294-1.104-.294-.701 0-1.213.348a2.3 2.3 0 0 0-.78.895 2.6 2.6 0 0 0-.274 1.183v.676q0 .865.298 1.467.304.597.84.91.537.308 1.248.308.463 0 .836-.13.378-.133.65-.397.274-.268.423-.666l1.134.318q-.18.578-.602 1.014-.422.433-1.044.676-.621.24-1.397.24m9.044-.16V43.818h1.173v3.759h.1q.129-.2.357-.507.234-.315.667-.557.437-.249 1.183-.249.965 0 1.7.482.735.483 1.149 1.368.412.885.412 2.088 0 1.213-.412 2.103-.414.885-1.144 1.372-.73.482-1.685.482-.736 0-1.178-.243a2.2 2.2 0 0 1-.682-.562 8 8 0 0 1-.368-.527h-.139V54zm1.153-3.818q0 .864.254 1.526.254.656.74 1.03.487.367 1.194.367.736 0 1.228-.388.497-.392.745-1.054.255-.666.254-1.481 0-.806-.249-1.452a2.24 2.24 0 0 0-.74-1.029q-.493-.383-1.238-.383-.717 0-1.204.363-.487.359-.735 1.004-.249.642-.249 1.497m12.195.696v-4.514h1.174V54h-1.174v-1.293h-.08a2.5 2.5 0 0 1-.834.99q-.567.402-1.432.402-.716 0-1.273-.313a2.2 2.2 0 0 1-.875-.954q-.318-.642-.318-1.616v-4.852h1.173v4.772q0 .835.468 1.333.471.497 1.203.497.437 0 .89-.224.457-.224.765-.686.313-.462.313-1.178M80.79 54v-7.636h1.133v1.153h.08q.208-.566.755-.92a2.22 2.22 0 0 1 1.233-.353q.13 0 .324.005.194.006.293.015v1.193q-.06-.015-.273-.044a3 3 0 0 0-.443-.035q-.557 0-.994.233a1.76 1.76 0 0 0-.686.637 1.7 1.7 0 0 0-.249.92V54zm6.382-4.594V54h-1.173v-7.636h1.133v1.193h.1q.268-.582.815-.935.547-.358 1.412-.358.776 0 1.357.318.582.314.905.955.323.636.323 1.61V54H90.87v-4.773q0-.9-.468-1.402-.467-.507-1.282-.507-.563 0-1.004.244-.437.244-.692.71-.253.468-.253 1.134M94.187 54v-7.636h1.173V54zm.597-8.91a.83.83 0 0 1-.592-.233.75.75 0 0 1-.243-.562.75.75 0 0 1 .243-.561.83.83 0 0 1 .592-.234q.342 0 .586.234a.74.74 0 0 1 .249.561.74.74 0 0 1-.249.562.82.82 0 0 1-.586.234m3.899 4.316V54h-1.174v-7.636h1.134v1.193h.1q.267-.582.815-.935.546-.358 1.412-.358.775 0 1.357.318.582.314.905.955.323.636.323 1.61V54h-1.173v-4.773q0-.9-.468-1.402-.467-.507-1.282-.507-.562 0-1.005.244-.437.244-.69.71-.255.468-.254 1.134m10.098 7.617q-.85 0-1.461-.219a3.1 3.1 0 0 1-1.02-.567 3.1 3.1 0 0 1-.641-.745l.935-.657q.159.21.402.477.244.274.667.473.428.204 1.118.204.925 0 1.527-.448.601-.447.601-1.402v-1.55h-.099a7 7 0 0 1-.368.516 2.1 2.1 0 0 1-.676.542q-.437.234-1.184.234-.924 0-1.66-.438-.73-.437-1.159-1.273-.422-.835-.422-2.028 0-1.173.413-2.043.412-.875 1.148-1.353.736-.482 1.7-.482.746 0 1.184.249.442.243.676.557.238.307.368.507h.119v-1.213h1.133v7.855q0 .984-.447 1.6a2.55 2.55 0 0 1-1.193.91 4.5 4.5 0 0 1-1.661.294m-.04-4.196q.707 0 1.194-.323.486-.324.74-.93t.254-1.452q0-.825-.249-1.456a2.2 2.2 0 0 0-.735-.99q-.487-.358-1.204-.358-.746 0-1.242.378-.493.378-.741 1.014a3.9 3.9 0 0 0-.244 1.412q0 .796.249 1.407.253.607.746.955.497.343 1.232.343m11.674 1.352q-.726 0-1.318-.273a2.26 2.26 0 0 1-.939-.8q-.348-.527-.348-1.274 0-.656.258-1.063.26-.413.691-.647.433-.234.955-.348.526-.12 1.059-.189.696-.09 1.128-.134.438-.05.637-.164.204-.114.203-.398v-.04q0-.735-.402-1.143-.398-.408-1.208-.408-.84 0-1.318.368-.477.367-.671.786l-1.114-.398q.298-.696.796-1.084a3 3 0 0 1 1.094-.547 4.5 4.5 0 0 1 1.173-.159q.368 0 .845.09.482.084.93.353.452.269.75.81.299.542.299 1.452V54h-1.174v-1.034h-.059a2 2 0 0 1-.398.532q-.278.284-.741.482-.462.2-1.128.199m.179-1.054q.696 0 1.173-.273a1.86 1.86 0 0 0 .974-1.616v-1.074q-.074.09-.328.164a6 6 0 0 1-.576.124 27 27 0 0 1-1.124.15q-.458.06-.855.193a1.5 1.5 0 0 0-.636.393q-.239.258-.239.706 0 .612.452.925.457.308 1.159.308m6.636-3.719V54h-1.174v-7.636h1.134v1.193h.099q.269-.582.816-.935.546-.358 1.412-.358.775 0 1.357.318.582.314.905.955.323.636.323 1.61V54h-1.174v-4.773q0-.9-.467-1.402-.467-.507-1.283-.507-.561 0-1.004.244-.437.244-.691.71-.253.468-.253 1.134m13.2 4.773a3.1 3.1 0 0 1-1.317-.273 2.26 2.26 0 0 1-.94-.8q-.348-.527-.348-1.274 0-.656.259-1.063.259-.413.691-.647t.954-.348q.528-.12 1.059-.189.697-.09 1.129-.134.438-.05.636-.164.204-.114.204-.398v-.04q0-.735-.403-1.143-.397-.408-1.208-.408-.84 0-1.317.368-.477.367-.671.786l-1.114-.398q.299-.696.795-1.084.503-.393 1.094-.547.597-.159 1.174-.159.368 0 .845.09.482.084.929.353.453.269.751.81.298.542.298 1.452V54h-1.173v-1.034h-.06a2 2 0 0 1-.397.532q-.279.284-.741.482-.462.2-1.129.199m.179-1.054q.696 0 1.174-.273a1.87 1.87 0 0 0 .726-.706q.248-.433.248-.91v-1.074q-.075.09-.328.164a6 6 0 0 1-.577.124 26 26 0 0 1-1.123.15q-.458.06-.855.193a1.5 1.5 0 0 0-.637.393q-.238.258-.238.706 0 .612.452.925.458.308 1.158.308m11.434-6.761L149.219 54h-1.193l-2.824-7.636h1.273l2.108 6.085h.079l2.108-6.085zm4.477 7.795q-1.104 0-1.904-.487a3.26 3.26 0 0 1-1.228-1.372q-.428-.885-.428-2.058 0-1.174.428-2.069.432-.9 1.203-1.402.776-.507 1.809-.507.597 0 1.179.2.58.198 1.059.645.477.442.76 1.174.284.73.284 1.8v.497h-5.887v-1.015h4.693q0-.646-.258-1.153a1.95 1.95 0 0 0-.726-.8q-.467-.294-1.104-.294-.7 0-1.213.348a2.3 2.3 0 0 0-.78.895 2.6 2.6 0 0 0-.274 1.183v.676q0 .865.299 1.467.303.597.84.91.537.308 1.248.308.462 0 .835-.13.378-.133.651-.397.274-.268.423-.666l1.133.318q-.179.578-.601 1.014-.423.433-1.044.676-.622.24-1.397.24m4.946-.159v-7.636h1.134v1.153h.08q.209-.566.755-.92a2.23 2.23 0 0 1 1.233-.353q.13 0 .323.005.194.006.294.015v1.193a4 4 0 0 0-.274-.044 3 3 0 0 0-.442-.035q-.557 0-.995.233a1.77 1.77 0 0 0-.686.637 1.7 1.7 0 0 0-.248.92V54zm7.457.179q-.726 0-1.318-.273a2.26 2.26 0 0 1-.94-.8q-.348-.527-.348-1.274 0-.656.259-1.063.258-.413.691-.647t.955-.348q.527-.12 1.059-.189.696-.09 1.128-.134.438-.05.636-.164.204-.114.204-.398v-.04q0-.735-.402-1.143-.398-.408-1.209-.408-.84 0-1.317.368-.477.367-.671.786l-1.114-.398q.298-.696.796-1.084a3 3 0 0 1 1.093-.547q.597-.159 1.174-.159.368 0 .845.09.481.084.93.353.451.269.75.81.299.542.299 1.452V54h-1.174v-1.034h-.059a2 2 0 0 1-.398.532q-.279.284-.741.482-.462.2-1.128.199m.179-1.054q.696 0 1.173-.273a1.87 1.87 0 0 0 .726-.706q.248-.433.248-.91v-1.074q-.074.09-.328.164a6 6 0 0 1-.577.124 26 26 0 0 1-1.123.15q-.457.06-.855.193a1.5 1.5 0 0 0-.637.393q-.238.258-.238.706 0 .612.452.925.457.308 1.159.308m8.544 3.898q-.849 0-1.461-.219a3.1 3.1 0 0 1-1.019-.567 3.1 3.1 0 0 1-.642-.745l.935-.657q.159.21.403.477.243.274.666.473.428.204 1.118.204.926 0 1.527-.448.601-.447.601-1.402v-1.55h-.099q-.13.207-.368.516a2.1 2.1 0 0 1-.676.542q-.438.234-1.183.234-.925 0-1.661-.438-.73-.437-1.158-1.273-.423-.835-.423-2.028 0-1.173.413-2.043.413-.875 1.148-1.353.736-.482 1.701-.482.745 0 1.183.249.442.243.676.557.239.307.368.507h.119v-1.213h1.134v7.855q0 .984-.448 1.6a2.55 2.55 0 0 1-1.193.91 4.5 4.5 0 0 1-1.661.294m-.039-4.196q.705 0 1.193-.323.487-.324.741-.93.253-.606.253-1.452 0-.825-.248-1.456a2.2 2.2 0 0 0-.736-.99q-.488-.358-1.203-.358-.746 0-1.243.378-.492.378-.741 1.014a3.9 3.9 0 0 0-.244 1.412q0 .796.249 1.407.254.607.746.955.496.343 1.233.343m8.69 1.332q-1.104 0-1.904-.487a3.27 3.27 0 0 1-1.228-1.372q-.428-.885-.428-2.058 0-1.174.428-2.069.432-.9 1.203-1.402.775-.507 1.81-.507.596 0 1.178.2.582.198 1.059.645.477.442.761 1.174.283.73.283 1.8v.497h-5.886v-1.015h4.693q0-.646-.259-1.153a1.95 1.95 0 0 0-.726-.8q-.467-.294-1.103-.294-.702 0-1.213.348a2.3 2.3 0 0 0-.781.895 2.6 2.6 0 0 0-.273 1.183v.676q0 .865.298 1.467.303.597.84.91.537.308 1.248.308.462 0 .835-.13.378-.133.652-.397.273-.268.422-.666l1.134.318q-.18.578-.602 1.014-.423.433-1.044.676-.621.24-1.397.24m11.987 0q-1.035 0-1.815-.492a3.35 3.35 0 0 1-1.213-1.377q-.432-.885-.433-2.068 0-1.194.433-2.084a3.34 3.34 0 0 1 1.213-1.382q.78-.492 1.815-.492t1.809.492q.781.493 1.213 1.383.438.89.438 2.083 0 1.182-.438 2.068a3.3 3.3 0 0 1-1.213 1.377q-.775.492-1.809.492m0-1.054q.785 0 1.292-.403a2.4 2.4 0 0 0 .751-1.058q.243-.657.243-1.422t-.243-1.427a2.4 2.4 0 0 0-.751-1.07q-.507-.406-1.292-.407-.786 0-1.293.408a2.4 2.4 0 0 0-.751 1.069q-.243.66-.243 1.427 0 .765.243 1.422.244.656.751 1.058.507.403 1.293.403m8.651-6.741v.994h-4.116v-.994zM204.052 54v-8.69q0-.657.308-1.094t.801-.656a2.5 2.5 0 0 1 1.039-.22q.432 0 .706.07t.407.13l-.338 1.014a6 6 0 0 0-.248-.075 1.5 1.5 0 0 0-.408-.044q-.582 0-.84.293-.254.293-.254.86V54zm8.764 0 4.553-9.008v-.08h-5.25v-1.094h6.523v1.154L214.108 54zm10.724.14a3.5 3.5 0 0 1-1.576-.349 2.93 2.93 0 0 1-1.123-.954 2.6 2.6 0 0 1-.462-1.383h1.193q.07.691.626 1.144.562.447 1.342.447.627 0 1.114-.293.492-.293.771-.805a2.4 2.4 0 0 0 .283-1.169q0-.666-.293-1.188a2.15 2.15 0 0 0-.796-.83 2.25 2.25 0 0 0-1.158-.308 3.2 3.2 0 0 0-.96.144q-.492.144-.81.373l-1.153-.14.616-5.01h5.29v1.093h-4.256l-.358 3.003h.06q.314-.249.785-.413.472-.165.985-.164.934 0 1.665.447.736.444 1.154 1.214.422.77.422 1.76 0 .975-.437 1.74a3.2 3.2 0 0 1-1.193 1.203q-.761.437-1.731.437m5.098-2.228v-1.014l4.474-7.08h.736v1.571h-.497l-3.381 5.35v.08h6.026v1.093zM233.43 54V43.818h1.174V54zM22.176 74.16q-1.073 0-1.85-.508a3.3 3.3 0 0 1-1.192-1.397q-.418-.89-.418-2.033 0-1.163.427-2.054a3.4 3.4 0 0 1 1.204-1.397q.775-.507 1.81-.507.804 0 1.451.299.646.297 1.059.835.413.537.512 1.253h-1.173q-.135-.522-.597-.925-.457-.408-1.233-.408-.686 0-1.203.358-.512.354-.8 1-.284.641-.284 1.506 0 .885.279 1.541.284.656.795 1.02.518.362 1.213.362.458 0 .83-.159.374-.159.632-.457.258-.3.368-.716h1.173q-.099.675-.492 1.218a2.75 2.75 0 0 1-1.03.855q-.636.313-1.48.313m6.965.019q-.726 0-1.317-.273a2.26 2.26 0 0 1-.94-.8q-.348-.528-.348-1.274 0-.656.259-1.063.258-.413.69-.647.434-.234.955-.348.528-.12 1.06-.189.695-.09 1.128-.134.437-.05.636-.164.204-.114.204-.398v-.04q0-.735-.403-1.143-.398-.408-1.208-.408-.84 0-1.317.368t-.671.786l-1.114-.398q.299-.696.795-1.084a3 3 0 0 1 1.094-.547 4.5 4.5 0 0 1 1.174-.159q.367 0 .845.09.482.084.93.353.45.269.75.81.298.542.298 1.452V74h-1.173v-1.034h-.06q-.12.249-.397.532-.279.284-.741.482-.462.2-1.129.199m.18-1.054q.695 0 1.173-.273a1.86 1.86 0 0 0 .974-1.616v-1.074q-.076.09-.328.164a6 6 0 0 1-.577.124 26 26 0 0 1-1.123.15q-.457.06-.856.193a1.5 1.5 0 0 0-.636.393q-.239.258-.239.706 0 .612.453.925.457.308 1.158.308m6.635-9.307V74h-1.173V63.818zm5.251 10.341q-1.034 0-1.814-.492a3.34 3.34 0 0 1-1.213-1.377q-.433-.885-.433-2.068 0-1.194.433-2.084a3.34 3.34 0 0 1 1.213-1.382q.78-.492 1.814-.492t1.81.492q.78.494 1.213 1.382.438.89.438 2.084 0 1.183-.438 2.068a3.3 3.3 0 0 1-1.213 1.377q-.775.492-1.81.492m0-1.054q.786 0 1.293-.403.507-.402.75-1.058.244-.657.244-1.422t-.243-1.427a2.4 2.4 0 0 0-.751-1.07q-.507-.406-1.293-.407t-1.292.408a2.4 2.4 0 0 0-.75 1.069q-.245.66-.245 1.427 0 .765.244 1.422t.75 1.058q.509.403 1.293.403M46.46 74v-7.636h1.133v1.153h.08q.208-.567.755-.92a2.22 2.22 0 0 1 1.233-.353q.13 0 .324.005.194.006.293.015v1.193q-.06-.015-.274-.044a3 3 0 0 0-.442-.035q-.557 0-.994.234a1.76 1.76 0 0 0-.687.636 1.7 1.7 0 0 0-.248.92V74zm5.209 0v-7.636h1.173V74zm.596-8.91a.83.83 0 0 1-.591-.233.75.75 0 0 1-.244-.561.75.75 0 0 1 .244-.562.83.83 0 0 1 .591-.234q.343 0 .587.234a.74.74 0 0 1 .248.562.74.74 0 0 1-.248.561.82.82 0 0 1-.587.234m5.928 9.07q-1.103 0-1.904-.488A3.27 3.27 0 0 1 55.06 72.3q-.429-.885-.428-2.058 0-1.174.428-2.069.432-.9 1.203-1.402.775-.507 1.81-.507.596 0 1.178.2.58.198 1.059.645.477.443.76 1.174t.283 1.8v.496h-5.886v-1.014h4.693q0-.645-.258-1.153a1.95 1.95 0 0 0-.726-.8q-.468-.294-1.104-.294-.7 0-1.213.348a2.3 2.3 0 0 0-.78.895 2.6 2.6 0 0 0-.274 1.183v.677q0 .864.298 1.466.304.597.84.91.538.308 1.249.308.462 0 .835-.13.378-.133.651-.397.273-.268.423-.666l1.133.318q-.18.578-.601 1.014-.423.433-1.044.677-.622.237-1.397.238m10.355-6.086-1.054.298a2 2 0 0 0-.293-.512 1.4 1.4 0 0 0-.517-.418q-.328-.164-.84-.164-.702 0-1.169.324-.462.318-.462.81 0 .438.318.691.319.253.995.423l1.133.278q1.025.25 1.526.76.503.509.503 1.308 0 .657-.378 1.174-.373.516-1.044.815-.672.298-1.561.298-1.17 0-1.934-.507-.766-.507-.97-1.481l1.114-.279q.159.617.601.925.448.308 1.169.308.82 0 1.302-.348.487-.353.487-.845a.89.89 0 0 0-.278-.666q-.278-.275-.855-.408l-1.273-.298q-1.049-.25-1.54-.77-.488-.528-.488-1.318 0-.646.363-1.144a2.47 2.47 0 0 1 1-.78 3.5 3.5 0 0 1 1.44-.284q1.135 0 1.78.497.652.498.925 1.313m5.843 8.79v-10.5h1.134v1.213h.139q.13-.2.358-.507.234-.314.666-.557.438-.249 1.183-.249.965 0 1.7.482.736.483 1.15 1.368.412.885.412 2.088 0 1.213-.413 2.103-.413.885-1.143 1.372-.732.482-1.686.482-.735 0-1.178-.244a2.2 2.2 0 0 1-.681-.561 8 8 0 0 1-.368-.527h-.1v4.037zm1.154-6.682q0 .864.253 1.526.254.656.741 1.03.487.367 1.193.367.736 0 1.228-.388a2.37 2.37 0 0 0 .746-1.054q.254-.666.254-1.481 0-.806-.25-1.452a2.24 2.24 0 0 0-.74-1.029q-.492-.383-1.238-.383-.716 0-1.203.363-.487.358-.736 1.004-.249.642-.248 1.497m10.58 3.977q-1.105 0-1.905-.487a3.27 3.27 0 0 1-1.228-1.372q-.427-.885-.427-2.058 0-1.174.427-2.069.433-.9 1.203-1.402.775-.507 1.81-.507.597 0 1.178.2.581.198 1.06.645.475.443.76 1.174.283.73.283 1.8v.496H83.4v-1.014h4.693q0-.645-.258-1.153a1.95 1.95 0 0 0-.726-.8q-.468-.294-1.104-.294-.701 0-1.213.348a2.3 2.3 0 0 0-.78.895 2.6 2.6 0 0 0-.274 1.183v.677q0 .864.298 1.466.303.597.84.91.537.308 1.248.308.463 0 .835-.13.378-.133.652-.397.273-.268.422-.666l1.134.318q-.18.578-.602 1.014-.422.433-1.044.677-.621.237-1.397.238M91.07 74v-7.636h1.134v1.153h.079q.21-.567.756-.92a2.23 2.23 0 0 1 1.233-.353q.13 0 .323.005.194.006.293.015v1.193q-.06-.015-.273-.044a3 3 0 0 0-.443-.035q-.556 0-.994.234a1.76 1.76 0 0 0-.686.636 1.7 1.7 0 0 0-.249.92V74zm12.03.16q-.954 0-1.685-.483-.732-.487-1.144-1.372-.412-.891-.412-2.103 0-1.203.412-2.088.413-.885 1.149-1.368.735-.482 1.7-.482.746 0 1.178.249.438.243.666.557.234.307.363.507h.1v-3.759h1.173V74h-1.134v-1.173h-.139a8 8 0 0 1-.368.527 2.2 2.2 0 0 1-.681.561q-.443.244-1.178.244m.159-1.055q.706 0 1.193-.368.488-.372.741-1.029.254-.661.254-1.526 0-.856-.249-1.497-.249-.645-.736-1.004-.487-.363-1.203-.363-.745 0-1.243.383a2.3 2.3 0 0 0-.741 1.03 4.1 4.1 0 0 0-.243 1.45q0 .816.248 1.482.254.662.746 1.054.498.388 1.233.388m7.9 1.074q-.726 0-1.318-.273a2.26 2.26 0 0 1-.939-.8q-.348-.528-.348-1.274 0-.656.258-1.063.26-.413.691-.647.433-.234.955-.348.526-.12 1.059-.189.696-.09 1.128-.134.438-.05.637-.164.204-.114.204-.398v-.04q0-.735-.403-1.143-.398-.408-1.208-.408-.84 0-1.318.368-.477.368-.671.786l-1.113-.398q.298-.696.795-1.084a3 3 0 0 1 1.094-.547q.596-.159 1.173-.159.368 0 .845.09.483.084.93.353.453.269.751.81.298.542.298 1.452V74h-1.173v-1.034h-.06a2 2 0 0 1-.398.532q-.278.284-.741.482-.462.2-1.128.199m.179-1.054q.696 0 1.173-.273.483-.274.726-.706.249-.433.249-.91v-1.074q-.075.09-.329.164a6 6 0 0 1-.576.124 27 27 0 0 1-1.124.15q-.457.06-.855.193a1.5 1.5 0 0 0-.636.393q-.239.258-.239.706 0 .612.453.925.457.308 1.158.308m5.945 3.739a2.6 2.6 0 0 1-.532-.05 1.4 1.4 0 0 1-.323-.09l.298-1.034q.428.11.756.08a.9.9 0 0 0 .581-.293q.259-.26.473-.84l.218-.597-2.824-7.676h1.273l2.108 6.085h.08l2.108-6.085h1.272l-3.241 8.75q-.22.59-.542.979a2.04 2.04 0 0 1-.751.582q-.423.189-.954.189m7.414-2.785a.86.86 0 0 1-.632-.263.86.86 0 0 1-.263-.631q0-.368.263-.632a.86.86 0 0 1 .632-.263q.367 0 .631.263a.86.86 0 0 1 .263.632.84.84 0 0 1-.124.447.9.9 0 0 1-.323.328.85.85 0 0 1-.447.12M138.754 67a3.6 3.6 0 0 0-.433-.9 2.8 2.8 0 0 0-.631-.686 2.7 2.7 0 0 0-.825-.433q-.463-.149-1.015-.149a3 3 0 0 0-1.645.468q-.741.466-1.179 1.377-.437.909-.437 2.232t.442 2.232q.443.91 1.199 1.377.755.468 1.7.468.875 0 1.541-.373a2.64 2.64 0 0 0 1.044-1.064q.378-.69.378-1.626l.378.08h-3.063v-1.094h3.878v1.094q0 1.257-.537 2.187-.532.93-1.471 1.442-.935.507-2.148.507-1.353 0-2.377-.636-1.019-.637-1.59-1.81-.567-1.173-.567-2.784 0-1.208.323-2.172a4.8 4.8 0 0 1 .925-1.651 4 4 0 0 1 1.412-1.044 4.4 4.4 0 0 1 1.794-.363q.806 0 1.502.244a4.04 4.04 0 0 1 2.167 1.73q.369.606.507 1.347zm6.387 7.16q-1.034 0-1.815-.493a3.35 3.35 0 0 1-1.213-1.377q-.432-.885-.432-2.068 0-1.194.432-2.084a3.34 3.34 0 0 1 1.213-1.382q.781-.492 1.815-.492t1.81.492q.78.494 1.213 1.382.437.89.437 2.084 0 1.183-.437 2.068a3.3 3.3 0 0 1-1.213 1.377q-.776.492-1.81.492m0-1.055q.786 0 1.293-.403a2.37 2.37 0 0 0 .75-1.058q.244-.657.244-1.422t-.244-1.427a2.4 2.4 0 0 0-.75-1.07q-.507-.406-1.293-.407t-1.293.408a2.4 2.4 0 0 0-.75 1.069q-.244.66-.244 1.427 0 .765.244 1.422.243.656.75 1.058.507.403 1.293.403m8.353 1.054q-1.034 0-1.814-.492a3.34 3.34 0 0 1-1.213-1.377q-.433-.885-.433-2.068 0-1.194.433-2.084a3.33 3.33 0 0 1 1.213-1.382q.78-.492 1.814-.492t1.81.492q.781.494 1.213 1.382.438.89.438 2.084 0 1.183-.438 2.068a3.3 3.3 0 0 1-1.213 1.377q-.775.492-1.81.492m0-1.054q.786 0 1.293-.403a2.4 2.4 0 0 0 .751-1.058q.243-.657.243-1.422t-.243-1.427a2.4 2.4 0 0 0-.751-1.07q-.507-.406-1.293-.407t-1.292.408a2.4 2.4 0 0 0-.751 1.069q-.243.66-.243 1.427 0 .765.243 1.422.244.656.751 1.058.507.403 1.292.403m8.135 1.054q-.954 0-1.685-.482-.73-.487-1.144-1.372-.412-.891-.412-2.103 0-1.203.412-2.088.413-.885 1.149-1.368.735-.482 1.7-.482.746 0 1.178.249.438.243.667.557.233.307.363.507h.099v-3.759h1.173V74h-1.133v-1.173h-.139q-.13.209-.368.527a2.2 2.2 0 0 1-.681.561q-.442.244-1.179.244m.159-1.054q.707 0 1.194-.368.486-.372.74-1.029.254-.661.254-1.526 0-.856-.249-1.497-.248-.645-.736-1.004-.486-.363-1.203-.363-.745 0-1.243.383a2.3 2.3 0 0 0-.74 1.03q-.244.646-.244 1.45 0 .816.249 1.482.253.662.745 1.054.498.388 1.233.388m9.591-6.741h1.173v8.193q0 .705-.244 1.223a1.75 1.75 0 0 1-.726.8q-.482.284-1.218.284h-.238V75.77h.218q.537 0 .786-.318.249-.314.249-.895zm.576-1.273a.83.83 0 0 1-.591-.234.75.75 0 0 1-.244-.561q0-.33.244-.562a.83.83 0 0 1 .591-.234q.343 0 .587.234a.74.74 0 0 1 .248.562.74.74 0 0 1-.248.561.82.82 0 0 1-.587.234m5.848 9.068q-1.034 0-1.815-.492a3.35 3.35 0 0 1-1.213-1.377q-.432-.885-.432-2.068 0-1.194.432-2.084a3.34 3.34 0 0 1 1.213-1.382q.781-.492 1.815-.492t1.81.492q.78.494 1.213 1.382.437.89.437 2.084 0 1.183-.437 2.068a3.3 3.3 0 0 1-1.213 1.377q-.776.492-1.81.492m0-1.054q.786 0 1.293-.403a2.37 2.37 0 0 0 .75-1.058q.244-.657.244-1.422t-.244-1.427a2.4 2.4 0 0 0-.75-1.07q-.507-.406-1.293-.407t-1.293.408a2.4 2.4 0 0 0-.75 1.069q-.244.66-.244 1.427 0 .765.244 1.422.243.656.75 1.058.508.403 1.293.403m5.41.895V63.818h1.174v3.759h.099q.13-.2.358-.507.234-.314.666-.557.438-.249 1.184-.249.964 0 1.7.482.735.483 1.148 1.368t.413 2.088q0 1.213-.413 2.103-.413.885-1.143 1.372-.73.482-1.686.482-.735 0-1.178-.244a2.2 2.2 0 0 1-.681-.561 8 8 0 0 1-.368-.527h-.139V74zm1.154-3.818q0 .864.253 1.526.254.656.741 1.03.488.367 1.193.367.736 0 1.228-.388a2.37 2.37 0 0 0 .746-1.054q.254-.666.254-1.481 0-.806-.249-1.452a2.24 2.24 0 0 0-.741-1.029q-.492-.383-1.238-.383-.715 0-1.203.363-.487.358-.736 1.004-.248.642-.248 1.497m8.934-6.364-.1 7.318h-1.153l-.099-7.318zm-.676 10.261a.86.86 0 0 1-.632-.263.86.86 0 0 1-.263-.631q0-.368.263-.632a.86.86 0 0 1 .632-.263q.367 0 .631.263a.86.86 0 0 1 .264.632.84.84 0 0 1-.125.447.9.9 0 0 1-.323.328.85.85 0 0 1-.447.12"/><path fill="#09090B" d="M29.26 101.182V123h-4.612v-17.44h-.128l-4.997 3.132v-4.09l5.402-3.42zm8.99 18.835-.118 1.172q-.139 1.405-.532 2.802a30 30 0 0 1-.81 2.546q-.415 1.14-.671 1.79h-2.94q.16-.629.436-1.758.278-1.119.522-2.514.246-1.396.31-2.845l.052-1.193zM42.356 123v-3.324l7.767-7.191a29 29 0 0 0 1.662-1.726q.681-.767 1.033-1.502a3.7 3.7 0 0 0 .352-1.609q0-.958-.437-1.651a2.87 2.87 0 0 0-1.193-1.076q-.757-.383-1.716-.383-1.001 0-1.747.404-.745.405-1.15 1.162t-.405 1.8h-4.379q0-2.141.97-3.718t2.716-2.44q1.748-.862 4.027-.862 2.345 0 4.08.83 1.747.82 2.717 2.28t.97 3.345a6.4 6.4 0 0 1-.49 2.44q-.48 1.204-1.716 2.674-1.235 1.46-3.483 3.505l-3.186 3.122v.149h9.162V123zm26.866.298q-2.259 0-4.027-.831-1.758-.83-2.792-2.29-1.032-1.46-1.076-3.345h4.475q.075 1.267 1.065 2.056.99.788 2.355.788 1.086 0 1.917-.479a3.43 3.43 0 0 0 1.31-1.353q.48-.874.48-2.003 0-1.15-.49-2.024a3.46 3.46 0 0 0-1.332-1.364q-.852-.49-1.95-.501-.958 0-1.864.395-.895.393-1.395 1.076l-4.102-.735 1.034-11.506h13.338v3.771h-9.535l-.565 5.465h.128q.575-.809 1.737-1.342 1.16-.533 2.599-.533 1.971 0 3.516.927a6.7 6.7 0 0 1 2.44 2.546q.894 1.61.883 3.708.012 2.205-1.022 3.92-1.023 1.705-2.866 2.685-1.833.969-4.261.969m11.037-4.133v-3.633l9.108-14.35H92.5v5.028h-1.853l-5.743 9.088v.17h12.944v3.697zM90.73 123v-4.943l.085-1.609v-15.266h4.325V123z"/><path fill="#71717A" d="m106.168 119.216-.02-1.452h.238l3.341-3.4h1.452l-3.56 3.599h-.099zM105.074 122v-10.182h1.173V122zm4.852 0-2.983-3.778.835-.816 3.64 4.594zm5.551.159q-1.073 0-1.85-.507a3.3 3.3 0 0 1-1.193-1.397q-.417-.89-.417-2.033 0-1.163.427-2.054a3.4 3.4 0 0 1 1.203-1.397q.776-.507 1.81-.507.805 0 1.452.298.647.299 1.059.836t.512 1.253h-1.174q-.134-.523-.596-.925-.457-.408-1.233-.408-.686 0-1.203.358-.512.353-.801.999-.283.642-.283 1.507 0 .885.278 1.541.283.656.796 1.019.517.363 1.213.363.458 0 .83-.159.373-.159.632-.457.258-.299.367-.716h1.174q-.1.675-.492 1.218a2.75 2.75 0 0 1-1.03.855q-.636.313-1.481.313m6.965.02q-.726 0-1.317-.273a2.26 2.26 0 0 1-.94-.801q-.348-.526-.348-1.273 0-.656.259-1.064a1.8 1.8 0 0 1 .691-.646q.432-.234.954-.348.526-.118 1.059-.189.696-.089 1.129-.134.436-.05.636-.164.204-.114.204-.398v-.04q0-.735-.403-1.143-.398-.408-1.208-.408-.84 0-1.317.368-.478.368-.672.786l-1.113-.398q.299-.696.795-1.084.503-.393 1.094-.547a4.6 4.6 0 0 1 1.173-.159q.369 0 .845.09.483.084.93.353.453.269.751.81.298.542.298 1.452V122h-1.173v-1.034h-.06a2 2 0 0 1-.398.532q-.278.284-.74.482-.463.2-1.129.199m.179-1.054q.696 0 1.173-.273a1.86 1.86 0 0 0 .975-1.616v-1.074q-.075.09-.328.164a6 6 0 0 1-.577.124q-.323.05-.631.09-.304.035-.493.059-.458.06-.855.194a1.47 1.47 0 0 0-.636.393q-.239.258-.239.706 0 .612.453.925.458.308 1.158.308m6.636-9.307V122h-1.173v-10.182zm5.748-.477-3.281 12.19h-1.074l3.281-12.19zm4.275 10.818q-.956 0-1.686-.482-.73-.487-1.143-1.372-.413-.891-.413-2.103 0-1.203.413-2.088t1.148-1.368q.736-.482 1.701-.482.745 0 1.178.249.437.243.666.557.234.308.363.507h.099v-3.759h1.174V122h-1.134v-1.173h-.139a8 8 0 0 1-.368.527 2.2 2.2 0 0 1-.681.561q-.443.244-1.178.244m.159-1.054q.705 0 1.193-.368.488-.372.741-1.029.253-.661.253-1.526 0-.855-.248-1.497-.249-.646-.736-1.004-.488-.363-1.203-.363-.746 0-1.243.383a2.3 2.3 0 0 0-.741 1.029 4.1 4.1 0 0 0-.244 1.452q0 .815.249 1.481.254.661.746 1.054.496.388 1.233.388m7.9 1.074q-.726 0-1.318-.273a2.3 2.3 0 0 1-.94-.801q-.348-.526-.348-1.273 0-.656.259-1.064.258-.412.691-.646t.955-.348q.526-.118 1.059-.189.696-.089 1.128-.134.438-.05.636-.164.204-.114.204-.398v-.04q0-.735-.402-1.143-.398-.408-1.208-.408-.841 0-1.318.368t-.671.786l-1.114-.398q.298-.696.796-1.084a3 3 0 0 1 1.093-.547 4.6 4.6 0 0 1 1.174-.159q.368 0 .845.09.481.084.93.353.451.269.75.81.299.542.299 1.452V122h-1.174v-1.034h-.059q-.12.249-.398.532-.279.284-.741.482-.462.2-1.128.199m.179-1.054q.696 0 1.173-.273.481-.274.726-.706.248-.433.248-.91v-1.074q-.074.09-.328.164a6 6 0 0 1-.577.124 29 29 0 0 1-.631.09q-.303.035-.492.059-.458.06-.855.194a1.5 1.5 0 0 0-.637.393q-.238.258-.238.706 0 .612.452.925.457.308 1.159.308m5.944 3.739a2.6 2.6 0 0 1-.532-.05 1.4 1.4 0 0 1-.323-.09l.299-1.034q.427.11.755.08a.9.9 0 0 0 .582-.293q.259-.26.472-.841l.219-.596-2.824-7.676h1.273l2.108 6.085h.079l2.108-6.085h1.273l-3.241 8.75a3.3 3.3 0 0 1-.542.979 2.04 2.04 0 0 1-.751.582q-.423.189-.955.189"/><g clip-path="url(#b)" opacity=".2"><path fill="#2A9D90" d="M215 110h8v17h-8z"/></g><g clip-path="url(#c)" opacity=".2"><path fill="#2A9D90" d="M225 102h8v25h-8z"/></g><g clip-path="url(#d)" opacity=".2"><path fill="#2A9D90" d="M235 110h8v17h-8z"/></g><g clip-path="url(#e)" opacity=".2"><path fill="#2A9D90" d="M245 91h8v36h-8z"/></g><g clip-path="url(#f)" opacity=".2"><path fill="#2A9D90" d="M255 95h7v32h-7z"/></g><g clip-path="url(#g)"><path fill="#2A9D90" d="M274 111h8v16h-8z"/></g><g clip-path="url(#h)" opacity=".2"><path fill="#2A9D90" d="M264 105h8v22h-8z"/></g></g><defs><clipPath id="b"><rect width="8" height="17" x="215" y="110" fill="#fff" rx="2"/></clipPath><clipPath id="c"><rect width="8" height="25" x="225" y="102" fill="#fff" rx="2"/></clipPath><clipPath id="d"><rect width="8" height="17" x="235" y="110" fill="#fff" rx="2"/></clipPath><clipPath id="e"><rect width="8" height="36" x="245" y="91" fill="#fff" rx="2"/></clipPath><clipPath id="f"><rect width="7" height="32" x="255" y="95" fill="#fff" rx="2"/></clipPath><clipPath id="g"><rect width="8" height="16" x="274" y="111" fill="#fff" rx="2"/></clipPath><clipPath id="h"><rect width="8" height="22" x="264" y="105" fill="#fff" rx="2"/></clipPath><filter id="a" width="304" height="146" x="0" y="0" color-interpolation-filters="sRGB" filterUnits="userSpaceOnUse"><feFlood flood-opacity="0" result="BackgroundImageFix"/><feColorMatrix in="SourceAlpha" result="hardAlpha" values="0 0 0 0 0 0 0 0 0 0 0 0 0 0 0 0 0 0 127 0"/><feOffset dy="1"/><feGaussianBlur stdDeviation="1"/><feColorMatrix values="0 0 0 0 0 0 0 0 0 0 0 0 0 0 0 0 0 0 0.05 0"/><feBlend in2="BackgroundImageFix" result="effect1_dropShadow_15853_31080"/><feBlend in="SourceGraphic" in2="effect1_dropShadow_15853_31080" result="shape"/></filter></defs></svg>