<svg xmlns="http://www.w3.org/2000/svg" width="304" height="242" fill="none"><g filter="url(#a)"><g clip-path="url(#b)"><path fill="#fff" d="M2 9a8 8 0 0 1 8-8h284a8 8 0 0 1 8 8v222a8 8 0 0 1-8 8H10a8 8 0 0 1-8-8z"/><g clip-path="url(#c)"><path fill="#0866FF" d="M66 45c0-11.046-8.954-20-20-20s-20 8.954-20 20c0 9.38 6.457 17.25 15.169 19.411v-13.3h-4.125V45h4.125v-2.633c0-6.808 3.08-9.963 9.763-9.963 1.267 0 3.454.248 4.348.497v5.54c-.472-.05-1.292-.075-2.31-.075-3.28 0-4.547 1.243-4.547 4.473V45h6.533l-1.123 6.112h-5.41v13.741C58.326 63.658 66 55.226 66 45"/><path fill="#fff" d="M53.833 51.112 54.956 45h-6.533v-2.161c0-3.23 1.267-4.472 4.546-4.472 1.02 0 1.839.024 2.311.074v-5.54c-.894-.249-3.08-.497-4.348-.497-6.683 0-9.764 3.155-9.764 9.962V45h-4.124v6.112h4.124V64.41a20 20 0 0 0 7.255.442V51.113z"/></g><path stroke="#18181B" stroke-linecap="round" stroke-linejoin="round" stroke-width="1.33" d="M262 37h4m0 0v4m0-4-7.333 7.333m5.333-.666v4A1.33 1.33 0 0 1 262.667 49h-7.334A1.333 1.333 0 0 1 254 47.667v-7.334A1.33 1.33 0 0 1 255.333 39h4"/><path fill="#09090B" d="M27.148 99V87.364h7.454v1.767h-5.346v3.159h4.835v1.767h-4.835V99zm11.717.176a3.6 3.6 0 0 1-1.494-.295q-.66-.301-1.046-.887-.38-.584-.38-1.443 0-.739.272-1.222.273-.482.745-.772a3.8 3.8 0 0 1 1.062-.438 9 9 0 0 1 1.233-.221q.767-.08 1.244-.142.478-.069.694-.205.22-.142.221-.437v-.035q0-.641-.38-.994-.381-.352-1.097-.352-.756 0-1.199.33-.438.33-.59.778l-1.921-.273q.227-.795.75-1.33.522-.54 1.278-.806a4.9 4.9 0 0 1 1.67-.273q.632 0 1.256.148.626.147 1.142.489.517.335.83.914.318.58.318 1.45V99h-1.977v-1.199h-.068q-.188.364-.529.682a2.5 2.5 0 0 1-.846.506q-.506.187-1.188.187m.534-1.511q.62 0 1.074-.245.454-.25.699-.659.25-.408.25-.892v-1.028a1 1 0 0 1-.33.148 5 5 0 0 1-.511.119q-.285.051-.562.09l-.483.069q-.46.063-.824.205a1.37 1.37 0 0 0-.574.397q-.21.25-.21.648 0 .569.414.858.416.29 1.057.29m9.949 1.505q-1.307 0-2.244-.573a3.83 3.83 0 0 1-1.438-1.586q-.5-1.017-.5-2.34 0-1.331.512-2.347a3.8 3.8 0 0 1 1.443-1.591q.937-.574 2.216-.574 1.062 0 1.88.392.825.386 1.313 1.097.489.705.557 1.648H51.12a1.88 1.88 0 0 0-.568-1.052q-.444-.426-1.188-.426-.63 0-1.108.341-.477.335-.744.966-.261.63-.262 1.511 0 .892.262 1.535.26.636.733.982.477.341 1.12.341.453 0 .812-.17.363-.176.608-.506.243-.33.335-.801h1.966a3.4 3.4 0 0 1-.546 1.642 3.23 3.23 0 0 1-1.284 1.114q-.813.398-1.909.398m9.291 0q-1.312 0-2.267-.545a3.7 3.7 0 0 1-1.46-1.557q-.511-1.011-.511-2.38 0-1.347.51-2.364a3.87 3.87 0 0 1 1.444-1.591q.926-.574 2.176-.574.807 0 1.523.261.721.256 1.273.796.556.54.875 1.375.318.83.318 1.977v.63h-7.154v-1.385h5.182a2.2 2.2 0 0 0-.255-1.052 1.86 1.86 0 0 0-.7-.733 1.97 1.97 0 0 0-1.033-.267q-.63 0-1.108.307-.478.3-.745.796a2.3 2.3 0 0 0-.267 1.073v1.21q0 .762.279 1.307.278.54.778.83.501.284 1.17.284.45 0 .813-.125.364-.13.63-.38.268-.25.404-.62l1.92.216q-.181.761-.692 1.33a3.4 3.4 0 0 1-1.296.875q-.79.306-1.807.306m5.712-.17V87.364h2.057v4.352h.085q.16-.319.449-.676.29-.365.784-.62.495-.26 1.261-.26 1.012 0 1.824.516.818.512 1.295 1.517.484 1 .484 2.455 0 1.437-.472 2.443-.471 1.006-1.284 1.534a3.3 3.3 0 0 1-1.841.528q-.75 0-1.244-.25a2.5 2.5 0 0 1-.796-.602 4 4 0 0 1-.46-.676h-.12V99zm2.017-4.364q0 .848.239 1.483.243.637.698.995.46.352 1.114.352.682 0 1.142-.364.46-.369.693-1.005.24-.642.239-1.46 0-.813-.233-1.444-.233-.63-.693-.989-.46-.357-1.148-.357-.659 0-1.12.346-.46.347-.698.972-.234.624-.233 1.471m11.777 4.535q-1.278 0-2.216-.563a3.8 3.8 0 0 1-1.455-1.574q-.51-1.011-.51-2.364 0-1.351.51-2.369a3.8 3.8 0 0 1 1.455-1.58q.938-.561 2.216-.562 1.278 0 2.216.563a3.78 3.78 0 0 1 1.449 1.58q.516 1.016.517 2.368 0 1.353-.517 2.364a3.8 3.8 0 0 1-1.45 1.574q-.936.563-2.215.563m.011-1.648q.693 0 1.16-.381.465-.386.692-1.034.234-.648.234-1.443 0-.8-.234-1.45-.227-.652-.693-1.039t-1.159-.386q-.71 0-1.182.386-.465.386-.698 1.04a4.4 4.4 0 0 0-.228 1.449q0 .795.228 1.443.233.647.698 1.034.472.38 1.182.38m9.723 1.648q-1.278 0-2.216-.563a3.8 3.8 0 0 1-1.454-1.574q-.512-1.011-.512-2.364 0-1.351.512-2.369a3.8 3.8 0 0 1 1.454-1.58q.938-.561 2.216-.562 1.278 0 2.216.563a3.77 3.77 0 0 1 1.449 1.58q.517 1.016.517 2.368 0 1.353-.517 2.364a3.8 3.8 0 0 1-1.449 1.574q-.938.563-2.216.563m.012-1.648q.693 0 1.159-.381.465-.386.693-1.034.233-.648.233-1.443 0-.8-.233-1.45-.228-.652-.693-1.039t-1.16-.386q-.71 0-1.181.386-.466.386-.7 1.04a4.4 4.4 0 0 0-.226 1.449q0 .795.227 1.443.233.647.699 1.034.471.38 1.182.38m7.79-1.262-.005-2.483h.33l3.136-3.505h2.403l-3.858 4.295h-.426zM93.808 99V87.364h2.057V99zm5.477 0-2.84-3.972 1.385-1.449L101.745 99z"/><path fill="#71717A" d="M27.233 115.818h1.471l3.46 8.452h.12l3.46-8.452h1.472V126h-1.154v-7.736h-.099L32.781 126h-1.113l-3.182-7.736h-.1V126h-1.153zm14.543 10.361q-.726 0-1.317-.273a2.27 2.27 0 0 1-.94-.801q-.348-.526-.348-1.273 0-.656.258-1.064.259-.412.692-.646t.954-.348q.526-.118 1.06-.189.695-.089 1.128-.134.437-.05.636-.164.204-.114.204-.398v-.04q0-.735-.403-1.143-.398-.408-1.208-.408-.84 0-1.317.368-.478.368-.672.786l-1.113-.398q.298-.696.795-1.084.503-.393 1.094-.547a4.5 4.5 0 0 1 1.173-.159q.368 0 .845.09.483.084.93.353.453.269.75.81.3.542.3 1.452V126h-1.174v-1.034h-.06q-.12.249-.398.532t-.74.482q-.463.2-1.129.199m.18-1.054q.695 0 1.172-.273.483-.274.726-.706.249-.433.249-.91v-1.074q-.075.09-.328.164a6 6 0 0 1-.577.124q-.323.05-.631.09-.304.035-.493.059-.457.06-.855.194a1.5 1.5 0 0 0-.636.393q-.24.258-.239.706 0 .612.453.925.457.308 1.158.308m6.635-3.719V126h-1.173v-7.636h1.133v1.193h.1q.267-.582.815-.935.546-.358 1.412-.358.776 0 1.357.318.582.313.905.955.323.636.323 1.611V126H52.29v-4.773q0-.9-.468-1.402-.467-.507-1.282-.507-.562 0-1.005.244a1.74 1.74 0 0 0-.69.711q-.254.467-.254 1.133m9.263 4.773q-.726 0-1.317-.273a2.27 2.27 0 0 1-.94-.801q-.348-.526-.348-1.273 0-.656.259-1.064.258-.412.69-.646.433-.234.955-.348a12 12 0 0 1 1.06-.189q.695-.089 1.128-.134.436-.05.636-.164.204-.114.204-.398v-.04q0-.735-.403-1.143-.398-.408-1.208-.408-.84 0-1.317.368-.478.368-.672.786l-1.113-.398q.299-.696.795-1.084.503-.393 1.094-.547a4.5 4.5 0 0 1 1.173-.159q.368 0 .846.09.48.084.93.353t.75.81q.298.542.298 1.452V126h-1.173v-1.034h-.06q-.12.249-.398.532t-.74.482q-.463.2-1.129.199m.18-1.054q.695 0 1.172-.273a1.87 1.87 0 0 0 .726-.706q.249-.433.249-.91v-1.074q-.075.09-.328.164a6 6 0 0 1-.577.124q-.323.05-.631.09-.305.035-.492.059-.457.06-.856.194a1.5 1.5 0 0 0-.636.393q-.239.258-.239.706 0 .612.453.925.457.308 1.158.308m8.544 3.898q-.85 0-1.462-.219a3.1 3.1 0 0 1-1.019-.567 3.1 3.1 0 0 1-.641-.746l.935-.656q.159.21.402.477.245.274.666.473.428.204 1.12.204.924 0 1.525-.448.602-.447.602-1.402v-1.551h-.1a6 6 0 0 1-.367.517 2.1 2.1 0 0 1-.677.542q-.437.234-1.183.234-.924 0-1.66-.438-.731-.437-1.159-1.273-.422-.835-.422-2.028 0-1.173.412-2.043.413-.875 1.149-1.353.735-.482 1.7-.482.746 0 1.183.249.442.243.677.557.238.308.367.507h.12v-1.213h1.133v7.855q0 .984-.447 1.601a2.55 2.55 0 0 1-1.193.909 4.5 4.5 0 0 1-1.66.294m-.04-4.196q.707 0 1.194-.323.486-.324.74-.93.255-.606.254-1.452 0-.825-.249-1.457a2.2 2.2 0 0 0-.736-.989q-.486-.358-1.203-.358-.745 0-1.242.378-.493.378-.741 1.014a3.9 3.9 0 0 0-.244 1.412q0 .795.249 1.407.253.606.745.955.498.343 1.233.343m8.69 1.332q-1.103 0-1.903-.487a3.27 3.27 0 0 1-1.228-1.372q-.428-.885-.428-2.059 0-1.173.428-2.068.432-.9 1.203-1.402.775-.507 1.81-.507.596 0 1.178.199.58.2 1.059.646.477.442.76 1.174.284.73.284 1.799v.498h-5.887v-1.015h4.693a2.5 2.5 0 0 0-.258-1.153 1.94 1.94 0 0 0-.726-.8q-.467-.294-1.104-.294-.7 0-1.213.348a2.3 2.3 0 0 0-.78.895 2.6 2.6 0 0 0-.274 1.183v.676q0 .865.299 1.467.303.597.84.91.537.308 1.248.308.462 0 .835-.129a1.8 1.8 0 0 0 .651-.398q.273-.269.423-.666l1.133.318q-.179.578-.601 1.014-.423.433-1.044.676-.622.24-1.397.239m8.885 2.705v-10.5h1.133v1.213h.14q.129-.2.358-.507a2.1 2.1 0 0 1 .666-.557q.437-.249 1.183-.249.965 0 1.7.482.736.483 1.149 1.368.412.885.412 2.088 0 1.212-.412 2.103-.412.885-1.144 1.372-.73.482-1.685.482-.735 0-1.178-.244a2.2 2.2 0 0 1-.681-.561 8 8 0 0 1-.368-.527h-.1v4.037zm1.153-6.682q0 .865.254 1.526.254.657.74 1.029.488.368 1.194.368.736 0 1.228-.388.497-.393.746-1.054.253-.666.253-1.481a4 4 0 0 0-.248-1.452 2.25 2.25 0 0 0-.741-1.029q-.492-.383-1.238-.383-.716 0-1.203.363-.487.358-.736 1.004-.249.642-.249 1.497m10.48 3.977q-1.034 0-1.814-.492a3.34 3.34 0 0 1-1.213-1.377q-.433-.885-.433-2.068 0-1.193.433-2.084a3.34 3.34 0 0 1 1.213-1.382q.78-.492 1.814-.492t1.81.492q.78.493 1.213 1.382.438.89.438 2.084 0 1.182-.438 2.068a3.3 3.3 0 0 1-1.213 1.377q-.775.492-1.81.492m0-1.054q.786 0 1.293-.403a2.37 2.37 0 0 0 .75-1.059 4 4 0 0 0 .244-1.421q0-.766-.243-1.427a2.4 2.4 0 0 0-.75-1.069q-.508-.408-1.294-.408-.785 0-1.292.408a2.4 2.4 0 0 0-.75 1.069 4.1 4.1 0 0 0-.244 1.427q0 .765.243 1.421.244.657.75 1.059.508.403 1.293.403m10.661-5.031-1.054.298a2 2 0 0 0-.294-.512 1.4 1.4 0 0 0-.517-.418q-.327-.164-.84-.164-.701 0-1.168.324-.462.318-.462.81 0 .438.318.691t.994.423l1.134.278q1.023.248 1.526.761.502.507.502 1.307 0 .657-.378 1.173-.372.517-1.044.816-.671.298-1.561.298-1.168 0-1.934-.507-.765-.507-.969-1.482l1.113-.278q.16.616.602.925.448.308 1.168.308.82 0 1.303-.348.487-.353.487-.845a.9.9 0 0 0-.278-.666q-.279-.275-.856-.408l-1.272-.298q-1.05-.249-1.542-.771-.487-.527-.487-1.317 0-.646.363-1.144.368-.496.999-.78a3.5 3.5 0 0 1 1.442-.284q1.134 0 1.78.497.65.498.925 1.313m5.226-1.71v.994h-3.957v-.994zm-2.804-1.83h1.173v7.278q0 .498.145.746a.74.74 0 0 0 .378.328q.233.08.492.08.194 0 .318-.02l.199-.04.238 1.054q-.118.045-.333.09a2.5 2.5 0 0 1-.542.049q-.497 0-.974-.213a1.94 1.94 0 0 1-.786-.652q-.308-.437-.308-1.103zm9.841 3.54-1.054.298a2 2 0 0 0-.293-.512 1.4 1.4 0 0 0-.517-.418q-.328-.164-.84-.164-.701 0-1.168.324-.463.318-.463.81 0 .438.318.691.319.253.995.423l1.133.278q1.025.248 1.527.761.502.507.502 1.307 0 .657-.378 1.173-.373.517-1.044.816-.672.298-1.561.298-1.169 0-1.934-.507-.766-.507-.97-1.482l1.114-.278q.16.616.601.925.448.308 1.169.308.82 0 1.302-.348.488-.353.488-.845a.89.89 0 0 0-.279-.666q-.277-.275-.855-.408l-1.273-.298q-1.049-.249-1.541-.771-.487-.527-.487-1.317 0-.646.363-1.144a2.47 2.47 0 0 1 .999-.78 3.5 3.5 0 0 1 1.442-.284q1.134 0 1.78.497.651.498.924 1.313m3.656 4.534-.08.537q-.084.567-.258 1.213-.17.647-.353 1.218-.184.571-.304.91h-.894l.169-.84q.104-.522.208-1.169.11-.641.179-1.312l.06-.557zm9.313 1.551q-1.104 0-1.904-.487a3.27 3.27 0 0 1-1.228-1.372q-.428-.885-.428-2.059 0-1.173.428-2.068.432-.9 1.203-1.402.775-.507 1.81-.507.596 0 1.178.199.582.2 1.059.646.477.442.76 1.174.284.73.284 1.799v.498h-5.887v-1.015h4.694q0-.646-.259-1.153a1.94 1.94 0 0 0-.726-.8q-.467-.294-1.103-.294-.702 0-1.214.348a2.3 2.3 0 0 0-.78.895 2.6 2.6 0 0 0-.274 1.183v.676q0 .865.299 1.467.303.597.84.91.537.308 1.248.308.462 0 .835-.129.378-.135.651-.398.274-.269.423-.666l1.133.318a2.5 2.5 0 0 1-.601 1.014q-.423.433-1.044.676-.621.24-1.397.239m6.12-4.753V126h-1.173v-7.636h1.133v1.193h.1q.268-.582.815-.935.546-.358 1.412-.358.775 0 1.357.318.582.313.905.955.323.636.323 1.611V126h-1.173v-4.773q0-.9-.468-1.402-.467-.507-1.282-.507-.562 0-1.005.244a1.74 1.74 0 0 0-.691.711q-.253.467-.253 1.133m10.098 7.617q-.85 0-1.461-.219a3.1 3.1 0 0 1-1.661-1.313l.935-.656q.159.21.403.477.243.274.666.473.428.204 1.118.204.925 0 1.527-.448.601-.447.601-1.402v-1.551h-.099a6 6 0 0 1-.368.517 2.1 2.1 0 0 1-.676.542q-.438.234-1.183.234-.925 0-1.661-.438-.73-.437-1.158-1.273-.423-.835-.423-2.028 0-1.173.413-2.043.413-.875 1.148-1.353.736-.482 1.7-.482.746 0 1.184.249.442.243.676.557.239.308.368.507h.119v-1.213h1.134v7.855q0 .984-.448 1.601a2.55 2.55 0 0 1-1.193.909 4.5 4.5 0 0 1-1.661.294m-.039-4.196q.705 0 1.193-.323.487-.324.741-.93.253-.606.253-1.452 0-.825-.248-1.457a2.2 2.2 0 0 0-.736-.989q-.487-.358-1.203-.358-.747 0-1.243.378-.492.378-.741 1.014a3.9 3.9 0 0 0-.244 1.412q0 .795.249 1.407.254.606.746.955.496.343 1.233.343m7.735 1.352q-.725 0-1.317-.273a2.27 2.27 0 0 1-.94-.801q-.348-.526-.348-1.273 0-.656.259-1.064.258-.412.691-.646t.954-.348q.528-.118 1.059-.189.697-.089 1.129-.134.438-.05.636-.164.204-.114.204-.398v-.04q0-.735-.403-1.143-.397-.408-1.208-.408-.84 0-1.317.368t-.671.786l-1.114-.398q.298-.696.796-1.084a3 3 0 0 1 1.093-.547 4.6 4.6 0 0 1 1.174-.159q.368 0 .845.09.482.084.929.353.453.269.751.81.298.542.298 1.452V126h-1.173v-1.034h-.06a2 2 0 0 1-.397.532q-.279.284-.741.482-.462.2-1.129.199m.179-1.054q.696 0 1.174-.273.481-.274.726-.706.248-.433.248-.91v-1.074q-.075.09-.328.164a6 6 0 0 1-.577.124q-.323.05-.631.09-.303.035-.492.059-.458.06-.855.194a1.5 1.5 0 0 0-.637.393q-.238.258-.238.706 0 .612.452.925.458.308 1.158.308m8.545 3.898q-.85 0-1.461-.219a3.1 3.1 0 0 1-1.661-1.313l.935-.656q.159.21.403.477.243.274.666.473.428.204 1.118.204.925 0 1.527-.448.601-.447.601-1.402v-1.551h-.099a6 6 0 0 1-.368.517 2.1 2.1 0 0 1-.676.542q-.437.234-1.184.234-.924 0-1.66-.438-.73-.437-1.158-1.273-.423-.835-.423-2.028 0-1.173.413-2.043.413-.875 1.148-1.353.736-.482 1.7-.482.746 0 1.184.249.442.243.676.557.238.308.368.507h.119v-1.213h1.133v7.855q0 .984-.447 1.601a2.55 2.55 0 0 1-1.193.909 4.5 4.5 0 0 1-1.661.294m-.039-4.196q.705 0 1.193-.323.487-.324.741-.93.253-.606.253-1.452 0-.825-.249-1.457-.247-.63-.735-.989-.487-.358-1.203-.358-.747 0-1.243.378-.492.378-.741 1.014a3.9 3.9 0 0 0-.244 1.412q0 .795.249 1.407.253.606.746.955.496.343 1.233.343m8.69 1.332q-1.104 0-1.904-.487a3.27 3.27 0 0 1-1.228-1.372q-.428-.885-.428-2.059 0-1.173.428-2.068.432-.9 1.203-1.402.775-.507 1.81-.507.596 0 1.178.199.582.2 1.059.646.478.442.76 1.174.284.73.284 1.799v.498h-5.887v-1.015h4.694q0-.646-.259-1.153a1.94 1.94 0 0 0-.726-.8q-.467-.294-1.103-.294-.702 0-1.213.348a2.3 2.3 0 0 0-.781.895 2.6 2.6 0 0 0-.273 1.183v.676q0 .865.298 1.467.303.597.84.91.537.308 1.248.308.462 0 .835-.129.378-.135.651-.398.274-.269.423-.666l1.134.318a2.5 2.5 0 0 1-.602 1.014q-.423.433-1.044.676-.621.24-1.397.239m4.947-.159v-7.636h1.133v1.193h.1q.239-.611.77-.95.533-.343 1.278-.343.756 0 1.258.343.507.339.79.95h.08a2.2 2.2 0 0 1 .88-.94q.587-.353 1.407-.353 1.024 0 1.675.642.651.636.651 1.983V126h-1.173v-5.111q0-.845-.462-1.208a1.7 1.7 0 0 0-1.089-.363q-.805 0-1.248.487-.442.483-.442 1.223V126h-1.194v-5.23q0-.651-.422-1.049-.423-.403-1.089-.403-.458 0-.855.244a1.83 1.83 0 0 0-.636.676q-.24.428-.239.989V126zm15.369.159q-1.103 0-1.904-.487a3.3 3.3 0 0 1-1.228-1.372q-.427-.885-.427-2.059 0-1.173.427-2.068.434-.9 1.203-1.402.776-.507 1.81-.507.596 0 1.178.199.582.2 1.059.646.477.442.761 1.174.283.73.283 1.799v.498h-5.886v-1.015h4.693q0-.646-.258-1.153a1.94 1.94 0 0 0-.726-.8q-.468-.294-1.104-.294-.701 0-1.213.348a2.3 2.3 0 0 0-.781.895 2.6 2.6 0 0 0-.273 1.183v.676q0 .865.298 1.467.303.597.84.91.537.308 1.248.308.463 0 .836-.129.377-.135.651-.398.273-.269.422-.666l1.134.318q-.179.578-.602 1.014a2.9 2.9 0 0 1-1.044.676q-.621.24-1.397.239m6.12-4.753V126h-1.173v-7.636h1.134v1.193h.099q.269-.582.815-.935.548-.358 1.412-.358.776 0 1.358.318.581.313.904.955.324.636.324 1.611V126h-1.174v-4.773q0-.9-.467-1.402-.468-.507-1.283-.507-.561 0-1.004.244a1.74 1.74 0 0 0-.691.711q-.254.467-.254 1.133m10.338-3.042v.994h-3.958v-.994zm-2.804-1.83h1.173v7.278q0 .498.144.746a.74.74 0 0 0 .378.328q.234.08.492.08.194 0 .318-.02l.199-.04.239 1.054q-.12.045-.333.09a2.5 2.5 0 0 1-.542.049q-.498 0-.975-.213a1.94 1.94 0 0 1-.785-.652q-.309-.437-.308-1.103zm6.318 8.074-.079.537q-.085.567-.259 1.213-.168.647-.353 1.218-.183.571-.303.91h-.895l.169-.84q.105-.522.209-1.169.11-.641.179-1.312l.06-.557zm8.359 1.571q-.726 0-1.318-.273a2.27 2.27 0 0 1-.939-.801q-.348-.526-.348-1.273 0-.656.258-1.064.26-.412.691-.646.433-.234.955-.348.526-.118 1.059-.189.696-.089 1.128-.134.438-.05.637-.164.204-.114.204-.398v-.04q0-.735-.403-1.143-.398-.408-1.208-.408-.84 0-1.318.368-.477.368-.671.786l-1.113-.398q.298-.696.795-1.084a3 3 0 0 1 1.094-.547 4.5 4.5 0 0 1 1.173-.159q.368 0 .845.09.483.084.93.353.453.269.751.81.297.542.298 1.452V126h-1.173v-1.034h-.06q-.12.249-.398.532a2.3 2.3 0 0 1-.741.482q-.462.2-1.128.199m.179-1.054q.696 0 1.173-.273a1.86 1.86 0 0 0 .975-1.616v-1.074q-.075.09-.328.164a6 6 0 0 1-.577.124q-.323.05-.632.09-.303.035-.492.059-.458.06-.855.194a1.47 1.47 0 0 0-.636.393q-.239.258-.239.706 0 .612.453.925.457.308 1.158.308m6.636-3.719V126h-1.174v-7.636h1.134v1.193h.099q.269-.582.816-.935.546-.358 1.412-.358.775 0 1.357.318.582.313.905.955.323.636.323 1.611V126h-1.173v-4.773q0-.9-.468-1.402-.467-.507-1.282-.507-.562 0-1.005.244a1.74 1.74 0 0 0-.691.711q-.253.467-.253 1.133m9.899 4.753q-.954 0-1.685-.482-.73-.487-1.143-1.372-.413-.891-.413-2.103 0-1.203.413-2.088.412-.885 1.148-1.368.736-.482 1.7-.482.746 0 1.179.249.437.243.666.557.234.308.363.507h.099v-3.759h1.173V126h-1.133v-1.173h-.139a8 8 0 0 1-.368.527 2.2 2.2 0 0 1-.681.561q-.442.244-1.179.244m.16-1.054q.705 0 1.193-.368.487-.372.74-1.029.254-.661.254-1.526 0-.855-.249-1.497-.248-.646-.735-1.004-.487-.363-1.203-.363-.747 0-1.243.383-.493.378-.741 1.029a4.1 4.1 0 0 0-.244 1.452q0 .815.249 1.481.253.661.746 1.054.496.388 1.233.388M29.321 146.179q-.726 0-1.317-.273a2.27 2.27 0 0 1-.94-.801q-.348-.526-.348-1.273 0-.656.258-1.064.259-.412.692-.646t.954-.348a12 12 0 0 1 1.059-.189q.696-.089 1.129-.134.436-.05.636-.164.204-.114.204-.398v-.04q0-.735-.403-1.143-.398-.408-1.208-.408-.84 0-1.317.368-.478.368-.672.786l-1.113-.398q.299-.696.795-1.084.503-.393 1.094-.547a4.5 4.5 0 0 1 1.173-.159q.368 0 .845.09.483.084.93.353.453.269.75.81.3.541.299 1.452V146h-1.173v-1.034h-.06q-.12.249-.398.532t-.74.482-1.129.199m.179-1.054q.696 0 1.173-.273.483-.274.726-.706.249-.433.249-.91v-1.074q-.076.09-.328.164a6 6 0 0 1-.577.124q-.323.05-.631.09-.304.035-.493.059-.457.06-.855.194a1.5 1.5 0 0 0-.636.393q-.24.258-.239.706 0 .612.453.925.457.308 1.158.308m10.275-2.247v-4.514h1.173V146h-1.173v-1.293h-.08a2.5 2.5 0 0 1-.835.99q-.567.402-1.432.402-.715 0-1.272-.313a2.2 2.2 0 0 1-.875-.954q-.319-.642-.319-1.616v-4.852h1.174v4.772q0 .835.467 1.333.472.497 1.203.497a2 2 0 0 0 .89-.224 1.94 1.94 0 0 0 .766-.686q.313-.462.313-1.178m6.643-4.514v.994h-3.957v-.994zm-2.804-1.83h1.174v7.278q0 .498.144.746.15.244.378.328.233.08.492.08.194 0 .318-.02l.199-.04.238 1.054q-.119.045-.333.09a2.5 2.5 0 0 1-.541.049q-.498 0-.975-.213a1.94 1.94 0 0 1-.785-.652q-.309-.437-.309-1.103zm7.59 9.625q-1.035 0-1.815-.492a3.34 3.34 0 0 1-1.213-1.377q-.433-.886-.433-2.068 0-1.194.433-2.084a3.34 3.34 0 0 1 1.213-1.382q.78-.492 1.814-.492t1.81.492q.78.493 1.213 1.382.438.89.438 2.084 0 1.183-.438 2.068a3.3 3.3 0 0 1-1.213 1.377q-.775.492-1.81.492m0-1.054q.785 0 1.292-.403.507-.402.75-1.059a4 4 0 0 0 .244-1.421q0-.766-.243-1.427a2.4 2.4 0 0 0-.75-1.069q-.508-.408-1.294-.408-.785 0-1.292.408a2.4 2.4 0 0 0-.75 1.069 4.1 4.1 0 0 0-.245 1.427q0 .765.244 1.421.245.657.75 1.059.508.403 1.294.403m5.25.895v-7.636h1.134v1.193h.1a1.92 1.92 0 0 1 .77-.95q.532-.343 1.278-.343.756 0 1.258.343.507.339.79.95h.08q.293-.592.88-.94.586-.353 1.407-.353 1.024 0 1.675.642.651.636.652 1.983V146h-1.174v-5.111q0-.845-.462-1.208a1.7 1.7 0 0 0-1.089-.363q-.806 0-1.248.487-.442.483-.442 1.223V146h-1.194v-5.23q0-.651-.422-1.049-.423-.403-1.089-.403-.458 0-.855.244a1.84 1.84 0 0 0-.636.676q-.24.428-.239.989V146zm14.416.179q-.726 0-1.318-.273a2.27 2.27 0 0 1-.94-.801q-.347-.526-.347-1.273 0-.656.258-1.064.26-.412.691-.646.433-.234.955-.348.526-.118 1.059-.189.696-.089 1.128-.134.438-.05.637-.164.204-.114.204-.398v-.04q0-.735-.403-1.143-.398-.408-1.208-.408-.84 0-1.318.368-.477.368-.67.786l-1.114-.398q.298-.696.795-1.084.503-.393 1.094-.547a4.5 4.5 0 0 1 1.173-.159q.368 0 .845.09.482.084.93.353.453.269.75.81.3.541.299 1.452V146h-1.173v-1.034h-.06q-.12.249-.398.532t-.74.482-1.13.199m.179-1.054q.696 0 1.173-.273.483-.274.726-.706.249-.433.249-.91v-1.074q-.075.09-.329.164a6 6 0 0 1-.576.124q-.323.05-.632.09-.303.035-.492.059-.457.06-.855.194a1.5 1.5 0 0 0-.636.393q-.24.258-.239.706 0 .612.452.925.458.308 1.159.308m8.783-6.761v.994h-3.957v-.994zm-2.804-1.83h1.174v7.278q0 .498.144.746.15.244.378.328.233.08.492.08.194 0 .318-.02l.199-.04.239 1.054q-.12.045-.334.09a2.5 2.5 0 0 1-.541.049q-.498 0-.975-.213a1.94 1.94 0 0 1-.785-.652q-.309-.437-.309-1.103zm7.689 9.625q-1.103 0-1.904-.487a3.27 3.27 0 0 1-1.228-1.372q-.428-.885-.428-2.059 0-1.173.428-2.068.433-.9 1.203-1.402.775-.507 1.81-.507.596 0 1.178.199.581.2 1.059.646.478.442.76 1.174.284.73.284 1.799v.498h-5.886v-1.015h4.693a2.5 2.5 0 0 0-.259-1.153 1.94 1.94 0 0 0-.726-.8q-.468-.294-1.103-.294-.702 0-1.213.348a2.3 2.3 0 0 0-.781.895 2.6 2.6 0 0 0-.273 1.183v.676q0 .866.298 1.467.303.597.84.91.537.308 1.248.308.463 0 .835-.129a1.8 1.8 0 0 0 .651-.398q.274-.269.423-.666l1.134.318q-.18.577-.602 1.014-.423.433-1.044.676-.621.24-1.397.239m8.884-.159v-7.636h1.134v1.153h.08q.208-.566.755-.92a2.23 2.23 0 0 1 1.233-.353q.13 0 .323.005.194.006.293.015v1.193q-.06-.014-.273-.044a2.6 2.6 0 0 0-.442-.035q-.558 0-.995.234a1.76 1.76 0 0 0-.686.636 1.7 1.7 0 0 0-.248.92V146zm8.178.159q-1.103 0-1.904-.487a3.27 3.27 0 0 1-1.228-1.372q-.427-.885-.427-2.059 0-1.173.427-2.068.434-.9 1.203-1.402.777-.507 1.81-.507.597 0 1.178.199.582.2 1.059.646.478.442.761 1.174.283.73.283 1.799v.498h-5.886v-1.015h4.693q0-.646-.258-1.153a1.94 1.94 0 0 0-.726-.8q-.468-.294-1.104-.294-.701 0-1.213.348a2.3 2.3 0 0 0-.78.895 2.6 2.6 0 0 0-.274 1.183v.676q0 .866.298 1.467.304.597.841.91.537.308 1.247.308.463 0 .836-.129.378-.135.651-.398a1.8 1.8 0 0 0 .423-.666l1.133.318q-.179.577-.601 1.014-.423.433-1.045.676-.62.24-1.397.239m4.947 2.705v-10.5h1.134v1.213h.139q.129-.2.358-.507.234-.314.666-.557.438-.249 1.183-.249.965 0 1.701.482.735.483 1.148 1.368t.413 2.088q0 1.212-.413 2.103-.412.885-1.143 1.372-.731.482-1.686.482-.735 0-1.178-.244a2.2 2.2 0 0 1-.681-.561 8 8 0 0 1-.368-.527h-.099v4.037zm1.154-6.682q0 .865.253 1.526.253.657.741 1.029.487.368 1.193.368.736 0 1.228-.388a2.37 2.37 0 0 0 .746-1.054q.253-.666.253-1.481 0-.805-.248-1.452a2.25 2.25 0 0 0-.741-1.029q-.492-.383-1.238-.383-.715 0-1.203.363-.487.358-.736 1.004-.248.642-.248 1.497m8.551-6.364V146h-1.174v-10.182zM118.58 146v-7.636h1.173V146zm.596-8.909a.83.83 0 0 1-.591-.234.75.75 0 0 1-.244-.562q0-.328.244-.561a.83.83 0 0 1 .591-.234q.344 0 .587.234a.74.74 0 0 1 .249.561.74.74 0 0 1-.249.562.82.82 0 0 1-.587.234m5.928 9.068q-1.104 0-1.904-.487a3.27 3.27 0 0 1-1.228-1.372q-.428-.885-.428-2.059 0-1.173.428-2.068.432-.9 1.203-1.402.775-.507 1.809-.507.597 0 1.179.199.58.2 1.059.646.477.442.76 1.174.284.73.284 1.799v.498h-5.887v-1.015h4.693q0-.646-.258-1.153a1.94 1.94 0 0 0-.726-.8q-.466-.294-1.104-.294-.7 0-1.213.348a2.3 2.3 0 0 0-.78.895 2.6 2.6 0 0 0-.274 1.183v.676q0 .866.299 1.467.303.597.84.91.537.308 1.248.308.462 0 .835-.129.378-.135.651-.398a1.8 1.8 0 0 0 .423-.666l1.133.318q-.179.577-.601 1.014-.423.433-1.044.676-.622.24-1.397.239m10.356-6.085-1.054.298a2 2 0 0 0-.294-.512 1.4 1.4 0 0 0-.517-.418q-.328-.164-.84-.164-.701 0-1.168.324-.463.318-.463.81 0 .438.318.691.319.254.995.423l1.133.278q1.024.249 1.527.761.501.507.502 1.307 0 .657-.378 1.173-.374.518-1.044.816-.672.298-1.561.298-1.169 0-1.934-.507-.766-.507-.97-1.482l1.114-.278q.16.616.602.925.447.308 1.168.308.82 0 1.302-.348.488-.353.488-.845a.89.89 0 0 0-.279-.666q-.278-.274-.855-.408l-1.273-.298q-1.049-.249-1.541-.771-.487-.526-.487-1.317 0-.646.363-1.144a2.47 2.47 0 0 1 .999-.78 3.5 3.5 0 0 1 1.442-.284q1.134 0 1.78.497.65.498.925 1.313m2.76 6.006a.86.86 0 0 1-.631-.264.86.86 0 0 1-.264-.631q0-.368.264-.632a.86.86 0 0 1 .631-.263q.368 0 .631.263a.86.86 0 0 1 .264.632.85.85 0 0 1-.124.447.93.93 0 0 1-.324.328.85.85 0 0 1-.447.12"/><mask id="d" fill="#fff"><path d="M2 175h300v64H2z"/></mask><path fill="#E4E4E7" d="M2 175v1h300v-2H2z" mask="url(#d)"/><g filter="url(#e)"><path fill="#fff" d="M26 197a6 6 0 0 1 6-6h92a6 6 0 0 1 6 6v20a6 6 0 0 1-6 6H32a6 6 0 0 1-6-6z"/><path stroke="#E4E4E7" d="M32 191.5h92a5.5 5.5 0 0 1 5.5 5.5v20a5.5 5.5 0 0 1-5.5 5.5H32a5.5 5.5 0 0 1-5.5-5.5v-20a5.5 5.5 0 0 1 5.5-5.5Z"/><g clip-path="url(#f)"><path stroke="#18181B" stroke-linecap="round" stroke-linejoin="round" stroke-width="1.33" d="M46 212.333a5.334 5.334 0 0 0 0-10.666m0 10.666A5.334 5.334 0 0 1 40.667 207M46 212.333v1.334m0-12A5.334 5.334 0 0 0 40.667 207M46 201.667v-1.334M40.667 207h-1.334m8 0a1.333 1.333 0 1 1-2.665 0 1.333 1.333 0 0 1 2.665 0m0 0h5.334m-3.334 5.773-.666-1.153m-3.334-5.773-2.666-4.62m9.106 9.106-1.153-.666m-10.393-6 1.153.666m10.393-.666-1.153.666m-10.393 6 1.153-.666m7.953-8.44-.666 1.153m-3.334 5.773-2.666 4.62"/></g><path fill="#18181B" d="M68.672 204.493a1.45 1.45 0 0 0-.656-1.094q-.578-.393-1.452-.393-.627 0-1.084.199-.458.194-.71.537a1.27 1.27 0 0 0-.25.771q0 .363.17.626.174.263.452.443.283.174.607.293.323.114.621.189l.994.258q.487.12 1 .324.511.202.95.537.436.333.705.825.273.492.274 1.178 0 .865-.448 1.536-.442.672-1.287 1.059-.84.388-2.034.388-1.144 0-1.978-.363-.836-.363-1.308-1.029-.472-.671-.522-1.591h1.541q.046.552.358.92.318.362.81.542.498.174 1.09.174.65 0 1.158-.204.512-.209.805-.577.293-.372.293-.87 0-.452-.258-.741a1.9 1.9 0 0 0-.691-.477 7 7 0 0 0-.98-.333l-1.203-.328q-1.222-.333-1.939-.98-.71-.645-.71-1.71 0-.879.477-1.536.477-.656 1.292-1.019.816-.368 1.84-.368 1.034 0 1.824.363.795.363 1.253.999.457.631.477 1.452zm6.628 7.661q-1.128 0-1.944-.482a3.28 3.28 0 0 1-1.252-1.367q-.438-.885-.438-2.073 0-1.174.438-2.069a3.4 3.4 0 0 1 1.233-1.397q.795-.502 1.859-.502.645 0 1.253.214a3 3 0 0 1 1.088.671q.483.458.761 1.188.279.727.278 1.765v.527h-6.07v-1.113h4.614q0-.587-.239-1.039a1.8 1.8 0 0 0-.671-.721 1.87 1.87 0 0 0-1.004-.264q-.627 0-1.094.308a2.1 2.1 0 0 0-.716.796 2.3 2.3 0 0 0-.249 1.059v.87q0 .765.269 1.302.273.537.76.821.487.278 1.14.278.421 0 .77-.119.348-.125.601-.368.255-.243.388-.602l1.407.254a2.55 2.55 0 0 1-.606 1.089 2.95 2.95 0 0 1-1.09.721q-.65.253-1.486.253m8.49-7.79v1.193h-4.17v-1.193zm-3.052-1.83h1.486v7.224q0 .432.13.651.129.214.333.293.209.075.452.075a1.7 1.7 0 0 0 .313-.025q.135-.024.21-.04l.268 1.228a2.927 2.927 0 0 1-.965.159 2.6 2.6 0 0 1-1.094-.208 1.9 1.9 0 0 1-.82-.677q-.313-.456-.313-1.148zm8.261 1.83v1.193h-4.17v-1.193zm-3.052-1.83h1.486v7.224q0 .432.13.651.129.214.333.293.209.075.452.075a1.7 1.7 0 0 0 .313-.025q.135-.024.21-.04l.268 1.228a2.927 2.927 0 0 1-.965.159 2.6 2.6 0 0 1-1.094-.208 1.9 1.9 0 0 1-.82-.677q-.313-.456-.313-1.148zM90.644 212v-7.636h1.486V212zm.75-8.815a.95.95 0 0 1-.666-.258.84.84 0 0 1-.273-.627.83.83 0 0 1 .273-.626.93.93 0 0 1 .666-.263q.39 0 .662.263a.82.82 0 0 1 .278.626.84.84 0 0 1-.278.627.93.93 0 0 1-.662.258m4.223 4.281V212H94.13v-7.636h1.427v1.243h.094q.264-.607.826-.975.566-.368 1.427-.368.78 0 1.367.328a2.2 2.2 0 0 1 .91.965q.323.64.323 1.586V212h-1.487v-4.678q0-.83-.432-1.298-.434-.472-1.188-.472-.518 0-.92.224a1.6 1.6 0 0 0-.632.656q-.228.428-.228 1.034m10.082 7.557q-.91 0-1.566-.239-.651-.238-1.064-.631a2.65 2.65 0 0 1-.616-.86l1.277-.527q.135.218.358.462.229.249.617.423.393.174 1.009.174.845 0 1.397-.413.552-.408.552-1.303v-1.501h-.095a3.4 3.4 0 0 1-.387.542 2.1 2.1 0 0 1-.687.517q-.437.219-1.138.219a3.2 3.2 0 0 1-1.631-.423q-.72-.427-1.143-1.258-.418-.835-.418-2.053t.413-2.088q.417-.87 1.143-1.332a2.97 2.97 0 0 1 1.646-.468q.711 0 1.148.239.438.234.681.547.25.313.383.552h.11v-1.238h1.456v7.805q0 .984-.457 1.616a2.7 2.7 0 0 1-1.238.934q-.775.304-1.75.304m-.015-4.37q.642 0 1.084-.299.447-.303.676-.865.234-.566.234-1.357 0-.77-.229-1.357a2 2 0 0 0-.671-.915q-.443-.333-1.094-.333-.67 0-1.118.348-.448.343-.677.935a3.7 3.7 0 0 0-.223 1.322q0 .751.228 1.318.23.566.676.885.453.318 1.114.318m11.176-4.425-1.347.239a1.6 1.6 0 0 0-.269-.493 1.3 1.3 0 0 0-.487-.382q-.308-.15-.77-.15-.632 0-1.054.284-.423.278-.423.721 0 .382.284.616.282.234.914.383l1.213.278q1.055.244 1.571.751.517.507.517 1.318 0 .686-.397 1.223-.393.532-1.099.835-.7.303-1.626.303-1.283 0-2.093-.547-.81-.552-.994-1.566l1.437-.219q.133.562.552.851.417.283 1.088.283.731 0 1.169-.303.437-.309.437-.751a.78.78 0 0 0-.268-.602q-.264-.243-.811-.367l-1.292-.284q-1.07-.244-1.581-.775-.507-.532-.507-1.348 0-.675.377-1.183.378-.507 1.044-.79.667-.29 1.527-.289 1.238 0 1.949.537.711.532.939 1.427"/></g><path fill="#E4E4E7" d="M242 207c0-5.523 4.477-10 10-10h16c5.523 0 10 4.477 10 10s-4.477 10-10 10h-16c-5.523 0-10-4.477-10-10"/><g filter="url(#g)"><path fill="#fff" d="M244 207a8 8 0 1 1 16 0 8 8 0 0 1-16 0"/></g></g><path stroke="#E4E4E7" d="M10 1.5h284a7.5 7.5 0 0 1 7.5 7.5v222a7.5 7.5 0 0 1-7.5 7.5H10a7.5 7.5 0 0 1-7.5-7.5V9A7.5 7.5 0 0 1 10 1.5Z"/></g><defs><clipPath id="b"><path fill="#fff" d="M2 9a8 8 0 0 1 8-8h284a8 8 0 0 1 8 8v222a8 8 0 0 1-8 8H10a8 8 0 0 1-8-8z"/></clipPath><clipPath id="c"><path fill="#fff" d="M26 25h40v40H26z"/></clipPath><clipPath id="f"><path fill="#fff" d="M38 199h16v16H38z"/></clipPath><filter id="a" width="304" height="242" x="0" y="0" color-interpolation-filters="sRGB" filterUnits="userSpaceOnUse"><feFlood flood-opacity="0" result="BackgroundImageFix"/><feColorMatrix in="SourceAlpha" result="hardAlpha" values="0 0 0 0 0 0 0 0 0 0 0 0 0 0 0 0 0 0 127 0"/><feOffset dy="1"/><feGaussianBlur stdDeviation="1"/><feColorMatrix values="0 0 0 0 0 0 0 0 0 0 0 0 0 0 0 0 0 0 0.05 0"/><feBlend in2="BackgroundImageFix" result="effect1_dropShadow_15853_19780"/><feBlend in="SourceGraphic" in2="effect1_dropShadow_15853_19780" result="shape"/></filter><filter id="e" width="108" height="36" x="24" y="190" color-interpolation-filters="sRGB" filterUnits="userSpaceOnUse"><feFlood flood-opacity="0" result="BackgroundImageFix"/><feColorMatrix in="SourceAlpha" result="hardAlpha" values="0 0 0 0 0 0 0 0 0 0 0 0 0 0 0 0 0 0 127 0"/><feOffset dy="1"/><feGaussianBlur stdDeviation="1"/><feColorMatrix values="0 0 0 0 0 0 0 0 0 0 0 0 0 0 0 0 0 0 0.05 0"/><feBlend in2="BackgroundImageFix" result="effect1_dropShadow_15853_19780"/><feBlend in="SourceGraphic" in2="effect1_dropShadow_15853_19780" result="shape"/></filter><filter id="g" width="40" height="40" x="232" y="197" color-interpolation-filters="sRGB" filterUnits="userSpaceOnUse"><feFlood flood-opacity="0" result="BackgroundImageFix"/><feColorMatrix in="SourceAlpha" result="hardAlpha" values="0 0 0 0 0 0 0 0 0 0 0 0 0 0 0 0 0 0 127 0"/><feMorphology in="SourceAlpha" radius="2" result="effect1_dropShadow_15853_19780"/><feOffset dy="4"/><feGaussianBlur stdDeviation="3"/><feColorMatrix values="0 0 0 0 0 0 0 0 0 0 0 0 0 0 0 0 0 0 0.05 0"/><feBlend in2="BackgroundImageFix" result="effect1_dropShadow_15853_19780"/><feColorMatrix in="SourceAlpha" result="hardAlpha" values="0 0 0 0 0 0 0 0 0 0 0 0 0 0 0 0 0 0 127 0"/><feMorphology in="SourceAlpha" radius="3" result="effect2_dropShadow_15853_19780"/><feOffset dy="10"/><feGaussianBlur stdDeviation="7.5"/><feColorMatrix values="0 0 0 0 0 0 0 0 0 0 0 0 0 0 0 0 0 0 0.1 0"/><feBlend in2="effect1_dropShadow_15853_19780" result="effect2_dropShadow_15853_19780"/><feBlend in="SourceGraphic" in2="effect2_dropShadow_15853_19780" result="shape"/></filter></defs></svg>