<svg xmlns="http://www.w3.org/2000/svg" width="300" height="243" fill="none"><rect width="300" height="243" fill="#fff" rx="8"/><path fill="#020618" d="M89.87 27.06h6.65v1.582h-5.824l.994-1.022v4.564l-.994-.826h5.572v1.568h-5.572l.994-.826V37h-1.82zm11.531 10.108q-1.107 0-1.932-.476a3.4 3.4 0 0 1-1.288-1.372q-.462-.882-.462-2.058t.462-2.058a3.3 3.3 0 0 1 1.288-1.358q.825-.49 1.932-.49 1.092 0 1.918.49.84.476 1.288 1.358.462.882.462 2.058t-.462 2.058a3.27 3.27 0 0 1-1.288 1.372q-.826.476-1.918.476m0-1.456q.867 0 1.344-.644.476-.644.476-1.806 0-1.148-.476-1.792-.477-.658-1.344-.658-.869 0-1.344.644-.477.644-.477 1.806t.477 1.806q.475.645 1.344.644m5.118-6.188h1.68l.07 2.072-.154-.028q.168-1.064.63-1.554t1.288-.49h.686v1.54h-.7q-.588 0-.966.168a1.2 1.2 0 0 0-.56.532q-.182.364-.182.924V37h-1.792zm8.497 9.744q-.952 0-1.666-.266-.699-.266-1.134-.742a2.6 2.6 0 0 1-.602-1.12l1.848-.126q.14.462.49.672.365.224 1.064.224.855 0 1.288-.378.435-.378.434-1.148v-.952a1.95 1.95 0 0 1-.854.882q-.587.322-1.316.322a3.1 3.1 0 0 1-1.652-.448 3.17 3.17 0 0 1-1.12-1.274q-.405-.825-.406-1.904 0-1.065.406-1.89.406-.84 1.12-1.302a2.93 2.93 0 0 1 1.624-.462q.798 0 1.386.364.589.35.868.966v-1.162h1.75v6.818q0 1.414-.952 2.17-.951.756-2.576.756m-.028-4.032q.532 0 .924-.266.406-.28.616-.784.225-.504.224-1.19.015-.686-.21-1.19a1.65 1.65 0 0 0-.616-.77 1.57 1.57 0 0 0-.938-.28q-.812 0-1.274.602-.462.601-.462 1.638 0 1.021.462 1.638.477.602 1.274.602m8.629 1.932q-1.105 0-1.932-.476a3.4 3.4 0 0 1-1.288-1.372q-.462-.882-.462-2.058t.462-2.058a3.3 3.3 0 0 1 1.288-1.358q.826-.49 1.932-.49 1.092 0 1.918.49.84.476 1.288 1.358.462.882.462 2.058t-.462 2.058a3.26 3.26 0 0 1-1.288 1.372q-.826.476-1.918.476m0-1.456q.868 0 1.344-.644t.476-1.806q0-1.148-.476-1.792-.476-.658-1.344-.658-.867 0-1.344.644-.476.644-.476 1.806t.476 1.806q.477.645 1.344.644M131.458 37q-1.12 0-1.652-.518-.518-.518-.518-1.624v-7.084h1.792v6.916q0 .504.21.714.225.21.714.21h1.05V37zm-3.346-7.476h4.942v1.386h-4.942zm9.815-2.464h3.85q1.147 0 1.974.378.84.378 1.288 1.092.448.713.448 1.694 0 .994-.448 1.722-.448.714-1.288 1.092-.827.378-1.974.378h-2.03V37h-1.82zm3.766 4.774q.924 0 1.414-.406.504-.405.504-1.204 0-.77-.504-1.176-.49-.405-1.414-.406h-1.946v3.192zm7.342 5.334q-1.19 0-1.904-.532-.7-.546-.7-1.512 0-.952.588-1.498.603-.546 1.848-.798l2.478-.49q0-.798-.364-1.19-.363-.405-1.064-.406-.644 0-1.022.294t-.504.868l-1.834-.084q.21-1.19 1.078-1.82.882-.644 2.282-.644 1.583 0 2.394.798.826.798.826 2.31v2.716q0 .294.098.406.112.112.322.112h.238V37a1.5 1.5 0 0 1-.28.042q-.181.014-.364.014-.77 0-1.19-.378-.406-.378-.406-1.302l.154.112q-.168.742-.91 1.218-.727.462-1.764.462m.364-1.302q.603 0 1.036-.238a1.7 1.7 0 0 0 .672-.658q.238-.434.238-.994v-.42l-1.932.392q-.587.112-.854.364a.85.85 0 0 0-.266.644q0 .434.28.672.294.238.826.238m8.776 1.302q-1.077 0-1.848-.308-.756-.322-1.176-.896a2.6 2.6 0 0 1-.462-1.316l1.834-.084q.099.602.49.924.406.308 1.162.308.645 0 .994-.196.35-.21.35-.644a.68.68 0 0 0-.126-.42q-.125-.168-.476-.294a7 7 0 0 0-1.036-.252q-1.147-.196-1.806-.476-.643-.294-.924-.714-.28-.434-.28-1.092 0-1.065.812-1.708.827-.644 2.352-.644 1.457 0 2.268.7.826.686.994 1.82l-1.82.084q-.098-.588-.476-.91t-.98-.322q-.63 0-.966.252a.81.81 0 0 0-.322.672q0 .294.14.49.155.196.476.322.322.112.91.21 1.176.182 1.848.476.686.28.98.714.294.42.294 1.064 0 1.064-.882 1.652-.867.588-2.324.588m7.739 0q-1.078 0-1.848-.308-.756-.322-1.176-.896a2.56 2.56 0 0 1-.462-1.316l1.834-.084q.097.602.49.924.406.308 1.162.308.643 0 .994-.196.35-.21.35-.644a.68.68 0 0 0-.126-.42q-.126-.168-.476-.294a7 7 0 0 0-1.036-.252q-1.149-.196-1.806-.476-.645-.294-.924-.714-.28-.434-.28-1.092 0-1.065.812-1.708.825-.644 2.352-.644 1.455 0 2.268.7.826.686.994 1.82l-1.82.084q-.099-.588-.476-.91-.378-.322-.98-.322-.63 0-.966.252a.81.81 0 0 0-.322.672q0 .294.14.49.153.196.476.322.321.112.91.21 1.176.182 1.848.476.686.28.98.714.294.42.294 1.064 0 1.064-.882 1.652-.869.588-2.324.588m3.685-7.644h1.834l1.442 5.446 1.512-5.446h1.554l1.512 5.446 1.456-5.446h1.834L178.489 37h-1.848l-1.484-5.012-1.47 5.012h-1.848zm15.323 7.644q-1.105 0-1.932-.476a3.4 3.4 0 0 1-1.288-1.372q-.462-.882-.462-2.058t.462-2.058a3.3 3.3 0 0 1 1.288-1.358q.827-.49 1.932-.49 1.092 0 1.918.49.84.476 1.288 1.358.462.882.462 2.058t-.462 2.058a3.27 3.27 0 0 1-1.288 1.372q-.826.476-1.918.476m0-1.456q.869 0 1.344-.644t.476-1.806q0-1.148-.476-1.792-.475-.658-1.344-.658-.868 0-1.344.644t-.476 1.806.476 1.806q.476.645 1.344.644m5.119-6.188h1.68l.07 2.072-.154-.028q.168-1.064.63-1.554t1.288-.49h.686v1.54h-.7q-.588 0-.966.168-.365.169-.56.532-.183.364-.182.924V37h-1.792zm7.979 7.644q-.952 0-1.652-.476t-1.078-1.358-.378-2.072q0-1.176.378-2.058.378-.896 1.078-1.372.714-.476 1.652-.476.784 0 1.372.322t.896.91V27.06h1.792V37h-1.694l-.042-1.106a2.27 2.27 0 0 1-.938.938 2.85 2.85 0 0 1-1.386.336m.532-1.456q.546 0 .938-.28t.588-.826q.21-.56.21-1.344t-.21-1.33q-.196-.56-.588-.84-.378-.28-.938-.28-.811 0-1.302.658-.476.645-.476 1.792 0 1.12.476 1.792.49.658 1.302.658m7.659-1.75q0-1.065.308-1.666.321-.601 1.064-1.008.532-.294.784-.504.266-.21.35-.448.098-.238.098-.616 0-.602-.392-.966-.393-.378-1.092-.378-.813 0-1.274.434-.449.434-.546 1.274L203.635 30a3.56 3.56 0 0 1 .546-1.638 3.06 3.06 0 0 1 1.26-1.12q.811-.405 1.89-.406 1.035 0 1.792.378.755.364 1.148 1.022.406.658.406 1.484 0 .602-.182 1.022a2.4 2.4 0 0 1-.546.77q-.365.336-1.022.728-.533.322-.728.686-.196.364-.196 1.036zm-.126 1.078h2.044V37h-2.044z"/><path fill="#62748E" d="M28.21 52.48h1.031v8.04l-.515-.528h4.776V61h-5.293zm8.868 8.664q-.876 0-1.536-.408a2.7 2.7 0 0 1-1.02-1.152q-.36-.756-.36-1.764t.36-1.752q.36-.756 1.02-1.164t1.536-.408q.864 0 1.524.408t1.02 1.164q.36.744.36 1.752t-.36 1.764q-.36.744-1.02 1.152t-1.524.408m0-.96q.876 0 1.356-.624.492-.636.492-1.74t-.492-1.728q-.48-.636-1.356-.636t-1.368.624-.492 1.74.492 1.74 1.368.624m6.722.96q-.828 0-1.44-.264a2.27 2.27 0 0 1-.936-.756 2.33 2.33 0 0 1-.372-1.128l1.056-.072q.096.6.504.936.408.324 1.188.324.672 0 1.044-.216.384-.216.384-.672a.63.63 0 0 0-.132-.42q-.12-.168-.468-.288-.336-.132-1.02-.252-.9-.156-1.428-.408t-.756-.612q-.216-.36-.216-.876 0-.864.636-1.404t1.764-.54q1.104 0 1.752.576t.804 1.464l-1.056.072a1.38 1.38 0 0 0-.504-.84q-.384-.312-1.008-.312-.66 0-.996.264a.8.8 0 0 0-.336.672q0 .312.144.516.156.192.48.324.324.12.912.216.972.168 1.5.408.54.228.756.576.228.336.228.864 0 .864-.708 1.356-.696.492-1.776.492M49.776 61q-.864 0-1.284-.396-.408-.396-.408-1.236v-6.216h1.008v6.192q0 .42.18.6.192.168.6.168h.912V61zm-2.628-6.36h3.636v.888h-3.636zm8.31 7.272h.733q.324 0 .48-.108a.64.64 0 0 0 .264-.324l.228-.6h-.348l-2.328-6.24h1.104l1.896 5.304 1.812-5.304h1.104l-2.58 7.164q-.18.516-.54.756t-.996.24h-.828zm8.385-.768q-.876 0-1.536-.408a2.7 2.7 0 0 1-1.02-1.152q-.36-.756-.36-1.764t.36-1.752q.36-.756 1.02-1.164t1.536-.408q.864 0 1.524.408t1.02 1.164q.36.744.36 1.752t-.36 1.764q-.36.744-1.02 1.152t-1.524.408m0-.96q.876 0 1.356-.624.492-.636.492-1.74t-.492-1.728q-.48-.636-1.356-.636t-1.368.624-.492 1.74.492 1.74 1.368.624m6.4.96q-.96 0-1.524-.636-.564-.648-.564-1.776V54.64h1.008v3.816q0 .924.324 1.368.336.432 1.02.432.756 0 1.188-.48.432-.492.432-1.344V54.64h1.008V61h-.96v-1.572l.156.084q-.192.78-.732 1.212-.54.42-1.356.42m4.815-6.504h.888l.048 1.608-.096-.036q.12-.804.516-1.188t1.08-.384h.624v.96h-.612q-.48 0-.804.18a1.1 1.1 0 0 0-.48.516q-.156.348-.156.864V61h-1.008zm7.582 0h.936l.024 1.368-.144-.072q.228-.696.78-1.068a2.3 2.3 0 0 1 1.308-.372q.912 0 1.524.456.624.444.924 1.2t.3 1.668-.3 1.668-.924 1.212q-.612.444-1.524.444-.492 0-.924-.168a2.1 2.1 0 0 1-.72-.468 1.7 1.7 0 0 1-.396-.708l.144-.168V62.8H82.64zm2.808 5.544q.828 0 1.308-.624t.48-1.74-.48-1.74-1.308-.624q-.552 0-.96.276-.408.264-.624.792t-.216 1.296.216 1.296.612.804q.408.264.972.264m6.116.96q-.996 0-1.572-.456t-.576-1.272.48-1.284 1.524-.66l2.256-.42q0-.804-.384-1.2-.372-.396-1.128-.396-.648 0-1.044.288-.384.288-.528.852l-1.068-.084q.18-.924.876-1.464.708-.552 1.764-.552 1.212 0 1.86.684.66.684.66 1.908v2.628q0 .216.072.312.084.084.264.084h.252V61a1 1 0 0 1-.168.012 2 2 0 0 1-.216.012q-.66 0-.936-.312t-.276-1.032l.12.024q-.12.612-.768 1.032a2.7 2.7 0 0 1-1.464.408m.096-.888q.624 0 1.08-.24a1.76 1.76 0 0 0 .696-.672q.24-.432.24-.96v-.456l-2.064.384q-.624.108-.888.36-.252.24-.252.648 0 .444.312.696.312.24.876.24m7.23.888q-.828 0-1.44-.264a2.27 2.27 0 0 1-.936-.756 2.33 2.33 0 0 1-.372-1.128l1.056-.072q.096.6.504.936.408.324 1.188.324.672 0 1.044-.216.384-.216.384-.672a.63.63 0 0 0-.132-.42q-.12-.168-.468-.288-.336-.132-1.02-.252-.9-.156-1.428-.408t-.756-.612q-.216-.36-.216-.876 0-.864.636-1.404t1.764-.54q1.104 0 1.752.576t.804 1.464l-1.056.072a1.38 1.38 0 0 0-.504-.84q-.384-.312-1.008-.312-.66 0-.996.264a.8.8 0 0 0-.336.672q0 .312.144.516.156.192.48.324.324.12.912.216.972.168 1.5.408.54.228.756.576.228.336.228.864 0 .864-.708 1.356-.696.492-1.776.492m6.305 0q-.828 0-1.44-.264a2.27 2.27 0 0 1-.936-.756 2.33 2.33 0 0 1-.372-1.128l1.056-.072q.096.6.504.936.408.324 1.188.324.672 0 1.044-.216.384-.216.384-.672a.63.63 0 0 0-.132-.42q-.12-.168-.468-.288-.336-.132-1.02-.252-.9-.156-1.428-.408t-.756-.612q-.216-.36-.216-.876 0-.864.636-1.404t1.764-.54q1.104 0 1.752.576t.804 1.464l-1.056.072a1.38 1.38 0 0 0-.504-.84q-.384-.312-1.008-.312-.66 0-.996.264a.8.8 0 0 0-.336.672q0 .312.144.516.156.192.48.324.324.12.912.216.972.168 1.5.408.54.228.756.576.228.336.228.864 0 .864-.708 1.356-.696.492-1.776.492m3.01-6.504h1.104l1.488 5.304 1.512-5.304h1.08l1.512 5.304 1.5-5.304h1.104L115.537 61h-1.272l-1.416-4.836L111.433 61h-1.26zm12.744 6.504q-.876 0-1.536-.408a2.7 2.7 0 0 1-1.02-1.152q-.36-.756-.36-1.764t.36-1.752q.36-.756 1.02-1.164t1.536-.408q.864 0 1.524.408t1.02 1.164q.36.744.36 1.752t-.36 1.764q-.36.744-1.02 1.152t-1.524.408m0-.96q.876 0 1.356-.624.492-.636.492-1.74t-.492-1.728q-.48-.636-1.356-.636t-1.368.624-.492 1.74.492 1.74 1.368.624m4.37-5.544h.888l.048 1.608-.096-.036q.12-.804.516-1.188t1.08-.384h.624v.96h-.612q-.48 0-.804.18a1.1 1.1 0 0 0-.48.516q-.156.348-.156.864V61h-1.008zm6.511 6.504q-.816 0-1.428-.408t-.936-1.152q-.324-.756-.324-1.764t.324-1.752q.324-.756.936-1.164t1.428-.408q.648 0 1.164.276.528.276.792.756V52.48h1.008V61h-.912l-.036-.96a1.93 1.93 0 0 1-.804.816q-.54.288-1.212.288m.204-.96q.552 0 .948-.288t.6-.816.204-1.26-.204-1.26q-.204-.54-.6-.816-.384-.288-.948-.288-.84 0-1.344.636-.492.624-.492 1.728 0 1.092.492 1.728.504.636 1.344.636m6.56-1.596q0-.852.264-1.356.276-.516.9-.912.48-.3.708-.516.24-.216.324-.456.096-.24.096-.612 0-.636-.42-1.032-.42-.408-1.14-.408-.876 0-1.356.456-.48.444-.576 1.32l-1.08-.072q.072-.792.456-1.404.384-.624 1.032-.96.66-.348 1.524-.348.768 0 1.368.312t.936.876q.336.552.336 1.26 0 .492-.168.864a2.05 2.05 0 0 1-.48.684q-.312.3-.864.66-.48.312-.66.66-.168.348-.168.984zm-.156 1.056h1.356V61h-1.356zm8.201-7.164h1.464l4.212 7.488V52.48h1.032V61h-1.536l-4.14-7.344V61h-1.032zm11.294 8.664q-.876 0-1.536-.408a2.7 2.7 0 0 1-1.02-1.152q-.36-.756-.36-1.764t.36-1.752q.36-.756 1.02-1.164t1.536-.408q.864 0 1.524.408t1.02 1.164q.36.744.36 1.752t-.36 1.764q-.36.744-1.02 1.152t-1.524.408m0-.96q.876 0 1.356-.624.492-.636.492-1.74t-.492-1.728q-.48-.636-1.356-.636t-1.368.624-.492 1.74.492 1.74 1.368.624m6.733-5.544h1.104l1.488 5.304 1.512-5.304h1.08l1.512 5.304 1.5-5.304h1.104L171.998 61h-1.272l-1.416-4.836L167.894 61h-1.26zm12.744 6.504q-.876 0-1.536-.408a2.7 2.7 0 0 1-1.02-1.152q-.36-.756-.36-1.764t.36-1.752q.36-.756 1.02-1.164t1.536-.408q.864 0 1.524.408t1.02 1.164q.36.744.36 1.752t-.36 1.764q-.36.744-1.02 1.152t-1.524.408m0-.96q.876 0 1.356-.624.492-.636.492-1.74t-.492-1.728q-.48-.636-1.356-.636t-1.368.624-.492 1.74.492 1.74 1.368.624m4.37-5.544h.888l.048 1.608-.096-.036q.12-.804.516-1.188t1.08-.384h.624v.96h-.612q-.48 0-.804.18a1.1 1.1 0 0 0-.48.516q-.156.348-.156.864V61h-1.008zm4.231 0h.888l.048 1.608-.096-.036q.12-.804.516-1.188t1.08-.384h.624v.96h-.612q-.48 0-.804.18a1.1 1.1 0 0 0-.48.516q-.156.348-.156.864V61h-1.008zm4.406 0h1.008V61h-1.008zm-.024-2.172h1.056v1.176h-1.056zm5.474 8.676q-.888 0-1.548-.408a2.7 2.7 0 0 1-1.02-1.152q-.348-.756-.348-1.764 0-.996.348-1.752.36-.756 1.008-1.164t1.512-.408q.828 0 1.464.396.636.384.984 1.14.36.756.36 1.8v.3h-4.62q.048 1.008.528 1.536.492.516 1.332.516.612 0 1.008-.276.408-.288.576-.792l1.08.084a2.63 2.63 0 0 1-.972 1.416q-.708.528-1.692.528m1.656-3.9q-.072-.888-.528-1.332-.444-.456-1.176-.456-.744 0-1.224.456-.468.456-.588 1.332zm4.926 3.9q-.828 0-1.44-.264a2.27 2.27 0 0 1-.936-.756 2.33 2.33 0 0 1-.372-1.128l1.056-.072q.096.6.504.936.408.324 1.188.324.672 0 1.044-.216.384-.216.384-.672a.63.63 0 0 0-.132-.42q-.12-.168-.468-.288-.336-.132-1.02-.252-.9-.156-1.428-.408t-.756-.612q-.216-.36-.216-.876 0-.864.636-1.404t1.764-.54q1.104 0 1.752.576t.804 1.464l-1.056.072a1.38 1.38 0 0 0-.504-.84q-.384-.312-1.008-.312-.66 0-.996.264a.8.8 0 0 0-.336.672q0 .312.144.516.156.192.48.324.324.12.912.216.972.168 1.5.408.54.228.756.576.228.336.228.864 0 .864-.708 1.356-.696.492-1.776.492m3.987-3.456a56 56 0 0 1-.084-1.296q-.036-.684-.036-1.152v-2.76h1.032v2.76q0 .456-.036 1.14t-.072 1.308l-.072.852h-.66zm-.288 1.956h1.356V61h-1.356zm6.104-7.164h3.06q.936 0 1.608.312.684.3 1.044.888.36.576.36 1.38 0 .816-.36 1.416a2.3 2.3 0 0 1-1.044.9q-.672.312-1.608.312h-2.028V61h-1.032zm3.06 4.2q.96 0 1.44-.408.492-.408.492-1.212 0-.78-.492-1.176-.48-.396-1.44-.396h-2.028v3.192zm6.816 4.464q-.876 0-1.536-.408a2.7 2.7 0 0 1-1.02-1.152q-.36-.756-.36-1.764t.36-1.752q.36-.756 1.02-1.164t1.536-.408q.864 0 1.524.408t1.02 1.164q.36.744.36 1.752t-.36 1.764q-.36.744-1.02 1.152t-1.524.408m0-.96q.876 0 1.356-.624.492-.636.492-1.74t-.492-1.728q-.48-.636-1.356-.636t-1.368.624-.492 1.74.492 1.74 1.368.624m4.371-5.544h.936l.024 1.368-.144-.072q.228-.696.78-1.068a2.3 2.3 0 0 1 1.308-.372q.912 0 1.524.456.624.444.924 1.2t.3 1.668-.3 1.668-.924 1.212q-.612.444-1.524.444-.492 0-.924-.168a2.1 2.1 0 0 1-.72-.468 1.7 1.7 0 0 1-.396-.708l.144-.168V62.8h-1.008zm2.808 5.544q.828 0 1.308-.624t.48-1.74-.48-1.74-1.308-.624q-.552 0-.96.276-.408.264-.624.792t-.216 1.296.216 1.296.612.804q.408.264.972.264m7.364-5.544h1.008V61h-1.008zm-.024-2.172h1.056v1.176h-1.056zm2.778 2.172h.924l.036 1.62-.12-.108q.168-.816.72-1.236.564-.42 1.344-.42 1.044 0 1.596.672t.552 1.74V61h-1.008v-3.804q0-.9-.324-1.356t-1.032-.456q-.756 0-1.224.48-.456.468-.456 1.332V61h-1.008zm10.249 7.272h.732q.324 0 .48-.108a.64.64 0 0 0 .264-.324l.228-.6h-.348l-2.328-6.24h1.104l1.896 5.304 1.812-5.304h1.104l-2.58 7.164q-.18.516-.54.756t-.996.24h-.828zm8.384-.768q-.876 0-1.536-.408a2.7 2.7 0 0 1-1.02-1.152q-.36-.756-.36-1.764t.36-1.752q.36-.756 1.02-1.164t1.536-.408q.864 0 1.524.408t1.02 1.164q.36.744.36 1.752t-.36 1.764q-.36.744-1.02 1.152t-1.524.408m0-.96q.876 0 1.356-.624.492-.636.492-1.74t-.492-1.728q-.48-.636-1.356-.636t-1.368.624-.492 1.74.492 1.74 1.368.624m6.4.96q-.96 0-1.524-.636-.564-.648-.564-1.776V54.64h1.008v3.816q0 .924.324 1.368.336.432 1.02.432.756 0 1.188-.48.432-.492.432-1.344V54.64h1.008V61h-.96v-1.572l.156.084q-.192.78-.732 1.212-.54.42-1.356.42m4.815-6.504h.888l.048 1.608-.096-.036q.12-.804.516-1.188t1.08-.384h.624v.96h-.612q-.48 0-.804.18a1.1 1.1 0 0 0-.48.516q-.156.348-.156.864V61h-1.008zM54.205 76.144q-.888 0-1.548-.408a2.7 2.7 0 0 1-1.02-1.152q-.348-.756-.348-1.764 0-.996.348-1.752.36-.756 1.008-1.164t1.512-.408q.828 0 1.464.396.636.384.984 1.14.36.756.36 1.8v.3h-4.62q.048 1.008.528 1.536.492.516 1.332.516.612 0 1.008-.276.408-.288.576-.792l1.08.084a2.63 2.63 0 0 1-.972 1.416q-.708.528-1.692.528m1.656-3.9q-.072-.888-.528-1.332-.444-.456-1.176-.456-.744 0-1.224.456-.468.456-.588 1.332zm2.574-2.604h.924l.036 1.608-.144-.048q.108-.516.372-.9.276-.384.672-.588a1.8 1.8 0 0 1 .876-.216q.828 0 1.344.456.528.444.66 1.272l-.192-.012q.144-.816.648-1.26.504-.456 1.308-.456.672 0 1.14.288.48.276.72.816t.24 1.308V76H66.03v-3.876q0-.864-.336-1.296-.336-.444-.996-.444a1.4 1.4 0 0 0-.78.216 1.4 1.4 0 0 0-.504.624q-.18.408-.18.972V76h-1.008v-3.804q0-.876-.312-1.344t-.996-.468a1.4 1.4 0 0 0-.78.216 1.37 1.37 0 0 0-.516.636q-.18.408-.18.96V76h-1.008zm12.158 6.504q-.996 0-1.572-.456t-.576-1.272.48-1.284 1.524-.66l2.256-.42q0-.804-.384-1.2-.372-.396-1.128-.396-.648 0-1.044.288-.384.288-.528.852l-1.068-.084q.18-.924.876-1.464.708-.552 1.764-.552 1.212 0 1.86.684.66.684.66 1.908v2.628q0 .216.072.312.084.084.264.084h.252V76a1 1 0 0 1-.168.012 2 2 0 0 1-.216.012q-.66 0-.936-.312t-.276-1.032l.12.024q-.12.612-.768 1.032a2.7 2.7 0 0 1-1.464.408m.096-.888q.624 0 1.08-.24a1.76 1.76 0 0 0 .696-.672q.24-.432.24-.96v-.456l-2.064.384q-.624.108-.888.36-.252.24-.252.648 0 .444.312.696.312.24.876.24m4.996-5.616h1.008V76h-1.008zm-.024-2.172h1.056v1.176H75.66zM79.874 76q-.588 0-.924-.288-.336-.3-.336-.912l.012-7.32h1.008v7.236q0 .192.096.3a.44.44 0 0 0 .3.096h.552V76zm2.73 0h-.612v-1.356h1.356v1.188l-.72 2.04h-.6zm7.02.144q-.996 0-1.572-.456t-.576-1.272.48-1.284 1.524-.66l2.256-.42q0-.804-.384-1.2-.372-.396-1.128-.396-.648 0-1.044.288-.384.288-.528.852l-1.068-.084q.18-.924.876-1.464.708-.552 1.764-.552 1.212 0 1.86.684.66.684.66 1.908v2.628q0 .216.072.312.084.084.264.084h.252V76a1 1 0 0 1-.168.012 2 2 0 0 1-.216.012q-.66 0-.936-.312t-.276-1.032l.12.024q-.12.612-.768 1.032a2.7 2.7 0 0 1-1.464.408m.096-.888q.624 0 1.08-.24a1.76 1.76 0 0 0 .696-.672q.24-.432.24-.96v-.456l-2.064.384q-.624.108-.888.36-.252.24-.252.648 0 .444.312.696.312.24.876.24m4.937-5.616h.924l.036 1.62-.12-.108q.168-.816.72-1.236.564-.42 1.344-.42 1.044 0 1.596.672t.552 1.74V76h-1.008v-3.804q0-.9-.324-1.356t-1.032-.456q-.756 0-1.224.48-.456.468-.456 1.332V76h-1.008zm9.089 6.504q-.816 0-1.428-.408t-.936-1.152q-.324-.756-.324-1.764t.324-1.752q.324-.756.936-1.164t1.428-.408q.648 0 1.164.276.528.276.792.756V67.48h1.008V76h-.912l-.036-.96a1.93 1.93 0 0 1-.804.816q-.54.288-1.212.288m.204-.96q.552 0 .948-.288t.6-.816.204-1.26-.204-1.26q-.204-.54-.6-.816-.384-.288-.948-.288-.84 0-1.344.636-.492.624-.492 1.728 0 1.092.492 1.728.504.636 1.344.636m6.98-5.544h1.104l1.488 5.304 1.512-5.304h1.08l1.512 5.304 1.5-5.304h1.104L118.262 76h-1.272l-1.416-4.836L114.158 76h-1.26zm12.743 6.504q-.888 0-1.548-.408a2.7 2.7 0 0 1-1.02-1.152q-.348-.756-.348-1.764 0-.996.348-1.752.36-.756 1.008-1.164t1.512-.408q.828 0 1.464.396.636.384.984 1.14.36.756.36 1.8v.3h-4.62q.048 1.008.528 1.536.492.516 1.332.516.612 0 1.008-.276.408-.288.576-.792l1.08.084a2.63 2.63 0 0 1-.972 1.416q-.708.528-1.692.528m1.656-3.9q-.072-.888-.528-1.332-.444-.456-1.176-.456-.744 0-1.224.456-.468.456-.588 1.332zm2.261-3.852v-.912h1.056v.912l-.156 2.232h-.732zM131.449 76q-.588 0-.924-.288-.336-.3-.336-.912l.012-7.32h1.008v7.236q0 .192.096.3a.44.44 0 0 0 .3.096h.552V76zm3.292 0q-.588 0-.924-.288-.336-.3-.336-.912l.012-7.32h1.008v7.236q0 .192.096.3a.44.44 0 0 0 .3.096h.552V76zm4.875-1.008 4.02-4.464h-3.9v-.888h5.004v1.008l-4.02 4.464h4.116V76h-5.22zm8.614 1.152q-.996 0-1.572-.456t-.576-1.272.48-1.284 1.524-.66l2.256-.42q0-.804-.384-1.2-.372-.396-1.128-.396-.648 0-1.044.288-.384.288-.528.852l-1.068-.084q.18-.924.876-1.464.708-.552 1.764-.552 1.212 0 1.86.684.66.684.66 1.908v2.628q0 .216.072.312.084.084.264.084h.252V76a1 1 0 0 1-.168.012 2 2 0 0 1-.216.012q-.66 0-.936-.312t-.276-1.032l.12.024q-.12.612-.768 1.032a2.7 2.7 0 0 1-1.464.408m.096-.888q.624 0 1.08-.24a1.76 1.76 0 0 0 .696-.672q.24-.432.24-.96v-.456l-2.064.384q-.624.108-.888.36-.252.24-.252.648 0 .444.312.696.312.24.876.24m4.937-5.616h.936l.024 1.368-.144-.072q.228-.696.78-1.068a2.3 2.3 0 0 1 1.308-.372q.912 0 1.524.456.624.444.924 1.2t.3 1.668-.3 1.668-.924 1.212q-.612.444-1.524.444-.492 0-.924-.168a2.1 2.1 0 0 1-.72-.468 1.7 1.7 0 0 1-.396-.708l.144-.168V77.8h-1.008zm2.808 5.544q.828 0 1.308-.624t.48-1.74-.48-1.74-1.308-.624q-.552 0-.96.276-.408.264-.624.792t-.216 1.296.216 1.296.612.804q.408.264.972.264m7.64 1.728h.732q.324 0 .48-.108a.64.64 0 0 0 .264-.324l.228-.6h-.348l-2.328-6.24h1.104l1.896 5.304 1.812-5.304h1.104l-2.58 7.164q-.18.516-.54.756t-.996.24h-.828zm8.384-.768q-.876 0-1.536-.408a2.7 2.7 0 0 1-1.02-1.152q-.36-.756-.36-1.764t.36-1.752q.36-.756 1.02-1.164t1.536-.408q.864 0 1.524.408t1.02 1.164q.36.744.36 1.752t-.36 1.764q-.36.744-1.02 1.152t-1.524.408m0-.96q.876 0 1.356-.624.492-.636.492-1.74t-.492-1.728q-.48-.636-1.356-.636t-1.368.624-.492 1.74.492 1.74 1.368.624m6.4.96q-.96 0-1.524-.636-.564-.648-.564-1.776V69.64h1.008v3.816q0 .924.324 1.368.336.432 1.02.432.756 0 1.188-.48.432-.492.432-1.344V69.64h1.008V76h-.96v-1.572l.156.084q-.192.78-.732 1.212-.54.42-1.356.42m9.567 0q-.996 0-1.572-.456t-.576-1.272.48-1.284 1.524-.66l2.256-.42q0-.804-.384-1.2-.372-.396-1.128-.396-.648 0-1.044.288-.384.288-.528.852l-1.068-.084q.18-.924.876-1.464.708-.552 1.764-.552 1.212 0 1.86.684.66.684.66 1.908v2.628q0 .216.072.312.084.084.264.084h.252V76a1 1 0 0 1-.168.012 2 2 0 0 1-.216.012q-.66 0-.936-.312t-.276-1.032l.12.024q-.12.612-.768 1.032a2.7 2.7 0 0 1-1.464.408m.096-.888q.624 0 1.08-.24a1.76 1.76 0 0 0 .696-.672q.24-.432.24-.96v-.456l-2.064.384q-.624.108-.888.36-.252.24-.252.648 0 .444.312.696.312.24.876.24m7.995-5.616h.888l.048 1.608-.096-.036q.12-.804.516-1.188t1.08-.384h.624v.96h-.612q-.48 0-.804.18a1.1 1.1 0 0 0-.48.516q-.156.348-.156.864V76h-1.008zm6.739 6.504q-.888 0-1.548-.408a2.7 2.7 0 0 1-1.02-1.152q-.348-.756-.348-1.764 0-.996.348-1.752.36-.756 1.008-1.164t1.512-.408q.828 0 1.464.396.636.384.984 1.14.36.756.36 1.8v.3h-4.62q.048 1.008.528 1.536.492.516 1.332.516.612 0 1.008-.276.408-.288.576-.792l1.08.084a2.63 2.63 0 0 1-.972 1.416q-.708.528-1.692.528m1.656-3.9q-.072-.888-.528-1.332-.444-.456-1.176-.456-.744 0-1.224.456-.468.456-.588 1.332zm4.926 3.9q-.828 0-1.44-.264a2.27 2.27 0 0 1-.936-.756 2.33 2.33 0 0 1-.372-1.128l1.056-.072q.096.6.504.936.408.324 1.188.324.672 0 1.044-.216.384-.216.384-.672a.63.63 0 0 0-.132-.42q-.12-.168-.468-.288-.336-.132-1.02-.252-.9-.156-1.428-.408t-.756-.612q-.216-.36-.216-.876 0-.864.636-1.404t1.764-.54q1.104 0 1.752.576t.804 1.464l-1.056.072a1.38 1.38 0 0 0-.504-.84q-.384-.312-1.008-.312-.66 0-.996.264a.8.8 0 0 0-.336.672q0 .312.144.516.156.192.48.324.324.12.912.216.972.168 1.5.408.54.228.756.576.228.336.228.864 0 .864-.708 1.356-.696.492-1.776.492m6.473 0q-.888 0-1.548-.408a2.7 2.7 0 0 1-1.02-1.152q-.348-.756-.348-1.764 0-.996.348-1.752.36-.756 1.008-1.164t1.512-.408q.828 0 1.464.396.636.384.984 1.14.36.756.36 1.8v.3h-4.62q.048 1.008.528 1.536.492.516 1.332.516.612 0 1.008-.276.408-.288.576-.792l1.08.084a2.63 2.63 0 0 1-.972 1.416q-.708.528-1.692.528m1.656-3.9q-.072-.888-.528-1.332-.444-.456-1.176-.456-.744 0-1.224.456-.468.456-.588 1.332zM222.2 76q-.864 0-1.284-.396-.408-.396-.408-1.236v-6.216h1.008v6.192q0 .42.18.6.192.168.6.168h.912V76zm-2.628-6.36h3.636v.888h-3.636zm9.294 6.36q-.588 0-.924-.288-.336-.3-.336-.912l.012-7.32h1.008v7.236q0 .192.096.3a.44.44 0 0 0 .3.096h.552V76zm2.151-6.36h1.008V76h-1.008zm-.024-2.172h1.056v1.176h-1.056zm2.778 2.172h.924l.036 1.62-.12-.108q.168-.816.72-1.236.564-.42 1.344-.42 1.044 0 1.596.672t.552 1.74V76h-1.008v-3.804q0-.9-.324-1.356t-1.032-.456q-.756 0-1.224.48-.456.468-.456 1.332V76h-1.008zm6.738-2.16h1.008v5.58l3.096-3.42h1.344l-2.508 2.7 2.616 3.66h-1.224l-2.076-2.976-1.248 1.32V76h-1.008zm7.054 5.208a56 56 0 0 1-.084-1.296q-.036-.684-.036-1.152v-2.76h1.032v2.76q0 .456-.036 1.14t-.072 1.308l-.072.852h-.66zm-.288 1.956h1.356V76h-1.356z"/><path fill="#fff" d="M30 103.5h240a5.5 5.5 0 0 1 5.5 5.5v24a5.5 5.5 0 0 1-5.5 5.5H30a5.5 5.5 0 0 1-5.5-5.5v-24a5.5 5.5 0 0 1 5.5-5.5"/><path stroke="#E2E8F0" d="M30 103.5h240a5.5 5.5 0 0 1 5.5 5.5v24a5.5 5.5 0 0 1-5.5 5.5H30a5.5 5.5 0 0 1-5.5-5.5v-24a5.5 5.5 0 0 1 5.5-5.5Z"/><path fill="#62748E" d="M37.057 125v-8.727h5.267v.937h-4.21v2.949h3.937v.938h-3.937v2.965h4.278V125zm9.677 2.591q-.728 0-1.253-.188a2.7 2.7 0 0 1-.873-.485 2.7 2.7 0 0 1-.55-.64l.801-.562q.136.179.346.409.21.234.57.405.367.174.96.175.792 0 1.308-.384.515-.383.515-1.202v-1.329h-.085a6 6 0 0 1-.315.443 1.8 1.8 0 0 1-.58.464q-.375.201-1.014.201a2.73 2.73 0 0 1-1.423-.375 2.63 2.63 0 0 1-.993-1.091q-.363-.716-.363-1.739 0-1.005.354-1.751.354-.75.985-1.159.63-.414 1.457-.414.639 0 1.014.213.38.21.58.478.204.264.315.434h.102v-1.039h.972v6.733q0 .843-.384 1.372a2.18 2.18 0 0 1-1.022.779q-.64.252-1.424.252m-.034-3.597q.606 0 1.023-.277.417-.276.635-.797.217-.52.217-1.244 0-.707-.213-1.248a1.87 1.87 0 0 0-.63-.848q-.418-.307-1.032-.307-.639 0-1.065.324a1.96 1.96 0 0 0-.635.869q-.21.546-.209 1.21 0 .683.213 1.206.217.52.64.818.426.294 1.056.294m5.438 1.074a.74.74 0 0 1-.541-.226.74.74 0 0 1-.226-.541q0-.315.226-.541a.74.74 0 0 1 .54-.226q.316 0 .542.226a.74.74 0 0 1 .226.541.799.799 0 0 1-.384.665.73.73 0 0 1-.383.102m7.873.085q-.623 0-1.13-.234a1.94 1.94 0 0 1-.805-.686q-.298-.452-.298-1.091 0-.562.221-.912.221-.354.593-.554a3.1 3.1 0 0 1 .818-.298 10 10 0 0 1 .908-.162q.596-.077.967-.115.375-.043.545-.141.175-.098.175-.341v-.034q0-.63-.345-.98-.341-.35-1.036-.349-.72 0-1.129.315-.409.316-.575.673l-.955-.341q.256-.596.682-.929.43-.336.938-.468a4 4 0 0 1 1.005-.137 4 4 0 0 1 .725.077q.412.072.797.303.387.23.643.694.256.465.256 1.245V125h-1.006v-.886h-.051a1.8 1.8 0 0 1-.341.456q-.239.243-.635.413-.397.17-.967.17m.153-.903q.597 0 1.006-.234a1.6 1.6 0 0 0 .835-1.385v-.921q-.064.077-.281.141a5 5 0 0 1-.495.106 21 21 0 0 1-.963.128 4 4 0 0 0-.733.166 1.26 1.26 0 0 0-.545.337q-.205.221-.205.605 0 .525.388.793.392.264.993.264m7.154.886q-.819 0-1.445-.413-.626-.417-.98-1.176-.354-.763-.354-1.803 0-1.031.354-1.789.354-.76.984-1.172.63-.414 1.458-.414.64 0 1.01.213.375.21.57.478.201.264.312.434h.085v-3.221h1.006V125h-.972v-1.006h-.12q-.11.18-.314.452-.205.269-.584.482-.38.208-1.01.208m.136-.903q.606 0 1.023-.315.417-.32.635-.882.217-.567.217-1.309 0-.733-.213-1.282a1.86 1.86 0 0 0-.63-.861q-.418-.311-1.032-.311-.639 0-1.065.328-.422.324-.635.882-.21.554-.209 1.244 0 .699.213 1.27.217.567.64.904.426.332 1.056.332m6.772.92q-.623 0-1.13-.234a1.94 1.94 0 0 1-.805-.686q-.298-.452-.298-1.091 0-.562.221-.912.221-.354.593-.554.37-.2.818-.298.45-.102.907-.162.597-.077.968-.115.374-.043.545-.141.175-.098.175-.341v-.034q0-.63-.345-.98-.342-.35-1.036-.349-.72 0-1.13.315-.409.316-.574.673l-.955-.341q.255-.596.682-.929.431-.336.937-.468a4 4 0 0 1 1.006-.137 4 4 0 0 1 .724.077q.414.072.797.303.388.23.644.694.255.465.255 1.245V125H76.22v-.886h-.051a1.8 1.8 0 0 1-.341.456q-.24.243-.635.413-.396.17-.968.17m.153-.903q.597 0 1.006-.234a1.6 1.6 0 0 0 .835-1.385v-.921q-.064.077-.281.141-.213.06-.495.106a21 21 0 0 1-.963.128 4 4 0 0 0-.733.166 1.26 1.26 0 0 0-.545.337q-.205.221-.205.605 0 .525.388.793.391.264.993.264m4.682.75v-6.545h.972v1.022h.085a1.65 1.65 0 0 1 .66-.814q.457-.294 1.096-.294.646 0 1.078.294.434.29.677.814h.068q.252-.507.755-.805.502-.303 1.206-.303.878 0 1.436.55.558.546.558 1.7V125h-1.006v-4.381q0-.725-.396-1.035a1.46 1.46 0 0 0-.933-.311q-.69 0-1.07.417-.38.413-.38 1.049V125h-1.022v-4.483q0-.558-.362-.899-.363-.345-.933-.345-.393 0-.733.209a1.6 1.6 0 0 0-.546.579 1.7 1.7 0 0 0-.204.848V125zm15.458 2.301q-1.305 0-2.305-.358a4.4 4.4 0 0 1-1.683-1.044 4.45 4.45 0 0 1-1.032-1.692q-.35-1-.35-2.292 0-1.25.355-2.233a4.6 4.6 0 0 1 1.035-1.671 4.5 4.5 0 0 1 1.653-1.052q.976-.362 2.208-.362 1.197 0 2.096.392a4.3 4.3 0 0 1 1.509 1.052q.609.661.912 1.487.306.828.307 1.705 0 .618-.06 1.253t-.251 1.167a1.9 1.9 0 0 1-.593.853q-.396.324-1.074.324-.297 0-.656-.094a1.7 1.7 0 0 1-.635-.311.87.87 0 0 1-.328-.584h-.051a1.52 1.52 0 0 1-.865.822 2.05 2.05 0 0 1-.823.115 2.2 2.2 0 0 1-.975-.247 2.1 2.1 0 0 1-.708-.622 2.9 2.9 0 0 1-.426-.916 4.4 4.4 0 0 1-.14-1.129q0-.576.17-1.053t.473-.835q.307-.358.716-.571.413-.218.89-.269.427-.042.776.039.35.077.575.234.225.153.286.341h.051v-.477h.903v3.852q0 .358.2.631.201.272.584.272.435 0 .665-.298.235-.299.32-.92.09-.622.09-1.594 0-.572-.158-1.125a3.7 3.7 0 0 0-.47-1.044 3.4 3.4 0 0 0-.787-.857 3.6 3.6 0 0 0-1.121-.579 4.6 4.6 0 0 0-1.453-.213q-1.002 0-1.794.311a3.6 3.6 0 0 0-1.343.899 3.9 3.9 0 0 0-.84 1.432q-.285.839-.285 1.909 0 1.086.286 1.93a3.8 3.8 0 0 0 .852 1.424 3.6 3.6 0 0 0 1.402.877q.836.303 1.926.303.47 0 .925-.09.456-.089.805-.196.349-.106.503-.157l.239.784a5 5 0 0 1-.69.221 9 9 0 0 1-.904.184 6 6 0 0 1-.912.072m-.494-3.392q.57 0 .925-.23.353-.23.515-.695t.162-1.172q0-.716-.179-1.116-.18-.401-.528-.562-.35-.162-.861-.162-.485 0-.831.255a1.6 1.6 0 0 0-.524.674q-.18.417-.18.911.001.546.146 1.027.144.478.473.776.328.294.882.294m9.448 1.227q-.945 0-1.632-.417a2.8 2.8 0 0 1-1.052-1.176q-.367-.759-.367-1.765t.367-1.772a2.9 2.9 0 0 1 1.031-1.202q.665-.435 1.551-.435.512 0 1.01.171.498.17.908.554.408.38.652 1.005.243.627.243 1.543v.426h-5.046v-.869h4.023q0-.554-.222-.989a1.67 1.67 0 0 0-.622-.686 1.75 1.75 0 0 0-.946-.251q-.6 0-1.04.298a2 2 0 0 0-.669.767 2.25 2.25 0 0 0-.234 1.014v.58q0 .741.256 1.257.26.512.72.78a2.1 2.1 0 0 0 1.069.264q.397 0 .716-.111a1.5 1.5 0 0 0 .559-.341q.234-.23.362-.571l.971.273a2.16 2.16 0 0 1-.515.869 2.5 2.5 0 0 1-.895.58 3.3 3.3 0 0 1-1.198.204m4.815-6.681 1.568 2.676 1.568-2.676h1.159l-2.114 3.272 2.114 3.273h-1.159l-1.568-2.54-1.568 2.54h-1.159l2.079-3.273-2.079-3.272zm7.656 6.698q-.622 0-1.129-.234a1.93 1.93 0 0 1-.805-.686q-.299-.452-.299-1.091 0-.562.222-.912.222-.354.592-.554a3.1 3.1 0 0 1 .818-.298q.453-.102.908-.162.597-.077.967-.115.375-.043.546-.141.175-.098.175-.341v-.034q0-.63-.346-.98-.34-.35-1.035-.349-.72 0-1.129.315-.41.316-.576.673l-.954-.341q.255-.596.682-.929.43-.336.937-.468a4 4 0 0 1 1.006-.137 4 4 0 0 1 .724.077q.413.072.797.303.388.23.644.694.255.465.255 1.245V125h-1.005v-.886h-.052a1.8 1.8 0 0 1-.34.456q-.24.243-.635.413-.397.17-.968.17m.154-.903q.596 0 1.005-.234a1.6 1.6 0 0 0 .836-1.385v-.921q-.065.077-.282.141a5 5 0 0 1-.494.106 21 21 0 0 1-.963.128q-.392.052-.733.166a1.26 1.26 0 0 0-.545.337q-.205.221-.205.605 0 .525.388.793.391.264.993.264m4.682.75v-6.545h.971v1.022h.086q.204-.523.66-.814.456-.294 1.095-.294.648 0 1.078.294.435.29.678.814h.068a1.9 1.9 0 0 1 .754-.805q.504-.303 1.206-.303.879 0 1.436.55.56.546.559 1.7V125h-1.006v-4.381q0-.725-.396-1.035a1.46 1.46 0 0 0-.933-.311q-.691 0-1.07.417-.38.413-.379 1.049V125h-1.023v-4.483q0-.558-.362-.899-.363-.345-.934-.345-.392 0-.732.209a1.6 1.6 0 0 0-.546.579 1.7 1.7 0 0 0-.204.848V125zm10.43 2.455v-9h.971v1.039h.119q.112-.17.307-.434.2-.268.571-.478.375-.213 1.014-.213.827 0 1.458.414.63.413.984 1.172t.354 1.789q0 1.04-.354 1.803-.354.759-.98 1.176-.626.413-1.444.413-.632 0-1.01-.208a1.9 1.9 0 0 1-.584-.482 6 6 0 0 1-.316-.452h-.085v3.461zm.988-5.728q0 .742.217 1.309.218.563.635.882.418.315 1.023.315.63 0 1.053-.332.426-.337.639-.904.217-.571.217-1.27 0-.69-.213-1.244a1.9 1.9 0 0 0-.635-.882q-.422-.328-1.061-.328-.614 0-1.031.311-.418.306-.631.861-.213.55-.213 1.282m7.33-5.454V125h-1.006v-8.727zm4.586 8.863q-.946 0-1.632-.417a2.8 2.8 0 0 1-1.053-1.176q-.366-.759-.366-1.765t.366-1.772a2.9 2.9 0 0 1 1.032-1.202q.665-.435 1.551-.435.511 0 1.01.171.498.17.907.554.41.38.652 1.005.243.627.243 1.543v.426h-5.045v-.869h4.022q0-.554-.221-.989a1.67 1.67 0 0 0-.622-.686 1.75 1.75 0 0 0-.946-.251q-.601 0-1.04.298a1.96 1.96 0 0 0-.669.767 2.25 2.25 0 0 0-.234 1.014v.58q0 .741.255 1.257.261.512.72.78.46.264 1.07.264.396 0 .716-.111.324-.115.558-.341.234-.23.362-.571l.972.273a2.15 2.15 0 0 1-.516.869 2.5 2.5 0 0 1-.895.58 3.3 3.3 0 0 1-1.197.204m4.973-.068a.74.74 0 0 1-.541-.226.74.74 0 0 1-.226-.541q0-.315.226-.541a.74.74 0 0 1 .541-.226q.315 0 .541.226a.74.74 0 0 1 .226.541.73.73 0 0 1-.106.384.8.8 0 0 1-.277.281.74.74 0 0 1-.384.102m5.231.068q-.92 0-1.585-.434a2.83 2.83 0 0 1-1.023-1.198q-.358-.762-.358-1.743 0-.996.366-1.76a2.9 2.9 0 0 1 1.032-1.197q.665-.435 1.551-.435.69 0 1.244.256.554.255.908.716t.439 1.074h-1.006a1.56 1.56 0 0 0-.511-.793q-.393-.35-1.057-.349-.588 0-1.031.307a2 2 0 0 0-.687.856q-.242.55-.242 1.291 0 .759.238 1.321.243.562.682.874.444.31 1.04.311.391 0 .711-.136.32-.137.542-.392.221-.256.315-.614h1.006a2.34 2.34 0 0 1-.422 1.044 2.36 2.36 0 0 1-.882.733q-.546.268-1.27.268m6.703 0q-.886 0-1.555-.422a2.86 2.86 0 0 1-1.04-1.18q-.37-.759-.371-1.773 0-1.022.371-1.785.375-.763 1.04-1.185.669-.422 1.555-.422.887 0 1.551.422.67.422 1.04 1.185.375.763.375 1.785 0 1.014-.375 1.773a2.8 2.8 0 0 1-1.04 1.18q-.665.423-1.551.422m0-.903q.673 0 1.108-.345t.643-.908q.21-.562.209-1.219 0-.656-.209-1.223a2.06 2.06 0 0 0-.643-.916q-.435-.35-1.108-.349-.673 0-1.108.349-.435.35-.643.916-.21.567-.209 1.223 0 .657.209 1.219.208.563.643.908t1.108.345m4.501.767v-6.545h.972v1.022h.085q.204-.523.66-.814.456-.294 1.096-.294.647 0 1.078.294.434.29.677.814h.068q.251-.507.755-.805.502-.303 1.206-.303.878 0 1.436.55.558.546.558 1.7V125h-1.006v-4.381q0-.725-.396-1.035a1.46 1.46 0 0 0-.933-.311q-.691 0-1.07.417-.38.413-.379 1.049V125h-1.023v-4.483q0-.558-.362-.899-.363-.345-.933-.345a1.37 1.37 0 0 0-.733.209 1.6 1.6 0 0 0-.546.579 1.7 1.7 0 0 0-.204.848V125z"/><path fill="#18181B" d="M24 153a6 6 0 0 1 6-6h240a6 6 0 0 1 6 6v24a6 6 0 0 1-6 6H30a6 6 0 0 1-6-6z"/><path fill="#F8FAFC" d="M109.693 162.565a1.24 1.24 0 0 0-.562-.937q-.494-.337-1.244-.337a2.3 2.3 0 0 0-.929.171q-.393.166-.61.46a1.1 1.1 0 0 0-.213.66q0 .312.145.537.149.226.388.38.243.149.52.251.276.097.532.162l.853.222q.418.102.856.277.44.174.814.46.375.285.605.707.235.422.235 1.01 0 .741-.384 1.317-.38.575-1.104.907-.72.333-1.743.333-.98 0-1.696-.311a2.6 2.6 0 0 1-1.12-.882q-.405-.575-.448-1.364h1.321q.039.473.307.788.272.312.695.465.426.149.933.149.558 0 .993-.175a1.66 1.66 0 0 0 .69-.494 1.17 1.17 0 0 0 .252-.746.92.92 0 0 0-.222-.635 1.65 1.65 0 0 0-.592-.409 6 6 0 0 0-.84-.285l-1.031-.282q-1.048-.285-1.662-.839-.609-.554-.609-1.466 0-.755.409-1.317a2.7 2.7 0 0 1 1.108-.873q.699-.316 1.576-.316.887 0 1.564.311.682.311 1.074.857.393.542.409 1.244zm5.682 6.567q-.967 0-1.666-.413a2.8 2.8 0 0 1-1.074-1.172q-.375-.759-.375-1.777 0-1.006.375-1.773.38-.766 1.057-1.197.681-.43 1.593-.431.555 0 1.074.184.52.183.933.575t.652 1.018q.24.622.239 1.513v.452h-5.203v-.955h3.954q0-.503-.204-.89a1.54 1.54 0 0 0-.575-.618 1.6 1.6 0 0 0-.861-.226q-.537 0-.938.264a1.8 1.8 0 0 0-.613.682 2 2 0 0 0-.213.908v.745q0 .657.23 1.117.234.46.652.703.417.239.976.239.362 0 .66-.103a1.368 1.368 0 0 0 .848-.831l1.206.218q-.144.532-.52.933-.37.396-.933.618a3.5 3.5 0 0 1-1.274.217m5.496-4.018V169h-1.274v-6.545h1.223v1.065h.081q.225-.52.707-.835.486-.316 1.223-.316.67 0 1.172.282.502.276.78.826.277.55.277 1.36V169h-1.274v-4.01q0-.711-.371-1.112-.37-.405-1.019-.405-.443 0-.788.192a1.4 1.4 0 0 0-.541.562q-.196.367-.196.887m8.348 4.014q-.792 0-1.415-.405-.618-.41-.971-1.163-.35-.76-.35-1.82t.354-1.815q.357-.755.98-1.155a2.55 2.55 0 0 1 1.41-.401q.61 0 .981.205.375.2.579.469.209.268.324.473h.077v-3.243h1.274V169h-1.244v-1.018h-.107a3.5 3.5 0 0 1-.332.477 1.9 1.9 0 0 1-.588.469q-.375.2-.972.2m.281-1.087q.55 0 .929-.29.384-.294.58-.813.2-.52.2-1.211 0-.681-.196-1.193a1.76 1.76 0 0 0-.575-.797q-.38-.285-.938-.285-.575 0-.959.298a1.83 1.83 0 0 0-.579.814 3.3 3.3 0 0 0-.192 1.163q0 .656.196 1.181.196.523.58.831.387.302.954.302m8.058.959v-8.727h3.111q1.014 0 1.683.349a2.3 2.3 0 0 1 1.006.967q.333.615.333 1.42 0 .801-.337 1.41a2.27 2.27 0 0 1-1.006.942q-.669.336-1.683.336h-2.357v-1.133h2.238q.639 0 1.039-.183.405-.183.593-.533t.187-.839q0-.495-.192-.857a1.24 1.24 0 0 0-.592-.554q-.4-.196-1.052-.196h-1.654V169zm4.309-3.938 2.156 3.938h-1.5l-2.114-3.938zm6.063 4.07q-.968 0-1.667-.413a2.8 2.8 0 0 1-1.074-1.172q-.375-.759-.375-1.777 0-1.006.375-1.773a2.9 2.9 0 0 1 1.057-1.197q.682-.43 1.594-.431.554 0 1.074.184.52.183.933.575t.652 1.018q.239.622.239 1.513v.452h-5.203v-.955h3.954q0-.503-.204-.89a1.55 1.55 0 0 0-.576-.618 1.6 1.6 0 0 0-.86-.226q-.537 0-.938.264a1.8 1.8 0 0 0-.614.682 2 2 0 0 0-.213.908v.745q0 .657.23 1.117.235.46.652.703.418.239.976.239.363 0 .661-.103.299-.107.515-.315a1.4 1.4 0 0 0 .333-.516l1.206.218q-.145.532-.52.933-.37.396-.933.618a3.5 3.5 0 0 1-1.274.217m9.126-5.079-1.155.204a1.4 1.4 0 0 0-.23-.422 1.14 1.14 0 0 0-.417-.328 1.5 1.5 0 0 0-.661-.128q-.541 0-.903.243-.362.238-.362.618 0 .329.242.528.243.2.785.329l1.039.238q.904.209 1.347.644.443.434.443 1.129 0 .588-.341 1.048-.336.456-.942.716-.6.26-1.393.26-1.1 0-1.794-.469-.695-.472-.852-1.342l1.231-.187q.116.481.473.728.359.243.933.243.627 0 1.002-.26.375-.264.375-.643a.67.67 0 0 0-.23-.516q-.226-.209-.695-.315l-1.108-.243q-.916-.209-1.355-.665-.435-.456-.435-1.155 0-.579.324-1.014.325-.435.895-.678a3.3 3.3 0 0 1 1.308-.247q1.062 0 1.671.461.61.456.805 1.223m4.35 5.079q-.967 0-1.666-.413a2.8 2.8 0 0 1-1.074-1.172q-.375-.759-.375-1.777 0-1.006.375-1.773.38-.766 1.057-1.197.681-.43 1.594-.431.554 0 1.073.184.52.183.934.575.413.392.652 1.018.238.622.238 1.513v.452h-5.203v-.955h3.955a1.9 1.9 0 0 0-.205-.89 1.54 1.54 0 0 0-.575-.618 1.6 1.6 0 0 0-.861-.226q-.537 0-.937.264a1.77 1.77 0 0 0-.614.682 2 2 0 0 0-.213.908v.745q0 .657.23 1.117.235.46.652.703.418.239.976.239.362 0 .66-.103a1.356 1.356 0 0 0 .848-.831l1.206.218q-.145.532-.52.933-.37.396-.933.618a3.5 3.5 0 0 1-1.274.217m7.277-6.677v1.022h-3.575v-1.022zm-2.616-1.569h1.274v6.192q0 .37.111.558a.58.58 0 0 0 .285.252q.18.064.388.064.153 0 .269-.022l.179-.034.23 1.053a2.516 2.516 0 0 1-.827.136 2.2 2.2 0 0 1-.937-.179 1.6 1.6 0 0 1-.704-.579q-.268-.393-.268-.985zm7.304 8.114v-8.727h1.317v7.593h3.954V169zm6.671 0v-6.545h1.274V169zm.644-7.555a.8.8 0 0 1-.571-.222.72.72 0 0 1-.235-.537.7.7 0 0 1 .235-.537.8.8 0 0 1 .571-.226q.332 0 .566.226a.7.7 0 0 1 .239.537q0 .31-.239.537a.8.8 0 0 1-.566.222m3.619 3.669V169h-1.275v-6.545h1.223v1.065h.081q.226-.52.708-.835.486-.316 1.223-.316.668 0 1.172.282.503.276.779.826.277.55.277 1.36V169h-1.274v-4.01q0-.711-.37-1.112-.371-.405-1.019-.405-.443 0-.788.192a1.37 1.37 0 0 0-.541.562q-.196.367-.196.887m7.069 1.666-.008-1.556h.221l2.608-2.769h1.526l-2.975 3.153h-.2zm-1.172 2.22v-8.727h1.274V169zm4.134 0-2.344-3.111.878-.89L195.9 169z"/><path fill="#155DFC" d="m108.989 212.612-3.976-3.976 3.976-3.975.767.758-2.664 2.663h6.691v1.108h-6.691l2.664 2.659zm10.423.388v-8.727h3.196q.929 0 1.538.307.61.301.912.822.303.516.303 1.163 0 .546-.2.921a1.65 1.65 0 0 1-.537.596 2.4 2.4 0 0 1-.733.324v.085q.434.022.848.282.417.255.69.728.273.474.273 1.151 0 .67-.316 1.202-.31.528-.963.839-.651.307-1.666.307zm1.317-1.129h1.9q.947 0 1.355-.367.41-.366.409-.916 0-.413-.208-.758a1.5 1.5 0 0 0-.597-.55 1.9 1.9 0 0 0-.912-.205h-1.947zm0-3.823h1.764q.443 0 .797-.17.357-.171.567-.477.213-.312.213-.733 0-.542-.38-.908-.378-.367-1.163-.367h-1.798zm8.337 5.097q-.622 0-1.125-.23a1.9 1.9 0 0 1-.797-.678q-.29-.442-.29-1.086 0-.555.213-.912.214-.359.576-.567.362-.209.809-.315.449-.107.912-.162l.955-.111q.366-.047.533-.149.166-.103.166-.333v-.03q0-.558-.316-.865-.31-.306-.929-.306-.643 0-1.014.285-.366.281-.507.626l-1.197-.272q.213-.597.622-.963.413-.37.95-.537a3.7 3.7 0 0 1 1.129-.171q.393 0 .831.094.443.09.827.332.388.243.635.695.247.447.247 1.163V213h-1.244v-.895h-.051a1.8 1.8 0 0 1-.371.486 2 2 0 0 1-.635.396 2.5 2.5 0 0 1-.929.158m.277-1.023q.528 0 .903-.209.38-.209.576-.545.2-.34.2-.729v-.844q-.068.07-.264.128-.192.056-.439.098l-.482.073-.392.051a3 3 0 0 0-.677.158q-.303.11-.486.319-.179.205-.179.546 0 .473.349.716.35.238.891.238m7.407 1.01q-.95 0-1.636-.43a2.84 2.84 0 0 1-1.048-1.198q-.367-.763-.367-1.747 0-.997.375-1.76.375-.766 1.057-1.197.682-.43 1.607-.431.745 0 1.329.277.584.273.942.767.362.495.43 1.155h-1.24a1.48 1.48 0 0 0-.469-.792q-.362-.333-.971-.333-.532 0-.933.281a1.8 1.8 0 0 0-.618.793q-.222.511-.222 1.21 0 .716.217 1.236.218.52.614.805.4.286.942.286.362 0 .656-.132.298-.136.499-.388.204-.251.285-.605h1.24a2.4 2.4 0 0 1-.413 1.133q-.345.499-.925.785-.575.285-1.351.285m5.224-2.352-.009-1.556h.222l2.608-2.769h1.525l-2.974 3.153h-.2zm-1.172 2.22v-8.727h1.274V213zm4.133 0-2.343-3.111.877-.89 3.03 4.001zm8.778-6.545v1.022h-3.576v-1.022zm-2.617-1.569h1.274v6.192q0 .37.111.558a.58.58 0 0 0 .286.252q.178.063.387.064.154 0 .269-.022l.179-.034.23 1.053a2.534 2.534 0 0 1-.827.136 2.2 2.2 0 0 1-.937-.179 1.6 1.6 0 0 1-.703-.579q-.269-.393-.269-.985zm6.713 8.246q-.92 0-1.607-.422a2.84 2.84 0 0 1-1.065-1.18q-.38-.759-.379-1.773 0-1.019.379-1.781a2.84 2.84 0 0 1 1.065-1.185q.686-.422 1.607-.422t1.606.422q.687.421 1.066 1.185.38.762.379 1.781 0 1.014-.379 1.773a2.84 2.84 0 0 1-1.066 1.18q-.685.422-1.606.422m.004-1.07q.596 0 .989-.315.392-.315.579-.839a3.3 3.3 0 0 0 .192-1.155q0-.627-.192-1.151a1.9 1.9 0 0 0-.579-.848q-.393-.32-.989-.319-.6 0-.997.319a1.9 1.9 0 0 0-.584.848q-.187.524-.187 1.151 0 .63.187 1.155.192.524.584.839.397.315.997.315m7.747.938v-8.727h1.317v7.593h3.955V213zm9.429.132q-.921 0-1.607-.422a2.84 2.84 0 0 1-1.065-1.18q-.38-.759-.379-1.773 0-1.019.379-1.781a2.84 2.84 0 0 1 1.065-1.185q.686-.422 1.607-.422t1.606.422q.687.421 1.066 1.185.379.762.379 1.781 0 1.014-.379 1.773a2.84 2.84 0 0 1-1.066 1.18q-.686.422-1.606.422m.004-1.07q.596 0 .989-.315.392-.315.579-.839a3.3 3.3 0 0 0 .192-1.155q0-.627-.192-1.151a1.9 1.9 0 0 0-.579-.848q-.393-.32-.989-.319-.601 0-.997.319a1.9 1.9 0 0 0-.584.848q-.188.524-.188 1.151 0 .63.188 1.155.191.524.584.839.396.315.997.315m7.213 3.529q-.78 0-1.342-.205a2.6 2.6 0 0 1-.912-.541 2.3 2.3 0 0 1-.528-.737l1.095-.452q.115.187.307.397.195.213.528.362.337.149.865.149.724 0 1.198-.354.473-.35.473-1.116v-1.287h-.081a3 3 0 0 1-.333.464 1.8 1.8 0 0 1-.588.443q-.375.188-.976.188-.776 0-1.397-.362-.618-.367-.981-1.078-.358-.716-.358-1.76t.354-1.79q.359-.746.98-1.142a2.55 2.55 0 0 1 1.411-.401q.609 0 .984.205.375.2.584.469.213.268.328.473h.094v-1.061h1.248v6.69q0 .843-.392 1.385a2.3 2.3 0 0 1-1.061.801q-.665.26-1.5.26m-.012-3.746q.55 0 .929-.256.382-.26.579-.741.2-.486.2-1.163 0-.66-.196-1.164a1.73 1.73 0 0 0-.575-.784q-.38-.285-.937-.285-.576 0-.959.298a1.8 1.8 0 0 0-.58.801 3.2 3.2 0 0 0-.192 1.134q0 .643.196 1.129t.58.758q.388.273.955.273m4.674 1.155v-6.545h1.274V213zm.644-7.555a.8.8 0 0 1-.571-.222.72.72 0 0 1-.235-.537.7.7 0 0 1 .235-.537.8.8 0 0 1 .571-.226q.332 0 .566.226.24.222.239.537a.71.71 0 0 1-.239.537.8.8 0 0 1-.566.222m3.619 3.669V213h-1.274v-6.545h1.223v1.065h.081q.225-.52.707-.835.486-.316 1.223-.316.67 0 1.172.282.503.276.78.826.276.55.277 1.36V213h-1.275v-4.01q0-.711-.37-1.112-.37-.405-1.019-.405-.443 0-.788.192a1.4 1.4 0 0 0-.541.562q-.196.367-.196.887"/></svg>