<svg xmlns="http://www.w3.org/2000/svg" width="310" height="229" fill="none"><g filter="url(#a)"><rect width="300" height="219" x="5" y="4" fill="#fff" rx="8" shape-rendering="crispEdges"/><rect width="301" height="220" x="4.5" y="3.5" stroke="#E4E4E7" rx="8.5" shape-rendering="crispEdges"/><path fill="#71717A" d="M30.119 45V34.818h3.629q1.183 0 1.964.408.785.408 1.173 1.128.388.717.388 1.656 0 .935-.393 1.646-.389.705-1.173 1.098-.78.393-1.964.393h-2.75v-1.322h2.61q.746 0 1.214-.214.472-.214.69-.622.22-.407.22-.98 0-.576-.224-.998a1.44 1.44 0 0 0-.691-.647q-.468-.228-1.228-.228h-1.93V45zm5.026-4.594L37.66 45h-1.75l-2.465-4.594zm7.073 4.748q-1.128 0-1.944-.482a3.27 3.27 0 0 1-1.252-1.367q-.438-.885-.438-2.074 0-1.173.438-2.068a3.4 3.4 0 0 1 1.232-1.397q.795-.502 1.86-.502.645 0 1.253.214.606.213 1.088.671t.761 1.188q.279.727.279 1.765v.527h-6.07v-1.113h4.613q0-.587-.239-1.04a1.8 1.8 0 0 0-.671-.72 1.88 1.88 0 0 0-1.004-.264 1.94 1.94 0 0 0-1.094.308 2.07 2.07 0 0 0-.716.796 2.3 2.3 0 0 0-.248 1.059v.87q0 .765.268 1.302.273.537.76.82.487.28 1.14.28.421 0 .77-.12.348-.125.601-.368.255-.244.388-.602l1.407.254a2.55 2.55 0 0 1-.606 1.089 2.94 2.94 0 0 1-1.09.72q-.65.255-1.486.254m10.648-5.926-1.347.239a1.6 1.6 0 0 0-.269-.493 1.3 1.3 0 0 0-.487-.382q-.308-.15-.77-.15-.632 0-1.054.284-.423.278-.423.72 0 .384.283.617.284.234.915.383l1.213.278q1.055.244 1.571.751.517.507.517 1.318 0 .686-.398 1.223-.392.532-1.098.835-.702.303-1.626.303-1.283 0-2.093-.547-.81-.552-.994-1.566l1.437-.219q.134.562.551.85.418.284 1.09.284.73 0 1.167-.303.438-.309.438-.751a.78.78 0 0 0-.268-.602q-.264-.243-.81-.367l-1.294-.284q-1.068-.243-1.58-.775-.508-.532-.508-1.348 0-.675.378-1.183.378-.507 1.044-.79.666-.29 1.527-.289 1.237 0 1.948.537.711.532.94 1.427m5.348-1.864v1.193h-4.17v-1.193zm-3.052-1.83h1.486v7.224q0 .432.13.651.129.214.333.293.209.075.452.075.18 0 .313-.025.135-.025.209-.04l.268 1.228a2.5 2.5 0 0 1-.367.1q-.24.054-.597.06a2.6 2.6 0 0 1-1.094-.21 1.88 1.88 0 0 1-.82-.675q-.313-.458-.313-1.149zM59.859 45v-7.636h1.486V45zm.75-8.815a.95.95 0 0 1-.666-.258.84.84 0 0 1-.273-.627.83.83 0 0 1 .273-.626.94.94 0 0 1 .666-.264q.389 0 .662.264a.82.82 0 0 1 .278.626q0 .363-.278.627a.93.93 0 0 1-.662.258m4.223 4.28V45h-1.487v-7.636h1.427v1.242h.094q.264-.606.826-.974.566-.368 1.426-.368.78 0 1.368.328.585.324.91.965.323.64.323 1.586V45h-1.487v-4.678q0-.83-.433-1.298-.432-.472-1.188-.472a1.86 1.86 0 0 0-.92.224q-.398.223-.63.656-.23.428-.23 1.034m10.082 7.558q-.91 0-1.566-.239-.651-.239-1.064-.631a2.65 2.65 0 0 1-.617-.86l1.278-.527q.135.218.358.462.229.249.617.423.392.174 1.009.174.845 0 1.397-.413.552-.408.552-1.303v-1.501h-.095q-.135.243-.388.542a2.1 2.1 0 0 1-.686.517q-.436.219-1.138.219-.905 0-1.63-.423-.722-.427-1.144-1.258-.418-.835-.418-2.053t.413-2.088q.418-.87 1.143-1.333a2.97 2.97 0 0 1 1.646-.467q.711 0 1.148.239.438.234.681.547.25.314.383.552h.11v-1.238h1.456v7.805q0 .984-.457 1.616-.458.63-1.238.934-.775.304-1.75.304m-.015-4.37q.641 0 1.084-.299.447-.303.676-.865.234-.566.234-1.357 0-.77-.23-1.357-.228-.587-.67-.915-.443-.333-1.094-.333-.671 0-1.119.348-.447.343-.676.935-.224.591-.224 1.322 0 .75.23 1.318.228.566.675.884.453.32 1.114.319M84.177 45V34.818h1.536v4.425h5.076v-4.425h1.542V45h-1.542v-4.44h-5.076V45zm10.39 0V34.818h3.63q1.184 0 1.964.408.786.408 1.173 1.128.388.717.388 1.656 0 .935-.393 1.646-.387.705-1.173 1.098-.78.393-1.964.393h-2.75v-1.322h2.61q.746 0 1.214-.214.472-.214.691-.622.219-.407.219-.98a2.1 2.1 0 0 0-.224-.998 1.45 1.45 0 0 0-.691-.647q-.466-.228-1.228-.228h-1.929V45zm5.027-4.594L102.11 45h-1.75l-2.466-4.594z"/><path fill="#09090B" d="M38.466 79.278a9.2 9.2 0 0 1-3.033-.527q-1.452-.516-2.605-1.68t-1.83-3.082q-.666-1.92-.666-4.713.01-2.566.587-4.584.587-2.029 1.67-3.44 1.094-1.413 2.616-2.148 1.52-.746 3.41-.746 2.038 0 3.6.795 1.56.786 2.505 2.138a6.5 6.5 0 0 1 1.154 3.033h-4.246q-.249-1.064-1.044-1.67-.795-.607-1.969-.607-1.989 0-3.023 1.73-1.023 1.73-1.044 4.703h.14a4.7 4.7 0 0 1 1.232-1.541 5.6 5.6 0 0 1 1.78-.984 6.4 6.4 0 0 1 2.118-.349q1.81 0 3.222.856a6.06 6.06 0 0 1 2.227 2.326q.816 1.482.815 3.391 0 2.068-.964 3.679-.955 1.611-2.675 2.525-1.71.906-3.977.895m-.02-3.38a3.36 3.36 0 0 0 3.013-1.77 3.74 3.74 0 0 0 .447-1.83q0-1.013-.447-1.82a3.37 3.37 0 0 0-1.213-1.282q-.776-.477-1.77-.477a3.4 3.4 0 0 0-1.382.278 3.5 3.5 0 0 0-1.104.776 3.73 3.73 0 0 0-1.004 2.535q0 .984.447 1.8a3.6 3.6 0 0 0 1.233 1.302 3.3 3.3 0 0 0 1.78.488M49.415 79v-3.102l7.249-6.712a27 27 0 0 0 1.55-1.61q.637-.716.965-1.403.328-.696.328-1.501 0-.895-.407-1.541a2.7 2.7 0 0 0-1.114-1.005q-.705-.357-1.6-.357-.936 0-1.632.377a2.6 2.6 0 0 0-1.073 1.084q-.378.705-.378 1.68h-4.087q0-1.998.905-3.47.904-1.47 2.535-2.277 1.63-.805 3.759-.805 2.188 0 3.808.776 1.631.766 2.536 2.127.904 1.363.904 3.122a6 6 0 0 1-.457 2.278q-.447 1.123-1.6 2.495-1.155 1.362-3.252 3.272L55.38 75.34v.14h8.551V79z"/><path fill="#71717A" d="M72.119 79V68.818h1.486v3.784h.09q.129-.24.373-.552a2.1 2.1 0 0 1 .676-.547q.433-.24 1.143-.239.925 0 1.65.468.726.467 1.14 1.347.416.88.417 2.118 0 1.238-.413 2.123-.413.88-1.133 1.357-.722.472-1.646.472-.696 0-1.139-.234a2.2 2.2 0 0 1-.686-.546 4 4 0 0 1-.382-.557h-.125V79zm1.456-3.818q0 .805.234 1.412.234.605.676.95.442.337 1.084.337.666 0 1.114-.353a2.2 2.2 0 0 0 .676-.97q.233-.61.233-1.376 0-.756-.228-1.357a2.1 2.1 0 0 0-.677-.95q-.447-.348-1.118-.348-.647 0-1.094.333-.443.333-.671.93-.23.596-.229 1.392m7.188 6.682v-10.5h1.452v1.238h.124q.129-.24.373-.552a2.1 2.1 0 0 1 .676-.547q.433-.24 1.143-.239.925 0 1.651.468.726.467 1.138 1.347.418.88.418 2.118t-.412 2.123q-.413.88-1.134 1.357-.721.472-1.646.472-.696 0-1.138-.234a2.2 2.2 0 0 1-.686-.546 4 4 0 0 1-.383-.557h-.09v4.052zm1.457-6.682q0 .805.233 1.412.234.605.676.95.443.337 1.084.337.667 0 1.114-.353a2.2 2.2 0 0 0 .676-.97q.234-.61.234-1.376 0-.756-.229-1.357a2.1 2.1 0 0 0-.676-.95q-.447-.348-1.119-.348-.646 0-1.093.333-.444.333-.672.93-.228.596-.228 1.392M89.404 79v-7.636h1.426v1.242h.095q.24-.63.78-.984.542-.358 1.298-.358.765 0 1.283.358.522.359.77.984h.08a2.15 2.15 0 0 1 .87-.974q.596-.368 1.422-.368 1.039 0 1.695.651.66.653.661 1.964V79h-1.486v-4.981q0-.776-.423-1.124a1.54 1.54 0 0 0-1.01-.348q-.725 0-1.128.447-.402.443-.402 1.139V79h-1.482v-5.076q0-.62-.388-1-.388-.377-1.009-.377-.423 0-.78.224-.353.218-.572.611a1.9 1.9 0 0 0-.214.91V79zM190.009 34.818l2.833 8.293h.115l2.833-8.293h1.661L193.787 45h-1.775l-3.664-10.182zm10.263 10.351q-.726 0-1.312-.268a2.2 2.2 0 0 1-.93-.79q-.338-.518-.338-1.269 0-.645.249-1.064.248-.417.671-.66.423-.245.944-.369a9 9 0 0 1 1.064-.189l1.114-.129q.427-.054.621-.174t.194-.388v-.035q0-.65-.368-1.009-.362-.357-1.083-.358-.751 0-1.184.333-.428.33-.591.731l-1.397-.318q.248-.697.726-1.123a2.9 2.9 0 0 1 1.108-.627 4.3 4.3 0 0 1 1.318-.199q.457 0 .969.11.517.104.965.387.452.285.74.81.29.523.289 1.358V45h-1.452v-1.044h-.06q-.144.288-.432.567t-.741.462q-.452.184-1.084.184m.324-1.193q.616 0 1.054-.244.441-.243.671-.636.233-.398.233-.85v-.985q-.079.08-.308.15-.224.064-.512.114-.288.045-.562.084l-.457.06a3.7 3.7 0 0 0-.791.184q-.353.129-.566.373-.21.238-.209.636 0 .552.407.835.408.279 1.04.279M206.021 45v-7.636h1.437v1.213h.079q.209-.616.736-.97a2.1 2.1 0 0 1 1.203-.358 6 6 0 0 1 .631.035v1.422a3 3 0 0 0-.318-.055 3 3 0 0 0-.457-.035q-.527 0-.94.224a1.66 1.66 0 0 0-.885 1.497V45zm5.373 0v-7.636h1.486V45zm.751-8.815a.95.95 0 0 1-.667-.258.84.84 0 0 1-.273-.627q0-.368.273-.626a.94.94 0 0 1 .667-.264.92.92 0 0 1 .661.264.83.83 0 0 1 .278.626q0 .363-.278.627a.93.93 0 0 1-.661.258m4.957 8.984a3.1 3.1 0 0 1-1.312-.268 2.2 2.2 0 0 1-.93-.79q-.338-.518-.338-1.269 0-.645.249-1.064.248-.417.671-.66a3.5 3.5 0 0 1 .945-.369 9 9 0 0 1 1.063-.189l1.114-.129q.427-.054.622-.174.193-.12.193-.388v-.035q0-.65-.367-1.009-.363-.357-1.084-.358-.751 0-1.184.333-.428.33-.591.731l-1.397-.318q.249-.697.726-1.123a2.9 2.9 0 0 1 1.108-.627 4.3 4.3 0 0 1 1.318-.199q.458 0 .969.11.518.104.965.387.451.285.741.81.288.523.288 1.358V45h-1.452v-1.044h-.059a2.1 2.1 0 0 1-.433.567q-.288.278-.741.462-.452.184-1.084.184m.324-1.193q.616 0 1.054-.244.442-.243.671-.636.233-.398.233-.85v-.985q-.079.08-.308.15-.224.064-.512.114-.288.045-.562.084l-.457.06a3.7 3.7 0 0 0-.791.184q-.353.129-.566.373-.21.238-.209.636 0 .552.408.835.407.279 1.039.279M222.97 45V34.818h1.487v3.784h.089q.13-.24.373-.552.244-.314.676-.547.433-.24 1.144-.239.924 0 1.65.467.726.468 1.139 1.348.417.88.417 2.118t-.412 2.123q-.413.88-1.134 1.357a2.93 2.93 0 0 1-1.645.472q-.696 0-1.139-.233a2.2 2.2 0 0 1-.686-.547 4 4 0 0 1-.383-.557h-.124V45zm1.457-3.818q0 .805.234 1.412.233.605.676.95.443.337 1.083.337.667 0 1.114-.353.447-.357.676-.97.234-.61.234-1.376 0-.756-.229-1.357a2.07 2.07 0 0 0-.676-.95q-.447-.348-1.119-.348-.645 0-1.093.333-.443.333-.671.93-.23.596-.229 1.392M231.615 45v-7.636h1.486V45zm.75-8.815a.95.95 0 0 1-.666-.258.84.84 0 0 1-.273-.627q0-.368.273-.626a.94.94 0 0 1 .666-.264q.388 0 .661.264a.82.82 0 0 1 .279.626q0 .363-.279.627a.93.93 0 0 1-.661.258m4.222-1.367V45h-1.486V34.818zm2 10.182v-7.636h1.487V45zm.751-8.815a.94.94 0 0 1-.666-.258.84.84 0 0 1-.274-.627q0-.368.274-.626a.93.93 0 0 1 .666-.264q.388 0 .661.264a.82.82 0 0 1 .279.626q0 .363-.279.627a.93.93 0 0 1-.661.258m6.3 1.179v1.193h-4.171v-1.193zm-3.052-1.83h1.486v7.224q0 .432.129.651.13.214.333.293.21.075.453.075.179 0 .313-.025.135-.025.209-.04l.268 1.228a2.5 2.5 0 0 1-.368.1 3 3 0 0 1-.596.06 2.6 2.6 0 0 1-1.094-.21 1.9 1.9 0 0 1-.82-.675q-.313-.458-.313-1.149zm5.636 12.33a3 3 0 0 1-.606-.055 2 2 0 0 1-.408-.11l.358-1.218q.408.11.726.095a.87.87 0 0 0 .562-.239q.248-.223.437-.73l.184-.508-2.794-7.735h1.591l1.934 5.926h.079l1.934-5.926h1.596l-3.147 8.655a3.4 3.4 0 0 1-.557 1.01 2.16 2.16 0 0 1-.805.626q-.468.209-1.084.209"/><path fill="#09090B" d="M197.178 79.278q-2.228 0-3.968-.765-1.73-.776-2.734-2.128-.994-1.363-1.024-3.142h4.335q.04.746.487 1.312.457.558 1.213.865.756.309 1.701.309.984 0 1.74-.348.755-.348 1.183-.965.427-.616.427-1.422a2.38 2.38 0 0 0-.457-1.441q-.447-.637-1.293-.995-.834-.358-1.988-.358h-1.899v-3.162h1.899q.974 0 1.72-.338.756-.338 1.173-.934.418-.607.418-1.412 0-.765-.368-1.343a2.43 2.43 0 0 0-1.014-.914q-.647-.329-1.512-.328-.875 0-1.601.318-.725.307-1.163.885a2.33 2.33 0 0 0-.467 1.352h-4.127q.03-1.76 1.005-3.102.973-1.343 2.625-2.098 1.66-.765 3.748-.766 2.109 0 3.689.766t2.456 2.068q.885 1.293.875 2.903.01 1.71-1.064 2.854-1.064 1.143-2.774 1.452v.159q2.247.288 3.42 1.56 1.183 1.264 1.174 3.163.01 1.74-1.004 3.092-1.005 1.351-2.775 2.128-1.77.775-4.056.775m18.647 0q-2.108 0-3.758-.775-1.641-.776-2.606-2.138t-1.004-3.122h4.176q.07 1.183.995 1.919.924.736 2.197.736 1.014 0 1.79-.448a3.2 3.2 0 0 0 1.223-1.263q.447-.815.447-1.869 0-1.074-.457-1.889a3.23 3.23 0 0 0-1.243-1.273q-.795-.457-1.82-.467-.894 0-1.74.368-.835.368-1.302 1.004l-3.828-.686.964-10.739h12.449v3.52h-8.899l-.527 5.101h.119q.537-.756 1.621-1.253t2.426-.497q1.84 0 3.281.865a6.2 6.2 0 0 1 2.277 2.377q.835 1.5.826 3.46.01 2.058-.955 3.659-.954 1.59-2.675 2.506-1.71.904-3.977.904"/><path fill="#71717A" d="M230.999 79v-7.636h1.427v1.242h.095q.239-.63.78-.984.542-.358 1.298-.358.765 0 1.282.358.522.359.771.984h.08q.273-.61.87-.974.596-.368 1.421-.368 1.04 0 1.696.651.661.653.661 1.964V79h-1.487v-4.981q0-.776-.422-1.124a1.54 1.54 0 0 0-1.009-.348q-.726 0-1.129.447-.403.443-.403 1.139V79h-1.481v-5.076q0-.62-.388-1-.388-.377-1.009-.377-.423 0-.781.224-.353.218-.571.611a1.87 1.87 0 0 0-.214.91V79zm18.096-5.772-1.348.239a1.6 1.6 0 0 0-.268-.493 1.3 1.3 0 0 0-.487-.382q-.309-.15-.771-.15-.631 0-1.054.284-.423.279-.423.72 0 .383.284.617t.915.383l1.213.278q1.053.244 1.571.751.516.507.517 1.318 0 .686-.398 1.223-.393.532-1.099.835-.7.303-1.625.303-1.283 0-2.093-.547-.811-.552-.995-1.566l1.437-.219q.134.562.552.85.417.285 1.089.284.73 0 1.168-.303.438-.309.438-.751a.78.78 0 0 0-.269-.602q-.264-.244-.81-.367l-1.293-.284q-1.07-.243-1.581-.775-.507-.532-.507-1.348 0-.675.378-1.183.378-.507 1.044-.79.666-.29 1.526-.289 1.238 0 1.949.537.71.532.94 1.427"/><path stroke="#E4E4E7" stroke-dasharray="4 4" d="M21.5 132h267M21.5 152h267M21.5 172h267M21.5 92h267"/><path stroke="#EA580C" d="M25 127s12.798-16.377 28.5-22.5c33.58-13.094 54.786 76.198 79 49.5 19.5-21.5 21.226-54.78 46-38.5C196 127 192.589 143.519 208 142c15.472-1.525 29-22.5 35.5-26.5s34-7 34-7"/><path fill="#71717A" d="M11.373 188.273h1.598l2.778 6.784h.103l2.778-6.784h1.598V197h-1.253v-6.315h-.08l-2.575 6.302h-1.04l-2.573-6.307h-.081V197h-1.253zm13.424 8.859q-.92 0-1.606-.422a2.84 2.84 0 0 1-1.066-1.18q-.38-.759-.379-1.773 0-1.019.38-1.781a2.84 2.84 0 0 1 1.065-1.185q.686-.422 1.606-.422.921 0 1.607.422.686.421 1.065 1.185.38.762.38 1.781 0 1.014-.38 1.773a2.84 2.84 0 0 1-1.065 1.18q-.686.422-1.607.422m.005-1.07q.596 0 .988-.315.393-.315.58-.839.19-.525.191-1.155a3.3 3.3 0 0 0-.191-1.151 1.9 1.9 0 0 0-.58-.848q-.391-.32-.988-.319-.601 0-.998.319a1.9 1.9 0 0 0-.583.848q-.188.524-.188 1.151 0 .63.188 1.155.191.524.583.839.397.315.998.315m5.743-2.948V197H29.27v-6.545h1.223v1.065h.08q.226-.52.708-.835.486-.316 1.223-.316.67 0 1.172.282.502.276.78.826.276.55.277 1.36V197h-1.275v-4.01q0-.711-.37-1.112-.37-.405-1.019-.405-.443 0-.788.192a1.4 1.4 0 0 0-.541.562q-.195.367-.196.887M58.528 189.406v-1.133h6.755v1.133H62.56V197h-1.313v-7.594zm11.4 4.88v-3.831h1.279V197h-1.253v-1.134h-.068q-.226.525-.724.874-.494.345-1.232.345a2.2 2.2 0 0 1-1.116-.277 1.94 1.94 0 0 1-.759-.831q-.273-.549-.273-1.359v-4.163h1.275v4.009q0 .67.37 1.066t.963.396q.358 0 .712-.179.358-.179.592-.541.239-.362.235-.92m5.812 2.846q-.967 0-1.666-.413A2.8 2.8 0 0 1 73 195.547q-.375-.759-.375-1.777 0-1.006.375-1.773.38-.766 1.057-1.197.681-.43 1.594-.431.554 0 1.073.184.52.183.934.575.413.392.652 1.018.238.622.238 1.513v.452h-5.203v-.955H77.3q0-.503-.205-.89a1.54 1.54 0 0 0-.575-.618 1.6 1.6 0 0 0-.86-.226q-.538 0-.938.264a1.8 1.8 0 0 0-.614.682 2 2 0 0 0-.213.908v.745q0 .657.23 1.117.234.46.652.703.418.239.976.239.362 0 .66-.103.3-.106.516-.315.218-.209.332-.516l1.206.218q-.144.532-.52.933-.37.396-.933.618a3.5 3.5 0 0 1-1.274.217M103.668 197l-2.421-8.727h1.385l1.7 6.758h.081l1.769-6.758h1.372l1.768 6.763h.081l1.696-6.763h1.39L110.064 197h-1.325l-1.837-6.537h-.068L104.997 197zm12.095.132q-.967 0-1.666-.413a2.8 2.8 0 0 1-1.074-1.172q-.375-.759-.375-1.777 0-1.006.375-1.773a2.9 2.9 0 0 1 1.057-1.197q.682-.43 1.594-.431.554 0 1.074.184.52.183.933.575t.652 1.018q.239.622.239 1.513v.452h-5.203v-.955h3.954q0-.503-.204-.89a1.55 1.55 0 0 0-.576-.618 1.6 1.6 0 0 0-.86-.226q-.537 0-.938.264a1.8 1.8 0 0 0-.614.682 2 2 0 0 0-.213.908v.745q0 .657.23 1.117.235.46.652.703.418.239.976.239.363 0 .661-.103.299-.106.515-.315a1.4 1.4 0 0 0 .333-.516l1.206.218q-.145.532-.52.933-.37.396-.933.618a3.5 3.5 0 0 1-1.275.217m6.673-.004q-.793 0-1.415-.405-.618-.41-.972-1.163-.35-.76-.349-1.82 0-1.06.354-1.815.357-.755.98-1.155a2.55 2.55 0 0 1 1.41-.401q.61 0 .98.205.376.2.58.469.209.268.324.473h.076v-3.243h1.275V197h-1.245v-1.018h-.106a3.4 3.4 0 0 1-.333.477 1.9 1.9 0 0 1-.588.469q-.375.2-.971.2m.281-1.087q.55 0 .929-.29.384-.294.579-.813.201-.52.201-1.211a3.3 3.3 0 0 0-.196-1.193 1.76 1.76 0 0 0-.576-.797q-.378-.285-.937-.285-.575 0-.959.298t-.579.814a3.3 3.3 0 0 0-.192 1.163q0 .656.196 1.181.197.523.579.831.388.302.955.302M148.528 189.406v-1.133h6.755v1.133h-2.723V197h-1.313v-7.594zm9.419 3.708V197h-1.274v-8.727h1.257v3.247h.081q.23-.528.703-.84.472-.31 1.236-.311.674 0 1.176.277.507.278.784.827.281.546.281 1.364V197h-1.274v-4.01q0-.72-.37-1.116-.371-.4-1.032-.401-.452 0-.809.192a1.4 1.4 0 0 0-.559.562q-.2.367-.2.887m10.091 1.172v-3.831h1.278V197h-1.252v-1.134h-.069q-.226.525-.724.874-.495.345-1.232.345a2.2 2.2 0 0 1-1.116-.277 1.94 1.94 0 0 1-.759-.831q-.272-.549-.272-1.359v-4.163h1.274v4.009q0 .67.371 1.066.37.396.963.396.357 0 .711-.179.358-.179.593-.541.239-.362.234-.92M194.959 197v-8.727h5.412v1.133h-4.095v2.659h3.707v1.13h-3.707V197zm6.847 0v-6.545h1.231v1.039h.068q.18-.528.631-.831a1.8 1.8 0 0 1 1.031-.306 5 5 0 0 1 .542.029v1.219a2 2 0 0 0-.273-.047 2.6 2.6 0 0 0-.392-.03q-.452 0-.806.192-.349.188-.554.524a1.4 1.4 0 0 0-.204.759V197zm4.605 0v-6.545h1.274V197zm.644-7.555a.8.8 0 0 1-.571-.222.72.72 0 0 1-.235-.537.7.7 0 0 1 .235-.537.8.8 0 0 1 .571-.226q.332 0 .566.226.24.222.239.537a.71.71 0 0 1-.239.537.8.8 0 0 1-.566.222M241.719 190.565a1.25 1.25 0 0 0-.563-.937q-.494-.337-1.244-.337a2.3 2.3 0 0 0-.929.171 1.4 1.4 0 0 0-.609.46 1.1 1.1 0 0 0-.213.66q0 .312.144.537.15.226.388.38.243.149.52.251.277.097.533.162l.852.222q.417.102.857.277a3.4 3.4 0 0 1 .813.46q.375.285.606.707.234.422.234 1.01 0 .741-.384 1.317-.378.575-1.103.907-.72.333-1.743.333-.98 0-1.696-.311-.716-.312-1.121-.882-.405-.575-.447-1.364h1.321q.038.473.306.788.273.312.695.465.426.149.933.149.558 0 .993-.175.44-.179.691-.494.25-.32.251-.746a.92.92 0 0 0-.222-.635 1.6 1.6 0 0 0-.592-.409 6 6 0 0 0-.839-.285l-1.032-.282q-1.048-.285-1.662-.839-.609-.554-.609-1.466 0-.754.409-1.317a2.7 2.7 0 0 1 1.108-.873 3.8 3.8 0 0 1 1.577-.316q.886 0 1.564.311.681.311 1.074.857.391.542.409 1.244zm4.765 6.58q-.622 0-1.125-.23a1.9 1.9 0 0 1-.797-.678q-.29-.442-.29-1.086 0-.555.213-.912.213-.359.576-.567.362-.209.809-.315.449-.107.912-.162l.955-.111q.366-.047.533-.149.166-.103.166-.333v-.03q0-.558-.316-.865-.31-.306-.929-.306-.643 0-1.014.285-.366.281-.507.626l-1.197-.272q.213-.597.622-.963.413-.37.95-.537a3.7 3.7 0 0 1 1.129-.171q.393 0 .831.094.444.09.827.332.388.243.635.695.247.447.247 1.163V197h-1.244v-.895h-.051a1.8 1.8 0 0 1-.371.486 2 2 0 0 1-.635.396 2.5 2.5 0 0 1-.929.158m.277-1.023q.528 0 .903-.209.38-.209.576-.545.2-.34.2-.729v-.844q-.068.07-.264.128-.192.056-.439.098l-.482.073-.392.051a3 3 0 0 0-.677.158q-.303.11-.486.319-.179.205-.179.546 0 .473.349.716.35.238.891.238m7.706-5.667v1.022h-3.576v-1.022zm-2.617-1.569h1.274v6.192q0 .37.111.558a.58.58 0 0 0 .286.252q.178.063.387.064.154 0 .269-.022l.179-.034.23 1.053a2.534 2.534 0 0 1-.827.136 2.2 2.2 0 0 1-.937-.179 1.6 1.6 0 0 1-.703-.579q-.269-.393-.269-.985zM285.719 190.565a1.25 1.25 0 0 0-.563-.937q-.494-.337-1.244-.337a2.3 2.3 0 0 0-.929.171 1.4 1.4 0 0 0-.609.46 1.1 1.1 0 0 0-.213.66q0 .312.144.537.15.226.388.38.243.149.52.251.277.097.533.162l.852.222q.417.102.857.277a3.4 3.4 0 0 1 .813.46q.375.285.606.707.234.422.234 1.01 0 .741-.384 1.317-.378.575-1.103.907-.72.333-1.743.333-.98 0-1.696-.311-.716-.312-1.121-.882-.405-.575-.447-1.364h1.321q.038.473.306.788.273.312.695.465.426.149.933.149.558 0 .993-.175.44-.179.691-.494.25-.32.251-.746a.92.92 0 0 0-.222-.635 1.6 1.6 0 0 0-.592-.409 6 6 0 0 0-.839-.285l-1.032-.282q-1.048-.285-1.662-.839-.609-.554-.609-1.466 0-.754.409-1.317a2.7 2.7 0 0 1 1.108-.873 3.8 3.8 0 0 1 1.577-.316q.886 0 1.564.311.681.311 1.074.857.391.542.409 1.244zm7.006 3.721v-3.831h1.279V197h-1.253v-1.134h-.068q-.226.525-.725.874-.494.345-1.231.345-.631 0-1.117-.277a1.94 1.94 0 0 1-.758-.831q-.273-.549-.273-1.359v-4.163h1.274v4.009q0 .67.371 1.066.37.396.963.396.358 0 .712-.179.357-.179.592-.541.239-.362.234-.92m4.265-1.172V197h-1.274v-6.545h1.223v1.065h.081q.225-.52.707-.835.486-.316 1.223-.316.67 0 1.172.282.502.276.78.826.277.55.277 1.36V197h-1.274v-4.01q0-.711-.371-1.112-.371-.405-1.018-.405-.444 0-.789.192a1.4 1.4 0 0 0-.541.562q-.196.367-.196.887"/><circle cx="180" cy="119" r="3" fill="#EA580C"/><g filter="url(#b)"><rect width="136" height="42" x="46" y="128" fill="#fff" rx="8" shape-rendering="crispEdges"/><rect width="135" height="41" x="46.5" y="128.5" stroke="#E4E4E7" rx="7.5" shape-rendering="crispEdges"/><rect width="4" height="32" x="54" y="133" fill="#EA580C" rx="2"/><path fill="#09090B" d="M68.35 135.273h1.313v6.187q0 .84-.332 1.436a2.2 2.2 0 0 1-.925.912q-.596.311-1.398.311-.737 0-1.325-.268a2.2 2.2 0 0 1-.925-.78q-.336-.516-.336-1.253h1.308q0 .362.166.627.171.264.465.413.298.145.682.145.417 0 .707-.175a1.13 1.13 0 0 0 .447-.524q.154-.345.154-.844zm5.032 8.872q-.622 0-1.125-.23a1.9 1.9 0 0 1-.796-.678q-.29-.442-.29-1.086 0-.555.213-.912.213-.359.575-.567.362-.209.81-.315a8 8 0 0 1 .912-.162l.954-.111q.367-.047.533-.149.165-.103.166-.333v-.03q0-.558-.315-.865-.311-.306-.93-.306-.642 0-1.013.285-.368.281-.507.626l-1.198-.272q.213-.597.622-.963.414-.37.95-.537a3.7 3.7 0 0 1 1.13-.171q.392 0 .83.094.444.09.828.332.388.243.634.695.248.447.248 1.163V144h-1.245v-.895h-.05a1.8 1.8 0 0 1-.372.486 2 2 0 0 1-.635.396 2.5 2.5 0 0 1-.929.158m.277-1.023q.53 0 .904-.209.379-.209.575-.545.2-.34.2-.729v-.844a.65.65 0 0 1-.264.128q-.192.056-.439.098l-.481.073-.392.051a3 3 0 0 0-.678.158q-.303.11-.486.319-.179.205-.179.546 0 .473.35.716.35.238.89.238m5.925-3.008V144H78.31v-6.545h1.223v1.065h.08q.227-.52.708-.835.486-.316 1.223-.316.67 0 1.172.282.502.276.78.826.276.55.277 1.36V144h-1.274v-4.01q0-.711-.371-1.112-.37-.405-1.019-.405-.443 0-.788.192a1.4 1.4 0 0 0-.541.562q-.195.367-.196.887m10.044 1.172v-3.831h1.278V144h-1.253v-1.134h-.068a2.04 2.04 0 0 1-.724.874q-.495.345-1.232.345a2.2 2.2 0 0 1-1.116-.277 1.94 1.94 0 0 1-.759-.831q-.273-.549-.273-1.359v-4.163h1.275v4.009q0 .67.37 1.066.372.396.963.396.359 0 .712-.179a1.5 1.5 0 0 0 .593-.541q.239-.362.234-.92m4.895 2.859q-.623 0-1.125-.23a1.9 1.9 0 0 1-.797-.678q-.29-.442-.29-1.086 0-.555.213-.912.213-.359.576-.567.361-.209.81-.315a8 8 0 0 1 .911-.162l.955-.111q.366-.047.533-.149.165-.103.166-.333v-.03q0-.558-.316-.865-.311-.306-.928-.306-.645 0-1.015.285-.366.281-.507.626l-1.197-.272a2.3 2.3 0 0 1 .622-.963q.413-.37.95-.537a3.7 3.7 0 0 1 1.13-.171q.391 0 .83.094.444.09.827.332.388.243.635.695.247.447.247 1.163V144H96.51v-.895h-.051a1.8 1.8 0 0 1-.371.486 2 2 0 0 1-.635.396 2.5 2.5 0 0 1-.929.158m.277-1.023q.529 0 .904-.209.378-.209.575-.545.2-.34.2-.729v-.844a.65.65 0 0 1-.264.128q-.191.056-.44.098-.246.039-.48.073l-.393.051a3 3 0 0 0-.677.158q-.303.11-.486.319-.18.205-.179.546 0 .473.35.716.349.238.89.238m4.65.878v-6.545h1.232v1.039h.068q.179-.528.631-.831a1.8 1.8 0 0 1 1.031-.306 5 5 0 0 1 .541.029v1.219a2 2 0 0 0-.273-.047q-.195-.03-.392-.03a1.66 1.66 0 0 0-.805.192 1.43 1.43 0 0 0-.759 1.283V144zm5.61 2.455q-.285 0-.52-.047a1.7 1.7 0 0 1-.349-.094l.307-1.044q.35.093.622.081a.75.75 0 0 0 .482-.205q.213-.191.375-.626l.157-.435-2.395-6.63h1.364l1.658 5.079h.068l1.658-5.079h1.367l-2.697 7.419q-.187.51-.477.865a1.9 1.9 0 0 1-.691.537 2.3 2.3 0 0 1-.929.179m8.967-4.16v-1.065l3.772-5.957h.839v1.568h-.533l-2.697 4.27v.068h5.169v1.116zm4.138 1.705v-2.028l.009-.486v-6.213h1.248V144zm5.244-1.193-.064.464a7.5 7.5 0 0 1-.218 1.066 26.162 26.162 0 0 1-.571 1.794h-.903l.153-.716q.099-.448.192-1.002.094-.553.141-1.129l.042-.477zm4.817 1.193v-.955l2.953-3.059q.474-.5.78-.874.311-.38.465-.72.153-.341.153-.724 0-.435-.204-.75a1.34 1.34 0 0 0-.559-.49 1.8 1.8 0 0 0-.797-.175q-.468 0-.818.192a1.3 1.3 0 0 0-.537.541 1.7 1.7 0 0 0-.187.818h-1.257q0-.797.366-1.393a2.5 2.5 0 0 1 1.006-.925q.639-.333 1.453-.333.822 0 1.449.329.63.323.984.886.354.559.354 1.261 0 .486-.183.951-.18.463-.627 1.035-.447.567-1.244 1.376l-1.734 1.816v.064h3.929V144zm10.398.145q-1.01-.005-1.726-.533-.715-.528-1.095-1.538t-.379-2.433q0-1.42.379-2.425.384-1.006 1.099-1.534.72-.529 1.722-.529t1.717.533q.717.529 1.095 1.534.384 1.002.384 2.421 0 1.427-.379 2.437-.38 1.006-1.095 1.538-.717.53-1.722.529m0-1.138q.886 0 1.385-.865.503-.865.503-2.501 0-1.087-.23-1.837-.226-.755-.652-1.142a1.43 1.43 0 0 0-1.006-.392q-.882 0-1.385.869-.502.87-.507 2.502 0 1.09.226 1.845.23.75.652 1.138.421.383 1.014.383m4.708.993v-.955l2.953-3.059q.472-.5.78-.874.31-.38.464-.72a1.75 1.75 0 0 0 .154-.724q0-.435-.205-.75a1.33 1.33 0 0 0-.558-.49 1.8 1.8 0 0 0-.797-.175 1.7 1.7 0 0 0-.818.192 1.3 1.3 0 0 0-.537.541 1.7 1.7 0 0 0-.188.818h-1.257q0-.797.367-1.393a2.5 2.5 0 0 1 1.005-.925 3.1 3.1 0 0 1 1.453-.333q.823 0 1.449.329.631.323.985.886.353.559.353 1.261 0 .486-.183.951-.179.463-.626 1.035-.448.567-1.245 1.376l-1.734 1.816v.064h3.929V144zm6.988-1.705v-1.065l3.772-5.957h.839v1.568h-.533l-2.697 4.27v.068h5.169v1.116zm4.138 1.705v-2.028l.009-.486v-6.213h1.248V144z"/><path fill="#71717A" d="M65.057 163v-8.727h2.949q1.022 0 1.679.349.656.345.971.95.316.606.316 1.377t-.316 1.368-.967.937q-.652.337-1.666.337h-2.387v-.955h2.353q.698 0 1.125-.204.43-.205.622-.58.195-.38.196-.903 0-.525-.196-.916a1.33 1.33 0 0 0-.627-.605q-.43-.218-1.137-.218h-1.858V163zm4.108-3.92 2.147 3.92h-1.227l-2.113-3.92zm6.105 4.056q-.945 0-1.632-.417a2.8 2.8 0 0 1-1.052-1.176q-.367-.759-.367-1.765t.367-1.772q.37-.772 1.03-1.202.666-.435 1.552-.435.51 0 1.01.171.498.17.908.554.409.38.652 1.005.243.627.243 1.543v.426h-5.046v-.869h4.023a2.15 2.15 0 0 0-.222-.989 1.67 1.67 0 0 0-.622-.686 1.75 1.75 0 0 0-.946-.251q-.6 0-1.04.298-.435.294-.669.767a2.25 2.25 0 0 0-.234 1.014v.58q0 .741.256 1.257.26.512.72.78.46.264 1.07.264.395 0 .715-.111.324-.115.558-.341.235-.23.363-.571l.971.273a2.16 2.16 0 0 1-.515.869q-.363.371-.895.58a3.3 3.3 0 0 1-1.198.204m8.877-5.216-.904.256a1.7 1.7 0 0 0-.251-.439 1.2 1.2 0 0 0-.443-.358q-.282-.14-.72-.14-.602 0-1.002.277-.396.272-.396.694 0 .375.273.593.272.216.852.362l.971.238q.879.214 1.309.652.43.435.43 1.121 0 .562-.324 1.006a2.16 2.16 0 0 1-.895.699q-.575.255-1.338.255-1.002 0-1.657-.434-.657-.435-.832-1.27l.955-.239q.136.528.516.793.383.264 1.001.264.703 0 1.117-.298.417-.303.417-.725a.76.76 0 0 0-.238-.571q-.24-.234-.733-.349l-1.091-.256q-.9-.213-1.321-.66-.418-.452-.418-1.13 0-.554.311-.98.315-.426.857-.669a3 3 0 0 1 1.236-.243q.971 0 1.525.426.558.427.793 1.125m4.48-1.465v.852h-3.393v-.852zm-2.404-1.569h1.006v6.239q0 .426.123.639a.64.64 0 0 0 .324.281q.2.069.422.069.166 0 .273-.017l.17-.035.205.904a2.2 2.2 0 0 1-.75.119q-.427 0-.835-.183a1.66 1.66 0 0 1-.674-.558q-.264-.376-.264-.946zM90.139 163v-6.545h1.006V163zm.512-7.636a.71.71 0 0 1-.507-.201.64.64 0 0 1-.21-.481q0-.282.21-.482a.72.72 0 0 1 .507-.2q.294 0 .502.2a.64.64 0 0 1 .213.482.64.64 0 0 1-.213.481.7.7 0 0 1-.502.201m3.342 3.698V163h-1.006v-6.545h.972v1.022h.085q.23-.498.699-.801.468-.307 1.21-.307.664 0 1.163.273.498.269.776.818.276.546.277 1.381V163h-1.006v-4.091q0-.771-.4-1.202-.401-.434-1.1-.434-.482 0-.86.209-.375.209-.593.609t-.217.971m8.655 6.529q-.728 0-1.252-.188a2.7 2.7 0 0 1-.874-.485 2.7 2.7 0 0 1-.55-.64l.801-.562q.136.179.346.409.208.234.571.405.367.174.958.175.793 0 1.309-.384.515-.383.515-1.202v-1.329h-.085a6 6 0 0 1-.315.443 1.8 1.8 0 0 1-.58.464q-.375.201-1.014.201a2.73 2.73 0 0 1-1.423-.375 2.63 2.63 0 0 1-.993-1.091q-.362-.716-.362-1.739 0-1.005.353-1.751.354-.75.985-1.159.63-.414 1.457-.414.639 0 1.014.213.38.21.58.478.204.264.315.434h.102v-1.039h.972v6.733q0 .843-.384 1.372a2.17 2.17 0 0 1-1.022.779 3.9 3.9 0 0 1-1.424.252m-.034-3.597q.606 0 1.023-.277.417-.276.635-.797.217-.52.217-1.244 0-.707-.213-1.248a1.87 1.87 0 0 0-.63-.848q-.419-.307-1.032-.307-.639 0-1.065.324a1.97 1.97 0 0 0-.635.869 3.4 3.4 0 0 0-.209 1.21q0 .683.213 1.206.217.52.64.818.426.294 1.056.294"/><path fill="#09090B" d="M162.801 163.119a3.3 3.3 0 0 1-1.074-.204 2.6 2.6 0 0 1-.98-.661q-.443-.468-.711-1.265-.269-.801-.269-2.012 0-1.158.217-2.054.217-.899.631-1.512.414-.618.997-.938.588-.32 1.326-.32.733 0 1.303.294.576.291.938.81t.469 1.198h-1.04a1.92 1.92 0 0 0-.563-.976q-.417-.388-1.107-.388-1.015 0-1.599.882-.579.882-.583 2.476h.068q.238-.363.567-.618.332-.26.733-.401.4-.14.848-.14.75 0 1.372.375.622.37.997 1.027.375.651.375 1.496 0 .81-.362 1.482a2.76 2.76 0 0 1-1.019 1.066q-.651.392-1.534.383m0-.937q.537 0 .963-.269.43-.269.678-.72.25-.451.251-1.005 0-.541-.243-.985a1.86 1.86 0 0 0-.66-.712 1.75 1.75 0 0 0-.955-.264q-.405 0-.754.162a1.9 1.9 0 0 0-.614.435 2.1 2.1 0 0 0-.409.635 2.018 2.018 0 0 0 .767 2.446q.431.276.976.277m4.591.818v-.767l2.88-3.153q.507-.555.836-.964a3.6 3.6 0 0 0 .485-.775q.162-.366.162-.767a1.4 1.4 0 0 0-.221-.797 1.44 1.44 0 0 0-.597-.52 1.9 1.9 0 0 0-.852-.183q-.503 0-.878.209a1.43 1.43 0 0 0-.575.575 1.8 1.8 0 0 0-.201.869h-1.005q0-.767.353-1.346.354-.58.964-.904a2.9 2.9 0 0 1 1.376-.324q.766 0 1.359.324t.929.874q.337.55.337 1.223 0 .481-.175.942-.17.456-.596 1.018-.423.558-1.172 1.364l-1.96 2.096v.068h4.056V163z"/></g></g><defs><filter id="a" width="310" height="229" x="0" y="0" color-interpolation-filters="sRGB" filterUnits="userSpaceOnUse"><feFlood flood-opacity="0" result="BackgroundImageFix"/><feColorMatrix in="SourceAlpha" result="hardAlpha" values="0 0 0 0 0 0 0 0 0 0 0 0 0 0 0 0 0 0 127 0"/><feOffset dy="1"/><feGaussianBlur stdDeviation="2"/><feComposite in2="hardAlpha" operator="out"/><feColorMatrix values="0 0 0 0 0.0470588 0 0 0 0 0.0470588 0 0 0 0 0.0509804 0 0 0 0.05 0"/><feBlend in2="BackgroundImageFix" result="effect1_dropShadow_15855_160781"/><feBlend in="SourceGraphic" in2="effect1_dropShadow_15855_160781" result="shape"/></filter><filter id="b" width="142" height="49" x="43" y="128" color-interpolation-filters="sRGB" filterUnits="userSpaceOnUse"><feFlood flood-opacity="0" result="BackgroundImageFix"/><feColorMatrix in="SourceAlpha" result="hardAlpha" values="0 0 0 0 0 0 0 0 0 0 0 0 0 0 0 0 0 0 127 0"/><feMorphology in="SourceAlpha" radius="1" result="effect1_dropShadow_15855_160781"/><feOffset dy="4"/><feGaussianBlur stdDeviation="2"/><feComposite in2="hardAlpha" operator="out"/><feColorMatrix values="0 0 0 0 0.0470588 0 0 0 0 0.0470588 0 0 0 0 0.0509804 0 0 0 0.05 0"/><feBlend in2="BackgroundImageFix" result="effect1_dropShadow_15855_160781"/><feColorMatrix in="SourceAlpha" result="hardAlpha" values="0 0 0 0 0 0 0 0 0 0 0 0 0 0 0 0 0 0 127 0"/><feMorphology in="SourceAlpha" radius="1" result="effect2_dropShadow_15855_160781"/><feOffset dy="4"/><feGaussianBlur stdDeviation="2"/><feComposite in2="hardAlpha" operator="out"/><feColorMatrix values="0 0 0 0 0.0470588 0 0 0 0 0.0470588 0 0 0 0 0.0509804 0 0 0 0.1 0"/><feBlend in2="effect1_dropShadow_15855_160781" result="effect2_dropShadow_15855_160781"/><feBlend in="SourceGraphic" in2="effect2_dropShadow_15855_160781" result="shape"/></filter></defs></svg>