<svg xmlns="http://www.w3.org/2000/svg" width="300" height="196" fill="none"><path fill="#fff" d="M12 .5h276c6.351 0 11.5 5.149 11.5 11.5v172c0 6.351-5.149 11.5-11.5 11.5H12C5.649 195.5.5 190.351.5 184V12C.5 5.649 5.649.5 12 .5"/><path stroke="#E2E8F0" d="M12 .5h276c6.351 0 11.5 5.149 11.5 11.5v172c0 6.351-5.149 11.5-11.5 11.5H12C5.649 195.5.5 190.351.5 184V12C.5 5.649 5.649.5 12 .5Z"/><path fill="#DBEAFE" d="M24 36c0-6.627 5.373-12 12-12h16c6.627 0 12 5.373 12 12v16c0 6.627-5.373 12-12 12H36c-6.627 0-12-5.373-12-12z"/><path stroke="#2B7FFF" stroke-linecap="round" stroke-linejoin="round" stroke-width="1.5" d="M44.748 35.572c.059-.503-.532-.777-.835-.388l-7.802 10.013c-.258.33-.038.832.364.832h6.988c.285 0 .506.267.47.57l-.68 5.83c-.06.502.53.776.834.387l7.802-10.013c.258-.33.038-.832-.364-.832h-6.988c-.285 0-.506-.267-.47-.57z"/><path fill="#020618" d="M25.291 101V87.91h4.91q1.508 0 2.53.523 1.03.525 1.554 1.47.53.94.53 2.193 0 1.26-.537 2.186-.53.921-1.566 1.425-1.035.5-2.544.499h-3.496v-1.969h3.177q.883 0 1.444-.243.562-.25.831-.722.275-.48.275-1.176 0-.697-.275-1.189a1.75 1.75 0 0 0-.837-.754q-.563-.262-1.451-.262h-2.173V101zm6.763-5.932 3.24 5.932h-2.646l-3.183-5.932zm9.048 6.124q-1.477 0-2.55-.614a4.15 4.15 0 0 1-1.643-1.751q-.575-1.139-.575-2.679 0-1.515.575-2.659a4.35 4.35 0 0 1 1.623-1.79q1.042-.645 2.449-.645.908 0 1.712.294.813.288 1.432.895.627.607.985 1.547.357.933.358 2.224v.71H37.42v-1.56h5.83a2.5 2.5 0 0 0-.288-1.183 2.1 2.1 0 0 0-.786-.824q-.499-.3-1.164-.3-.71 0-1.246.345a2.4 2.4 0 0 0-.837.895q-.295.55-.3 1.208v1.361q0 .856.312 1.47.314.607.876.934.562.32 1.317.32a2.8 2.8 0 0 0 .914-.141q.41-.147.71-.429.3-.281.453-.696l2.16.243a3.37 3.37 0 0 1-.779 1.495q-.57.633-1.457.985-.889.345-2.033.345m9.149.006a4.1 4.1 0 0 1-1.682-.332 2.74 2.74 0 0 1-1.176-.997q-.428-.659-.428-1.624 0-.831.307-1.374.306-.543.837-.87a4.2 4.2 0 0 1 1.195-.492q.672-.172 1.388-.25.862-.088 1.4-.159.536-.077.78-.23.249-.16.249-.492v-.038q0-.723-.429-1.12-.428-.395-1.233-.395-.85 0-1.35.37-.491.372-.664.876l-2.16-.307q.255-.895.843-1.495a3.7 3.7 0 0 1 1.439-.908 5.5 5.5 0 0 1 1.879-.307q.71 0 1.413.166.702.166 1.284.55.583.377.934 1.029.357.652.358 1.63V101H53.21v-1.349h-.077q-.21.41-.594.767a2.9 2.9 0 0 1-.953.569q-.568.211-1.335.211m.6-1.7q.698 0 1.209-.275.51-.281.786-.742.28-.459.281-1.003v-1.157q-.11.09-.37.166-.256.077-.576.134t-.633.103l-.543.076a4 4 0 0 0-.927.23 1.54 1.54 0 0 0-.646.448q-.236.281-.236.729 0 .64.467.965.466.326 1.188.326m9.224-11.589V101h-2.314V87.91zm8.33 6.686V96.5h-5.893v-1.905zm7.337-3.413v1.79h-5.644v-1.79zm-4.25-2.353h2.313v9.218q0 .467.14.716a.76.76 0 0 0 .384.332q.237.09.525.09.216 0 .396-.032.185-.032.281-.058l.39 1.809q-.185.064-.53.141a4.3 4.3 0 0 1-.832.089q-.87.026-1.566-.262a2.43 2.43 0 0 1-1.105-.907q-.403-.615-.397-1.535zM77.676 101v-9.818h2.314V101zm1.164-11.212a1.35 1.35 0 0 1-.947-.364 1.17 1.17 0 0 1-.396-.889q0-.523.396-.888.397-.37.947-.37.556 0 .946.37.396.365.396.888 0 .519-.396.889-.39.364-.946.364M82.37 101v-9.818h2.211v1.668h.115a2.6 2.6 0 0 1 1.017-1.317q.709-.48 1.694-.479.997 0 1.68.486.69.48.972 1.31h.102q.327-.818 1.1-1.304.78-.492 1.847-.492 1.355 0 2.212.856.855.858.856 2.5V101h-2.32v-6.232q0-.915-.486-1.336-.486-.429-1.189-.428-.837 0-1.31.524-.467.517-.467 1.348V101h-2.269v-6.328q0-.76-.46-1.215-.454-.453-1.189-.453-.498 0-.908.255-.408.25-.652.71a2.2 2.2 0 0 0-.243 1.06V101zm20.5.192q-1.476 0-2.55-.614a4.15 4.15 0 0 1-1.643-1.751q-.575-1.139-.575-2.679 0-1.515.575-2.659a4.35 4.35 0 0 1 1.624-1.79q1.041-.645 2.448-.645.907 0 1.713.294.812.288 1.432.895.627.607.984 1.547.358.933.358 2.224v.71H99.19v-1.56h5.829a2.5 2.5 0 0 0-.287-1.183 2.1 2.1 0 0 0-.787-.824q-.498-.3-1.163-.3a2.25 2.25 0 0 0-1.246.345 2.4 2.4 0 0 0-.838.895q-.294.55-.3 1.208v1.361q0 .856.313 1.47.314.607.876.934.563.32 1.316.32.506 0 .914-.141.41-.147.71-.429.3-.281.454-.696l2.16.243a3.37 3.37 0 0 1-.779 1.495q-.57.633-1.458.985-.888.345-2.033.345m19.143-13.283h2.371v8.553q0 1.406-.664 2.473-.659 1.068-1.854 1.669-1.195.594-2.793.594-1.605 0-2.8-.594-1.195-.601-1.854-1.669-.658-1.067-.658-2.473v-8.553h2.371v8.354q0 .819.358 1.458.365.639 1.023 1.003.658.359 1.56.358.901 0 1.559-.358a2.55 2.55 0 0 0 1.023-1.003q.358-.639.358-1.458zm4.847 16.773v-13.5h2.275v1.623h.135q.178-.358.505-.76.325-.41.882-.697.555-.294 1.419-.294 1.137 0 2.052.582.92.575 1.457 1.706.543 1.124.543 2.762 0 1.617-.53 2.748-.531 1.131-1.445 1.726t-2.071.595q-.843 0-1.4-.282a2.9 2.9 0 0 1-.895-.677 4.4 4.4 0 0 1-.517-.76h-.096v5.228zm2.269-8.591q0 .953.268 1.668.276.716.787 1.119.517.396 1.253.396.767 0 1.284-.409.518-.415.78-1.131.269-.723.269-1.643 0-.914-.262-1.624-.263-.709-.78-1.112-.518-.402-1.291-.403-.743 0-1.26.39t-.786 1.093q-.262.704-.262 1.656m12.624 5.082a3.7 3.7 0 0 1-2.071-.595q-.914-.594-1.444-1.726-.531-1.131-.531-2.748 0-1.637.537-2.762.543-1.131 1.464-1.706a3.76 3.76 0 0 1 2.052-.582q.862 0 1.419.294.555.288.882.697.325.403.505.76h.096V87.91h2.32V101h-2.276v-1.547h-.14q-.18.358-.518.761-.339.396-.895.677t-1.4.282m.646-1.899q.735 0 1.253-.396.518-.403.786-1.119t.268-1.668-.268-1.656q-.263-.703-.78-1.093-.512-.39-1.259-.39-.774 0-1.291.403-.518.404-.78 1.112-.262.71-.262 1.624 0 .92.262 1.643.269.716.786 1.131.524.41 1.285.41m9.874 1.924a4.1 4.1 0 0 1-1.681-.332 2.74 2.74 0 0 1-1.176-.997q-.429-.659-.429-1.624 0-.831.307-1.374t.838-.87a4.2 4.2 0 0 1 1.195-.492q.671-.172 1.387-.25a55 55 0 0 0 1.4-.159q.537-.077.78-.23.249-.16.249-.492v-.038q0-.723-.428-1.12-.429-.395-1.234-.395-.85 0-1.349.37-.492.372-.664.876l-2.161-.307q.256-.895.844-1.495a3.7 3.7 0 0 1 1.438-.908 5.5 5.5 0 0 1 1.879-.307q.71 0 1.413.166t1.285.55q.582.377.933 1.029.358.652.358 1.63V101h-2.225v-1.349h-.076a2.8 2.8 0 0 1-.595.767 2.9 2.9 0 0 1-.952.569q-.569.211-1.336.211m.601-1.7q.696 0 1.208-.275.512-.281.786-.742.281-.459.281-1.003v-1.157q-.108.09-.37.166a5 5 0 0 1-.576.134q-.32.058-.632.103l-.544.076a4 4 0 0 0-.927.23 1.54 1.54 0 0 0-.645.448q-.237.281-.237.729 0 .64.467.965.466.326 1.189.326m11.812-8.316v1.79h-5.644v-1.79zm-4.25-2.353h2.314v9.218q0 .467.14.716a.76.76 0 0 0 .384.332q.236.09.524.09.218 0 .396-.032.185-.032.281-.058l.39 1.809q-.185.064-.53.141a4.3 4.3 0 0 1-.831.089q-.87.026-1.566-.262a2.43 2.43 0 0 1-1.106-.907q-.404-.615-.396-1.535zm10.427 12.363q-1.477 0-2.551-.614a4.16 4.16 0 0 1-1.643-1.751q-.575-1.139-.575-2.679 0-1.515.575-2.659a4.35 4.35 0 0 1 1.624-1.79q1.042-.645 2.448-.645.907 0 1.713.294.812.288 1.432.895.627.607.984 1.547.358.933.358 2.224v.71h-8.047v-1.56h5.829a2.5 2.5 0 0 0-.287-1.183 2.1 2.1 0 0 0-.786-.824q-.5-.3-1.164-.3-.71 0-1.246.345a2.4 2.4 0 0 0-.838.895q-.294.55-.3 1.208v1.361q0 .856.313 1.47.314.607.876.934.563.32 1.317.32.504 0 .914-.141a2 2 0 0 0 .709-.429q.3-.281.454-.696l2.161.243a3.4 3.4 0 0 1-.78 1.495q-.57.633-1.458.985-.888.345-2.032.345m14.083-7.415-2.109.23a1.7 1.7 0 0 0-.314-.6 1.56 1.56 0 0 0-.588-.455q-.37-.172-.907-.172-.723 0-1.215.313-.486.314-.479.812-.007.428.313.697.326.268 1.074.44l1.674.359q1.394.3 2.072.952.683.653.69 1.707a2.67 2.67 0 0 1-.543 1.636q-.53.703-1.477 1.099-.946.397-2.173.397-1.803 0-2.902-.754-1.1-.762-1.311-2.116l2.257-.218q.153.665.652 1.004t1.297.339q.825 0 1.323-.339.505-.339.505-.837a.87.87 0 0 0-.326-.697q-.32-.275-.997-.422l-1.674-.352q-1.413-.294-2.091-.99-.677-.704-.671-1.777-.006-.908.492-1.573.506-.67 1.4-1.035.902-.37 2.078-.371 1.726 0 2.716.735.997.735 1.234 1.988"/><path fill="#62748E" d="M31.773 133.273a1.78 1.78 0 0 0-.83-1.341q-.728-.477-1.784-.477-.773 0-1.352.25a2.15 2.15 0 0 0-.898.687 1.65 1.65 0 0 0-.318.994q0 .466.221.802.228.329.58.551.352.216.739.358.386.135.71.221l1.182.318q.455.12 1.011.33.563.21 1.074.574.517.357.852.92.335.562.335 1.381 0 .943-.494 1.704-.489.762-1.432 1.211-.937.449-2.278.449-1.25 0-2.165-.404-.909-.404-1.432-1.125A3.2 3.2 0 0 1 24.91 139h1.455q.056.659.443 1.091.391.426.989.636.602.205 1.295.205a3.8 3.8 0 0 0 1.449-.262q.642-.267 1.017-.738.375-.477.375-1.114 0-.58-.324-.943a2.4 2.4 0 0 0-.852-.591 9 9 0 0 0-1.142-.398l-1.432-.409q-1.364-.391-2.16-1.119-.795-.727-.795-1.903 0-.978.529-1.705a3.5 3.5 0 0 1 1.431-1.136q.904-.41 2.017-.409 1.125 0 2 .403.876.398 1.387 1.091.517.693.545 1.574zm7.453 0v1.136h-4.523v-1.136zm-3.205-2.091h1.341v8.318q0 .569.165.852a.85.85 0 0 0 .432.375q.267.091.562.091.223 0 .364-.023l.227-.045.273 1.205q-.137.051-.38.102-.245.057-.62.057-.568 0-1.114-.245a2.2 2.2 0 0 1-.897-.744q-.353-.5-.353-1.261zm7.79 11.023a3.55 3.55 0 0 1-1.506-.313 2.6 2.6 0 0 1-1.074-.915q-.397-.602-.397-1.454 0-.75.295-1.216.295-.472.79-.739.495-.266 1.09-.398.603-.135 1.211-.215.795-.103 1.29-.154.5-.057.727-.187.233-.13.233-.455v-.045q0-.842-.46-1.307-.454-.466-1.38-.466-.96 0-1.506.42-.546.421-.768.898l-1.272-.454q.34-.797.909-1.239.575-.449 1.25-.625a5.2 5.2 0 0 1 1.34-.182q.421 0 .967.102.55.097 1.062.404.517.306.858.926t.341 1.659V142h-1.34v-1.182h-.069a2.4 2.4 0 0 1-.455.608q-.318.324-.846.551t-1.29.228m.205-1.205q.795 0 1.34-.312.552-.314.83-.807.284-.495.284-1.04v-1.227q-.086.102-.375.187-.285.08-.659.142-.37.057-.721.102-.348.04-.563.069a5 5 0 0 0-.977.221q-.45.148-.728.449-.272.296-.272.807 0 .699.517 1.057.522.352 1.324.352m6.794 4.273q-.342 0-.608-.057a1.6 1.6 0 0 1-.37-.102l.341-1.182q.489.124.864.091a1.04 1.04 0 0 0 .665-.335q.296-.296.54-.961l.25-.682-3.228-8.772h1.455l2.409 6.954h.09l2.41-6.954h1.454l-3.704 10q-.25.676-.62 1.119a2.3 2.3 0 0 1-.857.665 2.65 2.65 0 0 1-1.091.216M63.352 142v-8.727h1.341V142zm.682-10.182a.95.95 0 0 1-.676-.267.86.86 0 0 1-.278-.642q0-.375.278-.642a.95.95 0 0 1 .676-.267q.392 0 .67.267a.85.85 0 0 1 .285.642.85.85 0 0 1-.285.642.93.93 0 0 1-.67.267m4.456 4.932V142h-1.34v-8.727h1.295v1.363h.113q.307-.665.932-1.068.626-.41 1.614-.409.886 0 1.55.364.666.357 1.035 1.091.37.726.37 1.841V142h-1.342v-5.455q0-1.028-.534-1.602-.534-.579-1.466-.579-.642 0-1.147.278a2 2 0 0 0-.79.813q-.29.533-.29 1.295m11.905-3.477v1.136H75.69v-1.136zM77.099 142v-9.932q0-.75.353-1.25t.915-.75q.561-.25 1.187-.25.495 0 .807.08a3 3 0 0 1 .466.147l-.387 1.16a6 6 0 0 0-.284-.086 1.7 1.7 0 0 0-.466-.051q-.665 0-.96.335-.29.336-.29.983V142zm8.361.182q-1.182 0-2.074-.563-.886-.562-1.386-1.574-.495-1.011-.494-2.363 0-1.364.494-2.381.5-1.017 1.386-1.579.892-.563 2.074-.563t2.068.563q.892.562 1.387 1.579.5 1.017.5 2.381 0 1.352-.5 2.363a3.77 3.77 0 0 1-1.387 1.574q-.886.563-2.068.563m0-1.205q.898 0 1.478-.46.579-.46.858-1.21.278-.75.278-1.625a4.7 4.7 0 0 0-.278-1.631 2.74 2.74 0 0 0-.859-1.221q-.579-.466-1.477-.466-.897 0-1.477.466-.579.465-.858 1.221a4.7 4.7 0 0 0-.278 1.631q0 .875.278 1.625.279.75.858 1.21.58.46 1.477.46M91.462 142v-8.727h1.295v1.318h.091q.24-.648.864-1.051a2.54 2.54 0 0 1 1.409-.404q.147 0 .37.006.22.006.334.017v1.364a3 3 0 0 0-.312-.051 3 3 0 0 0-.506-.04q-.636 0-1.136.267-.495.262-.784.727a1.96 1.96 0 0 0-.284 1.051V142zm5.953 0v-8.727h1.295v1.363h.114q.273-.698.88-1.085.609-.392 1.461-.392.864 0 1.437.392.58.387.904 1.085h.091q.335-.675 1.005-1.074.67-.402 1.608-.403 1.171 0 1.915.733.744.728.744 2.267V142h-1.341v-5.841q0-.966-.528-1.381a1.96 1.96 0 0 0-1.244-.414q-.92 0-1.426.556-.507.552-.506 1.398V142h-1.364v-5.977q0-.744-.483-1.199-.482-.46-1.244-.46-.523 0-.977.278-.45.279-.728.773a2.3 2.3 0 0 0-.272 1.13V142zm17.565.182q-1.261 0-2.176-.557a3.74 3.74 0 0 1-1.403-1.568q-.489-1.012-.489-2.352 0-1.341.489-2.364.493-1.029 1.375-1.602.886-.58 2.068-.58.681 0 1.346.227.665.228 1.211.739.545.505.869 1.341.324.835.324 2.057v.568h-6.728v-1.159h5.364q0-.74-.295-1.318a2.23 2.23 0 0 0-.83-.915q-.534-.336-1.261-.335-.8 0-1.387.397a2.63 2.63 0 0 0-.892 1.023 3 3 0 0 0-.312 1.352v.773q0 .989.341 1.676.347.682.96 1.04.613.352 1.426.352.529 0 .955-.147.432-.154.744-.455.312-.307.483-.761l1.295.363a2.86 2.86 0 0 1-.687 1.159q-.483.495-1.193.773a4.4 4.4 0 0 1-1.597.273m8.949 0q-1.09 0-1.926-.551-.836-.557-1.307-1.569-.471-1.017-.472-2.403 0-1.375.472-2.386.471-1.012 1.313-1.563.84-.55 1.943-.551.852 0 1.346.284.5.279.762.637.267.352.414.579h.114v-4.295h1.341V142h-1.295v-1.341h-.16q-.147.239-.42.602-.273.359-.778.642-.506.279-1.347.279m.182-1.205q.807 0 1.363-.42.558-.426.847-1.176.29-.756.29-1.745 0-.977-.284-1.71-.285-.738-.841-1.148-.557-.414-1.375-.414-.852 0-1.421.437-.562.432-.846 1.176a4.7 4.7 0 0 0-.279 1.659q0 .933.284 1.694.29.755.853 1.204.567.444 1.409.443M137.048 142l-2.659-8.727h1.409l1.887 6.682h.091l1.863-6.682h1.432l1.841 6.659h.091l1.886-6.659h1.409L143.639 142h-1.318l-1.909-6.705h-.136l-1.91 6.705zm11.023 0v-8.727h1.341V142zm.682-10.182a.95.95 0 0 1-.676-.267.86.86 0 0 1-.279-.642q0-.375.279-.642a.95.95 0 0 1 .676-.267q.392 0 .67.267.284.267.284.642t-.284.642a.93.93 0 0 1-.67.267m6.91 1.455v1.136h-4.522v-1.136zm-3.204-2.091h1.341v8.318q0 .569.164.852a.85.85 0 0 0 .432.375q.267.091.563.091.222 0 .363-.023l.228-.045.272 1.205q-.135.051-.38.102-.245.057-.62.057-.568 0-1.113-.245a2.2 2.2 0 0 1-.898-.744q-.352-.5-.352-1.261zm6.75 5.568V142h-1.341v-11.636h1.341v4.272h.113q.308-.675.921-1.074.62-.402 1.648-.403.891 0 1.562.358a2.4 2.4 0 0 1 1.04 1.085q.375.728.375 1.853V142h-1.341v-5.455q0-1.04-.54-1.607-.534-.574-1.483-.574-.658 0-1.182.278a2.04 2.04 0 0 0-.818.813q-.295.533-.295 1.295m12.612 5.25v-8.727h1.341V142zm.682-10.182a.95.95 0 0 1-.676-.267.86.86 0 0 1-.279-.642q0-.375.279-.642a.95.95 0 0 1 .676-.267q.392 0 .67.267.284.267.284.642t-.284.642a.93.93 0 0 1-.67.267m4.456 4.932V142h-1.341v-8.727h1.295v1.363h.114q.307-.665.932-1.068.624-.41 1.613-.409.886 0 1.552.364.664.357 1.034 1.091.369.726.369 1.841V142h-1.341v-5.455q0-1.028-.534-1.602-.534-.579-1.466-.579-.642 0-1.148.278a2 2 0 0 0-.789.813q-.29.533-.29 1.295m14.2-1.523-1.204.341a2.2 2.2 0 0 0-.336-.585 1.6 1.6 0 0 0-.591-.477q-.375-.188-.96-.188-.801 0-1.335.37-.528.363-.528.926 0 .5.363.789.364.291 1.137.483l1.295.319q1.17.284 1.744.869.574.579.574 1.494 0 .75-.432 1.341-.425.591-1.193.932-.767.34-1.784.341-1.335 0-2.21-.58-.875-.579-1.108-1.693l1.273-.318q.181.705.687 1.057.512.352 1.335.352.938 0 1.489-.398.557-.403.557-.966 0-.454-.318-.761-.318-.312-.978-.466l-1.454-.341q-1.199-.284-1.762-.88-.556-.603-.556-1.506 0-.739.414-1.307a2.8 2.8 0 0 1 1.142-.892q.728-.324 1.648-.324 1.296 0 2.034.568.745.569 1.057 1.5m5.973-1.954v1.136h-4.523v-1.136zm-3.204-2.091h1.34v8.318q0 .569.165.852a.85.85 0 0 0 .432.375q.267.091.563.091.22 0 .363-.023l.227-.045.273 1.205a3 3 0 0 1-.38.102q-.245.057-.62.057-.568 0-1.113-.245a2.2 2.2 0 0 1-.898-.744q-.352-.5-.352-1.261zm7.789 11.023a3.55 3.55 0 0 1-1.505-.313 2.6 2.6 0 0 1-1.074-.915q-.398-.602-.398-1.454 0-.75.296-1.216.295-.472.789-.739.495-.266 1.091-.398.603-.135 1.21-.215.797-.103 1.29-.154.5-.057.727-.187.234-.13.233-.455v-.045q0-.842-.46-1.307-.455-.466-1.38-.466-.962 0-1.506.42-.546.421-.767.898l-1.273-.454q.34-.797.909-1.239a3.4 3.4 0 0 1 1.25-.625 5.2 5.2 0 0 1 1.341-.182q.42 0 .966.102a3.1 3.1 0 0 1 1.062.404q.517.306.858.926.342.62.341 1.659V142h-1.341v-1.182h-.068q-.136.284-.454.608-.319.324-.847.551t-1.29.228m.205-1.205q.795 0 1.341-.312a2.13 2.13 0 0 0 1.113-1.847v-1.227q-.084.102-.375.187a6 6 0 0 1-.659.142 28 28 0 0 1-.721.102q-.347.04-.563.069a5 5 0 0 0-.977.221 1.7 1.7 0 0 0-.727.449q-.273.296-.273.807 0 .699.517 1.057.522.352 1.324.352m7.584-4.25V142h-1.341v-8.727h1.295v1.363h.114q.306-.665.932-1.068.624-.41 1.613-.409.887 0 1.551.364.665.357 1.035 1.091.369.726.369 1.841V142h-1.341v-5.455q0-1.028-.534-1.602-.534-.579-1.466-.579-.642 0-1.148.278a2 2 0 0 0-.79.813q-.29.533-.289 1.295m11.814-3.477v1.136h-4.523v-1.136zm-3.205-2.091h1.341v8.318q0 .569.165.852a.85.85 0 0 0 .432.375q.267.091.562.091.222 0 .364-.023l.227-.045.273 1.205a3 3 0 0 1-.381.102 2.8 2.8 0 0 1-.619.057 2.7 2.7 0 0 1-1.114-.245 2.2 2.2 0 0 1-.898-.744q-.352-.5-.352-1.261zM26.568 160.75V166h-1.34v-8.727h1.295v1.363h.113q.307-.665.932-1.068.625-.41 1.614-.409.886 0 1.551.364.665.357 1.034 1.091.37.726.37 1.841V166h-1.341v-5.455q0-1.028-.535-1.602-.534-.579-1.465-.579-.643 0-1.148.278a2 2 0 0 0-.79.813q-.29.533-.29 1.295m11.564 5.432q-1.182 0-2.074-.563-.886-.562-1.386-1.574-.494-1.011-.494-2.363 0-1.364.494-2.381.5-1.017 1.386-1.579.892-.563 2.074-.563t2.068.563q.892.562 1.387 1.579.5 1.017.5 2.381 0 1.352-.5 2.363a3.76 3.76 0 0 1-1.387 1.574q-.886.563-2.068.563m0-1.205q.898 0 1.477-.46t.858-1.21.279-1.625a4.7 4.7 0 0 0-.279-1.631 2.74 2.74 0 0 0-.858-1.221q-.579-.466-1.477-.466-.897 0-1.477.466-.579.465-.858 1.221a4.7 4.7 0 0 0-.278 1.631q0 .875.278 1.625.279.75.858 1.21.58.46 1.477.46m9.797-7.704v1.136h-4.523v-1.136zm-3.205-2.091h1.341v8.318q0 .569.165.852a.85.85 0 0 0 .432.375q.267.091.562.091.223 0 .364-.023l.227-.045.273 1.205q-.136.051-.38.102-.245.057-.62.057-.568 0-1.114-.245a2.2 2.2 0 0 1-.897-.744q-.353-.5-.353-1.261zM49.946 166v-8.727h1.34V166zm.682-10.182a.95.95 0 0 1-.676-.267.86.86 0 0 1-.279-.642q0-.375.279-.642a.95.95 0 0 1 .676-.267q.392 0 .67.267a.85.85 0 0 1 .284.642.85.85 0 0 1-.284.642.93.93 0 0 1-.67.267m7.001 1.455v1.136h-4.704v-1.136zM54.334 166v-9.932q0-.75.352-1.25t.915-.75 1.187-.25q.495 0 .807.08a3 3 0 0 1 .466.147l-.386 1.16a6 6 0 0 0-.284-.086 1.7 1.7 0 0 0-.466-.051q-.666 0-.96.335-.29.336-.29.983V166zm5.174 0v-8.727h1.341V166zm.682-10.182a.95.95 0 0 1-.676-.267.86.86 0 0 1-.278-.642q0-.375.278-.642a.95.95 0 0 1 .676-.267q.393 0 .67.267a.85.85 0 0 1 .285.642.85.85 0 0 1-.284.642.93.93 0 0 1-.67.267m6.66 10.364q-1.226 0-2.113-.58a3.77 3.77 0 0 1-1.363-1.596q-.478-1.017-.478-2.324 0-1.33.489-2.347.495-1.023 1.375-1.596.886-.58 2.068-.58.92 0 1.66.341.738.34 1.21.955.471.613.585 1.431h-1.341q-.154-.596-.682-1.056-.523-.466-1.41-.466-.783 0-1.374.409-.585.403-.915 1.142-.324.732-.324 1.721 0 1.012.318 1.762.325.75.91 1.164.59.415 1.386.415.523 0 .949-.182.426-.181.721-.522.296-.342.42-.818h1.342a3.1 3.1 0 0 1-.563 1.392 3.15 3.15 0 0 1-1.176.977q-.728.358-1.693.358m7.961.023a3.55 3.55 0 0 1-1.506-.313 2.6 2.6 0 0 1-1.074-.915q-.397-.602-.397-1.454 0-.75.295-1.216.295-.472.79-.739.495-.266 1.09-.398.604-.135 1.211-.215.795-.103 1.29-.154.5-.057.727-.187.234-.13.233-.455v-.045q0-.842-.46-1.307-.455-.466-1.38-.466-.96 0-1.506.42-.546.421-.767.898l-1.273-.454q.34-.797.909-1.239.575-.449 1.25-.625a5.2 5.2 0 0 1 1.34-.182q.421 0 .967.102.55.097 1.062.404.517.306.858.926t.341 1.659V166h-1.34v-1.182h-.069a2.4 2.4 0 0 1-.455.608q-.318.324-.846.551t-1.29.228m.205-1.205q.795 0 1.34-.312.552-.314.83-.807.284-.495.284-1.04v-1.227q-.086.102-.375.187-.284.08-.659.142-.37.057-.722.102-.346.04-.562.069a5 5 0 0 0-.977.221q-.45.148-.728.449-.272.296-.272.807 0 .699.517 1.057.522.352 1.324.352m10.038-7.727v1.136h-4.523v-1.136zm-3.205-2.091h1.341v8.318q0 .569.165.852a.85.85 0 0 0 .432.375q.267.091.562.091.222 0 .364-.023l.227-.045.273 1.205q-.136.051-.38.102-.245.057-.62.057-.568 0-1.114-.245a2.2 2.2 0 0 1-.897-.744q-.353-.5-.353-1.261zM87.071 166v-8.727h1.34V166zm.682-10.182a.95.95 0 0 1-.676-.267.86.86 0 0 1-.279-.642q0-.375.279-.642a.95.95 0 0 1 .676-.267q.392 0 .67.267a.85.85 0 0 1 .284.642.85.85 0 0 1-.284.642.93.93 0 0 1-.67.267m6.66 10.364q-1.181 0-2.073-.563-.886-.562-1.387-1.574-.495-1.011-.494-2.363 0-1.364.494-2.381.501-1.017 1.386-1.579.893-.563 2.074-.563 1.182 0 2.069.563.891.562 1.386 1.579.5 1.017.5 2.381 0 1.352-.5 2.363a3.77 3.77 0 0 1-1.386 1.574q-.886.563-2.069.563m0-1.205q.898 0 1.478-.46.579-.46.858-1.21.278-.75.278-1.625a4.7 4.7 0 0 0-.278-1.631 2.74 2.74 0 0 0-.858-1.221q-.58-.466-1.478-.466-.897 0-1.477.466-.579.465-.858 1.221a4.7 4.7 0 0 0-.278 1.631q0 .875.278 1.625.279.75.858 1.21.58.46 1.477.46m7.343-4.227V166h-1.341v-8.727h1.295v1.363h.114q.306-.665.932-1.068.624-.41 1.613-.409.887 0 1.551.364.665.357 1.035 1.091.369.726.369 1.841V166h-1.341v-5.455q0-1.028-.534-1.602-.534-.579-1.466-.579-.642 0-1.148.278a2 2 0 0 0-.79.813q-.29.533-.289 1.295m14.2-1.523-1.205.341a2.2 2.2 0 0 0-.335-.585 1.6 1.6 0 0 0-.591-.477q-.375-.188-.96-.188-.801 0-1.335.37-.528.363-.529.926 0 .5.364.789.363.291 1.136.483l1.296.319q1.17.284 1.744.869.574.579.574 1.494 0 .75-.432 1.341-.426.591-1.193.932-.767.34-1.784.341-1.335 0-2.21-.58-.876-.579-1.108-1.693l1.273-.318q.181.705.687 1.057.511.352 1.335.352.937 0 1.489-.398.557-.403.557-.966 0-.454-.318-.761-.319-.312-.978-.466l-1.454-.341q-1.2-.284-1.762-.88-.556-.603-.556-1.506 0-.739.414-1.307a2.8 2.8 0 0 1 1.142-.892q.727-.324 1.648-.324 1.296 0 2.034.568.745.569 1.057 1.5m10.223 6.955q-1.182 0-2.074-.563-.886-.562-1.386-1.574-.495-1.011-.495-2.363 0-1.364.495-2.381.5-1.017 1.386-1.579.892-.563 2.074-.563t2.068.563q.892.562 1.387 1.579.5 1.017.5 2.381 0 1.352-.5 2.363-.495 1.012-1.387 1.574-.886.563-2.068.563m0-1.205q.898 0 1.477-.46t.858-1.21.279-1.625q0-.876-.279-1.631a2.73 2.73 0 0 0-.858-1.221q-.58-.466-1.477-.466t-1.477.466q-.58.465-.858 1.221a4.7 4.7 0 0 0-.279 1.631q0 .875.279 1.625.278.75.858 1.21.579.46 1.477.46m7.342-4.227V166h-1.341v-8.727h1.296v1.363h.113q.308-.665.932-1.068.626-.41 1.614-.409.887 0 1.551.364.665.357 1.034 1.091.369.726.369 1.841V166h-1.34v-5.455q0-1.028-.535-1.602-.534-.579-1.465-.579-.642 0-1.148.278a2 2 0 0 0-.79.813q-.29.533-.29 1.295m12.519 8.523v-12h1.295v1.386h.159q.148-.227.409-.579.267-.358.762-.637.5-.284 1.352-.284 1.103 0 1.943.551t1.313 1.563q.471 1.01.471 2.386 0 1.386-.471 2.403-.472 1.012-1.307 1.569-.835.55-1.926.551-.841 0-1.347-.279-.505-.283-.778-.642a9 9 0 0 1-.421-.602h-.113v4.614zm1.318-7.637q0 .989.29 1.745.29.75.846 1.176.558.42 1.364.42.841 0 1.403-.443.568-.449.853-1.204a4.7 4.7 0 0 0 .289-1.694q0-.92-.284-1.659-.278-.744-.846-1.176-.563-.437-1.415-.437-.818 0-1.375.414-.557.41-.841 1.148-.284.733-.284 1.71M155.79 166v-8.727h1.295v1.318h.091q.238-.648.864-1.051a2.54 2.54 0 0 1 1.409-.404q.147 0 .369.006t.335.017v1.364a3 3 0 0 0-.312-.051 3 3 0 0 0-.506-.04q-.636 0-1.136.267-.495.262-.784.727-.284.46-.284 1.051V166zm9.233.182q-1.182 0-2.074-.563-.886-.562-1.387-1.574-.494-1.011-.494-2.363 0-1.364.494-2.381.5-1.017 1.387-1.579.892-.563 2.074-.563t2.068.563q.892.562 1.386 1.579.5 1.017.5 2.381 0 1.352-.5 2.363a3.76 3.76 0 0 1-1.386 1.574q-.886.563-2.068.563m0-1.205q.898 0 1.477-.46a2.7 2.7 0 0 0 .858-1.21q.279-.75.278-1.625 0-.876-.278-1.631a2.75 2.75 0 0 0-.858-1.221q-.58-.466-1.477-.466t-1.478.466q-.58.465-.857 1.221a4.7 4.7 0 0 0-.279 1.631q0 .875.279 1.625.278.75.857 1.21.58.46 1.478.46m6.001-7.704h1.341v9.363q0 .807-.278 1.398a2 2 0 0 1-.83.915q-.55.324-1.392.324h-.273v-1.25h.25q.614 0 .898-.364.284-.358.284-1.023zm.659-1.455a.95.95 0 0 1-.676-.267.86.86 0 0 1-.278-.642q0-.375.278-.642a.95.95 0 0 1 .676-.267q.393 0 .671.267a.85.85 0 0 1 .284.642q0 .375-.284.642a.94.94 0 0 1-.671.267m6.797 10.364q-1.261 0-2.176-.557a3.74 3.74 0 0 1-1.403-1.568q-.489-1.012-.489-2.352 0-1.341.489-2.364.493-1.029 1.375-1.602.885-.58 2.068-.58.681 0 1.346.227.665.228 1.211.739.545.505.869 1.341.324.835.324 2.057v.568h-6.728v-1.159h5.364q0-.74-.295-1.318a2.23 2.23 0 0 0-.83-.915q-.534-.336-1.261-.335-.8 0-1.387.397a2.63 2.63 0 0 0-.892 1.023 3 3 0 0 0-.312 1.352v.773q0 .989.341 1.676.346.682.96 1.04.613.352 1.426.352.528 0 .955-.147.432-.154.744-.455.312-.307.483-.761l1.295.363a2.86 2.86 0 0 1-.687 1.159q-.483.495-1.193.773a4.4 4.4 0 0 1-1.597.273m9.199 0q-1.227 0-2.114-.58a3.77 3.77 0 0 1-1.363-1.596q-.478-1.017-.478-2.324 0-1.33.489-2.347.495-1.023 1.375-1.596.886-.58 2.068-.58.921 0 1.659.341a3.2 3.2 0 0 1 1.211.955q.471.613.585 1.431h-1.341q-.154-.596-.682-1.056-.522-.466-1.409-.466-.784 0-1.375.409-.585.403-.915 1.142-.324.732-.324 1.721 0 1.012.319 1.762.322.75.909 1.164.591.415 1.386.415.522 0 .949-.182.426-.181.721-.522.296-.342.421-.818h1.341a3.1 3.1 0 0 1-.563 1.392 3.14 3.14 0 0 1-1.176.977q-.727.358-1.693.358m9.187-8.909v1.136h-4.522v-1.136zm-3.204-2.091h1.341v8.318q0 .569.165.852a.85.85 0 0 0 .431.375q.267.091.563.091.222 0 .364-.023l.227-.045.273 1.205a3 3 0 0 1-.381.102 2.8 2.8 0 0 1-.619.057 2.7 2.7 0 0 1-1.114-.245 2.2 2.2 0 0 1-.898-.744q-.352-.5-.352-1.261zm9.722 14.091v-12h1.295v1.386h.159q.148-.227.409-.579.267-.358.762-.637.5-.284 1.352-.284 1.102 0 1.943.551t1.312 1.563q.472 1.01.472 2.386 0 1.386-.472 2.403-.471 1.012-1.306 1.569-.836.55-1.926.551-.842 0-1.347-.279-.506-.283-.778-.642a9 9 0 0 1-.421-.602h-.114v4.614zm1.318-7.637q0 .989.289 1.745.29.75.847 1.176.557.42 1.364.42.84 0 1.403-.443.569-.449.852-1.204.29-.762.29-1.694 0-.92-.284-1.659-.279-.744-.847-1.176-.562-.437-1.414-.437-.819 0-1.375.414-.558.41-.841 1.148-.285.733-.284 1.71m8.432 4.364v-8.727h1.295v1.318h.091q.239-.648.864-1.051a2.54 2.54 0 0 1 1.409-.404q.147 0 .369.006a6 6 0 0 1 .335.017v1.364a3 3 0 0 0-.312-.051 3 3 0 0 0-.506-.04q-.636 0-1.136.267-.495.262-.784.727-.285.46-.285 1.051V166zm9.232.182q-1.181 0-2.073-.563-.886-.562-1.387-1.574-.494-1.011-.494-2.363 0-1.364.494-2.381.5-1.017 1.387-1.579.892-.563 2.073-.563t2.069.563q.891.562 1.386 1.579.5 1.017.5 2.381 0 1.352-.5 2.363a3.77 3.77 0 0 1-1.386 1.574q-.887.563-2.069.563m0-1.205q.898 0 1.478-.46a2.7 2.7 0 0 0 .858-1.21q.278-.75.278-1.625 0-.876-.278-1.631a2.75 2.75 0 0 0-.858-1.221q-.58-.466-1.478-.466-.897 0-1.477.466-.579.465-.858 1.221a4.7 4.7 0 0 0-.278 1.631q0 .875.278 1.625.279.75.858 1.21.58.46 1.477.46m9.525 4.478q-.972 0-1.671-.25a3.6 3.6 0 0 1-1.165-.648 3.6 3.6 0 0 1-.733-.852l1.069-.75q.181.238.46.545.278.312.761.54.489.233 1.279.233 1.056 0 1.744-.512.687-.511.687-1.602v-1.773h-.113a7 7 0 0 1-.421.591q-.267.347-.772.62-.5.267-1.353.267-1.057 0-1.897-.5-.835-.501-1.324-1.455-.483-.954-.483-2.318 0-1.34.471-2.335.472-1 1.313-1.546.841-.55 1.943-.551.852 0 1.352.284.506.279.773.637.273.352.421.579h.136v-1.386h1.295v8.977q0 1.125-.511 1.83a2.9 2.9 0 0 1-1.364 1.039 5.1 5.1 0 0 1-1.897.336m-.046-4.796q.807 0 1.364-.369.556-.37.846-1.063t.29-1.659q0-.944-.284-1.665t-.841-1.13q-.556-.41-1.375-.409-.852 0-1.42.431a2.64 2.64 0 0 0-.847 1.16 4.5 4.5 0 0 0-.278 1.613q0 .909.284 1.608.29.693.852 1.091.569.392 1.409.392m6.273 1.341v-8.727h1.295v1.318h.091q.238-.648.864-1.051a2.54 2.54 0 0 1 1.409-.404q.148 0 .369.006.222.006.336.017v1.364a4 4 0 0 0-.313-.051 3 3 0 0 0-.506-.04q-.636 0-1.136.267-.495.262-.784.727a1.96 1.96 0 0 0-.284 1.051V166zm9.346.182q-1.26 0-2.176-.557a3.74 3.74 0 0 1-1.403-1.568q-.489-1.012-.489-2.352 0-1.341.489-2.364.494-1.029 1.375-1.602.886-.58 2.068-.58.683 0 1.347.227.664.228 1.21.739.545.505.869 1.341.324.835.324 2.057v.568h-6.727v-1.159h5.363q0-.74-.295-1.318a2.2 2.2 0 0 0-.83-.915q-.534-.336-1.261-.335-.801 0-1.386.397a2.6 2.6 0 0 0-.892 1.023 3 3 0 0 0-.313 1.352v.773q0 .989.341 1.676.346.682.96 1.04.614.352 1.426.352.53 0 .955-.147.432-.154.744-.455.313-.307.483-.761l1.296.363q-.205.66-.688 1.159-.482.495-1.193.773a4.4 4.4 0 0 1-1.597.273m11.836-6.955-1.205.341a2.2 2.2 0 0 0-.335-.585 1.6 1.6 0 0 0-.591-.477q-.375-.188-.96-.188-.801 0-1.335.37-.53.363-.529.926 0 .5.364.789.363.291 1.136.483l1.296.319q1.17.284 1.744.869.574.579.574 1.494 0 .75-.432 1.341-.426.591-1.193.932-.767.34-1.784.341-1.335 0-2.211-.58-.874-.579-1.107-1.693l1.272-.318q.182.705.688 1.057.512.352 1.335.352.937 0 1.489-.398.556-.403.556-.966 0-.454-.318-.761-.318-.312-.977-.466l-1.455-.341q-1.199-.284-1.761-.88-.557-.603-.557-1.506 0-.739.415-1.307a2.8 2.8 0 0 1 1.142-.892q.727-.324 1.648-.324 1.295 0 2.034.568a3.07 3.07 0 0 1 1.057 1.5m8.359 0-1.204.341a2.2 2.2 0 0 0-.336-.585 1.6 1.6 0 0 0-.591-.477q-.375-.188-.96-.188-.801 0-1.335.37-.528.363-.528.926 0 .5.363.789.364.291 1.137.483l1.295.319q1.17.284 1.744.869.574.579.574 1.494 0 .75-.432 1.341-.425.591-1.193.932-.767.34-1.784.341-1.335 0-2.21-.58-.875-.579-1.108-1.693l1.273-.318q.182.705.687 1.057.512.352 1.335.352.938 0 1.489-.398.557-.403.557-.966 0-.454-.318-.761-.318-.312-.978-.466l-1.454-.341q-1.199-.284-1.762-.88-.556-.603-.556-1.506 0-.739.414-1.307a2.8 2.8 0 0 1 1.142-.892q.728-.324 1.648-.324 1.296 0 2.034.568.744.569 1.057 1.5m3.155 6.864q-.42 0-.722-.301a1 1 0 0 1-.301-.722q0-.42.301-.721a.99.99 0 0 1 .722-.302q.42 0 .722.302.3.3.301.721a.97.97 0 0 1-.142.512q-.136.232-.37.375a1 1 0 0 1-.511.136"/></svg>