<svg xmlns="http://www.w3.org/2000/svg" width="300" height="340" fill="none"><path fill="#fff" d="M4 .5h292a3.5 3.5 0 0 1 3.5 3.5v332a3.5 3.5 0 0 1-3.5 3.5H4A3.5 3.5 0 0 1 .5 336V4A3.5 3.5 0 0 1 4 .5Z"/><path stroke="#E2E8F0" d="M4 .5h292a3.5 3.5 0 0 1 3.5 3.5v332a3.5 3.5 0 0 1-3.5 3.5H4A3.5 3.5 0 0 1 .5 336V4A3.5 3.5 0 0 1 4 .5Z"/><path fill="#020618" d="M34.155 34.638c-.057-.573-.3-1.018-.732-1.335-.43-.318-1.015-.476-1.754-.476-.502 0-.926.07-1.271.213-.346.137-.611.329-.796.575-.18.246-.27.526-.27.838-.01.26.045.488.164.682.123.194.29.362.504.504.213.137.46.258.739.362.279.1.577.185.895.256l1.306.313a9.21 9.21 0 0 1 1.748.568c.53.236.99.528 1.377.873.389.346.69.753.902 1.222.218.469.33 1.006.334 1.612-.005.89-.232 1.662-.682 2.316-.445.648-1.089 1.152-1.931 1.512-.839.355-1.85.533-3.033.533-1.174 0-2.197-.18-3.068-.54-.867-.36-1.544-.892-2.032-1.598-.483-.71-.736-1.588-.76-2.635h2.976c.034.488.173.895.42 1.222a2.33 2.33 0 0 0 1 .731c.422.161.898.242 1.428.242.521 0 .973-.076 1.357-.227.388-.152.689-.363.902-.633.213-.27.32-.58.32-.93 0-.327-.098-.601-.292-.824-.19-.222-.468-.412-.838-.568a8.524 8.524 0 0 0-1.342-.426l-1.584-.398c-1.226-.298-2.195-.764-2.905-1.399-.71-.634-1.063-1.49-1.058-2.564-.005-.88.23-1.65.703-2.308.478-.658 1.134-1.172 1.967-1.541.834-.37 1.78-.554 2.841-.554 1.08 0 2.022.184 2.827.554.81.369 1.44.883 1.89 1.54.45.659.681 1.421.695 2.288h-2.947Zm10.13 10.575c-1.123 0-2.089-.227-2.898-.682a4.669 4.669 0 0 1-1.861-1.946c-.436-.843-.654-1.84-.654-2.99 0-1.122.218-2.107.654-2.954a4.83 4.83 0 0 1 1.84-1.982c.795-.473 1.728-.71 2.798-.71.72 0 1.39.116 2.01.348.625.227 1.17.57 1.633 1.03.469.459.834 1.037 1.094 1.733.26.69.39 1.5.39 2.429v.83H40.08v-1.874h6.364c0-.436-.095-.822-.285-1.158a2.034 2.034 0 0 0-.788-.788 2.249 2.249 0 0 0-1.158-.292c-.459 0-.866.107-1.221.32a2.24 2.24 0 0 0-.824.845c-.199.35-.3.741-.305 1.172v1.783c0 .54.099 1.006.298 1.399.203.393.49.696.86.909.369.213.806.32 1.313.32.336 0 .644-.048.923-.142.28-.095.519-.237.718-.427.199-.189.35-.421.454-.696l2.799.185a3.82 3.82 0 0 1-.874 1.761c-.436.497-.999.886-1.69 1.165-.687.275-1.48.412-2.38.412Zm12.784-11.122v2.273h-6.57V34.09h6.57Zm-5.079-2.614h3.026v10.17c0 .28.043.498.128.654a.704.704 0 0 0 .355.32c.156.061.336.092.54.092.142 0 .284-.012.426-.035.142-.029.25-.05.326-.064l.476 2.251a8.515 8.515 0 0 1-.639.163 5.124 5.124 0 0 1-1.001.121c-.73.029-1.369-.069-1.918-.291a2.676 2.676 0 0 1-1.271-1.037c-.303-.469-.452-1.06-.448-1.776V31.477Zm14.79 13.729c-.697 0-1.317-.12-1.862-.362a2.996 2.996 0 0 1-1.292-1.087c-.313-.483-.469-1.084-.469-1.804 0-.606.111-1.115.334-1.527.222-.412.525-.743.909-.994.383-.251.819-.44 1.307-.568a9.955 9.955 0 0 1 1.548-.27 39.26 39.26 0 0 0 1.534-.185c.388-.062.67-.151.845-.27.175-.118.263-.293.263-.525v-.043c0-.45-.142-.798-.426-1.044-.28-.246-.677-.37-1.193-.37-.545 0-.978.121-1.3.363a1.666 1.666 0 0 0-.64.895l-2.797-.227a3.801 3.801 0 0 1 .838-1.72c.416-.487.954-.861 1.612-1.121.663-.266 1.43-.398 2.3-.398.607 0 1.187.07 1.741.213a4.552 4.552 0 0 1 1.484.66c.436.299.78.682 1.03 1.151.251.464.377 1.02.377 1.669V45h-2.87v-1.513h-.085c-.175.341-.41.642-.703.902a3.254 3.254 0 0 1-1.058.604c-.412.142-.888.213-1.428.213Zm.866-2.088c.445 0 .838-.088 1.179-.263.34-.18.608-.421.802-.724.194-.303.291-.647.291-1.03v-1.158a1.62 1.62 0 0 1-.39.17 7.096 7.096 0 0 1-.547.136 27.1 27.1 0 0 1-.611.106l-.554.078a3.743 3.743 0 0 0-.93.249 1.487 1.487 0 0 0-.618.462c-.147.189-.22.426-.22.71 0 .412.149.727.447.944.303.213.687.32 1.15.32Zm24.476-12.664V45h-2.656l-6.329-9.155h-.106V45h-3.075V30.454h2.698l6.279 9.148h.128v-9.147h3.06Zm7.455 14.76c-1.122 0-2.088-.228-2.897-.683a4.669 4.669 0 0 1-1.861-1.946c-.436-.843-.654-1.84-.654-2.99 0-1.122.218-2.107.654-2.954a4.83 4.83 0 0 1 1.84-1.982c.795-.473 1.728-.71 2.798-.71.719 0 1.389.116 2.01.348.625.227 1.169.57 1.633 1.03.469.459.833 1.037 1.094 1.733.26.69.391 1.5.391 2.429v.83h-9.212v-1.874h6.364c0-.436-.095-.822-.285-1.158a2.033 2.033 0 0 0-.788-.788 2.247 2.247 0 0 0-1.158-.292c-.459 0-.866.107-1.221.32a2.24 2.24 0 0 0-.824.845c-.199.35-.3.741-.305 1.172v1.783c0 .54.099 1.006.298 1.399.203.393.49.696.86.909.369.213.807.32 1.313.32.336 0 .644-.048.923-.142.28-.095.519-.237.718-.427.199-.189.35-.421.454-.696l2.799.185a3.825 3.825 0 0 1-.874 1.761c-.436.497-.999.886-1.69 1.165-.687.275-1.48.412-2.38.412Zm9.056-.214-2.969-10.91h3.061l1.69 7.33h.1l1.761-7.33h3.005l1.789 7.288h.093l1.662-7.287h3.054L118.917 45h-3.203l-1.875-6.86h-.135L111.829 45h-3.196Zm19.545 0V30.454h5.739c1.103 0 2.043.211 2.82.633a4.281 4.281 0 0 1 1.775 1.74c.412.738.618 1.59.618 2.556s-.208 1.819-.625 2.557c-.417.739-1.02 1.314-1.811 1.726-.786.412-1.738.618-2.855.618h-3.658V37.82h3.161c.591 0 1.079-.102 1.463-.306.388-.208.677-.495.866-.86.194-.369.291-.792.291-1.27 0-.483-.097-.905-.291-1.265a1.943 1.943 0 0 0-.866-.845c-.389-.203-.881-.305-1.478-.305h-2.073V45h-3.076Zm15.71.206c-.696 0-1.316-.12-1.86-.362a2.993 2.993 0 0 1-1.293-1.087c-.312-.483-.469-1.084-.469-1.804 0-.606.112-1.115.334-1.527.223-.412.526-.743.909-.994.384-.251.819-.44 1.307-.568a9.96 9.96 0 0 1 1.548-.27 39.038 39.038 0 0 0 1.534-.185c.389-.062.67-.151.846-.27.175-.118.262-.293.262-.525v-.043c0-.45-.142-.798-.426-1.044-.279-.246-.677-.37-1.193-.37-.544 0-.978.121-1.3.363a1.665 1.665 0 0 0-.639.895l-2.798-.227a3.798 3.798 0 0 1 .838-1.72c.417-.487.954-.861 1.612-1.121.663-.266 1.43-.398 2.301-.398.606 0 1.186.07 1.74.213a4.555 4.555 0 0 1 1.485.66c.435.299.779.682 1.03 1.151.25.464.376 1.02.376 1.669V45h-2.869v-1.513h-.086c-.175.341-.409.642-.703.902a3.247 3.247 0 0 1-1.058.604c-.412.142-.888.213-1.428.213Zm.867-2.088c.445 0 .838-.088 1.179-.263.341-.18.608-.421.803-.724.194-.303.291-.647.291-1.03v-1.158a1.624 1.624 0 0 1-.391.17 7.053 7.053 0 0 1-.547.136c-.203.037-.407.073-.611.106l-.554.078a3.741 3.741 0 0 0-.93.249 1.49 1.49 0 0 0-.618.462c-.147.189-.22.426-.22.71 0 .412.149.727.447.944.303.213.687.32 1.151.32Zm16.701-5.916-2.77.17a1.43 1.43 0 0 0-.305-.639 1.632 1.632 0 0 0-.618-.462 2.1 2.1 0 0 0-.902-.177c-.469 0-.864.1-1.186.298-.322.194-.483.455-.483.781 0 .26.104.48.312.66.209.18.566.325 1.073.434l1.974.398c1.061.218 1.851.568 2.372 1.05.521.484.782 1.118.782 1.904 0 .715-.211 1.343-.633 1.882-.416.54-.989.962-1.718 1.265-.725.298-1.56.447-2.507.447-1.445 0-2.595-.3-3.452-.902-.852-.606-1.352-1.43-1.499-2.471l2.976-.157c.09.44.308.777.654 1.009.345.227.788.34 1.328.34.53 0 .956-.101 1.278-.305.327-.208.493-.476.497-.802a.831.831 0 0 0-.348-.675c-.227-.18-.577-.317-1.051-.412l-1.889-.376c-1.065-.213-1.859-.583-2.379-1.108-.516-.526-.774-1.196-.774-2.01 0-.701.189-1.305.568-1.811.383-.507.921-.898 1.612-1.172.696-.275 1.51-.412 2.443-.412 1.378 0 2.462.291 3.253.873.795.583 1.259 1.376 1.392 2.38Zm11.23 0-2.769.17a1.442 1.442 0 0 0-.306-.639 1.616 1.616 0 0 0-.618-.462 2.097 2.097 0 0 0-.902-.177c-.468 0-.864.1-1.186.298-.322.194-.483.455-.483.781 0 .26.104.48.313.66.208.18.566.325 1.072.434l1.975.398c1.06.218 1.851.568 2.372 1.05.521.484.781 1.118.781 1.904 0 .715-.211 1.343-.632 1.882-.417.54-.99.962-1.719 1.265-.724.298-1.56.447-2.507.447-1.444 0-2.595-.3-3.452-.902-.852-.606-1.351-1.43-1.498-2.471l2.976-.157c.09.44.307.777.653 1.009.346.227.788.34 1.328.34.53 0 .957-.101 1.279-.305.326-.208.492-.476.497-.802a.836.836 0 0 0-.348-.675c-.228-.18-.578-.317-1.051-.412l-1.89-.376c-1.065-.213-1.858-.583-2.379-1.108-.516-.526-.774-1.196-.774-2.01 0-.701.189-1.305.568-1.811.384-.507.921-.898 1.612-1.172.696-.275 1.511-.412 2.444-.412 1.377 0 2.462.291 3.252.873.796.583 1.26 1.376 1.392 2.38ZM176.992 45l-2.969-10.91h3.062l1.69 7.33h.099l1.762-7.33h3.004l1.79 7.288h.092l1.662-7.287h3.054L187.276 45h-3.203l-1.875-6.86h-.135L180.188 45h-3.196Zm19.515.213c-1.103 0-2.057-.234-2.862-.703a4.807 4.807 0 0 1-1.853-1.974c-.436-.848-.654-1.83-.654-2.948 0-1.127.218-2.112.654-2.955a4.75 4.75 0 0 1 1.853-1.974c.805-.473 1.759-.71 2.862-.71 1.104 0 2.055.237 2.856.71a4.741 4.741 0 0 1 1.86 1.974c.436.843.654 1.828.654 2.955 0 1.117-.218 2.1-.654 2.947a4.797 4.797 0 0 1-1.86 1.975c-.801.469-1.752.703-2.856.703Zm.015-2.344c.502 0 .921-.142 1.257-.426.336-.289.589-.682.76-1.179.175-.497.262-1.063.262-1.697 0-.635-.087-1.2-.262-1.698-.171-.497-.424-.89-.76-1.179-.336-.288-.755-.433-1.257-.433-.507 0-.933.145-1.279.433-.341.29-.599.682-.774 1.18-.17.497-.256 1.062-.256 1.697 0 .634.086 1.2.256 1.697.175.497.433.89.774 1.18.346.283.772.425 1.279.425ZM203.844 45V34.09h2.933v1.904h.114c.199-.677.533-1.188 1.001-1.534a2.634 2.634 0 0 1 1.62-.525 4.565 4.565 0 0 1 .951.106v2.685a3.937 3.937 0 0 0-.589-.114 5.309 5.309 0 0 0-.689-.05 2.42 2.42 0 0 0-1.193.292c-.346.19-.62.454-.824.795a2.295 2.295 0 0 0-.298 1.18V45h-3.026Zm11.696.178a4.121 4.121 0 0 1-2.252-.64c-.667-.43-1.198-1.063-1.591-1.896-.388-.838-.582-1.866-.582-3.082 0-1.25.201-2.29.604-3.118.402-.834.937-1.456 1.605-1.868a4.11 4.11 0 0 1 2.209-.625c.61 0 1.119.104 1.527.312.412.204.743.46.994.767.256.303.45.602.582.895h.093v-5.469h3.018V45h-2.983v-1.747h-.128a3.906 3.906 0 0 1-.603.902c-.256.293-.59.537-1.002.731-.407.194-.904.292-1.491.292Zm.959-2.408c.487 0 .899-.133 1.235-.398.341-.27.602-.646.782-1.13.184-.482.277-1.048.277-1.697 0-.648-.09-1.212-.27-1.69-.18-.478-.441-.847-.782-1.108-.34-.26-.755-.39-1.242-.39-.498 0-.917.135-1.258.404-.34.27-.598.644-.774 1.122-.175.479-.262 1.033-.262 1.662 0 .635.087 1.196.262 1.684.18.483.438.861.774 1.136.341.27.76.405 1.258.405Z"/><path fill="#62748E" d="M26.233 71V60.818h6.145v1.094h-4.912v3.44h4.594v1.094h-4.594v3.46h4.991V71h-6.224Zm9.381-4.594V71h-1.173v-7.636h1.134v1.193h.099c.179-.388.45-.7.815-.935.365-.239.836-.358 1.412-.358.517 0 .97.106 1.357.318.388.21.69.527.905.955.216.424.324.961.324 1.61V71h-1.174v-4.773c0-.6-.156-1.067-.467-1.402-.312-.338-.74-.507-1.283-.507-.374 0-.71.081-1.004.244-.292.162-.522.4-.691.71-.17.312-.254.69-.254 1.134Zm10.338-3.042v.994h-3.958v-.994h3.958Zm-2.804-1.83h1.173v7.279c0 .33.048.58.144.745.1.163.225.272.378.328.156.053.32.08.492.08.13 0 .235-.007.318-.02l.2-.04.238 1.054c-.08.03-.19.06-.333.09-.143.033-.324.05-.542.05-.332 0-.657-.072-.975-.214a1.937 1.937 0 0 1-.785-.652c-.206-.291-.309-.66-.309-1.103v-7.597Zm7.688 9.625c-.736 0-1.37-.162-1.904-.487a3.27 3.27 0 0 1-1.228-1.372c-.285-.59-.428-1.276-.428-2.058 0-.783.143-1.472.428-2.069.288-.6.69-1.067 1.203-1.402.517-.338 1.12-.507 1.81-.507.398 0 .79.066 1.178.2.388.132.74.347 1.059.645.318.295.572.687.76 1.174.19.487.284 1.087.284 1.8v.496h-5.886v-1.014h4.693c0-.43-.086-.815-.259-1.153a1.948 1.948 0 0 0-.725-.8c-.312-.196-.68-.294-1.104-.294-.468 0-.872.116-1.213.348a2.29 2.29 0 0 0-.78.895 2.629 2.629 0 0 0-.274 1.183v.677c0 .576.1 1.065.298 1.466.202.398.482.701.84.91.358.205.774.308 1.248.308.308 0 .587-.043.835-.13.252-.089.47-.221.652-.397.182-.179.323-.4.422-.666l1.134.318c-.12.385-.32.723-.602 1.014-.282.289-.63.514-1.044.677-.414.158-.88.238-1.397.238ZM55.783 71v-7.636h1.133v1.153h.08c.14-.378.391-.684.756-.92a2.225 2.225 0 0 1 1.233-.353c.086 0 .193.002.323.005.129.004.227.009.293.015v1.193c-.04-.01-.13-.024-.273-.044a2.691 2.691 0 0 0-.443-.035c-.371 0-.703.078-.994.234a1.764 1.764 0 0 0-.686.636 1.715 1.715 0 0 0-.249.92V71h-1.173Zm9.902 2.864c-.199 0-.376-.017-.532-.05a1.4 1.4 0 0 1-.323-.09l.298-1.034c.285.073.537.1.756.08a.906.906 0 0 0 .582-.293c.172-.173.33-.453.472-.84l.219-.597-2.824-7.676h1.273l2.107 6.085h.08l2.108-6.085h1.273l-3.242 8.75c-.146.394-.326.72-.542.979a2.03 2.03 0 0 1-.75.582c-.282.126-.6.189-.955.189Zm9.866-2.705c-.69 0-1.294-.164-1.814-.492a3.345 3.345 0 0 1-1.214-1.377c-.288-.59-.432-1.28-.432-2.068 0-.796.144-1.49.432-2.084a3.338 3.338 0 0 1 1.214-1.382c.52-.328 1.125-.492 1.814-.492.69 0 1.293.164 1.81.492.52.329.924.79 1.213 1.382.291.594.437 1.288.437 2.084 0 .788-.145 1.478-.437 2.068a3.298 3.298 0 0 1-1.213 1.377c-.517.328-1.12.492-1.81.492Zm0-1.054c.524 0 .955-.134 1.293-.403.338-.268.588-.621.75-1.058.163-.438.244-.912.244-1.422 0-.51-.081-.986-.243-1.427a2.405 2.405 0 0 0-.751-1.07c-.338-.27-.77-.407-1.293-.407-.523 0-.954.136-1.293.408a2.405 2.405 0 0 0-.75 1.069c-.163.44-.244.916-.244 1.427 0 .51.081.984.244 1.422.162.437.413.79.75 1.058.339.269.77.403 1.293.403Zm10.064-2.227v-4.514h1.173V71h-1.173v-1.293h-.08a2.504 2.504 0 0 1-.835.99c-.378.268-.855.402-1.432.402a2.55 2.55 0 0 1-1.272-.313 2.191 2.191 0 0 1-.875-.954c-.213-.428-.319-.966-.319-1.616v-4.852h1.174v4.772c0 .557.156 1.001.467 1.333.315.331.716.497 1.203.497.292 0 .588-.075.89-.224.305-.149.56-.378.766-.686.208-.308.313-.7.313-1.178ZM88.937 71v-7.636h1.134v1.153h.08c.138-.378.39-.684.755-.92a2.225 2.225 0 0 1 1.233-.353c.086 0 .194.002.323.005.13.004.227.009.293.015v1.193c-.04-.01-.13-.024-.273-.044a2.691 2.691 0 0 0-.443-.035c-.37 0-.702.078-.994.234a1.763 1.763 0 0 0-.686.636 1.715 1.715 0 0 0-.249.92V71h-1.173Zm10.32-4.594V71h-1.173v-7.636h1.133v1.193h.1c.179-.388.45-.7.815-.935.365-.239.835-.358 1.412-.358.517 0 .969.106 1.357.318.388.21.689.527.905.955.215.424.323.961.323 1.61V71h-1.173v-4.773c0-.6-.156-1.067-.468-1.402-.311-.338-.739-.507-1.282-.507-.375 0-.709.081-1.004.244-.292.162-.522.4-.692.71-.169.312-.253.69-.253 1.134Zm10.218 4.753c-.736 0-1.371-.162-1.904-.487a3.263 3.263 0 0 1-1.228-1.372c-.285-.59-.428-1.276-.428-2.058 0-.783.143-1.472.428-2.069.288-.6.689-1.067 1.203-1.402.517-.338 1.12-.507 1.809-.507.398 0 .791.066 1.179.2.388.132.741.347 1.059.645.318.295.571.687.76 1.174.189.487.284 1.087.284 1.8v.496h-5.887v-1.014h4.694c0-.43-.087-.815-.259-1.153a1.948 1.948 0 0 0-.726-.8c-.311-.196-.679-.294-1.104-.294-.467 0-.871.116-1.213.348a2.286 2.286 0 0 0-.78.895 2.633 2.633 0 0 0-.274 1.183v.677c0 .576.1 1.065.299 1.466.202.398.482.701.84.91.358.205.774.308 1.248.308.308 0 .586-.043.835-.13.252-.089.469-.221.651-.397.183-.179.323-.4.423-.666l1.133.318a2.505 2.505 0 0 1-.601 1.014c-.282.289-.63.514-1.044.677-.414.158-.88.238-1.397.238Zm6.677-.159-2.327-7.636h1.233l1.65 5.846h.08l1.631-5.846h1.253l1.61 5.826h.08l1.65-5.826h1.233L121.919 71h-1.154l-1.67-5.867h-.12L117.305 71h-1.153Zm13.582 2.864v-10.5h1.134v1.213h.139a9.98 9.98 0 0 1 .358-.507c.155-.21.378-.395.666-.557.292-.166.686-.249 1.183-.249.643 0 1.21.161 1.7.482.491.322.874.778 1.149 1.368.275.59.412 1.286.412 2.088 0 .808-.137 1.51-.412 2.103-.275.59-.656 1.047-1.144 1.372-.487.321-1.049.482-1.685.482-.491 0-.883-.081-1.178-.244a2.182 2.182 0 0 1-.681-.561 7.5 7.5 0 0 1-.368-.527h-.1v4.037h-1.173Zm1.153-6.682c0 .576.085 1.085.254 1.526.169.438.416.78.741 1.03.325.245.722.367 1.193.367.49 0 .9-.13 1.228-.388.331-.261.58-.613.746-1.054.169-.444.253-.938.253-1.481 0-.537-.083-1.021-.248-1.452a2.25 2.25 0 0 0-.741-1.029c-.328-.255-.741-.383-1.238-.383-.477 0-.878.121-1.203.363-.325.239-.57.573-.736 1.004-.166.428-.249.927-.249 1.497Zm9.625 3.997c-.483 0-.923-.091-1.317-.273a2.264 2.264 0 0 1-.94-.8c-.232-.352-.348-.776-.348-1.274 0-.437.086-.792.259-1.063.172-.276.403-.491.691-.647.288-.156.606-.272.954-.348.352-.08.705-.142 1.059-.189.464-.06.841-.104 1.129-.134.292-.033.504-.088.636-.164.136-.076.204-.209.204-.398v-.04c0-.49-.134-.871-.403-1.143-.265-.272-.667-.408-1.208-.408-.56 0-.999.123-1.317.368-.318.246-.542.507-.671.786l-1.114-.398c.199-.464.464-.825.796-1.084a2.974 2.974 0 0 1 1.093-.547c.398-.106.789-.159 1.174-.159.245 0 .527.03.845.09.321.056.631.174.929.353.302.179.552.449.751.81.199.361.298.845.298 1.452V71h-1.173v-1.034h-.06a2.064 2.064 0 0 1-.397.532c-.186.189-.433.35-.741.482-.308.133-.684.199-1.129.199Zm.179-1.054c.464 0 .856-.091 1.174-.273a1.87 1.87 0 0 0 .726-.706c.165-.289.248-.592.248-.91v-1.074c-.05.06-.159.114-.328.164a5.554 5.554 0 0 1-.577.124 26.387 26.387 0 0 1-1.123.15c-.305.04-.59.104-.855.193a1.479 1.479 0 0 0-.637.393c-.159.172-.238.408-.238.706 0 .408.15.716.452.925.305.205.691.308 1.158.308Zm10.872-5.051-1.054.298a1.955 1.955 0 0 0-.293-.512 1.43 1.43 0 0 0-.517-.418c-.219-.109-.499-.164-.841-.164-.467 0-.856.108-1.168.324-.308.212-.462.482-.462.81 0 .292.106.522.318.691.212.169.544.31.994.423l1.134.278c.683.166 1.191.42 1.526.76.335.339.502.775.502 1.308 0 .438-.126.829-.378 1.174-.248.344-.596.616-1.044.815-.447.199-.967.298-1.561.298-.779 0-1.423-.169-1.934-.507-.51-.338-.833-.832-.969-1.481l1.114-.279c.106.411.306.72.601.925.298.205.688.308 1.168.308.547 0 .981-.116 1.303-.348.325-.235.487-.517.487-.845a.89.89 0 0 0-.278-.666c-.186-.183-.471-.319-.855-.408l-1.273-.298c-.699-.166-1.213-.423-1.541-.77-.325-.352-.487-.791-.487-1.318 0-.431.12-.812.362-1.144a2.477 2.477 0 0 1 1-.78 3.508 3.508 0 0 1 1.441-.284c.756 0 1.349.166 1.78.497.435.332.743.77.925 1.313Zm7.314 0-1.053.298a1.988 1.988 0 0 0-.294-.512 1.421 1.421 0 0 0-.517-.418c-.219-.109-.499-.164-.84-.164-.467 0-.857.108-1.168.324-.309.212-.463.482-.463.81 0 .292.106.522.318.691.213.169.544.31.995.423l1.133.278c.683.166 1.192.42 1.527.76.334.339.502.775.502 1.308 0 .438-.126.829-.378 1.174-.249.344-.597.616-1.044.815-.448.199-.968.298-1.561.298-.779 0-1.424-.169-1.934-.507-.511-.338-.834-.832-.97-1.481l1.114-.279c.106.411.307.72.602.925.298.205.687.308 1.168.308.547 0 .981-.116 1.302-.348.325-.235.488-.517.488-.845a.887.887 0 0 0-.279-.666c-.185-.183-.47-.319-.855-.408l-1.273-.298c-.699-.166-1.213-.423-1.541-.77-.325-.352-.487-.791-.487-1.318 0-.431.121-.812.363-1.144.245-.331.578-.592.999-.78a3.51 3.51 0 0 1 1.442-.284c.756 0 1.349.166 1.78.497.434.332.742.77.924 1.313ZM162.513 71l-2.327-7.636h1.233l1.651 5.846h.079l1.631-5.846h1.253l1.611 5.826h.079l1.651-5.826h1.233L168.28 71h-1.153l-1.671-5.867h-.119L163.666 71h-1.153Zm12.487.16c-.689 0-1.294-.165-1.814-.493a3.34 3.34 0 0 1-1.213-1.377c-.289-.59-.433-1.28-.433-2.068 0-.796.144-1.49.433-2.084a3.333 3.333 0 0 1 1.213-1.382c.52-.328 1.125-.492 1.814-.492.69 0 1.293.164 1.81.492.52.329.925.79 1.213 1.382.292.594.438 1.288.438 2.084 0 .788-.146 1.478-.438 2.068a3.298 3.298 0 0 1-1.213 1.377c-.517.328-1.12.492-1.81.492Zm0-1.055c.524 0 .955-.134 1.293-.403a2.38 2.38 0 0 0 .751-1.058c.162-.438.243-.912.243-1.422 0-.51-.081-.986-.243-1.427a2.41 2.41 0 0 0-.751-1.07c-.338-.27-.769-.407-1.293-.407-.523 0-.954.136-1.292.408a2.402 2.402 0 0 0-.751 1.069c-.162.44-.244.916-.244 1.427 0 .51.082.984.244 1.422.162.437.413.79.751 1.058.338.269.769.403 1.292.403Zm5.252.895v-7.636h1.133v1.153h.08c.139-.378.391-.684.755-.92a2.227 2.227 0 0 1 1.233-.353c.086 0 .194.002.323.005.13.004.227.009.294.015v1.193a3.46 3.46 0 0 0-.274-.044 2.681 2.681 0 0 0-.442-.035c-.371 0-.703.078-.994.234a1.768 1.768 0 0 0-.687.636 1.72 1.72 0 0 0-.248.92V71h-1.173Zm7.86.16c-.637 0-1.198-.162-1.686-.483-.487-.325-.868-.782-1.143-1.372-.275-.594-.413-1.295-.413-2.103 0-.802.138-1.498.413-2.088.275-.59.658-1.046 1.148-1.368.491-.321 1.058-.482 1.701-.482.497 0 .889.083 1.178.249.292.162.514.348.666.557.156.205.277.374.363.507h.099v-3.759h1.174V71h-1.134v-1.173h-.139a7.5 7.5 0 0 1-.368.527 2.182 2.182 0 0 1-.681.561c-.295.163-.688.244-1.178.244Zm.159-1.055c.47 0 .868-.123 1.193-.368.325-.248.572-.591.741-1.029.169-.44.253-.95.253-1.526 0-.57-.083-1.07-.248-1.497-.166-.43-.411-.765-.736-1.004-.325-.242-.726-.363-1.203-.363-.497 0-.912.128-1.243.383a2.295 2.295 0 0 0-.741 1.03 4.1 4.1 0 0 0-.243 1.45c0 .544.082 1.038.248 1.482.169.441.418.793.746 1.054.331.259.742.388 1.233.388Zm11.837 1.074a3.1 3.1 0 0 1-1.317-.273 2.258 2.258 0 0 1-.94-.8c-.232-.352-.348-.776-.348-1.274 0-.437.086-.792.259-1.063.172-.276.402-.491.691-.647.288-.156.606-.272.954-.348.351-.08.704-.142 1.059-.189.464-.06.84-.104 1.129-.134.291-.033.503-.088.636-.164.136-.076.204-.209.204-.398v-.04c0-.49-.134-.871-.403-1.143-.265-.272-.668-.408-1.208-.408-.56 0-.999.123-1.317.368-.319.246-.542.507-.672.786l-1.113-.398c.199-.464.464-.825.795-1.084.335-.262.7-.444 1.094-.547.398-.106.789-.159 1.173-.159.246 0 .527.03.845.09.322.056.632.174.93.353.302.179.552.449.751.81.199.361.298.845.298 1.452V71h-1.173v-1.034h-.06a2.047 2.047 0 0 1-.398.532c-.185.189-.432.35-.74.482-.309.133-.685.199-1.129.199Zm.179-1.054c.464 0 .855-.091 1.173-.273.322-.183.564-.418.726-.706.166-.289.249-.592.249-.91v-1.074c-.05.06-.159.114-.328.164a5.554 5.554 0 0 1-.577.124 26.387 26.387 0 0 1-1.124.15c-.304.04-.59.104-.855.193a1.47 1.47 0 0 0-.636.393c-.159.172-.239.408-.239.706 0 .408.151.716.453.925.305.205.691.308 1.158.308Zm6.636-3.719V71h-1.173v-7.636h1.133v1.193h.1c.179-.388.45-.7.815-.935.365-.239.835-.358 1.412-.358.517 0 .969.106 1.357.318.388.21.69.527.905.955.215.424.323.961.323 1.61V71h-1.173v-4.773c0-.6-.156-1.067-.468-1.402-.311-.338-.739-.507-1.282-.507-.375 0-.709.081-1.004.244a1.75 1.75 0 0 0-.692.71c-.169.312-.253.69-.253 1.134Zm9.9 4.753c-.637 0-1.199-.16-1.686-.482-.487-.325-.868-.782-1.143-1.372-.275-.594-.413-1.295-.413-2.103 0-.802.138-1.498.413-2.088.275-.59.658-1.046 1.148-1.368.491-.321 1.058-.482 1.701-.482.497 0 .889.083 1.178.249.291.162.514.348.666.557.156.205.277.374.363.507h.099v-3.759h1.174V71h-1.134v-1.173h-.139a7.5 7.5 0 0 1-.368.527 2.182 2.182 0 0 1-.681.561c-.295.163-.688.244-1.178.244Zm.159-1.054c.47 0 .868-.123 1.193-.368.325-.248.572-.591.741-1.029.169-.44.253-.95.253-1.526 0-.57-.083-1.07-.248-1.497-.166-.43-.411-.765-.736-1.004-.325-.242-.726-.363-1.203-.363-.497 0-.912.128-1.243.383a2.295 2.295 0 0 0-.741 1.03 4.1 4.1 0 0 0-.244 1.45c0 .544.083 1.038.249 1.482.169.441.418.793.746 1.054.331.259.742.388 1.233.388ZM29.176 91.16c-.716 0-1.332-.169-1.85-.507a3.306 3.306 0 0 1-1.192-1.397c-.279-.593-.418-1.271-.418-2.033 0-.776.142-1.46.427-2.054a3.38 3.38 0 0 1 1.204-1.397c.517-.338 1.12-.507 1.81-.507.536 0 1.02.1 1.451.299.43.198.784.477 1.059.835.275.358.446.775.512 1.253h-1.173c-.09-.348-.289-.657-.597-.925-.305-.272-.716-.408-1.233-.408-.457 0-.858.12-1.203.358-.341.236-.608.569-.8 1-.19.427-.284.93-.284 1.506 0 .59.093 1.103.279 1.541.189.438.454.777.795 1.02.345.241.75.362 1.213.362.305 0 .582-.053.83-.159.249-.106.46-.258.632-.457.172-.2.295-.438.368-.716h1.173c-.066.45-.23.856-.492 1.218a2.75 2.75 0 0 1-1.03.855c-.424.209-.917.313-1.48.313Zm7.82 0c-.689 0-1.294-.164-1.814-.492a3.344 3.344 0 0 1-1.213-1.377c-.289-.59-.433-1.28-.433-2.068 0-.796.144-1.49.433-2.084a3.337 3.337 0 0 1 1.213-1.382c.52-.328 1.125-.492 1.814-.492.69 0 1.293.164 1.81.492.52.329.925.79 1.213 1.382.292.594.438 1.288.438 2.084 0 .788-.146 1.478-.438 2.068a3.298 3.298 0 0 1-1.213 1.377c-.517.328-1.12.492-1.81.492Zm0-1.054c.524 0 .955-.134 1.293-.403.338-.268.588-.621.75-1.058.163-.438.244-.912.244-1.422 0-.51-.08-.986-.243-1.427a2.405 2.405 0 0 0-.75-1.07c-.339-.27-.77-.407-1.294-.407-.523 0-.954.136-1.292.408a2.405 2.405 0 0 0-.75 1.069c-.163.44-.245.916-.245 1.427 0 .51.082.984.244 1.422.162.437.413.79.75 1.058.339.269.77.403 1.293.403Zm6.425-3.699V91h-1.173v-7.636h1.133v1.193h.1c.179-.388.45-.7.815-.935.365-.239.835-.358 1.412-.358.517 0 .97.106 1.357.318.388.21.69.527.905.955.215.424.323.961.323 1.61V91H47.12v-4.773c0-.6-.156-1.067-.467-1.402-.312-.338-.74-.507-1.283-.507-.375 0-.71.081-1.004.244-.292.162-.522.4-.691.71-.17.312-.254.69-.254 1.134Zm10.417-3.042v.994H49.72v-.994h4.117ZM50.954 91v-8.69c0-.438.103-.802.308-1.094a1.91 1.91 0 0 1 .8-.656 2.529 2.529 0 0 1 1.04-.22c.288 0 .524.024.706.07.182.047.318.09.408.13l-.339 1.014a5.719 5.719 0 0 0-.248-.075 1.508 1.508 0 0 0-.408-.044c-.387 0-.668.097-.84.293-.169.196-.254.482-.254.86V91h-1.173Zm4.528 0v-7.636h1.173V91h-1.173Zm.597-8.91a.834.834 0 0 1-.592-.233.75.75 0 0 1-.244-.561.75.75 0 0 1 .244-.562.834.834 0 0 1 .592-.234c.228 0 .424.078.586.234a.744.744 0 0 1 .249.562.744.744 0 0 1-.249.561.817.817 0 0 1-.586.234ZM58.804 91v-7.636h1.134v1.153h.08c.139-.378.39-.684.755-.92a2.225 2.225 0 0 1 1.233-.353c.086 0 .194.002.323.005.13.004.227.009.294.015v1.193c-.04-.01-.131-.024-.274-.044a2.691 2.691 0 0 0-.442-.035c-.372 0-.703.078-.995.234a1.762 1.762 0 0 0-.686.636 1.715 1.715 0 0 0-.248.92V91h-1.174Zm5.21 0v-7.636h1.133v1.193h.1c.158-.408.415-.724.77-.95.355-.228.78-.343 1.278-.343.503 0 .923.115 1.257.343.338.226.602.542.79.95h.08c.196-.395.49-.708.88-.94.391-.235.86-.353 1.407-.353.683 0 1.242.214 1.676.642.434.424.651 1.085.651 1.983V91h-1.173v-5.11c0-.564-.154-.967-.463-1.209a1.712 1.712 0 0 0-1.088-.363c-.537 0-.953.163-1.248.487-.295.322-.443.73-.443 1.223V91h-1.193v-5.23c0-.434-.14-.784-.422-1.05-.282-.268-.645-.402-1.09-.402-.304 0-.59.081-.854.244a1.841 1.841 0 0 0-.637.676 1.997 1.997 0 0 0-.238.99V91h-1.174Zm16.105 0v-7.636h1.173V91H80.12Zm.596-8.91a.834.834 0 0 1-.591-.233.75.75 0 0 1-.244-.561.75.75 0 0 1 .244-.562.834.834 0 0 1 .591-.234c.23 0 .425.078.587.234a.744.744 0 0 1 .249.562.744.744 0 0 1-.249.561.817.817 0 0 1-.587.234Zm6.047 1.274v.994h-3.957v-.994h3.957Zm-2.804-1.83h1.173v7.278c0 .332.049.58.145.746.099.163.225.272.377.328.156.053.32.08.493.08.129 0 .235-.007.318-.02l.199-.04.238 1.054c-.08.03-.19.06-.333.09a2.45 2.45 0 0 1-.542.05c-.331 0-.656-.072-.974-.214a1.937 1.937 0 0 1-.786-.652c-.205-.291-.308-.66-.308-1.103v-7.597Zm11.828 1.83v.994h-3.958v-.994h3.957Zm-2.805-1.83h1.174v7.278c0 .332.048.58.144.746.1.163.225.272.378.328.156.053.32.08.492.08.13 0 .235-.007.318-.02l.2-.04.238 1.054c-.08.03-.19.06-.333.09-.143.033-.323.05-.542.05-.332 0-.656-.072-.975-.214a1.937 1.937 0 0 1-.785-.652c-.206-.291-.309-.66-.309-1.103v-7.597Zm7.59 9.625c-.69 0-1.295-.164-1.815-.492a3.344 3.344 0 0 1-1.213-1.377c-.288-.59-.433-1.28-.433-2.068 0-.796.145-1.49.433-2.084a3.337 3.337 0 0 1 1.213-1.382c.52-.328 1.125-.492 1.815-.492.689 0 1.292.164 1.809.492.521.329.925.79 1.213 1.382.292.594.438 1.288.438 2.084 0 .788-.146 1.478-.438 2.068a3.291 3.291 0 0 1-1.213 1.377c-.517.328-1.12.492-1.809.492Zm0-1.054c.523 0 .954-.134 1.292-.403.338-.268.589-.621.751-1.058.162-.438.244-.912.244-1.422 0-.51-.082-.986-.244-1.427a2.402 2.402 0 0 0-.751-1.07c-.338-.27-.769-.407-1.292-.407-.524 0-.955.136-1.293.408a2.404 2.404 0 0 0-.75 1.069c-.163.44-.244.916-.244 1.427 0 .51.08.984.243 1.422.163.437.413.79.751 1.058.338.269.769.403 1.293.403Zm14.598-5.031-1.054.298a1.988 1.988 0 0 0-.294-.512 1.421 1.421 0 0 0-.517-.418c-.219-.109-.499-.164-.84-.164-.467 0-.857.108-1.168.324-.309.212-.463.482-.463.81 0 .292.106.522.318.691.213.169.544.31.995.423l1.133.278c.683.166 1.192.42 1.527.76.334.339.502.775.502 1.308 0 .438-.126.829-.378 1.174-.249.344-.597.616-1.044.815-.448.199-.968.298-1.561.298-.779 0-1.424-.169-1.934-.507-.511-.338-.834-.832-.97-1.481l1.114-.279c.106.411.307.72.602.925.298.205.687.308 1.168.308.547 0 .981-.116 1.302-.348.325-.235.488-.517.488-.845a.887.887 0 0 0-.279-.666c-.185-.183-.47-.319-.855-.408l-1.273-.298c-.699-.166-1.213-.423-1.541-.77-.325-.352-.487-.791-.487-1.318 0-.431.121-.812.363-1.144.245-.331.578-.591.999-.78a3.51 3.51 0 0 1 1.442-.284c.756 0 1.349.166 1.78.497.434.332.742.77.925 1.313Zm5.107 6.085c-.736 0-1.371-.162-1.905-.487a3.276 3.276 0 0 1-1.228-1.372c-.285-.59-.427-1.276-.427-2.058 0-.783.142-1.472.427-2.069.289-.6.69-1.067 1.204-1.402.517-.338 1.12-.507 1.809-.507.398 0 .791.067 1.179.2.387.132.74.347 1.058.645.319.295.572.687.761 1.174.189.487.284 1.087.284 1.8v.496h-5.887v-1.014h4.693c0-.43-.086-.815-.258-1.153a1.948 1.948 0 0 0-.726-.8c-.312-.196-.68-.294-1.104-.294-.467 0-.871.116-1.213.348a2.286 2.286 0 0 0-.78.895 2.62 2.62 0 0 0-.274 1.183v.677c0 .576.1 1.065.299 1.466.202.398.482.701.84.91.358.205.774.308 1.248.308.308 0 .586-.043.835-.13.252-.089.469-.221.651-.397.182-.179.323-.4.423-.666l1.133.318c-.119.385-.32.723-.601 1.014-.282.289-.63.514-1.044.677-.415.158-.88.238-1.397.238Zm8.267-7.795v.994h-3.957v-.994h3.957Zm-2.804-1.83h1.174v7.278c0 .332.048.58.144.746a.744.744 0 0 0 .378.328c.155.053.319.08.492.08.129 0 .235-.007.318-.02l.199-.04.239 1.054c-.08.03-.191.06-.334.09-.142.033-.323.05-.541.05-.332 0-.657-.072-.975-.214a1.93 1.93 0 0 1-.785-.652c-.206-.291-.309-.66-.309-1.103v-7.597Zm10.754 9.645c-.484 0-.923-.091-1.318-.273a2.262 2.262 0 0 1-.939-.8c-.232-.352-.348-.776-.348-1.274 0-.437.086-.792.258-1.063.173-.276.403-.491.691-.647.289-.156.607-.272.955-.348.351-.08.704-.142 1.059-.189.464-.06.84-.104 1.128-.134.292-.033.504-.088.637-.164.136-.076.204-.209.204-.398v-.04c0-.49-.135-.871-.403-1.143-.265-.272-.668-.408-1.208-.408-.56 0-.999.123-1.318.368-.318.246-.542.507-.671.786l-1.113-.398c.198-.464.464-.825.795-1.084a2.978 2.978 0 0 1 1.094-.547c.397-.106.789-.159 1.173-.159.245 0 .527.03.845.09.322.056.632.174.93.353.302.179.552.449.751.81.198.361.298.845.298 1.452V91h-1.173v-1.034h-.06a2.07 2.07 0 0 1-.398.532c-.185.189-.432.35-.741.482-.308.133-.684.199-1.128.199Zm.179-1.054c.464 0 .855-.091 1.173-.273.322-.183.564-.418.726-.706.166-.289.249-.592.249-.91v-1.074c-.05.06-.159.114-.329.164a5.475 5.475 0 0 1-.576.124 26.457 26.457 0 0 1-1.124.15c-.305.04-.59.104-.855.193a1.47 1.47 0 0 0-.636.393c-.159.172-.239.408-.239.706 0 .408.151.716.452.925.305.205.692.308 1.159.308Zm10.573-3.719V91h-1.173v-7.636h1.133v1.193h.1c.179-.388.451-.7.815-.935.365-.239.835-.358 1.412-.358.517 0 .97.106 1.357.318.388.21.69.527.905.955.216.424.323.961.323 1.61V91h-1.173v-4.773c0-.6-.156-1.067-.467-1.402-.312-.338-.739-.507-1.283-.507-.374 0-.709.081-1.004.244a1.74 1.74 0 0 0-.691.71c-.169.312-.254.69-.254 1.134Zm10.218 4.753c-.736 0-1.37-.162-1.904-.487a3.27 3.27 0 0 1-1.228-1.372c-.285-.59-.428-1.276-.428-2.058 0-.783.143-1.472.428-2.069.288-.6.689-1.067 1.203-1.402.517-.338 1.12-.507 1.81-.507.397 0 .79.067 1.178.2.388.132.741.347 1.059.645.318.295.572.687.761 1.174.189.487.283 1.087.283 1.8v.496h-5.886v-1.014h4.693c0-.43-.086-.815-.259-1.153a1.948 1.948 0 0 0-.726-.8c-.311-.196-.679-.294-1.103-.294-.468 0-.872.116-1.213.348a2.289 2.289 0 0 0-.781.895 2.632 2.632 0 0 0-.273 1.183v.677c0 .576.099 1.065.298 1.466.202.398.482.701.84.91.358.205.774.308 1.248.308.308 0 .587-.043.835-.13.252-.089.469-.221.652-.397.182-.179.323-.4.422-.666l1.134.318c-.12.385-.32.723-.602 1.014-.282.289-.63.514-1.044.677-.414.158-.88.238-1.397.238ZM164.14 91l-2.327-7.636h1.233l1.651 5.846h.079l1.631-5.846h1.253l1.611 5.826h.079l1.651-5.826h1.233L169.907 91h-1.153l-1.671-5.867h-.119L165.293 91h-1.153Zm13.582 2.864v-10.5h1.134v1.213h.139c.086-.133.206-.302.358-.507.156-.21.378-.395.666-.557.292-.166.686-.249 1.183-.249.643 0 1.21.161 1.701.482.49.322.873.778 1.148 1.368.275.59.413 1.286.413 2.088 0 .808-.138 1.51-.413 2.103-.275.59-.656 1.047-1.143 1.372-.488.321-1.049.482-1.686.482-.49 0-.883-.081-1.178-.244a2.182 2.182 0 0 1-.681-.561 7.5 7.5 0 0 1-.368-.527h-.099v4.037h-1.174Zm1.154-6.682c0 .576.084 1.085.253 1.526.169.438.416.78.741 1.03.325.245.723.367 1.193.367.491 0 .9-.13 1.228-.388a2.37 2.37 0 0 0 .746-1.054c.169-.444.253-.938.253-1.481 0-.537-.082-1.021-.248-1.452a2.244 2.244 0 0 0-.741-1.029c-.328-.255-.741-.383-1.238-.383-.477 0-.878.121-1.203.363-.325.239-.57.573-.736 1.004-.165.428-.248.927-.248 1.497Zm9.625 3.997c-.484 0-.923-.091-1.318-.273a2.262 2.262 0 0 1-.939-.8c-.232-.352-.348-.776-.348-1.274 0-.437.086-.792.258-1.063.172-.276.403-.491.691-.647.289-.156.607-.272.955-.348.351-.08.704-.142 1.059-.189.464-.06.84-.104 1.128-.134.292-.033.504-.088.637-.164.135-.076.203-.209.203-.398v-.04c0-.49-.134-.871-.402-1.143-.265-.272-.668-.408-1.208-.408-.561 0-1 .123-1.318.368-.318.246-.542.507-.671.786l-1.114-.398c.199-.464.464-.825.796-1.084a2.978 2.978 0 0 1 1.094-.547 4.53 4.53 0 0 1 1.173-.159c.245 0 .527.03.845.09.322.056.631.174.93.353.301.179.552.449.75.81.199.361.299.845.299 1.452V91h-1.174v-1.034h-.059a2.07 2.07 0 0 1-.398.532c-.186.189-.432.35-.741.482-.308.133-.684.199-1.128.199Zm.179-1.054c.464 0 .855-.091 1.173-.273a1.87 1.87 0 0 0 .726-.706c.166-.289.248-.592.248-.91v-1.074c-.049.06-.159.114-.328.164a5.531 5.531 0 0 1-.576.124 26.457 26.457 0 0 1-1.124.15c-.305.04-.59.104-.855.193a1.47 1.47 0 0 0-.636.393c-.16.172-.239.408-.239.706 0 .408.151.716.452.925.305.205.691.308 1.159.308Zm10.871-5.051-1.054.298a1.955 1.955 0 0 0-.293-.512 1.421 1.421 0 0 0-.517-.418c-.219-.109-.499-.164-.84-.164-.468 0-.857.108-1.169.324-.308.212-.462.482-.462.81 0 .292.106.522.318.691.212.169.544.31.995.423l1.133.278c.683.166 1.192.42 1.526.76.335.339.503.775.503 1.308 0 .438-.126.829-.378 1.174-.249.344-.597.616-1.044.815-.448.199-.968.298-1.561.298-.779 0-1.424-.169-1.934-.507-.511-.338-.834-.832-.97-1.481l1.114-.279c.106.411.306.72.601.925.299.205.688.308 1.169.308.547 0 .981-.116 1.302-.348.325-.235.487-.517.487-.845a.886.886 0 0 0-.278-.666c-.186-.183-.471-.319-.855-.408l-1.273-.298c-.699-.166-1.213-.423-1.541-.77-.325-.352-.487-.791-.487-1.318 0-.431.121-.812.363-1.144.245-.331.578-.591.999-.78a3.51 3.51 0 0 1 1.442-.284c.755 0 1.349.166 1.78.497.434.332.742.77.924 1.313Zm7.315 0-1.054.298a1.931 1.931 0 0 0-.294-.512 1.413 1.413 0 0 0-.517-.418c-.218-.109-.498-.164-.84-.164-.467 0-.857.108-1.168.324-.308.212-.462.482-.462.81 0 .292.106.522.318.691.212.169.543.31.994.423l1.134.278c.682.166 1.191.42 1.526.76.335.339.502.775.502 1.308 0 .438-.126.829-.378 1.174-.248.344-.596.616-1.044.815-.447.199-.968.298-1.561.298-.779 0-1.424-.169-1.934-.507-.51-.338-.834-.832-.969-1.481l1.113-.279c.106.411.307.72.602.925.298.205.688.308 1.168.308.547 0 .981-.116 1.303-.348.324-.235.487-.517.487-.845a.887.887 0 0 0-.279-.666c-.185-.183-.47-.319-.855-.408l-1.272-.298c-.7-.166-1.213-.423-1.542-.77-.324-.352-.487-.791-.487-1.318 0-.431.121-.812.363-1.144.245-.331.579-.591.999-.78a3.513 3.513 0 0 1 1.442-.284c.756 0 1.349.166 1.78.497.434.332.742.77.925 1.313ZM210.501 91l-2.326-7.636h1.232l1.651 5.846h.08l1.63-5.846h1.253l1.611 5.826h.079l1.651-5.826h1.233L216.268 91h-1.153l-1.671-5.867h-.119L211.655 91h-1.154Zm12.488.16c-.69 0-1.295-.165-1.815-.493a3.346 3.346 0 0 1-1.213-1.377c-.288-.59-.433-1.28-.433-2.068 0-.796.145-1.49.433-2.084a3.34 3.34 0 0 1 1.213-1.382c.52-.328 1.125-.492 1.815-.492.689 0 1.292.164 1.809.492.521.329.925.79 1.213 1.382.292.594.438 1.288.438 2.084 0 .788-.146 1.478-.438 2.068a3.291 3.291 0 0 1-1.213 1.377c-.517.328-1.12.492-1.809.492Zm0-1.055c.523 0 .954-.134 1.292-.403.338-.268.589-.621.751-1.058.162-.438.244-.912.244-1.422 0-.51-.082-.986-.244-1.427a2.402 2.402 0 0 0-.751-1.07c-.338-.27-.769-.407-1.292-.407-.524 0-.955.136-1.293.408a2.41 2.41 0 0 0-.751 1.069c-.162.44-.243.916-.243 1.427 0 .51.081.984.243 1.422.163.437.413.79.751 1.058.338.269.769.403 1.293.403Zm5.251.895v-7.636h1.133v1.153h.08c.139-.378.391-.684.756-.92a2.222 2.222 0 0 1 1.233-.353c.086 0 .193.002.323.005.129.004.227.009.293.015v1.193a3.492 3.492 0 0 0-.273-.044 2.703 2.703 0 0 0-.443-.035c-.371 0-.702.078-.994.234a1.712 1.712 0 0 0-.935 1.556V91h-1.173Zm7.86.16c-.636 0-1.198-.162-1.685-.483-.488-.325-.869-.782-1.144-1.372-.275-.594-.413-1.295-.413-2.103 0-.802.138-1.498.413-2.088.275-.59.658-1.046 1.149-1.368.49-.321 1.057-.482 1.7-.482.497 0 .89.083 1.178.249.292.162.514.348.666.557.156.205.277.374.363.507h.1v-3.759h1.173V91h-1.134v-1.173h-.139a7.5 7.5 0 0 1-.368.527 2.182 2.182 0 0 1-.681.561c-.295.163-.688.244-1.178.244Zm.159-1.055c.471 0 .868-.123 1.193-.368.325-.248.572-.591.741-1.029.169-.44.254-.95.254-1.526 0-.57-.083-1.07-.249-1.497-.166-.43-.411-.765-.736-1.004-.325-.242-.726-.363-1.203-.363-.497 0-.911.128-1.243.383a2.295 2.295 0 0 0-.741 1.03 4.1 4.1 0 0 0-.243 1.45c0 .544.083 1.038.248 1.482.169.441.418.793.746 1.054.332.259.743.388 1.233.388Zm6.508.974a.864.864 0 0 1-.632-.263.864.864 0 0 1-.263-.631c0-.246.088-.456.263-.632a.863.863 0 0 1 .632-.263.86.86 0 0 1 .631.263.86.86 0 0 1 .264.632.842.842 0 0 1-.125.447.922.922 0 0 1-.323.328.849.849 0 0 1-.447.12Z"/><path fill="#020618" d="M26.119 135v-10.182h3.629c.792 0 1.448.144 1.969.433.52.288.91.682 1.168 1.183.259.497.388 1.057.388 1.68 0 .627-.131 1.19-.393 1.691-.259.497-.65.891-1.173 1.183-.52.288-1.175.432-1.964.432h-2.496v-1.302h2.357c.5 0 .906-.086 1.218-.259.311-.175.54-.414.686-.716.146-.301.219-.644.219-1.029 0-.384-.073-.726-.22-1.024a1.57 1.57 0 0 0-.69-.701c-.312-.169-.723-.253-1.233-.253h-1.93V135H26.12Zm10.99.169c-.485 0-.922-.089-1.313-.268a2.215 2.215 0 0 1-.93-.791c-.225-.345-.338-.767-.338-1.268 0-.431.083-.785.249-1.064.165-.278.39-.498.67-.661.282-.162.597-.285.945-.368a9.343 9.343 0 0 1 1.064-.189l1.114-.129c.285-.036.492-.094.621-.174.13-.079.194-.209.194-.388v-.034c0-.435-.122-.771-.368-1.01-.242-.238-.603-.358-1.083-.358-.5 0-.895.111-1.184.333-.285.219-.482.463-.591.731l-1.397-.318c.165-.464.407-.838.726-1.124a2.944 2.944 0 0 1 1.108-.626 4.315 4.315 0 0 1 1.318-.199c.305 0 .628.037.97.11.344.069.665.198.964.387.301.189.548.459.74.811.193.348.289.8.289 1.357V135h-1.452v-1.044h-.06c-.096.192-.24.381-.432.567-.192.185-.44.339-.74.462-.302.123-.664.184-1.085.184Zm.322-1.193c.411 0 .763-.081 1.054-.244.295-.162.52-.374.672-.636.155-.265.233-.549.233-.85v-.985c-.053.053-.156.103-.308.15-.15.043-.32.081-.512.114-.192.03-.38.058-.562.084l-.457.06a3.667 3.667 0 0 0-.79.184 1.35 1.35 0 0 0-.568.373c-.139.159-.208.371-.208.636 0 .368.136.647.407.835.272.186.618.279 1.04.279Zm11.148-4.748-1.347.239a1.593 1.593 0 0 0-.269-.493 1.33 1.33 0 0 0-.487-.382c-.206-.1-.462-.15-.77-.15-.422 0-.773.095-1.055.284-.281.185-.422.426-.422.721 0 .255.094.46.283.616.19.156.494.284.915.383l1.213.278c.703.163 1.226.413 1.571.751s.517.777.517 1.318c0 .457-.132.865-.398 1.223-.261.354-.628.633-1.098.835-.468.202-1.01.303-1.626.303-.855 0-1.553-.182-2.093-.547-.54-.368-.872-.89-.994-1.566l1.436-.219c.09.375.274.658.552.851.279.189.642.283 1.09.283.486 0 .876-.101 1.167-.303.292-.206.438-.456.438-.751a.781.781 0 0 0-.269-.602c-.175-.162-.445-.285-.81-.367l-1.293-.284c-.712-.162-1.24-.421-1.58-.775-.339-.355-.508-.804-.508-1.348 0-.45.126-.845.378-1.183.252-.338.6-.602 1.044-.79.444-.193.953-.289 1.526-.289.826 0 1.475.179 1.95.537.473.355.787.83.939 1.427Zm7.506 0-1.347.239a1.597 1.597 0 0 0-.269-.493 1.33 1.33 0 0 0-.487-.382c-.206-.1-.462-.15-.77-.15-.422 0-.773.095-1.055.284-.281.185-.422.426-.422.721 0 .255.094.46.283.616.189.156.494.284.915.383l1.213.278c.703.163 1.226.413 1.571.751s.517.777.517 1.318c0 .457-.133.865-.398 1.223-.261.354-.628.633-1.098.835-.468.202-1.01.303-1.626.303-.855 0-1.553-.182-2.093-.547-.54-.368-.872-.89-.994-1.566l1.436-.219c.09.375.274.658.552.851.279.189.642.283 1.089.283.487 0 .877-.101 1.168-.303.292-.206.438-.456.438-.751a.781.781 0 0 0-.269-.602c-.175-.162-.446-.285-.81-.367l-1.293-.284c-.712-.162-1.24-.421-1.58-.775-.339-.355-.508-.804-.508-1.348 0-.45.126-.845.378-1.183.252-.338.6-.602 1.044-.79.444-.193.953-.289 1.526-.289.826 0 1.475.179 1.95.537.473.355.786.83.939 1.427ZM59.524 135l-2.247-7.636h1.536l1.496 5.608h.075l1.502-5.608h1.536l1.491 5.583h.075l1.486-5.583h1.536L65.768 135h-1.516l-1.551-5.513h-.114L61.035 135h-1.511Zm12.881.154c-.716 0-1.34-.164-1.874-.492a3.318 3.318 0 0 1-1.243-1.377c-.295-.59-.442-1.28-.442-2.068 0-.793.147-1.485.442-2.079a3.32 3.32 0 0 1 1.243-1.382c.534-.328 1.158-.492 1.874-.492.716 0 1.341.164 1.875.492.533.329.948.789 1.242 1.382.295.594.443 1.286.443 2.079 0 .788-.148 1.478-.443 2.068a3.317 3.317 0 0 1-1.242 1.377c-.534.328-1.159.492-1.875.492Zm.005-1.248c.464 0 .849-.122 1.154-.368.305-.245.53-.571.676-.979.149-.408.224-.857.224-1.347 0-.488-.075-.935-.224-1.343a2.188 2.188 0 0 0-.676-.989c-.305-.249-.69-.373-1.154-.373-.467 0-.855.124-1.163.373a2.223 2.223 0 0 0-.681.989 3.96 3.96 0 0 0-.219 1.343c0 .49.073.939.219 1.347.149.408.376.734.681.979.308.246.696.368 1.163.368ZM77.624 135v-7.636h1.437v1.213h.08a1.85 1.85 0 0 1 .735-.97 2.11 2.11 0 0 1 1.203-.358 7.167 7.167 0 0 1 .632.035v1.422a2.582 2.582 0 0 0-.318-.055 3.064 3.064 0 0 0-.458-.035c-.351 0-.664.075-.94.224a1.664 1.664 0 0 0-.884 1.497V135h-1.487Zm7.959.149a2.958 2.958 0 0 1-1.651-.472c-.48-.318-.858-.771-1.133-1.357-.272-.59-.408-1.298-.408-2.123 0-.826.137-1.532.412-2.118.279-.587.66-1.036 1.144-1.347a2.97 2.97 0 0 1 1.645-.468c.475 0 .856.08 1.144.239.292.156.517.338.676.547.162.209.288.392.378.552h.09v-3.784h1.486V135h-1.452v-1.188h-.124c-.09.162-.219.348-.388.557a2.154 2.154 0 0 1-.686.546c-.292.156-.67.234-1.133.234Zm.328-1.268c.427 0 .788-.112 1.084-.338.298-.228.523-.545.676-.949.155-.405.233-.875.233-1.412 0-.53-.076-.995-.228-1.392-.153-.398-.377-.708-.672-.93-.294-.222-.66-.333-1.093-.333-.448 0-.82.116-1.119.348a2.13 2.13 0 0 0-.676.95c-.15.401-.224.853-.224 1.357 0 .51.077.969.229 1.377.152.408.378.731.676.969.302.236.673.353 1.114.353Z"/><path fill="#fff" d="M35 142.5h230a9.5 9.5 0 0 1 9.5 9.5v20a9.5 9.5 0 0 1-9.5 9.5H35a9.5 9.5 0 0 1-9.5-9.5v-20a9.5 9.5 0 0 1 9.5-9.5Z"/><path stroke="#E2E8F0" d="M35 142.5h230a9.5 9.5 0 0 1 9.5 9.5v20a9.5 9.5 0 0 1-9.5 9.5H35a9.5 9.5 0 0 1-9.5-9.5v-20a9.5 9.5 0 0 1 9.5-9.5Z"/><path fill="#62748E" d="M41.938 167.131c-.402 0-.768-.098-1.1-.294a2.288 2.288 0 0 1-.795-.795 2.125 2.125 0 0 1-.293-1.099c0-.404.098-.77.293-1.099a2.25 2.25 0 0 1 .796-.79 2.094 2.094 0 0 1 1.099-.298c.404 0 .77.099 1.098.298.332.196.595.459.79.79.2.329.299.695.299 1.099 0 .401-.1.767-.298 1.099a2.246 2.246 0 0 1-.79.795 2.101 2.101 0 0 1-1.1.294Zm7.874 0c-.4 0-.767-.098-1.098-.294a2.288 2.288 0 0 1-.796-.795 2.125 2.125 0 0 1-.293-1.099c0-.404.098-.77.293-1.099a2.25 2.25 0 0 1 .796-.79 2.094 2.094 0 0 1 1.099-.298c.404 0 .77.099 1.098.298.332.196.595.459.79.79.2.329.299.695.299 1.099 0 .401-.1.767-.298 1.099a2.246 2.246 0 0 1-.79.795 2.101 2.101 0 0 1-1.1.294Zm7.876 0c-.402 0-.768-.098-1.1-.294a2.288 2.288 0 0 1-.795-.795 2.125 2.125 0 0 1-.293-1.099c0-.404.098-.77.293-1.099a2.25 2.25 0 0 1 .796-.79 2.094 2.094 0 0 1 1.099-.298c.404 0 .77.099 1.098.298.332.196.595.459.79.79.2.329.299.695.299 1.099 0 .401-.1.767-.298 1.099a2.246 2.246 0 0 1-.79.795 2.101 2.101 0 0 1-1.1.294Zm7.874 0c-.4 0-.767-.098-1.098-.294a2.288 2.288 0 0 1-.796-.795 2.125 2.125 0 0 1-.293-1.099c0-.404.098-.77.293-1.099a2.25 2.25 0 0 1 .796-.79 2.094 2.094 0 0 1 1.099-.298c.404 0 .77.099 1.098.298.332.196.595.459.79.79.2.329.299.695.299 1.099 0 .401-.1.767-.298 1.099a2.246 2.246 0 0 1-.79.795 2.101 2.101 0 0 1-1.1.294Zm7.876 0c-.401 0-.768-.098-1.1-.294a2.288 2.288 0 0 1-.795-.795 2.125 2.125 0 0 1-.293-1.099c0-.404.098-.77.293-1.099a2.25 2.25 0 0 1 .796-.79 2.094 2.094 0 0 1 1.099-.298c.404 0 .77.099 1.098.298.332.196.595.459.79.79.2.329.299.695.299 1.099 0 .401-.1.767-.298 1.099a2.246 2.246 0 0 1-.79.795 2.101 2.101 0 0 1-1.1.294Zm7.874 0c-.4 0-.767-.098-1.098-.294a2.288 2.288 0 0 1-.796-.795 2.125 2.125 0 0 1-.293-1.099c0-.404.098-.77.293-1.099a2.25 2.25 0 0 1 .796-.79 2.094 2.094 0 0 1 1.099-.298c.404 0 .77.099 1.098.298.332.196.595.459.79.79.2.329.299.695.299 1.099 0 .401-.1.767-.298 1.099a2.246 2.246 0 0 1-.79.795 2.101 2.101 0 0 1-1.1.294Zm7.876 0c-.401 0-.768-.098-1.1-.294a2.288 2.288 0 0 1-.795-.795 2.125 2.125 0 0 1-.293-1.099c0-.404.098-.77.293-1.099a2.25 2.25 0 0 1 .796-.79 2.094 2.094 0 0 1 1.099-.298c.404 0 .77.099 1.098.298.332.196.595.459.79.79.2.329.299.695.299 1.099 0 .401-.1.767-.298 1.099a2.246 2.246 0 0 1-.79.795 2.101 2.101 0 0 1-1.1.294Zm7.874 0c-.4 0-.767-.098-1.098-.294a2.288 2.288 0 0 1-.796-.795 2.125 2.125 0 0 1-.293-1.099c0-.404.098-.77.293-1.099a2.25 2.25 0 0 1 .796-.79 2.094 2.094 0 0 1 1.099-.298c.404 0 .77.099 1.098.298.332.196.595.459.79.79.2.329.299.695.299 1.099 0 .401-.1.767-.298 1.099a2.246 2.246 0 0 1-.79.795 2.101 2.101 0 0 1-1.1.294Zm7.876 0c-.402 0-.768-.098-1.099-.294a2.287 2.287 0 0 1-.796-.795 2.13 2.13 0 0 1-.293-1.099c0-.404.098-.77.293-1.099.199-.331.464-.594.796-.79a2.091 2.091 0 0 1 1.099-.298c.404 0 .77.099 1.098.298.332.196.595.459.791.79.199.329.298.695.298 1.099 0 .401-.099.767-.298 1.099a2.248 2.248 0 0 1-.791.795 2.1 2.1 0 0 1-1.098.294Zm7.874 0c-.401 0-.767-.098-1.098-.294a2.287 2.287 0 0 1-.796-.795 2.13 2.13 0 0 1-.293-1.099c0-.404.098-.77.293-1.099.199-.331.464-.594.796-.79a2.09 2.09 0 0 1 1.098-.298c.405 0 .771.099 1.099.298.332.196.595.459.791.79.199.329.298.695.298 1.099 0 .401-.099.767-.298 1.099a2.248 2.248 0 0 1-.791.795 2.1 2.1 0 0 1-1.099.294Z"/><path fill="#020618" d="M34.575 206.129h-1.55a2.374 2.374 0 0 0-.93-1.516 2.577 2.577 0 0 0-.791-.398 3.103 3.103 0 0 0-.92-.134c-.586 0-1.112.147-1.576.442-.46.295-.825.728-1.093 1.298-.266.57-.398 1.266-.398 2.088 0 .829.132 1.528.398 2.098.268.57.634 1.001 1.098 1.293.464.291.986.437 1.566.437.322 0 .627-.043.915-.129.292-.09.555-.22.79-.393a2.378 2.378 0 0 0 .94-1.496l1.551.005c-.083.5-.243.961-.482 1.382a3.822 3.822 0 0 1-.91 1.084 4.133 4.133 0 0 1-1.262.701 4.689 4.689 0 0 1-1.552.248c-.881 0-1.667-.209-2.356-.626-.69-.421-1.233-1.023-1.63-1.805-.395-.782-.592-1.715-.592-2.799 0-1.087.198-2.02.596-2.799.398-.782.941-1.382 1.63-1.8.69-.421 1.474-.631 2.352-.631.54 0 1.044.078 1.512.234.47.152.893.377 1.267.676.375.295.685.656.93 1.084.245.424.411.909.497 1.456Zm4.936 7.025c-.716 0-1.34-.164-1.875-.492a3.318 3.318 0 0 1-1.242-1.377c-.295-.59-.443-1.28-.443-2.068 0-.793.148-1.485.443-2.079a3.32 3.32 0 0 1 1.242-1.382c.534-.328 1.159-.492 1.875-.492s1.34.164 1.874.492a3.32 3.32 0 0 1 1.243 1.382c.295.594.443 1.286.443 2.079 0 .788-.148 1.478-.443 2.068a3.318 3.318 0 0 1-1.243 1.377c-.533.328-1.158.492-1.874.492Zm.005-1.248c.464 0 .848-.122 1.153-.368.305-.245.53-.571.676-.979.15-.408.224-.857.224-1.347a3.88 3.88 0 0 0-.224-1.343 2.188 2.188 0 0 0-.676-.989c-.305-.249-.69-.373-1.153-.373-.468 0-.855.124-1.163.373a2.223 2.223 0 0 0-.682.989 3.963 3.963 0 0 0-.218 1.343c0 .49.072.939.218 1.347.15.408.377.734.681.979.309.246.697.368 1.164.368Zm6.7-3.44V213H44.73v-7.636h1.427v1.243h.094c.176-.405.45-.73.825-.975.378-.245.854-.368 1.427-.368.52 0 .976.11 1.367.328.392.216.695.537.91.965.216.427.323.956.323 1.586V213h-1.486v-4.678c0-.554-.144-.986-.433-1.298-.288-.315-.684-.472-1.188-.472-.345 0-.651.074-.92.224a1.603 1.603 0 0 0-.631.656c-.153.285-.229.63-.229 1.034Zm10.515-3.102v1.193h-4.315v-1.193h4.315ZM53.6 213v-8.521c0-.478.105-.874.313-1.189.21-.318.486-.555.83-.71.345-.16.72-.239 1.124-.239.298 0 .554.025.766.074.212.047.37.09.472.13l-.348 1.203a7.81 7.81 0 0 0-.268-.07 1.526 1.526 0 0 0-.398-.044c-.361 0-.62.089-.776.268-.152.179-.228.437-.228.776V213h-1.487Zm4.666 0v-7.636h1.486V213h-1.486Zm.75-8.815a.946.946 0 0 1-.666-.258.842.842 0 0 1-.273-.627.83.83 0 0 1 .273-.626.933.933 0 0 1 .667-.263c.258 0 .479.087.66.263a.822.822 0 0 1 .28.626.835.835 0 0 1-.28.627.928.928 0 0 1-.66.258ZM61.752 213v-7.636h1.437v1.213h.08a1.85 1.85 0 0 1 .735-.97 2.11 2.11 0 0 1 1.204-.358 7.159 7.159 0 0 1 .63.035v1.422a2.584 2.584 0 0 0-.317-.055 3.063 3.063 0 0 0-.458-.035c-.351 0-.664.075-.94.224a1.663 1.663 0 0 0-.884 1.497V213H61.75Zm5.373 0v-7.636h1.427v1.243h.095c.159-.421.419-.75.78-.985.361-.238.794-.358 1.298-.358.51 0 .938.12 1.282.358a2.1 2.1 0 0 1 .771.985h.08c.182-.408.472-.733.87-.975.397-.245.871-.368 1.421-.368.693 0 1.258.217 1.696.651.44.435.661 1.089.661 1.964V213h-1.486v-4.982c0-.517-.141-.891-.423-1.123a1.537 1.537 0 0 0-1.01-.348c-.483 0-.86.149-1.128.447-.268.295-.403.675-.403 1.139V213h-1.481v-5.076c0-.414-.13-.747-.388-.999s-.595-.378-1.01-.378c-.28 0-.541.074-.78.224a1.633 1.633 0 0 0-.571.611 1.874 1.874 0 0 0-.214.91V213h-1.487Zm16.198 0v-10.182h3.629c.792 0 1.448.144 1.969.433.52.288.91.682 1.168 1.183.259.497.388 1.057.388 1.68 0 .627-.131 1.19-.393 1.691-.258.497-.65.891-1.173 1.183-.52.288-1.175.432-1.964.432H84.45v-1.302h2.357c.5 0 .906-.086 1.218-.259.311-.175.54-.414.686-.716a2.33 2.33 0 0 0 .219-1.029c0-.384-.073-.726-.22-1.024a1.57 1.57 0 0 0-.69-.701c-.312-.169-.723-.253-1.233-.253h-1.929V213h-1.536Zm10.99.169c-.484 0-.922-.089-1.313-.268a2.215 2.215 0 0 1-.93-.791c-.225-.345-.338-.767-.338-1.268 0-.431.083-.785.249-1.064.165-.278.39-.498.67-.661.283-.162.597-.285.945-.368a9.343 9.343 0 0 1 1.064-.189l1.114-.129c.285-.036.492-.094.621-.174.13-.079.194-.209.194-.388v-.034c0-.435-.122-.771-.367-1.01-.242-.238-.604-.358-1.084-.358-.5 0-.895.111-1.183.333-.286.219-.483.463-.592.731l-1.397-.318c.166-.464.407-.838.726-1.124a2.944 2.944 0 0 1 1.108-.626 4.315 4.315 0 0 1 1.318-.199c.305 0 .628.037.97.11.344.069.665.198.964.387.301.189.548.459.74.811.193.348.289.8.289 1.357V213h-1.452v-1.044h-.06c-.096.192-.24.381-.432.567-.192.185-.44.339-.74.462-.302.123-.664.184-1.085.184Zm.323-1.193c.41 0 .762-.081 1.054-.244.295-.162.518-.374.67-.636.157-.265.234-.549.234-.85v-.985c-.053.053-.155.103-.308.15a4.79 4.79 0 0 1-.512.114c-.192.03-.38.058-.562.084l-.457.06a3.67 3.67 0 0 0-.79.184 1.35 1.35 0 0 0-.567.373c-.14.159-.21.371-.21.636 0 .368.137.647.409.835.271.186.618.279 1.039.279Zm11.147-4.748-1.347.239a1.603 1.603 0 0 0-.269-.493 1.322 1.322 0 0 0-.487-.382c-.205-.1-.462-.15-.77-.15-.421 0-.773.095-1.054.284-.282.185-.423.426-.423.721 0 .255.094.46.283.616.189.156.494.284.915.383l1.213.278c.703.163 1.227.413 1.571.751.345.338.517.777.517 1.318 0 .457-.132.865-.397 1.223-.262.354-.629.633-1.099.835-.467.202-1.009.303-1.626.303-.855 0-1.553-.182-2.093-.547-.54-.368-.872-.89-.994-1.566l1.437-.219c.089.375.273.658.551.851.279.189.642.283 1.089.283.487 0 .877-.101 1.169-.303.291-.206.437-.456.437-.751a.78.78 0 0 0-.268-.602c-.176-.162-.446-.285-.811-.367l-1.292-.284c-.713-.162-1.24-.421-1.581-.775-.338-.355-.508-.804-.508-1.348 0-.45.126-.845.378-1.183.252-.338.6-.602 1.044-.79.444-.193.953-.289 1.527-.289.825 0 1.475.179 1.949.537a2.5 2.5 0 0 1 .939 1.427Zm7.506 0-1.347.239a1.603 1.603 0 0 0-.269-.493 1.322 1.322 0 0 0-.487-.382c-.205-.1-.462-.15-.771-.15-.421 0-.772.095-1.054.284-.281.185-.422.426-.422.721 0 .255.094.46.283.616.189.156.494.284.915.383l1.213.278c.703.163 1.226.413 1.571.751s.517.777.517 1.318c0 .457-.132.865-.398 1.223-.261.354-.628.633-1.098.835-.468.202-1.01.303-1.626.303-.855 0-1.553-.182-2.093-.547-.54-.368-.872-.89-.994-1.566l1.436-.219c.09.375.274.658.552.851.279.189.642.283 1.089.283.487 0 .877-.101 1.168-.303.292-.206.438-.456.438-.751a.782.782 0 0 0-.269-.602c-.175-.162-.445-.285-.81-.367l-1.293-.284c-.712-.162-1.239-.421-1.581-.775-.338-.355-.507-.804-.507-1.348 0-.45.126-.845.378-1.183.252-.338.6-.602 1.044-.79.444-.193.953-.289 1.527-.289.825 0 1.474.179 1.948.537.474.355.788.83.94 1.427Zm3.439 5.772-2.247-7.636h1.536l1.497 5.608h.074l1.502-5.608h1.536l1.491 5.583h.075l1.486-5.583h1.537L122.971 213h-1.516l-1.551-5.513h-.114L118.238 213h-1.511Zm12.881.154c-.715 0-1.34-.164-1.874-.492a3.322 3.322 0 0 1-1.243-1.377c-.295-.59-.442-1.28-.442-2.068 0-.793.147-1.485.442-2.079a3.323 3.323 0 0 1 1.243-1.382c.534-.328 1.159-.492 1.874-.492.716 0 1.341.164 1.875.492.533.329.948.789 1.243 1.382.295.594.442 1.286.442 2.079 0 .788-.147 1.478-.442 2.068a3.322 3.322 0 0 1-1.243 1.377c-.534.328-1.159.492-1.875.492Zm.005-1.248c.464 0 .849-.122 1.154-.368.305-.245.53-.571.676-.979a3.9 3.9 0 0 0 .224-1.347c0-.488-.075-.935-.224-1.343a2.188 2.188 0 0 0-.676-.989c-.305-.249-.69-.373-1.154-.373-.467 0-.855.124-1.163.373a2.22 2.22 0 0 0-.681.989 3.958 3.958 0 0 0-.219 1.343c0 .49.073.939.219 1.347.149.408.376.734.681.979.308.246.696.368 1.163.368Zm5.214 1.094v-7.636h1.437v1.213h.08c.139-.411.384-.734.736-.97a2.107 2.107 0 0 1 1.203-.358 7.192 7.192 0 0 1 .631.035v1.422a2.609 2.609 0 0 0-.318-.055 3.071 3.071 0 0 0-.458-.035 1.94 1.94 0 0 0-.939.224 1.66 1.66 0 0 0-.885 1.497V213h-1.487Zm7.959.149a2.958 2.958 0 0 1-1.651-.472c-.48-.318-.858-.771-1.133-1.357-.272-.59-.408-1.298-.408-2.123 0-.826.137-1.532.413-2.118.278-.587.659-1.036 1.143-1.347a2.97 2.97 0 0 1 1.646-.468c.474 0 .855.08 1.143.239.292.156.517.338.676.547.163.209.289.392.378.552h.09v-3.784h1.486V213h-1.452v-1.188h-.124a3.934 3.934 0 0 1-.388.557 2.141 2.141 0 0 1-.686.546c-.291.156-.669.234-1.133.234Zm.328-1.268c.427 0 .789-.112 1.084-.338.298-.228.523-.545.676-.949.156-.405.233-.875.233-1.412 0-.53-.076-.995-.228-1.392-.153-.398-.376-.708-.671-.93-.295-.222-.66-.333-1.094-.333-.448 0-.82.116-1.119.348a2.135 2.135 0 0 0-.676.95 3.874 3.874 0 0 0-.224 1.357c0 .51.077.969.229 1.377.153.408.378.731.676.969.302.236.673.353 1.114.353Z"/><path fill="#fff" d="M35 220.5h230a9.5 9.5 0 0 1 9.5 9.5v20a9.5 9.5 0 0 1-9.5 9.5H35a9.5 9.5 0 0 1-9.5-9.5v-20a9.5 9.5 0 0 1 9.5-9.5Z"/><path stroke="#E2E8F0" d="M35 220.5h230a9.5 9.5 0 0 1 9.5 9.5v20a9.5 9.5 0 0 1-9.5 9.5H35a9.5 9.5 0 0 1-9.5-9.5v-20a9.5 9.5 0 0 1 9.5-9.5Z"/><path fill="#62748E" d="M41.938 245.131c-.402 0-.768-.098-1.1-.294a2.288 2.288 0 0 1-.795-.795 2.125 2.125 0 0 1-.293-1.099c0-.404.098-.77.293-1.099a2.25 2.25 0 0 1 .796-.79 2.094 2.094 0 0 1 1.099-.298c.404 0 .77.099 1.098.298.332.196.595.459.79.79.2.329.299.695.299 1.099 0 .401-.1.767-.298 1.099a2.246 2.246 0 0 1-.79.795 2.101 2.101 0 0 1-1.1.294Zm7.874 0c-.4 0-.767-.098-1.098-.294a2.288 2.288 0 0 1-.796-.795 2.125 2.125 0 0 1-.293-1.099c0-.404.098-.77.293-1.099a2.25 2.25 0 0 1 .796-.79 2.094 2.094 0 0 1 1.099-.298c.404 0 .77.099 1.098.298.332.196.595.459.79.79.2.329.299.695.299 1.099 0 .401-.1.767-.298 1.099a2.246 2.246 0 0 1-.79.795 2.101 2.101 0 0 1-1.1.294Zm7.876 0c-.402 0-.768-.098-1.1-.294a2.288 2.288 0 0 1-.795-.795 2.125 2.125 0 0 1-.293-1.099c0-.404.098-.77.293-1.099a2.25 2.25 0 0 1 .796-.79 2.094 2.094 0 0 1 1.099-.298c.404 0 .77.099 1.098.298.332.196.595.459.79.79.2.329.299.695.299 1.099 0 .401-.1.767-.298 1.099a2.246 2.246 0 0 1-.79.795 2.101 2.101 0 0 1-1.1.294Zm7.874 0c-.4 0-.767-.098-1.098-.294a2.288 2.288 0 0 1-.796-.795 2.125 2.125 0 0 1-.293-1.099c0-.404.098-.77.293-1.099a2.25 2.25 0 0 1 .796-.79 2.094 2.094 0 0 1 1.099-.298c.404 0 .77.099 1.098.298.332.196.595.459.79.79.2.329.299.695.299 1.099 0 .401-.1.767-.298 1.099a2.246 2.246 0 0 1-.79.795 2.101 2.101 0 0 1-1.1.294Zm7.876 0c-.401 0-.768-.098-1.1-.294a2.288 2.288 0 0 1-.795-.795 2.125 2.125 0 0 1-.293-1.099c0-.404.098-.77.293-1.099a2.25 2.25 0 0 1 .796-.79 2.094 2.094 0 0 1 1.099-.298c.404 0 .77.099 1.098.298.332.196.595.459.79.79.2.329.299.695.299 1.099 0 .401-.1.767-.298 1.099a2.246 2.246 0 0 1-.79.795 2.101 2.101 0 0 1-1.1.294Zm7.874 0c-.4 0-.767-.098-1.098-.294a2.288 2.288 0 0 1-.796-.795 2.125 2.125 0 0 1-.293-1.099c0-.404.098-.77.293-1.099a2.25 2.25 0 0 1 .796-.79 2.094 2.094 0 0 1 1.099-.298c.404 0 .77.099 1.098.298.332.196.595.459.79.79.2.329.299.695.299 1.099 0 .401-.1.767-.298 1.099a2.246 2.246 0 0 1-.79.795 2.101 2.101 0 0 1-1.1.294Zm7.876 0c-.401 0-.768-.098-1.1-.294a2.288 2.288 0 0 1-.795-.795 2.125 2.125 0 0 1-.293-1.099c0-.404.098-.77.293-1.099a2.25 2.25 0 0 1 .796-.79 2.094 2.094 0 0 1 1.099-.298c.404 0 .77.099 1.098.298.332.196.595.459.79.79.2.329.299.695.299 1.099 0 .401-.1.767-.298 1.099a2.246 2.246 0 0 1-.79.795 2.101 2.101 0 0 1-1.1.294Zm7.874 0c-.4 0-.767-.098-1.098-.294a2.288 2.288 0 0 1-.796-.795 2.125 2.125 0 0 1-.293-1.099c0-.404.098-.77.293-1.099a2.25 2.25 0 0 1 .796-.79 2.094 2.094 0 0 1 1.099-.298c.404 0 .77.099 1.098.298.332.196.595.459.79.79.2.329.299.695.299 1.099 0 .401-.1.767-.298 1.099a2.246 2.246 0 0 1-.79.795 2.101 2.101 0 0 1-1.1.294Zm7.876 0c-.402 0-.768-.098-1.099-.294a2.287 2.287 0 0 1-.796-.795 2.13 2.13 0 0 1-.293-1.099c0-.404.098-.77.293-1.099.199-.331.464-.594.796-.79a2.091 2.091 0 0 1 1.099-.298c.404 0 .77.099 1.098.298.332.196.595.459.791.79.199.329.298.695.298 1.099 0 .401-.099.767-.298 1.099a2.248 2.248 0 0 1-.791.795 2.1 2.1 0 0 1-1.098.294Zm7.874 0c-.401 0-.767-.098-1.098-.294a2.287 2.287 0 0 1-.796-.795 2.13 2.13 0 0 1-.293-1.099c0-.404.098-.77.293-1.099.199-.331.464-.594.796-.79a2.09 2.09 0 0 1 1.098-.298c.405 0 .771.099 1.099.298.332.196.595.459.791.79.199.329.298.695.298 1.099 0 .401-.099.767-.298 1.099a2.248 2.248 0 0 1-.791.795 2.1 2.1 0 0 1-1.099.294Z"/><path fill="#18181B" d="M25 286c0-5.523 4.477-10 10-10h230c5.523 0 10 4.477 10 10v20c0 5.523-4.477 10-10 10H35c-5.523 0-10-4.477-10-10v-20Z"/><path fill="#F8FAFC" d="M93.897 293.493a1.453 1.453 0 0 0-.656-1.094c-.384-.262-.868-.393-1.451-.393-.418 0-.78.067-1.084.199-.305.13-.542.308-.711.537a1.268 1.268 0 0 0-.249.771c0 .242.056.451.17.626.115.176.266.323.452.443.189.116.39.213.606.293.216.076.423.139.622.189l.994.258c.325.08.658.188 1 .324.34.135.657.314.949.537.291.222.527.497.706.825.182.328.273.721.273 1.178 0 .577-.149 1.089-.447 1.536-.295.448-.724.801-1.288 1.059-.56.259-1.238.388-2.033.388-.763 0-1.422-.121-1.979-.363-.557-.242-.993-.585-1.308-1.029-.314-.447-.488-.978-.521-1.591h1.54c.03.368.15.675.359.92.212.242.482.422.81.542.332.116.694.174 1.089.174.434 0 .82-.068 1.158-.204.342-.139.61-.332.806-.577.195-.248.293-.538.293-.87 0-.301-.086-.548-.259-.741-.169-.192-.399-.351-.69-.477a6.73 6.73 0 0 0-.98-.333l-1.203-.328c-.816-.222-1.462-.549-1.94-.98-.473-.43-.71-1-.71-1.71 0-.586.159-1.098.477-1.536.318-.437.75-.777 1.293-1.019.543-.245 1.156-.368 1.84-.368.689 0 1.297.121 1.824.363.53.242.948.575 1.253.999.305.421.464.905.477 1.452h-1.482Zm6.629 7.661c-.752 0-1.4-.161-1.944-.482a3.276 3.276 0 0 1-1.253-1.367c-.292-.59-.437-1.281-.437-2.073 0-.783.145-1.472.437-2.069a3.403 3.403 0 0 1 1.233-1.397c.53-.334 1.15-.502 1.859-.502.431 0 .849.071 1.253.214a3.03 3.03 0 0 1 1.089.671c.322.305.575.701.761 1.188.185.484.278 1.073.278 1.765v.527h-6.07v-1.113h4.613c0-.391-.079-.738-.238-1.039a1.801 1.801 0 0 0-.671-.721 1.874 1.874 0 0 0-1.005-.264c-.417 0-.782.103-1.093.308a2.077 2.077 0 0 0-.716.796 2.298 2.298 0 0 0-.249 1.059v.87c0 .51.09.944.269 1.302.182.358.435.632.76.821.325.185.705.278 1.139.278.281 0 .538-.04.77-.119.232-.083.433-.206.602-.368a1.6 1.6 0 0 0 .388-.602l1.407.254a2.554 2.554 0 0 1-.607 1.089 2.945 2.945 0 0 1-1.089.721c-.434.169-.929.253-1.486.253Zm8.49-7.79v1.193h-4.171v-1.193h4.171Zm-3.052-1.83h1.486v7.224c0 .288.043.505.129.651a.67.67 0 0 0 .333.293c.14.05.29.075.453.075.119 0 .224-.008.313-.025.089-.016.159-.03.209-.04l.268 1.228a2.925 2.925 0 0 1-.964.159 2.625 2.625 0 0 1-1.094-.208 1.88 1.88 0 0 1-.82-.677c-.209-.304-.313-.687-.313-1.148v-7.532Zm16.739-.716V301h-1.412l-5.175-7.467h-.095V301h-1.536v-10.182h1.422l5.18 7.477h.095v-7.477h1.521Zm5.413 10.336c-.753 0-1.401-.161-1.944-.482a3.278 3.278 0 0 1-1.253-1.367c-.292-.59-.438-1.281-.438-2.073 0-.783.146-1.472.438-2.069a3.403 3.403 0 0 1 1.233-1.397c.53-.334 1.15-.502 1.859-.502.431 0 .849.071 1.253.214.404.143.767.366 1.089.671.321.305.575.701.761 1.188.185.484.278 1.073.278 1.765v.527h-6.07v-1.113h4.613c0-.391-.079-.738-.238-1.039a1.797 1.797 0 0 0-.672-.721 1.87 1.87 0 0 0-1.004-.264c-.417 0-.782.103-1.094.308a2.076 2.076 0 0 0-.715.796 2.294 2.294 0 0 0-.249 1.059v.87c0 .51.089.944.268 1.302.183.358.436.632.761.821.325.185.704.278 1.139.278.281 0 .538-.04.77-.119.232-.083.433-.206.602-.368a1.6 1.6 0 0 0 .388-.602l1.406.254a2.541 2.541 0 0 1-.606 1.089 2.945 2.945 0 0 1-1.089.721c-.434.169-.93.253-1.486.253Zm6.567-.154-2.247-7.636h1.536l1.497 5.608h.074l1.502-5.608h1.536l1.491 5.583h.075l1.486-5.583h1.537L140.927 301h-1.516l-1.551-5.513h-.114L136.195 301h-1.512Zm13.722 0v-10.182h3.629c.792 0 1.448.144 1.969.433.52.288.91.682 1.168 1.183.259.497.388 1.057.388 1.68 0 .627-.131 1.19-.393 1.691-.258.497-.65.891-1.173 1.183-.521.288-1.175.432-1.964.432h-2.496v-1.302h2.357c.5 0 .906-.086 1.218-.259.311-.175.54-.414.686-.716.146-.301.219-.644.219-1.029a2.3 2.3 0 0 0-.219-1.024 1.57 1.57 0 0 0-.691-.701c-.312-.169-.723-.253-1.233-.253h-1.929V301h-1.536Zm10.989.169c-.483 0-.921-.089-1.312-.268a2.218 2.218 0 0 1-.93-.791c-.225-.345-.338-.767-.338-1.268 0-.431.083-.785.249-1.064.165-.278.389-.498.671-.661a3.53 3.53 0 0 1 .945-.368 9.335 9.335 0 0 1 1.063-.189l1.114-.129c.285-.036.492-.094.622-.174.129-.079.193-.209.193-.388v-.034c0-.435-.122-.771-.367-1.01-.242-.238-.604-.358-1.084-.358-.501 0-.895.111-1.184.333-.285.219-.482.463-.591.731l-1.397-.318c.166-.464.408-.838.726-1.124a2.943 2.943 0 0 1 1.108-.626 4.319 4.319 0 0 1 1.318-.199c.305 0 .628.037.969.11.345.069.666.198.965.387.301.189.548.459.741.811.192.348.288.8.288 1.357V301h-1.452v-1.044h-.059a2.152 2.152 0 0 1-.433.567 2.308 2.308 0 0 1-.741.462c-.301.123-.663.184-1.084.184Zm.324-1.193c.411 0 .762-.081 1.054-.244.295-.162.518-.374.671-.636.156-.265.233-.549.233-.85v-.985c-.053.053-.155.103-.308.15-.149.043-.32.081-.512.114-.192.03-.379.058-.562.084l-.457.06a3.683 3.683 0 0 0-.791.184c-.235.086-.424.21-.566.373-.14.159-.209.371-.209.636 0 .368.136.647.408.835.271.186.618.279 1.039.279Zm11.147-4.748-1.347.239a1.603 1.603 0 0 0-.269-.493 1.322 1.322 0 0 0-.487-.382c-.205-.1-.462-.15-.77-.15-.421 0-.773.095-1.054.284-.282.185-.423.426-.423.721 0 .255.094.46.283.616.189.156.494.284.915.383l1.213.278c.703.163 1.227.413 1.571.751.345.338.517.777.517 1.318 0 .457-.132.865-.397 1.223-.262.354-.629.633-1.099.835-.467.202-1.009.303-1.626.303-.855 0-1.553-.182-2.093-.547-.54-.368-.872-.89-.994-1.566l1.437-.219c.089.375.273.658.551.851.279.189.642.283 1.089.283.487 0 .877-.101 1.169-.303.291-.206.437-.456.437-.751a.78.78 0 0 0-.268-.602c-.176-.162-.446-.285-.811-.367l-1.292-.284c-.713-.162-1.24-.421-1.581-.775-.338-.355-.508-.804-.508-1.348 0-.45.126-.845.378-1.183.252-.338.6-.602 1.044-.79.445-.193.953-.289 1.527-.289.825 0 1.475.179 1.949.537a2.5 2.5 0 0 1 .939 1.427Zm7.506 0-1.347.239a1.603 1.603 0 0 0-.269-.493 1.322 1.322 0 0 0-.487-.382c-.205-.1-.462-.15-.771-.15-.421 0-.772.095-1.054.284-.281.185-.422.426-.422.721 0 .255.094.46.283.616.189.156.494.284.915.383l1.213.278c.703.163 1.226.413 1.571.751s.517.777.517 1.318c0 .457-.132.865-.398 1.223-.261.354-.628.633-1.098.835-.468.202-1.01.303-1.626.303-.855 0-1.553-.182-2.093-.547-.54-.368-.872-.89-.994-1.566l1.436-.219c.09.375.274.658.552.851.279.189.642.283 1.089.283.487 0 .877-.101 1.168-.303.292-.206.438-.456.438-.751a.782.782 0 0 0-.269-.602c-.175-.162-.445-.285-.81-.367l-1.293-.284c-.712-.162-1.239-.421-1.581-.775-.338-.355-.507-.804-.507-1.348 0-.45.126-.845.378-1.183.252-.338.6-.602 1.044-.79.444-.193.953-.289 1.527-.289.825 0 1.474.179 1.948.537.474.355.788.83.94 1.427ZM181.81 301l-2.247-7.636h1.536l1.497 5.608h.074l1.502-5.608h1.536l1.491 5.583h.075l1.486-5.583h1.537L188.054 301h-1.516l-1.551-5.513h-.114L183.321 301h-1.511Zm12.881.154c-.715 0-1.34-.164-1.874-.492a3.322 3.322 0 0 1-1.243-1.377c-.295-.59-.442-1.28-.442-2.068 0-.793.147-1.485.442-2.079a3.323 3.323 0 0 1 1.243-1.382c.534-.328 1.159-.492 1.874-.492.716 0 1.341.164 1.875.492.533.329.948.789 1.243 1.382.295.594.442 1.286.442 2.079 0 .788-.147 1.478-.442 2.068a3.322 3.322 0 0 1-1.243 1.377c-.534.328-1.159.492-1.875.492Zm.005-1.248c.464 0 .849-.122 1.154-.368.305-.245.53-.571.676-.979a3.9 3.9 0 0 0 .224-1.347c0-.488-.075-.935-.224-1.343a2.188 2.188 0 0 0-.676-.989c-.305-.249-.69-.373-1.154-.373-.467 0-.855.124-1.163.373a2.22 2.22 0 0 0-.681.989 3.958 3.958 0 0 0-.219 1.343c0 .49.073.939.219 1.347.149.408.376.734.681.979.308.246.696.368 1.163.368ZM199.91 301v-7.636h1.437v1.213h.08c.139-.411.384-.734.736-.97a2.107 2.107 0 0 1 1.203-.358 7.192 7.192 0 0 1 .631.035v1.422a2.609 2.609 0 0 0-.318-.055 3.068 3.068 0 0 0-.457-.035 1.94 1.94 0 0 0-.94.224 1.66 1.66 0 0 0-.885 1.497V301h-1.487Zm7.959.149a2.958 2.958 0 0 1-1.651-.472c-.48-.318-.858-.771-1.133-1.357-.272-.59-.408-1.298-.408-2.123 0-.826.137-1.532.413-2.118.278-.587.659-1.036 1.143-1.347a2.97 2.97 0 0 1 1.646-.468c.474 0 .855.08 1.143.239.292.156.517.338.676.547.163.209.289.392.378.552h.09v-3.784h1.486V301H210.2v-1.188h-.124a3.934 3.934 0 0 1-.388.557 2.141 2.141 0 0 1-.686.546c-.291.156-.669.234-1.133.234Zm.328-1.268c.427 0 .789-.112 1.084-.338.298-.228.523-.545.676-.949.156-.405.233-.875.233-1.412 0-.53-.076-.995-.228-1.392-.153-.398-.376-.708-.671-.93-.295-.222-.66-.333-1.094-.333-.448 0-.82.116-1.119.348a2.135 2.135 0 0 0-.676.95 3.874 3.874 0 0 0-.224 1.357c0 .51.077.969.229 1.377.153.408.378.731.676.969.302.236.673.353 1.114.353Z"/></svg>