<svg xmlns="http://www.w3.org/2000/svg" width="300" height="330" fill="none"><path fill="#fff" d="M8 .5h284a7.5 7.5 0 0 1 7.5 7.5v314a7.5 7.5 0 0 1-7.5 7.5H8A7.5 7.5 0 0 1 .5 322V8A7.5 7.5 0 0 1 8 .5"/><path stroke="#E2E8F0" d="M8 .5h284a7.5 7.5 0 0 1 7.5 7.5v314a7.5 7.5 0 0 1-7.5 7.5H8A7.5 7.5 0 0 1 .5 322V8A7.5 7.5 0 0 1 8 .5Z"/><path fill="#020618" d="M21.184 36V24.64h7.904v2.048h-5.472v2.608h5.28v2.016h-5.28v2.64h5.6V36zm9.553 0V24.64h2.4V36zm8.063.192c-2.624 0-4.32-1.776-4.32-4.48s1.696-4.48 4.304-4.48c2.544 0 4.192 1.76 4.192 4.64v.48H36.96c.048 1.36.768 2.016 1.888 2.016.8 0 1.36-.336 1.6-1.04l2.416.144c-.464 1.712-2 2.72-4.064 2.72m1.728-5.312c-.064-1.248-.752-1.872-1.744-1.872-1.008 0-1.696.688-1.824 1.872zM46.21 36l-3.136-8.576h2.512l2.032 6.16 2.032-6.16h2.496L49.01 36zm9.568.192c-2.288 0-3.504-1.92-3.504-4.48 0-2.528 1.184-4.48 3.52-4.48 1.2 0 2.112.512 2.576 1.408v-1.216h2.4V36h-2.304l-.048-1.28c-.464.928-1.392 1.472-2.64 1.472m.8-1.84c1.296 0 1.792-1.152 1.792-2.64 0-1.536-.496-2.64-1.792-2.64-1.232 0-1.84 1.168-1.84 2.64 0 1.408.624 2.64 1.84 2.64M65.858 36c-1.776 0-2.576-.784-2.576-2.576v-4.208h-1.376v-1.792h1.376v-2.016h2.4v2.016h2.256v1.792h-2.256v3.92c0 .832.352 1.072 1.056 1.072h1.2V36zm6.92.192c-2.624 0-4.32-1.776-4.32-4.48s1.696-4.48 4.304-4.48c2.544 0 4.192 1.76 4.192 4.64v.48h-6.016c.048 1.36.768 2.016 1.888 2.016.8 0 1.36-.336 1.6-1.04l2.416.144c-.464 1.712-2 2.72-4.064 2.72m1.728-5.312c-.064-1.248-.752-1.872-1.744-1.872-1.008 0-1.696.688-1.824 1.872zM84.761 36v-4.416l-3.936-6.944h2.688l2.48 4.576 2.464-4.576h2.688l-3.936 6.944V36zm9.803.192c-2.624 0-4.352-1.76-4.352-4.48 0-2.704 1.727-4.48 4.352-4.48s4.352 1.776 4.352 4.48c0 2.72-1.728 4.48-4.352 4.48m0-1.84c1.2 0 1.872-.976 1.872-2.64s-.673-2.64-1.873-2.64-1.888.976-1.888 2.64.689 2.64 1.889 2.64m8.261 1.84c-1.776 0-2.816-1.184-2.816-3.248v-5.52h2.4v4.96c0 1.328.4 1.904 1.264 1.904.976 0 1.552-.656 1.552-2.016v-4.848h2.4V36h-2.192l-.032-1.376c-.448 1.04-1.328 1.568-2.576 1.568m6.503-.192v-8.576h2.272l.048 1.728c.352-1.216.992-1.728 2.048-1.728h.784v1.984h-.784c-1.344 0-1.968.496-1.968 1.776V36zm9.781 0V24.64h3.92c3.68 0 5.744 2.048 5.744 5.696 0 3.632-2.032 5.664-5.648 5.664zm3.92-2.048c2.192 0 3.232-1.168 3.232-3.632s-1.04-3.632-3.232-3.632h-1.488v7.264zm10.924 2.24c-2.624 0-4.32-1.776-4.32-4.48s1.696-4.48 4.304-4.48c2.544 0 4.192 1.76 4.192 4.64v.48h-6.016c.048 1.36.768 2.016 1.888 2.016.8 0 1.36-.336 1.6-1.04l2.416.144c-.464 1.712-2 2.72-4.064 2.72m1.728-5.312c-.064-1.248-.752-1.872-1.744-1.872-1.008 0-1.696.688-1.824 1.872zm5.682 5.12-3.136-8.576h2.512l2.032 6.16 2.032-6.16h2.496L144.163 36zm10.384.192c-2.624 0-4.32-1.776-4.32-4.48s1.696-4.48 4.304-4.48c2.544 0 4.192 1.76 4.192 4.64v.48h-6.016c.048 1.36.768 2.016 1.888 2.016.8 0 1.36-.336 1.6-1.04l2.416.144c-.464 1.712-2 2.72-4.064 2.72m1.728-5.312c-.064-1.248-.752-1.872-1.744-1.872-1.008 0-1.696.688-1.824 1.872zm3.659 5.12V24.64h2.4V36zm8.095.192c-2.624 0-4.352-1.76-4.352-4.48 0-2.704 1.728-4.48 4.352-4.48s4.352 1.776 4.352 4.48c0 2.72-1.728 4.48-4.352 4.48m0-1.84c1.2 0 1.872-.976 1.872-2.64s-.672-2.64-1.872-2.64-1.888.976-1.888 2.64.688 2.64 1.888 2.64m5.493 4.048V27.424h2.304l.032 1.296c.496-.96 1.408-1.488 2.544-1.488 2.4 0 3.616 1.968 3.616 4.48s-1.232 4.48-3.632 4.48c-1.056 0-1.984-.512-2.464-1.376V38.4zm4.208-4.048c1.12 0 1.824-1.008 1.824-2.64s-.704-2.64-1.824-2.64-1.808.912-1.808 2.64.672 2.64 1.808 2.64M180.353 36v-8.576h2.16l.048 1.392c.448-1.008 1.312-1.584 2.336-1.584 1.232 0 2.08.656 2.448 1.744.416-1.136 1.28-1.744 2.416-1.744 1.76 0 2.88 1.136 2.88 3.248V36h-2.4v-4.848c0-1.344-.4-2.016-1.296-2.016-.88 0-1.376.752-1.376 2.048V36h-2.16v-4.816c0-1.328-.352-2.048-1.28-2.048-.88 0-1.376.752-1.376 2.048V36zm17.691.192c-2.624 0-4.32-1.776-4.32-4.48s1.696-4.48 4.304-4.48c2.544 0 4.192 1.76 4.192 4.64v.48h-6.016c.048 1.36.768 2.016 1.888 2.016.8 0 1.36-.336 1.6-1.04l2.416.144c-.464 1.712-2 2.72-4.064 2.72m1.728-5.312c-.064-1.248-.752-1.872-1.744-1.872-1.008 0-1.696.688-1.824 1.872zm3.593 5.12v-8.576h2.16l.048 1.408c.48-1.152 1.408-1.6 2.544-1.6 1.84 0 2.912 1.264 2.912 3.248V36h-2.4v-4.72c0-1.376-.304-2.144-1.312-2.144-.992 0-1.552.768-1.552 2.144V36zm12.449 0c-1.776 0-2.576-.784-2.576-2.576v-4.208h-1.376v-1.792h1.376v-2.016h2.4v2.016h2.256v1.792h-2.256v3.92c0 .832.352 1.072 1.056 1.072h1.2V36z"/><path fill="#62748E" d="M21.288 58v-9.94h6.244v1.176h-5.04v3.206h4.872v1.148h-4.872v3.234h5.152V58zm9.884 0-2.702-7.42h1.288l2.156 6.216 2.156-6.216h1.288L32.656 58zm8.145.168q-1.05 0-1.82-.476a3.2 3.2 0 0 1-1.176-1.344q-.406-.882-.406-2.058t.406-2.044q.42-.869 1.162-1.344.756-.49 1.778-.49.966 0 1.708.462.742.448 1.148 1.316.42.868.42 2.114v.35h-5.39q.07 1.19.63 1.792.574.602 1.54.602.728 0 1.19-.336a1.8 1.8 0 0 0 .658-.91l1.26.098a3.17 3.17 0 0 1-1.12 1.638q-.812.63-1.988.63m-2.17-4.55h4.102q-.084-1.078-.63-1.582-.532-.504-1.358-.504-.854 0-1.414.532-.546.518-.7 1.554M44.13 58v-7.42h1.036l.056 1.876-.112-.042q.14-.953.602-1.386.475-.448 1.26-.448h.728v1.12h-.714q-.56 0-.938.21-.365.195-.56.602-.183.392-.182 1.008V58zm5.271 2.1v-1.036h.854q.392 0 .574-.126.196-.112.294-.378l.266-.7h-.406l-2.716-7.28h1.288l2.212 6.188 2.114-6.188h1.288l-3.01 8.358q-.21.602-.63.882t-1.162.28zm9.572-2.1q-1.008 0-1.498-.462-.476-.462-.476-1.442v-7.252h1.176v7.224q0 .504.224.7t.686.196h1.064V58zm-3.066-6.384V50.58h4.242v1.036zM61.657 58v-9.94h1.176v4.158l-.14-.028q.14-.616.476-1.008t.826-.574q.49-.196 1.078-.196.798 0 1.344.364.56.35.84.994.294.63.294 1.456V58h-1.176v-4.438q0-1.078-.392-1.596-.379-.518-1.162-.518-.896 0-1.442.546t-.546 1.582V58zm7.998 0v-7.42h1.176V58zm-.028-8.582v-1.372h1.232v1.372zM73.21 58v-7.42h1.078l.042 1.89-.14-.126q.14-.658.49-1.078.35-.434.84-.644.504-.21 1.078-.21.855 0 1.4.378.56.378.826 1.022.28.63.28 1.414V58h-1.176v-4.438q0-.686-.168-1.148-.154-.476-.504-.714-.35-.252-.91-.252-.854 0-1.414.546-.546.532-.546 1.568V58zm10.785 2.268a3.75 3.75 0 0 1-1.443-.266 2.9 2.9 0 0 1-1.078-.756 2.6 2.6 0 0 1-.588-1.134l1.233-.084q.168.518.588.812.433.308 1.288.308 1.007 0 1.54-.406.546-.406.546-1.218V56.32a2.07 2.07 0 0 1-.855.938q-.587.35-1.315.35a3.1 3.1 0 0 1-1.68-.462 3.23 3.23 0 0 1-1.148-1.274q-.406-.812-.406-1.862 0-1.065.405-1.862.407-.812 1.12-1.274a3 3 0 0 1 1.653-.462q.783 0 1.4.364.63.365.882.98V50.58h1.12v6.916q0 .868-.392 1.484-.393.63-1.12.952-.73.336-1.75.336m-.029-3.78q.953 0 1.527-.658.573-.672.588-1.82.013-.77-.252-1.316a1.85 1.85 0 0 0-.742-.854q-.477-.308-1.12-.308-.98 0-1.526.672-.532.658-.532 1.806t.545 1.82q.56.658 1.513.658m9.349 3.612v-1.036h.854q.392 0 .574-.126.196-.112.294-.378l.266-.7h-.406l-2.716-7.28h1.288l2.212 6.188 2.114-6.188h1.288l-3.01 8.358q-.21.602-.63.882t-1.162.28zm9.726-1.932q-1.021 0-1.792-.476a3.15 3.15 0 0 1-1.19-1.344q-.42-.882-.42-2.058 0-1.19.42-2.058a3.15 3.15 0 0 1 1.19-1.344q.77-.476 1.792-.476t1.778.476q.77.476 1.19 1.344t.42 2.058q0 1.176-.42 2.058a3.15 3.15 0 0 1-1.19 1.344q-.756.476-1.778.476m0-1.12q1.023 0 1.582-.728.574-.742.574-2.03t-.574-2.016q-.56-.742-1.582-.742-1.021 0-1.596.742-.573.727-.574 2.016 0 1.288.574 2.03.575.728 1.596.728m7.427 1.12q-1.106 0-1.778-.742-.658-.756-.658-2.072V50.58h1.176v4.452q0 1.078.378 1.596.392.504 1.19.504.882 0 1.386-.56.504-.574.504-1.568V50.58h1.176V58h-1.12v-1.834l.182.098q-.224.91-.854 1.414-.63.49-1.582.49m9.117-.168v-7.42h1.078l.042 1.89-.14-.126q.14-.658.49-1.078.35-.434.84-.644.504-.21 1.078-.21.854 0 1.4.378.56.378.826 1.022.28.63.28 1.414V58h-1.176v-4.438q0-.686-.168-1.148-.154-.476-.504-.714-.35-.252-.91-.252-.854 0-1.414.546-.546.532-.546 1.568V58zm10.869.168q-1.05 0-1.82-.476a3.2 3.2 0 0 1-1.176-1.344q-.406-.882-.406-2.058t.406-2.044q.42-.869 1.162-1.344.755-.49 1.778-.49.966 0 1.708.462.741.448 1.148 1.316.42.868.42 2.114v.35h-5.39q.069 1.19.63 1.792.574.602 1.54.602.728 0 1.19-.336.475-.35.658-.91l1.26.098a3.18 3.18 0 0 1-1.12 1.638q-.812.63-1.988.63m-2.17-4.55h4.102q-.084-1.078-.63-1.582-.533-.504-1.358-.504-.855 0-1.414.532-.547.518-.7 1.554m9.88 4.55q-1.05 0-1.82-.476a3.2 3.2 0 0 1-1.176-1.344q-.406-.882-.406-2.058t.406-2.044q.42-.869 1.162-1.344.756-.49 1.778-.49.966 0 1.708.462.743.448 1.148 1.316.42.868.42 2.114v.35h-5.39q.07 1.19.63 1.792.574.602 1.54.602.728 0 1.19-.336.477-.35.658-.91l1.26.098a3.17 3.17 0 0 1-1.12 1.638q-.812.63-1.988.63m-2.17-4.55h4.102q-.084-1.078-.63-1.582-.531-.504-1.358-.504-.853 0-1.414.532-.546.518-.7 1.554m9.615 4.55q-.966 0-1.68-.476-.7-.476-1.078-1.344t-.378-2.058.378-2.058q.379-.868 1.078-1.344.714-.476 1.68-.476.743 0 1.358.322.617.308.924.882V48.06h1.176V58h-1.064l-.042-1.12a2.25 2.25 0 0 1-.938.952q-.63.336-1.414.336m.238-1.12q.659 0 1.106-.336.463-.336.7-.952.238-.63.238-1.47 0-.868-.238-1.484-.237-.615-.7-.938-.447-.336-1.106-.336-.98 0-1.568.742-.574.727-.574 2.016 0 1.274.574 2.016.588.742 1.568.742M157.52 58q-1.008 0-1.498-.462-.476-.462-.476-1.442v-7.252h1.176v7.224q0 .504.224.7t.686.196h1.064V58zm-3.066-6.384V50.58h4.242v1.036zm8.511 6.552q-1.021 0-1.792-.476a3.15 3.15 0 0 1-1.19-1.344q-.42-.882-.42-2.058 0-1.19.42-2.058a3.15 3.15 0 0 1 1.19-1.344q.77-.476 1.792-.476t1.778.476q.77.476 1.19 1.344t.42 2.058q0 1.176-.42 2.058a3.15 3.15 0 0 1-1.19 1.344q-.755.476-1.778.476m0-1.12q1.023 0 1.582-.728.574-.742.574-2.03t-.574-2.016q-.56-.742-1.582-.742t-1.596.742q-.573.727-.574 2.016 0 1.288.574 2.03.575.728 1.596.728m12.03 1.12q-.77 0-1.372-.336a2.4 2.4 0 0 1-.924-.952l-.042 1.12h-1.064v-9.94h1.176v3.556q.28-.462.868-.826a2.45 2.45 0 0 1 1.358-.378q.98 0 1.694.476t1.106 1.344.392 2.058-.392 2.058-1.106 1.344-1.694.476m-.07-1.12q.938 0 1.484-.742.546-.743.546-2.016 0-1.288-.546-2.016-.546-.742-1.456-.742-.687 0-1.176.336-.49.322-.756.938-.252.615-.252 1.484 0 .84.252 1.47.265.616.742.952.49.336 1.162.336m7.293 1.12q-1.106 0-1.778-.742-.658-.756-.658-2.072V50.58h1.176v4.452q0 1.078.378 1.596.392.504 1.19.504.882 0 1.386-.56.504-.574.504-1.568V50.58h1.176V58h-1.12v-1.834l.182.098q-.224.91-.854 1.414-.63.49-1.582.49M187.63 58v-7.42h1.176V58zm-.028-8.582v-1.372h1.232v1.372zM192.367 58q-.643 0-1.05-.336-.406-.336-.406-1.064v-8.54h1.176v8.442q0 .224.112.35a.5.5 0 0 0 .35.112h.644V58zm4.826.168q-.966 0-1.68-.476-.7-.476-1.078-1.344t-.378-2.058.378-2.058 1.078-1.344q.714-.476 1.68-.476.743 0 1.358.322.616.308.924.882V48.06h1.176V58h-1.064l-.042-1.12a2.25 2.25 0 0 1-.938.952q-.63.336-1.414.336m.238-1.12q.659 0 1.106-.336.463-.336.7-.952.238-.63.238-1.47 0-.868-.238-1.484-.237-.615-.7-.938-.447-.336-1.106-.336-.98 0-1.568.742-.574.727-.574 2.016 0 1.274.574 2.016.588.742 1.568.742M24.018 76.168q-1.05 0-1.82-.476a3.2 3.2 0 0 1-1.176-1.344q-.405-.882-.406-2.058 0-1.176.406-2.044.42-.868 1.162-1.344.756-.49 1.778-.49.966 0 1.708.462.742.448 1.148 1.316.42.868.42 2.114v.35h-5.39q.07 1.19.63 1.792.574.602 1.54.602.728 0 1.19-.336a1.8 1.8 0 0 0 .658-.91l1.26.098a3.17 3.17 0 0 1-1.12 1.638q-.812.63-1.988.63m-2.17-4.55h4.102q-.084-1.078-.63-1.582-.532-.504-1.358-.504-.854 0-1.414.532-.546.517-.7 1.554M27.808 76l2.73-3.808-2.59-3.612h1.372l1.946 2.8 1.89-2.8h1.4l-2.562 3.64L34.682 76H33.31l-2.044-2.996L29.208 76zm10.853.168q-1.037 0-1.806-.476a3.2 3.2 0 0 1-1.176-1.344q-.42-.882-.42-2.058t.42-2.044a3.2 3.2 0 0 1 1.176-1.344q.77-.49 1.806-.49.854 0 1.512.308.672.294 1.092.868t.546 1.4l-1.232.084q-.127-.743-.644-1.134-.519-.405-1.274-.406-1.023 0-1.596.742-.574.727-.574 2.016-.001 1.288.574 2.03.573.728 1.596.728.755 0 1.274-.42.518-.42.644-1.26l1.232.084a3.44 3.44 0 0 1-.546 1.442q-.42.602-1.092.938-.66.336-1.512.336m7.505 0q-1.05 0-1.82-.476a3.2 3.2 0 0 1-1.176-1.344q-.405-.882-.406-2.058 0-1.176.406-2.044.42-.868 1.162-1.344.756-.49 1.778-.49.966 0 1.708.462.743.448 1.148 1.316.42.868.42 2.114v.35h-5.39q.07 1.19.63 1.792.574.602 1.54.602.728 0 1.19-.336a1.8 1.8 0 0 0 .658-.91l1.26.098a3.17 3.17 0 0 1-1.12 1.638q-.811.63-1.988.63m-2.17-4.55h4.102q-.084-1.078-.63-1.582-.531-.504-1.358-.504-.853 0-1.414.532-.546.517-.7 1.554M50.98 78.1v-9.52h1.092l.028 1.596-.168-.084q.28-.825.924-1.246.658-.434 1.512-.434 1.107 0 1.806.546.714.546 1.05 1.428.35.882.35 1.904t-.35 1.904a3.2 3.2 0 0 1-1.05 1.428q-.699.546-1.806.546-.573 0-1.078-.196a2.5 2.5 0 0 1-.84-.546 1.86 1.86 0 0 1-.462-.826l.168-.196V78.1zm3.276-3.052q.966 0 1.526-.728t.56-2.03-.56-2.03-1.526-.728q-.643 0-1.12.308-.462.308-.728.924-.252.616-.252 1.526t.252 1.526.728.924q.477.308 1.12.308m7.343.952q-1.008 0-1.498-.462-.476-.462-.476-1.442v-7.252H60.8v7.224q0 .504.224.7t.686.196h1.064V76zm-3.066-6.384V68.58h4.242v1.036zM64.282 76v-7.42h1.176V76zm-.028-8.582v-1.372h1.232v1.372zm6.207 8.75q-1.021 0-1.792-.476a3.15 3.15 0 0 1-1.19-1.344q-.42-.882-.42-2.058 0-1.19.42-2.058a3.15 3.15 0 0 1 1.19-1.344q.77-.476 1.792-.476t1.778.476q.77.475 1.19 1.344.42.868.42 2.058 0 1.176-.42 2.058a3.15 3.15 0 0 1-1.19 1.344q-.755.476-1.778.476m0-1.12q1.023 0 1.582-.728.574-.742.574-2.03t-.574-2.016q-.56-.742-1.582-.742-1.021 0-1.596.742-.574.727-.574 2.016 0 1.288.574 2.03.575.728 1.596.728m4.991.952v-7.42h1.078l.042 1.89-.14-.126q.14-.658.49-1.078.35-.435.84-.644.504-.21 1.078-.21.855 0 1.4.378.56.378.826 1.022.28.63.28 1.414V76H80.17v-4.438q0-.686-.168-1.148-.154-.475-.504-.714-.35-.252-.91-.252-.854 0-1.414.546-.546.532-.546 1.568V76zm10 .168q-1.148 0-1.834-.532-.672-.533-.672-1.484 0-.952.56-1.498t1.778-.77l2.632-.49q0-.938-.448-1.4-.434-.462-1.316-.462-.77 0-1.218.35-.448.335-.616.98l-1.246-.098q.21-1.05 1.008-1.694.812-.658 2.072-.658 1.428 0 2.184.812.756.798.756 2.212v3.066q0 .252.084.364.098.098.308.098h.294V76a1 1 0 0 1-.182.014 2 2 0 0 1-.266.014q-.504 0-.826-.154a1 1 0 0 1-.448-.504q-.14-.35-.14-.91l.14.028a1.75 1.75 0 0 1-.476.868 2.75 2.75 0 0 1-.938.602q-.56.21-1.19.21m.112-1.036q.743 0 1.26-.28.532-.294.812-.784.28-.504.28-1.12v-.532l-2.408.448q-.756.14-1.05.434-.28.28-.28.742 0 .518.364.812.378.28 1.022.28M92.48 76q-.643 0-1.05-.336-.405-.336-.406-1.064v-8.54H92.2v8.442q0 .225.112.35.126.112.35.112h.644V76zm5.777 0v-7.42h1.176V76zm-.028-8.582v-1.372h1.232v1.372zM101.81 76v-7.42h1.078l.042 1.89-.14-.126q.14-.658.49-1.078.351-.435.84-.644.504-.21 1.078-.21.854 0 1.4.378.56.378.826 1.022.28.63.28 1.414V76h-1.176v-4.438q0-.686-.168-1.148-.153-.475-.504-.714-.35-.252-.91-.252-.853 0-1.414.546-.546.532-.546 1.568V76zm10.291 0q-1.008 0-1.498-.462-.476-.462-.476-1.442v-7.252h1.176v7.224q0 .504.224.7t.686.196h1.064V76zm-3.066-6.384V68.58h4.242v1.036zm8.511 6.552q-1.05 0-1.82-.476a3.2 3.2 0 0 1-1.176-1.344q-.405-.882-.406-2.058 0-1.176.406-2.044.42-.868 1.162-1.344.756-.49 1.778-.49.967 0 1.708.462.743.448 1.148 1.316.42.868.42 2.114v.35h-5.39q.07 1.19.63 1.792.574.602 1.54.602.729 0 1.19-.336.477-.35.658-.91l1.26.098a3.17 3.17 0 0 1-1.12 1.638q-.812.63-1.988.63m-2.17-4.55h4.102q-.084-1.078-.63-1.582-.531-.504-1.358-.504-.853 0-1.414.532-.546.517-.7 1.554M122.36 76v-7.42h1.036l.056 1.876-.112-.042q.14-.953.602-1.386.477-.448 1.26-.448h.728v1.12h-.714q-.56 0-.938.21-.363.195-.56.602-.182.392-.182 1.008V76zm5.336 0v-8.092q0-.825.476-1.33.476-.518 1.484-.518h1.176v1.036h-1.092q-.435 0-.658.238-.21.238-.21.658V76zm-1.008-6.384V68.58h4.046v1.036zm7.381 6.552q-1.147 0-1.834-.532-.672-.533-.672-1.484 0-.952.56-1.498t1.778-.77l2.632-.49q0-.938-.448-1.4-.434-.462-1.316-.462-.77 0-1.218.35-.447.335-.616.98l-1.246-.098q.21-1.05 1.008-1.694.813-.658 2.072-.658 1.428 0 2.184.812.756.798.756 2.212v3.066q0 .252.084.364.099.098.308.098h.294V76a1 1 0 0 1-.182.014 2 2 0 0 1-.266.014q-.504 0-.826-.154a1 1 0 0 1-.448-.504q-.14-.35-.14-.91l.14.028a1.75 1.75 0 0 1-.476.868 2.7 2.7 0 0 1-.938.602q-.56.21-1.19.21m.112-1.036q.742 0 1.26-.28.533-.294.812-.784.28-.504.28-1.12v-.532l-2.408.448q-.756.14-1.05.434-.28.28-.28.742 0 .518.364.812.378.28 1.022.28m8.413 1.036q-1.035 0-1.806-.476a3.2 3.2 0 0 1-1.176-1.344q-.42-.882-.42-2.058t.42-2.044a3.2 3.2 0 0 1 1.176-1.344q.771-.49 1.806-.49.855 0 1.512.308.672.294 1.092.868t.546 1.4l-1.232.084q-.125-.743-.644-1.134-.518-.405-1.274-.406-1.022 0-1.596.742-.574.727-.574 2.016 0 1.288.574 2.03.575.728 1.596.728.756 0 1.274-.42.519-.42.644-1.26l1.232.084a3.44 3.44 0 0 1-.546 1.442q-.42.602-1.092.938-.657.336-1.512.336m7.506 0q-1.05 0-1.82-.476a3.2 3.2 0 0 1-1.176-1.344q-.406-.882-.406-2.058t.406-2.044q.42-.868 1.162-1.344.756-.49 1.778-.49.966 0 1.708.462.742.448 1.148 1.316.42.868.42 2.114v.35h-5.39q.07 1.19.63 1.792.574.602 1.54.602.728 0 1.19-.336a1.8 1.8 0 0 0 .658-.91l1.26.098a3.17 3.17 0 0 1-1.12 1.638q-.812.63-1.988.63m-2.17-4.55h4.102q-.084-1.078-.63-1.582-.532-.504-1.358-.504-.854 0-1.414.532-.546.517-.7 1.554m9.685 4.55q-.994 0-1.694-.322a2.66 2.66 0 0 1-1.078-.882 2.7 2.7 0 0 1-.434-1.302l1.232-.084q.112.672.574 1.078.462.392 1.4.392.756 0 1.204-.238.462-.252.462-.798a.82.82 0 0 0-.14-.49q-.14-.196-.546-.336-.406-.154-1.204-.294-1.064-.196-1.68-.476-.602-.294-.868-.714a2 2 0 0 1-.252-1.022q0-.994.728-1.624.728-.644 2.072-.644.91 0 1.526.336.63.322.98.868.364.533.476 1.176l-1.232.084a1.7 1.7 0 0 0-.308-.686 1.5 1.5 0 0 0-.588-.476 1.9 1.9 0 0 0-.868-.182q-.798 0-1.176.308a.97.97 0 0 0-.378.784q0 .364.168.602.182.224.574.378a6.4 6.4 0 0 0 1.05.252q1.134.196 1.764.476t.882.686q.252.405.252.994 0 .686-.392 1.176-.378.476-1.036.728-.643.252-1.47.252"/><path fill="#F8FAFC" d="M268 20.25c6.489 0 11.75 5.26 11.75 11.75S274.489 43.75 268 43.75 256.25 38.49 256.25 32s5.261-11.75 11.75-11.75"/><path stroke="#E2E8F0" stroke-width=".5" d="M268 20.25c6.489 0 11.75 5.26 11.75 11.75S274.489 43.75 268 43.75 256.25 38.49 256.25 32s5.261-11.75 11.75-11.75Z"/><path fill="#020618" d="M265.354 28.647a.5.5 0 0 0-.701.006.5.5 0 0 0-.006.7L267.294 32l-2.647 2.647a.5.5 0 0 0-.152.355.495.495 0 0 0 .31.467.5.5 0 0 0 .549-.116l2.647-2.646 2.646 2.646a.5.5 0 0 0 .701-.006.502.502 0 0 0 .006-.7L268.708 32l2.646-2.646a.5.5 0 0 0-.006-.701.5.5 0 0 0-.701-.006l-2.646 2.646z"/><g clip-path="url(#a)"><mask id="b" fill="#fff"><path d="M20 100h260v51H20z"/></mask><path fill="#fff" d="M20 100h260v51H20z"/><path fill="#E2E8F0" d="M280 151v-1H20v2h260z" mask="url(#b)"/><g clip-path="url(#c)"><path fill="#155DFC" d="M40.541 117.18c-.303.126-.579.31-.811.543l-6.007 6.008a2.5 2.5 0 0 0-.733 1.769 2.5 2.5 0 0 0 .733 1.77l6.007 6.007a2.5 2.5 0 0 0 1.77.733 2.512 2.512 0 0 0 1.77-.733l6.006-6.007a2.51 2.51 0 0 0 .543-2.727 2.5 2.5 0 0 0-.543-.812l-6.007-6.007a2.5 2.5 0 0 0-2.728-.543m3.945 5.701a.594.594 0 0 1 .133.829l-2.847 3.943a1.384 1.384 0 0 1-2.166.102l-1.193-1.362a.596.596 0 0 1 .895-.783l1.191 1.363a.2.2 0 0 0 .158.067.198.198 0 0 0 .151-.082l2.849-3.943a.6.6 0 0 1 .618-.23q.115.027.211.096"/></g><path fill="#020618" d="m63.054 126.51-3.5-5.95h1.736l2.52 4.438 2.506-4.438h1.736l-3.486 5.95v3.99h-1.512zm8.54 4.158q-1.064 0-1.863-.476a3.17 3.17 0 0 1-1.232-1.358q-.435-.882-.434-2.058 0-1.162.434-2.044.435-.896 1.218-1.372.784-.476 1.834-.476 1.023 0 1.792.476.77.462 1.19 1.358.435.882.434 2.114v.378H69.62q.042 1.064.56 1.624.532.56 1.428.56.659 0 1.092-.294.435-.294.616-.84l1.54.098a3 3 0 0 1-1.176 1.694q-.867.616-2.086.616m1.791-4.578q-.07-.966-.56-1.456-.476-.49-1.274-.49-.797 0-1.316.504-.504.504-.616 1.442zm5.336 4.578q-1.163 0-1.862-.532-.686-.546-.686-1.498t.574-1.498 1.806-.784l2.562-.49q0-.868-.406-1.288-.392-.434-1.19-.434-.7 0-1.12.322-.42.308-.56.924l-1.54-.098q.21-1.134 1.05-1.764.853-.644 2.17-.644 1.497 0 2.282.798.798.798.798 2.268v2.898q0 .266.098.378.098.098.308.098h.266v1.176q-.099.014-.252.028a3 3 0 0 1-.294.014q-.77 0-1.148-.364-.364-.378-.364-1.26l.154.07q-.155.728-.896 1.204-.742.476-1.75.476m.252-1.176q.657 0 1.134-.252.49-.266.742-.728.266-.462.266-1.05v-.476l-2.17.42q-.658.126-.952.392-.28.266-.28.7 0 .476.322.742.335.252.938.252m5.755-6.44h1.358l.056 1.974-.126-.042q.153-.994.616-1.456.462-.476 1.274-.476h.714v1.33h-.714q-.574 0-.952.196a1.25 1.25 0 0 0-.56.56q-.183.378-.182.966v4.396h-1.484zm7.189 7.448q-.77 0-1.204-.378-.435-.392-.434-1.204l.014-8.358h1.483v8.218q0 .252.127.378.14.126.377.126h.602v1.218zm2.569.882h.896q.364 0 .546-.112a.7.7 0 0 0 .294-.378l.238-.616h-.462l-2.688-7.224h1.568l2.044 5.852 1.96-5.852h1.568l-2.968 8.316q-.224.644-.672.938-.434.294-1.204.294h-1.12zM192.264 136.184v-21.456h1.944v21.456zm1.08-1.944q-1.944 0-3.312-.696a5.25 5.25 0 0 1-2.136-2.04q-.744-1.344-.888-3.264l3.312-.168q.144 1.08.528 1.824.408.744 1.032 1.104.648.36 1.584.36t1.536-.216q.624-.216.912-.624.312-.432.312-1.032 0-.696-.312-1.152-.312-.48-1.152-.864t-2.424-.768q-1.584-.36-2.688-.984t-1.68-1.584-.576-2.328q0-1.488.672-2.592.672-1.128 1.968-1.728 1.296-.624 3.168-.624 1.824 0 3.12.672a4.75 4.75 0 0 1 2.016 1.872q.744 1.224.864 2.976l-3.312.168q-.12-.888-.432-1.512a2.07 2.07 0 0 0-.888-.96q-.576-.336-1.512-.336-1.248 0-1.896.504t-.648 1.416q0 .648.288 1.056t1.056.744q.768.312 2.184.696 2.016.504 3.192 1.224 1.176.696 1.656 1.68.504.96.504 2.304 0 1.536-.72 2.616t-2.088 1.68q-1.344.576-3.24.576m11.055-.24q0-2.592.672-4.992a21.7 21.7 0 0 1 1.968-4.68 26 26 0 0 1 3.048-4.296h-8.4v-3.072h11.808v2.904a31 31 0 0 0-2.52 3.288 18.7 18.7 0 0 0-1.704 3.264 17 17 0 0 0-.984 3.552 24 24 0 0 0-.312 4.032zm17.534-17.424q2.088 0 3.48.912 1.416.888 2.136 2.616t.72 4.224q0 2.112-.384 3.936t-1.224 3.216a5.94 5.94 0 0 1-2.136 2.136q-1.32.768-3.216.768-1.68 0-2.808-.552a4.7 4.7 0 0 1-1.776-1.512 6.9 6.9 0 0 1-.96-2.208l3.456-.24q.192.624.648 1.056.48.432 1.44.432 1.056 0 1.848-.6.792-.624 1.224-1.968t.456-3.528l1.056.096q-.24.768-.84 1.488t-1.56 1.176q-.96.432-2.256.432-1.68 0-2.928-.696a5 5 0 0 1-1.944-2.016q-.672-1.296-.672-3 0-1.896.768-3.264a5.4 5.4 0 0 1 2.184-2.136q1.416-.768 3.288-.768m.072 3.072q-1.344 0-2.088.768-.72.768-.72 2.208 0 1.32.672 2.136.696.792 1.992.792.888 0 1.536-.36.672-.384 1.008-1.032.36-.672.36-1.56a3.3 3.3 0 0 0-.336-1.488q-.312-.672-.936-1.056-.6-.408-1.488-.408"/><path fill="#62748E" d="m232.56 131.54 4.13-12.04h1.12l-4.13 12.04zm7.609.56v-1.036h.854c.518 0 .728-.154.868-.504l.266-.7h-.406l-2.716-7.28h1.288l2.212 6.188 2.114-6.188h1.288l-3.01 8.358c-.28.798-.798 1.162-1.792 1.162zm9.782-1.932c-2.1 0-3.402-1.526-3.402-3.878s1.302-3.878 3.346-3.878c1.932 0 3.276 1.4 3.276 3.892v.35h-5.39c.084 1.596.882 2.394 2.17 2.394.966 0 1.596-.49 1.848-1.246l1.26.098c-.392 1.33-1.54 2.268-3.108 2.268m1.932-4.55c-.112-1.428-.896-2.086-1.988-2.086-1.148 0-1.918.714-2.114 2.086zm5.115 4.55c-1.54 0-2.506-.742-2.506-2.016 0-1.26.714-1.96 2.338-2.268l2.632-.49c0-1.246-.588-1.862-1.764-1.862-1.036 0-1.61.476-1.834 1.33l-1.246-.098c.28-1.4 1.4-2.352 3.08-2.352 1.904 0 2.94 1.148 2.94 3.024v3.066c0 .336.112.462.392.462h.294V130a3 3 0 0 1-.448.028c-.896 0-1.302-.35-1.4-1.176-.364.77-1.386 1.316-2.478 1.316m.112-1.036c1.484 0 2.352-.952 2.352-2.184v-.532l-2.408.448c-1.008.182-1.33.56-1.33 1.176 0 .7.518 1.092 1.386 1.092m5.76.868v-7.42h1.036l.042 1.372c.266-.938.854-1.372 1.764-1.372h.728v1.12h-.714c-1.12 0-1.68.602-1.68 1.82V130z"/><mask id="d" fill="#fff"><path d="M20 151h260v51H20z"/></mask><path fill="#fff" d="M20 151h260v51H20z"/><path fill="#E2E8F0" d="M280 202v-1H20v2h260z" mask="url(#d)"/><g clip-path="url(#e)"><path stroke="#E2E8F0" stroke-linecap="round" stroke-linejoin="round" stroke-width="1.188" d="M34.143 175.15a1.91 1.91 0 0 0-.414 2.081c.096.231.236.442.414.619l6.007 6.007a1.909 1.909 0 0 0 2.7 0l6.007-6.007a1.91 1.91 0 0 0 .414-2.081 1.9 1.9 0 0 0-.414-.619l-6.007-6.007a1.91 1.91 0 0 0-2.08-.414 1.9 1.9 0 0 0-.62.414z"/></g><path fill="#020618" d="M60.257 171.56h2.072l2.954 8.162 2.954-8.162h2.072v9.94h-1.512v-7.28l-2.674 7.266h-1.68l-2.674-7.266v7.28h-1.512zm15.395 10.108q-1.064 0-1.862-.476a3.25 3.25 0 0 1-1.246-1.358q-.434-.882-.434-2.058t.434-2.058a3.25 3.25 0 0 1 1.246-1.358q.798-.476 1.862-.476 1.05 0 1.848.476t1.232 1.358q.448.882.448 2.058t-.448 2.058q-.435.882-1.232 1.358-.798.476-1.848.476m0-1.288q.938 0 1.456-.686.532-.7.532-1.918t-.532-1.904q-.517-.7-1.456-.7-.937 0-1.47.686t-.532 1.918.532 1.918 1.47.686m5.109-6.328h1.358l.056 1.988-.182-.098q.182-1.036.826-1.54.658-.518 1.596-.518 1.204 0 1.862.784.658.77.658 2.044v4.788H85.45v-4.34q0-1.008-.336-1.512-.336-.518-1.106-.518-.811 0-1.288.532-.476.532-.476 1.498v4.34H80.76zm10.704 7.448q-1.064 0-1.568-.49t-.504-1.526v-7.182h1.484v7.07q0 .504.21.714.223.196.7.196h1.064v1.218zm-3.206-7.448h4.592v1.218h-4.592zm6.12-2.492h1.483v4.172l-.182-.028q.182-.91.812-1.358.63-.462 1.554-.462 1.19 0 1.848.77t.658 2.058v4.788h-1.484v-4.396q0-.994-.35-1.484t-1.064-.49q-.84 0-1.316.532-.476.517-.476 1.47v4.368h-1.484zm9.731 9.94q-.77 0-1.204-.378-.434-.392-.434-1.204l.014-8.358h1.484v8.218q0 .252.126.378a.54.54 0 0 0 .378.126h.602v1.218zm2.569.882h.896q.365 0 .546-.112a.7.7 0 0 0 .294-.378l.238-.616h-.462l-2.688-7.224h1.568l2.044 5.852 1.96-5.852h1.568l-2.968 8.316q-.224.644-.672.938-.433.294-1.204.294h-1.12zM179.264 187.184v-21.456h1.944v21.456zm1.08-1.944q-1.944 0-3.312-.696a5.25 5.25 0 0 1-2.136-2.04q-.744-1.344-.888-3.264l3.312-.168q.144 1.08.528 1.824.408.744 1.032 1.104.648.36 1.584.36t1.536-.216q.624-.216.912-.624.312-.432.312-1.032 0-.696-.312-1.152-.312-.48-1.152-.864t-2.424-.768q-1.584-.36-2.688-.984t-1.68-1.584-.576-2.328q0-1.488.672-2.592.672-1.128 1.968-1.728 1.296-.624 3.168-.624 1.824 0 3.12.672a4.75 4.75 0 0 1 2.016 1.872q.744 1.224.864 2.976l-3.312.168q-.12-.888-.432-1.512a2.07 2.07 0 0 0-.888-.96q-.576-.336-1.512-.336-1.248 0-1.896.504t-.648 1.416q0 .648.288 1.056t1.056.744q.768.312 2.184.696 2.016.504 3.192 1.224 1.176.696 1.656 1.68.504.96.504 2.304 0 1.536-.72 2.616t-2.088 1.68q-1.344.576-3.24.576m13.095-.24v-11.184h-4.176v-2.832h1.872q.96 0 1.56-.288.624-.312.888-.96.288-.672.288-1.776h2.976V185zm-4.896 0v-3.072h12.096V185zm20.39-17.424q2.088 0 3.48.912 1.416.888 2.136 2.616t.72 4.224q0 2.112-.384 3.936t-1.224 3.216a5.94 5.94 0 0 1-2.136 2.136q-1.32.768-3.216.768-1.68 0-2.808-.552a4.7 4.7 0 0 1-1.776-1.512 6.9 6.9 0 0 1-.96-2.208l3.456-.24q.192.624.648 1.056.48.432 1.44.432 1.056 0 1.848-.6.792-.624 1.224-1.968t.456-3.528l1.056.096q-.24.768-.84 1.488t-1.56 1.176q-.96.432-2.256.432-1.68 0-2.928-.696a5 5 0 0 1-1.944-2.016q-.672-1.296-.672-3 0-1.896.768-3.264a5.4 5.4 0 0 1 2.184-2.136q1.416-.768 3.288-.768m.072 3.072q-1.344 0-2.088.768-.72.768-.72 2.208 0 1.32.672 2.136.696.792 1.992.792.888 0 1.536-.36.672-.384 1.008-1.032.36-.672.36-1.56a3.3 3.3 0 0 0-.336-1.488q-.312-.672-.936-1.056-.6-.408-1.488-.408"/><path fill="#62748E" d="m219.56 182.54 4.13-12.04h1.12l-4.13 12.04zm7.287-1.54v-7.42h1.078l.028 1.302c.364-.91 1.134-1.47 2.086-1.47 1.12 0 1.904.56 2.226 1.554.322-.994 1.078-1.554 2.17-1.554 1.582 0 2.45 1.022 2.45 2.814V181h-1.176v-4.522c0-1.344-.532-2.03-1.554-2.03-1.036 0-1.708.784-1.708 2.114V181h-1.176v-4.438c0-1.316-.434-2.114-1.526-2.114-1.036 0-1.722.798-1.722 2.114V181zm15.012.168c-2.058 0-3.402-1.512-3.402-3.878s1.344-3.878 3.402-3.878c2.044 0 3.388 1.512 3.388 3.878s-1.344 3.878-3.388 3.878m0-1.12c1.358 0 2.156-1.036 2.156-2.758s-.798-2.758-2.156-2.758c-1.372 0-2.17 1.036-2.17 2.758s.798 2.758 2.17 2.758m5.099.952v-7.42h1.078l.028 1.33c.392-1.022 1.26-1.498 2.282-1.498 1.694 0 2.506 1.246 2.506 2.814V181h-1.176v-4.438c0-1.372-.462-2.114-1.582-2.114-1.148 0-1.96.742-1.96 2.114V181zm10.427 0c-1.344 0-1.974-.588-1.974-1.904v-4.48h-1.092v-1.036h1.092v-1.736h1.176v1.736h1.974v1.036h-1.974v4.452c0 .672.294.896.91.896h1.064V181zm2.807 0v-9.94h1.176v3.682c.378-.91 1.218-1.33 2.24-1.33 1.596 0 2.478 1.162 2.478 2.814V181h-1.176v-4.438c0-1.428-.518-2.114-1.554-2.114-1.204 0-1.988.756-1.988 2.128V181z"/><path fill="#fff" d="M20 202h260v48H20z"/><path fill="#62748E" d="M33.495 230v-8.52h1.644l3.936 6.948v-6.948h1.296V230h-1.704l-3.876-6.792V230zm11.32.144q-.936 0-1.62-.408a2.74 2.74 0 0 1-1.044-1.164q-.36-.756-.36-1.764t.36-1.752a2.74 2.74 0 0 1 1.044-1.164q.672-.42 1.584-.42.864 0 1.524.408.66.396 1.02 1.152.372.756.372 1.824v.324h-4.584q.048.936.492 1.404.456.468 1.224.468.564 0 .936-.264t.516-.708l1.32.084a2.65 2.65 0 0 1-.996 1.44q-.732.54-1.788.54m-1.704-3.924h3.24q-.06-.852-.492-1.26-.42-.408-1.08-.408-.684 0-1.128.432-.432.42-.54 1.236m8.501 3.924q-.936 0-1.62-.408a2.74 2.74 0 0 1-1.044-1.164q-.36-.756-.36-1.764t.36-1.752a2.74 2.74 0 0 1 1.044-1.164q.672-.42 1.584-.42.864 0 1.524.408.66.396 1.02 1.152.372.756.372 1.824v.324h-4.584q.048.936.492 1.404.456.468 1.224.468.564 0 .936-.264t.516-.708l1.32.084a2.65 2.65 0 0 1-.996 1.44q-.732.54-1.788.54m-1.704-3.924h3.24q-.06-.852-.492-1.26-.42-.408-1.08-.408-.684 0-1.128.432-.432.42-.54 1.236m8.14 3.924q-.816 0-1.427-.408-.6-.408-.924-1.152-.312-.756-.312-1.776t.324-1.764q.324-.756.924-1.164t1.416-.408q.66 0 1.176.276t.78.768v-3.036h1.272V230h-1.188l-.036-.96a1.93 1.93 0 0 1-.804.816 2.47 2.47 0 0 1-1.2.288m.337-1.104q.516 0 .876-.264t.552-.768.192-1.2q0-.72-.192-1.212-.192-.504-.552-.756-.36-.264-.876-.264-.768 0-1.224.6-.456.588-.456 1.632 0 1.032.456 1.632t1.224.6m9.403 1.104q-.996 0-1.596-.456-.588-.456-.588-1.284t.492-1.284q.504-.468 1.548-.672l2.196-.42q0-.744-.348-1.104-.348-.372-1.032-.372-.612 0-.96.276-.348.264-.48.792l-1.308-.084q.18-.96.888-1.512.72-.552 1.86-.552 1.296 0 1.968.696.684.684.684 1.932v2.484q0 .228.072.324.084.084.264.084h.228V230q-.06.012-.192.024a3 3 0 0 1-.276.012q-.408 0-.708-.132a.87.87 0 0 1-.432-.432q-.144-.312-.144-.828l.132.06q-.096.42-.42.744a2.2 2.2 0 0 1-.804.516q-.48.18-1.044.18m.204-1.008q.576 0 .984-.216.408-.228.636-.624a1.77 1.77 0 0 0 .228-.9v-.408l-1.872.36q-.576.108-.816.348a.8.8 0 0 0-.228.588q0 .408.276.636.288.216.792.216m10.339 1.008q-.912 0-1.596-.408a2.7 2.7 0 0 1-1.056-1.164q-.372-.756-.372-1.764t.372-1.752q.372-.756 1.056-1.164.684-.42 1.596-.42.78 0 1.38.276.612.264.984.78.384.516.492 1.26l-1.332.072q-.096-.624-.504-.948-.408-.336-1.02-.336-.804 0-1.26.6-.444.588-.444 1.632t.444 1.644q.456.588 1.26.588.612 0 1.02-.336.408-.348.504-1.044l1.332.072a2.9 2.9 0 0 1-.492 1.272q-.372.54-.984.84-.6.3-1.38.3m6.116 0q-.96 0-1.536-.636-.564-.648-.564-1.788v-4.104h1.272v3.78q0 .864.3 1.272t.912.408q.696 0 1.08-.444.396-.456.396-1.272v-3.744h1.272V230h-1.188l-.024-1.668.18.072q-.168.84-.708 1.296-.54.444-1.392.444m7.274 0q-.9 0-1.524-.276-.612-.276-.948-.756a2.26 2.26 0 0 1-.384-1.128l1.308-.06q.096.528.456.84t1.092.312q.6 0 .948-.192t.348-.612q0-.228-.12-.384-.108-.168-.432-.276-.324-.12-.96-.228-.948-.18-1.488-.42t-.768-.612-.228-.9q0-.876.648-1.428.66-.552 1.896-.552.828 0 1.392.288.564.276.876.756.324.468.408 1.056l-1.308.072a1.34 1.34 0 0 0-.24-.576 1.07 1.07 0 0 0-.456-.384 1.5 1.5 0 0 0-.684-.144q-.612 0-.912.24t-.3.624q0 .288.132.468.144.18.456.3.312.108.828.192.996.168 1.56.42.564.24.792.6t.228.876q0 .6-.336 1.02t-.924.648a3.9 3.9 0 0 1-1.356.216m6.117-.144q-.912 0-1.344-.42t-.432-1.308v-6.156h1.272v6.06q0 .444.192.612t.588.168h.912V230zm-2.748-5.34v-1.044h3.936v1.044zm7.674 5.484q-.912 0-1.596-.408a2.7 2.7 0 0 1-1.056-1.164q-.372-.756-.372-1.764 0-1.02.372-1.764t1.056-1.152q.684-.42 1.596-.42t1.596.42q.684.408 1.056 1.152t.372 1.764q0 1.008-.372 1.764t-1.056 1.164-1.596.408m0-1.104q.816 0 1.26-.588.444-.6.444-1.644t-.444-1.632q-.444-.6-1.26-.6-.804 0-1.26.6-.444.588-.444 1.632t.444 1.644q.456.588 1.26.588m4.31.96v-6.384h1.164l.036 1.584-.144-.048q.108-.528.372-.9a1.9 1.9 0 0 1 .672-.576q.396-.204.864-.204.816 0 1.332.468.516.456.648 1.26h-.204q.108-.564.36-.936.264-.384.672-.588t.924-.204q.672 0 1.14.288.48.276.72.816.252.54.252 1.32V230h-1.272v-3.792q0-.828-.3-1.248t-.912-.42q-.396 0-.696.204t-.468.588a2.5 2.5 0 0 0-.156.924V230h-1.212v-3.744q0-.816-.276-1.26-.264-.456-.912-.456-.408 0-.708.204a1.36 1.36 0 0 0-.456.6q-.168.384-.168.912V230zm15.995.144q-.9 0-1.524-.276-.612-.276-.948-.756a2.26 2.26 0 0 1-.384-1.128l1.308-.06q.096.528.456.84t1.092.312q.6 0 .948-.192t.348-.612q0-.228-.12-.384-.108-.168-.432-.276-.324-.12-.96-.228-.948-.18-1.488-.42t-.768-.612-.228-.9q0-.876.648-1.428.66-.552 1.896-.552.828 0 1.392.288.564.276.876.756.324.468.408 1.056l-1.308.072a1.34 1.34 0 0 0-.24-.576 1.07 1.07 0 0 0-.456-.384 1.5 1.5 0 0 0-.684-.144q-.612 0-.912.24t-.3.624q0 .288.132.468.144.18.456.3.312.108.828.192.996.168 1.56.42.564.24.792.6t.228.876q0 .6-.336 1.02t-.924.648a3.9 3.9 0 0 1-1.356.216m6.531 0q-.912 0-1.596-.408a2.7 2.7 0 0 1-1.056-1.164q-.372-.756-.372-1.764 0-1.02.372-1.764t1.056-1.152q.684-.42 1.596-.42t1.596.42q.684.408 1.056 1.152t.372 1.764q0 1.008-.372 1.764t-1.056 1.164-1.596.408m0-1.104q.816 0 1.26-.588.444-.6.444-1.644t-.444-1.632q-.444-.6-1.26-.6-.804 0-1.26.6-.444.588-.444 1.632t.444 1.644q.456.588 1.26.588m5.76.96q-.624 0-1.008-.324t-.384-1.032v-7.164h1.272v7.044q0 .216.108.324.12.108.336.108h.504V230zm3.99.144q-.96 0-1.536-.636-.564-.648-.564-1.788v-4.104h1.272v3.78q0 .864.3 1.272t.912.408q.696 0 1.08-.444.396-.456.396-1.272v-3.744h1.272V230h-1.188l-.024-1.668.18.072q-.168.84-.708 1.296-.54.444-1.392.444m7.062-.144q-.912 0-1.344-.42t-.432-1.308v-6.156h1.272v6.06q0 .444.192.612t.588.168h.912V230zm-2.748-5.34v-1.044h3.936v1.044zm5.152 5.34v-6.384h1.272V230zm-.024-7.308v-1.272h1.32v1.272zm5.605 7.452q-.912 0-1.596-.408a2.7 2.7 0 0 1-1.056-1.164q-.372-.756-.372-1.764 0-1.02.372-1.764t1.056-1.152q.684-.42 1.596-.42t1.596.42q.684.408 1.056 1.152t.372 1.764q0 1.008-.372 1.764t-1.056 1.164-1.596.408m0-1.104q.816 0 1.26-.588.444-.6.444-1.644t-.444-1.632q-.444-.6-1.26-.6-.804 0-1.26.6-.444.588-.444 1.632t.444 1.644q.456.588 1.26.588m4.31.96v-6.384h1.164l.048 1.704-.156-.084q.108-.624.408-1.008t.732-.564q.432-.192.936-.192.72 0 1.188.324.48.312.72.864.252.54.252 1.236V230h-1.272v-3.72q0-.564-.12-.948a1.12 1.12 0 0 0-.396-.588q-.276-.204-.72-.204-.672 0-1.092.444t-.42 1.296V230zm8.691-2.508q0-.9.264-1.404.276-.516.912-.876.456-.264.696-.468a.96.96 0 0 0 .312-.432q.084-.228.084-.564 0-.564-.372-.924-.372-.372-1.044-.372-.792 0-1.224.42-.432.408-.516 1.2l-1.344-.072q.072-.792.456-1.404a2.7 2.7 0 0 1 1.044-.96q.672-.348 1.584-.348.84 0 1.452.324.624.312.96.864t.336 1.272q0 .516-.156.888-.156.36-.492.672-.324.3-.852.624-.468.288-.648.624-.168.324-.168.936zm-.156 2.508v-1.512h1.548V230z"/><path fill="#155DFC" d="M178.84 230.192q-1.152 0-2.028-.528-.876-.54-1.368-1.536t-.492-2.376q0-1.368.48-2.364.492-1.008 1.368-1.548.876-.552 2.052-.552 1.584 0 2.46.792t1.14 2.196l-1.356.072q-.168-.876-.72-1.368-.552-.504-1.524-.504-.78 0-1.356.396-.564.396-.888 1.128-.312.732-.312 1.752t.312 1.752q.324.732.9 1.116t1.332.384q1.032 0 1.596-.54.576-.552.72-1.512l1.356.072q-.156.972-.624 1.68t-1.236 1.104q-.768.384-1.812.384m7.573-.048q-.912 0-1.596-.408a2.7 2.7 0 0 1-1.056-1.164q-.372-.756-.372-1.764 0-1.02.372-1.764t1.056-1.152q.684-.42 1.596-.42t1.596.42q.684.408 1.056 1.152t.372 1.764q0 1.008-.372 1.764t-1.056 1.164-1.596.408m0-1.104q.816 0 1.26-.588.444-.6.444-1.644t-.444-1.632q-.444-.6-1.26-.6-.804 0-1.26.6-.444.588-.444 1.632t.444 1.644q.456.588 1.26.588m4.309.96v-6.384h1.164l.048 1.704-.156-.084q.108-.624.408-1.008t.732-.564q.432-.192.936-.192.72 0 1.188.324.48.312.72.864.252.54.252 1.236V230h-1.272v-3.72q0-.564-.12-.948a1.12 1.12 0 0 0-.396-.588q-.276-.204-.72-.204-.672 0-1.092.444t-.42 1.296V230zm9.081 0q-.912 0-1.344-.42t-.432-1.308v-6.156h1.272v6.06q0 .444.192.612t.588.168h.912V230zm-2.748-5.34v-1.044h3.936v1.044zm6.904 5.484q-.996 0-1.596-.456-.588-.456-.588-1.284t.492-1.284q.504-.468 1.548-.672l2.196-.42q0-.744-.348-1.104-.348-.372-1.032-.372-.612 0-.96.276-.348.264-.48.792l-1.308-.084q.18-.96.888-1.512.72-.552 1.86-.552 1.296 0 1.968.696.684.684.684 1.932v2.484q0 .228.072.324.084.084.264.084h.228V230q-.06.012-.192.024a3 3 0 0 1-.276.012q-.408 0-.708-.132a.87.87 0 0 1-.432-.432q-.144-.312-.144-.828l.132.06q-.096.42-.42.744a2.2 2.2 0 0 1-.804.516q-.48.18-1.044.18m.204-1.008q.576 0 .984-.216.408-.228.636-.624a1.77 1.77 0 0 0 .228-.9v-.408l-1.872.36q-.576.108-.816.348a.8.8 0 0 0-.228.588q0 .408.276.636.288.216.792.216m7.34 1.008q-.912 0-1.596-.408a2.7 2.7 0 0 1-1.056-1.164q-.372-.756-.372-1.764t.372-1.752q.372-.756 1.056-1.164.684-.42 1.596-.42.78 0 1.38.276.612.264.984.78.384.516.492 1.26l-1.332.072q-.096-.624-.504-.948-.408-.336-1.02-.336-.804 0-1.26.6-.444.588-.444 1.632t.444 1.644q.456.588 1.26.588.612 0 1.02-.336.408-.348.504-1.044l1.332.072a2.9 2.9 0 0 1-.492 1.272q-.372.54-.984.84-.6.3-1.38.3m6.23-.144q-.912 0-1.344-.42t-.432-1.308v-6.156h1.272v6.06q0 .444.192.612t.588.168h.912V230zm-2.748-5.34v-1.044h3.936v1.044zm10.24 5.484q-.96 0-1.536-.636-.564-.648-.564-1.788v-4.104h1.272v3.78q0 .864.3 1.272t.912.408q.696 0 1.08-.444.396-.456.396-1.272v-3.744h1.272V230h-1.188l-.024-1.668.18.072q-.168.84-.708 1.296-.54.444-1.392.444m7.274 0q-.9 0-1.524-.276-.612-.276-.948-.756a2.26 2.26 0 0 1-.384-1.128l1.308-.06q.096.528.456.84t1.092.312q.6 0 .948-.192t.348-.612q0-.228-.12-.384-.108-.168-.432-.276-.324-.12-.96-.228-.948-.18-1.488-.42t-.768-.612-.228-.9q0-.876.648-1.428.66-.552 1.896-.552.828 0 1.392.288.564.276.876.756.324.468.408 1.056l-1.308.072a1.34 1.34 0 0 0-.24-.576 1.07 1.07 0 0 0-.456-.384 1.5 1.5 0 0 0-.684-.144q-.612 0-.912.24t-.3.624q0 .288.132.468.144.18.456.3.312.108.828.192.996.168 1.56.42.564.24.792.6t.228.876q0 .6-.336 1.02t-.924.648a3.9 3.9 0 0 1-1.356.216M174.424 231.5h61.195v.6h-61.195z"/></g><path stroke="#E2E8F0" d="M28 100.5h244a7.5 7.5 0 0 1 7.5 7.5v134a7.5 7.5 0 0 1-7.5 7.5H28a7.5 7.5 0 0 1-7.5-7.5V108a7.5 7.5 0 0 1 7.5-7.5Z"/><path fill="#18181B" d="M20 278a8 8 0 0 1 8-8h244a8 8 0 0 1 8 8v24a8 8 0 0 1-8 8H28a8 8 0 0 1-8-8z"/><path fill="#fff" d="M118.546 294v-8.727h3.273q1.006 0 1.688.375.685.375 1.035 1.031.354.652.354 1.483 0 .84-.354 1.491a2.53 2.53 0 0 1-1.044 1.027q-.69.372-1.7.371h-2.169v-1.3h1.956q.588 0 .963-.204t.554-.563q.183-.357.183-.822t-.183-.818a1.25 1.25 0 0 0-.558-.55q-.375-.2-.968-.2h-1.449V294zm9.421.132q-.622 0-1.121-.221a1.84 1.84 0 0 1-.784-.665q-.285-.44-.285-1.083 0-.553.204-.916.205-.362.559-.579.353-.218.796-.329.448-.114.925-.166.576-.059.933-.106.358-.05.52-.154.167-.106.167-.328v-.025q0-.482-.286-.746-.285-.264-.822-.264-.567 0-.9.247a1.23 1.23 0 0 0-.443.584l-1.44-.205q.17-.597.562-.997.392-.405.959-.605a3.7 3.7 0 0 1 1.253-.205q.472 0 .942.111.469.11.856.367.388.25.622.686.24.434.239 1.086V294h-1.483v-.899h-.051a1.9 1.9 0 0 1-.396.511q-.252.235-.635.379-.38.141-.891.141m.401-1.133q.464 0 .805-.184.34-.187.524-.494.188-.308.188-.669v-.771a.8.8 0 0 1-.247.11 3 3 0 0 1-.384.09q-.213.038-.422.068l-.362.051q-.345.048-.618.154a1 1 0 0 0-.43.298.73.73 0 0 0-.158.486q0 .426.311.643t.793.218m5.331 3.456q-.316 0-.584-.052a2.2 2.2 0 0 1-.422-.11l.358-1.202q.337.098.601.094a.74.74 0 0 0 .464-.167q.206-.158.345-.528l.133-.354-2.374-6.681h1.636l1.509 4.943h.068l1.513-4.943h1.64l-2.62 7.338a2.9 2.9 0 0 1-.486.89q-.303.375-.742.571-.434.201-1.039.201m16.172-11.182V294h-1.407l-4.112-5.945h-.072V294h-1.581v-8.727h1.414l4.108 5.949h.077v-5.949zm4.509 8.855q-.959 0-1.662-.422a2.87 2.87 0 0 1-1.091-1.18q-.383-.759-.383-1.773t.383-1.777a2.86 2.86 0 0 1 1.091-1.185q.703-.422 1.662-.422t1.662.422 1.087 1.185q.388.763.388 1.777t-.388 1.773a2.84 2.84 0 0 1-1.087 1.18q-.703.422-1.662.422m.009-1.236q.52 0 .869-.285.35-.29.52-.776.175-.486.175-1.082 0-.601-.175-1.087a1.7 1.7 0 0 0-.52-.78q-.35-.29-.869-.29-.533 0-.887.29a1.75 1.75 0 0 0-.524.78q-.17.486-.17 1.087 0 .596.17 1.082.175.486.524.776.354.285.887.285m5.6 1.108-1.849-6.545h1.572l1.151 4.602h.059l1.177-4.602h1.555l1.176 4.576h.064l1.134-4.576h1.576L165.751 294h-1.607l-1.227-4.423h-.09L161.6 294zm17.013.315-.878-.869 2.629-2.629h-6.388v-1.27h6.388l-2.629-2.625.878-.874 4.133 4.134z"/><defs><clipPath id="a"><path fill="#fff" d="M20 108a8 8 0 0 1 8-8h244a8 8 0 0 1 8 8v134a8 8 0 0 1-8 8H28a8 8 0 0 1-8-8z"/></clipPath><clipPath id="c"><path fill="#fff" d="M32 116h19v19H32z"/></clipPath><clipPath id="e"><path fill="#fff" d="M32 167h19v19H32z"/></clipPath></defs></svg>