<svg xmlns="http://www.w3.org/2000/svg" width="310" height="288" fill="none"><g filter="url(#a)"><rect width="300" height="278" x="5" y="4" fill="#fff" rx="8" shape-rendering="crispEdges"/><rect width="301" height="279" x="4.5" y="3.5" stroke="#E4E4E7" rx="8.5" shape-rendering="crispEdges"/><path fill="#09090B" d="M30.722 51V33.545h6.545q2.012 0 3.375.75 1.372.75 2.071 2.063.708 1.304.707 2.966 0 1.68-.707 2.983t-2.088 2.054q-1.38.741-3.4.741h-4.339v-2.6h3.912q1.176 0 1.926-.408.75-.41 1.108-1.125.367-.716.367-1.645 0-.93-.367-1.636-.357-.708-1.116-1.1-.75-.4-1.935-.4h-2.898V51zm15.309 0V37.91h2.991v2.18h.136q.358-1.133 1.228-1.746a3.38 3.38 0 0 1 2.002-.622q.255 0 .572.025.323.017.536.06v2.838a3.2 3.2 0 0 0-.622-.12 6 6 0 0 0-.81-.06 3.1 3.1 0 0 0-1.516.367 2.7 2.7 0 0 0-1.049.998q-.383.639-.383 1.474V51zm14.686.256q-1.917 0-3.323-.844-1.407-.845-2.182-2.36-.768-1.518-.767-3.546 0-2.029.767-3.554.775-1.526 2.182-2.37 1.406-.843 3.323-.843 1.919 0 3.324.843 1.407.845 2.174 2.37.775 1.525.775 3.554t-.775 3.545q-.767 1.517-2.174 2.36-1.405.845-3.324.845m.017-2.472q1.04 0 1.739-.57.7-.58 1.04-1.552.35-.972.35-2.165 0-1.201-.35-2.173-.34-.98-1.04-1.56-.699-.58-1.739-.58-1.065 0-1.772.58-.7.58-1.049 1.56-.34.972-.34 2.173 0 1.193.34 2.165.35.972 1.049 1.551.707.57 1.772.571m14.568 7.398q-1.662 0-2.855-.452-1.194-.443-1.918-1.193a4.1 4.1 0 0 1-1.006-1.662l2.779-.673q.188.383.545.758.359.384.963.63.615.257 1.543.257 1.313 0 2.173-.64.861-.63.861-2.08v-2.48h-.153a4.4 4.4 0 0 1-.7.98q-.45.503-1.2.845-.742.34-1.867.34-1.509 0-2.736-.707-1.219-.715-1.943-2.13-.716-1.425-.716-3.563 0-2.156.716-3.64.724-1.49 1.951-2.258a5 5 0 0 1 2.736-.775q1.15 0 1.892.392.75.383 1.193.929.444.537.674 1.014h.17v-2.165h3.043v13.304q0 1.679-.801 2.779-.802 1.098-2.19 1.644-1.39.546-3.154.546m.025-7.79q.98 0 1.67-.477.69-.478 1.05-1.372.357-.896.357-2.148 0-1.236-.358-2.165-.35-.93-1.04-1.44-.681-.52-1.679-.52-1.03 0-1.721.537-.69.538-1.04 1.474-.35.93-.35 2.114 0 1.202.35 2.105.358.896 1.048 1.398.699.494 1.713.494M84.61 51V37.91H87.6v2.18h.137q.357-1.133 1.227-1.746a3.38 3.38 0 0 1 2.003-.622q.255 0 .57.025.325.017.538.06v2.838a3.2 3.2 0 0 0-.623-.12 6 6 0 0 0-.81-.06q-.843 0-1.516.367a2.7 2.7 0 0 0-1.049.998q-.383.639-.383 1.474V51zm14.772.256q-1.97 0-3.4-.819a5.54 5.54 0 0 1-2.191-2.335q-.768-1.516-.767-3.57 0-2.021.767-3.546.775-1.534 2.164-2.387 1.39-.86 3.265-.86 1.21 0 2.284.392a5.2 5.2 0 0 1 1.909 1.193q.835.81 1.312 2.062.478 1.245.478 2.966v.946h-10.73v-2.08h7.772q-.008-.886-.383-1.576a2.8 2.8 0 0 0-1.049-1.1q-.665-.4-1.55-.4-.946 0-1.663.46a3.17 3.17 0 0 0-1.116 1.194 3.43 3.43 0 0 0-.4 1.61v1.816q0 1.141.417 1.96.418.81 1.168 1.244.75.426 1.755.426.674 0 1.219-.187a2.7 2.7 0 0 0 .946-.571q.4-.375.605-.93l2.881.325a4.5 4.5 0 0 1-1.04 1.994q-.758.844-1.943 1.313-1.185.46-2.71.46m18.777-9.887-2.812.307a2.3 2.3 0 0 0-.418-.801 2.1 2.1 0 0 0-.784-.605q-.494-.23-1.21-.23-.963 0-1.619.417-.648.419-.64 1.083-.008.57.418.929.435.357 1.432.588l2.233.477q1.858.4 2.761 1.27.912.87.921 2.276a3.56 3.56 0 0 1-.725 2.181q-.707.938-1.969 1.466-1.26.53-2.897.529-2.404 0-3.87-1.006-1.465-1.015-1.747-2.821l3.009-.29q.204.886.869 1.338t1.73.452q1.1 0 1.764-.452.674-.45.674-1.116 0-.562-.435-.93-.426-.365-1.33-.562l-2.232-.468q-1.884-.392-2.787-1.322-.904-.936-.895-2.369-.009-1.21.656-2.096.673-.895 1.866-1.381 1.203-.495 2.77-.494 2.301 0 3.622.98 1.33.98 1.645 2.65m13.172 0-2.812.307a2.3 2.3 0 0 0-.418-.801 2.1 2.1 0 0 0-.784-.605q-.494-.23-1.21-.23-.963 0-1.619.417-.648.419-.64 1.083-.008.57.418.929.435.357 1.432.588l2.233.477q1.858.4 2.761 1.27.912.87.921 2.276a3.56 3.56 0 0 1-.725 2.181q-.708.938-1.969 1.466-1.261.53-2.897.529-2.404 0-3.87-1.006-1.465-1.015-1.747-2.821l3.009-.29q.204.886.869 1.338t1.73.452q1.1 0 1.764-.452.674-.45.674-1.116 0-.562-.435-.93-.426-.365-1.33-.562l-2.233-.468q-1.882-.392-2.787-1.322-.903-.936-.894-2.369-.009-1.21.656-2.096.674-.895 1.866-1.381 1.202-.495 2.77-.494 2.302 0 3.622.98 1.33.98 1.645 2.65"/><path fill="#71717A" d="M29.333 64.818h1.745l2.66 4.629h.11l2.66-4.629h1.744l-3.694 6.185V75h-1.531v-3.997zm12.21 10.336q-1.075 0-1.875-.492a3.3 3.3 0 0 1-1.243-1.377q-.443-.885-.443-2.068 0-1.189.443-2.079a3.3 3.3 0 0 1 1.243-1.382q.8-.492 1.874-.492t1.874.492q.8.494 1.243 1.382.443.89.443 2.079 0 1.183-.443 2.068a3.3 3.3 0 0 1-1.243 1.377q-.8.492-1.874.492m.004-1.248q.696 0 1.154-.368.456-.367.676-.98.223-.61.223-1.346 0-.731-.223-1.343a2.2 2.2 0 0 0-.677-.989q-.457-.373-1.153-.373-.7 0-1.163.373a2.2 2.2 0 0 0-.681.99 4 4 0 0 0-.22 1.342q0 .736.22 1.347.224.611.68.98.463.367 1.164.367m10.051-2.073v-4.47h1.492V75h-1.462v-1.322h-.08a2.4 2.4 0 0 1-.845 1.019q-.576.402-1.436.402-.736 0-1.303-.323a2.27 2.27 0 0 1-.885-.97q-.318-.64-.318-1.585v-4.857h1.486v4.678q0 .78.433 1.243.432.462 1.124.462.417 0 .83-.209.418-.209.69-.631.28-.423.274-1.074m4.972-7.015v.955q0 .422-.16.89a3.8 3.8 0 0 1-.437.89q-.283.427-.666.735l-.736-.527a5.7 5.7 0 0 0 .508-.91q.218-.481.218-1.063v-.97zM57.78 75v-7.636h1.437v1.213h.08q.209-.616.736-.97a2.1 2.1 0 0 1 1.203-.358 6 6 0 0 1 .631.035v1.422a3 3 0 0 0-.318-.055 3 3 0 0 0-.457-.034 1.94 1.94 0 0 0-.94.223 1.66 1.66 0 0 0-.885 1.497V75zm8.391.154q-1.128 0-1.944-.482a3.27 3.27 0 0 1-1.252-1.367q-.438-.885-.438-2.074 0-1.173.438-2.068a3.4 3.4 0 0 1 1.233-1.397q.795-.501 1.859-.502.645 0 1.253.214.606.214 1.089.671.482.457.76 1.188.279.727.279 1.765v.527h-6.07v-1.113h4.613q0-.587-.239-1.04a1.8 1.8 0 0 0-.67-.72 1.88 1.88 0 0 0-1.005-.264 1.94 1.94 0 0 0-1.094.308 2.07 2.07 0 0 0-.716.796 2.3 2.3 0 0 0-.248 1.059v.87q0 .765.268 1.302.274.537.76.82.488.28 1.14.28.422 0 .77-.12.348-.125.601-.368.255-.243.388-.602l1.407.254a2.55 2.55 0 0 1-.606 1.089 2.94 2.94 0 0 1-1.09.72q-.65.254-1.486.254M74.802 75v-7.636h1.427v1.242h.094q.24-.63.78-.984.543-.358 1.299-.358.765 0 1.282.358.522.359.77.984h.08a2.15 2.15 0 0 1 .87-.974q.597-.368 1.422-.368 1.04 0 1.696.651.66.653.66 1.964V75h-1.486v-4.981q0-.776-.422-1.124a1.54 1.54 0 0 0-1.01-.348q-.725 0-1.128.447-.403.443-.403 1.139V75h-1.481v-5.076q0-.62-.388-1-.388-.377-1.01-.377-.422 0-.78.224-.353.218-.572.611a1.9 1.9 0 0 0-.213.91V75zm15.59.154q-1.074 0-1.875-.492a3.3 3.3 0 0 1-1.242-1.377q-.444-.885-.443-2.068 0-1.189.443-2.079a3.3 3.3 0 0 1 1.242-1.382q.801-.492 1.875-.492t1.874.492q.8.494 1.243 1.382.442.89.442 2.079 0 1.183-.442 2.068a3.3 3.3 0 0 1-1.243 1.377q-.8.492-1.874.492m.005-1.248q.696 0 1.153-.368.457-.367.676-.98.225-.61.224-1.346 0-.731-.224-1.343a2.2 2.2 0 0 0-.676-.989q-.458-.373-1.153-.373-.702 0-1.164.373a2.2 2.2 0 0 0-.68.99 4 4 0 0 0-.22 1.342q0 .736.22 1.347.222.611.68.98.462.367 1.164.367M95.61 75v-7.636h1.436v1.213h.08q.209-.616.736-.97a2.1 2.1 0 0 1 1.203-.358 6 6 0 0 1 .631.035v1.422a3 3 0 0 0-.318-.055 3 3 0 0 0-.457-.034 1.94 1.94 0 0 0-.94.223 1.66 1.66 0 0 0-.885 1.497V75zm8.39.154q-1.128 0-1.943-.482a3.27 3.27 0 0 1-1.253-1.367q-.438-.885-.438-2.074 0-1.173.438-2.068a3.4 3.4 0 0 1 1.233-1.397q.795-.501 1.859-.502.647 0 1.253.214t1.089.671q.482.457.76 1.188.279.727.279 1.765v.527h-6.071v-1.113h4.614q0-.587-.239-1.04a1.8 1.8 0 0 0-.671-.72 1.88 1.88 0 0 0-1.004-.264q-.626 0-1.094.308a2.07 2.07 0 0 0-.716.796 2.3 2.3 0 0 0-.248 1.059v.87q0 .765.268 1.302.273.537.761.82.487.28 1.138.28.423 0 .771-.12.348-.125.601-.368.255-.243.388-.602l1.407.254a2.55 2.55 0 0 1-.606 1.089 2.95 2.95 0 0 1-1.089.72q-.651.254-1.487.254m10.853.015a3.1 3.1 0 0 1-1.312-.268 2.2 2.2 0 0 1-.93-.79q-.338-.518-.338-1.269 0-.645.249-1.064.248-.417.671-.66.422-.245.944-.369a9 9 0 0 1 1.064-.189l1.114-.129q.427-.054.622-.174.193-.12.193-.388v-.034q0-.652-.368-1.01-.362-.358-1.083-.358-.751 0-1.184.333-.427.33-.591.731l-1.397-.318q.248-.696.726-1.123a2.9 2.9 0 0 1 1.108-.627 4.3 4.3 0 0 1 1.318-.199q.457 0 .969.11.517.104.965.387.452.285.741.81.288.523.288 1.358V75h-1.452v-1.044h-.059a2.1 2.1 0 0 1-.433.567q-.288.278-.741.462-.452.184-1.084.184m.324-1.193q.616 0 1.054-.244.442-.243.671-.636.233-.398.233-.85v-.985q-.079.08-.308.15-.224.064-.512.114-.288.045-.562.084l-.457.06a3.7 3.7 0 0 0-.791.184q-.353.129-.566.373-.21.238-.209.636 0 .552.407.835.408.279 1.04.279m11.684-6.612L124.093 75h-1.591l-2.774-7.636h1.596l1.934 5.876h.079l1.929-5.876zm4.428 7.79q-1.128 0-1.943-.482a3.27 3.27 0 0 1-1.253-1.367q-.438-.885-.438-2.074 0-1.173.438-2.068a3.4 3.4 0 0 1 1.233-1.397q.795-.501 1.859-.502.647 0 1.253.214t1.089.671q.482.457.76 1.188.279.727.279 1.765v.527h-6.071v-1.113h4.614q0-.587-.239-1.04a1.8 1.8 0 0 0-.671-.72 1.88 1.88 0 0 0-1.004-.264q-.627 0-1.094.308a2.07 2.07 0 0 0-.716.796 2.3 2.3 0 0 0-.248 1.059v.87q0 .765.268 1.302.274.537.761.82.487.28 1.138.28.423 0 .771-.12.348-.125.602-.368t.387-.602l1.407.254a2.55 2.55 0 0 1-.606 1.089 2.95 2.95 0 0 1-1.089.72q-.651.254-1.487.254m4.926-.154v-7.636h1.437v1.213h.079q.21-.616.736-.97a2.1 2.1 0 0 1 1.203-.358 6 6 0 0 1 .632.035v1.422a3 3 0 0 0-.318-.055 3 3 0 0 0-.458-.034q-.526 0-.939.223a1.66 1.66 0 0 0-.885 1.497V75zm7.527.169q-.726 0-1.312-.268a2.2 2.2 0 0 1-.93-.79q-.338-.518-.338-1.269 0-.645.248-1.064.249-.417.672-.66a3.5 3.5 0 0 1 .944-.369 9 9 0 0 1 1.064-.189l1.114-.129q.427-.054.621-.174t.194-.388v-.034q0-.652-.368-1.01-.363-.358-1.084-.358-.75 0-1.183.333-.428.33-.591.731l-1.398-.318q.249-.696.726-1.123a2.95 2.95 0 0 1 1.109-.627 4.3 4.3 0 0 1 1.317-.199q.458 0 .97.11.517.104.964.387.453.285.741.81.288.523.289 1.358V75h-1.452v-1.044H146q-.144.288-.432.567-.29.278-.741.462-.453.184-1.084.184m.323-1.193q.617 0 1.054-.244.443-.243.671-.636a1.65 1.65 0 0 0 .234-.85v-.985q-.08.08-.308.15-.224.064-.512.114-.29.045-.562.084l-.457.06a3.7 3.7 0 0 0-.791.184q-.352.129-.567.373-.209.238-.209.636 0 .552.408.835.408.279 1.039.279m8.627 4.047q-.909 0-1.566-.239-.651-.239-1.064-.631a2.7 2.7 0 0 1-.616-.86l1.277-.527q.135.218.358.462.229.249.617.423.393.174 1.009.174.845 0 1.397-.413.552-.408.552-1.303v-1.501h-.095a3.4 3.4 0 0 1-.387.542 2.1 2.1 0 0 1-.686.517q-.438.219-1.139.219-.905 0-1.631-.423-.72-.427-1.143-1.258-.418-.835-.418-2.053t.413-2.088q.418-.87 1.143-1.332a2.98 2.98 0 0 1 1.646-.468q.711 0 1.149.239.436.234.681.547.248.313.382.552h.11v-1.238h1.456v7.805q0 .984-.457 1.616-.457.63-1.238.934-.775.304-1.75.304m-.015-4.37q.642 0 1.084-.299.447-.303.676-.865.234-.566.234-1.357 0-.77-.229-1.357a2 2 0 0 0-.671-.915q-.443-.333-1.094-.333-.67 0-1.118.348a2.1 2.1 0 0 0-.676.935q-.224.591-.224 1.322 0 .75.228 1.318.229.565.677.885.452.318 1.113.318m8.745 1.501q-1.128 0-1.944-.482a3.27 3.27 0 0 1-1.252-1.367q-.438-.885-.438-2.074 0-1.173.438-2.068a3.4 3.4 0 0 1 1.233-1.397q.795-.501 1.859-.502.646 0 1.253.214t1.089.671.76 1.188q.279.727.279 1.765v.527h-6.071v-1.113h4.614q0-.587-.239-1.04a1.8 1.8 0 0 0-.671-.72 1.88 1.88 0 0 0-1.004-.264q-.627 0-1.094.308a2.07 2.07 0 0 0-.716.796 2.3 2.3 0 0 0-.248 1.059v.87q0 .765.268 1.302.273.537.761.82.487.28 1.138.28.423 0 .771-.12.348-.125.601-.368.254-.243.388-.602l1.407.254a2.56 2.56 0 0 1-.606 1.089 2.95 2.95 0 0 1-1.089.72q-.651.254-1.487.254m8.631-.154v-7.636h1.427v1.242h.094q.239-.63.781-.984.542-.358 1.297-.358.766 0 1.283.358.522.359.771.984h.079q.274-.61.87-.974.597-.368 1.422-.368 1.04 0 1.695.651.662.653.662 1.964V75h-1.487v-4.981q0-.776-.422-1.124a1.54 1.54 0 0 0-1.01-.348q-.726 0-1.128.447-.403.443-.403 1.139V75h-1.481v-5.076q0-.62-.388-1-.388-.377-1.009-.377-.423 0-.781.224-.353.218-.572.611a1.9 1.9 0 0 0-.214.91V75zm15.59.154q-1.074 0-1.875-.492a3.3 3.3 0 0 1-1.243-1.377q-.442-.885-.442-2.068 0-1.189.442-2.079a3.3 3.3 0 0 1 1.243-1.382q.801-.492 1.875-.492t1.874.492a3.3 3.3 0 0 1 1.243 1.382q.442.89.442 2.079 0 1.183-.442 2.068a3.3 3.3 0 0 1-1.243 1.377q-.8.492-1.874.492m.005-1.248q.696 0 1.153-.368.457-.367.676-.98.224-.61.224-1.346 0-.731-.224-1.343a2.2 2.2 0 0 0-.676-.989q-.457-.373-1.153-.373-.701 0-1.164.373a2.2 2.2 0 0 0-.681.99 4 4 0 0 0-.219 1.342q0 .736.219 1.347.224.611.681.98.463.367 1.164.367M190.863 75v-7.636h1.436v1.213h.08q.208-.616.736-.97a2.1 2.1 0 0 1 1.203-.358 6 6 0 0 1 .631.035v1.422a3 3 0 0 0-.318-.055 3 3 0 0 0-.457-.034 1.94 1.94 0 0 0-.94.223 1.66 1.66 0 0 0-.885 1.497V75zm8.39.154q-1.128 0-1.944-.482a3.27 3.27 0 0 1-1.252-1.367q-.438-.885-.438-2.074 0-1.173.438-2.068a3.4 3.4 0 0 1 1.233-1.397q.795-.501 1.859-.502.646 0 1.253.214t1.089.671.76 1.188q.279.727.279 1.765v.527h-6.071v-1.113h4.614q0-.587-.239-1.04a1.8 1.8 0 0 0-.671-.72 1.88 1.88 0 0 0-1.004-.264q-.627 0-1.094.308a2.07 2.07 0 0 0-.716.796 2.3 2.3 0 0 0-.248 1.059v.87q0 .765.268 1.302.273.537.761.82.487.28 1.138.28.423 0 .771-.12.348-.125.601-.368.254-.243.388-.602l1.407.254a2.55 2.55 0 0 1-.606 1.089 2.95 2.95 0 0 1-1.089.72q-.651.254-1.487.254m14.353-5.926-1.347.239a1.6 1.6 0 0 0-.268-.493 1.3 1.3 0 0 0-.488-.382q-.308-.15-.77-.15-.631 0-1.054.284-.423.279-.423.72 0 .383.284.617.283.234.914.383l1.213.278q1.055.244 1.571.751.518.507.518 1.318 0 .686-.398 1.223-.393.532-1.099.835-.7.303-1.626.303-1.282 0-2.093-.547-.81-.552-.994-1.566l1.437-.219q.134.562.552.85.417.285 1.088.284.731 0 1.169-.303.437-.309.437-.751a.78.78 0 0 0-.268-.602q-.264-.244-.811-.367l-1.292-.284q-1.07-.243-1.581-.775-.507-.532-.507-1.348 0-.675.378-1.183.376-.507 1.044-.79.666-.29 1.526-.289 1.238 0 1.949.537.711.532.939 1.427m5.349-1.864v1.193h-4.172v-1.193zm-3.053-1.83h1.486v7.224q0 .432.13.651.129.214.333.293.209.075.452.075.18 0 .313-.025.135-.025.209-.04l.269 1.228a2.5 2.5 0 0 1-.368.1 3 3 0 0 1-.597.06 2.6 2.6 0 0 1-1.093-.21 1.87 1.87 0 0 1-.821-.675q-.313-.457-.313-1.149zm7.906 9.62q-1.128 0-1.944-.482a3.27 3.27 0 0 1-1.253-1.367q-.437-.885-.437-2.074 0-1.173.437-2.068a3.4 3.4 0 0 1 1.233-1.397q.796-.501 1.86-.502.646 0 1.252.214.608.214 1.089.671.482.457.761 1.188.278.727.278 1.765v.527h-6.07v-1.113h4.614q0-.587-.239-1.04a1.8 1.8 0 0 0-.671-.72 1.88 1.88 0 0 0-1.004-.264 1.94 1.94 0 0 0-1.094.308 2.07 2.07 0 0 0-.716.796 2.3 2.3 0 0 0-.249 1.059v.87q0 .765.269 1.302.274.537.76.82.488.28 1.139.28.423 0 .771-.12.348-.125.601-.368t.388-.602l1.407.254a2.55 2.55 0 0 1-.607 1.089 2.94 2.94 0 0 1-1.088.72q-.652.254-1.487.254m4.926 2.71v-10.5h1.451v1.238h.125q.129-.24.373-.552.243-.314.676-.547.432-.24 1.143-.239.925 0 1.651.468.726.467 1.138 1.347.418.88.418 2.118t-.413 2.123q-.413.88-1.133 1.357a2.94 2.94 0 0 1-1.646.472q-.696 0-1.138-.234a2.2 2.2 0 0 1-.687-.546 4 4 0 0 1-.382-.557h-.09v4.052zm1.456-6.682q0 .805.234 1.412.234.605.676.95.442.337 1.084.337.666 0 1.114-.353.447-.357.676-.97.233-.61.233-1.376 0-.756-.228-1.357a2.1 2.1 0 0 0-.676-.95q-.448-.348-1.119-.348-.647 0-1.094.333-.443.333-.671.93-.229.596-.229 1.392m12.907-1.954-1.348.239a1.6 1.6 0 0 0-.268-.493 1.3 1.3 0 0 0-.487-.382q-.309-.15-.771-.15-.631 0-1.054.284-.423.279-.423.72 0 .383.284.617.283.234.915.383l1.213.278q1.053.244 1.571.751.517.507.517 1.318 0 .686-.398 1.223-.393.532-1.099.835-.7.303-1.625.303-1.284 0-2.093-.547-.811-.552-.995-1.566l1.437-.219q.134.562.552.85.417.285 1.089.284.73 0 1.168-.303.437-.309.437-.751a.78.78 0 0 0-.268-.602q-.264-.244-.81-.367l-1.293-.284q-1.07-.243-1.581-.775-.507-.532-.507-1.348 0-.675.378-1.183.378-.507 1.044-.79.666-.29 1.526-.289 1.238 0 1.949.537.71.532.94 1.427m7.711 5.941q-.726 0-1.313-.268a2.2 2.2 0 0 1-.93-.79q-.338-.518-.338-1.269 0-.645.249-1.064.248-.417.671-.66a3.5 3.5 0 0 1 .945-.369 9 9 0 0 1 1.064-.189l1.113-.129q.427-.054.622-.174.194-.12.194-.388v-.034q0-.652-.368-1.01-.364-.358-1.084-.358-.751 0-1.183.333-.428.33-.592.731l-1.397-.318q.249-.696.726-1.123a2.9 2.9 0 0 1 1.108-.627 4.3 4.3 0 0 1 1.318-.199q.457 0 .969.11.518.104.965.387.451.285.741.81.288.523.288 1.358V75h-1.452v-1.044h-.059a2.1 2.1 0 0 1-.433.567q-.288.278-.741.462-.452.184-1.083.184m.323-1.193q.616 0 1.054-.244.442-.243.671-.636.234-.398.233-.85v-.985q-.079.08-.308.15-.224.064-.512.114-.288.045-.562.084l-.457.06a3.7 3.7 0 0 0-.79.184 1.35 1.35 0 0 0-.567.373q-.209.238-.209.636 0 .552.408.835.407.279 1.039.279M32.858 92.149a2.96 2.96 0 0 1-1.65-.472q-.722-.477-1.134-1.357-.408-.885-.408-2.123t.413-2.118q.418-.88 1.143-1.347a2.97 2.97 0 0 1 1.646-.468q.711 0 1.143.239.438.234.676.547.245.313.378.552h.09v-3.784h1.486V92H35.19v-1.188h-.125q-.134.243-.387.557a2.2 2.2 0 0 1-.686.546q-.438.234-1.134.234m.328-1.268q.642 0 1.084-.338.447-.342.676-.95.234-.606.234-1.411 0-.796-.229-1.392-.229-.597-.671-.93t-1.094-.333q-.67 0-1.118.348a2.13 2.13 0 0 0-.677.95q-.223.6-.223 1.357 0 .766.228 1.377.23.611.676.97.453.352 1.114.352m7.8 1.288a3.1 3.1 0 0 1-1.313-.268 2.2 2.2 0 0 1-.93-.79q-.338-.518-.338-1.269 0-.645.249-1.064.248-.417.67-.66t.945-.369a9 9 0 0 1 1.064-.189l1.114-.129q.427-.054.621-.174.195-.12.194-.388v-.034q0-.652-.368-1.01-.363-.358-1.084-.358-.75 0-1.183.333-.427.33-.591.731l-1.397-.318q.248-.696.725-1.123a2.94 2.94 0 0 1 1.11-.627 4.3 4.3 0 0 1 1.317-.199q.457 0 .97.11.516.104.964.387.452.285.74.81.29.523.289 1.358V92h-1.452v-1.044h-.06q-.144.288-.432.567t-.74.462q-.454.184-1.085.184m.322-1.193q.617 0 1.054-.244.443-.243.672-.636.233-.398.233-.85v-.985q-.08.08-.308.15a5 5 0 0 1-.512.114q-.288.045-.562.084l-.457.06a3.7 3.7 0 0 0-.79.184q-.354.129-.567.373-.21.238-.21.636 0 .553.408.835.408.279 1.04.279m6.092 3.888q-.333 0-.607-.055a2 2 0 0 1-.407-.11l.358-1.218q.407.11.725.095.32-.015.562-.239.249-.223.438-.73l.184-.508-2.794-7.735h1.59l1.935 5.926h.08l1.933-5.926h1.596l-3.147 8.655a3.5 3.5 0 0 1-.557 1.01 2.16 2.16 0 0 1-.805.626q-.468.209-1.084.209m14.26-10.5v1.193h-4.171v-1.193zm-3.053-1.83h1.487v7.224q0 .432.129.651.129.214.333.293.21.075.452.075.18 0 .314-.025t.208-.04l.269 1.228a2.5 2.5 0 0 1-.368.1q-.24.054-.597.06a2.6 2.6 0 0 1-1.093-.21 1.88 1.88 0 0 1-.82-.675q-.315-.457-.314-1.149zm6.347 4.932V92h-1.486V81.818h1.467v3.788h.094q.27-.615.82-.979.552-.363 1.442-.363.786 0 1.372.323.593.323.915.965.328.636.328 1.59V92H68.42v-4.678q0-.84-.433-1.303-.433-.467-1.203-.467-.526 0-.945.224-.413.224-.65.656-.235.428-.234 1.034M71.89 92v-7.636h1.486V92zm.75-8.815a.95.95 0 0 1-.666-.258.84.84 0 0 1-.273-.627.83.83 0 0 1 .273-.626.94.94 0 0 1 .667-.264q.388 0 .66.264a.82.82 0 0 1 .28.626q0 .363-.28.627a.93.93 0 0 1-.66.258m8.459 3.043-1.348.239a1.6 1.6 0 0 0-.268-.493 1.3 1.3 0 0 0-.487-.382q-.309-.15-.771-.15-.631 0-1.054.284-.423.279-.423.72 0 .384.284.617.284.234.915.383l1.213.278q1.053.244 1.57.751t.518 1.318q0 .686-.398 1.223-.393.532-1.099.835-.7.303-1.626.303-1.282 0-2.093-.547-.81-.552-.994-1.566l1.437-.219q.134.562.552.85.417.285 1.089.284.73 0 1.168-.303.438-.309.437-.751a.78.78 0 0 0-.268-.602q-.264-.244-.81-.367l-1.293-.284q-1.07-.243-1.581-.775-.507-.532-.507-1.348 0-.675.378-1.183.378-.507 1.044-.79.666-.29 1.526-.289 1.238 0 1.949.537.71.532.94 1.427m6.428 8.636q-.333 0-.607-.055a2 2 0 0 1-.407-.11l.358-1.218q.407.11.725.095a.87.87 0 0 0 .562-.239q.249-.223.438-.73l.184-.508-2.794-7.735h1.59l1.935 5.926h.079l1.934-5.926h1.596l-3.147 8.655a3.5 3.5 0 0 1-.557 1.01 2.16 2.16 0 0 1-.805.626q-.468.209-1.084.209m10.021-2.71q-1.128 0-1.944-.482a3.27 3.27 0 0 1-1.252-1.367q-.438-.885-.438-2.074 0-1.173.438-2.068a3.4 3.4 0 0 1 1.233-1.397q.795-.501 1.859-.502.645 0 1.253.214.606.214 1.088.671t.761 1.188q.279.727.279 1.765v.527h-6.07v-1.113h4.613q0-.587-.239-1.04a1.8 1.8 0 0 0-.67-.72 1.88 1.88 0 0 0-1.005-.264 1.94 1.94 0 0 0-1.094.308 2.07 2.07 0 0 0-.716.796 2.3 2.3 0 0 0-.248 1.059v.87q0 .765.268 1.302.274.537.76.82.487.28 1.14.28.421 0 .77-.12.348-.125.601-.368.255-.243.388-.602l1.407.254a2.56 2.56 0 0 1-.606 1.089 2.95 2.95 0 0 1-1.09.72q-.65.254-1.486.254m7.148.015q-.726 0-1.312-.268a2.2 2.2 0 0 1-.93-.79q-.338-.518-.338-1.269 0-.645.249-1.064.248-.417.671-.66a3.5 3.5 0 0 1 .944-.369 9 9 0 0 1 1.064-.189l1.114-.129q.428-.054.621-.174.194-.12.194-.388v-.034q0-.652-.368-1.01-.363-.358-1.084-.358-.75 0-1.183.333-.428.33-.591.731l-1.397-.318q.248-.696.725-1.123a2.95 2.95 0 0 1 1.109-.627 4.3 4.3 0 0 1 1.318-.199q.457 0 .969.11.517.104.965.387.452.285.74.81.29.523.289 1.358V92h-1.452v-1.044h-.06q-.144.288-.432.567t-.741.462-1.084.184m.323-1.193q.617 0 1.054-.244.443-.243.671-.636a1.65 1.65 0 0 0 .234-.85v-.985q-.08.08-.308.15-.224.064-.512.114-.288.045-.562.084l-.457.06a3.7 3.7 0 0 0-.791.184q-.353.129-.567.373-.208.238-.208.636 0 .553.407.835.408.279 1.039.279M110.445 92v-7.636h1.436v1.213h.08q.208-.616.736-.97a2.1 2.1 0 0 1 1.203-.358 6 6 0 0 1 .631.035v1.422a3 3 0 0 0-.318-.055 3 3 0 0 0-.457-.034 1.94 1.94 0 0 0-.94.223 1.66 1.66 0 0 0-.885 1.497V92zm12.642-7.636v1.193h-4.171v-1.193zm-3.052-1.83h1.486v7.224q0 .432.13.651.129.214.333.293.209.075.452.075.179 0 .313-.025.135-.025.209-.04l.269 1.228a2.916 2.916 0 0 1-.965.16 2.6 2.6 0 0 1-1.094-.21 1.9 1.9 0 0 1-.82-.675q-.313-.457-.313-1.149zm6.347 4.932V92h-1.486V81.818h1.466v3.788h.095q.268-.615.82-.979.552-.363 1.442-.363.786 0 1.372.323.591.323.915.965.328.636.328 1.59V92h-1.487v-4.678q0-.84-.432-1.303-.432-.467-1.203-.467a2 2 0 0 0-.945.224q-.412.224-.651.656-.234.428-.234 1.034m9.158 4.703q-.726 0-1.313-.268a2.2 2.2 0 0 1-.929-.79q-.339-.518-.338-1.269 0-.645.248-1.064.25-.417.671-.66a3.5 3.5 0 0 1 .945-.369 9 9 0 0 1 1.064-.189l1.114-.129q.427-.054.621-.174t.194-.388v-.034q0-.652-.368-1.01-.363-.358-1.084-.358-.75 0-1.183.333-.427.33-.592.731l-1.397-.318q.249-.696.726-1.123a2.95 2.95 0 0 1 1.109-.627 4.3 4.3 0 0 1 1.317-.199q.457 0 .97.11.517.104.964.387.453.285.741.81.288.523.288 1.358V92h-1.451v-1.044h-.06q-.144.288-.432.567-.29.278-.741.462-.453.184-1.084.184m.323-1.193q.616 0 1.054-.244.443-.243.671-.636a1.65 1.65 0 0 0 .234-.85v-.985q-.08.08-.308.15-.224.064-.512.114-.29.045-.562.084l-.458.06a3.7 3.7 0 0 0-.79.184q-.353.129-.567.373-.209.238-.209.636 0 .553.408.835.408.279 1.039.279m6.912-3.51V92h-1.487v-7.636h1.427v1.242h.095q.262-.606.825-.974.567-.368 1.427-.368.78 0 1.367.328a2.2 2.2 0 0 1 .91.965q.323.64.323 1.586V92h-1.487v-4.678q0-.83-.432-1.298-.433-.472-1.188-.472a1.86 1.86 0 0 0-.92.224q-.398.224-.631.656-.23.428-.229 1.034m12.072-5.648V92h-1.486V81.818zm4.222 10.351q-.726 0-1.312-.268a2.2 2.2 0 0 1-.93-.79q-.338-.518-.338-1.269 0-.645.249-1.064.248-.417.671-.66a3.5 3.5 0 0 1 .944-.369 9 9 0 0 1 1.064-.189l1.114-.129q.427-.054.621-.174t.194-.388v-.034q0-.652-.368-1.01-.363-.358-1.083-.358-.751 0-1.184.333-.428.33-.591.731l-1.397-.318q.248-.696.726-1.123a2.9 2.9 0 0 1 1.108-.627 4.3 4.3 0 0 1 1.318-.199q.457 0 .969.11.517.104.965.387.452.285.74.81.29.523.289 1.358V92h-1.452v-1.044h-.06q-.144.288-.432.567t-.741.462-1.084.184m.323-1.193q.617 0 1.054-.244.442-.243.672-.636.233-.398.233-.85v-.985q-.08.08-.308.15-.224.064-.512.114-.288.045-.562.084l-.457.06a3.7 3.7 0 0 0-.791.184q-.353.129-.567.373-.208.238-.208.636 0 .553.407.835.408.279 1.039.279m11.148-4.748-1.347.239a1.6 1.6 0 0 0-.269-.493 1.3 1.3 0 0 0-.487-.382q-.308-.15-.771-.15-.631 0-1.054.284-.422.279-.422.72 0 .384.283.617.284.234.915.383l1.213.278q1.054.244 1.571.751t.517 1.318q0 .686-.398 1.223-.392.532-1.098.835-.702.303-1.626.303-1.283 0-2.093-.547-.81-.552-.994-1.566l1.436-.219q.135.562.552.85.418.285 1.089.284.731 0 1.168-.303.438-.309.438-.751a.78.78 0 0 0-.269-.602q-.262-.244-.81-.367l-1.293-.284q-1.068-.243-1.581-.775-.507-.532-.507-1.348 0-.675.378-1.183.378-.507 1.044-.79.666-.29 1.526-.289 1.238 0 1.949.537.71.532.94 1.427m5.348-1.864v1.193h-4.171v-1.193zm-3.052-1.83h1.486v7.224q0 .432.129.651.13.214.333.293.21.075.453.075.179 0 .313-.025.135-.025.209-.04l.268 1.228a2.5 2.5 0 0 1-.368.1 3 3 0 0 1-.596.06 2.6 2.6 0 0 1-1.094-.21 1.9 1.9 0 0 1-.82-.675q-.313-.457-.313-1.149zm9.341 12.33a3 3 0 0 1-.606-.055 2 2 0 0 1-.408-.11l.358-1.218q.408.11.726.095a.87.87 0 0 0 .562-.239q.248-.223.437-.73l.184-.508-2.794-7.735h1.591l1.934 5.926h.079l1.934-5.926h1.596l-3.147 8.655a3.4 3.4 0 0 1-.557 1.01 2.15 2.15 0 0 1-.805.626q-.468.209-1.084.209m10.022-2.71q-1.13 0-1.944-.482a3.27 3.27 0 0 1-1.253-1.367q-.438-.885-.438-2.074 0-1.173.438-2.068a3.4 3.4 0 0 1 1.233-1.397q.795-.501 1.859-.502.647 0 1.253.214t1.089.671.761 1.188q.278.727.278 1.765v.527h-6.07v-1.113h4.613q0-.587-.238-1.04a1.8 1.8 0 0 0-.672-.72 1.87 1.87 0 0 0-1.004-.264q-.626 0-1.094.308a2.07 2.07 0 0 0-.715.796 2.3 2.3 0 0 0-.249 1.059v.87q0 .765.268 1.302.274.537.761.82.487.28 1.139.28.422 0 .77-.12.348-.125.602-.368.253-.243.388-.602l1.407.254a2.55 2.55 0 0 1-.607 1.089 2.9 2.9 0 0 1-1.089.72q-.65.254-1.486.254m7.148.015q-.726 0-1.313-.268a2.2 2.2 0 0 1-.93-.79q-.338-.518-.338-1.269 0-.645.249-1.064.248-.417.671-.66a3.5 3.5 0 0 1 .945-.369 9 9 0 0 1 1.064-.189l1.113-.129q.427-.054.622-.174.194-.12.194-.388v-.034q0-.652-.368-1.01-.364-.358-1.084-.358-.751 0-1.183.333-.428.33-.592.731L197 86.213q.249-.696.726-1.123a2.9 2.9 0 0 1 1.109-.627 4.3 4.3 0 0 1 1.317-.199q.457 0 .969.11.518.104.965.387.452.285.741.81.288.523.288 1.358V92h-1.452v-1.044h-.059a2.1 2.1 0 0 1-.433.567q-.288.278-.741.462-.452.184-1.083.184m.323-1.193q.616 0 1.054-.244.442-.243.671-.636a1.65 1.65 0 0 0 .234-.85v-.985q-.08.08-.309.15-.224.064-.512.114-.288.045-.562.084l-.457.06a3.7 3.7 0 0 0-.79.184 1.35 1.35 0 0 0-.567.373q-.209.238-.209.636 0 .553.408.835.407.279 1.039.279M205.095 92v-7.636h1.437v1.213h.079q.21-.616.736-.97a2.1 2.1 0 0 1 1.203-.358 6 6 0 0 1 .632.035v1.422a3 3 0 0 0-.319-.055 3 3 0 0 0-.457-.034q-.526 0-.94.223a1.67 1.67 0 0 0-.885 1.497V92zm5.477.094a.97.97 0 0 1-.701-.288.96.96 0 0 1-.293-.706q0-.408.293-.696a.96.96 0 0 1 .701-.293q.408 0 .701.293a.94.94 0 0 1 .294.696q0 .273-.139.502-.135.225-.358.358a.95.95 0 0 1-.498.135"/><path fill="#09090B" d="M38.009 125.545V143h-3.69v-13.952h-.103l-3.997 2.506v-3.273l4.32-2.736zM42.156 143v-2.659l6.213-5.753a23 23 0 0 0 1.33-1.381 5.2 5.2 0 0 0 .826-1.201q.282-.597.281-1.287 0-.768-.349-1.321a2.3 2.3 0 0 0-.954-.861 3 3 0 0 0-1.373-.307q-.801 0-1.397.324a2.24 2.24 0 0 0-.92.929q-.325.605-.325 1.44h-3.502q0-1.713.775-2.974.776-1.262 2.173-1.952t3.222-.69q1.875 0 3.264.665 1.398.656 2.173 1.823.776 1.168.776 2.677 0 .988-.392 1.951-.384.963-1.372 2.139-.99 1.169-2.787 2.804l-2.548 2.498v.119h7.33V143zm19.097-2.386-.093.937a13 13 0 0 1-.427 2.242q-.306 1.125-.647 2.037-.332.912-.537 1.431h-2.353q.128-.503.35-1.406.222-.895.418-2.011t.247-2.276l.042-.954zm3.022-.682v-2.906l7.287-11.481h2.505v4.023h-1.483l-4.593 7.27v.136h10.355v2.958zM72.653 143v-3.955l.069-1.286v-12.214h3.46V143zm14.527.239q-1.806 0-3.221-.665-1.407-.664-2.233-1.833-.827-1.167-.86-2.676h3.579q.06 1.014.852 1.645t1.883.631q.87 0 1.534-.384a2.74 2.74 0 0 0 1.049-1.082q.383-.699.383-1.602 0-.921-.392-1.62a2.8 2.8 0 0 0-1.065-1.091q-.682-.391-1.56-.4-.766 0-1.491.315-.717.315-1.117.861l-3.28-.588.826-9.205h10.67v3.017H85.11l-.451 4.373h.102q.46-.648 1.39-1.074.928-.426 2.079-.426 1.575 0 2.812.741a5.34 5.34 0 0 1 1.952 2.037q.716 1.287.707 2.966.009 1.764-.818 3.136-.818 1.363-2.293 2.148-1.465.776-3.409.776m15.546 0q-1.91 0-3.4-.657-1.484-.665-2.344-1.823-.853-1.169-.878-2.694h3.716q.034.639.417 1.125.392.478 1.04.742t1.457.264q.844 0 1.492-.298.648-.299 1.014-.827a2.1 2.1 0 0 0 .367-1.219q0-.699-.393-1.236-.383-.544-1.107-.852-.717-.306-1.705-.307h-1.628v-2.71h1.628q.835 0 1.474-.29.648-.29 1.006-.801.358-.52.358-1.21a2.1 2.1 0 0 0-1.185-1.935q-.554-.28-1.295-.281-.75 0-1.372.273a2.4 2.4 0 0 0-.997.758q-.376.495-.4 1.159h-3.538q.026-1.508.86-2.659.837-1.15 2.25-1.798 1.425-.656 3.214-.656 1.808 0 3.162.656 1.355.656 2.105 1.773.759 1.108.75 2.488.009 1.467-.912 2.446-.912.981-2.378 1.245v.136q1.926.248 2.932 1.338 1.014 1.083 1.006 2.71.008 1.492-.861 2.651-.861 1.16-2.378 1.824t-3.477.665"/><path fill="#71717A" d="m122.722 137.228-1.348.239a1.6 1.6 0 0 0-.268-.493 1.3 1.3 0 0 0-.487-.382q-.309-.15-.771-.15-.631 0-1.054.284-.423.278-.423.721 0 .382.284.616t.915.383l1.213.278q1.053.244 1.571.751.517.507.517 1.318 0 .686-.398 1.223-.393.532-1.099.835-.7.303-1.625.303-1.284 0-2.093-.547-.811-.552-.995-1.566l1.437-.219q.134.562.552.851.417.283 1.089.283.73 0 1.168-.303.438-.309.437-.751a.78.78 0 0 0-.268-.602q-.264-.243-.81-.367l-1.293-.284q-1.07-.243-1.581-.775-.507-.532-.507-1.348 0-.675.378-1.183.378-.507 1.044-.79.666-.29 1.526-.289 1.238 0 1.949.537.71.532.94 1.427m5.348-1.864v1.193h-4.171v-1.193zm-3.053-1.83h1.487v7.224q0 .432.129.651a.67.67 0 0 0 .333.293q.209.075.453.075.178 0 .313-.025.134-.024.209-.04l.268 1.228a2.928 2.928 0 0 1-.965.159 2.6 2.6 0 0 1-1.093-.208 1.9 1.9 0 0 1-.821-.677q-.312-.456-.313-1.148zm7.906 9.62q-1.128 0-1.944-.482a3.28 3.28 0 0 1-1.252-1.367q-.438-.885-.438-2.073 0-1.174.438-2.069a3.4 3.4 0 0 1 1.233-1.397q.795-.502 1.859-.502.646 0 1.253.214t1.089.671.76 1.188q.279.727.279 1.765v.527h-6.071v-1.113h4.614q0-.587-.239-1.039a1.8 1.8 0 0 0-.671-.721 1.87 1.87 0 0 0-1.004-.264q-.627 0-1.094.308a2.1 2.1 0 0 0-.716.796 2.3 2.3 0 0 0-.248 1.059v.87q0 .765.268 1.302.273.537.761.821a2.26 2.26 0 0 0 1.138.278q.423 0 .771-.119a1.589 1.589 0 0 0 .989-.97l1.407.254a2.56 2.56 0 0 1-.606 1.089 3 3 0 0 1-1.089.721q-.651.253-1.487.253m4.926 2.71v-10.5h1.452v1.238h.124q.129-.24.373-.552.243-.313.676-.547.432-.239 1.143-.239a3 3 0 0 1 1.651.468q.726.467 1.138 1.347.418.879.418 2.118t-.413 2.123q-.413.88-1.133 1.357a2.94 2.94 0 0 1-1.646.472q-.696 0-1.138-.234a2.1 2.1 0 0 1-.686-.546 4 4 0 0 1-.383-.557h-.09v4.052zm1.457-6.682q0 .805.233 1.412.234.606.676.949.443.339 1.084.338.666 0 1.114-.353a2.2 2.2 0 0 0 .676-.969q.234-.612.234-1.377 0-.756-.229-1.357a2.1 2.1 0 0 0-.676-.95q-.448-.348-1.119-.348-.646 0-1.094.333-.442.333-.671.93-.228.596-.228 1.392m12.906-1.954-1.347.239a1.6 1.6 0 0 0-.269-.493 1.3 1.3 0 0 0-.487-.382q-.309-.15-.771-.15-.631 0-1.054.284-.422.278-.422.721 0 .382.283.616t.915.383l1.213.278q1.054.244 1.571.751t.517 1.318q0 .686-.398 1.223-.393.532-1.098.835-.702.303-1.626.303-1.283 0-2.093-.547-.81-.552-.995-1.566l1.437-.219q.135.562.552.851.418.283 1.089.283.731 0 1.168-.303.438-.309.438-.751a.78.78 0 0 0-.269-.602q-.263-.243-.81-.367l-1.293-.284q-1.068-.243-1.581-.775-.507-.532-.507-1.348 0-.675.378-1.183.378-.507 1.044-.79.666-.29 1.526-.289 1.238 0 1.949.537.71.532.94 1.427m5.661-4.887-3.281 12.19h-1.327l3.281-12.19zm4.122 10.808a2.96 2.96 0 0 1-1.651-.472q-.72-.477-1.133-1.357-.408-.885-.408-2.123t.413-2.118q.417-.88 1.143-1.347a2.97 2.97 0 0 1 1.646-.468q.711 0 1.143.239.438.234.676.547.245.313.378.552h.09v-3.784h1.486V143h-1.452v-1.188h-.124a4 4 0 0 1-.388.557 2.1 2.1 0 0 1-.686.546q-.437.234-1.133.234m.328-1.268q.641 0 1.084-.338.447-.343.676-.949.233-.607.233-1.412 0-.796-.228-1.392-.229-.597-.671-.93t-1.094-.333q-.672 0-1.119.348a2.13 2.13 0 0 0-.676.95 3.9 3.9 0 0 0-.224 1.357q0 .765.229 1.377.228.612.676.969.453.353 1.114.353m7.799 1.288q-.726 0-1.313-.268a2.2 2.2 0 0 1-.929-.791q-.339-.517-.338-1.268 0-.646.248-1.064.25-.417.671-.661a3.5 3.5 0 0 1 .945-.368 9 9 0 0 1 1.064-.189l1.114-.129q.427-.054.621-.174.194-.119.194-.388v-.034q0-.652-.368-1.01-.363-.358-1.084-.358-.75 0-1.183.333-.427.329-.592.731l-1.397-.318q.249-.696.726-1.124a2.95 2.95 0 0 1 1.109-.626 4.3 4.3 0 0 1 1.317-.199q.457 0 .97.11.517.103.964.387.453.283.741.811.288.522.288 1.357V143h-1.451v-1.044h-.06q-.144.288-.432.567a2.3 2.3 0 0 1-.741.462q-.453.184-1.084.184m.323-1.193q.616 0 1.054-.244.443-.243.671-.636a1.65 1.65 0 0 0 .234-.85v-.985q-.08.08-.308.15-.224.065-.512.114-.29.045-.562.084l-.458.06a3.7 3.7 0 0 0-.79.184q-.353.129-.567.373-.209.239-.209.636 0 .552.408.835.408.279 1.039.279m6.092 3.888q-.334 0-.607-.055a2 2 0 0 1-.408-.109l.358-1.218q.408.109.726.094.319-.014.562-.239.25-.223.437-.73l.184-.508-2.794-7.735h1.591l1.934 5.926h.08l1.934-5.926h1.596l-3.147 8.655a3.5 3.5 0 0 1-.557 1.009 2.16 2.16 0 0 1-.806.627 2.6 2.6 0 0 1-1.083.209"/><rect width="207" height="28" x="29" y="154" fill="#EA580C" rx="4"/><path fill="#fff" d="M37.84 172.5v-.955l2.953-3.059q.473-.5.78-.874.31-.38.464-.72.153-.341.153-.724 0-.435-.204-.75a1.33 1.33 0 0 0-.558-.49 1.8 1.8 0 0 0-.797-.175q-.47 0-.819.192a1.3 1.3 0 0 0-.536.541 1.7 1.7 0 0 0-.188.818h-1.257q0-.797.366-1.393a2.5 2.5 0 0 1 1.006-.925q.639-.333 1.453-.333.823 0 1.45.329.63.323.983.886.354.559.354 1.261 0 .486-.183.951-.18.463-.626 1.035-.448.567-1.245 1.376l-1.734 1.816v.064h3.929v1.129zm10.397.145q-1.01-.005-1.726-.533-.715-.528-1.095-1.538t-.38-2.433q0-1.42.38-2.425.383-1.006 1.1-1.534.72-.529 1.721-.529t1.718.533q.715.529 1.095 1.534.383 1.002.383 2.421 0 1.427-.379 2.437-.38 1.006-1.095 1.538-.716.53-1.722.529m0-1.138q.887 0 1.385-.865.503-.865.503-2.501 0-1.087-.23-1.837-.226-.755-.652-1.142a1.43 1.43 0 0 0-1.006-.392q-.882 0-1.385.869-.502.87-.507 2.502 0 1.09.226 1.845.23.75.652 1.138.422.383 1.014.383m4.708.993v-.955l2.953-3.059q.473-.5.78-.874.31-.38.464-.72.154-.341.154-.724 0-.435-.205-.75a1.33 1.33 0 0 0-.558-.49 1.8 1.8 0 0 0-.797-.175q-.468 0-.818.192a1.3 1.3 0 0 0-.537.541 1.7 1.7 0 0 0-.187.818h-1.258q0-.797.367-1.393a2.5 2.5 0 0 1 1.006-.925q.639-.333 1.453-.333.822 0 1.449.329.63.323.984.886.354.559.354 1.261 0 .486-.184.951-.179.463-.626 1.035-.447.567-1.244 1.376l-1.735 1.816v.064h3.93v1.129zm6.989-1.705v-1.065l3.77-5.957h.84v1.568h-.532l-2.698 4.27v.068h5.17v1.116zm4.137 1.705v-2.028l.009-.486v-6.213h1.249v8.727z"/><path fill="#09090B" d="M38.009 201.545V219h-3.69v-13.952h-.103l-3.997 2.506v-3.273l4.32-2.736zm11.472 17.839q-2.2-.009-3.784-1.083-1.577-1.074-2.43-3.111-.843-2.037-.835-4.9 0-2.856.844-4.867.852-2.012 2.43-3.059 1.584-1.057 3.775-1.057t3.767 1.057q1.586 1.056 2.437 3.068.852 2.002.844 4.858 0 2.872-.852 4.909-.845 2.037-2.42 3.111-1.578 1.074-3.776 1.074m0-3.06q1.5 0 2.395-1.509t.886-4.525q0-1.986-.41-3.307-.4-1.322-1.141-1.986a2.5 2.5 0 0 0-1.73-.665q-1.492 0-2.387 1.492-.894 1.491-.903 4.466 0 2.011.4 3.358.41 1.338 1.151 2.011a2.52 2.52 0 0 0 1.739.665m13.436.29-.093.937a13 13 0 0 1-.426 2.242q-.307 1.125-.648 2.037-.332.912-.537 1.431H58.86q.127-.503.349-1.406.222-.895.418-2.011t.247-2.276l.042-.954zm9.18-15.069V219h-3.69v-13.952h-.103l-3.997 2.506v-3.273l4.321-2.736zm11.472 17.839q-2.199-.009-3.784-1.083-1.576-1.074-2.429-3.111-.843-2.037-.835-4.9 0-2.856.844-4.867.851-2.012 2.429-3.059 1.584-1.057 3.775-1.057t3.767 1.057q1.586 1.056 2.438 3.068.853 2.002.843 4.858 0 2.872-.852 4.909-.844 2.037-2.42 3.111t-3.776 1.074m0-3.06q1.5 0 2.395-1.509t.886-4.525q0-1.986-.409-3.307-.4-1.322-1.142-1.986a2.5 2.5 0 0 0-1.73-.665q-1.492 0-2.386 1.492t-.904 4.466q0 2.011.4 3.358.41 1.338 1.151 2.011a2.52 2.52 0 0 0 1.74.665m16.612 2.915q-1.91 0-3.401-.657-1.483-.665-2.344-1.823-.851-1.169-.878-2.694h3.716q.034.639.418 1.125.392.478 1.04.742a3.8 3.8 0 0 0 1.457.264q.844 0 1.492-.298a2.46 2.46 0 0 0 1.014-.827q.366-.529.366-1.219 0-.699-.392-1.236-.384-.544-1.108-.852-.716-.306-1.704-.307h-1.628v-2.71h1.628q.835 0 1.474-.29.648-.29 1.006-.801.358-.52.358-1.21a2.1 2.1 0 0 0-.316-1.151 2.1 2.1 0 0 0-.869-.784q-.554-.28-1.295-.281-.75 0-1.373.273a2.4 2.4 0 0 0-.997.758q-.375.495-.4 1.159h-3.537q.026-1.508.86-2.659.836-1.15 2.25-1.798 1.424-.656 3.214-.656 1.806 0 3.162.656t2.105 1.773q.757 1.108.75 2.488.007 1.467-.912 2.446-.912.981-2.378 1.245v.136q1.926.247 2.932 1.338 1.014 1.083 1.005 2.71.009 1.492-.86 2.651-.861 1.16-2.378 1.824t-3.477.665"/><path fill="#71717A" d="m122.722 213.228-1.348.239a1.6 1.6 0 0 0-.268-.493 1.3 1.3 0 0 0-.487-.382q-.309-.15-.771-.15-.631 0-1.054.284-.423.278-.423.721 0 .382.284.616t.915.383l1.213.278q1.053.244 1.571.751.517.507.517 1.318 0 .686-.398 1.223-.393.532-1.099.835-.7.303-1.625.303-1.284 0-2.093-.547-.811-.552-.995-1.566l1.437-.219q.134.562.552.851.417.283 1.089.283.73 0 1.168-.303.438-.309.437-.751a.78.78 0 0 0-.268-.602q-.264-.243-.81-.367l-1.293-.284q-1.07-.244-1.581-.775-.507-.532-.507-1.348 0-.675.378-1.183.378-.507 1.044-.79.666-.29 1.526-.289 1.238 0 1.949.537.71.532.94 1.427m5.348-1.864v1.193h-4.171v-1.193zm-3.053-1.83h1.487v7.224q0 .432.129.651a.67.67 0 0 0 .333.293q.209.075.453.075.178 0 .313-.025.134-.024.209-.04l.268 1.228a2.928 2.928 0 0 1-.965.159 2.6 2.6 0 0 1-1.093-.208 1.9 1.9 0 0 1-.821-.677q-.312-.456-.313-1.148zm7.906 9.62q-1.128 0-1.944-.482a3.28 3.28 0 0 1-1.252-1.367q-.438-.885-.438-2.073 0-1.174.438-2.069a3.4 3.4 0 0 1 1.233-1.397q.795-.502 1.859-.502.646 0 1.253.214t1.089.671q.482.458.76 1.188.279.727.279 1.765v.527h-6.071v-1.113h4.614q0-.587-.239-1.039a1.8 1.8 0 0 0-.671-.721 1.87 1.87 0 0 0-1.004-.264q-.627 0-1.094.308a2.1 2.1 0 0 0-.716.796 2.3 2.3 0 0 0-.248 1.059v.87q0 .765.268 1.302.273.537.761.821a2.26 2.26 0 0 0 1.138.278q.423 0 .771-.119a1.589 1.589 0 0 0 .989-.97l1.407.254a2.56 2.56 0 0 1-.606 1.089 3 3 0 0 1-1.089.721q-.651.253-1.487.253m4.926 2.71v-10.5h1.452v1.238h.124q.129-.24.373-.552.243-.313.676-.547.432-.239 1.143-.239a3 3 0 0 1 1.651.468q.726.467 1.138 1.347.418.879.418 2.118t-.413 2.123q-.413.88-1.133 1.357a2.94 2.94 0 0 1-1.646.472q-.696 0-1.138-.234a2.1 2.1 0 0 1-.686-.546 4 4 0 0 1-.383-.557h-.09v4.052zm1.457-6.682q0 .805.233 1.412.234.606.676.949.443.339 1.084.338.666 0 1.114-.353a2.2 2.2 0 0 0 .676-.969q.234-.612.234-1.377 0-.756-.229-1.357a2.1 2.1 0 0 0-.676-.95q-.448-.348-1.119-.348-.646 0-1.094.333-.442.333-.671.93-.228.596-.228 1.392m12.906-1.954-1.347.239a1.6 1.6 0 0 0-.269-.493 1.3 1.3 0 0 0-.487-.382q-.309-.15-.771-.15-.631 0-1.054.284-.422.278-.422.721 0 .382.283.616t.915.383l1.213.278q1.054.244 1.571.751t.517 1.318q0 .686-.398 1.223-.393.532-1.098.835-.702.303-1.626.303-1.283 0-2.093-.547-.81-.552-.995-1.566l1.437-.219q.135.562.552.851.418.283 1.089.283.731 0 1.168-.303.438-.309.438-.751a.78.78 0 0 0-.269-.602q-.263-.243-.81-.367l-1.293-.284q-1.068-.244-1.581-.775-.507-.532-.507-1.348 0-.675.378-1.183.378-.507 1.044-.79.666-.29 1.526-.289 1.238 0 1.949.537.71.532.94 1.427m5.661-4.887-3.281 12.19h-1.327l3.281-12.19zm4.122 10.808a2.96 2.96 0 0 1-1.651-.472q-.72-.477-1.133-1.357-.408-.885-.408-2.123t.413-2.118q.417-.88 1.143-1.347a2.97 2.97 0 0 1 1.646-.468q.711 0 1.143.239.438.234.676.547.245.313.378.552h.09v-3.784h1.486V219h-1.452v-1.188h-.124a4 4 0 0 1-.388.557 2.1 2.1 0 0 1-.686.546q-.437.234-1.133.234m.328-1.268q.641 0 1.084-.338.447-.343.676-.949.233-.607.233-1.412 0-.796-.228-1.392-.229-.597-.671-.93t-1.094-.333q-.672 0-1.119.348a2.13 2.13 0 0 0-.676.95 3.9 3.9 0 0 0-.224 1.357q0 .765.229 1.377.228.612.676.969.453.353 1.114.353m7.799 1.288q-.726 0-1.313-.268a2.2 2.2 0 0 1-.929-.791q-.339-.517-.338-1.268 0-.646.248-1.064.25-.417.671-.661a3.5 3.5 0 0 1 .945-.368 9 9 0 0 1 1.064-.189l1.114-.129q.427-.054.621-.174.194-.119.194-.388v-.034q0-.652-.368-1.01-.363-.358-1.084-.358-.75 0-1.183.333-.427.329-.592.731l-1.397-.318q.249-.696.726-1.124a2.95 2.95 0 0 1 1.109-.626 4.3 4.3 0 0 1 1.317-.199q.457 0 .97.11.517.103.964.387.453.283.741.811.288.522.288 1.357V219h-1.451v-1.044h-.06q-.144.288-.432.567a2.3 2.3 0 0 1-.741.462q-.453.184-1.084.184m.323-1.193q.616 0 1.054-.244.443-.243.671-.636a1.65 1.65 0 0 0 .234-.85v-.985q-.08.08-.308.15-.224.065-.512.114-.29.045-.562.084l-.458.06a3.7 3.7 0 0 0-.79.184q-.353.129-.567.373-.209.239-.209.636 0 .552.408.835.408.279 1.039.279m6.092 3.888q-.334 0-.607-.055a2 2 0 0 1-.408-.109l.358-1.218q.408.109.726.094.319-.014.562-.239.25-.223.437-.73l.184-.508-2.794-7.735h1.591l1.934 5.926h.08l1.934-5.926h1.596l-3.147 8.655a3.5 3.5 0 0 1-.557 1.009 2.16 2.16 0 0 1-.806.627 2.6 2.6 0 0 1-1.083.209"/><rect width="207" height="28" x="29" y="230" fill="#E4E4E7" rx="4"/><path fill="#71717A" d="M37.84 248.5v-.955l2.953-3.059q.473-.5.78-.874.31-.38.464-.72.153-.341.153-.724 0-.435-.204-.75a1.33 1.33 0 0 0-.558-.49 1.8 1.8 0 0 0-.797-.175q-.47 0-.819.192a1.3 1.3 0 0 0-.536.541 1.7 1.7 0 0 0-.188.818h-1.257q0-.797.366-1.393a2.5 2.5 0 0 1 1.006-.925q.639-.333 1.453-.333.823 0 1.45.329.63.323.983.886.354.558.354 1.261 0 .486-.183.951-.18.463-.626 1.035-.448.567-1.245 1.376l-1.734 1.816v.064h3.929v1.129zm10.397.145q-1.01-.005-1.726-.533-.715-.528-1.095-1.538t-.38-2.433q0-1.42.38-2.425.383-1.006 1.1-1.534.72-.529 1.721-.529t1.718.533q.715.529 1.095 1.534.383 1.002.383 2.421 0 1.427-.379 2.437-.38 1.006-1.095 1.538-.716.53-1.722.529m0-1.138q.887 0 1.385-.865.503-.865.503-2.501 0-1.087-.23-1.837-.226-.755-.652-1.142a1.43 1.43 0 0 0-1.006-.392q-.882 0-1.385.869-.502.87-.507 2.502 0 1.09.226 1.845.23.75.652 1.138.422.383 1.014.383m4.708.993v-.955l2.953-3.059q.473-.5.78-.874.31-.38.464-.72.154-.341.154-.724 0-.435-.205-.75a1.33 1.33 0 0 0-.558-.49 1.8 1.8 0 0 0-.797-.175q-.468 0-.818.192a1.3 1.3 0 0 0-.537.541 1.7 1.7 0 0 0-.187.818h-1.258q0-.797.367-1.393a2.5 2.5 0 0 1 1.006-.925q.639-.333 1.453-.333.822 0 1.449.329.63.323.984.886.354.558.354 1.261 0 .486-.184.951-.179.463-.626 1.035-.447.567-1.244 1.376l-1.735 1.816v.064h3.93v1.129zm10.398.119q-.878 0-1.569-.302a2.66 2.66 0 0 1-1.086-.84 2.23 2.23 0 0 1-.426-1.253H61.6q.025.388.26.674.238.28.622.434t.852.154a2.2 2.2 0 0 0 .912-.179q.4-.18.627-.499a1.27 1.27 0 0 0 .225-.746 1.34 1.34 0 0 0-.225-.771 1.47 1.47 0 0 0-.653-.528q-.426-.192-1.03-.192h-.738v-1.074h.737q.486 0 .852-.175.371-.174.58-.485.21-.316.209-.738a1.3 1.3 0 0 0-.183-.703 1.24 1.24 0 0 0-.512-.473 1.7 1.7 0 0 0-.775-.17q-.426 0-.797.158a1.5 1.5 0 0 0-.597.443 1.14 1.14 0 0 0-.247.686h-1.274q.02-.708.418-1.245.4-.537 1.056-.839a3.4 3.4 0 0 1 1.458-.303q.84 0 1.449.329.613.323.946.865.336.54.332 1.184.005.734-.409 1.245-.409.51-1.091.686v.068q.87.132 1.347.69.48.558.477 1.385.005.72-.4 1.291a2.7 2.7 0 0 1-1.096.899q-.695.324-1.59.324"/></g><defs><filter id="a" width="310" height="288" x="0" y="0" color-interpolation-filters="sRGB" filterUnits="userSpaceOnUse"><feFlood flood-opacity="0" result="BackgroundImageFix"/><feColorMatrix in="SourceAlpha" result="hardAlpha" values="0 0 0 0 0 0 0 0 0 0 0 0 0 0 0 0 0 0 127 0"/><feOffset dy="1"/><feGaussianBlur stdDeviation="2"/><feComposite in2="hardAlpha" operator="out"/><feColorMatrix values="0 0 0 0 0.0470588 0 0 0 0 0.0470588 0 0 0 0 0.0509804 0 0 0 0.05 0"/><feBlend in2="BackgroundImageFix" result="effect1_dropShadow_15855_134909"/><feBlend in="SourceGraphic" in2="effect1_dropShadow_15855_134909" result="shape"/></filter></defs></svg>