<svg xmlns="http://www.w3.org/2000/svg" width="304" height="128" fill="none"><g filter="url(#a)"><path fill="#fff" d="M2 9a8 8 0 0 1 8-8h284a8 8 0 0 1 8 8v108a8 8 0 0 1-8 8H10a8 8 0 0 1-8-8z"/><path stroke="#E4E4E7" d="M10 1.5h284a7.5 7.5 0 0 1 7.5 7.5v108a7.5 7.5 0 0 1-7.5 7.5H10a7.5 7.5 0 0 1-7.5-7.5V9A7.5 7.5 0 0 1 10 1.5Z"/><path fill="#09090B" d="M32.672 32.493a1.45 1.45 0 0 0-.656-1.094q-.578-.393-1.452-.393-.627 0-1.084.2-.458.193-.71.536a1.27 1.27 0 0 0-.25.77q0 .364.17.627.173.264.452.443.283.174.607.293.323.115.621.189l.994.258q.487.12 1 .324.512.204.95.536.436.334.705.826.274.492.274 1.178 0 .865-.448 1.536-.442.671-1.288 1.06-.84.387-2.033.387-1.143 0-1.979-.363-.834-.363-1.307-1.029-.473-.671-.522-1.59h1.541q.045.551.358.919.318.362.81.542.498.174 1.09.174.65 0 1.158-.204.512-.21.805-.577.293-.372.293-.87 0-.452-.258-.74a1.9 1.9 0 0 0-.691-.478 7 7 0 0 0-.98-.333l-1.203-.328q-1.222-.333-1.939-.98-.71-.645-.71-1.71 0-.879.477-1.536.477-.655 1.292-1.02.816-.367 1.84-.367 1.034 0 1.824.363.795.363 1.253 1 .458.63.477 1.45zm5.56 7.676a3.1 3.1 0 0 1-1.313-.268 2.2 2.2 0 0 1-.93-.79q-.338-.518-.338-1.269 0-.645.249-1.064.249-.417.67-.66.424-.245.945-.369a9 9 0 0 1 1.064-.189l1.114-.129q.427-.054.622-.174.193-.12.193-.388v-.035q0-.65-.368-1.009-.363-.357-1.083-.358-.75 0-1.184.333-.428.33-.591.731l-1.397-.318q.248-.697.726-1.123a2.94 2.94 0 0 1 1.108-.627 4.3 4.3 0 0 1 1.318-.199q.457 0 .97.11.516.104.964.387.452.285.74.81.29.523.289 1.358V40h-1.452v-1.044h-.06q-.144.288-.432.567t-.74.462-1.085.184m.322-1.193q.617 0 1.054-.244.444-.243.672-.636.233-.398.233-.85v-.985q-.079.08-.308.15a5 5 0 0 1-.512.114q-.288.045-.562.084l-.457.06a3.7 3.7 0 0 0-.79.184q-.354.129-.567.373-.21.238-.21.636 0 .552.408.835.408.279 1.04.279m6.912-9.158V40H43.98V29.818zm5.291 10.336q-1.128 0-1.944-.482a3.27 3.27 0 0 1-1.253-1.367q-.437-.885-.437-2.074 0-1.173.438-2.068a3.4 3.4 0 0 1 1.233-1.397q.795-.502 1.859-.502.645 0 1.253.214.606.213 1.089.671.482.458.76 1.188.279.727.279 1.765v.527h-6.07v-1.113h4.613q0-.587-.239-1.04a1.8 1.8 0 0 0-.67-.72 1.88 1.88 0 0 0-1.005-.264 1.94 1.94 0 0 0-1.094.308 2.07 2.07 0 0 0-.716.796 2.3 2.3 0 0 0-.248 1.059v.87q0 .765.268 1.302.274.537.76.82.488.28 1.14.28.421 0 .77-.12.348-.125.601-.368.255-.244.388-.602l1.407.254a2.55 2.55 0 0 1-.606 1.089 2.94 2.94 0 0 1-1.09.72q-.65.255-1.486.254m10.648-5.926-1.347.239a1.6 1.6 0 0 0-.269-.493 1.3 1.3 0 0 0-.487-.382q-.308-.15-.77-.15-.632 0-1.054.284-.423.278-.423.72 0 .384.283.617.284.234.915.383l1.213.278q1.055.244 1.571.751.517.507.517 1.318 0 .686-.397 1.223-.392.532-1.1.835-.7.303-1.625.303-1.283 0-2.093-.547-.81-.552-.994-1.566l1.437-.219q.134.562.552.85.416.284 1.088.284.73 0 1.169-.303.437-.309.437-.751a.78.78 0 0 0-.268-.602q-.264-.243-.81-.367l-1.293-.284q-1.07-.243-1.581-.775-.508-.532-.508-1.348 0-.675.378-1.183.378-.507 1.044-.79.666-.29 1.527-.289 1.238 0 1.949.537.71.532.94 1.427"/><path stroke="#18181B" stroke-linecap="round" stroke-linejoin="round" stroke-width="1.33" d="M263.333 33.667h13.334m-12-3.334h10.666c.737 0 1.334.597 1.334 1.334v6.666c0 .737-.597 1.334-1.334 1.334h-10.666a1.333 1.333 0 0 1-1.334-1.334v-6.666c0-.737.597-1.334 1.334-1.334"/><path fill="#09090B" d="M33.278 80.182V58.364h1.398v21.818zm3.708-14.617q-.102-1.03-.878-1.602-.776-.57-2.105-.571-.903 0-1.526.256-.622.247-.954.69-.324.443-.324 1.006-.018.468.196.818.222.35.605.605.384.248.886.435.504.178 1.074.306l1.568.376q1.142.255 2.097.681a6.4 6.4 0 0 1 1.653 1.049q.699.621 1.083 1.465.392.845.4 1.935-.008 1.602-.818 2.779-.801 1.167-2.318 1.815-1.509.64-3.64.64-2.113 0-3.681-.649-1.56-.647-2.437-1.917-.87-1.279-.913-3.162h3.572q.06.878.502 1.466.453.58 1.202.878.759.29 1.713.29.938 0 1.628-.273.7-.273 1.082-.759.384-.486.384-1.116 0-.588-.35-.989-.34-.4-1.005-.682a10 10 0 0 0-1.611-.511l-1.9-.477q-2.208-.537-3.486-1.68-1.28-1.14-1.27-3.076-.01-1.585.844-2.77.86-1.184 2.36-1.85 1.5-.664 3.41-.664 1.942 0 3.391.665 1.458.665 2.267 1.849.81 1.185.836 2.744zm12.47-5.258q1.347 0 2.592.451 1.253.453 2.233 1.44.988.99 1.56 2.626.58 1.628.587 3.997 0 2.225-.503 3.972-.495 1.738-1.423 2.957a6.2 6.2 0 0 1-2.241 1.858q-1.313.63-2.932.63-1.747 0-3.085-.673a5.8 5.8 0 0 1-2.157-1.85 5.76 5.76 0 0 1-.98-2.641h3.64q.213.954.894 1.483.682.52 1.688.52 1.705 0 2.59-1.483.888-1.492.896-4.083h-.12a4.2 4.2 0 0 1-1.056 1.321 4.9 4.9 0 0 1-1.526.844 5.5 5.5 0 0 1-1.815.298q-1.543 0-2.753-.724a5.2 5.2 0 0 1-1.91-1.994q-.698-1.27-.698-2.898-.009-1.755.81-3.128a5.7 5.7 0 0 1 2.284-2.148q1.474-.783 3.426-.775m.026 2.898q-.86 0-1.534.409a3 3 0 0 0-1.057 1.1q-.383.69-.375 1.542 0 .86.375 1.55.384.682 1.04 1.092.665.4 1.517.4a2.92 2.92 0 0 0 2.13-.895q.41-.425.64-.98.23-.553.23-1.176a3.14 3.14 0 0 0-.392-1.517A3 3 0 0 0 51 63.622a2.8 2.8 0 0 0-1.517-.417m12.78 12.409-.094.937q-.111 1.125-.426 2.242-.306 1.125-.648 2.036a64 64 0 0 1-.537 1.432h-2.352q.128-.503.35-1.406.221-.895.417-2.011t.247-2.276l.043-.954zm9.094 2.625q-1.969 0-3.503-.64-1.525-.647-2.395-1.764a4 4 0 0 1-.87-2.531q0-1.09.495-2.003a4.45 4.45 0 0 1 1.364-1.525 4.5 4.5 0 0 1 1.926-.784v-.12q-1.398-.28-2.267-1.355-.87-1.082-.87-2.514 0-1.356.793-2.412.793-1.065 2.173-1.67 1.39-.614 3.154-.614t3.145.613q1.389.615 2.182 1.68.792 1.056.8 2.403-.007 1.44-.886 2.514a3.8 3.8 0 0 1-2.25 1.355v.12a4.4 4.4 0 0 1 1.9.784 4.45 4.45 0 0 1 1.365 1.525q.51.912.52 2.003a4.05 4.05 0 0 1-.878 2.531q-.87 1.118-2.404 1.764-1.526.64-3.494.64m0-2.71q.877 0 1.534-.316a2.5 2.5 0 0 0 1.023-.886q.375-.572.375-1.313 0-.757-.384-1.338a2.64 2.64 0 0 0-1.04-.92q-.656-.341-1.508-.341-.844 0-1.509.34a2.6 2.6 0 0 0-1.048.921q-.375.579-.375 1.338 0 .742.366 1.313.367.562 1.032.886.664.315 1.534.315m0-7.799q.733 0 1.304-.298.57-.299.895-.827.324-.528.324-1.219a2.18 2.18 0 0 0-1.21-2.002q-.564-.3-1.313-.299-.741 0-1.313.298-.57.291-.895.81-.315.512-.315 1.193 0 .69.324 1.22.324.527.895.826.57.298 1.304.298m15.671-7.423q1.347 0 2.59.451a6 6 0 0 1 2.234 1.44q.989.99 1.56 2.626.579 1.628.588 3.997 0 2.225-.503 3.972-.494 1.738-1.424 2.957a6.2 6.2 0 0 1-2.241 1.858q-1.312.63-2.932.63-1.747 0-3.085-.673a5.8 5.8 0 0 1-2.156-1.85 5.76 5.76 0 0 1-.98-2.641h3.639q.213.954.895 1.483.681.52 1.687.52 1.704 0 2.591-1.483.887-1.492.895-4.083h-.12a4.2 4.2 0 0 1-1.056 1.321 4.9 4.9 0 0 1-1.526.844 5.5 5.5 0 0 1-1.815.298q-1.542 0-2.753-.724a5.2 5.2 0 0 1-1.909-1.994q-.699-1.27-.699-2.898-.009-1.755.81-3.128a5.7 5.7 0 0 1 2.284-2.148q1.474-.783 3.426-.775m.026 2.898q-.861 0-1.534.409a3 3 0 0 0-1.057 1.1q-.384.69-.375 1.542 0 .86.375 1.55.383.682 1.04 1.092.664.4 1.517.4a2.92 2.92 0 0 0 2.13-.895q.41-.425.64-.98.23-.553.23-1.176a3.14 3.14 0 0 0-.393-1.517 3 3 0 0 0-1.056-1.108 2.8 2.8 0 0 0-1.517-.417m16.201 15.034a7.9 7.9 0 0 1-2.599-.452 5.9 5.9 0 0 1-2.233-1.44q-.99-.998-1.568-2.642-.571-1.646-.571-4.04.008-2.199.502-3.93.504-1.737 1.432-2.948a6.3 6.3 0 0 1 2.242-1.841q1.304-.64 2.923-.64 1.747 0 3.085.683 1.338.674 2.148 1.832a5.6 5.6 0 0 1 .989 2.6h-3.64q-.213-.913-.894-1.432-.682-.52-1.688-.52-1.704 0-2.591 1.483-.877 1.482-.895 4.031h.12a4.05 4.05 0 0 1 1.056-1.321q.674-.554 1.526-.844a5.5 5.5 0 0 1 1.815-.298q1.551 0 2.762.733a5.2 5.2 0 0 1 1.909 1.994q.699 1.27.699 2.906 0 1.773-.827 3.154-.818 1.38-2.293 2.165-1.465.775-3.409.767m-.017-2.898a2.88 2.88 0 0 0 2.583-1.517q.383-.7.383-1.568 0-.87-.383-1.56a2.835 2.835 0 0 0-2.557-1.508q-.639 0-1.185.238-.537.239-.946.665a3.2 3.2 0 0 0-.631.989q-.23.554-.23 1.184 0 .844.384 1.543.391.699 1.057 1.116.673.418 1.525.418m10.592 2.88a2 2 0 0 1-1.449-.596 2 2 0 0 1-.597-1.449q0-.835.597-1.432a2 2 0 0 1 1.449-.596q.818 0 1.432.596.613.597.613 1.432 0 .563-.289 1.031a2.2 2.2 0 0 1-.742.742 1.95 1.95 0 0 1-1.014.273m10.988.018a7.9 7.9 0 0 1-2.6-.452 5.9 5.9 0 0 1-2.233-1.44q-.988-.998-1.568-2.642-.57-1.646-.571-4.04.008-2.199.503-3.93.503-1.737 1.432-2.948a6.3 6.3 0 0 1 2.241-1.841q1.304-.64 2.924-.64 1.746 0 3.085.683 1.338.674 2.148 1.832.818 1.16.988 2.6h-3.639q-.213-.913-.895-1.432-.681-.52-1.687-.52-1.705 0-2.591 1.483-.879 1.482-.895 4.031h.119a4.06 4.06 0 0 1 1.057-1.321q.673-.554 1.526-.844a5.5 5.5 0 0 1 1.815-.298q1.55 0 2.761.733a5.2 5.2 0 0 1 1.909 1.994q.699 1.27.699 2.906 0 1.773-.827 3.154-.817 1.38-2.292 2.165-1.466.775-3.409.767m-.017-2.898a2.88 2.88 0 0 0 2.582-1.517q.384-.7.384-1.568 0-.87-.384-1.56a2.835 2.835 0 0 0-2.557-1.508q-.64 0-1.184.238-.538.239-.946.665a3.2 3.2 0 0 0-.861 2.173q0 .844.383 1.543.393.699 1.057 1.116.674.418 1.526.418m15.861 2.898a7.9 7.9 0 0 1-2.6-.452 5.9 5.9 0 0 1-2.233-1.44q-.989-.998-1.568-2.642-.571-1.646-.571-4.04.008-2.199.503-3.93.502-1.737 1.432-2.948a6.3 6.3 0 0 1 2.241-1.841q1.304-.64 2.923-.64 1.748 0 3.086.683 1.338.674 2.147 1.832a5.6 5.6 0 0 1 .989 2.6h-3.639q-.213-.913-.895-1.432-.682-.52-1.688-.52-1.704 0-2.591 1.483-.877 1.482-.894 4.031h.119a4.06 4.06 0 0 1 1.057-1.321q.673-.554 1.525-.844a5.5 5.5 0 0 1 1.816-.298q1.55 0 2.761.733a5.2 5.2 0 0 1 1.909 1.994q.699 1.27.699 2.906 0 1.773-.827 3.154-.817 1.38-2.292 2.165-1.467.775-3.409.767m-.018-2.898a2.88 2.88 0 0 0 2.583-1.517q.383-.7.383-1.568 0-.87-.383-1.56a2.835 2.835 0 0 0-2.557-1.508q-.639 0-1.185.238-.537.239-.946.665a3.2 3.2 0 0 0-.63.989q-.23.554-.23 1.184 0 .844.383 1.543.392.699 1.057 1.116.673.418 1.525.418"/><path fill="#71717A" d="M29.477 95.466V89.84h.955v5.625zm-2.335-2.335v-.955h5.625v.955zm10.74-4.858V97h-1.057v-7.62h-.051l-2.13 1.416v-1.074l2.18-1.45zm5.288-.12q.537.004 1.074.205t.98.665q.444.46.712 1.257t.268 1.998q0 1.164-.221 2.067-.217.9-.631 1.517a2.8 2.8 0 0 1-.997.938q-.585.32-1.321.32-.733 0-1.309-.29a2.6 2.6 0 0 1-.937-.814 2.8 2.8 0 0 1-.464-1.215h1.04q.14.6.558.993.421.388 1.112.388 1.01 0 1.593-.882.589-.883.589-2.493h-.069q-.239.358-.566.618a2.5 2.5 0 0 1-1.581.54q-.75 0-1.377-.37a2.8 2.8 0 0 1-.997-1.027q-.37-.656-.37-1.5 0-.8.357-1.466.363-.668 1.014-1.065.657-.396 1.543-.384m0 .938q-.537 0-.967.268a1.93 1.93 0 0 0-.678.716q-.247.449-.247.993 0 .546.239.993.243.443.66.707.422.26.959.26.405 0 .754-.157.35-.162.61-.44.264-.28.413-.634.15-.358.15-.746 0-.51-.248-.959a1.96 1.96 0 0 0-.673-.724 1.74 1.74 0 0 0-.972-.277m9.159 6.273v-.46q0-.478.196-.874.2-.4.58-.64.383-.242.928-.242.555 0 .93.243.375.239.566.639.192.396.192.873v.46q0 .478-.196.879a1.55 1.55 0 0 1-.571.639q-.375.238-.92.238-.555 0-.934-.238a1.6 1.6 0 0 1-.575-.64 2 2 0 0 1-.196-.877m.87-.46v.46q0 .396.187.711.187.311.647.311.448 0 .631-.31.188-.315.188-.712v-.46q0-.397-.18-.708-.178-.315-.639-.315-.447 0-.643.315a1.3 1.3 0 0 0-.192.707m-5.217-4.535v-.46q0-.477.196-.874.2-.4.58-.639.383-.243.929-.243.554 0 .929.243.375.24.566.64.192.396.192.873v.46q0 .478-.196.878a1.55 1.55 0 0 1-.57.64q-.376.238-.921.238-.554 0-.933-.239a1.6 1.6 0 0 1-.576-.639 2 2 0 0 1-.196-.878m.87-.46v.46q0 .396.187.712.188.31.648.311.447 0 .63-.311.188-.316.188-.712v-.46q0-.396-.179-.707-.179-.316-.64-.316-.446 0-.643.316a1.3 1.3 0 0 0-.191.707M48.306 97l6-8.727h.972l-6 8.727zm15.63-6.546v.853h-3.528v-.853zM61.467 97v-7.449q0-.562.263-.937.265-.375.687-.563.421-.187.89-.187.37 0 .605.06t.35.11l-.29.87a5 5 0 0 0-.213-.064 1.3 1.3 0 0 0-.35-.039q-.498 0-.72.252-.217.25-.217.737V97zm3.88 0v-6.546h.972v.99h.068q.18-.487.648-.79a1.9 1.9 0 0 1 1.057-.302q.11 0 .277.004.165.005.251.013v1.023a3 3 0 0 0-.234-.038q-.18-.03-.38-.03a1.8 1.8 0 0 0-.852.2 1.47 1.47 0 0 0-.801 1.334V97zm6.925.136q-.887 0-1.555-.421a2.87 2.87 0 0 1-1.04-1.18q-.37-.76-.371-1.774 0-1.022.37-1.785a2.86 2.86 0 0 1 1.04-1.185q.67-.422 1.556-.422t1.551.422q.67.422 1.04 1.185.375.762.375 1.785 0 1.015-.375 1.773-.37.76-1.04 1.18-.664.422-1.551.422m0-.903q.673 0 1.108-.345t.643-.908q.21-.562.21-1.219 0-.656-.21-1.223a2.06 2.06 0 0 0-.643-.916q-.436-.35-1.108-.35t-1.108.35a2.06 2.06 0 0 0-.644.916 3.5 3.5 0 0 0-.208 1.223q0 .657.208 1.22.21.561.644.907.436.345 1.108.345m4.501.767v-6.546h.972v1.023h.085q.204-.524.66-.814.457-.294 1.096-.294.646 0 1.078.294.434.29.677.814h.068q.252-.507.755-.805.502-.303 1.206-.303.878 0 1.436.55.558.546.558 1.7V97h-1.006v-4.38q0-.726-.396-1.036a1.47 1.47 0 0 0-.933-.311q-.69 0-1.07.417-.38.413-.38 1.049V97h-1.022v-4.483q0-.558-.362-.9-.363-.345-.933-.344-.393 0-.733.209-.337.208-.546.58a1.7 1.7 0 0 0-.204.847V97zm14.81-8.727V97h-1.005v-8.727zm3.769 8.88a2.7 2.7 0 0 1-1.13-.234 1.94 1.94 0 0 1-.805-.686q-.298-.452-.298-1.091 0-.562.221-.912.221-.353.593-.554.37-.2.818-.298a10 10 0 0 1 .907-.162q.597-.077.968-.115.374-.043.545-.14.175-.099.175-.342v-.034q0-.63-.345-.98-.342-.35-1.036-.35-.72 0-1.13.316t-.574.673l-.955-.34q.255-.597.682-.93.431-.336.937-.468.511-.137 1.006-.137.316 0 .724.077.414.073.797.303.388.23.644.694.255.465.255 1.245V97h-1.005v-.886h-.051a1.8 1.8 0 0 1-.341.456q-.24.243-.635.413-.396.17-.968.17m.153-.903q.597 0 1.006-.234a1.6 1.6 0 0 0 .835-1.385v-.92q-.064.075-.281.14-.213.06-.495.106a22 22 0 0 1-.963.128q-.391.052-.733.166a1.26 1.26 0 0 0-.545.337q-.205.222-.205.605 0 .525.388.793.391.264.993.264m9.318-4.33-.903.256a1.7 1.7 0 0 0-.251-.439 1.2 1.2 0 0 0-.444-.358q-.28-.14-.72-.14-.6 0-1.001.277-.396.272-.396.694 0 .375.272.593.273.216.853.362l.971.238q.877.214 1.308.652.43.435.431 1.121 0 .562-.324 1.006a2.15 2.15 0 0 1-.895.699q-.576.255-1.338.255-1.002 0-1.658-.434-.656-.435-.83-1.27l.954-.239q.137.53.515.793.384.264 1.002.264.703 0 1.116-.298.418-.303.418-.725a.76.76 0 0 0-.239-.57q-.238-.235-.733-.35l-1.091-.256q-.898-.213-1.321-.66-.417-.453-.417-1.13 0-.554.311-.98a2.1 2.1 0 0 1 .856-.669 3 3 0 0 1 1.236-.243q.972 0 1.526.427.558.425.792 1.124m4.48-1.466v.853h-3.392v-.853zm-2.403-1.568h1.005v6.239q0 .426.124.64.127.208.324.28.2.069.422.069.166 0 .273-.017l.17-.034.205.903a2 2 0 0 1-.286.077 2 2 0 0 1-.464.042q-.427 0-.836-.183a1.66 1.66 0 0 1-.673-.558q-.264-.376-.264-.946zM114.19 97v-6.546h.972v1.023h.085q.204-.524.66-.814.456-.294 1.095-.294.648 0 1.079.294.434.29.677.814h.068q.251-.507.755-.805.502-.303 1.206-.303.877 0 1.436.55.558.546.558 1.7V97h-1.006v-4.38q0-.726-.396-1.036a1.47 1.47 0 0 0-.933-.311q-.691 0-1.07.417-.38.413-.379 1.049V97h-1.023v-4.483q0-.558-.362-.9-.363-.345-.933-.344-.393 0-.733.209-.337.208-.546.58a1.7 1.7 0 0 0-.204.847V97zm13.089.136q-.887 0-1.556-.421a2.87 2.87 0 0 1-1.039-1.18q-.371-.76-.371-1.774 0-1.022.371-1.785a2.86 2.86 0 0 1 1.039-1.185q.67-.422 1.556-.422.887 0 1.551.422a2.8 2.8 0 0 1 1.04 1.185q.375.762.375 1.785 0 1.015-.375 1.773-.37.76-1.04 1.18-.665.422-1.551.422m0-.903q.673 0 1.108-.345.434-.345.643-.908a3.5 3.5 0 0 0 .209-1.219q0-.656-.209-1.223a2.06 2.06 0 0 0-.643-.916q-.435-.35-1.108-.35t-1.108.35-.644.916a3.5 3.5 0 0 0-.208 1.223q0 .657.208 1.22.21.561.644.907.435.345 1.108.345m5.507-3.17V97h-1.006v-6.546h.971v1.023h.086q.23-.499.699-.8.468-.308 1.21-.308.665 0 1.163.273.498.269.776.818.276.546.277 1.38V97h-1.006v-4.09q0-.773-.401-1.203-.4-.435-1.099-.434-.482 0-.861.209-.375.209-.592.609t-.217.972m8.86-2.609v.853h-3.392v-.853zm-2.403-1.568h1.005v6.239q0 .426.124.64.127.208.324.28.2.069.422.069.165 0 .272-.017l.171-.034.204.903a2 2 0 0 1-.285.077 2 2 0 0 1-.465.042q-.426 0-.835-.183a1.66 1.66 0 0 1-.673-.558q-.264-.376-.264-.946zm5.062 4.177V97h-1.006v-8.727h1.006v3.204h.085q.23-.507.691-.805.464-.303 1.235-.303.67 0 1.172.269.503.264.78.814.281.544.281 1.389V97h-1.005v-4.09q0-.78-.405-1.207-.4-.43-1.112-.43-.495 0-.887.209-.387.209-.613.609-.222.4-.222.972"/></g><defs><filter id="a" width="304" height="128" x="0" y="0" color-interpolation-filters="sRGB" filterUnits="userSpaceOnUse"><feFlood flood-opacity="0" result="BackgroundImageFix"/><feColorMatrix in="SourceAlpha" result="hardAlpha" values="0 0 0 0 0 0 0 0 0 0 0 0 0 0 0 0 0 0 127 0"/><feOffset dy="1"/><feGaussianBlur stdDeviation="1"/><feColorMatrix values="0 0 0 0 0 0 0 0 0 0 0 0 0 0 0 0 0 0 0.05 0"/><feBlend in2="BackgroundImageFix" result="effect1_dropShadow_15853_31033"/><feBlend in="SourceGraphic" in2="effect1_dropShadow_15853_31033" result="shape"/></filter></defs></svg>