<svg xmlns="http://www.w3.org/2000/svg" width="306" height="378" fill="none"><g filter="url(#a)"><path fill="#fff" d="M3 6.982A6.98 6.98 0 0 1 9.982 0h286.036A6.98 6.98 0 0 1 303 6.982V363.09a6.98 6.98 0 0 1-6.982 6.982H9.982A6.98 6.98 0 0 1 3 363.091z"/><path stroke="#E4E4E7" stroke-width="1.164" d="M9.981.582H296.02a6.4 6.4 0 0 1 6.399 6.4V363.09a6.4 6.4 0 0 1-6.399 6.4H9.981a6.4 6.4 0 0 1-6.399-6.4V6.981a6.4 6.4 0 0 1 6.4-6.399Z"/><mask id="b" fill="#fff"><path d="M3 0h300v47.273H3z"/></mask><path fill="#E4E4E7" d="M303 47.273v-1.164H3v2.327h300z" mask="url(#b)"/><path stroke="#71717A" stroke-linecap="round" stroke-linejoin="round" stroke-width="1.552" d="m33.255 30.618-3.336-3.336m1.784-4.421a6.206 6.206 0 1 1-12.412 0 6.206 6.206 0 0 1 12.412 0"/><path fill="#71717A" d="M45.678 19.061v-1.273h8.886v1.273h-3.726v10.575h-1.435V19.061zM56.454 32.97q-.348 0-.62-.058a1.6 1.6 0 0 1-.375-.104l.347-1.204q.498.128.88.093.381-.035.676-.341.3-.302.55-.978l.254-.694-3.286-8.933h1.481l2.453 7.081h.093l2.453-7.08h1.48L59.07 30.931a3.9 3.9 0 0 1-.63 1.14q-.378.457-.874.677-.492.22-1.111.22m8.189 0V20.75h1.319v1.412h.162q.15-.231.416-.59.272-.365.775-.648.51-.29 1.377-.29 1.123 0 1.979.562.856.561 1.336 1.59.48 1.03.48 2.43 0 1.412-.48 2.448-.48 1.029-1.33 1.596-.85.561-1.962.561-.855 0-1.37-.283-.516-.289-.793-.654a9 9 0 0 1-.428-.613h-.116v4.698zm1.342-7.776q0 1.006.295 1.776.295.765.862 1.198.567.428 1.388.428.856 0 1.43-.451.578-.457.867-1.227a4.8 4.8 0 0 0 .295-1.724q0-.936-.29-1.689-.282-.758-.861-1.197-.573-.446-1.44-.446-.834 0-1.4.422-.568.417-.857 1.17-.29.745-.29 1.74m12.31 4.628q-1.284 0-2.215-.567a3.8 3.8 0 0 1-1.429-1.596q-.498-1.03-.498-2.395 0-1.366.498-2.407.504-1.047 1.4-1.631.903-.59 2.106-.59.695 0 1.37.231.678.231 1.233.752.555.515.885 1.366.33.849.33 2.094v.578h-6.85v-1.18h5.462q0-.752-.301-1.342a2.27 2.27 0 0 0-.845-.931q-.543-.342-1.284-.342-.815 0-1.412.405a2.66 2.66 0 0 0-.908 1.041 3.06 3.06 0 0 0-.318 1.377v.787q0 1.006.347 1.707.353.693.978 1.058.624.36 1.452.359.537 0 .971-.15a2.1 2.1 0 0 0 .758-.463q.318-.313.492-.775l1.32.37q-.21.67-.7 1.18a3.4 3.4 0 0 1-1.216.787 4.5 4.5 0 0 1-1.625.277m12.954.024a3.6 3.6 0 0 1-1.533-.319 2.63 2.63 0 0 1-1.094-.931q-.405-.613-.405-1.481 0-.765.3-1.238.303-.48.805-.752a4.2 4.2 0 0 1 1.11-.405q.614-.14 1.233-.22.81-.104 1.313-.156.51-.058.74-.19.238-.135.238-.464v-.046q0-.856-.469-1.33-.463-.475-1.405-.475-.978 0-1.533.428-.555.429-.782.914l-1.295-.463q.347-.81.925-1.26.585-.459 1.273-.637a5.3 5.3 0 0 1 1.365-.185q.429 0 .984.104.56.098 1.082.41.526.313.873.944.347.63.347 1.689v5.854h-1.365v-1.203h-.07q-.138.29-.462.62-.325.329-.862.56-.539.231-1.313.232m.208-1.227q.81 0 1.365-.318a2.17 2.17 0 0 0 1.134-1.88v-1.25q-.087.105-.382.191a7 7 0 0 1-.67.145 31 31 0 0 1-1.308.173 5.2 5.2 0 0 0-.995.226q-.458.15-.74.457-.279.3-.279.822 0 .71.527 1.075.532.36 1.348.36m14.548 1.204q-1.25 0-2.152-.59a3.85 3.85 0 0 1-1.389-1.626q-.486-1.036-.486-2.366 0-1.355.498-2.39.504-1.041 1.4-1.625.903-.59 2.106-.59.938 0 1.689.347.752.346 1.232.972.48.624.596 1.458h-1.365q-.156-.608-.694-1.076-.532-.475-1.435-.475-.798 0-1.4.417-.596.41-.931 1.163-.33.745-.33 1.752 0 1.03.324 1.794.33.763.925 1.186.602.422 1.412.422.532 0 .966-.185a2 2 0 0 0 .735-.532q.3-.348.428-.833h1.365a3.16 3.16 0 0 1-1.77 2.412q-.74.364-1.724.364m9.1 0q-1.203 0-2.112-.573-.902-.573-1.411-1.603-.504-1.029-.504-2.406 0-1.389.504-2.424.509-1.035 1.411-1.609.909-.572 2.112-.572t2.106.572q.908.573 1.411 1.609.51 1.035.509 2.424 0 1.377-.509 2.406a3.84 3.84 0 0 1-1.411 1.603q-.903.573-2.106.573m0-1.227q.914 0 1.504-.469t.874-1.232q.283-.763.283-1.654 0-.892-.283-1.66a2.8 2.8 0 0 0-.874-1.244q-.59-.475-1.504-.475t-1.504.474q-.59.475-.874 1.244a4.8 4.8 0 0 0-.283 1.66q0 .892.283 1.655.283.765.874 1.232.59.47 1.504.469m6.11 1.041V20.75h1.319v1.389h.116q.277-.712.897-1.105.619-.4 1.487-.4.88 0 1.463.4.59.393.92 1.105h.093a2.6 2.6 0 0 1 1.024-1.094q.682-.41 1.637-.41 1.191 0 1.949.746.758.74.758 2.308v5.947h-1.365V23.69q0-.983-.538-1.405a2 2 0 0 0-1.267-.423q-.937 0-1.452.567-.515.561-.515 1.423v5.785h-1.388V23.55q0-.758-.492-1.22-.492-.47-1.267-.469a1.87 1.87 0 0 0-.995.284 2.14 2.14 0 0 0-.741.786 2.3 2.3 0 0 0-.277 1.152v5.553zm14.16 0V20.75h1.319v1.389h.115q.278-.712.897-1.105.619-.4 1.487-.4.88 0 1.463.4.59.393.92 1.105h.093a2.6 2.6 0 0 1 1.024-1.094q.683-.41 1.637-.41 1.191 0 1.95.746.757.74.757 2.308v5.947h-1.365V23.69q0-.983-.538-1.405a2 2 0 0 0-1.267-.423q-.937 0-1.452.567-.515.561-.515 1.423v5.785h-1.388V23.55q0-.758-.492-1.22-.492-.47-1.267-.469-.532 0-.995.284a2.14 2.14 0 0 0-.74.786 2.3 2.3 0 0 0-.278 1.152v5.553zm16.774.209a3.6 3.6 0 0 1-1.534-.319 2.64 2.64 0 0 1-1.093-.931q-.405-.613-.405-1.481 0-.765.301-1.238.3-.48.804-.752a4.2 4.2 0 0 1 1.111-.405q.613-.14 1.232-.22.81-.104 1.313-.156.51-.058.741-.19.237-.135.237-.464v-.046q0-.856-.469-1.33-.462-.475-1.405-.475-.978 0-1.533.428-.556.429-.781.914l-1.296-.463q.347-.81.925-1.26.585-.459 1.273-.637a5.3 5.3 0 0 1 1.365-.185q.429 0 .984.104.56.098 1.082.41.526.313.873.944.347.63.347 1.689v5.854h-1.365v-1.203h-.069q-.14.29-.463.62a2.7 2.7 0 0 1-.862.56q-.539.231-1.313.232m.208-1.227q.81 0 1.365-.318a2.17 2.17 0 0 0 1.134-1.88v-1.25q-.087.105-.382.191a6 6 0 0 1-.671.145 31 31 0 0 1-1.307.173 5.2 5.2 0 0 0-.995.226q-.458.15-.741.457-.278.3-.278.822 0 .71.527 1.075.532.36 1.348.36m7.721-4.327v5.345h-1.365V20.75h1.319v1.389h.116q.312-.677.949-1.088.636-.416 1.643-.416.902 0 1.579.37.677.364 1.053 1.11.376.742.376 1.875v5.646h-1.365v-5.553q0-1.047-.544-1.632-.544-.59-1.493-.59-.654 0-1.168.284a2 2 0 0 0-.804.827q-.296.543-.296 1.319m11.52 5.53q-1.11 0-1.961-.56-.85-.568-1.331-1.597-.48-1.035-.48-2.448 0-1.4.48-2.43.48-1.029 1.337-1.59.856-.561 1.978-.561.869 0 1.371.289.51.284.776.648.272.359.422.59h.116v-4.374h1.365v11.848h-1.319v-1.365h-.162a9 9 0 0 1-.428.613q-.278.365-.793.654-.514.284-1.371.284m.185-1.226q.822 0 1.389-.428.567-.435.862-1.198.294-.77.295-1.776 0-.994-.29-1.74-.288-.753-.856-1.17-.566-.422-1.4-.422-.867 0-1.446.446-.573.44-.862 1.197a4.8 4.8 0 0 0-.284 1.69q0 .949.29 1.723.294.77.868 1.227.577.45 1.434.451m14.77 1.227q-1.204 0-2.112-.573-.903-.573-1.411-1.603-.504-1.029-.504-2.406 0-1.389.504-2.424.508-1.035 1.411-1.609.908-.572 2.112-.572 1.203 0 2.105.572.908.573 1.412 1.609.509 1.035.509 2.424 0 1.377-.509 2.406-.504 1.03-1.412 1.603-.902.573-2.105.573m0-1.227q.913 0 1.504-.469.59-.468.873-1.232.284-.763.284-1.654 0-.892-.284-1.66a2.8 2.8 0 0 0-.873-1.244q-.59-.475-1.504-.475-.915 0-1.504.474-.59.475-.874 1.244a4.8 4.8 0 0 0-.284 1.66q0 .892.284 1.655.283.765.874 1.232.59.47 1.504.469m6.11 1.041V20.75h1.319v1.343h.093q.243-.66.879-1.07a2.6 2.6 0 0 1 1.435-.411q.15 0 .376.005.225.006.341.018v1.388a4 4 0 0 0-.318-.052 3 3 0 0 0-.515-.04q-.648 0-1.157.271a1.995 1.995 0 0 0-1.088 1.81v5.624zm16.938-6.895-1.227.347a2.3 2.3 0 0 0-.341-.596 1.66 1.66 0 0 0-.602-.486q-.381-.192-.978-.191-.814 0-1.359.376-.538.37-.538.943 0 .51.37.804t1.157.492l1.319.324q1.192.289 1.776.885.585.59.585 1.521 0 .765-.44 1.366-.433.6-1.215.948-.781.348-1.817.348-1.359 0-2.25-.59-.891-.591-1.128-1.725l1.296-.324q.185.718.7 1.076.52.36 1.359.36.955 0 1.516-.406.567-.41.567-.983 0-.463-.324-.776-.324-.318-.995-.474l-1.481-.347q-1.221-.29-1.793-.897-.567-.614-.567-1.533 0-.752.422-1.33a2.87 2.87 0 0 1 1.163-.909q.74-.33 1.677-.33 1.32 0 2.072.58.757.577 1.076 1.527m5.942 7.08q-1.284 0-2.215-.567a3.8 3.8 0 0 1-1.429-1.596q-.498-1.03-.498-2.395 0-1.366.498-2.407.503-1.047 1.4-1.631.902-.59 2.106-.59.693 0 1.371.231.677.231 1.232.752.555.515.885 1.366.33.849.33 2.094v.578h-6.85v-1.18h5.461q0-.752-.301-1.342a2.26 2.26 0 0 0-.844-.931q-.544-.342-1.284-.342-.816 0-1.412.405a2.67 2.67 0 0 0-.908 1.041 3.06 3.06 0 0 0-.319 1.377v.787q0 1.006.348 1.707.353.693.977 1.058.626.36 1.452.359.538 0 .972-.15a2.1 2.1 0 0 0 .758-.463 2.1 2.1 0 0 0 .492-.775l1.319.37q-.208.67-.7 1.18a3.4 3.4 0 0 1-1.215.787 4.5 4.5 0 0 1-1.626.277m8.371.024a3.6 3.6 0 0 1-1.533-.319 2.63 2.63 0 0 1-1.093-.931q-.405-.613-.405-1.481 0-.765.301-1.238.3-.48.804-.752a4.2 4.2 0 0 1 1.111-.405q.613-.14 1.232-.22.81-.104 1.313-.156.51-.058.741-.19.237-.135.237-.464v-.046q0-.856-.469-1.33-.462-.475-1.406-.475-.977 0-1.533.428-.555.429-.781.914l-1.295-.463q.347-.81.925-1.26.585-.459 1.273-.637a5.3 5.3 0 0 1 1.365-.185q.428 0 .984.104.56.098 1.081.41.527.313.874.944.347.63.347 1.689v5.854h-1.365v-1.203h-.07q-.138.29-.462.62a2.7 2.7 0 0 1-.862.56q-.538.231-1.314.232m.209-1.227q.81 0 1.365-.318a2.17 2.17 0 0 0 1.134-1.88v-1.25q-.087.105-.382.191a6 6 0 0 1-.671.145 31 31 0 0 1-1.307.173 5.2 5.2 0 0 0-.996.226q-.456.15-.74.457-.278.3-.278.822 0 .71.527 1.075.532.36 1.348.36m6.356 1.018V20.75h1.319v1.343h.093q.243-.66.879-1.07t1.435-.411q.15 0 .376.005.225.006.341.018v1.388a4 4 0 0 0-.318-.052 3 3 0 0 0-.515-.04q-.648 0-1.157.271a1.995 1.995 0 0 0-1.088 1.81v5.624zm9.401.186q-1.25 0-2.152-.59a3.85 3.85 0 0 1-1.389-1.626q-.486-1.036-.486-2.366 0-1.355.498-2.39.504-1.041 1.4-1.625.903-.59 2.106-.59.938 0 1.689.347.752.346 1.232.972.48.624.596 1.458h-1.365q-.157-.608-.694-1.076-.532-.475-1.435-.475-.798 0-1.4.417-.596.41-.931 1.163-.33.745-.33 1.752 0 1.03.324 1.794.33.763.925 1.186.602.422 1.412.422.532 0 .966-.185a2 2 0 0 0 .735-.532q.3-.348.428-.833h1.365a3.16 3.16 0 0 1-1.77 2.412q-.74.364-1.724.364m6.855-5.531v5.345h-1.365V17.788h1.365v4.35h.116q.313-.687.937-1.093.631-.41 1.678-.41.908 0 1.591.364.683.36 1.058 1.105.382.74.382 1.886v5.646h-1.365v-5.553q0-1.059-.55-1.638-.543-.584-1.51-.584a2.5 2.5 0 0 0-1.203.284 2.08 2.08 0 0 0-.833.827q-.3.543-.301 1.319m9.255 5.438q-.428 0-.735-.307a1 1 0 0 1-.306-.734q0-.428.306-.735.308-.306.735-.307.428 0 .735.307.306.307.306.735a1 1 0 0 1-.144.52 1.1 1.1 0 0 1-.376.382 1 1 0 0 1-.521.139m4.486 0a1 1 0 0 1-.734-.307 1 1 0 0 1-.307-.734 1 1 0 0 1 .307-.735 1 1 0 0 1 .734-.307q.429 0 .735.307a1 1 0 0 1 .307.735 1 1 0 0 1-.145.52 1.1 1.1 0 0 1-.376.382 1 1 0 0 1-.521.139m4.487 0q-.429 0-.735-.307a1 1 0 0 1-.307-.734q0-.428.307-.735.306-.306.735-.307a1 1 0 0 1 .734.307 1 1 0 0 1 .307.735 1 1 0 0 1-.145.52 1.1 1.1 0 0 1-.376.382 1 1 0 0 1-.52.139M23.618 65.421a1.45 1.45 0 0 0-.654-1.09q-.575-.393-1.448-.392-.625 0-1.081.198-.456.195-.71.536a1.26 1.26 0 0 0-.247.768q0 .363.168.625.174.262.451.441.283.174.605.293.323.114.62.188l.992.258q.486.12.997.323.51.203.947.535.436.333.704.823.273.492.273 1.175 0 .863-.447 1.533-.441.669-1.284 1.056-.839.387-2.028.387-1.14 0-1.973-.362-.833-.363-1.305-1.027-.47-.669-.52-1.587h1.537q.045.55.357.918.317.362.808.54.496.174 1.086.174.65 0 1.156-.203.51-.21.803-.576.292-.372.292-.867 0-.451-.258-.74a1.9 1.9 0 0 0-.689-.475 7 7 0 0 0-.977-.333l-1.2-.327q-1.22-.332-1.933-.977-.71-.645-.71-1.706.001-.877.476-1.532a3.1 3.1 0 0 1 1.29-1.016q.813-.367 1.834-.367 1.032 0 1.82.362.795.361 1.25.997.456.63.476 1.447zm8.154 4.33v-4.459h1.487v7.617h-1.458V71.59h-.08a2.4 2.4 0 0 1-.842 1.017q-.575.4-1.433.401-.735 0-1.3-.322a2.27 2.27 0 0 1-.882-.967q-.317-.64-.317-1.582v-4.844h1.482v4.666q0 .778.432 1.24.43.46 1.12.46.417 0 .828-.208.417-.209.69-.63.277-.421.273-1.07m6.673 6.173q-.908 0-1.562-.238-.65-.239-1.062-.63a2.6 2.6 0 0 1-.614-.858l1.274-.525q.134.218.357.46.228.25.615.422.392.174 1.006.174.844 0 1.394-.412.55-.406.55-1.299v-1.497h-.094a3.4 3.4 0 0 1-.387.54 2.1 2.1 0 0 1-.684.516q-.436.218-1.136.218-.901 0-1.626-.421-.72-.427-1.14-1.255-.417-.833-.417-2.048t.412-2.083q.416-.867 1.14-1.329a2.97 2.97 0 0 1 1.641-.466q.71 0 1.146.238.435.234.68.546.247.313.381.55h.11v-1.234h1.452v7.785q0 .981-.456 1.611t-1.235.933q-.773.302-1.745.302m-.015-4.359q.64 0 1.08-.297.447-.303.675-.863.233-.565.233-1.354 0-.768-.228-1.353a2 2 0 0 0-.67-.913q-.44-.332-1.09-.332-.67 0-1.116.347a2.1 2.1 0 0 0-.674.932 3.7 3.7 0 0 0-.224 1.32q0 .747.229 1.313.228.565.674.883.45.317 1.11.317m8.633 4.359q-.908 0-1.562-.238-.65-.239-1.061-.63a2.6 2.6 0 0 1-.615-.858l1.274-.525q.134.218.357.46.228.25.615.422.392.174 1.007.174.843 0 1.393-.412.55-.406.55-1.299v-1.497h-.094a3.4 3.4 0 0 1-.386.54 2.1 2.1 0 0 1-.685.516q-.436.218-1.135.218-.903 0-1.627-.421-.72-.427-1.14-1.255-.417-.833-.417-2.048t.412-2.083q.416-.867 1.14-1.329a2.97 2.97 0 0 1 1.642-.466q.708 0 1.145.238.435.234.68.546.248.313.381.55h.11v-1.234h1.452v7.785q0 .981-.456 1.611t-1.235.933q-.773.302-1.745.302m-.015-4.359q.64 0 1.08-.297.447-.303.675-.863.233-.565.233-1.354 0-.768-.228-1.353a2 2 0 0 0-.67-.913q-.44-.332-1.09-.332-.669 0-1.116.347a2.1 2.1 0 0 0-.674.932 3.7 3.7 0 0 0-.223 1.32q0 .747.228 1.313.228.565.674.883.451.317 1.11.317m8.722 1.498q-1.125 0-1.939-.481a3.26 3.26 0 0 1-1.25-1.364q-.436-.883-.436-2.068 0-1.17.437-2.062a3.4 3.4 0 0 1 1.23-1.394q.794-.5 1.854-.5.644 0 1.25.213.605.213 1.086.669.48.457.758 1.185.278.725.278 1.76v.526h-6.054v-1.11h4.601q0-.585-.238-1.037a1.8 1.8 0 0 0-.67-.719 1.87 1.87 0 0 0-1.001-.263q-.624 0-1.09.308a2.06 2.06 0 0 0-.715.793 2.3 2.3 0 0 0-.248 1.056v.868q0 .763.268 1.3.273.534.759.817.486.278 1.135.278.421 0 .769-.119a1.595 1.595 0 0 0 .987-.967l1.403.253a2.54 2.54 0 0 1-.605 1.086q-.432.46-1.086.719-.65.252-1.483.253m10.62-5.911-1.343.238a1.6 1.6 0 0 0-.268-.49 1.3 1.3 0 0 0-.486-.383q-.307-.148-.769-.148-.63 0-1.05.282-.422.277-.422.72 0 .381.282.614.283.234.913.382l1.21.278q1.05.243 1.567.748.515.507.515 1.314 0 .685-.396 1.22-.393.531-1.096.833-.7.303-1.622.303-1.28 0-2.087-.546-.81-.55-.992-1.562l1.433-.218q.135.56.55.848.417.283 1.086.283.73 0 1.166-.303.436-.307.436-.748a.78.78 0 0 0-.268-.6q-.262-.244-.808-.367l-1.29-.283q-1.065-.243-1.576-.774-.506-.53-.506-1.343 0-.675.377-1.18.377-.506 1.041-.789.664-.288 1.523-.288 1.234 0 1.943.536.709.53.938 1.423m5.335-1.86v1.19h-4.16v-1.19zm-3.045-1.824h1.483v7.205q0 .43.129.65.129.212.332.292.209.074.451.074.179 0 .313-.025.133-.025.208-.04l.268 1.226a2.5 2.5 0 0 1-.367.099 3 3 0 0 1-.595.06 2.6 2.6 0 0 1-1.091-.209 1.87 1.87 0 0 1-.819-.674q-.312-.457-.312-1.146zm4.685 9.441v-7.617h1.483v7.617zm.749-8.792a.94.94 0 0 1-.665-.258.84.84 0 0 1-.273-.624q0-.367.273-.625a.93.93 0 0 1 .665-.263q.386 0 .66.263.276.258.277.625 0 .362-.278.624a.93.93 0 0 1-.66.258m5.936 8.946q-1.071 0-1.869-.491a3.3 3.3 0 0 1-1.24-1.374q-.441-.882-.441-2.062 0-1.185.441-2.073a3.3 3.3 0 0 1 1.24-1.379q.798-.49 1.87-.49 1.07 0 1.869.49.798.492 1.24 1.379.44.887.44 2.072 0 1.18-.44 2.063a3.3 3.3 0 0 1-1.24 1.374q-.799.49-1.87.49m.005-1.245q.695 0 1.15-.367a2.15 2.15 0 0 0 .675-.977q.223-.609.223-1.344 0-.728-.223-1.338a2.2 2.2 0 0 0-.674-.987q-.457-.372-1.15-.372-.7 0-1.161.372-.456.372-.68.987a4 4 0 0 0-.218 1.338q0 .735.219 1.344.223.61.679.977.462.367 1.16.367m6.683-3.431v4.522h-1.482v-7.617h1.423v1.24h.094q.263-.605.823-.972.566-.367 1.423-.367.78 0 1.364.328.585.322.907.962t.323 1.581v4.845H90.13v-4.666q0-.828-.431-1.294-.432-.471-1.185-.471-.516 0-.918.223a1.6 1.6 0 0 0-.63.654q-.227.427-.228 1.032m12.57-1.235-1.343.238a1.6 1.6 0 0 0-.268-.49 1.3 1.3 0 0 0-.486-.383q-.307-.148-.769-.148-.63 0-1.05.282-.422.277-.422.72 0 .381.282.614.283.234.913.382l1.21.278q1.05.243 1.567.748.515.507.515 1.314 0 .685-.396 1.22-.392.531-1.096.833-.7.303-1.622.303-1.279 0-2.087-.546-.81-.55-.992-1.562l1.433-.218q.135.56.55.848.417.283 1.087.283.728 0 1.165-.303.436-.307.436-.748a.78.78 0 0 0-.268-.6q-.262-.244-.808-.367l-1.29-.283q-1.065-.243-1.576-.774-.506-.53-.506-1.343 0-.675.377-1.18.377-.506 1.041-.789.664-.288 1.523-.288 1.234 0 1.944.536.708.53.937 1.423"/><path stroke="#18181B" stroke-linecap="round" stroke-linejoin="round" stroke-width="1.548" d="M29.376 96.115v3.103m-6.206-3.103v3.103m-3.88 3.103h13.965m-3.104 3.103h-4.654m1.552 3.103h-4.655m0-3.103h.008m7.75 3.103h.007m-9.317-10.86h10.861c.857 0 1.552.694 1.552 1.551v10.861c0 .857-.695 1.551-1.552 1.551h-10.86a1.55 1.55 0 0 1-1.552-1.551v-10.86c0-.858.694-1.552 1.551-1.552"/><path fill="#09090B" d="M55.86 101.727h-1.435a2.98 2.98 0 0 0-1.21-1.874 3.2 3.2 0 0 0-.989-.486 4 4 0 0 0-1.133-.162q-1.077 0-1.95.544-.868.543-1.383 1.602-.51 1.059-.509 2.598 0 1.538.51 2.597.513 1.059 1.382 1.603a3.6 3.6 0 0 0 1.95.544 4 4 0 0 0 1.133-.162q.544-.163.99-.481.45-.324.763-.792a3 3 0 0 0 .446-1.088h1.435a4.8 4.8 0 0 1-.59 1.626 4.43 4.43 0 0 1-2.494 1.978 5.3 5.3 0 0 1-1.684.261q-1.516 0-2.695-.741-1.18-.74-1.857-2.106-.678-1.365-.677-3.239 0-1.875.677-3.24.676-1.365 1.857-2.106 1.18-.74 2.696-.74.896 0 1.683.26a4.6 4.6 0 0 1 1.429.764q.636.496 1.064 1.215.43.711.59 1.625m4.748 8.354a3.6 3.6 0 0 1-1.533-.318 2.63 2.63 0 0 1-1.094-.932q-.405-.612-.405-1.481 0-.763.301-1.238.3-.48.804-.752a4.3 4.3 0 0 1 1.11-.405q.614-.138 1.233-.22.81-.104 1.313-.156.51-.057.74-.191.238-.133.238-.462v-.047q0-.856-.469-1.33-.462-.475-1.405-.475-.978 0-1.533.428-.555.43-.781.914l-1.296-.462q.347-.81.925-1.261.585-.457 1.273-.637a5.3 5.3 0 0 1 1.365-.185q.429 0 .984.104.561.099 1.082.411.526.312.873.943.347.63.347 1.689v5.855h-1.365v-1.204h-.07q-.138.29-.462.619-.324.33-.862.562-.539.231-1.313.231m.208-1.227q.81 0 1.365-.318a2.17 2.17 0 0 0 1.134-1.88v-1.249q-.087.104-.382.19a6 6 0 0 1-.67.145 29 29 0 0 1-1.308.174 5.2 5.2 0 0 0-.995.225 1.7 1.7 0 0 0-.74.457q-.279.301-.279.822 0 .711.527 1.076.532.358 1.348.358m7.722-10.83v11.849h-1.366V98.025zm6.226 12.034q-1.284 0-2.216-.567a3.8 3.8 0 0 1-1.429-1.597q-.498-1.03-.497-2.395 0-1.365.497-2.406.504-1.048 1.4-1.632.903-.59 2.106-.59.695 0 1.371.231.677.232 1.232.752.556.516.885 1.366.33.85.33 2.094v.579h-6.85v-1.181h5.462q0-.751-.301-1.342a2.27 2.27 0 0 0-.845-.931q-.543-.342-1.284-.342-.815 0-1.412.405a2.7 2.7 0 0 0-.908 1.042 3.06 3.06 0 0 0-.318 1.377v.786q0 1.007.347 1.707.353.694.978 1.059.624.358 1.452.358.538 0 .972-.15.439-.156.758-.463.318-.312.491-.775l1.32.37a2.9 2.9 0 0 1-.7 1.18 3.4 3.4 0 0 1-1.216.787 4.5 4.5 0 0 1-1.625.278m7.121-5.531v5.346H80.52v-8.886h1.319v1.388h.116q.312-.677.948-1.087.637-.417 1.643-.417.903 0 1.58.37.677.364 1.053 1.111.376.74.376 1.874v5.647h-1.366v-5.554q0-1.047-.543-1.631-.544-.591-1.493-.591-.654 0-1.169.284-.508.284-.804.827-.294.544-.295 1.319m11.52 5.531q-1.11 0-1.961-.561-.85-.568-1.33-1.597-.48-1.035-.481-2.447 0-1.4.48-2.43t1.337-1.591q.855-.561 1.978-.561.868 0 1.371.289.51.284.775.648.272.359.423.59h.115v-4.373h1.366v11.848h-1.32v-1.366h-.161q-.15.243-.428.614-.279.364-.793.653-.515.284-1.371.284m.185-1.227q.821 0 1.388-.428.567-.434.863-1.197.294-.77.294-1.776 0-.996-.289-1.742-.29-.752-.856-1.168-.567-.423-1.4-.423-.868 0-1.446.446-.573.44-.862 1.197a4.8 4.8 0 0 0-.284 1.69 4.9 4.9 0 0 0 .29 1.724q.295.769.867 1.226.579.451 1.435.451m9.193 1.25a3.6 3.6 0 0 1-1.533-.318 2.63 2.63 0 0 1-1.094-.932q-.405-.612-.405-1.481 0-.763.301-1.238.301-.48.804-.752a4.3 4.3 0 0 1 1.111-.405q.613-.138 1.232-.22.81-.104 1.313-.156.51-.057.741-.191.237-.133.237-.462v-.047q0-.856-.469-1.33-.463-.475-1.405-.475-.978 0-1.533.428-.556.43-.781.914l-1.296-.462q.347-.81.925-1.261.585-.457 1.273-.637a5.3 5.3 0 0 1 1.365-.185q.429 0 .984.104.561.099 1.082.411.527.312.873.943.347.63.347 1.689v5.855h-1.365v-1.204h-.069q-.14.29-.463.619-.324.33-.862.562-.539.231-1.313.231m.208-1.227q.81 0 1.365-.318a2.17 2.17 0 0 0 .845-.821q.29-.504.289-1.059v-1.249q-.087.104-.382.19a6 6 0 0 1-.671.145 29 29 0 0 1-1.307.174 5 5 0 0 0-.995.225 1.7 1.7 0 0 0-.741.457q-.278.301-.278.822 0 .711.527 1.076.532.358 1.348.358m6.356 1.019v-8.886h1.319v1.342h.093a2.13 2.13 0 0 1 .879-1.07 2.6 2.6 0 0 1 1.435-.411q.15 0 .376.006.225.006.341.017v1.388a5 5 0 0 0-.318-.052 3 3 0 0 0-.515-.04q-.647 0-1.157.272a2.05 2.05 0 0 0-.798.74 2 2 0 0 0-.289 1.071v5.623z"/><path stroke="#18181B" stroke-linecap="round" stroke-linejoin="round" stroke-width="1.548" d="M23.17 143.388s1.163 1.551 3.103 1.551 3.103-1.551 3.103-1.551m-5.43-3.879h.007m4.647 0h.008m5.422 2.327a7.758 7.758 0 1 1-15.515 0 7.758 7.758 0 0 1 15.515 0"/><path fill="#09090B" d="M52.805 138.95a1.82 1.82 0 0 0-.845-1.365q-.74-.486-1.816-.486-.787 0-1.377.255-.585.254-.914.7a1.68 1.68 0 0 0-.324 1.012q0 .474.225.816.233.335.59.561.36.22.753.364.393.14.723.226l1.203.324q.463.121 1.03.336a4.7 4.7 0 0 1 1.093.584q.526.364.868.937.341.572.341 1.406 0 .96-.503 1.735-.498.775-1.458 1.233-.954.457-2.32.457-1.272 0-2.204-.411-.925-.411-1.458-1.146a3.26 3.26 0 0 1-.596-1.706h1.481q.059.67.452 1.111.399.434 1.006.647.614.209 1.32.209a3.9 3.9 0 0 0 1.474-.266q.655-.272 1.036-.752.382-.486.382-1.134 0-.59-.33-.961a2.4 2.4 0 0 0-.868-.601 9 9 0 0 0-1.162-.405l-1.458-.417q-1.389-.399-2.199-1.14t-.81-1.938q0-.994.538-1.735a3.57 3.57 0 0 1 1.458-1.157q.92-.417 2.054-.417 1.146 0 2.036.411.891.405 1.412 1.111.526.706.555 1.602zm7.45 9.071q-1.285 0-2.216-.567a3.8 3.8 0 0 1-1.429-1.596q-.498-1.03-.497-2.395 0-1.365.497-2.407.504-1.047 1.4-1.631.903-.59 2.106-.59.695 0 1.37.231.678.231 1.233.752.556.514.885 1.365.33.85.33 2.095v.578h-6.85v-1.18h5.462q0-.752-.301-1.342a2.27 2.27 0 0 0-.845-.932q-.543-.34-1.284-.341-.816 0-1.412.405a2.66 2.66 0 0 0-.908 1.041 3.06 3.06 0 0 0-.318 1.377v.787q0 1.007.347 1.707.353.693.978 1.058.624.359 1.452.359.537 0 .972-.15a2.1 2.1 0 0 0 .758-.463q.318-.313.491-.775l1.32.37a2.9 2.9 0 0 1-.7 1.18 3.4 3.4 0 0 1-1.216.787 4.5 4.5 0 0 1-1.625.277m8.37.024a3.6 3.6 0 0 1-1.532-.319 2.63 2.63 0 0 1-1.094-.931q-.405-.613-.405-1.481 0-.764.301-1.238.3-.48.804-.752a4.3 4.3 0 0 1 1.111-.405q.614-.14 1.232-.22.81-.103 1.314-.156.509-.058.74-.191.237-.133.237-.463v-.046q0-.856-.468-1.331-.463-.474-1.406-.474-.978 0-1.533.428t-.781.914l-1.296-.463q.347-.81.925-1.261.585-.457 1.273-.636a5.3 5.3 0 0 1 1.366-.185q.428 0 .983.104.561.097 1.082.411.526.312.873.943.347.63.347 1.689v5.854h-1.365v-1.203h-.07a2.4 2.4 0 0 1-.462.619q-.324.33-.862.561t-1.313.232m.21-1.227q.809 0 1.364-.318.561-.318.845-.822a2.1 2.1 0 0 0 .29-1.058v-1.25q-.088.104-.383.191a7 7 0 0 1-.67.145q-.377.057-.735.104-.354.04-.573.069a5.3 5.3 0 0 0-.995.226q-.458.15-.74.457-.279.3-.278.821 0 .712.526 1.076.532.36 1.348.359m6.356 1.018v-8.886h1.319v1.343h.092q.243-.66.88-1.071.636-.41 1.434-.41.15 0 .376.005.225.006.341.018v1.388a4 4 0 0 0-.318-.052 3 3 0 0 0-.515-.04q-.648 0-1.157.271a2.06 2.06 0 0 0-.798.741q-.29.468-.29 1.07v5.623zm9.4.185q-1.25 0-2.152-.59a3.84 3.84 0 0 1-1.388-1.625q-.486-1.036-.486-2.366 0-1.354.497-2.39.504-1.041 1.4-1.625.903-.59 2.106-.59.937 0 1.69.347.751.346 1.232.972.48.624.596 1.458H86.72q-.156-.607-.694-1.077-.532-.474-1.435-.474-.798 0-1.4.417-.595.41-.931 1.162-.33.747-.33 1.753 0 1.03.324 1.794.33.763.926 1.186.6.422 1.411.422.533 0 .966-.185.435-.186.735-.532t.428-.833h1.365a3.16 3.16 0 0 1-.572 1.417q-.451.624-1.198.995-.74.364-1.724.364m6.856-5.53v5.345H90.08v-11.848h1.366v4.351h.115q.313-.689.938-1.094.63-.41 1.677-.41.909 0 1.591.364.683.359 1.059 1.105.382.74.382 1.886v5.646h-1.366v-5.553q0-1.059-.55-1.638-.543-.584-1.51-.584a2.5 2.5 0 0 0-1.203.284q-.525.283-.832.827-.301.543-.301 1.319m13.026 5.345v-11.848h7.151v1.273h-5.716v4.003h5.345v1.273h-5.345v4.027h5.808v1.272zm9.552 0v-8.886h1.319v1.389h.115q.278-.712.897-1.105.619-.399 1.487-.399.88 0 1.463.399.59.393.92 1.105h.093a2.6 2.6 0 0 1 1.024-1.094q.683-.41 1.637-.41 1.191 0 1.95.746.757.74.757 2.308v5.947h-1.365v-5.947q0-.983-.538-1.406a2 2 0 0 0-1.267-.422q-.937 0-1.452.567-.515.561-.515 1.423v5.785h-1.388v-6.086q0-.758-.492-1.22-.492-.47-1.267-.469-.532 0-.995.284a2.13 2.13 0 0 0-.74.786 2.3 2.3 0 0 0-.278 1.152v5.553zm17.769.185q-1.204 0-2.112-.572-.903-.573-1.412-1.603-.503-1.029-.503-2.406 0-1.389.503-2.424.51-1.036 1.412-1.609.907-.572 2.112-.572 1.203 0 2.105.572.908.573 1.412 1.609.509 1.035.509 2.424 0 1.377-.509 2.406-.504 1.03-1.412 1.603-.902.572-2.105.572m0-1.226q.913 0 1.504-.469.59-.468.873-1.232.284-.763.284-1.654a4.8 4.8 0 0 0-.284-1.661 2.8 2.8 0 0 0-.873-1.244q-.59-.474-1.504-.474t-1.505.474a2.8 2.8 0 0 0-.873 1.244 4.8 4.8 0 0 0-.284 1.661q0 .89.284 1.654t.873 1.232q.59.47 1.505.469m6.11-7.845h1.365v9.534q0 .822-.283 1.423a2.04 2.04 0 0 1-.845.932q-.56.33-1.417.33h-.278v-1.273h.255q.624 0 .914-.37.29-.365.289-1.042zm.671-1.481a.97.97 0 0 1-.688-.272.87.87 0 0 1-.284-.653q0-.382.284-.654a.97.97 0 0 1 .688-.272q.4 0 .683.272a.86.86 0 0 1 .289.654.86.86 0 0 1-.289.653.95.95 0 0 1-.683.272m3.195 10.367v-8.886h1.365v8.886zm.694-10.367a.97.97 0 0 1-.688-.272.87.87 0 0 1-.284-.653q0-.382.284-.654a.97.97 0 0 1 .688-.272q.4 0 .683.272a.86.86 0 0 1 .289.654.86.86 0 0 1-.289.653.95.95 0 0 1-.683.272"/><path stroke="#18181B" stroke-linecap="round" stroke-linejoin="round" stroke-width="1.548" d="m26.273 182.127-2.328-2.327m2.328 2.327a17.4 17.4 0 0 0 3.103-1.551m-3.103 1.551v3.879s2.35-.427 3.103-1.551c.837-1.257 0-3.879 0-3.879m-5.43-.776a17 17 0 0 1 1.55-3.064 10 10 0 0 1 8.534-4.694c0 2.11-.605 5.819-4.654 8.534m-5.43-.776h-3.88s.427-2.351 1.552-3.103c1.257-.838 3.879 0 3.879 0m-5.042 6.594c-1.164.977-1.552 3.879-1.552 3.879s2.901-.388 3.879-1.552c.55-.651.543-1.652-.07-2.257a1.69 1.69 0 0 0-2.258-.07"/><path fill="#09090B" d="M46.326 185.8v-11.848h1.434v10.575h5.508v1.273zm11.593.208a3.6 3.6 0 0 1-1.533-.318 2.63 2.63 0 0 1-1.094-.931q-.404-.614-.404-1.481 0-.764.3-1.238.3-.48.804-.752a4.2 4.2 0 0 1 1.111-.405q.614-.14 1.233-.22.81-.105 1.313-.156.51-.059.74-.191.237-.133.237-.463v-.046q0-.857-.468-1.331-.463-.474-1.406-.474-.978 0-1.533.428t-.781.914l-1.296-.463q.347-.81.926-1.261.585-.457 1.273-.637a5.3 5.3 0 0 1 1.365-.185q.428 0 .983.104.561.099 1.082.411.526.313.874.943.347.631.347 1.689v5.855h-1.366v-1.203h-.069a2.4 2.4 0 0 1-.463.619q-.324.33-.862.561-.537.231-1.313.231m.208-1.226q.81 0 1.365-.318.562-.318.845-.822a2.1 2.1 0 0 0 .29-1.059v-1.249q-.087.104-.382.191a6 6 0 0 1-.671.144 29 29 0 0 1-1.308.174 5 5 0 0 0-.995.226q-.458.15-.74.457-.278.3-.278.821 0 .711.526 1.076.532.359 1.348.359m11.957-2.615v-5.253h1.365v8.886h-1.365v-1.504h-.093a2.9 2.9 0 0 1-.972 1.151q-.66.469-1.666.469-.833 0-1.48-.365-.649-.37-1.02-1.111-.37-.746-.37-1.88v-5.646h1.366v5.554q0 .971.544 1.55.55.579 1.4.579.51 0 1.035-.261a2.25 2.25 0 0 0 .891-.798q.365-.538.365-1.371m5.23-1.712v5.345H73.95v-8.886h1.319v1.388h.115q.313-.676.949-1.087.636-.417 1.643-.417.903 0 1.58.371.676.364 1.052 1.11.376.741.376 1.875v5.646H79.62v-5.554q0-1.047-.544-1.631-.543-.59-1.492-.59-.654 0-1.169.283-.51.284-.804.828-.295.543-.295 1.319m11.775 5.53q-1.25 0-2.152-.59a3.84 3.84 0 0 1-1.388-1.626q-.487-1.035-.486-2.366 0-1.353.497-2.389.504-1.041 1.4-1.626.903-.59 2.106-.59a4 4 0 0 1 1.69.347q.75.348 1.231.972.481.626.596 1.458h-1.365q-.156-.607-.694-1.076-.532-.474-1.435-.474-.798 0-1.4.416-.596.411-.931 1.163-.33.747-.33 1.753 0 1.03.324 1.793.33.764.925 1.186.602.423 1.412.423.532 0 .966-.185t.735-.533q.3-.347.428-.833h1.365a3.17 3.17 0 0 1-.573 1.418q-.45.624-1.197.995-.74.364-1.724.364m6.855-5.53v5.345H92.58v-11.848h1.365v4.35h.116q.312-.688.937-1.093.63-.411 1.678-.411.909 0 1.59.365.684.358 1.06 1.105.381.74.381 1.886v5.646h-1.365v-5.554q0-1.058-.55-1.637-.543-.584-1.51-.584-.67 0-1.203.283a2.07 2.07 0 0 0-.833.828q-.3.543-.3 1.319"/><path fill="#fff" d="M3.291 208.382h299.418v.582H3.291z"/><path stroke="#E4E4E7" stroke-width=".582" d="M3.291 208.382h299.418v.582H3.291z"/><path fill="#71717A" d="M23.618 232.058a1.45 1.45 0 0 0-.654-1.091q-.575-.392-1.448-.392-.625 0-1.081.199-.456.192-.71.535a1.26 1.26 0 0 0-.247.769q0 .362.168.624.174.264.451.442.283.174.605.292.323.114.62.189l.992.258q.486.118.997.322.51.203.947.536.436.331.704.823.273.49.273 1.175 0 .863-.447 1.532-.441.669-1.284 1.056-.839.387-2.028.387-1.14 0-1.973-.362t-1.305-1.026q-.47-.67-.52-1.587h1.537q.045.55.357.917.317.363.808.541.496.173 1.086.173.65 0 1.156-.203.51-.209.803-.575.292-.372.292-.868 0-.451-.258-.739a1.9 1.9 0 0 0-.689-.476 7 7 0 0 0-.977-.332l-1.2-.327q-1.22-.333-1.933-.977-.71-.645-.71-1.706.001-.878.476-1.532.477-.655 1.29-1.017.813-.366 1.834-.367 1.032 0 1.82.362.795.363 1.25.997.456.63.476 1.448zm6.611 7.641q-1.125 0-1.938-.481a3.26 3.26 0 0 1-1.25-1.363q-.436-.883-.436-2.068 0-1.17.436-2.063a3.4 3.4 0 0 1 1.23-1.393q.794-.501 1.854-.501.645 0 1.25.213.604.213 1.086.669.48.457.758 1.186.278.723.278 1.76v.525h-6.055v-1.11h4.602q0-.585-.238-1.037a1.8 1.8 0 0 0-.67-.719 1.87 1.87 0 0 0-1-.262q-.625 0-1.092.307a2.07 2.07 0 0 0-.714.793 2.3 2.3 0 0 0-.248 1.057v.867q0 .764.268 1.3.273.535.759.818.486.277 1.135.277.421 0 .769-.119.347-.124.6-.367.252-.243.387-.6l1.403.253a2.53 2.53 0 0 1-.605 1.086q-.432.462-1.086.719-.65.253-1.483.253m8.468-7.77v1.19h-4.16v-1.19zm-3.044-1.825h1.483v7.205q0 .431.128.65a.67.67 0 0 0 .333.292q.209.075.45.075.18 0 .313-.025l.209-.04.267 1.225a2.5 2.5 0 0 1-.367.099 3 3 0 0 1-.595.06 2.6 2.6 0 0 1-1.09-.209 1.87 1.87 0 0 1-.819-.674q-.312-.456-.312-1.145zm8.24 1.825v1.19h-4.16v-1.19zm-3.045-1.825h1.483v7.205q0 .431.129.65a.67.67 0 0 0 .332.292q.209.075.451.075.18 0 .313-.025l.208-.04.268 1.225a2.5 2.5 0 0 1-.367.099 3 3 0 0 1-.595.06 2.6 2.6 0 0 1-1.091-.209 1.87 1.87 0 0 1-.818-.674q-.313-.456-.313-1.145zm4.685 9.441v-7.616h1.483v7.616zm.749-8.791a.94.94 0 0 1-.665-.258.84.84 0 0 1-.272-.625q0-.367.272-.625a.93.93 0 0 1 .665-.263q.387 0 .66.263.276.258.277.625 0 .362-.278.625a.93.93 0 0 1-.66.258m4.211 4.269v4.522H49.01v-7.616h1.424v1.24h.094a2.17 2.17 0 0 1 .823-.972q.565-.367 1.423-.367.779 0 1.364.327.585.323.907.962.322.64.322 1.582v4.844h-1.482v-4.666q0-.828-.432-1.294-.43-.471-1.185-.471-.516 0-.917.223a1.6 1.6 0 0 0-.63.655q-.228.426-.228 1.031m10.056 7.537q-.908 0-1.562-.238-.65-.237-1.061-.629a2.7 2.7 0 0 1-.615-.858l1.275-.526q.134.219.357.461.228.249.614.422.392.173 1.007.173.843 0 1.393-.411.55-.406.55-1.299v-1.498h-.093q-.135.243-.387.541-.248.297-.684.515t-1.136.218q-.903 0-1.626-.421-.72-.427-1.14-1.255-.418-.833-.418-2.048 0-1.214.412-2.082.417-.869 1.14-1.329a2.96 2.96 0 0 1 1.642-.466q.71 0 1.145.238.437.233.68.545.248.313.381.551h.11v-1.235h1.453v7.785q0 .982-.457 1.612-.456.629-1.234.932-.774.302-1.746.302m-.015-4.358q.64 0 1.081-.298.447-.303.675-.863.233-.565.233-1.353 0-.77-.228-1.354a2 2 0 0 0-.67-.912q-.441-.333-1.09-.333-.67 0-1.116.347a2.1 2.1 0 0 0-.675.933 3.7 3.7 0 0 0-.223 1.319q0 .749.228 1.314t.674.882q.452.318 1.111.318m11.147-4.414-1.343.238a1.6 1.6 0 0 0-.268-.49 1.3 1.3 0 0 0-.486-.382q-.307-.149-.769-.149-.63 0-1.051.283-.421.277-.421.719a.76.76 0 0 0 .282.615q.283.233.913.381l1.21.278q1.05.243 1.566.749t.516 1.314q0 .684-.397 1.22-.39.53-1.095.833-.7.302-1.622.302-1.28 0-2.087-.545-.81-.55-.992-1.562l1.433-.218q.135.56.55.848.417.282 1.086.282.73 0 1.165-.302.437-.308.437-.749a.78.78 0 0 0-.268-.6q-.263-.243-.808-.367l-1.29-.283q-1.065-.243-1.576-.773-.506-.531-.506-1.344 0-.675.377-1.18t1.041-.789q.664-.287 1.522-.287 1.236 0 1.944.535.71.53.937 1.423"/><path stroke="#18181B" stroke-linecap="round" stroke-linejoin="round" stroke-width="1.548" d="M26.273 271.285a3.88 3.88 0 1 0 0-7.758 3.88 3.88 0 0 0 0 7.758m0 0a6.206 6.206 0 0 1 6.206 6.206m-6.206-6.206a6.206 6.206 0 0 0-6.206 6.206"/><path fill="#09090B" d="M46.326 276.509v-11.848h4.003q1.395 0 2.28.503.89.498 1.318 1.348t.428 1.898-.428 1.903q-.422.856-1.307 1.366-.885.503-2.268.503h-2.87v-1.273h2.824q.954 0 1.533-.33.578-.329.839-.891.266-.567.266-1.278t-.266-1.273a1.9 1.9 0 0 0-.845-.879q-.584-.324-1.55-.324H47.76v10.575zm10.155 0v-8.886h1.32v1.342h.092q.243-.659.88-1.07a2.6 2.6 0 0 1 1.434-.411q.15 0 .376.006.225.006.341.017v1.389a4 4 0 0 0-.318-.052 3 3 0 0 0-.515-.041 2.4 2.4 0 0 0-1.157.272 2.05 2.05 0 0 0-.798.741q-.29.468-.29 1.07v5.623zm9.401.185q-1.203 0-2.111-.573-.903-.572-1.412-1.602-.503-1.03-.503-2.407 0-1.387.503-2.424.51-1.035 1.412-1.608.908-.573 2.111-.573t2.106.573q.908.573 1.412 1.608.509 1.037.509 2.424 0 1.377-.51 2.407-.502 1.03-1.411 1.602-.903.573-2.106.573m0-1.226q.914 0 1.504-.469a2.76 2.76 0 0 0 .874-1.232 4.7 4.7 0 0 0 .283-1.655q0-.89-.283-1.66a2.8 2.8 0 0 0-.874-1.244q-.59-.474-1.504-.474t-1.504.474a2.8 2.8 0 0 0-.873 1.244 4.8 4.8 0 0 0-.284 1.66q0 .891.284 1.655.283.764.873 1.232.59.47 1.504.469m10.068-7.845v1.157h-4.79v-1.157zm-3.356 8.886v-10.112q0-.764.36-1.273.358-.509.93-.764a2.96 2.96 0 0 1 1.21-.254q.503 0 .821.081t.474.15l-.393 1.18a6 6 0 0 0-.29-.086 1.7 1.7 0 0 0-.474-.052q-.676 0-.977.341-.295.34-.295 1.001v9.788zm5.27 0v-8.886h1.364v8.886zm.693-10.367a.97.97 0 0 1-.688-.272.87.87 0 0 1-.284-.653q0-.382.284-.654a.97.97 0 0 1 .688-.272q.4 0 .683.272.29.272.29.654a.86.86 0 0 1-.29.653.95.95 0 0 1-.683.272m4.537-1.481v11.848H81.73v-11.848zm6.227 12.033q-1.285 0-2.216-.567a3.8 3.8 0 0 1-1.429-1.596q-.498-1.03-.498-2.395 0-1.366.498-2.407.503-1.047 1.4-1.631.903-.591 2.106-.591.695 0 1.37.232.678.231 1.233.752.555.514.885 1.365.33.85.33 2.094v.579h-6.85v-1.18h5.462q0-.753-.301-1.342a2.27 2.27 0 0 0-.845-.932q-.543-.34-1.284-.341-.815 0-1.412.405a2.66 2.66 0 0 0-.908 1.041 3.06 3.06 0 0 0-.318 1.377v.787q0 1.007.347 1.706.353.695.978 1.059.624.359 1.452.359.537 0 .972-.151.44-.156.757-.462.319-.313.492-.776l1.32.371a2.9 2.9 0 0 1-.7 1.18 3.4 3.4 0 0 1-1.216.787 4.5 4.5 0 0 1-1.625.277"/><path fill="#71717A" d="M269.85 275.237q-.606 0-1.111-.297a2.3 2.3 0 0 1-.803-.804 2.14 2.14 0 0 1-.298-1.11q0-.61.298-1.111a2.26 2.26 0 0 1 .803-.808 2.1 2.1 0 0 1 1.111-.303h1.091v-1.755h-1.091q-.606 0-1.111-.298a2.23 2.23 0 0 1-.803-.798 2.15 2.15 0 0 1-.298-1.116q0-.61.298-1.111.297-.5.803-.798a2.1 2.1 0 0 1 1.111-.302q.609 0 1.11.302.506.298.804.798.302.501.302 1.111v1.081h1.76v-1.081q0-.61.298-1.111.297-.5.798-.798a2.13 2.13 0 0 1 1.116-.302q.61 0 1.111.302.501.298.798.798.298.501.298 1.111t-.298 1.116q-.297.501-.798.798a2.13 2.13 0 0 1-1.111.298h-1.086v1.755h1.086q.61 0 1.111.303.501.302.798.808.298.5.298 1.111 0 .605-.298 1.11a2.3 2.3 0 0 1-.798.804 2.14 2.14 0 0 1-1.111.297q-.61 0-1.116-.297-.501-.303-.798-.804a2.15 2.15 0 0 1-.298-1.11v-1.091h-1.76v1.091q0 .605-.302 1.11a2.3 2.3 0 0 1-.804.804 2.14 2.14 0 0 1-1.11.297m0-1.13q.302 0 .545-.144.248-.144.397-.392a1.04 1.04 0 0 0 .149-.545v-1.091h-1.091a1.113 1.113 0 0 0-.943.54 1.1 1.1 0 0 0-.143.551q0 .297.143.545.15.248.397.392t.546.144m0-6.189h1.091v-1.081q0-.302-.149-.545a1.097 1.097 0 0 0-1.885 0 1.06 1.06 0 0 0-.143.545q0 .303.143.551.15.243.397.386t.546.144m5.102 0h1.086q.303 0 .545-.144a1.08 1.08 0 0 0 .536-.937q0-.302-.149-.545a1.07 1.07 0 0 0-.387-.392 1.04 1.04 0 0 0-.545-.144 1.073 1.073 0 0 0-1.086 1.081zm1.086 6.189q.303 0 .545-.144t.387-.392a1.04 1.04 0 0 0 .149-.545q0-.303-.149-.551a1.08 1.08 0 0 0-.932-.54h-1.086v1.091a1.07 1.07 0 0 0 .536.937q.247.144.55.144m-3.972-3.303h1.76v-1.755h-1.76zm8.9 4.205v-10.155h3.62q1.185 0 1.963.431a2.8 2.8 0 0 1 1.165 1.18q.387.744.387 1.676 0 .938-.391 1.686-.387.745-1.171 1.18-.779.432-1.958.432h-2.49v-1.299h2.351q.749 0 1.215-.258.465-.262.684-.714.218-.451.218-1.027a2.3 2.3 0 0 0-.218-1.021 1.56 1.56 0 0 0-.689-.699q-.466-.253-1.23-.253h-1.924v8.841z"/><path stroke="#18181B" stroke-linecap="round" stroke-linejoin="round" stroke-width="1.548" d="m34.03 304.594-6.958 4.422a1.51 1.51 0 0 1-1.598 0l-6.959-4.422m1.552-2.327h12.412c.857 0 1.551.694 1.551 1.551v9.309c0 .857-.694 1.552-1.551 1.552H20.067a1.55 1.55 0 0 1-1.552-1.552v-9.309c0-.857.695-1.551 1.552-1.551"/><path fill="#09090B" d="M46.326 302.625h1.712l4.026 9.835h.14l4.026-9.835h1.712v11.848H56.6v-9.002h-.116l-3.702 9.002h-1.296l-3.703-9.002h-.115v9.002h-1.342zm16.923 12.056a3.6 3.6 0 0 1-1.534-.318 2.63 2.63 0 0 1-1.093-.932q-.405-.612-.405-1.481 0-.763.3-1.238.302-.48.805-.752a4.3 4.3 0 0 1 1.11-.405q.614-.138 1.233-.219.81-.105 1.313-.157.51-.057.74-.191.238-.132.238-.462v-.047q0-.855-.469-1.33-.463-.475-1.405-.475-.978 0-1.533.429-.555.428-.782.914l-1.295-.463q.347-.81.925-1.261.585-.457 1.273-.637a5.3 5.3 0 0 1 1.365-.185q.429 0 .984.104.56.099 1.082.411.526.313.873.943t.347 1.689v5.855h-1.365v-1.204h-.07q-.138.29-.462.619-.325.33-.862.562-.539.231-1.313.231m.208-1.226q.81 0 1.365-.319a2.17 2.17 0 0 0 1.134-1.88v-1.249q-.087.104-.382.191a6 6 0 0 1-.67.144 29 29 0 0 1-1.308.174 5.2 5.2 0 0 0-.995.225 1.7 1.7 0 0 0-.74.457q-.279.302-.279.822 0 .711.527 1.076.532.359 1.348.359m6.356 1.018v-8.886h1.365v8.886zm.694-10.367a.97.97 0 0 1-.688-.272.87.87 0 0 1-.284-.654q0-.381.284-.654a.97.97 0 0 1 .688-.271.95.95 0 0 1 .683.271q.29.273.29.654a.87.87 0 0 1-.29.654.95.95 0 0 1-.683.272m4.537-1.481v11.848H73.68v-11.848z"/><path fill="#71717A" d="M269.85 313.201q-.606 0-1.111-.298a2.3 2.3 0 0 1-.803-.803 2.14 2.14 0 0 1-.298-1.111q0-.61.298-1.11.297-.506.803-.809a2.13 2.13 0 0 1 1.111-.302h1.091v-1.756h-1.091q-.606 0-1.111-.297a2.24 2.24 0 0 1-.803-.798 2.16 2.16 0 0 1-.298-1.116q0-.61.298-1.111.297-.501.803-.798a2.1 2.1 0 0 1 1.111-.303q.609 0 1.11.303.506.297.804.798.302.5.302 1.111v1.081h1.76v-1.081q0-.61.298-1.111.297-.501.798-.798a2.13 2.13 0 0 1 1.116-.303q.61 0 1.111.303.501.297.798.798.298.5.298 1.111 0 .609-.298 1.116-.297.5-.798.798a2.14 2.14 0 0 1-1.111.297h-1.086v1.756h1.086q.61 0 1.111.302.501.303.798.809.298.5.298 1.11 0 .606-.298 1.111a2.3 2.3 0 0 1-.798.803 2.13 2.13 0 0 1-1.111.298q-.61 0-1.116-.298a2.3 2.3 0 0 1-.798-.803 2.15 2.15 0 0 1-.298-1.111v-1.091h-1.76v1.091q0 .606-.302 1.111a2.3 2.3 0 0 1-.804.803 2.13 2.13 0 0 1-1.11.298m0-1.131q.302 0 .545-.144.248-.143.397-.391t.149-.546v-1.091h-1.091q-.298 0-.546.149a1.1 1.1 0 0 0-.397.392 1.1 1.1 0 0 0-.143.55q0 .298.143.546.15.248.397.391t.546.144m0-6.188h1.091v-1.081q0-.303-.149-.546a1.1 1.1 0 0 0-.397-.391 1.05 1.05 0 0 0-.545-.144q-.298 0-.546.144a1.06 1.06 0 0 0-.54.937q0 .303.143.55.15.243.397.387t.546.144m5.102 0h1.086q.303 0 .545-.144a1.09 1.09 0 0 0 .536-.937q0-.303-.149-.546a1.1 1.1 0 0 0-.387-.391 1.04 1.04 0 0 0-.545-.144 1.073 1.073 0 0 0-1.086 1.081zm1.086 6.188q.303 0 .545-.144.243-.143.387-.391.149-.248.149-.546 0-.302-.149-.55a1.08 1.08 0 0 0-.932-.541h-1.086v1.091a1.07 1.07 0 0 0 1.086 1.081m-3.972-3.302h1.76v-1.756h-1.76zm8.9 4.205v-10.156h3.719q1.08 0 1.79.357.709.352 1.061.957.352.6.352 1.354 0 .635-.233 1.071a1.9 1.9 0 0 1-.625.694 2.7 2.7 0 0 1-.853.377v.099q.505.025.987.328.486.297.803.848t.318 1.339q0 .779-.367 1.398-.363.615-1.121.977-.759.357-1.939.357zm1.532-1.314h2.212q1.1 0 1.576-.427.476-.426.476-1.066 0-.48-.243-.882a1.74 1.74 0 0 0-.694-.64q-.446-.238-1.061-.238h-2.266zm0-4.448h2.053q.516 0 .927-.199a1.6 1.6 0 0 0 .66-.555q.248-.362.248-.853 0-.63-.442-1.056-.441-.426-1.353-.426h-2.093z"/><g stroke="#18181B" stroke-linecap="round" stroke-linejoin="round" stroke-width="1.548" clip-path="url(#c)"><path d="M26.443 338.679h-.341a1.55 1.55 0 0 0-1.552 1.551v.14a1.55 1.55 0 0 1-.775 1.342l-.334.194a1.55 1.55 0 0 1-1.551 0l-.117-.062a1.554 1.554 0 0 0-2.117.566l-.171.295a1.55 1.55 0 0 0 .566 2.118l.117.077a1.56 1.56 0 0 1 .775 1.335v.395a1.55 1.55 0 0 1-.776 1.35l-.116.07a1.55 1.55 0 0 0-.566 2.118l.17.295a1.553 1.553 0 0 0 2.118.566l.117-.062a1.55 1.55 0 0 1 1.551 0l.334.194a1.55 1.55 0 0 1 .776 1.342v.14a1.55 1.55 0 0 0 1.551 1.551h.341a1.55 1.55 0 0 0 1.552-1.551v-.14a1.55 1.55 0 0 1 .776-1.342l.333-.194a1.55 1.55 0 0 1 1.552 0l.116.062a1.554 1.554 0 0 0 2.118-.566l.17-.303a1.55 1.55 0 0 0-.566-2.118l-.116-.062a1.55 1.55 0 0 1-.776-1.35v-.387a1.55 1.55 0 0 1 .776-1.35l.116-.07a1.55 1.55 0 0 0 .567-2.118l-.171-.295a1.553 1.553 0 0 0-2.118-.566l-.116.062a1.55 1.55 0 0 1-1.552 0l-.333-.194a1.56 1.56 0 0 1-.776-1.342v-.14a1.55 1.55 0 0 0-1.552-1.551"/><path d="M26.273 348.764a2.327 2.327 0 1 0 0-4.655 2.327 2.327 0 0 0 0 4.655"/></g><path fill="#09090B" d="M46.326 340.588h1.712l4.026 9.835h.14l4.026-9.835h1.712v11.848H56.6v-9.001h-.116l-3.702 9.001h-1.296l-3.703-9.001h-.115v9.001h-1.342zm18.033 12.034q-1.284 0-2.215-.567a3.8 3.8 0 0 1-1.43-1.597q-.497-1.03-.497-2.395t.498-2.407q.503-1.047 1.4-1.631.902-.59 2.105-.59.694 0 1.371.231.678.231 1.233.752.555.515.885 1.366.33.85.33 2.094v.578h-6.85v-1.18h5.461q0-.752-.3-1.342a2.27 2.27 0 0 0-.845-.931q-.544-.342-1.285-.342-.815 0-1.411.405a2.66 2.66 0 0 0-.908 1.041 3.1 3.1 0 0 0-.319 1.377v.787q0 1.007.347 1.707.354.694.978 1.058.625.36 1.452.359.538 0 .972-.15.44-.156.758-.463.318-.313.492-.775l1.319.37a2.9 2.9 0 0 1-.7 1.18 3.4 3.4 0 0 1-1.215.787 4.5 4.5 0 0 1-1.626.278m7.122-5.531v5.345h-1.365v-8.886h1.319v1.389h.115a2.54 2.54 0 0 1 .949-1.088q.636-.416 1.643-.416.903 0 1.58.37.675.364 1.052 1.111.376.74.376 1.874v5.646h-1.365v-5.553q0-1.047-.544-1.632-.543-.59-1.492-.59-.654 0-1.17.284-.507.283-.803.827-.295.543-.295 1.319m13.764 1.712v-5.253h1.365v8.886h-1.365v-1.504h-.093a2.9 2.9 0 0 1-.972 1.152q-.66.468-1.666.468-.833 0-1.48-.364-.649-.37-1.019-1.111-.37-.746-.37-1.88v-5.647h1.365v5.554q0 .972.544 1.551.55.578 1.4.578.51 0 1.036-.26a2.26 2.26 0 0 0 .89-.799q.365-.537.365-1.371m8.448 3.633v-8.886h1.365v8.886zm.694-10.367a.97.97 0 0 1-.689-.271.88.88 0 0 1-.283-.654q0-.383.283-.654a.97.97 0 0 1 .689-.272q.4 0 .683.272.288.271.289.654a.87.87 0 0 1-.29.654.95.95 0 0 1-.682.271m7.036 1.481v1.157h-4.605v-1.157zm-3.263-2.128h1.366v8.469q0 .579.167.868a.87.87 0 0 0 .44.382q.272.092.573.092.225 0 .37-.023l.231-.046.278 1.226a3 3 0 0 1-.388.104 2.8 2.8 0 0 1-.63.058q-.579 0-1.134-.249a2.24 2.24 0 0 1-.914-.758q-.36-.509-.359-1.284zm8.947 11.2q-1.284 0-2.216-.567a3.8 3.8 0 0 1-1.429-1.597q-.497-1.03-.497-2.395t.497-2.407q.504-1.047 1.4-1.631.903-.59 2.106-.59.694 0 1.371.231t1.232.752q.556.515.886 1.366.329.85.329 2.094v.578h-6.849v-1.18h5.461q0-.752-.301-1.342a2.26 2.26 0 0 0-.845-.931q-.543-.342-1.284-.342-.816 0-1.411.405a2.66 2.66 0 0 0-.909 1.041 3.1 3.1 0 0 0-.318 1.377v.787q0 1.007.347 1.707.353.694.978 1.058.624.36 1.452.359.538 0 .972-.15.44-.156.758-.463.318-.313.491-.775l1.319.37a2.9 2.9 0 0 1-.7 1.18 3.4 3.4 0 0 1-1.214.787 4.5 4.5 0 0 1-1.626.278m5.756-.186v-8.886h1.319v1.389h.116q.278-.712.897-1.105.619-.399 1.486-.399.88 0 1.464.399.59.393.92 1.105h.092a2.6 2.6 0 0 1 1.024-1.094q.683-.41 1.638-.41 1.191 0 1.949.746.758.74.758 2.308v5.947h-1.365v-5.947q0-.983-.538-1.405a2 2 0 0 0-1.267-.423q-.937 0-1.452.567-.516.561-.515 1.423v5.785H118v-6.086q0-.758-.491-1.22-.493-.47-1.267-.469a1.87 1.87 0 0 0-.995.284 2.14 2.14 0 0 0-.741.786 2.3 2.3 0 0 0-.278 1.152v5.553z"/><path fill="#71717A" d="M269.85 351.165q-.606 0-1.111-.298a2.3 2.3 0 0 1-.803-.803 2.15 2.15 0 0 1-.298-1.111q0-.61.298-1.111.297-.505.803-.808a2.1 2.1 0 0 1 1.111-.303h1.091v-1.755h-1.091q-.606 0-1.111-.297a2.24 2.24 0 0 1-.803-.799 2.15 2.15 0 0 1-.298-1.116q0-.609.298-1.11.297-.5.803-.799a2.13 2.13 0 0 1 1.111-.302q.609 0 1.11.302.506.298.804.799.302.501.302 1.11v1.081h1.76v-1.081q0-.609.298-1.11.297-.5.798-.799a2.14 2.14 0 0 1 1.116-.302q.61 0 1.111.302.501.298.798.799t.298 1.11-.298 1.116q-.297.5-.798.799a2.14 2.14 0 0 1-1.111.297h-1.086v1.755h1.086q.61 0 1.111.303t.798.808q.298.5.298 1.111 0 .604-.298 1.111a2.3 2.3 0 0 1-.798.803 2.14 2.14 0 0 1-1.111.298q-.61 0-1.116-.298a2.3 2.3 0 0 1-.798-.803 2.16 2.16 0 0 1-.298-1.111v-1.091h-1.76v1.091q0 .604-.302 1.111a2.3 2.3 0 0 1-.804.803 2.14 2.14 0 0 1-1.11.298m0-1.131q.302 0 .545-.144.248-.144.397-.392a1.04 1.04 0 0 0 .149-.545v-1.091h-1.091q-.298 0-.546.149a1.1 1.1 0 0 0-.397.392 1.1 1.1 0 0 0-.143.55q0 .297.143.545.15.248.397.392t.546.144m0-6.189h1.091v-1.081q0-.302-.149-.545a1.1 1.1 0 0 0-.397-.392 1.05 1.05 0 0 0-.545-.143q-.298 0-.546.143a1.058 1.058 0 0 0-.54.937q0 .303.143.551.15.243.397.387.247.143.546.143m5.102 0h1.086q.303 0 .545-.143a1.09 1.09 0 0 0 .536-.938q0-.302-.149-.545a1.1 1.1 0 0 0-.387-.392 1.04 1.04 0 0 0-.545-.143 1.07 1.07 0 0 0-1.086 1.08zm1.086 6.189q.303 0 .545-.144a1.07 1.07 0 0 0 .387-.392 1.04 1.04 0 0 0 .149-.545q0-.303-.149-.55a1.07 1.07 0 0 0-.387-.392 1 1 0 0 0-.545-.149h-1.086v1.091a1.07 1.07 0 0 0 .536.937q.247.144.55.144m-3.972-3.303h1.76v-1.755h-1.76zm14.439-3.282a1.45 1.45 0 0 0-.655-1.091q-.575-.392-1.448-.392-.624 0-1.081.198a1.67 1.67 0 0 0-.709.536 1.27 1.27 0 0 0-.248.769q0 .361.169.624.173.264.451.442.282.173.605.292.322.114.62.189l.991.258q.487.118.997.322.511.203.947.535.437.332.704.824.273.49.273 1.175 0 .863-.446 1.532-.442.669-1.284 1.056-.838.387-2.029.387-1.14 0-1.973-.362-.834-.361-1.304-1.026-.471-.67-.521-1.587h1.537q.045.55.357.917.317.362.809.541.495.173 1.085.173.65 0 1.156-.203.51-.209.803-.575.293-.373.293-.868 0-.451-.258-.739a1.9 1.9 0 0 0-.689-.476 7 7 0 0 0-.977-.332l-1.2-.327q-1.22-.333-1.934-.977-.71-.645-.709-1.706 0-.878.476-1.532a3.1 3.1 0 0 1 1.289-1.017q.813-.367 1.835-.367 1.03 0 1.82.362.793.362 1.249.997.456.63.476 1.448z"/></g><defs><clipPath id="c"><path fill="#fff" d="M16.964 337.127h18.618v18.618H16.964z"/></clipPath><filter id="a" width="306" height="377.073" x="0" y="0" color-interpolation-filters="sRGB" filterUnits="userSpaceOnUse"><feFlood flood-opacity="0" result="BackgroundImageFix"/><feColorMatrix in="SourceAlpha" result="hardAlpha" values="0 0 0 0 0 0 0 0 0 0 0 0 0 0 0 0 0 0 127 0"/><feOffset dy="4"/><feGaussianBlur stdDeviation="1.5"/><feColorMatrix values="0 0 0 0 0.0627451 0 0 0 0 0.0941176 0 0 0 0 0.156863 0 0 0 0.1 0"/><feBlend in2="BackgroundImageFix" result="effect1_dropShadow_15857_136853"/><feBlend in="SourceGraphic" in2="effect1_dropShadow_15857_136853" result="shape"/></filter></defs></svg>