<svg xmlns="http://www.w3.org/2000/svg" width="300" height="238" fill="none"><path fill="#fff" d="M8 .5h284a7.5 7.5 0 0 1 7.5 7.5v222a7.5 7.5 0 0 1-7.5 7.5H8A7.5 7.5 0 0 1 .5 230V8A7.5 7.5 0 0 1 8 .5"/><path stroke="#E4E4E7" d="M8 .5h284a7.5 7.5 0 0 1 7.5 7.5v222a7.5 7.5 0 0 1-7.5 7.5H8A7.5 7.5 0 0 1 .5 230V8A7.5 7.5 0 0 1 8 .5Z"/><path fill="#18181B" d="M17.119 17.818h1.864l3.241 7.915h.12l3.241-7.915h1.865V28h-1.462v-7.368h-.095l-3.002 7.353h-1.213l-3.003-7.358h-.095V28H17.12zM32.78 28.154q-1.073 0-1.874-.492a3.3 3.3 0 0 1-1.243-1.377q-.442-.886-.442-2.068 0-1.189.442-2.078a3.3 3.3 0 0 1 1.243-1.383q.801-.492 1.874-.492 1.074 0 1.875.492.8.493 1.242 1.383.444.889.443 2.078 0 1.183-.443 2.068a3.3 3.3 0 0 1-1.242 1.377q-.801.492-1.875.492m.005-1.248q.696 0 1.154-.368.457-.367.676-.98.224-.61.224-1.346 0-.732-.224-1.343a2.2 2.2 0 0 0-.676-.989q-.458-.373-1.154-.373-.7 0-1.163.373a2.2 2.2 0 0 0-.681.99 4 4 0 0 0-.219 1.342q0 .736.219 1.347.224.611.681.98.462.367 1.163.367m8.073 1.243a2.96 2.96 0 0 1-1.65-.472q-.721-.477-1.134-1.357-.408-.885-.408-2.123t.413-2.118q.418-.88 1.143-1.348a2.97 2.97 0 0 1 1.646-.467q.711 0 1.143.239.438.234.676.547.245.313.378.552h.09v-3.784h1.486V28H43.19v-1.188h-.125q-.134.243-.387.557a2.2 2.2 0 0 1-.686.547q-.438.233-1.134.233m.328-1.268q.642 0 1.084-.338.447-.342.676-.95.234-.606.234-1.411 0-.795-.229-1.392t-.671-.93-1.094-.333q-.67 0-1.118.348a2.13 2.13 0 0 0-.677.95q-.223.6-.223 1.357 0 .766.228 1.377.23.611.676.97.453.352 1.114.352m8.868 1.273q-1.128 0-1.944-.482a3.27 3.27 0 0 1-1.253-1.367q-.437-.885-.437-2.073 0-1.174.437-2.069a3.4 3.4 0 0 1 1.233-1.397q.795-.502 1.86-.502.645 0 1.253.214.606.213 1.088.671.483.457.761 1.188.279.726.278 1.765v.527h-6.07v-1.113h4.614q0-.587-.239-1.04a1.8 1.8 0 0 0-.671-.72 1.88 1.88 0 0 0-1.004-.264 1.94 1.94 0 0 0-1.094.308 2.07 2.07 0 0 0-.716.796 2.3 2.3 0 0 0-.248 1.059v.87q0 .766.268 1.302.273.538.76.82.487.28 1.14.28.421 0 .77-.12.348-.125.601-.368.254-.244.388-.602l1.407.254a2.55 2.55 0 0 1-.607 1.089 2.94 2.94 0 0 1-1.088.72q-.651.255-1.487.254m6.412-10.336V28H54.98V17.818z"/><g filter="url(#a)"><path fill="#fff" d="M16 44a6 6 0 0 1 6-6h256a6 6 0 0 1 6 6v24a6 6 0 0 1-6 6H22a6 6 0 0 1-6-6z"/><path stroke="#E4E4E7" d="M22 38.5h256a5.5 5.5 0 0 1 5.5 5.5v24a5.5 5.5 0 0 1-5.5 5.5H22a5.5 5.5 0 0 1-5.5-5.5V44a5.5 5.5 0 0 1 5.5-5.5Z"/><path fill="#18181B" d="M34.801 53.364a1.56 1.56 0 0 0-.726-1.174q-.636-.417-1.56-.417-.677 0-1.184.218a1.9 1.9 0 0 0-.785.602 1.44 1.44 0 0 0-.279.87q0 .408.194.701.2.288.507.482.309.189.646.313.339.12.622.194l1.034.279q.398.104.885.288.492.184.94.502.452.315.745.806t.293 1.208a2.7 2.7 0 0 1-.432 1.491q-.428.666-1.253 1.06-.82.392-1.993.392-1.095 0-1.895-.353-.795-.352-1.252-.984a2.8 2.8 0 0 1-.512-1.467h1.272q.05.577.388.955a2.1 2.1 0 0 0 .865.556q.527.18 1.134.18.706 0 1.267-.23.563-.232.89-.646.328-.417.328-.974 0-.507-.283-.825a2.1 2.1 0 0 0-.746-.517 8 8 0 0 0-1-.348l-1.252-.358q-1.192-.344-1.89-.98-.695-.637-.695-1.665 0-.855.462-1.492.468-.641 1.253-.994a4.2 4.2 0 0 1 1.765-.358q.984 0 1.75.353.766.348 1.213.955.452.606.477 1.377zm6.402 7.795q-1.103 0-1.904-.487a3.27 3.27 0 0 1-1.228-1.372q-.427-.885-.427-2.058 0-1.174.427-2.069.433-.9 1.203-1.402.775-.507 1.81-.507.597 0 1.178.2.582.198 1.06.645.475.442.76 1.174.283.73.283 1.8v.497H38.48v-1.015h4.693q0-.646-.258-1.153a1.95 1.95 0 0 0-.726-.8q-.468-.294-1.104-.294-.701 0-1.213.348a2.3 2.3 0 0 0-.78.895 2.6 2.6 0 0 0-.274 1.183v.676q0 .865.298 1.467.303.597.84.91.537.308 1.248.308.463 0 .835-.13.379-.133.652-.397.273-.268.422-.666l1.134.318q-.18.578-.602 1.014-.422.433-1.044.676-.621.24-1.397.24m6.12-10.34V61H46.15V50.818zm5.351 10.34q-1.103 0-1.904-.487a3.27 3.27 0 0 1-1.228-1.372q-.428-.885-.428-2.058 0-1.174.428-2.069.433-.9 1.203-1.402.775-.507 1.81-.507.596 0 1.178.2.581.198 1.059.645.478.442.76 1.174.284.73.284 1.8v.497H49.95v-1.015h4.693q0-.646-.259-1.153a1.95 1.95 0 0 0-.726-.8q-.467-.294-1.103-.294-.702 0-1.213.348a2.3 2.3 0 0 0-.78.895 2.6 2.6 0 0 0-.274 1.183v.676q0 .865.298 1.467.303.597.84.91.537.308 1.248.308.462 0 .835-.13.379-.133.651-.397.274-.268.423-.666l1.134.318q-.18.578-.602 1.014-.423.433-1.044.676-.621.24-1.397.24m8.049 0q-1.073 0-1.85-.507a3.3 3.3 0 0 1-1.193-1.397q-.417-.89-.417-2.033 0-1.163.427-2.054a3.4 3.4 0 0 1 1.204-1.397q.775-.507 1.81-.507.805 0 1.45.298.648.3 1.06.836.413.537.512 1.253h-1.173q-.135-.522-.597-.925-.458-.408-1.233-.408-.685 0-1.203.358-.512.353-.8 1-.284.641-.284 1.506 0 .884.279 1.541.283.656.795 1.02.517.362 1.213.362.458 0 .83-.159.374-.159.632-.457.258-.3.368-.716h1.173q-.099.675-.492 1.218a2.75 2.75 0 0 1-1.03.855q-.636.313-1.481.313m8.04-7.795v.994h-3.958v-.994zm-2.805-1.83h1.173v7.279q0 .496.145.745.149.244.377.328.234.08.493.08.194 0 .318-.02l.199-.04.238 1.054q-.12.045-.333.09a2.5 2.5 0 0 1-.542.05q-.497 0-.974-.214a1.94 1.94 0 0 1-.786-.652q-.308-.437-.308-1.103zm10.754 9.645q-.726 0-1.318-.273a2.26 2.26 0 0 1-.94-.8q-.347-.527-.347-1.274 0-.656.258-1.063.258-.413.691-.647t.955-.348q.526-.12 1.059-.189.696-.09 1.128-.134.438-.05.637-.164.203-.114.203-.398v-.04q0-.735-.402-1.143-.398-.408-1.208-.408-.84 0-1.318.368-.477.367-.671.786l-1.114-.398q.299-.696.796-1.084a3 3 0 0 1 1.094-.547 4.5 4.5 0 0 1 1.173-.159q.368 0 .845.09.482.084.93.353.452.269.75.81.3.542.299 1.452V61h-1.174v-1.034h-.06q-.118.249-.397.532-.28.284-.74.482-.463.2-1.13.199m.179-1.054q.696 0 1.173-.273a1.86 1.86 0 0 0 .974-1.616v-1.074q-.075.09-.328.164a6 6 0 0 1-.576.124 26 26 0 0 1-1.124.15q-.458.06-.855.193a1.5 1.5 0 0 0-.636.393q-.24.258-.24.706 0 .612.453.925.457.308 1.159.308m9.4.875v-7.636h1.133v1.193h.1a1.92 1.92 0 0 1 .77-.95q.532-.343 1.278-.343.756 0 1.258.343.507.338.79.95h.08q.293-.592.88-.94.586-.353 1.407-.353 1.023 0 1.675.642.651.636.651 1.983V61H95.14v-5.11q0-.846-.462-1.209a1.7 1.7 0 0 0-1.089-.363q-.806 0-1.248.487-.442.483-.442 1.223V61h-1.194v-5.23q0-.651-.422-1.05-.423-.402-1.089-.402-.457 0-.855.244a1.84 1.84 0 0 0-.636.676q-.24.428-.239.99V61zm15.27.16q-1.033 0-1.815-.493a3.34 3.34 0 0 1-1.213-1.377q-.432-.885-.432-2.068 0-1.194.432-2.084a3.34 3.34 0 0 1 1.213-1.382q.782-.492 1.815-.492 1.034 0 1.81.492.78.493 1.213 1.383.437.89.437 2.083 0 1.182-.437 2.068a3.3 3.3 0 0 1-1.213 1.377q-.776.492-1.81.492m0-1.055q.785 0 1.293-.403a2.37 2.37 0 0 0 .75-1.058q.244-.657.244-1.422t-.244-1.427a2.4 2.4 0 0 0-.75-1.07q-.508-.406-1.293-.407-.786 0-1.293.408a2.4 2.4 0 0 0-.75 1.069q-.244.66-.244 1.427 0 .765.244 1.422.243.656.75 1.058.507.403 1.293.403m8.135 1.054q-.955 0-1.686-.482-.73-.487-1.143-1.372-.413-.891-.413-2.103 0-1.203.413-2.088t1.148-1.368q.737-.482 1.701-.482.745 0 1.178.249.437.243.666.557.234.307.363.507h.099v-3.759h1.174V61h-1.134v-1.173h-.139a8 8 0 0 1-.368.527 2.2 2.2 0 0 1-.681.562q-.443.243-1.178.243m.159-1.054q.705 0 1.193-.368.488-.372.741-1.029.253-.661.253-1.526 0-.856-.248-1.497-.249-.645-.736-1.004-.487-.363-1.203-.363-.746 0-1.243.383a2.3 2.3 0 0 0-.741 1.03 4.1 4.1 0 0 0-.244 1.45q0 .816.249 1.482.254.662.746 1.054.496.388 1.233.388m8.854 1.054q-1.104 0-1.904-.487a3.27 3.27 0 0 1-1.228-1.372q-.427-.885-.427-2.058 0-1.174.427-2.069.432-.9 1.203-1.402.775-.507 1.81-.507.597 0 1.178.2.582.198 1.059.645.477.442.761 1.174.283.73.283 1.8v.497h-5.886v-1.015h4.693q0-.646-.259-1.153a1.95 1.95 0 0 0-.725-.8q-.468-.294-1.104-.294-.701 0-1.213.348a2.3 2.3 0 0 0-.781.895 2.6 2.6 0 0 0-.273 1.183v.676q0 .865.298 1.467.303.597.84.91.537.308 1.248.308.463 0 .835-.13.378-.133.652-.397.273-.268.422-.666l1.134.318q-.18.578-.602 1.014-.423.433-1.044.676-.621.24-1.397.24m6.12-10.34V61h-1.173V50.818z"/><path stroke="#71717A" stroke-linecap="round" stroke-linejoin="round" stroke-width="1.33" d="m260 54 4 4 4-4"/></g><path fill="#18181B" d="M16.617 93.14v-1.322h7.88v1.323H21.32V102h-1.532v-8.86zm11.685 9.014q-1.128 0-1.944-.482a3.28 3.28 0 0 1-1.253-1.367q-.437-.885-.437-2.074 0-1.173.438-2.068a3.4 3.4 0 0 1 1.232-1.397q.795-.501 1.86-.502.645 0 1.253.214.606.214 1.088.671t.761 1.188q.279.727.278 1.765v.527h-6.07v-1.113h4.614q0-.587-.239-1.04a1.8 1.8 0 0 0-.671-.72 1.88 1.88 0 0 0-1.004-.264 1.94 1.94 0 0 0-1.094.308 2.07 2.07 0 0 0-.716.796 2.3 2.3 0 0 0-.248 1.059v.87q0 .765.268 1.302.273.537.76.821.487.278 1.14.278.421 0 .77-.119.348-.125.601-.368.255-.243.388-.602l1.407.254a2.55 2.55 0 0 1-.607 1.089 2.95 2.95 0 0 1-1.088.721q-.651.253-1.487.253m4.926-.154v-7.636h1.427v1.242h.094q.24-.63.78-.984.542-.358 1.298-.358.765 0 1.283.358.522.358.77.984h.08a2.15 2.15 0 0 1 .87-.974q.597-.368 1.422-.368 1.04 0 1.695.651.661.653.661 1.964V102h-1.486v-4.981q0-.776-.423-1.124a1.54 1.54 0 0 0-1.009-.348q-.726 0-1.128.447-.403.443-.403 1.139V102h-1.482v-5.076q0-.62-.387-1-.388-.377-1.01-.377-.421 0-.78.224-.353.219-.572.611a1.9 1.9 0 0 0-.214.91V102zm12.373 2.864v-10.5h1.452v1.238h.124q.129-.24.373-.552a2.1 2.1 0 0 1 .676-.547q.433-.24 1.143-.239.925 0 1.65.468.727.467 1.14 1.347.417.88.417 2.118t-.413 2.123q-.413.88-1.133 1.357-.721.472-1.646.472-.696 0-1.138-.234a2.2 2.2 0 0 1-.686-.546 4 4 0 0 1-.383-.557h-.09v4.052zm1.456-6.682q0 .805.234 1.412t.676.949q.443.339 1.084.338.667 0 1.114-.353.447-.357.676-.97.234-.61.234-1.376 0-.756-.23-1.357a2.1 2.1 0 0 0-.675-.95q-.448-.348-1.119-.348-.645 0-1.094.333-.442.333-.67.93-.23.596-.23 1.392m10.476 3.972q-1.129 0-1.944-.482a3.28 3.28 0 0 1-1.253-1.367q-.438-.885-.438-2.074 0-1.173.438-2.068a3.4 3.4 0 0 1 1.233-1.397q.795-.501 1.86-.502.646 0 1.252.214.607.214 1.089.671t.76 1.188q.279.727.279 1.765v.527h-6.07v-1.113h4.613q0-.587-.238-1.04a1.8 1.8 0 0 0-.671-.72 1.88 1.88 0 0 0-1.005-.264 1.94 1.94 0 0 0-1.094.308 2.07 2.07 0 0 0-.715.796 2.3 2.3 0 0 0-.249 1.059v.87q0 .765.268 1.302.274.537.761.821.487.278 1.139.278.422 0 .77-.119.348-.125.602-.368.253-.243.387-.602l1.407.254a2.55 2.55 0 0 1-.606 1.089 2.95 2.95 0 0 1-1.089.721q-.651.253-1.486.253m4.925-.154v-7.636h1.437v1.213h.08q.208-.616.735-.97a2.1 2.1 0 0 1 1.204-.358 6 6 0 0 1 .63.035v1.422a3 3 0 0 0-.317-.055 3 3 0 0 0-.458-.034 1.94 1.94 0 0 0-.94.223 1.66 1.66 0 0 0-.884 1.497V102zm7.527.169q-.726 0-1.312-.268a2.2 2.2 0 0 1-.93-.791q-.338-.517-.338-1.268 0-.645.249-1.064.248-.417.67-.66t.945-.369a9 9 0 0 1 1.064-.189l1.114-.129q.428-.054.621-.174.194-.12.194-.388v-.034q0-.652-.368-1.01-.363-.358-1.084-.358-.75 0-1.183.333-.427.33-.591.731l-1.397-.318q.248-.696.726-1.123a2.94 2.94 0 0 1 1.108-.627 4.3 4.3 0 0 1 1.318-.199q.457 0 .97.11.516.104.964.387.452.285.74.81.29.523.289 1.358V102h-1.452v-1.044h-.06q-.144.288-.432.567t-.74.462-1.085.184m.323-1.193q.617 0 1.054-.244.443-.243.672-.636.233-.398.233-.85v-.985q-.08.08-.308.15a5 5 0 0 1-.512.114q-.288.045-.562.084l-.457.06a3.7 3.7 0 0 0-.79.184q-.354.129-.568.373-.208.238-.208.636 0 .553.407.835.407.279 1.04.279m8.99-6.612v1.193h-4.17v-1.193zm-3.052-1.83h1.486v7.224q0 .432.13.651.129.214.333.293.209.075.452.075a1.7 1.7 0 0 0 .313-.025q.135-.025.209-.04l.269 1.228a2.927 2.927 0 0 1-.965.159 2.6 2.6 0 0 1-1.094-.208 1.9 1.9 0 0 1-.82-.677q-.313-.456-.313-1.148zm9.534 6.3v-4.47h1.492V102H85.81v-1.322h-.08a2.4 2.4 0 0 1-.845 1.019q-.576.402-1.437.402-.735 0-1.302-.323a2.27 2.27 0 0 1-.885-.969q-.318-.642-.318-1.586v-4.857h1.486v4.678q0 .78.433 1.243.432.462 1.123.462.418 0 .83-.209.419-.208.692-.631.278-.423.273-1.074M89.269 102v-7.636h1.437v1.213h.08q.208-.616.735-.97a2.1 2.1 0 0 1 1.203-.358 6 6 0 0 1 .632.035v1.422a3 3 0 0 0-.319-.055 3 3 0 0 0-.457-.034 1.94 1.94 0 0 0-.94.223 1.66 1.66 0 0 0-.885 1.497V102zm8.39.154q-1.128 0-1.943-.482a3.28 3.28 0 0 1-1.253-1.367q-.438-.885-.438-2.074 0-1.173.438-2.068a3.4 3.4 0 0 1 1.233-1.397q.795-.501 1.86-.502.646 0 1.252.214t1.089.671.76 1.188q.279.727.279 1.765v.527h-6.07v-1.113h4.613q0-.587-.238-1.04a1.8 1.8 0 0 0-.672-.72 1.88 1.88 0 0 0-1.004-.264 1.94 1.94 0 0 0-1.094.308 2.07 2.07 0 0 0-.716.796 2.3 2.3 0 0 0-.248 1.059v.87q0 .765.268 1.302.274.537.761.821.487.278 1.138.278.424 0 .771-.119.348-.125.602-.368.253-.243.388-.602l1.406.254a2.54 2.54 0 0 1-.606 1.089 2.95 2.95 0 0 1-1.089.721q-.651.253-1.486.253"/><g filter="url(#b)"><path fill="#fff" d="M16 118a6 6 0 0 1 6-6h256a6 6 0 0 1 6 6v24a6 6 0 0 1-6 6H22a6 6 0 0 1-6-6z"/><path stroke="#E4E4E7" d="M22 112.5h256a5.5 5.5 0 0 1 5.5 5.5v24a5.5 5.5 0 0 1-5.5 5.5H22a5.5 5.5 0 0 1-5.5-5.5v-24a5.5 5.5 0 0 1 5.5-5.5Z"/><path fill="#71717A" d="M32.375 135.139q-1.124 0-1.914-.611-.79-.617-1.208-1.785-.418-1.173-.418-2.834 0-1.65.418-2.819.423-1.173 1.213-1.79.796-.621 1.909-.621t1.904.621q.796.617 1.213 1.79.423 1.169.423 2.819 0 1.66-.418 2.834-.416 1.168-1.208 1.785-.79.61-1.914.611m0-1.094q1.114 0 1.73-1.073.617-1.074.617-3.063 0-1.322-.284-2.252-.278-.93-.805-1.417a1.78 1.78 0 0 0-1.258-.487q-1.103 0-1.725 1.089-.622 1.084-.622 3.067 0 1.323.279 2.247.278.925.8 1.407a1.8 1.8 0 0 0 1.268.482m5.949 1.035a.86.86 0 0 1-.632-.264.86.86 0 0 1-.263-.631q0-.368.263-.632a.86.86 0 0 1 .632-.263q.367 0 .63.263a.86.86 0 0 1 .264.632.929.929 0 0 1-.447.775.85.85 0 0 1-.447.12m2.741-2.168v-1.014l4.475-7.08h.736v1.571h-.498l-3.38 5.35v.079h6.025v1.094zM45.858 135v-10.182h1.173V135z"/></g><path fill="#18181B" d="M16.617 167.141v-1.323h7.88v1.323H21.32V176h-1.532v-8.859zm11.61 9.013q-1.073 0-1.874-.492a3.3 3.3 0 0 1-1.243-1.377q-.441-.885-.442-2.068 0-1.189.442-2.079a3.3 3.3 0 0 1 1.243-1.382q.801-.492 1.875-.492t1.874.492a3.3 3.3 0 0 1 1.243 1.382q.442.89.442 2.079 0 1.183-.442 2.068a3.3 3.3 0 0 1-1.243 1.377q-.8.492-1.874.492m.006-1.248q.696 0 1.153-.368.457-.367.676-.979.224-.612.224-1.347a3.9 3.9 0 0 0-.224-1.343 2.2 2.2 0 0 0-.676-.989q-.458-.373-1.153-.373-.701 0-1.164.373a2.2 2.2 0 0 0-.68.989 4 4 0 0 0-.22 1.343q0 .735.22 1.347.222.612.68.979.463.369 1.164.368m5.214 3.958v-10.5h1.451v1.238h.124q.13-.24.373-.552a2.1 2.1 0 0 1 .677-.547q.433-.239 1.143-.239a3 3 0 0 1 1.65.468q.726.467 1.14 1.347.416.879.417 2.118 0 1.238-.413 2.123-.413.88-1.133 1.357-.722.472-1.646.472-.696 0-1.139-.234a2.2 2.2 0 0 1-.686-.546 4 4 0 0 1-.383-.557h-.089v4.052zm1.456-6.682q0 .805.234 1.412t.676.949q.442.339 1.084.338.666 0 1.114-.353.447-.357.676-.969.233-.612.233-1.377 0-.756-.228-1.357a2.1 2.1 0 0 0-.677-.95q-.447-.348-1.118-.348-.647 0-1.094.333-.443.333-.671.93-.228.596-.229 1.392M45.912 176v-10.182h3.629q1.188 0 1.969.433.78.432 1.168 1.183.388.745.388 1.68 0 .94-.393 1.691-.389.745-1.173 1.183-.78.432-1.964.432H47.04v-1.302h2.357q.75 0 1.218-.259.467-.263.686-.716t.218-1.029q0-.577-.218-1.024a1.57 1.57 0 0 0-.691-.701q-.468-.253-1.233-.253h-1.93V176z"/><g filter="url(#c)"><path fill="#fff" d="M16 192a6 6 0 0 1 6-6h114a6 6 0 0 1 6 6v24a6 6 0 0 1-6 6H22a6 6 0 0 1-6-6z"/><path stroke="#E4E4E7" d="M22 186.5h114a5.5 5.5 0 0 1 5.5 5.5v24a5.5 5.5 0 0 1-5.5 5.5H22a5.5 5.5 0 0 1-5.5-5.5v-24a5.5 5.5 0 0 1 5.5-5.5Z"/><path fill="#71717A" d="M32.375 209.139q-1.124 0-1.914-.611-.79-.617-1.208-1.785-.418-1.173-.418-2.834 0-1.65.418-2.819.423-1.173 1.213-1.79.796-.621 1.909-.621t1.904.621q.796.617 1.213 1.79.423 1.169.423 2.819 0 1.66-.418 2.834-.416 1.168-1.208 1.785-.79.61-1.914.611m0-1.094q1.114 0 1.73-1.073.617-1.074.617-3.063 0-1.323-.284-2.252-.278-.93-.805-1.417a1.78 1.78 0 0 0-1.258-.487q-1.103 0-1.725 1.089-.622 1.084-.622 3.067 0 1.323.279 2.247.278.925.8 1.407a1.8 1.8 0 0 0 1.268.482m5.949 1.035a.86.86 0 0 1-.632-.264.86.86 0 0 1-.263-.631q0-.368.263-.632a.86.86 0 0 1 .632-.263q.367 0 .63.263a.86.86 0 0 1 .264.632.929.929 0 0 1-.447.775.85.85 0 0 1-.447.12m3.093-.08 4.554-9.009v-.079h-5.25v-1.094h6.523v1.154L42.71 209z"/></g><path fill="#18181B" d="M158.616 167.141v-1.323h7.88v1.323h-3.176V176h-1.532v-8.859zm11.612 9.013q-1.074 0-1.875-.492a3.3 3.3 0 0 1-1.243-1.377q-.442-.885-.442-2.068 0-1.189.442-2.079a3.3 3.3 0 0 1 1.243-1.382q.801-.492 1.875-.492t1.874.492q.8.493 1.243 1.382.442.89.442 2.079 0 1.183-.442 2.068a3.3 3.3 0 0 1-1.243 1.377q-.8.492-1.874.492m.005-1.248q.696 0 1.153-.368.457-.367.676-.979a3.9 3.9 0 0 0 .224-1.347q0-.732-.224-1.343a2.2 2.2 0 0 0-.676-.989q-.457-.373-1.153-.373-.702 0-1.164.373a2.2 2.2 0 0 0-.681.989 4 4 0 0 0-.219 1.343q0 .735.219 1.347.223.612.681.979.462.369 1.164.368m5.214 3.958v-10.5h1.451v1.238h.125q.129-.24.372-.552.244-.313.677-.547.432-.239 1.143-.239.924 0 1.651.468.725.467 1.138 1.347.417.879.418 2.118 0 1.238-.413 2.123-.413.88-1.133 1.357a2.94 2.94 0 0 1-1.646.472q-.696 0-1.139-.234a2.2 2.2 0 0 1-.686-.546 4 4 0 0 1-.382-.557h-.09v4.052zm1.456-6.682q0 .805.234 1.412t.676.949q.442.339 1.084.338.666 0 1.113-.353.448-.357.677-.969.233-.612.233-1.377 0-.756-.228-1.357a2.1 2.1 0 0 0-.677-.95q-.447-.348-1.118-.348-.647 0-1.094.333-.443.333-.671.93-.23.596-.229 1.392M187.912 176v-10.182h1.536v4.862h.124l4.271-4.862h1.934l-4.107 4.584 4.122 5.598h-1.85l-3.291-4.549-1.203 1.382V176z"/><g filter="url(#d)"><path fill="#fff" d="M158 192a6 6 0 0 1 6-6h114a6 6 0 0 1 6 6v24a6 6 0 0 1-6 6H164a6 6 0 0 1-6-6z"/><path stroke="#E4E4E7" d="M164 186.5h114a5.5 5.5 0 0 1 5.5 5.5v24a5.5 5.5 0 0 1-5.5 5.5H164a5.5 5.5 0 0 1-5.5-5.5v-24a5.5 5.5 0 0 1 5.5-5.5Z"/><path fill="#71717A" d="M174.375 209.139q-1.124 0-1.914-.611-.79-.617-1.208-1.785-.418-1.173-.418-2.834 0-1.65.418-2.819.423-1.173 1.213-1.79.796-.621 1.909-.621t1.904.621q.796.617 1.213 1.79.423 1.169.423 2.819 0 1.66-.418 2.834-.417 1.168-1.208 1.785-.79.61-1.914.611m0-1.094q1.113 0 1.73-1.073.617-1.074.617-3.063 0-1.323-.284-2.252-.278-.93-.805-1.417a1.78 1.78 0 0 0-1.258-.487q-1.104 0-1.725 1.089-.621 1.084-.622 3.067 0 1.323.279 2.247.278.925.8 1.407.528.483 1.268.482m5.949 1.035a.86.86 0 0 1-.632-.264.86.86 0 0 1-.263-.631.86.86 0 0 1 .263-.632.86.86 0 0 1 .632-.263q.367 0 .631.263a.86.86 0 0 1 .263.632.84.84 0 0 1-.124.447.9.9 0 0 1-.323.328.85.85 0 0 1-.447.12m5.946.059q-1.125 0-1.915-.611-.79-.617-1.208-1.785-.417-1.173-.417-2.834 0-1.65.417-2.819.423-1.173 1.213-1.79.796-.621 1.91-.621t1.904.621q.795.617 1.213 1.79.422 1.169.422 2.819 0 1.66-.417 2.834-.418 1.168-1.208 1.785-.79.61-1.914.611m0-1.094q1.113 0 1.73-1.073.616-1.074.616-3.063 0-1.323-.283-2.252-.278-.93-.806-1.417a1.78 1.78 0 0 0-1.257-.487q-1.104 0-1.726 1.089-.621 1.084-.621 3.067 0 1.323.278 2.247.279.925.801 1.407a1.8 1.8 0 0 0 1.268.482"/></g><defs><filter id="a" width="272" height="40" x="14" y="37" color-interpolation-filters="sRGB" filterUnits="userSpaceOnUse"><feFlood flood-opacity="0" result="BackgroundImageFix"/><feColorMatrix in="SourceAlpha" result="hardAlpha" values="0 0 0 0 0 0 0 0 0 0 0 0 0 0 0 0 0 0 127 0"/><feOffset dy="1"/><feGaussianBlur stdDeviation="1"/><feColorMatrix values="0 0 0 0 0 0 0 0 0 0 0 0 0 0 0 0 0 0 0.05 0"/><feBlend in2="BackgroundImageFix" result="effect1_dropShadow_15853_31043"/><feBlend in="SourceGraphic" in2="effect1_dropShadow_15853_31043" result="shape"/></filter><filter id="b" width="272" height="40" x="14" y="111" color-interpolation-filters="sRGB" filterUnits="userSpaceOnUse"><feFlood flood-opacity="0" result="BackgroundImageFix"/><feColorMatrix in="SourceAlpha" result="hardAlpha" values="0 0 0 0 0 0 0 0 0 0 0 0 0 0 0 0 0 0 127 0"/><feOffset dy="1"/><feGaussianBlur stdDeviation="1"/><feColorMatrix values="0 0 0 0 0 0 0 0 0 0 0 0 0 0 0 0 0 0 0.05 0"/><feBlend in2="BackgroundImageFix" result="effect1_dropShadow_15853_31043"/><feBlend in="SourceGraphic" in2="effect1_dropShadow_15853_31043" result="shape"/></filter><filter id="c" width="130" height="40" x="14" y="185" color-interpolation-filters="sRGB" filterUnits="userSpaceOnUse"><feFlood flood-opacity="0" result="BackgroundImageFix"/><feColorMatrix in="SourceAlpha" result="hardAlpha" values="0 0 0 0 0 0 0 0 0 0 0 0 0 0 0 0 0 0 127 0"/><feOffset dy="1"/><feGaussianBlur stdDeviation="1"/><feColorMatrix values="0 0 0 0 0 0 0 0 0 0 0 0 0 0 0 0 0 0 0.05 0"/><feBlend in2="BackgroundImageFix" result="effect1_dropShadow_15853_31043"/><feBlend in="SourceGraphic" in2="effect1_dropShadow_15853_31043" result="shape"/></filter><filter id="d" width="130" height="40" x="156" y="185" color-interpolation-filters="sRGB" filterUnits="userSpaceOnUse"><feFlood flood-opacity="0" result="BackgroundImageFix"/><feColorMatrix in="SourceAlpha" result="hardAlpha" values="0 0 0 0 0 0 0 0 0 0 0 0 0 0 0 0 0 0 127 0"/><feOffset dy="1"/><feGaussianBlur stdDeviation="1"/><feColorMatrix values="0 0 0 0 0 0 0 0 0 0 0 0 0 0 0 0 0 0 0.05 0"/><feBlend in2="BackgroundImageFix" result="effect1_dropShadow_15853_31043"/><feBlend in="SourceGraphic" in2="effect1_dropShadow_15853_31043" result="shape"/></filter></defs></svg>