<svg xmlns="http://www.w3.org/2000/svg" width="304" height="490" fill="none"><g filter="url(#a)"><path fill="#fff" d="M2 9a8 8 0 0 1 8-8h284a8 8 0 0 1 8 8v470a8 8 0 0 1-8 8H10a8 8 0 0 1-8-8z"/><path stroke="#E4E4E7" d="M10 1.5h284a7.5 7.5 0 0 1 7.5 7.5v470a7.5 7.5 0 0 1-7.5 7.5H10a7.5 7.5 0 0 1-7.5-7.5V9A7.5 7.5 0 0 1 10 1.5Z"/><path fill="#09090B" d="M35.34 35.453q-.1-.93-.839-1.449-.731-.518-1.903-.518-.824 0-1.413.248-.59.249-.902.675a1.64 1.64 0 0 0-.32.973q0 .455.206.788.213.334.575.569.363.227.803.383t.888.263l1.363.34q.825.192 1.584.52.767.326 1.37.823.612.498.967 1.2.354.704.355 1.648 0 1.279-.654 2.252-.653.966-1.889 1.512-1.228.54-2.976.54-1.697 0-2.947-.525-1.243-.525-1.946-1.535-.696-1.008-.753-2.457h2.592q.056.76.47 1.264a2.5 2.5 0 0 0 1.072.753q.668.249 1.491.249.86 0 1.506-.256.653-.263 1.023-.724a1.75 1.75 0 0 0 .376-1.094q-.007-.568-.334-.938-.327-.376-.916-.625a9 9 0 0 0-1.364-.454l-1.655-.426q-1.797-.462-2.84-1.4-1.038-.945-1.037-2.507 0-1.285.696-2.251.702-.966 1.91-1.498 1.208-.54 2.734-.54 1.549 0 2.714.54 1.17.533 1.84 1.484.666.945.688 2.173zM40.31 46V35.09h2.57V46zm1.292-12.457a1.5 1.5 0 0 1-1.051-.405 1.3 1.3 0 0 1-.44-.987q0-.583.44-.988a1.49 1.49 0 0 1 1.05-.412q.619 0 1.052.412.44.406.44.988 0 .575-.44.987-.434.405-1.051.405m8.667 16.775q-1.386 0-2.38-.376-.994-.37-1.598-.995a3.44 3.44 0 0 1-.838-1.385l2.316-.56q.156.319.454.631.298.32.803.526.51.213 1.285.213 1.094 0 1.811-.532.718-.526.718-1.734V44.04h-.128a3.7 3.7 0 0 1-.583.816q-.375.42-1.001.704-.617.285-1.556.284a4.5 4.5 0 0 1-2.28-.59q-1.015-.597-1.619-1.775-.596-1.186-.596-2.97 0-1.796.596-3.032.604-1.243 1.627-1.882a4.2 4.2 0 0 1 2.28-.646q.958 0 1.576.327.625.319.995.774.37.447.56.845h.143V35.09h2.535v11.087q0 1.398-.667 2.315-.668.916-1.826 1.37-1.157.456-2.627.455m.02-6.491q.818 0 1.393-.398.575-.397.873-1.144.3-.745.299-1.79 0-1.029-.299-1.803-.291-.774-.866-1.2-.568-.434-1.4-.434-.858 0-1.434.448-.575.448-.866 1.228-.291.775-.292 1.762 0 1 .292 1.754.298.745.873 1.165.583.412 1.428.412m10.306-4.219V46h-2.57V35.09h2.456v1.855h.128q.377-.916 1.2-1.456.832-.54 2.053-.54 1.13 0 1.967.483.846.483 1.307 1.399.47.916.462 2.223V46h-2.571v-6.548q0-1.094-.568-1.712-.561-.618-1.556-.618-.675 0-1.2.298a2.07 2.07 0 0 0-.817.846q-.29.553-.29 1.342m21.53 1.804V35.09h2.572V46h-2.493v-1.939h-.114a3.3 3.3 0 0 1-1.214 1.499q-.839.582-2.067.582-1.072 0-1.896-.476-.817-.483-1.279-1.399-.462-.924-.461-2.23V35.09h2.57v6.548q0 1.036.569 1.648.569.61 1.491.61.57 0 1.101-.276.532-.278.874-.824.348-.555.348-1.385m5.216 8.679v-15h2.528v1.804h.15a4.7 4.7 0 0 1 .56-.845q.362-.454.98-.774.618-.327 1.577-.327 1.264 0 2.28.646 1.022.639 1.62 1.897.603 1.249.603 3.068 0 1.797-.59 3.054t-1.605 1.917-2.3.66q-.939 0-1.556-.312a3.2 3.2 0 0 1-.995-.753 5 5 0 0 1-.575-.845h-.106v5.81zm2.52-9.546q0 1.059.3 1.854.304.795.873 1.243.574.44 1.392.44.852 0 1.427-.454.576-.462.867-1.257.298-.803.298-1.826 0-1.015-.291-1.803-.291-.789-.867-1.236-.575-.448-1.434-.448-.825 0-1.4.434-.575.432-.873 1.214-.291.78-.291 1.84"/><path fill="#71717A" d="M27.233 74V63.818h6.145v1.094h-4.912v3.44h4.594v1.094h-4.594v3.46h4.991V74zm9.381-4.594V74h-1.173v-7.636h1.134v1.193h.099q.268-.582.815-.935.548-.358 1.412-.358.776 0 1.357.318.582.314.905.955.324.636.324 1.61V74h-1.174v-4.773q0-.9-.467-1.402-.468-.507-1.283-.507-.562 0-1.004.244-.438.244-.691.71-.255.468-.254 1.134m10.338-3.042v.994h-3.958v-.994zm-2.804-1.83h1.173v7.278q0 .498.144.746.15.244.378.328.234.08.492.08.194 0 .318-.02l.2-.04.238 1.054q-.12.045-.333.09-.215.05-.542.05-.498 0-.975-.214a1.94 1.94 0 0 1-.785-.652q-.309-.437-.309-1.103zm7.688 9.625q-1.103 0-1.904-.487a3.27 3.27 0 0 1-1.228-1.372q-.428-.885-.428-2.058 0-1.174.428-2.069.433-.9 1.203-1.402.775-.507 1.81-.507.596 0 1.178.2.581.198 1.059.645.477.443.76 1.174.285.73.284 1.8v.496h-5.886v-1.014h4.693q0-.645-.259-1.153a1.95 1.95 0 0 0-.725-.8q-.468-.294-1.104-.294-.702 0-1.213.348a2.3 2.3 0 0 0-.78.895 2.6 2.6 0 0 0-.274 1.183v.677q0 .864.298 1.466.303.597.84.91.537.308 1.248.308.463 0 .835-.13.379-.133.652-.397.273-.268.422-.666l1.134.318q-.18.578-.602 1.014-.423.433-1.044.677-.621.237-1.397.238M56.783 74v-7.636h1.133v1.153h.08q.21-.567.756-.92a2.23 2.23 0 0 1 1.233-.353q.128 0 .323.005.194.006.293.015v1.193q-.06-.015-.273-.044a3 3 0 0 0-.443-.035q-.557 0-.994.234a1.76 1.76 0 0 0-.686.636 1.7 1.7 0 0 0-.249.92V74zm9.902 2.864q-.298 0-.532-.05a1.4 1.4 0 0 1-.323-.09l.298-1.034q.427.11.756.08a.9.9 0 0 0 .582-.293q.258-.26.472-.84l.219-.597-2.824-7.676h1.273l2.107 6.085h.08l2.108-6.085h1.273l-3.242 8.75q-.219.59-.542.979a2 2 0 0 1-.75.582q-.423.189-.955.189m9.866-2.705q-1.034 0-1.814-.492a3.35 3.35 0 0 1-1.214-1.377q-.432-.885-.432-2.068 0-1.194.432-2.084a3.34 3.34 0 0 1 1.214-1.382q.78-.492 1.814-.492t1.81.492q.78.494 1.213 1.382.437.89.437 2.084 0 1.183-.437 2.068a3.3 3.3 0 0 1-1.213 1.377q-.775.492-1.81.492m0-1.054q.786 0 1.293-.403.507-.402.75-1.058.244-.657.244-1.422t-.243-1.427a2.4 2.4 0 0 0-.751-1.07q-.508-.406-1.293-.407t-1.293.408a2.4 2.4 0 0 0-.75 1.069q-.244.66-.244 1.427 0 .765.244 1.422t.75 1.058q.508.403 1.293.403m10.064-2.227v-4.514h1.173V74h-1.173v-1.293h-.08a2.5 2.5 0 0 1-.835.99q-.567.402-1.432.402a2.55 2.55 0 0 1-1.272-.313 2.2 2.2 0 0 1-.875-.954q-.32-.641-.319-1.616v-4.852h1.174v4.772q0 .835.467 1.333.472.497 1.203.497.437 0 .89-.224.457-.224.766-.686.313-.462.313-1.178M89.937 74v-7.636h1.134v1.153h.08q.207-.567.755-.92a2.23 2.23 0 0 1 1.233-.353q.13 0 .323.005.195.006.293.015v1.193q-.06-.015-.273-.044a3 3 0 0 0-.443-.035q-.555 0-.994.234a1.76 1.76 0 0 0-.686.636 1.7 1.7 0 0 0-.249.92V74zm9.147 0v-7.636h1.173V74zm.596-8.91a.83.83 0 0 1-.591-.233.75.75 0 0 1-.244-.561.75.75 0 0 1 .244-.562.83.83 0 0 1 .591-.234q.343 0 .587.234a.74.74 0 0 1 .248.562.74.74 0 0 1-.248.561.82.82 0 0 1-.587.234m3.899 4.316V74h-1.173v-7.636h1.133v1.193h.1q.269-.582.815-.935.547-.358 1.412-.358.776 0 1.357.318.582.314.905.955.323.636.323 1.61V74h-1.173v-4.773q0-.9-.467-1.402-.468-.507-1.283-.507-.561 0-1.004.244a1.74 1.74 0 0 0-.691.71q-.254.468-.254 1.134m10.417-3.042v.994h-4.117v-.994zM111.112 74v-8.69q0-.657.309-1.094.308-.437.8-.656a2.5 2.5 0 0 1 1.039-.22q.433 0 .706.07t.408.13l-.338 1.014a6 6 0 0 0-.249-.075 1.5 1.5 0 0 0-.408-.044q-.58 0-.84.293-.253.294-.253.86V74zm7.316.16q-1.034 0-1.815-.493a3.35 3.35 0 0 1-1.213-1.377q-.432-.885-.432-2.068 0-1.194.432-2.084a3.34 3.34 0 0 1 1.213-1.382q.781-.492 1.815-.492t1.81.492q.78.494 1.213 1.382.437.89.437 2.084 0 1.183-.437 2.068a3.3 3.3 0 0 1-1.213 1.377q-.776.492-1.81.492m0-1.055q.786 0 1.293-.403a2.37 2.37 0 0 0 .75-1.058q.244-.657.244-1.422t-.244-1.427a2.4 2.4 0 0 0-.75-1.07q-.507-.406-1.293-.407t-1.293.408a2.4 2.4 0 0 0-.75 1.069q-.244.66-.244 1.427 0 .765.244 1.422.243.656.75 1.058.508.403 1.293.403m5.251.895v-7.636h1.134v1.153h.079q.21-.567.756-.92a2.23 2.23 0 0 1 1.233-.353q.13 0 .323.005.194.006.294.015v1.193a4 4 0 0 0-.274-.044 3 3 0 0 0-.442-.035q-.557 0-.995.234a1.712 1.712 0 0 0-.934 1.556V74zm5.209 0v-7.636h1.134v1.193h.099q.239-.612.771-.95.532-.343 1.278-.343.755 0 1.257.343.507.338.791.95h.079q.294-.592.88-.94.586-.353 1.407-.353 1.025 0 1.676.642.651.636.651 1.983V74h-1.173v-5.11q0-.846-.463-1.209a1.7 1.7 0 0 0-1.088-.363q-.805 0-1.248.487-.443.483-.443 1.223V74h-1.193v-5.23q0-.651-.422-1.05-.423-.402-1.089-.402-.458 0-.855.244a1.85 1.85 0 0 0-.637.676 2 2 0 0 0-.238.99V74zm14.415.179q-.725 0-1.317-.273a2.26 2.26 0 0 1-.94-.8q-.348-.528-.348-1.274 0-.656.259-1.063.258-.413.691-.647t.954-.348q.528-.12 1.059-.189.697-.09 1.129-.134.438-.05.636-.164.204-.114.204-.398v-.04q0-.735-.403-1.143-.397-.408-1.208-.408-.84 0-1.317.368t-.671.786l-1.114-.398q.298-.696.796-1.084a3 3 0 0 1 1.093-.547q.597-.159 1.174-.159.368 0 .845.09.482.084.929.353.453.269.751.81.298.542.298 1.452V74h-1.173v-1.034h-.06a2 2 0 0 1-.397.532q-.279.284-.741.482-.462.2-1.129.199m.179-1.054q.696 0 1.174-.273a1.87 1.87 0 0 0 .726-.706q.248-.433.248-.91v-1.074q-.075.09-.328.164a6 6 0 0 1-.577.124 26 26 0 0 1-1.123.15q-.458.06-.855.193a1.5 1.5 0 0 0-.637.393q-.238.258-.238.706 0 .612.452.925.458.308 1.158.308m8.784-6.761v.994h-3.957v-.994zm-2.804-1.83h1.173v7.278q0 .498.144.746.15.244.378.328.234.08.493.08.194 0 .318-.02l.199-.04.238 1.054q-.119.045-.333.09-.213.05-.542.05a2.4 2.4 0 0 1-.974-.214 1.94 1.94 0 0 1-.786-.652q-.308-.437-.308-1.103zM154.031 74v-7.636h1.173V74zm.596-8.91a.83.83 0 0 1-.591-.233.75.75 0 0 1-.244-.561q0-.33.244-.562a.83.83 0 0 1 .591-.234q.344 0 .587.234a.74.74 0 0 1 .249.562.74.74 0 0 1-.249.561.82.82 0 0 1-.587.234m5.828 9.07q-1.034 0-1.814-.493a3.34 3.34 0 0 1-1.213-1.377q-.433-.885-.433-2.068 0-1.194.433-2.084a3.33 3.33 0 0 1 1.213-1.382q.78-.492 1.814-.492t1.81.492q.78.494 1.213 1.382.438.89.438 2.084 0 1.183-.438 2.068a3.3 3.3 0 0 1-1.213 1.377q-.775.492-1.81.492m0-1.055q.786 0 1.293-.403a2.4 2.4 0 0 0 .751-1.058q.243-.657.243-1.422t-.243-1.427a2.4 2.4 0 0 0-.751-1.07q-.507-.406-1.293-.407t-1.292.408a2.4 2.4 0 0 0-.751 1.069q-.243.66-.243 1.427 0 .765.243 1.422.244.656.751 1.058.507.403 1.292.403m6.425-3.699V74h-1.173v-7.636h1.133v1.193h.1q.268-.582.815-.935.547-.358 1.412-.358.775 0 1.357.318.582.314.905.955.323.636.323 1.61V74h-1.173v-4.773q0-.9-.467-1.402-.468-.507-1.283-.507-.562 0-1.004.244a1.74 1.74 0 0 0-.691.71q-.254.468-.254 1.134m14.275-3.042v.994h-3.958v-.994zm-2.804-1.83h1.173v7.278q0 .498.144.746.15.244.378.328.234.08.492.08.194 0 .318-.02l.199-.04.239 1.054q-.12.045-.333.09-.214.05-.542.05-.497 0-.975-.214a1.94 1.94 0 0 1-.785-.652q-.308-.437-.308-1.103zm7.589 9.625q-1.034 0-1.815-.492a3.35 3.35 0 0 1-1.213-1.377q-.432-.885-.432-2.068 0-1.194.432-2.084a3.34 3.34 0 0 1 1.213-1.382q.78-.492 1.815-.492t1.809.492q.781.494 1.214 1.382.437.89.437 2.084 0 1.183-.437 2.068a3.3 3.3 0 0 1-1.214 1.377q-.775.492-1.809.492m0-1.054q.785 0 1.292-.403.508-.402.751-1.058.244-.657.244-1.422t-.244-1.427a2.4 2.4 0 0 0-.751-1.07q-.507-.406-1.292-.407-.786 0-1.293.408a2.4 2.4 0 0 0-.751 1.069q-.243.66-.243 1.427 0 .765.243 1.422.244.656.751 1.058.507.403 1.293.403m12.291 1.054q-1.074 0-1.85-.507a3.3 3.3 0 0 1-1.193-1.397q-.417-.89-.417-2.033 0-1.163.427-2.054a3.4 3.4 0 0 1 1.203-1.397q.776-.507 1.81-.507.805 0 1.452.299.646.297 1.059.835.412.537.512 1.253h-1.174q-.134-.522-.596-.925-.458-.408-1.233-.408-.687 0-1.203.358-.512.354-.801 1-.283.641-.283 1.506 0 .885.278 1.541.283.656.796 1.02.516.362 1.213.362.457 0 .83-.159a1.7 1.7 0 0 0 .999-1.173h1.174q-.1.675-.493 1.218a2.74 2.74 0 0 1-1.029.855q-.636.313-1.481.313m4.718-.159v-7.636h1.133v1.153h.08q.208-.567.756-.92a2.2 2.2 0 0 1 1.233-.353q.128 0 .323.005.194.006.293.015v1.193a4 4 0 0 0-.273-.044 3 3 0 0 0-.443-.035q-.557 0-.994.234a1.712 1.712 0 0 0-.935 1.556V74zm8.178.16q-1.104 0-1.904-.488a3.27 3.27 0 0 1-1.228-1.372q-.428-.885-.428-2.058 0-1.174.428-2.069.432-.9 1.203-1.402.775-.507 1.81-.507.596 0 1.178.2.582.198 1.059.645.477.443.761 1.174.283.73.283 1.8v.496h-5.886v-1.014h4.693q0-.645-.259-1.153a1.95 1.95 0 0 0-.725-.8q-.468-.294-1.104-.294-.702 0-1.213.348a2.3 2.3 0 0 0-.781.895 2.6 2.6 0 0 0-.273 1.183v.677q0 .864.298 1.466.303.597.84.91.537.308 1.248.308.463 0 .835-.13.378-.133.652-.397.273-.268.422-.666l1.134.318q-.18.578-.602 1.014-.423.433-1.044.677-.621.237-1.397.238m7.194.019a3.1 3.1 0 0 1-1.317-.273 2.26 2.26 0 0 1-.94-.8q-.348-.528-.348-1.274 0-.656.258-1.063.26-.413.691-.647.433-.234.955-.348.526-.12 1.059-.189.696-.09 1.129-.134.437-.05.636-.164.204-.114.204-.398v-.04q0-.735-.403-1.143-.398-.408-1.208-.408-.84 0-1.318.368-.476.368-.671.786l-1.113-.398q.298-.696.795-1.084a3 3 0 0 1 1.094-.547q.597-.159 1.173-.159.368 0 .845.09.483.084.93.353.453.269.751.81.298.542.298 1.452V74h-1.173v-1.034h-.06a2 2 0 0 1-.398.532q-.278.284-.74.482-.463.2-1.129.199m.179-1.054q.696 0 1.173-.273.483-.274.726-.706.249-.433.249-.91v-1.074q-.075.09-.328.164a6 6 0 0 1-.577.124 27 27 0 0 1-1.124.15q-.458.06-.855.193a1.5 1.5 0 0 0-.636.393q-.239.258-.239.706 0 .612.453.925.458.308 1.158.308m8.784-6.761v.994h-3.958v-.994zm-2.804-1.83h1.173v7.278q0 .498.144.746a.74.74 0 0 0 .378.328q.234.08.492.08.193 0 .318-.02l.199-.04.239 1.054q-.12.045-.333.09-.214.05-.542.05-.497 0-.975-.214a1.94 1.94 0 0 1-.785-.652q-.308-.437-.308-1.103zm7.688 9.625q-1.103 0-1.904-.487a3.27 3.27 0 0 1-1.228-1.372q-.428-.885-.428-2.058 0-1.174.428-2.069.432-.9 1.203-1.402.775-.507 1.81-.507.597 0 1.178.2.582.198 1.059.645.477.443.761 1.174.283.73.283 1.8v.496h-5.886v-1.014h4.693q0-.645-.259-1.153a1.95 1.95 0 0 0-.725-.8q-.468-.294-1.104-.294-.702 0-1.213.348a2.3 2.3 0 0 0-.781.895 2.6 2.6 0 0 0-.273 1.183v.677q0 .864.298 1.466.303.597.84.91.537.308 1.248.308.462 0 .835-.13.378-.133.652-.397.273-.268.422-.666l1.134.318q-.18.578-.602 1.014-.423.433-1.044.677-.621.237-1.397.238m11.132.02q-.726 0-1.318-.273a2.26 2.26 0 0 1-.94-.8q-.348-.528-.348-1.274 0-.656.259-1.063.258-.413.691-.647t.955-.348q.527-.12 1.058-.189.697-.09 1.129-.134.438-.05.636-.164.204-.114.204-.398v-.04q0-.735-.402-1.143-.398-.408-1.209-.408-.84 0-1.317.368t-.671.786l-1.114-.398q.298-.696.796-1.084a3 3 0 0 1 1.093-.547q.597-.159 1.174-.159.368 0 .845.09.481.084.93.353.451.269.75.81.299.542.299 1.452V74h-1.174v-1.034h-.059q-.12.249-.398.532-.279.284-.741.482-.462.2-1.128.199m.179-1.054q.696 0 1.173-.273a1.87 1.87 0 0 0 .726-.706q.248-.433.248-.91v-1.074q-.074.09-.328.164a6 6 0 0 1-.577.124 26 26 0 0 1-1.123.15q-.458.06-.855.193a1.5 1.5 0 0 0-.637.393q-.238.258-.238.706 0 .612.452.925.457.308 1.159.308m6.635-3.719V74h-1.173v-7.636h1.134v1.193h.099q.269-.582.815-.935.548-.358 1.412-.358.776 0 1.358.318.581.314.904.955.324.636.324 1.61V74h-1.174v-4.773q0-.9-.467-1.402-.468-.507-1.283-.507-.561 0-1.004.244a1.74 1.74 0 0 0-.691.71q-.254.468-.254 1.134M29.321 94.18q-.726 0-1.317-.273a2.26 2.26 0 0 1-.94-.8q-.348-.528-.348-1.274 0-.656.258-1.063.259-.414.692-.647t.954-.348q.526-.12 1.059-.189.696-.09 1.129-.134.436-.05.636-.164.204-.114.204-.398v-.04q0-.735-.403-1.143-.398-.408-1.208-.408-.84 0-1.317.368-.478.368-.672.786l-1.113-.398q.299-.696.795-1.084a3 3 0 0 1 1.094-.547 4.5 4.5 0 0 1 1.173-.159q.368 0 .845.09.483.084.93.353.453.268.75.81.3.542.299 1.452V94h-1.173v-1.034h-.06a2 2 0 0 1-.398.532q-.278.284-.74.482-.463.2-1.129.199m.179-1.054q.696 0 1.173-.273a1.86 1.86 0 0 0 .975-1.616v-1.074q-.076.09-.328.164a6 6 0 0 1-.577.124 26 26 0 0 1-1.124.15q-.457.06-.855.193a1.5 1.5 0 0 0-.636.393q-.24.258-.239.706 0 .612.453.925.457.308 1.158.308m8.565 1.034q-1.074 0-1.85-.507a3.3 3.3 0 0 1-1.193-1.397q-.417-.89-.417-2.033 0-1.163.427-2.054a3.4 3.4 0 0 1 1.203-1.397q.775-.507 1.81-.507.805 0 1.452.299.646.298 1.059.835t.512 1.253h-1.174q-.134-.522-.596-.925-.458-.408-1.233-.408-.687 0-1.203.358-.513.354-.8 1-.284.641-.284 1.506 0 .884.278 1.541.284.656.796 1.02.517.362 1.213.362.458 0 .83-.159.374-.159.631-.457.259-.3.368-.716h1.174q-.1.675-.492 1.218a2.75 2.75 0 0 1-1.03.855q-.636.313-1.481.313m7.82 0q-1.074 0-1.85-.507a3.3 3.3 0 0 1-1.192-1.397q-.418-.89-.418-2.033 0-1.163.428-2.054a3.4 3.4 0 0 1 1.203-1.397q.775-.507 1.81-.507.805 0 1.45.299.648.298 1.06.835t.512 1.253h-1.173q-.135-.522-.597-.925-.457-.408-1.233-.408-.685 0-1.203.358-.512.354-.8 1-.284.641-.284 1.506 0 .884.279 1.541.283.656.795 1.02.518.362 1.213.362.458 0 .83-.159.374-.159.632-.457.258-.3.368-.716h1.173q-.099.675-.492 1.218a2.75 2.75 0 0 1-1.03.855q-.636.313-1.48.313m7.82 0q-1.034 0-1.814-.492a3.35 3.35 0 0 1-1.213-1.377q-.433-.885-.433-2.068 0-1.194.433-2.084a3.34 3.34 0 0 1 1.213-1.382q.78-.492 1.814-.492t1.81.492q.78.494 1.213 1.382.438.89.438 2.084 0 1.183-.438 2.068a3.3 3.3 0 0 1-1.213 1.377q-.775.492-1.81.492m0-1.054q.786 0 1.293-.403.507-.402.75-1.058.244-.657.244-1.422t-.243-1.427a2.4 2.4 0 0 0-.751-1.07q-.507-.406-1.293-.407t-1.292.408a2.4 2.4 0 0 0-.75 1.069q-.244.66-.244 1.427 0 .765.243 1.422.244.656.75 1.058.509.403 1.293.403m10.064-2.227v-4.514h1.173V94H63.77v-1.293h-.08a2.5 2.5 0 0 1-.835.99q-.566.402-1.431.402a2.55 2.55 0 0 1-1.273-.313 2.2 2.2 0 0 1-.875-.954q-.318-.641-.318-1.616v-4.852h1.173v4.772q0 .835.467 1.333.473.497 1.203.497.438 0 .89-.224.457-.224.766-.686.313-.462.313-1.178m4.496-1.472V94H67.09v-7.636h1.134v1.193h.1q.267-.582.815-.935.546-.358 1.412-.358.776 0 1.357.318.582.314.905.955.323.636.323 1.61V94h-1.173v-4.773q0-.9-.468-1.402-.467-.507-1.282-.507-.562 0-1.005.244-.437.244-.69.71-.255.468-.254 1.134m10.337-3.042v.994h-3.958v-.994zm-2.804-1.83h1.173v7.278q0 .498.144.746.15.244.378.328.234.08.492.08.195 0 .319-.02l.198-.04.24 1.054q-.12.045-.334.09-.213.05-.542.05-.497 0-.974-.214a1.94 1.94 0 0 1-.786-.652q-.308-.437-.308-1.103zm5.424 9.545a.86.86 0 0 1-.631-.263.86.86 0 0 1-.264-.631q0-.369.264-.632a.86.86 0 0 1 .63-.263q.37 0 .632.263a.86.86 0 0 1 .264.632.927.927 0 0 1-.447.775.85.85 0 0 1-.448.12"/><path fill="#18181B" d="M27.119 135v-10.182h6.313v1.323h-4.777v3.102h4.325v1.317h-4.325V135zm8.083 0v-7.636h1.487V135zm.751-8.815a.95.95 0 0 1-.666-.258.84.84 0 0 1-.273-.627.83.83 0 0 1 .273-.626.93.93 0 0 1 .666-.263q.389 0 .661.263a.82.82 0 0 1 .279.626.84.84 0 0 1-.279.627.93.93 0 0 1-.66.258M38.69 135v-7.636h1.437v1.213h.08a1.85 1.85 0 0 1 .735-.97 2.1 2.1 0 0 1 1.203-.358 7 7 0 0 1 .631.035v1.422a3 3 0 0 0-.318-.055 3 3 0 0 0-.457-.035q-.528 0-.94.224a1.66 1.66 0 0 0-.885 1.497V135zm11.095-5.772-1.347.239a1.6 1.6 0 0 0-.269-.493 1.3 1.3 0 0 0-.487-.382q-.308-.15-.77-.15-.632 0-1.055.284-.422.278-.422.721 0 .382.283.616.284.234.915.383l1.213.278q1.055.244 1.571.751.517.507.517 1.318 0 .686-.398 1.223-.392.532-1.098.835-.702.303-1.626.303-1.283 0-2.093-.547-.81-.552-.994-1.566l1.437-.219q.134.562.551.851.418.283 1.09.283.73 0 1.167-.303.438-.309.438-.751a.78.78 0 0 0-.268-.602q-.264-.243-.81-.367l-1.294-.284q-1.069-.243-1.58-.775-.508-.532-.508-1.348 0-.675.378-1.183.378-.507 1.044-.79.666-.29 1.527-.289 1.237 0 1.948.537.711.532.94 1.427m5.348-1.864v1.193h-4.17v-1.193zm-3.052-1.83h1.486v7.224q0 .432.13.651.129.214.333.293.209.075.452.075a1.7 1.7 0 0 0 .313-.025q.135-.024.209-.04l.269 1.228a2.927 2.927 0 0 1-.965.159 2.6 2.6 0 0 1-1.094-.208 1.9 1.9 0 0 1-.82-.677q-.313-.456-.313-1.148zm9.888 4.932V135h-1.486v-7.636h1.427v1.243h.094q.263-.608.825-.975.567-.368 1.427-.368.78 0 1.367.328.587.323.91.965.323.64.323 1.586V135H65.37v-4.678q0-.83-.433-1.298-.432-.472-1.188-.472-.517 0-.92.224a1.6 1.6 0 0 0-.631.656q-.23.428-.229 1.034m9.103 4.703q-.726 0-1.312-.268a2.2 2.2 0 0 1-.93-.791q-.338-.517-.338-1.268 0-.646.249-1.064.248-.417.67-.661.423-.243.945-.368a9 9 0 0 1 1.064-.189l1.114-.129q.427-.054.621-.174.195-.119.194-.388v-.034q0-.652-.368-1.01-.363-.358-1.084-.358-.75 0-1.183.333-.428.329-.591.731l-1.397-.318q.248-.696.726-1.124a2.94 2.94 0 0 1 1.108-.626 4.3 4.3 0 0 1 1.318-.199q.457 0 .97.11.516.103.964.387.452.283.74.811.288.522.289 1.357V135h-1.452v-1.044h-.06q-.144.288-.432.567t-.741.462-1.084.184m.323-1.193q.617 0 1.054-.244.443-.243.672-.636.233-.398.233-.85v-.985q-.08.08-.308.15a5 5 0 0 1-.512.114q-.288.045-.562.084l-.457.06a3.7 3.7 0 0 0-.79.184 1.35 1.35 0 0 0-.568.373q-.208.239-.208.636 0 .552.407.835.407.279 1.04.279M76.82 135v-7.636h1.426v1.243h.095q.24-.632.78-.985.542-.358 1.298-.358.765 0 1.283.358a2.1 2.1 0 0 1 .77.985h.08q.273-.612.87-.975.597-.368 1.422-.368 1.04 0 1.695.651.66.652.661 1.964V135h-1.486v-4.982q0-.775-.423-1.123a1.54 1.54 0 0 0-1.009-.348q-.726 0-1.129.447-.402.443-.402 1.139V135h-1.482v-5.076q0-.621-.388-.999-.387-.378-1.009-.378-.423 0-.78.224a1.63 1.63 0 0 0-.572.611 1.9 1.9 0 0 0-.214.91V135zm15.664.154q-1.128 0-1.944-.482a3.28 3.28 0 0 1-1.253-1.367q-.437-.885-.437-2.073 0-1.174.437-2.069a3.4 3.4 0 0 1 1.233-1.397q.795-.502 1.86-.502.646 0 1.252.214a3 3 0 0 1 1.09.671q.48.457.76 1.188.278.727.278 1.765v.527h-6.07v-1.113h4.613q0-.587-.238-1.039a1.8 1.8 0 0 0-.671-.721 1.87 1.87 0 0 0-1.005-.264q-.626 0-1.093.308a2.1 2.1 0 0 0-.716.796 2.3 2.3 0 0 0-.249 1.059v.87q0 .765.269 1.302.273.537.76.821.488.278 1.139.278.422 0 .77-.119.348-.125.602-.368.253-.243.388-.602l1.407.254a2.55 2.55 0 0 1-.607 1.089 2.95 2.95 0 0 1-1.089.721q-.652.253-1.486.253"/><g filter="url(#b)"><path fill="#fff" d="M26 151a6 6 0 0 1 6-6h106a6 6 0 0 1 6 6v24a6 6 0 0 1-6 6H32a6 6 0 0 1-6-6z"/><path stroke="#E4E4E7" d="M32 145.5h106a5.5 5.5 0 0 1 5.5 5.5v24a5.5 5.5 0 0 1-5.5 5.5H32a5.5 5.5 0 0 1-5.5-5.5v-24a5.5 5.5 0 0 1 5.5-5.5Z"/><path fill="#71717A" d="M39.233 168v-10.182h3.44q1.199 0 1.96.433.764.427 1.133 1.158.367.73.367 1.631a3.6 3.6 0 0 1-.367 1.635 2.74 2.74 0 0 1-1.124 1.174q-.76.432-1.949.432h-2.466v-1.093h2.426q.82 0 1.318-.284a1.7 1.7 0 0 0 .72-.766q.23-.487.23-1.098t-.23-1.094a1.64 1.64 0 0 0-.725-.756q-.502-.278-1.333-.278h-2.167V168zm9.9-10.182V168h-1.172v-10.182zm4.397 10.361q-.726 0-1.318-.273a2.27 2.27 0 0 1-.94-.801q-.347-.526-.347-1.273 0-.656.258-1.064.26-.412.691-.646.433-.234.955-.348.526-.118 1.059-.189.696-.089 1.129-.134.436-.05.636-.164.204-.114.204-.398v-.04q0-.735-.403-1.143-.398-.408-1.208-.408-.84 0-1.318.368-.477.368-.67.786l-1.114-.398q.298-.696.795-1.084.503-.393 1.094-.547a4.5 4.5 0 0 1 1.173-.159q.368 0 .845.09.483.084.93.353.453.269.75.81.3.541.299 1.452V168h-1.173v-1.034h-.06q-.12.249-.398.532t-.74.482-1.129.199m.179-1.054q.696 0 1.173-.273.483-.274.726-.706.249-.433.249-.91v-1.074q-.075.09-.328.164a6 6 0 0 1-.577.124q-.324.05-.631.09-.304.035-.493.059-.457.06-.855.194a1.5 1.5 0 0 0-.636.393q-.24.258-.239.706 0 .612.453.925.456.308 1.158.308m8.565 1.034q-1.074 0-1.85-.507a3.3 3.3 0 0 1-1.193-1.397q-.417-.89-.417-2.033 0-1.164.427-2.054a3.4 3.4 0 0 1 1.203-1.397q.775-.507 1.81-.507.805 0 1.452.298.646.299 1.059.836t.512 1.253h-1.174q-.135-.523-.596-.925-.458-.408-1.233-.408-.687 0-1.203.358-.513.353-.8.999-.284.642-.284 1.507 0 .885.278 1.541.284.656.796 1.019.517.363 1.213.363.457 0 .83-.159.374-.159.631-.457.259-.299.368-.716h1.174q-.1.675-.493 1.218a2.75 2.75 0 0 1-1.029.855q-.636.313-1.481.313m7.92 0q-1.104 0-1.905-.487a3.27 3.27 0 0 1-1.228-1.372q-.427-.885-.427-2.059 0-1.173.427-2.068.433-.9 1.204-1.402.775-.507 1.81-.507.596 0 1.177.199.582.2 1.06.646.477.442.76 1.174.284.73.284 1.799v.498h-5.887v-1.015h4.693q0-.646-.258-1.153a1.94 1.94 0 0 0-.726-.8q-.468-.294-1.104-.294-.7 0-1.213.348a2.3 2.3 0 0 0-.78.895 2.6 2.6 0 0 0-.274 1.183v.676q0 .866.299 1.467.303.597.84.91.537.308 1.248.308.462 0 .835-.129a1.8 1.8 0 0 0 .651-.398q.273-.269.423-.666l1.133.318q-.18.577-.601 1.014-.423.433-1.044.676-.622.24-1.397.239m6.12-4.753V168H75.14v-10.182h1.174v3.739h.099q.268-.592.805-.94.542-.353 1.442-.353.78 0 1.367.313.587.308.91.95.328.636.328 1.621V168h-1.173v-4.773q0-.909-.472-1.407-.468-.502-1.298-.502-.577 0-1.034.244-.453.243-.716.711-.258.467-.258 1.133m10.2 4.753q-1.034 0-1.815-.492a3.34 3.34 0 0 1-1.213-1.377q-.432-.886-.432-2.068 0-1.194.432-2.084a3.35 3.35 0 0 1 1.213-1.382q.78-.492 1.815-.492t1.81.492a3.3 3.3 0 0 1 1.213 1.382q.437.89.437 2.084 0 1.183-.437 2.068a3.3 3.3 0 0 1-1.213 1.377q-.775.492-1.81.492m0-1.054q.786 0 1.293-.403a2.37 2.37 0 0 0 .75-1.059 4 4 0 0 0 .244-1.421q0-.766-.244-1.427a2.4 2.4 0 0 0-.75-1.069q-.508-.408-1.293-.408t-1.293.408a2.4 2.4 0 0 0-.75 1.069 4.1 4.1 0 0 0-.244 1.427q0 .765.244 1.421.243.657.75 1.059.508.403 1.293.403m6.425-9.287V168h-1.174v-10.182zm5.032 10.341q-.954 0-1.685-.482-.731-.487-1.144-1.372-.412-.891-.412-2.103 0-1.203.412-2.088.413-.885 1.149-1.368.735-.482 1.7-.482.746 0 1.178.249.438.243.666.557.234.308.363.507h.1v-3.759h1.173V168h-1.133v-1.173h-.14a8 8 0 0 1-.368.527q-.239.313-.68.561-.443.244-1.179.244m.16-1.054q.706 0 1.192-.368.487-.372.741-1.029.254-.661.254-1.526 0-.855-.249-1.497-.248-.646-.736-1.004-.487-.363-1.203-.363-.745 0-1.243.383a2.3 2.3 0 0 0-.74 1.029 4.1 4.1 0 0 0-.244 1.452q0 .815.248 1.481.255.661.746 1.054.498.388 1.233.388m8.854 1.054q-1.104 0-1.905-.487a3.3 3.3 0 0 1-1.228-1.372q-.427-.885-.427-2.059 0-1.173.427-2.068.433-.9 1.204-1.402.776-.507 1.809-.507.597 0 1.179.199.58.2 1.058.646.478.442.761 1.174.283.73.283 1.799v.498h-5.886v-1.015h4.693q0-.646-.258-1.153a1.94 1.94 0 0 0-.726-.8q-.468-.294-1.104-.294-.7 0-1.213.348a2.3 2.3 0 0 0-.78.895 2.6 2.6 0 0 0-.274 1.183v.676q0 .866.298 1.467.304.597.841.91.537.308 1.248.308.462 0 .835-.129.378-.135.651-.398a1.8 1.8 0 0 0 .423-.666l1.133.318q-.179.577-.601 1.014-.423.433-1.044.676-.622.24-1.397.239m4.946-.159v-7.636h1.134v1.153h.079a1.84 1.84 0 0 1 .756-.92 2.23 2.23 0 0 1 1.233-.353q.13 0 .323.005.194.006.293.015v1.193a4 4 0 0 0-.273-.044 2.6 2.6 0 0 0-.442-.035q-.558 0-.995.234a1.711 1.711 0 0 0-.934 1.556V168z"/></g><path fill="#18181B" d="M161.119 135v-10.182h1.536v8.86h4.613V135zm10.005.169q-.726 0-1.313-.268a2.2 2.2 0 0 1-.929-.791q-.338-.517-.338-1.268 0-.646.248-1.064.25-.417.671-.661a3.5 3.5 0 0 1 .945-.368 9 9 0 0 1 1.064-.189l1.114-.129q.428-.054.621-.174.194-.119.194-.388v-.034q0-.652-.368-1.01-.363-.358-1.084-.358-.75 0-1.183.333-.427.329-.592.731l-1.397-.318q.249-.696.726-1.124a2.95 2.95 0 0 1 1.109-.626 4.3 4.3 0 0 1 1.317-.199q.457 0 .97.11.517.103.964.387.453.283.741.811.288.522.288 1.357V135h-1.451v-1.044h-.06q-.144.288-.432.567a2.3 2.3 0 0 1-.741.462q-.453.184-1.084.184m.323-1.193q.616 0 1.054-.244.443-.243.671-.636a1.65 1.65 0 0 0 .234-.85v-.985q-.08.08-.308.15-.224.065-.512.114-.29.045-.562.084l-.458.06a3.7 3.7 0 0 0-.79.184q-.353.129-.567.373-.209.239-.209.636 0 .552.408.835.408.279 1.039.279m11.148-4.748-1.348.239a1.6 1.6 0 0 0-.268-.493 1.3 1.3 0 0 0-.487-.382q-.309-.15-.771-.15-.631 0-1.054.284-.423.278-.423.721 0 .382.284.616t.915.383l1.213.278q1.053.244 1.571.751.516.507.517 1.318 0 .686-.398 1.223-.393.532-1.099.835-.7.303-1.625.303-1.283 0-2.093-.547-.811-.552-.995-1.566l1.437-.219q.134.562.552.851.417.283 1.089.283.73 0 1.168-.303.438-.309.438-.751a.78.78 0 0 0-.269-.602q-.264-.243-.81-.367l-1.293-.284q-1.07-.243-1.581-.775-.507-.532-.507-1.348 0-.675.378-1.183.378-.507 1.044-.79.666-.29 1.526-.289 1.238 0 1.949.537.71.532.94 1.427m5.348-1.864v1.193h-4.171v-1.193zm-3.053-1.83h1.487v7.224q0 .432.129.651a.67.67 0 0 0 .333.293q.208.075.453.075.178 0 .313-.025.134-.024.209-.04l.268 1.228a2.925 2.925 0 0 1-.964.159 2.6 2.6 0 0 1-1.094-.208 1.9 1.9 0 0 1-.821-.677q-.312-.456-.313-1.148zm9.889 4.932V135h-1.487v-7.636h1.427v1.243h.095q.262-.608.825-.975.566-.368 1.427-.368.78 0 1.367.328a2.2 2.2 0 0 1 .91.965q.323.64.323 1.586V135h-1.487v-4.678q0-.83-.432-1.298-.434-.472-1.188-.472-.518 0-.92.224a1.6 1.6 0 0 0-.632.656q-.228.428-.228 1.034m9.103 4.703a3.1 3.1 0 0 1-1.313-.268 2.2 2.2 0 0 1-.929-.791q-.339-.517-.339-1.268 0-.646.249-1.064.25-.417.671-.661a3.5 3.5 0 0 1 .945-.368 9 9 0 0 1 1.064-.189l1.113-.129q.428-.054.622-.174.194-.119.194-.388v-.034q0-.652-.368-1.01-.363-.358-1.084-.358-.75 0-1.183.333-.427.329-.592.731l-1.397-.318q.249-.696.726-1.124a2.95 2.95 0 0 1 1.109-.626 4.3 4.3 0 0 1 1.317-.199q.457 0 .97.11.517.103.964.387.453.283.741.811.288.522.288 1.357V135h-1.451v-1.044h-.06a2.1 2.1 0 0 1-.433.567 2.3 2.3 0 0 1-.74.462q-.453.184-1.084.184m.323-1.193q.616 0 1.054-.244.443-.243.671-.636a1.65 1.65 0 0 0 .234-.85v-.985q-.08.08-.309.15a5 5 0 0 1-.512.114q-.288.045-.561.084l-.458.06a3.7 3.7 0 0 0-.79.184q-.354.129-.567.373-.209.239-.209.636 0 .552.408.835.408.279 1.039.279M209.63 135v-7.636h1.427v1.243h.094q.24-.632.781-.985.542-.358 1.298-.358.765 0 1.282.358.522.358.771.985h.079q.275-.612.87-.975.597-.368 1.422-.368 1.04 0 1.696.651.66.652.661 1.964V135h-1.487v-4.982q0-.775-.422-1.123a1.54 1.54 0 0 0-1.009-.348q-.726 0-1.129.447-.403.443-.403 1.139V135h-1.481v-5.076q0-.621-.388-.999t-1.009-.378a1.44 1.44 0 0 0-.781.224 1.64 1.64 0 0 0-.572.611 1.9 1.9 0 0 0-.213.91V135zm15.664.154q-1.128 0-1.944-.482a3.28 3.28 0 0 1-1.252-1.367q-.438-.885-.438-2.073 0-1.174.438-2.069a3.4 3.4 0 0 1 1.233-1.397q.795-.502 1.859-.502.646 0 1.253.214t1.089.671.76 1.188q.279.727.279 1.765v.527H222.5v-1.113h4.614q0-.587-.239-1.039a1.8 1.8 0 0 0-.671-.721 1.87 1.87 0 0 0-1.004-.264q-.627 0-1.094.308a2.1 2.1 0 0 0-.716.796 2.3 2.3 0 0 0-.248 1.059v.87q0 .765.268 1.302.273.537.761.821a2.26 2.26 0 0 0 1.138.278q.423 0 .771-.119a1.589 1.589 0 0 0 .989-.97l1.407.254a2.55 2.55 0 0 1-.606 1.089 3 3 0 0 1-1.089.721q-.651.253-1.487.253"/><g filter="url(#c)"><path fill="#fff" d="M160 151a6 6 0 0 1 6-6h106a6 6 0 0 1 6 6v24a6 6 0 0 1-6 6H166a6 6 0 0 1-6-6z"/><path stroke="#E4E4E7" d="M166 145.5h106a5.5 5.5 0 0 1 5.5 5.5v24a5.5 5.5 0 0 1-5.5 5.5H166a5.5 5.5 0 0 1-5.5-5.5v-24a5.5 5.5 0 0 1 5.5-5.5Z"/><path fill="#71717A" d="M173.233 168v-10.182h3.44q1.199 0 1.959.433a2.7 2.7 0 0 1 1.134 1.158q.368.73.368 1.631 0 .9-.368 1.635a2.74 2.74 0 0 1-1.124 1.174q-.76.432-1.949.432h-2.466v-1.093h2.426q.82 0 1.318-.284a1.7 1.7 0 0 0 .721-.766q.228-.487.228-1.098a2.5 2.5 0 0 0-.228-1.094 1.64 1.64 0 0 0-.726-.756q-.502-.278-1.332-.278h-2.168V168zm9.901-10.182V168h-1.173v-10.182zm4.396 10.361q-.726 0-1.317-.273a2.26 2.26 0 0 1-.94-.801q-.348-.526-.348-1.273 0-.656.258-1.064.26-.412.691-.646.433-.234.955-.348.526-.118 1.059-.189.696-.089 1.129-.134.436-.05.636-.164.204-.114.204-.398v-.04q0-.735-.403-1.143-.398-.408-1.208-.408-.84 0-1.318.368-.476.368-.671.786l-1.113-.398q.299-.696.795-1.084a3 3 0 0 1 1.094-.547 4.6 4.6 0 0 1 1.173-.159q.368 0 .845.09.483.084.93.353.453.269.751.81t.298 1.452V168h-1.173v-1.034h-.06a2 2 0 0 1-.398.532q-.278.284-.74.482-.463.2-1.129.199m.179-1.054q.696 0 1.173-.273a1.86 1.86 0 0 0 .975-1.616v-1.074q-.075.09-.328.164a6 6 0 0 1-.577.124q-.324.05-.632.09-.303.035-.492.059-.458.06-.855.194a1.47 1.47 0 0 0-.636.393q-.239.258-.239.706 0 .612.453.925.458.308 1.158.308m8.565 1.034q-1.074 0-1.85-.507a3.3 3.3 0 0 1-1.193-1.397q-.417-.89-.417-2.033 0-1.164.427-2.054a3.4 3.4 0 0 1 1.203-1.397q.776-.507 1.81-.507.805 0 1.452.298.645.299 1.059.836.412.537.512 1.253h-1.174q-.134-.523-.596-.925-.457-.408-1.233-.408-.687 0-1.203.358-.513.353-.801.999-.283.642-.283 1.507 0 .885.278 1.541.283.656.796 1.019.517.363 1.213.363.457 0 .83-.159a1.7 1.7 0 0 0 .999-1.173h1.174q-.1.675-.493 1.218a2.74 2.74 0 0 1-1.029.855q-.636.313-1.481.313m7.92 0q-1.104 0-1.905-.487a3.3 3.3 0 0 1-1.228-1.372q-.427-.885-.427-2.059 0-1.173.427-2.068.433-.9 1.204-1.402.776-.507 1.809-.507.597 0 1.178.199.582.2 1.059.646.478.442.761 1.174.283.73.283 1.799v.498h-5.886v-1.015h4.693q0-.646-.258-1.153a1.94 1.94 0 0 0-.726-.8q-.468-.294-1.104-.294-.7 0-1.213.348a2.3 2.3 0 0 0-.78.895 2.6 2.6 0 0 0-.274 1.183v.676q0 .866.298 1.467.304.597.841.91.537.308 1.248.308.462 0 .835-.129.378-.135.651-.398a1.8 1.8 0 0 0 .423-.666l1.133.318q-.179.577-.601 1.014-.423.433-1.044.676-.622.24-1.397.239m6.12-4.753V168h-1.174v-10.182h1.174v3.739h.099q.268-.592.805-.94.543-.353 1.442-.353.781 0 1.367.313.587.308.91.95.328.636.328 1.621V168h-1.173v-4.773q0-.909-.472-1.407-.468-.502-1.298-.502a2.16 2.16 0 0 0-1.034.244q-.452.243-.716.711-.258.467-.258 1.133m10.2 4.753q-1.034 0-1.815-.492a3.35 3.35 0 0 1-1.213-1.377q-.432-.886-.432-2.068 0-1.194.432-2.084a3.35 3.35 0 0 1 1.213-1.382q.781-.492 1.815-.492t1.81.492q.78.493 1.213 1.382.437.89.437 2.084 0 1.183-.437 2.068a3.3 3.3 0 0 1-1.213 1.377q-.776.492-1.81.492m0-1.054q.786 0 1.293-.403.507-.402.75-1.059.244-.656.244-1.421 0-.766-.244-1.427a2.4 2.4 0 0 0-.75-1.069q-.507-.408-1.293-.408t-1.293.408a2.4 2.4 0 0 0-.75 1.069 4.1 4.1 0 0 0-.244 1.427q0 .765.244 1.421.243.657.75 1.059.507.403 1.293.403m6.425-9.287V168h-1.174v-10.182zm5.032 10.341q-.954 0-1.685-.482-.732-.487-1.144-1.372-.412-.891-.412-2.103 0-1.203.412-2.088t1.149-1.368q.735-.482 1.7-.482.746 0 1.178.249.438.243.666.557.234.308.363.507h.1v-3.759h1.173V168h-1.133v-1.173h-.14a7 7 0 0 1-.368.527 2.2 2.2 0 0 1-.681.561q-.442.244-1.178.244m.159-1.054q.707 0 1.193-.368.487-.372.741-1.029.254-.661.254-1.526 0-.855-.249-1.497-.249-.646-.736-1.004-.487-.363-1.203-.363-.745 0-1.243.383a2.3 2.3 0 0 0-.741 1.029 4.1 4.1 0 0 0-.243 1.452q0 .815.248 1.481.254.661.746 1.054.498.388 1.233.388m8.855 1.054q-1.104 0-1.905-.487a3.3 3.3 0 0 1-1.228-1.372q-.427-.885-.427-2.059 0-1.173.427-2.068.433-.9 1.204-1.402.775-.507 1.809-.507.597 0 1.179.199.58.2 1.058.646.478.442.761 1.174.283.73.283 1.799v.498h-5.886v-1.015h4.693q0-.646-.258-1.153a1.94 1.94 0 0 0-.726-.8q-.468-.294-1.104-.294-.7 0-1.213.348a2.3 2.3 0 0 0-.78.895 2.6 2.6 0 0 0-.274 1.183v.676q0 .866.298 1.467.304.597.841.91.537.308 1.248.308.462 0 .835-.129.378-.135.651-.398a1.8 1.8 0 0 0 .423-.666l1.133.318q-.179.577-.601 1.014-.423.433-1.044.676-.622.24-1.397.239m4.946-.159v-7.636h1.134v1.153h.079a1.84 1.84 0 0 1 .756-.92 2.23 2.23 0 0 1 1.233-.353q.13 0 .323.005.194.006.293.015v1.193a4 4 0 0 0-.273-.044 2.6 2.6 0 0 0-.442-.035q-.558 0-.995.234a1.711 1.711 0 0 0-.934 1.556V168z"/></g><path fill="#18181B" d="M27.119 209v-10.182h6.383v1.323h-4.847v3.102h4.514v1.317h-4.514v3.118h4.907V209zm8.316 0v-7.636h1.427v1.243h.094q.24-.632.78-.985.543-.358 1.298-.358.765 0 1.283.358a2.1 2.1 0 0 1 .77.985h.08q.273-.612.87-.975.597-.368 1.422-.368 1.04 0 1.695.651.661.652.661 1.964V209H44.33v-4.982q0-.775-.423-1.123a1.54 1.54 0 0 0-1.009-.348q-.726 0-1.128.447-.403.443-.403 1.139V209h-1.482v-5.076q0-.621-.387-.999-.388-.378-1.01-.378-.422 0-.78.224a1.63 1.63 0 0 0-.572.611 1.9 1.9 0 0 0-.214.91V209zm14.595.169q-.726 0-1.312-.268a2.2 2.2 0 0 1-.93-.791q-.338-.517-.338-1.268 0-.646.248-1.064.249-.417.672-.661.422-.243.944-.368a9 9 0 0 1 1.064-.189l1.114-.129q.427-.054.621-.174.195-.119.194-.388v-.034q0-.652-.368-1.01-.363-.358-1.084-.358-.75 0-1.183.333-.428.329-.591.731l-1.397-.318q.248-.696.725-1.124a2.95 2.95 0 0 1 1.11-.626 4.3 4.3 0 0 1 1.317-.199q.458 0 .969.11.517.103.965.387.452.283.74.811.29.522.289 1.357V209h-1.452v-1.044h-.06q-.144.288-.432.567t-.741.462-1.084.184m.323-1.193q.617 0 1.054-.244.443-.243.672-.636.233-.398.233-.85v-.985q-.08.08-.308.15a5 5 0 0 1-.512.114q-.288.045-.562.084l-.457.06a3.7 3.7 0 0 0-.79.184 1.35 1.35 0 0 0-.568.373q-.208.239-.208.636 0 .552.407.835.408.279 1.04.279M55.78 209v-7.636h1.486V209zm.75-8.815a.95.95 0 0 1-.666-.258.84.84 0 0 1-.273-.627.83.83 0 0 1 .273-.626.93.93 0 0 1 .666-.263q.389 0 .661.263a.82.82 0 0 1 .279.626.84.84 0 0 1-.279.627.93.93 0 0 1-.66.258m4.222-1.367V209h-1.486v-10.182z"/><g filter="url(#d)"><path fill="#fff" d="M26 225a6 6 0 0 1 6-6h240a6 6 0 0 1 6 6v24a6 6 0 0 1-6 6H32a6 6 0 0 1-6-6z"/><path stroke="#E4E4E7" d="M32 219.5h240a5.5 5.5 0 0 1 5.5 5.5v24a5.5 5.5 0 0 1-5.5 5.5H32a5.5 5.5 0 0 1-5.5-5.5v-24a5.5 5.5 0 0 1 5.5-5.5Z"/><path fill="#71717A" d="M39.233 242v-10.182h3.44q1.199 0 1.96.433.764.427 1.133 1.158.367.73.367 1.631a3.6 3.6 0 0 1-.367 1.635 2.74 2.74 0 0 1-1.124 1.174q-.76.432-1.949.432h-2.466v-1.093h2.426q.82 0 1.318-.284a1.7 1.7 0 0 0 .72-.766q.23-.487.23-1.098t-.23-1.094a1.64 1.64 0 0 0-.725-.756q-.502-.278-1.333-.278h-2.167V242zm9.9-10.182V242h-1.172v-10.182zm4.397 10.361q-.726 0-1.318-.273a2.27 2.27 0 0 1-.94-.801q-.347-.526-.347-1.273 0-.656.258-1.064.26-.412.691-.646.433-.234.955-.348.526-.119 1.059-.189.696-.089 1.129-.134.436-.05.636-.164.204-.114.204-.398v-.04q0-.735-.403-1.143-.398-.408-1.208-.408-.84 0-1.318.368-.477.368-.67.786l-1.114-.398q.298-.696.795-1.084.503-.393 1.094-.547a4.5 4.5 0 0 1 1.173-.159q.368 0 .845.09.483.084.93.353.453.269.75.81.3.542.299 1.452V242h-1.173v-1.034h-.06q-.12.249-.398.532t-.74.482-1.129.199m.179-1.054q.696 0 1.173-.273.483-.274.726-.706.249-.433.249-.91v-1.074q-.075.09-.328.164a6 6 0 0 1-.577.124q-.324.05-.631.09-.304.035-.493.059-.457.06-.855.194a1.5 1.5 0 0 0-.636.393q-.24.258-.239.706 0 .612.453.925.456.308 1.158.308m8.565 1.034q-1.074 0-1.85-.507a3.3 3.3 0 0 1-1.193-1.397q-.417-.89-.417-2.033 0-1.163.427-2.054a3.4 3.4 0 0 1 1.203-1.397q.775-.507 1.81-.507.805 0 1.452.298.646.299 1.059.836t.512 1.253h-1.174q-.135-.523-.596-.925-.458-.408-1.233-.408-.687 0-1.203.358-.513.353-.8.999-.284.642-.284 1.507 0 .885.278 1.541.284.656.796 1.019.517.363 1.213.363.457 0 .83-.159.374-.159.631-.457.259-.299.368-.716h1.174q-.1.675-.493 1.218a2.75 2.75 0 0 1-1.029.855q-.636.313-1.481.313m7.92 0q-1.104 0-1.905-.487a3.27 3.27 0 0 1-1.228-1.372q-.427-.885-.427-2.059 0-1.173.427-2.068.433-.9 1.204-1.402.775-.507 1.81-.507.596 0 1.177.199.582.2 1.06.646.477.442.76 1.174.284.73.284 1.799v.498h-5.887v-1.015h4.693q0-.646-.258-1.153a1.94 1.94 0 0 0-.726-.8q-.468-.294-1.104-.294-.7 0-1.213.348a2.3 2.3 0 0 0-.78.895 2.6 2.6 0 0 0-.274 1.183v.676q0 .866.299 1.467.303.597.84.91.537.308 1.248.308.462 0 .835-.129a1.8 1.8 0 0 0 .651-.398q.273-.269.423-.666l1.133.318q-.18.577-.601 1.014-.423.433-1.044.676-.622.24-1.397.239m6.12-4.753V242H75.14v-10.182h1.174v3.739h.099q.268-.592.805-.94.542-.353 1.442-.353.78 0 1.367.313.587.308.91.95.328.636.328 1.621V242h-1.173v-4.773q0-.909-.472-1.407-.468-.502-1.298-.502-.577 0-1.034.244-.453.243-.716.711-.258.467-.258 1.133m10.2 4.753q-1.034 0-1.815-.492a3.34 3.34 0 0 1-1.213-1.377q-.432-.886-.432-2.068 0-1.194.432-2.084a3.35 3.35 0 0 1 1.213-1.382q.78-.492 1.815-.492t1.81.492a3.3 3.3 0 0 1 1.213 1.382q.437.89.437 2.084 0 1.183-.437 2.068a3.3 3.3 0 0 1-1.213 1.377q-.775.492-1.81.492m0-1.054q.786 0 1.293-.403a2.37 2.37 0 0 0 .75-1.059 4 4 0 0 0 .244-1.421q0-.766-.244-1.427a2.4 2.4 0 0 0-.75-1.069q-.508-.408-1.293-.408t-1.293.408a2.4 2.4 0 0 0-.75 1.069 4.1 4.1 0 0 0-.244 1.427q0 .765.244 1.421.243.657.75 1.059.508.403 1.293.403m6.425-9.287V242h-1.174v-10.182zm5.032 10.341q-.954 0-1.685-.482-.731-.487-1.144-1.372-.412-.891-.412-2.103 0-1.203.412-2.088.413-.885 1.149-1.368.735-.482 1.7-.482.746 0 1.178.249.438.243.666.557.234.308.363.507h.1v-3.759h1.173V242h-1.133v-1.173h-.14a8 8 0 0 1-.368.527q-.239.313-.68.561-.443.244-1.179.244m.16-1.054q.706 0 1.192-.368.487-.372.741-1.029.254-.661.254-1.526 0-.855-.249-1.497-.248-.646-.736-1.004-.487-.363-1.203-.363-.745 0-1.243.383a2.3 2.3 0 0 0-.74 1.029 4.1 4.1 0 0 0-.244 1.452q0 .815.248 1.481.255.661.746 1.054.498.388 1.233.388m8.854 1.054q-1.104 0-1.905-.487a3.3 3.3 0 0 1-1.228-1.372q-.427-.885-.427-2.059 0-1.173.427-2.068.433-.9 1.204-1.402.776-.507 1.809-.507.597 0 1.179.199.58.2 1.058.646.478.442.761 1.174.283.73.283 1.799v.498h-5.886v-1.015h4.693q0-.646-.258-1.153a1.94 1.94 0 0 0-.726-.8q-.468-.294-1.104-.294-.7 0-1.213.348a2.3 2.3 0 0 0-.78.895 2.6 2.6 0 0 0-.274 1.183v.676q0 .866.298 1.467.304.597.841.91.537.308 1.248.308.462 0 .835-.129.378-.135.651-.398a1.8 1.8 0 0 0 .423-.666l1.133.318q-.179.577-.601 1.014-.423.433-1.044.676-.622.24-1.397.239m4.946-.159v-7.636h1.134v1.153h.079a1.84 1.84 0 0 1 .756-.92 2.23 2.23 0 0 1 1.233-.353q.13 0 .323.005.194.006.293.015v1.193a4 4 0 0 0-.273-.044 2.6 2.6 0 0 0-.442-.035q-.558 0-.995.234a1.711 1.711 0 0 0-.934 1.556V242z"/></g><path fill="#18181B" d="M27.119 283v-10.182h3.629q1.188 0 1.969.433.78.432 1.168 1.183.388.746.388 1.68 0 .94-.393 1.691-.389.745-1.173 1.183-.78.432-1.964.432h-2.496v-1.302h2.357q.75 0 1.218-.259.467-.263.686-.716t.219-1.029q0-.577-.22-1.024a1.57 1.57 0 0 0-.69-.701q-.468-.253-1.233-.253h-1.93V283zm10.99.169q-.727 0-1.313-.268a2.2 2.2 0 0 1-.93-.791q-.338-.517-.338-1.268 0-.646.249-1.064.249-.417.67-.661.423-.243.945-.368a9 9 0 0 1 1.064-.189l1.114-.129q.428-.054.621-.174.195-.119.194-.388v-.034q0-.652-.368-1.01-.363-.358-1.083-.358-.75 0-1.184.333-.427.329-.591.731l-1.397-.318q.247-.695.726-1.124a2.94 2.94 0 0 1 1.108-.626 4.3 4.3 0 0 1 1.318-.199q.457 0 .97.11.516.103.964.387.452.283.74.811.29.522.289 1.357V283h-1.452v-1.044h-.06q-.144.288-.432.567-.289.277-.74.462-.453.184-1.085.184m.322-1.193q.617 0 1.054-.244.443-.243.672-.636.233-.398.233-.85v-.985q-.08.08-.308.15-.224.065-.512.114-.289.045-.562.084l-.457.06a3.7 3.7 0 0 0-.79.184 1.35 1.35 0 0 0-.568.373q-.208.238-.208.636 0 .552.407.835.407.279 1.04.279m11.148-4.748-1.347.239a1.6 1.6 0 0 0-.269-.493 1.3 1.3 0 0 0-.487-.382q-.309-.15-.77-.15-.633 0-1.055.284-.422.278-.422.721 0 .382.283.616.284.234.915.383l1.213.278q1.054.244 1.571.751t.517 1.318q0 .686-.398 1.223-.392.531-1.098.835-.702.303-1.626.303-1.283 0-2.093-.547-.81-.552-.994-1.566l1.436-.219q.135.562.552.851.418.283 1.09.283.73 0 1.167-.303.438-.309.438-.751a.78.78 0 0 0-.269-.602q-.263-.243-.81-.367l-1.293-.284q-1.069-.244-1.58-.775-.508-.532-.508-1.348 0-.676.378-1.183t1.044-.79q.666-.29 1.526-.289 1.238 0 1.95.537.71.532.939 1.427m7.506 0-1.347.239a1.6 1.6 0 0 0-.269-.493 1.3 1.3 0 0 0-.487-.382q-.309-.15-.77-.15-.633 0-1.055.284-.422.278-.422.721 0 .382.283.616t.915.383l1.213.278q1.054.244 1.571.751t.517 1.318q0 .686-.398 1.223-.392.531-1.098.835-.702.303-1.626.303-1.283 0-2.093-.547-.81-.552-.994-1.566l1.436-.219q.135.562.552.851.419.283 1.089.283.731 0 1.168-.303.438-.309.438-.751a.78.78 0 0 0-.269-.602q-.263-.243-.81-.367l-1.293-.284q-1.069-.244-1.58-.775-.508-.532-.508-1.348 0-.676.378-1.183t1.044-.79q.666-.29 1.526-.289 1.238 0 1.95.537.71.532.939 1.427M60.524 283l-2.247-7.636h1.536l1.496 5.608h.075l1.502-5.608h1.536l1.491 5.583h.075l1.486-5.583h1.536L66.768 283h-1.516l-1.551-5.513h-.114L62.035 283zm12.881.154q-1.074 0-1.874-.492a3.3 3.3 0 0 1-1.243-1.377q-.442-.885-.442-2.068 0-1.189.442-2.079a3.3 3.3 0 0 1 1.243-1.382q.8-.492 1.874-.492t1.875.492q.8.493 1.242 1.382.443.89.443 2.079 0 1.183-.443 2.068a3.3 3.3 0 0 1-1.242 1.377q-.801.492-1.875.492m.005-1.248q.696 0 1.154-.368.457-.367.676-.979.224-.612.224-1.347 0-.731-.224-1.343a2.2 2.2 0 0 0-.676-.989q-.458-.373-1.154-.373-.7 0-1.163.373a2.2 2.2 0 0 0-.681.989 4 4 0 0 0-.219 1.343q0 .735.219 1.347.224.612.681.979.462.369 1.163.368M78.624 283v-7.636h1.437v1.213h.08a1.85 1.85 0 0 1 .735-.97 2.1 2.1 0 0 1 1.203-.358 7 7 0 0 1 .632.035v1.422a3 3 0 0 0-.318-.055 3 3 0 0 0-.458-.035q-.526 0-.94.224a1.66 1.66 0 0 0-.884 1.497V283zm7.959.149a2.96 2.96 0 0 1-1.651-.472q-.72-.477-1.133-1.357-.408-.885-.408-2.123t.412-2.118q.418-.88 1.144-1.347a2.97 2.97 0 0 1 1.645-.468q.712 0 1.144.239.438.234.676.547.243.313.378.552h.09v-3.784h1.486V283h-1.452v-1.188h-.124q-.135.243-.388.557a2.2 2.2 0 0 1-.686.546q-.438.234-1.133.234m.328-1.268q.64 0 1.084-.338.447-.343.676-.949.233-.607.233-1.412 0-.796-.228-1.392-.23-.597-.672-.93t-1.093-.333q-.671 0-1.119.348a2.13 2.13 0 0 0-.676.95q-.225.601-.224 1.357 0 .765.229 1.377t.676.969q.453.353 1.114.353"/><g filter="url(#e)"><path fill="#fff" d="M26 299a6 6 0 0 1 6-6h240a6 6 0 0 1 6 6v24a6 6 0 0 1-6 6H32a6 6 0 0 1-6-6z"/><path stroke="#E4E4E7" d="M32 293.5h240a5.5 5.5 0 0 1 5.5 5.5v24a5.5 5.5 0 0 1-5.5 5.5H32a5.5 5.5 0 0 1-5.5-5.5v-24a5.5 5.5 0 0 1 5.5-5.5Z"/><path fill="#71717A" d="M39.233 316v-10.182h3.44q1.199 0 1.96.433.764.428 1.133 1.158.367.73.367 1.631a3.6 3.6 0 0 1-.367 1.635 2.74 2.74 0 0 1-1.124 1.174q-.76.432-1.949.432h-2.466v-1.093h2.426q.82 0 1.318-.284a1.7 1.7 0 0 0 .72-.766q.23-.487.23-1.098t-.23-1.094a1.64 1.64 0 0 0-.725-.756q-.502-.278-1.333-.278h-2.167V316zm9.9-10.182V316h-1.172v-10.182zm4.397 10.361q-.726 0-1.318-.273a2.27 2.27 0 0 1-.94-.801q-.347-.526-.347-1.273 0-.656.258-1.064.26-.412.691-.646.433-.234.955-.348.526-.119 1.059-.189.696-.089 1.129-.134.436-.05.636-.164.204-.114.204-.398v-.04q0-.735-.403-1.143-.398-.408-1.208-.408-.84 0-1.318.368-.477.368-.67.786l-1.114-.398q.298-.696.795-1.084.503-.393 1.094-.547a4.5 4.5 0 0 1 1.173-.159q.368 0 .845.09.483.084.93.353.453.269.75.81.3.541.299 1.452V316h-1.173v-1.034h-.06q-.12.249-.398.532t-.74.482-1.129.199m.179-1.054q.696 0 1.173-.273.483-.274.726-.706.249-.433.249-.91v-1.074q-.075.09-.328.164a6 6 0 0 1-.577.124q-.324.05-.631.09-.304.035-.493.059-.457.06-.855.194a1.5 1.5 0 0 0-.636.393q-.24.259-.239.706 0 .612.453.925.456.308 1.158.308m8.565 1.034q-1.074 0-1.85-.507a3.3 3.3 0 0 1-1.193-1.397q-.417-.89-.417-2.033 0-1.163.427-2.054a3.4 3.4 0 0 1 1.203-1.397q.775-.507 1.81-.507.805 0 1.452.298.646.299 1.059.836t.512 1.253h-1.174q-.135-.522-.596-.925-.458-.408-1.233-.408-.687 0-1.203.358-.513.353-.8.999-.284.642-.284 1.507 0 .885.278 1.541.284.656.796 1.019.517.363 1.213.363.457 0 .83-.159.374-.159.631-.457.259-.299.368-.716h1.174q-.1.675-.493 1.218a2.75 2.75 0 0 1-1.029.855q-.636.313-1.481.313m7.92 0q-1.104 0-1.905-.487a3.27 3.27 0 0 1-1.228-1.372q-.427-.885-.427-2.059 0-1.173.427-2.068.433-.9 1.204-1.402.775-.507 1.81-.507.596 0 1.177.199.582.2 1.06.646.477.442.76 1.174.284.73.284 1.799v.498h-5.887v-1.015h4.693q0-.646-.258-1.153a1.94 1.94 0 0 0-.726-.8q-.468-.294-1.104-.294-.7 0-1.213.348a2.3 2.3 0 0 0-.78.895 2.6 2.6 0 0 0-.274 1.183v.676q0 .865.299 1.467.303.597.84.91.537.308 1.248.308.462 0 .835-.129a1.8 1.8 0 0 0 .651-.398q.273-.269.423-.666l1.133.318q-.18.577-.601 1.014-.423.433-1.044.676-.622.24-1.397.239m6.12-4.753V316H75.14v-10.182h1.174v3.739h.099q.268-.592.805-.94.542-.353 1.442-.353.78 0 1.367.313.587.308.91.95.328.636.328 1.621V316h-1.173v-4.773q0-.909-.472-1.407-.468-.502-1.298-.502-.577 0-1.034.244-.453.243-.716.711-.258.467-.258 1.133m10.2 4.753q-1.034 0-1.815-.492a3.34 3.34 0 0 1-1.213-1.377q-.432-.885-.432-2.068 0-1.193.432-2.084a3.35 3.35 0 0 1 1.213-1.382q.78-.492 1.815-.492t1.81.492a3.3 3.3 0 0 1 1.213 1.382q.437.89.437 2.084 0 1.183-.437 2.068a3.3 3.3 0 0 1-1.213 1.377q-.775.492-1.81.492m0-1.054q.786 0 1.293-.403a2.37 2.37 0 0 0 .75-1.059 4 4 0 0 0 .244-1.421q0-.766-.244-1.427a2.4 2.4 0 0 0-.75-1.069q-.508-.408-1.293-.408t-1.293.408a2.4 2.4 0 0 0-.75 1.069 4.1 4.1 0 0 0-.244 1.427q0 .765.244 1.421.243.657.75 1.059.508.403 1.293.403m6.425-9.287V316h-1.174v-10.182zm5.032 10.341q-.954 0-1.685-.482-.731-.487-1.144-1.372-.412-.891-.412-2.103 0-1.203.412-2.088.413-.885 1.149-1.368.735-.482 1.7-.482.746 0 1.178.249.438.243.666.557.234.308.363.507h.1v-3.759h1.173V316h-1.133v-1.173h-.14a8 8 0 0 1-.368.527q-.239.313-.68.561-.443.244-1.179.244m.16-1.054q.706 0 1.192-.368.487-.372.741-1.029.254-.661.254-1.526 0-.855-.249-1.497-.248-.646-.736-1.004-.487-.363-1.203-.363-.745 0-1.243.383a2.3 2.3 0 0 0-.74 1.029 4.1 4.1 0 0 0-.244 1.452q0 .815.248 1.481.255.661.746 1.054.498.388 1.233.388m8.854 1.054q-1.104 0-1.905-.487a3.3 3.3 0 0 1-1.228-1.372q-.427-.885-.427-2.059 0-1.173.427-2.068.433-.9 1.204-1.402.776-.507 1.809-.507.597 0 1.179.199.58.2 1.058.646.478.442.761 1.174.283.73.283 1.799v.498h-5.886v-1.015h4.693q0-.646-.258-1.153a1.94 1.94 0 0 0-.726-.8q-.468-.294-1.104-.294-.7 0-1.213.348a2.3 2.3 0 0 0-.78.895 2.6 2.6 0 0 0-.274 1.183v.676q0 .865.298 1.467.304.597.841.91.537.308 1.248.308.462 0 .835-.129.378-.134.651-.398a1.8 1.8 0 0 0 .423-.666l1.133.318q-.179.577-.601 1.014-.423.433-1.044.676-.622.24-1.397.239m4.946-.159v-7.636h1.134v1.153h.079a1.84 1.84 0 0 1 .756-.92 2.23 2.23 0 0 1 1.233-.353q.13 0 .323.005.194.006.293.015v1.193a4 4 0 0 0-.273-.044 2.6 2.6 0 0 0-.442-.035q-.558 0-.995.234a1.711 1.711 0 0 0-.934 1.556V316z"/></g><g filter="url(#f)"><path fill="#18181B" d="M26 351a6 6 0 0 1 6-6h240a6 6 0 0 1 6 6v24a6 6 0 0 1-6 6H32a6 6 0 0 1-6-6z"/><path fill="#FAFAFA" d="M95.575 361.129h-1.55a2.37 2.37 0 0 0-.93-1.516 2.6 2.6 0 0 0-.791-.398 3.1 3.1 0 0 0-.92-.134q-.88 0-1.576.442-.69.443-1.094 1.298-.397.855-.397 2.088 0 1.243.398 2.098.402.855 1.098 1.293t1.566.437q.483 0 .915-.129.438-.134.79-.393a2.378 2.378 0 0 0 .94-1.496l1.551.005q-.124.75-.482 1.382a3.8 3.8 0 0 1-.91 1.084 4.1 4.1 0 0 1-1.263.701 4.7 4.7 0 0 1-1.55.248q-1.323 0-2.357-.626-1.035-.632-1.63-1.805-.593-1.173-.593-2.799 0-1.63.597-2.799.597-1.173 1.63-1.8 1.035-.631 2.352-.631.81 0 1.512.234.706.228 1.267.676.563.442.93 1.084.368.636.497 1.456m1.72 6.871v-7.636h1.436v1.213h.08a1.85 1.85 0 0 1 .735-.97 2.1 2.1 0 0 1 1.203-.358 7 7 0 0 1 .632.035v1.422a3 3 0 0 0-.318-.055 3 3 0 0 0-.458-.035q-.526 0-.94.224a1.66 1.66 0 0 0-.884 1.497V368zm8.39.154q-1.128 0-1.944-.482a3.3 3.3 0 0 1-1.253-1.367q-.437-.885-.437-2.073 0-1.174.437-2.069a3.4 3.4 0 0 1 1.233-1.397q.796-.502 1.86-.502.646 0 1.252.214a3 3 0 0 1 1.089.671q.482.458.761 1.188.278.726.278 1.765v.527h-6.07v-1.113h4.614q0-.587-.239-1.039a1.8 1.8 0 0 0-.671-.721 1.87 1.87 0 0 0-1.004-.264q-.627 0-1.094.308a2.1 2.1 0 0 0-.716.796 2.3 2.3 0 0 0-.249 1.059v.87q0 .765.269 1.302.273.537.76.821.488.278 1.139.278.423 0 .771-.119a1.6 1.6 0 0 0 .989-.97l1.407.254a2.55 2.55 0 0 1-.607 1.089 2.95 2.95 0 0 1-1.088.721q-.652.253-1.487.253m7.148.015q-.725 0-1.313-.268a2.2 2.2 0 0 1-.929-.791q-.338-.517-.338-1.268 0-.646.248-1.064.25-.417.671-.661a3.5 3.5 0 0 1 .945-.368 9 9 0 0 1 1.064-.189l1.114-.129q.427-.054.621-.174.194-.119.194-.388v-.034q0-.652-.368-1.01-.363-.358-1.084-.358-.75 0-1.183.333-.427.329-.592.731l-1.397-.318q.249-.695.726-1.124a2.95 2.95 0 0 1 1.109-.626 4.3 4.3 0 0 1 1.317-.199q.457 0 .97.11.516.103.964.387.453.283.741.811.288.522.288 1.357V368h-1.451v-1.044h-.06a2.1 2.1 0 0 1-.433.567 2.3 2.3 0 0 1-.74.462q-.453.184-1.084.184m.323-1.193q.616 0 1.054-.244.443-.243.671-.636a1.65 1.65 0 0 0 .234-.85v-.985q-.08.08-.308.15-.225.065-.512.114-.29.045-.562.084l-.458.06a3.7 3.7 0 0 0-.79.184q-.353.129-.567.373-.209.238-.209.636 0 .552.408.835.408.279 1.039.279m8.99-6.612v1.193h-4.171v-1.193zm-3.053-1.83h1.487v7.224q0 .432.129.651a.67.67 0 0 0 .333.293q.209.075.453.075.178 0 .313-.025.134-.024.209-.04l.268 1.228a2.925 2.925 0 0 1-.964.159 2.6 2.6 0 0 1-1.094-.208 1.87 1.87 0 0 1-.82-.677q-.314-.456-.314-1.148zm7.906 9.62q-1.128 0-1.943-.482a3.27 3.27 0 0 1-1.253-1.367q-.438-.885-.438-2.073 0-1.174.438-2.069a3.4 3.4 0 0 1 1.233-1.397q.795-.502 1.859-.502.647 0 1.253.214t1.089.671q.482.458.76 1.188.279.726.279 1.765v.527h-6.071v-1.113h4.614q0-.587-.239-1.039a1.8 1.8 0 0 0-.671-.721 1.87 1.87 0 0 0-1.004-.264q-.626 0-1.094.308a2.1 2.1 0 0 0-.716.796 2.3 2.3 0 0 0-.248 1.059v.87q0 .765.268 1.302.274.537.761.821a2.26 2.26 0 0 0 1.138.278q.423 0 .771-.119.348-.125.602-.368t.387-.602l1.407.254a2.55 2.55 0 0 1-.606 1.089 3 3 0 0 1-1.089.721q-.651.253-1.487.253m10.853.015q-.725 0-1.312-.268a2.2 2.2 0 0 1-.93-.791q-.338-.517-.338-1.268 0-.646.249-1.064.248-.417.671-.661a3.5 3.5 0 0 1 .945-.368 9 9 0 0 1 1.063-.189l1.114-.129q.427-.054.622-.174.193-.119.193-.388v-.034q0-.652-.367-1.01-.363-.358-1.084-.358-.751 0-1.184.333-.427.329-.591.731l-1.397-.318q.249-.695.726-1.124a2.94 2.94 0 0 1 1.108-.626 4.3 4.3 0 0 1 1.318-.199q.458 0 .969.11.518.103.965.387.451.283.741.811.288.522.288 1.357V368h-1.452v-1.044h-.059a2.2 2.2 0 0 1-.433.567 2.3 2.3 0 0 1-.741.462q-.452.184-1.084.184m.324-1.193q.616 0 1.054-.244.442-.243.671-.636.233-.398.233-.85v-.985q-.079.08-.308.15-.224.065-.512.114-.288.045-.562.084l-.457.06a3.7 3.7 0 0 0-.791.184q-.353.129-.566.373-.21.238-.209.636 0 .552.408.835.407.279 1.039.279m6.911-3.51V368h-1.486v-7.636h1.427v1.243h.094q.264-.607.825-.975.567-.368 1.427-.368.781 0 1.367.328.588.323.91.965.323.64.323 1.586V368h-1.486v-4.678q0-.83-.433-1.298-.432-.472-1.188-.472-.517 0-.92.224a1.6 1.6 0 0 0-.631.656q-.228.428-.229 1.034m9.74 4.683a2.96 2.96 0 0 1-1.651-.472q-.72-.477-1.133-1.357-.408-.885-.408-2.123t.413-2.118q.417-.88 1.143-1.347a2.97 2.97 0 0 1 1.646-.468q.711 0 1.143.239.438.234.676.547.245.313.378.552h.09v-3.784h1.486V368h-1.452v-1.188h-.124a4 4 0 0 1-.388.557 2.1 2.1 0 0 1-.686.546q-.437.234-1.133.234m.328-1.268q.641 0 1.084-.338.447-.343.676-.949.233-.607.233-1.412 0-.796-.228-1.392-.229-.597-.671-.93t-1.094-.333q-.671 0-1.119.348a2.13 2.13 0 0 0-.676.95 3.9 3.9 0 0 0-.224 1.357q0 .765.229 1.377.23.612.676.969.453.353 1.114.353m11.504 1.288q-.726 0-1.312-.268a2.2 2.2 0 0 1-.93-.791q-.338-.517-.338-1.268 0-.646.248-1.064.249-.417.672-.661a3.5 3.5 0 0 1 .944-.368 9 9 0 0 1 1.064-.189l1.114-.129q.427-.054.621-.174.194-.119.194-.388v-.034q0-.652-.368-1.01-.363-.358-1.084-.358-.75 0-1.183.333-.427.329-.591.731l-1.398-.318q.249-.695.726-1.124a2.95 2.95 0 0 1 1.109-.626 4.3 4.3 0 0 1 1.317-.199q.458 0 .97.11.517.103.964.387.453.283.741.811.288.522.289 1.357V368h-1.452v-1.044h-.06q-.144.288-.432.567a2.3 2.3 0 0 1-.741.462q-.453.184-1.084.184m.323-1.193q.617 0 1.054-.244.443-.243.671-.636a1.65 1.65 0 0 0 .234-.85v-.985q-.08.08-.308.15-.224.065-.512.114-.288.045-.562.084l-.457.06a3.7 3.7 0 0 0-.791.184q-.353.129-.567.373-.208.238-.208.636 0 .552.407.835.408.279 1.039.279m8.642 1.178q-1.108 0-1.909-.502a3.33 3.33 0 0 1-1.223-1.397q-.428-.89-.428-2.038 0-1.163.438-2.054a3.36 3.36 0 0 1 1.233-1.397q.795-.502 1.874-.502.87 0 1.551.323.681.319 1.099.895.423.577.502 1.348h-1.447a1.73 1.73 0 0 0-.546-.925q-.423-.388-1.134-.388-.621 0-1.089.328-.462.324-.721.925-.258.596-.258 1.412 0 .835.253 1.442.254.606.716.939.468.333 1.099.333.423 0 .766-.154.348-.16.581-.452.239-.294.333-.706h1.447a2.8 2.8 0 0 1-.482 1.322 2.8 2.8 0 0 1-1.079.915q-.671.333-1.576.333m7.943 0q-1.108 0-1.909-.502a3.33 3.33 0 0 1-1.223-1.397q-.427-.89-.427-2.038 0-1.163.437-2.054a3.36 3.36 0 0 1 1.233-1.397q.796-.502 1.875-.502.87 0 1.551.323.681.319 1.098.895.423.577.503 1.348h-1.447a1.74 1.74 0 0 0-.547-.925q-.423-.388-1.134-.388-.621 0-1.088.328-.463.324-.721.925-.26.596-.259 1.412 0 .835.254 1.442.253.606.716.939a1.84 1.84 0 0 0 1.098.333q.423 0 .766-.154a1.6 1.6 0 0 0 .582-.452q.238-.294.333-.706h1.447a2.8 2.8 0 0 1-.483 1.322 2.77 2.77 0 0 1-1.079.915q-.67.333-1.576.333m7.944 0q-1.074 0-1.874-.492a3.3 3.3 0 0 1-1.243-1.377q-.443-.886-.443-2.068 0-1.189.443-2.079a3.3 3.3 0 0 1 1.243-1.382q.8-.492 1.874-.492t1.874.492q.8.493 1.243 1.382.442.89.442 2.079 0 1.183-.442 2.068a3.3 3.3 0 0 1-1.243 1.377q-.8.492-1.874.492m.005-1.248q.696 0 1.153-.368.458-.367.676-.979a3.9 3.9 0 0 0 .224-1.347q0-.731-.224-1.343a2.2 2.2 0 0 0-.676-.989q-.457-.373-1.153-.373-.701 0-1.164.373a2.23 2.23 0 0 0-.681.989 4 4 0 0 0-.218 1.343q0 .735.218 1.347.224.612.681.979.463.368 1.164.368m10.051-2.073v-4.469h1.492V368h-1.462v-1.322h-.08a2.4 2.4 0 0 1-.845 1.019q-.576.402-1.437.402-.735 0-1.302-.323a2.26 2.26 0 0 1-.885-.969q-.318-.642-.318-1.586v-4.857h1.486v4.678q0 .78.433 1.243.433.462 1.123.462.419 0 .831-.209.417-.208.691-.631.278-.423.273-1.074m4.975-1.367V368h-1.486v-7.636h1.427v1.243h.094a2.2 2.2 0 0 1 .826-.975q.566-.368 1.426-.368.78 0 1.368.328.587.323.909.965.324.64.324 1.586V368h-1.487v-4.678q0-.83-.433-1.298-.432-.472-1.188-.472a1.85 1.85 0 0 0-.919.224 1.6 1.6 0 0 0-.632.656q-.228.428-.229 1.034m10.446-3.102v1.193h-4.171v-1.193zm-3.053-1.83h1.487v7.224q0 .432.129.651a.67.67 0 0 0 .333.293q.209.075.452.075.18 0 .314-.025.134-.024.208-.04l.269 1.228a2.928 2.928 0 0 1-.965.159 2.6 2.6 0 0 1-1.093-.208 1.9 1.9 0 0 1-.821-.677q-.312-.456-.313-1.148z"/></g><g filter="url(#g)"><path fill="#fff" d="M26 403a6 6 0 0 1 6-6h240a6 6 0 0 1 6 6v24a6 6 0 0 1-6 6H32a6 6 0 0 1-6-6z"/><path stroke="#E4E4E7" d="M32 397.5h240a5.5 5.5 0 0 1 5.5 5.5v24a5.5 5.5 0 0 1-5.5 5.5H32a5.5 5.5 0 0 1-5.5-5.5v-24a5.5 5.5 0 0 1 5.5-5.5Z"/><path fill="#18181B" d="M91.672 412.493a1.45 1.45 0 0 0-.656-1.094q-.578-.393-1.452-.393-.627 0-1.084.199-.458.194-.71.537a1.27 1.27 0 0 0-.25.771q0 .363.17.626.174.263.452.443.283.173.607.293.323.114.621.189l.994.258q.487.12 1 .324.511.203.95.537.436.333.705.825.273.492.274 1.178 0 .865-.448 1.536-.442.672-1.287 1.059-.84.388-2.034.388-1.144 0-1.978-.363t-1.308-1.029q-.472-.671-.522-1.591h1.541q.046.552.358.92.318.363.81.542.498.174 1.09.174.65 0 1.158-.204.512-.209.805-.577.293-.372.293-.87 0-.452-.258-.741a1.9 1.9 0 0 0-.691-.477 7 7 0 0 0-.98-.333l-1.203-.328q-1.222-.333-1.939-.98-.71-.645-.71-1.71 0-.879.477-1.536.477-.656 1.292-1.019.816-.368 1.84-.368 1.034 0 1.824.363.795.363 1.253.999.457.632.477 1.452zM95.009 420v-7.636h1.487V420zm.75-8.815a.95.95 0 0 1-.665-.258.84.84 0 0 1-.274-.627.83.83 0 0 1 .274-.626.93.93 0 0 1 .666-.263q.388 0 .661.263a.82.82 0 0 1 .278.626.84.84 0 0 1-.278.627.93.93 0 0 1-.661.258m5.938 11.838q-.909 0-1.566-.239-.651-.238-1.064-.631a2.7 2.7 0 0 1-.616-.86l1.277-.527q.135.218.358.462.229.249.617.423.393.174 1.009.174.845 0 1.397-.413.552-.408.552-1.303v-1.501h-.095a3.4 3.4 0 0 1-.387.542 2.1 2.1 0 0 1-.686.517q-.438.219-1.139.219a3.2 3.2 0 0 1-1.63-.423q-.721-.427-1.144-1.258-.418-.835-.418-2.053t.413-2.088q.418-.87 1.143-1.332a2.97 2.97 0 0 1 1.646-.468q.711 0 1.148.239.438.234.682.547.248.313.382.552h.11v-1.238h1.456v7.805q0 .984-.457 1.616a2.7 2.7 0 0 1-1.238.934q-.775.304-1.75.304m-.015-4.37q.642 0 1.084-.299.447-.303.676-.865.234-.566.234-1.357 0-.77-.229-1.357a2 2 0 0 0-.671-.915q-.443-.333-1.094-.333-.67 0-1.118.348-.448.343-.677.935-.223.591-.223 1.322 0 .751.228 1.318.229.565.677.885.451.318 1.113.318m6.941-3.187V420h-1.487v-7.636h1.427v1.243h.094a2.2 2.2 0 0 1 .826-.975q.566-.368 1.426-.368.782 0 1.368.328.587.323.909.965.324.64.324 1.586V420h-1.487v-4.678q0-.83-.432-1.298-.433-.472-1.189-.472a1.85 1.85 0 0 0-.919.224 1.6 1.6 0 0 0-.632.656q-.228.428-.228 1.034m15.423 1.367v-4.469h1.491V420h-1.462v-1.322h-.079a2.4 2.4 0 0 1-.845 1.019q-.578.402-1.437.402-.736 0-1.303-.323a2.28 2.28 0 0 1-.885-.969q-.318-.642-.318-1.586v-4.857h1.487v4.678q0 .78.432 1.243.433.462 1.124.462.417 0 .83-.209.418-.208.691-.631.279-.423.274-1.074m3.488 6.031v-10.5h1.452v1.238h.124q.13-.24.373-.552a2.1 2.1 0 0 1 .676-.547q.433-.239 1.144-.239.925 0 1.65.468.726.466 1.139 1.347.418.879.418 2.118t-.413 2.123q-.412.88-1.134 1.357a2.93 2.93 0 0 1-1.645.472q-.696 0-1.139-.234a2.2 2.2 0 0 1-.686-.546 4.3 4.3 0 0 1-.383-.557h-.089v4.052zm1.457-6.682q0 .805.234 1.412t.676.949q.442.338 1.084.338.666 0 1.113-.353.448-.357.677-.969.233-.612.233-1.377 0-.756-.229-1.357a2.08 2.08 0 0 0-.676-.95q-.447-.348-1.118-.348-.647 0-1.094.333-.443.333-.671.93-.23.596-.229 1.392M141.536 420l-2.247-7.636h1.536l1.496 5.608h.075l1.501-5.608h1.536l1.492 5.583h.074l1.487-5.583h1.536L147.78 420h-1.516l-1.551-5.513h-.115L143.047 420zm9.897 0v-7.636h1.486V420zm.751-8.815a.95.95 0 0 1-.667-.258.84.84 0 0 1-.273-.627.83.83 0 0 1 .273-.626.94.94 0 0 1 .667-.263q.388 0 .661.263a.82.82 0 0 1 .278.626.84.84 0 0 1-.278.627.93.93 0 0 1-.661.258m6.3 1.179v1.193h-4.171v-1.193zm-3.053-1.83h1.487v7.224q0 .432.129.651a.67.67 0 0 0 .333.293q.209.075.453.075.178 0 .313-.025.134-.024.209-.04l.268 1.228a2.925 2.925 0 0 1-.964.159 2.6 2.6 0 0 1-1.094-.208 1.9 1.9 0 0 1-.821-.677q-.312-.456-.313-1.148zm6.348 4.932V420h-1.487v-10.182h1.467v3.789h.094q.269-.617.821-.98t1.441-.363q.786 0 1.373.323.591.324.914.965.328.636.328 1.591V420h-1.486v-4.678q0-.84-.433-1.303-.432-.467-1.203-.467-.527 0-.944.224a1.6 1.6 0 0 0-.652.656q-.233.428-.233 1.034m17.65-2.431a3 3 0 0 0-.388-.811 2.47 2.47 0 0 0-1.332-1.009 3 3 0 0 0-.93-.134q-.86 0-1.551.442-.691.443-1.094 1.298-.397.85-.397 2.083 0 1.238.402 2.093.403.855 1.104 1.298.7.442 1.596.442.83 0 1.447-.338a2.35 2.35 0 0 0 .959-.954q.343-.622.343-1.462l.398.075h-2.913v-1.268h4.002v1.158q0 1.283-.547 2.227a3.7 3.7 0 0 1-1.502 1.452q-.954.512-2.187.512-1.382 0-2.426-.636-1.04-.636-1.621-1.805-.582-1.173-.582-2.784 0-1.218.338-2.187a4.8 4.8 0 0 1 .95-1.646q.616-.68 1.447-1.039a4.5 4.5 0 0 1 1.824-.363q.826 0 1.537.244.716.243 1.272.691a3.9 3.9 0 0 1 1.427 2.421zm3.955 6.965v-7.636h1.487V420zm.751-8.815a.94.94 0 0 1-.666-.258.84.84 0 0 1-.274-.627q0-.368.274-.626a.93.93 0 0 1 .666-.263q.387 0 .661.263a.82.82 0 0 1 .278.626.83.83 0 0 1-.278.627.93.93 0 0 1-.661.258m6.3 1.179v1.193h-4.171v-1.193zm-3.053-1.83h1.487v7.224q0 .432.129.651a.67.67 0 0 0 .333.293q.21.075.453.075.178 0 .313-.025.134-.024.209-.04l.268 1.228a2.925 2.925 0 0 1-.964.159 2.6 2.6 0 0 1-1.094-.208 1.87 1.87 0 0 1-.82-.677q-.314-.456-.314-1.148zm4.981 9.466v-10.182h1.536v4.425h5.076v-4.425h1.541V420h-1.541v-4.44h-5.076V420zm15.108-3.167v-4.469h1.492V420h-1.462v-1.322h-.079a2.4 2.4 0 0 1-.845 1.019q-.577.402-1.437.402-.736 0-1.303-.323a2.28 2.28 0 0 1-.885-.969q-.318-.642-.318-1.586v-4.857h1.487v4.678q0 .78.432 1.243.432.462 1.124.462.417 0 .83-.209.418-.208.691-.631.279-.423.273-1.074M211.08 420v-10.182h1.486v3.784h.09q.129-.24.372-.552.244-.313.677-.547.432-.239 1.143-.239.925 0 1.651.468.725.466 1.138 1.347.417.879.418 2.118 0 1.238-.413 2.123-.413.88-1.133 1.357a2.94 2.94 0 0 1-1.646.472q-.696 0-1.139-.234a2.2 2.2 0 0 1-.686-.546 4 4 0 0 1-.382-.557h-.125V420zm1.456-3.818q0 .805.234 1.412t.676.949q.442.338 1.084.338.666 0 1.113-.353.448-.357.677-.969.233-.612.233-1.377 0-.756-.228-1.357a2.1 2.1 0 0 0-.677-.95q-.447-.348-1.118-.348-.647 0-1.094.333-.443.333-.671.93-.23.596-.229 1.392"/></g><path fill="#18181B" d="M44.412 461H43.12l3.738-10.182h1.273L51.87 461h-1.293l-3.043-8.571h-.08zm.478-3.977h5.21v1.093h-5.21zm9.58-6.205V461h-1.173v-10.182zM56.619 461v-7.636h1.133v1.153h.08q.21-.567.755-.92a2.23 2.23 0 0 1 1.233-.353q.13 0 .324.005.194.006.293.015v1.193a4 4 0 0 0-.273-.044 2.6 2.6 0 0 0-.443-.035q-.557 0-.994.234a1.713 1.713 0 0 0-.935 1.556V461zm8.178.159q-1.104 0-1.904-.487a3.27 3.27 0 0 1-1.228-1.372q-.428-.885-.428-2.059 0-1.173.428-2.068.433-.9 1.203-1.402.775-.507 1.81-.507.597 0 1.178.199.581.2 1.059.646.477.442.76 1.174.284.73.284 1.799v.498h-5.886v-1.015h4.693q0-.646-.259-1.153a1.94 1.94 0 0 0-.726-.8q-.467-.294-1.103-.294-.702 0-1.213.348a2.3 2.3 0 0 0-.78.895 2.6 2.6 0 0 0-.274 1.183v.676q0 .865.298 1.467.303.597.84.91.537.308 1.248.308.463 0 .835-.129a1.8 1.8 0 0 0 .652-.398q.273-.268.422-.666l1.134.318q-.18.577-.602 1.014-.423.433-1.044.676-.621.24-1.397.239m7.194.02q-.726 0-1.317-.273a2.27 2.27 0 0 1-.94-.801q-.348-.526-.348-1.273 0-.656.258-1.064.26-.412.691-.646.433-.234.955-.348.526-.119 1.059-.189.696-.089 1.129-.134.436-.05.636-.164.204-.114.204-.398v-.04q0-.735-.403-1.143-.398-.408-1.208-.408-.84 0-1.318.368-.477.368-.67.786l-1.114-.398q.298-.696.795-1.084.503-.393 1.094-.547a4.5 4.5 0 0 1 1.173-.159q.368 0 .845.09.483.084.93.353.453.269.75.81.3.541.299 1.452V461h-1.173v-1.034h-.06q-.12.249-.398.532t-.74.482-1.13.199m.179-1.054q.696 0 1.173-.273.483-.274.726-.706.249-.433.249-.91v-1.074q-.076.09-.328.164a6 6 0 0 1-.577.124q-.323.05-.632.09-.303.035-.492.059-.458.06-.855.194a1.5 1.5 0 0 0-.636.393q-.24.259-.239.706 0 .612.453.925.457.308 1.158.308m8.346 1.034q-.954 0-1.685-.482-.732-.487-1.144-1.372-.412-.891-.412-2.103 0-1.203.412-2.088.413-.885 1.149-1.368.735-.482 1.7-.482.746 0 1.178.249.438.243.666.557.234.308.363.507h.1v-3.759h1.173V461h-1.134v-1.173h-.139a8 8 0 0 1-.368.527q-.239.313-.68.561-.443.244-1.179.244m.16-1.054q.705 0 1.192-.368.488-.372.741-1.029.255-.661.254-1.526 0-.855-.249-1.497-.249-.646-.736-1.004-.487-.363-1.203-.363-.745 0-1.243.383a2.3 2.3 0 0 0-.74 1.029 4.1 4.1 0 0 0-.244 1.452q0 .815.248 1.481.255.661.746 1.054.498.388 1.233.388m6.407 3.759q-.298 0-.531-.05a1.4 1.4 0 0 1-.324-.09l.299-1.034q.428.11.755.08a.9.9 0 0 0 .582-.293q.258-.26.472-.841l.219-.596-2.824-7.676h1.273l2.108 6.085h.08l2.107-6.085h1.273l-3.241 8.75a3.3 3.3 0 0 1-.542.979 2 2 0 0 1-.751.582q-.423.189-.954.189m12.148-7.458V461h-1.173v-10.182h1.173v3.739h.1q.268-.592.805-.94.542-.353 1.442-.353.78 0 1.367.313.587.309.91.95.328.636.328 1.621V461h-1.173v-4.773q0-.909-.472-1.407-.468-.501-1.298-.502a2.16 2.16 0 0 0-1.034.244q-.453.243-.716.711-.258.467-.258 1.133m9.346 4.773q-.726 0-1.318-.273a2.27 2.27 0 0 1-.939-.801q-.348-.526-.348-1.273 0-.656.258-1.064.26-.412.691-.646.433-.234.955-.348.526-.119 1.059-.189.696-.089 1.128-.134.438-.05.637-.164.204-.114.204-.398v-.04q0-.735-.403-1.143-.398-.408-1.208-.408-.84 0-1.318.368-.477.368-.671.786l-1.113-.398q.298-.696.795-1.084a3 3 0 0 1 1.094-.547 4.5 4.5 0 0 1 1.173-.159q.368 0 .845.09.483.084.93.353.452.269.751.81.297.541.298 1.452V461h-1.173v-1.034h-.06q-.12.249-.398.532a2.3 2.3 0 0 1-.741.482q-.462.2-1.128.199m.179-1.054q.696 0 1.173-.273a1.86 1.86 0 0 0 .975-1.616v-1.074q-.075.09-.329.164a6 6 0 0 1-.576.124q-.323.05-.632.09-.303.035-.492.059-.457.06-.855.194a1.47 1.47 0 0 0-.636.393q-.239.259-.239.706 0 .612.452.925.458.308 1.159.308m11.433-6.761L117.365 461h-1.193l-2.824-7.636h1.273l2.108 6.085h.08l2.108-6.085zm4.477 7.795q-1.104 0-1.904-.487a3.27 3.27 0 0 1-1.228-1.372q-.427-.885-.427-2.059 0-1.173.427-2.068.432-.9 1.203-1.402.775-.507 1.81-.507.597 0 1.178.199.582.2 1.059.646.477.442.761 1.174.283.73.283 1.799v.498h-5.886v-1.015h4.693q0-.646-.259-1.153a1.95 1.95 0 0 0-.725-.8q-.468-.294-1.104-.294-.701 0-1.213.348a2.3 2.3 0 0 0-.781.895 2.6 2.6 0 0 0-.273 1.183v.676q0 .865.298 1.467.303.597.84.91.537.308 1.248.308.463 0 .835-.129.378-.134.652-.398.273-.268.422-.666l1.134.318a2.5 2.5 0 0 1-.602 1.014 2.9 2.9 0 0 1-1.044.676q-.621.24-1.397.239m11.132.02q-.726 0-1.318-.273a2.27 2.27 0 0 1-.94-.801q-.348-.526-.348-1.273 0-.656.259-1.064.258-.412.691-.646t.955-.348q.527-.119 1.059-.189.696-.089 1.128-.134.438-.05.636-.164.204-.114.204-.398v-.04q0-.735-.402-1.143-.398-.408-1.209-.408-.84 0-1.317.368t-.671.786l-1.114-.398q.298-.696.796-1.084a3 3 0 0 1 1.093-.547 4.6 4.6 0 0 1 1.174-.159q.368 0 .845.09.482.084.93.353.451.269.75.81t.299 1.452V461h-1.174v-1.034h-.059q-.12.249-.398.532-.279.284-.741.482-.462.2-1.128.199m.179-1.054q.696 0 1.173-.273.482-.274.726-.706.248-.433.248-.91v-1.074q-.074.09-.328.164a6 6 0 0 1-.577.124 29 29 0 0 1-.631.09q-.303.035-.492.059-.457.06-.855.194a1.5 1.5 0 0 0-.637.393q-.238.259-.238.706 0 .612.452.925.457.308 1.159.308m6.635-3.719V461h-1.173v-7.636h1.134v1.193h.099q.269-.582.815-.935.548-.358 1.412-.358.776 0 1.358.318.581.313.904.955.324.636.324 1.611V461h-1.174v-4.773q0-.9-.467-1.402-.468-.507-1.283-.507-.561 0-1.004.244a1.74 1.74 0 0 0-.691.711q-.254.467-.254 1.133m13.201 4.773q-.726 0-1.317-.273a2.26 2.26 0 0 1-.94-.801q-.348-.526-.348-1.273 0-.656.259-1.064a1.8 1.8 0 0 1 .691-.646q.432-.234.954-.348.528-.119 1.059-.189.696-.089 1.129-.134.437-.05.636-.164.204-.114.204-.398v-.04q0-.735-.403-1.143-.398-.408-1.208-.408-.84 0-1.317.368-.478.368-.672.786l-1.113-.398q.299-.696.795-1.084.503-.393 1.094-.547a4.6 4.6 0 0 1 1.173-.159q.368 0 .846.09.482.084.929.353.453.269.751.81t.298 1.452V461h-1.173v-1.034h-.06a2 2 0 0 1-.397.532q-.279.284-.741.482-.463.2-1.129.199m.179-1.054q.696 0 1.173-.273a1.86 1.86 0 0 0 .975-1.616v-1.074q-.075.09-.328.164a6 6 0 0 1-.577.124q-.323.05-.631.09l-.492.059a4.6 4.6 0 0 0-.856.194 1.5 1.5 0 0 0-.636.393q-.239.259-.239.706 0 .612.453.925.458.308 1.158.308m8.565 1.034q-1.074 0-1.849-.507a3.3 3.3 0 0 1-1.194-1.397q-.417-.89-.417-2.033 0-1.163.427-2.054a3.4 3.4 0 0 1 1.203-1.397q.776-.507 1.81-.507.805 0 1.452.298.647.299 1.059.836a2.6 2.6 0 0 1 .512 1.253h-1.173a1.82 1.82 0 0 0-.597-.925q-.458-.408-1.233-.408a2.06 2.06 0 0 0-1.203.358q-.512.353-.801.999-.282.642-.283 1.507 0 .885.278 1.541.284.656.796 1.019.517.363 1.213.363.458 0 .83-.159.373-.159.632-.457.258-.299.368-.716h1.173a2.7 2.7 0 0 1-.492 1.218 2.76 2.76 0 0 1-1.029.855q-.638.313-1.482.313m7.82 0q-1.074 0-1.849-.507a3.3 3.3 0 0 1-1.193-1.397q-.418-.89-.418-2.033 0-1.163.428-2.054a3.4 3.4 0 0 1 1.203-1.397q.775-.507 1.809-.507.806 0 1.452.298.647.299 1.059.836a2.6 2.6 0 0 1 .512 1.253h-1.173a1.8 1.8 0 0 0-.597-.925q-.458-.408-1.233-.408a2.06 2.06 0 0 0-1.203.358q-.512.353-.8.999-.284.642-.284 1.507 0 .885.279 1.541.284.656.795 1.019.517.363 1.213.363.457 0 .831-.159a1.7 1.7 0 0 0 .631-.457q.258-.299.368-.716h1.173a2.7 2.7 0 0 1-.492 1.218 2.76 2.76 0 0 1-1.029.855q-.636.313-1.482.313m7.821 0q-1.035 0-1.815-.492a3.35 3.35 0 0 1-1.213-1.377q-.432-.885-.433-2.068 0-1.193.433-2.084a3.35 3.35 0 0 1 1.213-1.382q.78-.492 1.815-.492t1.809.492q.781.493 1.213 1.382.438.89.438 2.084 0 1.183-.438 2.068a3.3 3.3 0 0 1-1.213 1.377q-.775.492-1.809.492m0-1.054q.785 0 1.292-.403.508-.402.751-1.059.244-.656.244-1.421 0-.766-.244-1.427a2.4 2.4 0 0 0-.751-1.069q-.507-.408-1.292-.408-.786 0-1.293.408a2.4 2.4 0 0 0-.751 1.069 4.1 4.1 0 0 0-.243 1.427q0 .765.243 1.421.244.657.751 1.059.507.403 1.293.403m10.063-2.227v-4.514h1.174V461h-1.174v-1.293h-.079a2.5 2.5 0 0 1-.835.99q-.567.402-1.432.402a2.55 2.55 0 0 1-1.273-.313 2.2 2.2 0 0 1-.875-.954q-.318-.642-.318-1.616v-4.852h1.173v4.772q0 .835.467 1.333.472.497 1.204.497.437 0 .89-.224.457-.224.765-.686.313-.462.313-1.178m4.496-1.472V461h-1.173v-7.636h1.133v1.193h.1q.268-.582.815-.935.547-.358 1.412-.358.775 0 1.357.318.582.313.905.955.323.636.323 1.611V461h-1.173v-4.773q0-.9-.468-1.402-.467-.507-1.282-.507-.562 0-1.004.244a1.74 1.74 0 0 0-.692.711q-.253.467-.253 1.133m10.337-3.042v.994h-3.957v-.994zm-2.804-1.83h1.173v7.278q0 .498.145.746a.74.74 0 0 0 .377.328q.234.08.493.08.194 0 .318-.02l.199-.04.238 1.054q-.118.045-.333.09a2.5 2.5 0 0 1-.542.049q-.497 0-.974-.213a1.94 1.94 0 0 1-.786-.652q-.308-.437-.308-1.103zm6.1 6.602v-.059q.01-.95.199-1.512.189-.561.537-.909a4.4 4.4 0 0 1 .835-.642q.294-.179.527-.422a1.88 1.88 0 0 0 .507-1.288q0-.488-.228-.845a1.54 1.54 0 0 0-.612-.552 1.86 1.86 0 0 0-.85-.194q-.408 0-.785.169-.378.17-.632.532-.254.363-.293.95h-1.253q.04-.846.437-1.447a2.64 2.64 0 0 1 1.059-.92q.662-.318 1.467-.318.875 0 1.521.348.652.348 1.005.955.358.606.358 1.382 0 .546-.169.989-.165.442-.478.79a3.3 3.3 0 0 1-.745.617 3 3 0 0 0-.701.577 1.8 1.8 0 0 0-.383.711q-.12.413-.13 1.029v.059zm.637 2.944a.86.86 0 0 1-.632-.264.86.86 0 0 1-.263-.631q0-.368.263-.632a.86.86 0 0 1 .632-.263q.367 0 .631.263a.86.86 0 0 1 .264.632.84.84 0 0 1-.125.447.9.9 0 0 1-.323.328.85.85 0 0 1-.447.12m14.592-7.716a1.56 1.56 0 0 0-.725-1.174q-.637-.417-1.561-.417-.677 0-1.184.218a1.9 1.9 0 0 0-.785.602 1.44 1.44 0 0 0-.279.87q0 .408.194.701.2.288.507.482.308.19.647.314.337.119.621.193l1.034.279q.398.104.885.288.493.184.94.502.452.314.746.806.293.492.293 1.208 0 .825-.433 1.491-.427.666-1.252 1.059-.82.393-1.994.393-1.094 0-1.894-.353-.796-.352-1.253-.984a2.8 2.8 0 0 1-.512-1.467h1.273q.05.577.387.955a2.1 2.1 0 0 0 .865.556q.528.18 1.134.179.706 0 1.268-.228.561-.234.89-.647.327-.417.328-.974 0-.507-.284-.825a2.1 2.1 0 0 0-.745-.517 8 8 0 0 0-1-.348l-1.253-.358q-1.193-.344-1.889-.98t-.696-1.665q0-.855.463-1.492a3.07 3.07 0 0 1 1.252-.994 4.2 4.2 0 0 1 1.765-.358q.985 0 1.75.353.766.348 1.213.955.453.606.478 1.377zM226.82 461v-7.636h1.173V461zm.597-8.909a.83.83 0 0 1-.592-.234.75.75 0 0 1-.244-.562.75.75 0 0 1 .244-.561.83.83 0 0 1 .592-.234q.343 0 .586.234a.74.74 0 0 1 .249.561.74.74 0 0 1-.249.562.82.82 0 0 1-.586.234m5.808 11.932q-.85 0-1.462-.219a3.1 3.1 0 0 1-1.019-.567 3.1 3.1 0 0 1-.642-.746l.935-.656q.159.21.403.477.243.274.666.473.427.204 1.119.204.924 0 1.526-.448.601-.447.601-1.402v-1.551h-.099a6 6 0 0 1-.368.517 2.1 2.1 0 0 1-.676.542q-.438.234-1.183.234-.925 0-1.661-.438-.73-.437-1.158-1.273-.423-.835-.423-2.028 0-1.173.413-2.043.413-.875 1.148-1.353.737-.482 1.701-.482.745 0 1.183.249.442.243.676.557.239.308.368.507h.119v-1.213h1.134v7.855q0 .984-.448 1.601a2.54 2.54 0 0 1-1.193.909 4.5 4.5 0 0 1-1.66.294m-.04-4.196q.705 0 1.193-.323.487-.324.741-.93.253-.606.253-1.452 0-.825-.248-1.457a2.2 2.2 0 0 0-.736-.989q-.487-.358-1.203-.358-.746 0-1.243.378-.492.378-.741 1.014a3.9 3.9 0 0 0-.243 1.412q0 .795.248 1.407.254.607.746.955.496.343 1.233.343m6.662-3.421V461h-1.174v-7.636h1.134v1.193h.099q.269-.582.816-.935.546-.358 1.412-.358.775 0 1.357.318.581.313.905.955.323.636.323 1.611V461h-1.173v-4.773q0-.9-.468-1.402-.467-.507-1.282-.507-.563 0-1.005.244a1.74 1.74 0 0 0-.691.711q-.253.467-.253 1.133M250.8 461v-7.636h1.174V461zm.597-8.909a.83.83 0 0 1-.592-.234.75.75 0 0 1-.243-.562.75.75 0 0 1 .243-.561.83.83 0 0 1 .592-.234q.343 0 .587.234a.74.74 0 0 1 .248.561.75.75 0 0 1-.248.562.82.82 0 0 1-.587.234m3.899 4.315V461h-1.173v-7.636h1.133v1.193h.1q.268-.582.815-.935.547-.358 1.412-.358.775 0 1.357.318.582.313.905.955.323.636.323 1.611V461h-1.173v-4.773q0-.9-.467-1.402-.468-.507-1.283-.507-.562 0-1.004.244a1.74 1.74 0 0 0-.691.711q-.254.467-.254 1.133"/><path fill="#18181B" d="M216.818 463.784h44.424v.955h-44.424z"/></g><defs><filter id="a" width="304" height="490" x="0" y="0" color-interpolation-filters="sRGB" filterUnits="userSpaceOnUse"><feFlood flood-opacity="0" result="BackgroundImageFix"/><feColorMatrix in="SourceAlpha" result="hardAlpha" values="0 0 0 0 0 0 0 0 0 0 0 0 0 0 0 0 0 0 127 0"/><feOffset dy="1"/><feGaussianBlur stdDeviation="1"/><feColorMatrix values="0 0 0 0 0 0 0 0 0 0 0 0 0 0 0 0 0 0 0.05 0"/><feBlend in2="BackgroundImageFix" result="effect1_dropShadow_15855_145222"/><feBlend in="SourceGraphic" in2="effect1_dropShadow_15855_145222" result="shape"/></filter><filter id="b" width="122" height="40" x="24" y="144" color-interpolation-filters="sRGB" filterUnits="userSpaceOnUse"><feFlood flood-opacity="0" result="BackgroundImageFix"/><feColorMatrix in="SourceAlpha" result="hardAlpha" values="0 0 0 0 0 0 0 0 0 0 0 0 0 0 0 0 0 0 127 0"/><feOffset dy="1"/><feGaussianBlur stdDeviation="1"/><feColorMatrix values="0 0 0 0 0 0 0 0 0 0 0 0 0 0 0 0 0 0 0.05 0"/><feBlend in2="BackgroundImageFix" result="effect1_dropShadow_15855_145222"/><feBlend in="SourceGraphic" in2="effect1_dropShadow_15855_145222" result="shape"/></filter><filter id="c" width="122" height="40" x="158" y="144" color-interpolation-filters="sRGB" filterUnits="userSpaceOnUse"><feFlood flood-opacity="0" result="BackgroundImageFix"/><feColorMatrix in="SourceAlpha" result="hardAlpha" values="0 0 0 0 0 0 0 0 0 0 0 0 0 0 0 0 0 0 127 0"/><feOffset dy="1"/><feGaussianBlur stdDeviation="1"/><feColorMatrix values="0 0 0 0 0 0 0 0 0 0 0 0 0 0 0 0 0 0 0.05 0"/><feBlend in2="BackgroundImageFix" result="effect1_dropShadow_15855_145222"/><feBlend in="SourceGraphic" in2="effect1_dropShadow_15855_145222" result="shape"/></filter><filter id="d" width="256" height="40" x="24" y="218" color-interpolation-filters="sRGB" filterUnits="userSpaceOnUse"><feFlood flood-opacity="0" result="BackgroundImageFix"/><feColorMatrix in="SourceAlpha" result="hardAlpha" values="0 0 0 0 0 0 0 0 0 0 0 0 0 0 0 0 0 0 127 0"/><feOffset dy="1"/><feGaussianBlur stdDeviation="1"/><feColorMatrix values="0 0 0 0 0 0 0 0 0 0 0 0 0 0 0 0 0 0 0.05 0"/><feBlend in2="BackgroundImageFix" result="effect1_dropShadow_15855_145222"/><feBlend in="SourceGraphic" in2="effect1_dropShadow_15855_145222" result="shape"/></filter><filter id="e" width="256" height="40" x="24" y="292" color-interpolation-filters="sRGB" filterUnits="userSpaceOnUse"><feFlood flood-opacity="0" result="BackgroundImageFix"/><feColorMatrix in="SourceAlpha" result="hardAlpha" values="0 0 0 0 0 0 0 0 0 0 0 0 0 0 0 0 0 0 127 0"/><feOffset dy="1"/><feGaussianBlur stdDeviation="1"/><feColorMatrix values="0 0 0 0 0 0 0 0 0 0 0 0 0 0 0 0 0 0 0.05 0"/><feBlend in2="BackgroundImageFix" result="effect1_dropShadow_15855_145222"/><feBlend in="SourceGraphic" in2="effect1_dropShadow_15855_145222" result="shape"/></filter><filter id="f" width="258" height="42" x="23" y="343" color-interpolation-filters="sRGB" filterUnits="userSpaceOnUse"><feFlood flood-opacity="0" result="BackgroundImageFix"/><feColorMatrix in="SourceAlpha" result="hardAlpha" values="0 0 0 0 0 0 0 0 0 0 0 0 0 0 0 0 0 0 127 0"/><feOffset dy="1"/><feGaussianBlur stdDeviation="1"/><feColorMatrix values="0 0 0 0 0 0 0 0 0 0 0 0 0 0 0 0 0 0 0.06 0"/><feBlend in2="BackgroundImageFix" result="effect1_dropShadow_15855_145222"/><feColorMatrix in="SourceAlpha" result="hardAlpha" values="0 0 0 0 0 0 0 0 0 0 0 0 0 0 0 0 0 0 127 0"/><feOffset dy="1"/><feGaussianBlur stdDeviation="1.5"/><feColorMatrix values="0 0 0 0 0 0 0 0 0 0 0 0 0 0 0 0 0 0 0.1 0"/><feBlend in2="effect1_dropShadow_15855_145222" result="effect2_dropShadow_15855_145222"/><feBlend in="SourceGraphic" in2="effect2_dropShadow_15855_145222" result="shape"/></filter><filter id="g" width="256" height="40" x="24" y="396" color-interpolation-filters="sRGB" filterUnits="userSpaceOnUse"><feFlood flood-opacity="0" result="BackgroundImageFix"/><feColorMatrix in="SourceAlpha" result="hardAlpha" values="0 0 0 0 0 0 0 0 0 0 0 0 0 0 0 0 0 0 127 0"/><feOffset dy="1"/><feGaussianBlur stdDeviation="1"/><feColorMatrix values="0 0 0 0 0 0 0 0 0 0 0 0 0 0 0 0 0 0 0.05 0"/><feBlend in2="BackgroundImageFix" result="effect1_dropShadow_15855_145222"/><feBlend in="SourceGraphic" in2="effect1_dropShadow_15855_145222" result="shape"/></filter></defs></svg>