<svg xmlns="http://www.w3.org/2000/svg" width="310" height="237" fill="none"><g filter="url(#a)"><rect width="300" height="227" x="5" y="4" fill="#fff" rx="8" shape-rendering="crispEdges"/><rect width="301" height="228" x="4.5" y="3.5" stroke="#E4E4E7" rx="8.5" shape-rendering="crispEdges"/><path fill="#71717A" d="M29.617 33.14v-1.322h7.88v1.323H34.32V42h-1.532v-8.86zM39.118 42v-7.636h1.487V42zm.751-8.815a.95.95 0 0 1-.666-.258.84.84 0 0 1-.274-.627.83.83 0 0 1 .274-.626.94.94 0 0 1 .666-.264q.389 0 .661.264a.82.82 0 0 1 .279.626q0 .363-.279.627a.93.93 0 0 1-.66.258M42.605 42v-7.636h1.427v1.242h.094q.24-.63.78-.984.542-.358 1.298-.358.765 0 1.283.358a2.1 2.1 0 0 1 .77.984h.08a2.15 2.15 0 0 1 .87-.974q.597-.368 1.422-.368 1.04 0 1.695.651.661.653.661 1.964V42H51.5v-4.981q0-.776-.423-1.124a1.54 1.54 0 0 0-1.009-.348q-.726 0-1.128.447-.403.443-.403 1.139V42h-1.482v-5.076q0-.62-.388-1-.387-.377-1.009-.377-.422 0-.78.224-.354.219-.572.611a1.9 1.9 0 0 0-.214.91V42zm15.664.154q-1.128 0-1.944-.482a3.27 3.27 0 0 1-1.253-1.367q-.437-.885-.437-2.074 0-1.173.437-2.068a3.4 3.4 0 0 1 1.233-1.397q.795-.502 1.86-.502.645 0 1.252.214.607.213 1.09.671.48.458.76 1.188.278.727.278 1.765v.527h-6.07v-1.113h4.614q0-.587-.239-1.04a1.8 1.8 0 0 0-.671-.72 1.88 1.88 0 0 0-1.005-.264 1.94 1.94 0 0 0-1.093.308 2.07 2.07 0 0 0-.716.796 2.3 2.3 0 0 0-.249 1.059v.87q0 .765.269 1.302.273.537.76.82.488.28 1.139.28.422 0 .77-.12.348-.125.602-.368.254-.244.388-.602l1.407.254a2.55 2.55 0 0 1-.607 1.089 2.94 2.94 0 0 1-1.089.72q-.651.255-1.486.254m8.63-.154v-7.636h1.487V42zm.751-8.815a.95.95 0 0 1-.666-.258.84.84 0 0 1-.273-.627.83.83 0 0 1 .273-.626.94.94 0 0 1 .666-.264q.389 0 .662.264a.82.82 0 0 1 .278.626q0 .363-.278.627a.93.93 0 0 1-.662.258m4.222 4.28V42h-1.486v-7.636h1.427v1.242h.094q.264-.606.826-.974.566-.368 1.426-.368.78 0 1.368.328.585.324.91.965.323.64.323 1.586V42h-1.487v-4.678q0-.83-.432-1.298-.433-.472-1.189-.472-.516 0-.92.224-.397.223-.63.656-.23.428-.23 1.034M82.579 42V31.818h3.728q1.084 0 1.795.358.711.352 1.064.96.353.6.353 1.357 0 .636-.234 1.074-.233.432-.626.696a2.8 2.8 0 0 1-.855.378v.1q.507.024.99.327.486.298.804.85.32.552.319 1.343a2.7 2.7 0 0 1-.368 1.402q-.363.615-1.124.979-.76.358-1.944.358zm1.536-1.318h2.217q1.104 0 1.581-.427t.477-1.069q0-.482-.243-.885a1.74 1.74 0 0 0-.696-.641q-.448-.24-1.064-.239h-2.272zm0-4.459h2.058q.517 0 .93-.199.418-.198.661-.557.249-.363.248-.855 0-.63-.442-1.059-.442-.427-1.357-.427h-2.098zm10.796 5.931q-1.129 0-1.944-.482a3.27 3.27 0 0 1-1.253-1.367q-.438-.885-.438-2.074 0-1.173.438-2.068a3.4 3.4 0 0 1 1.233-1.397q.795-.502 1.86-.502.646 0 1.252.214.606.213 1.089.671.482.458.76 1.188.279.727.279 1.765v.527h-6.07v-1.113h4.613q0-.587-.238-1.04a1.8 1.8 0 0 0-.672-.72 1.88 1.88 0 0 0-1.004-.264 1.94 1.94 0 0 0-1.094.308 2.07 2.07 0 0 0-.716.796 2.3 2.3 0 0 0-.248 1.059v.87q0 .765.268 1.302.274.537.761.82.487.28 1.138.28.424 0 .771-.12.348-.125.602-.368.253-.244.388-.602l1.406.254a2.55 2.55 0 0 1-.606 1.089 2.94 2.94 0 0 1-1.089.72q-.651.255-1.486.254m7.784-.005a2.96 2.96 0 0 1-1.651-.472q-.72-.477-1.133-1.357-.408-.885-.408-2.123t.413-2.118q.417-.88 1.143-1.348a2.98 2.98 0 0 1 1.646-.467q.711 0 1.143.239.438.234.676.547.244.314.378.552h.09v-3.784h1.486V42h-1.451v-1.188h-.125a4 4 0 0 1-.388.557 2.1 2.1 0 0 1-.686.547q-.437.233-1.133.233m.328-1.268q.642 0 1.084-.338.447-.342.676-.95.234-.606.234-1.411 0-.796-.229-1.392-.229-.597-.671-.93t-1.094-.333q-.67 0-1.119.348a2.13 2.13 0 0 0-.676.95 3.9 3.9 0 0 0-.223 1.357q0 .766.228 1.377.23.611.676.97.453.352 1.114.352M59.486 74.466V79h-1.487V68.818h1.467v3.788h.094q.27-.615.82-.979.554-.363 1.442-.363.785 0 1.373.323.591.323.914.965.33.636.329 1.59V79H62.95v-4.678q0-.84-.432-1.303-.433-.467-1.204-.467-.527 0-.944.224-.412.224-.652.656-.233.428-.233 1.034M66.42 79v-7.636h1.437v1.213h.08q.208-.616.735-.97a2.1 2.1 0 0 1 1.203-.358 6 6 0 0 1 .632.035v1.422a3 3 0 0 0-.318-.055 3 3 0 0 0-.458-.034 1.94 1.94 0 0 0-.94.223 1.66 1.66 0 0 0-.884 1.497V79z"/><path fill="#09090B" d="M40.89 82.358q-2.955 0-5.255-.959-2.289-.972-3.592-2.646a6.02 6.02 0 0 1-1.304-3.797q0-1.635.741-3.004a6.7 6.7 0 0 1 2.046-2.289 6.74 6.74 0 0 1 2.889-1.176v-.179q-2.097-.422-3.4-2.032-1.305-1.624-1.305-3.772 0-2.032 1.19-3.618 1.188-1.598 3.26-2.505 2.082-.92 4.73-.92 2.645 0 4.716.92 2.084.92 3.273 2.518 1.189 1.586 1.202 3.605-.013 2.16-1.33 3.772-1.315 1.61-3.375 2.032v.18a6.6 6.6 0 0 1 2.851 1.175 6.7 6.7 0 0 1 2.046 2.289 6.14 6.14 0 0 1 .78 3.004 6.08 6.08 0 0 1-1.317 3.797q-1.305 1.674-3.605 2.646-2.289.96-5.242.959m0-4.065q1.316 0 2.3-.473.985-.486 1.534-1.33.563-.856.563-1.969 0-1.137-.575-2.007a3.96 3.96 0 0 0-1.56-1.38q-.984-.512-2.263-.512-1.266 0-2.263.511a3.93 3.93 0 0 0-1.572 1.381q-.562.87-.562 2.007 0 1.112.55 1.97.549.843 1.546 1.329.998.473 2.301.473m0-11.698q1.098 0 1.955-.447a3.37 3.37 0 0 0 1.343-1.24q.485-.793.485-1.828 0-1.023-.486-1.79a3.33 3.33 0 0 0-1.329-1.215q-.843-.447-1.969-.447-1.112 0-1.969.447a3.3 3.3 0 0 0-1.342 1.215q-.473.767-.473 1.79 0 1.036.486 1.828t1.342 1.24 1.956.447"/><path fill="#71717A" d="M128.999 79v-7.636h1.427v1.242h.095q.239-.63.78-.984.542-.358 1.298-.358.765 0 1.282.358.522.359.771.984h.08q.273-.61.87-.974.596-.368 1.421-.368 1.04 0 1.696.651.661.653.661 1.964V79h-1.487v-4.981q0-.776-.422-1.124a1.54 1.54 0 0 0-1.009-.348q-.726 0-1.129.447-.403.443-.403 1.139V79h-1.481v-5.076q0-.62-.388-1-.388-.377-1.009-.377-.423 0-.781.224-.353.218-.571.611a1.87 1.87 0 0 0-.214.91V79zm12.373 0v-7.636h1.487V79zm.751-8.815a.94.94 0 0 1-.666-.258.84.84 0 0 1-.274-.627q0-.368.274-.626a.94.94 0 0 1 .666-.264q.388 0 .661.264a.82.82 0 0 1 .279.626q0 .363-.279.627a.93.93 0 0 1-.661.258m4.222 4.28V79h-1.486v-7.636h1.427v1.242h.094q.264-.606.825-.974.567-.368 1.427-.368.78 0 1.367.328.587.323.91.965.324.64.323 1.586V79h-1.486v-4.678q0-.83-.433-1.298-.432-.472-1.188-.472-.517 0-.92.224a1.6 1.6 0 0 0-.631.656q-.23.428-.229 1.034"/><path fill="#09090B" d="M86.8 82.358q-2.865 0-5.101-.984-2.224-.998-3.516-2.736-1.278-1.752-1.317-4.04h5.574q.051.96.627 1.688.588.715 1.56 1.112.97.396 2.186.396 1.265 0 2.237-.447.97-.448 1.521-1.24.55-.793.55-1.829 0-1.048-.588-1.853-.576-.819-1.662-1.279-1.074-.46-2.557-.46h-2.442v-4.065h2.442q1.252 0 2.212-.435.97-.435 1.508-1.202.537-.78.537-1.815 0-.984-.473-1.726a3.1 3.1 0 0 0-1.304-1.176q-.831-.422-1.943-.422a5.1 5.1 0 0 0-2.058.41q-.934.396-1.496 1.137t-.601 1.739h-5.305q.038-2.263 1.29-3.989 1.254-1.726 3.376-2.697 2.135-.985 4.82-.985 2.71 0 4.742.985 2.033.984 3.158 2.659 1.137 1.662 1.125 3.733.012 2.199-1.368 3.669-1.367 1.47-3.567 1.866v.205q2.89.37 4.398 2.007 1.521 1.623 1.509 4.065.013 2.238-1.292 3.976-1.291 1.74-3.566 2.736t-5.216.997m23.615 0q-2.71 0-4.832-.997-2.11-.997-3.35-2.749-1.24-1.75-1.291-4.014h5.369q.09 1.522 1.279 2.467t2.825.946q1.303 0 2.301-.575a4.1 4.1 0 0 0 1.573-1.624q.575-1.048.575-2.403 0-1.38-.588-2.429a4.16 4.16 0 0 0-1.598-1.636q-1.023-.588-2.34-.601-1.15 0-2.237.473-1.074.473-1.675 1.291l-4.921-.882 1.24-13.807h16.005v4.526h-11.441l-.678 6.558h.153q.691-.972 2.084-1.61 1.393-.64 3.12-.64 2.365 0 4.218 1.112a8 8 0 0 1 2.928 3.056q1.073 1.93 1.061 4.449.012 2.646-1.227 4.704-1.227 2.046-3.439 3.222-2.2 1.163-5.114 1.163"/><path fill="url(#b)" d="M305 111v120H5V111.5s23.12 28.5 47.932 28 33.271-28.5 54.7-28.5c21.428 0 37.218 50 72.744 50s59.21-64 85.714-64S305 111 305 111"/><path stroke="#059669" stroke-linecap="round" stroke-linejoin="round" d="M305 111s-12.388-14-38.853-14-50.115 64-85.59 64c-35.474 0-51.241-50-72.638-50s-29.844 28-54.62 28.5S6 111.5 6 111.5"/><ellipse cx="178.5" cy="161" fill="#059669" rx="4.5" ry="4"/><g filter="url(#c)"><rect width="112" height="24" x="41.5" y="169.5" fill="#fff" rx="6" shape-rendering="crispEdges"/><path fill="#71717A" d="M49.983 179.009v-.782h5.455v.782H53.15v6.491h-.881v-6.491zm6.9 6.491v-5.455h.838v5.455zm.426-6.364a.6.6 0 0 1-.422-.167.54.54 0 0 1-.174-.401q0-.234.174-.401a.6.6 0 0 1 .422-.167q.244 0 .42.167a.53.53 0 0 1 .177.401.53.53 0 0 1-.178.401.58.58 0 0 1-.419.167m2.147 6.364v-5.455h.81v.853h.07q.171-.437.551-.679.38-.245.913-.245.54 0 .898.245.363.242.565.679h.057q.21-.423.628-.671.42-.253 1.005-.253.732 0 1.197.459.465.454.465 1.416v3.651h-.838v-3.651q0-.603-.33-.862-.33-.26-.778-.26-.574 0-.891.348-.316.345-.316.874v3.551h-.853v-3.736q0-.465-.301-.749-.302-.288-.778-.288-.327 0-.61.174a1.3 1.3 0 0 0-.455.483q-.17.305-.17.707v3.409zm11.178.114q-.787 0-1.36-.348a2.34 2.34 0 0 1-.877-.98q-.305-.633-.305-1.471 0-.837.305-1.477.31-.642.86-1.001.554-.363 1.292-.363.426 0 .842.142.415.143.756.462.341.316.544.838.202.522.202 1.286v.355h-4.205v-.725h3.353q0-.461-.185-.823a1.4 1.4 0 0 0-.518-.572 1.45 1.45 0 0 0-.789-.21q-.5 0-.866.249a1.63 1.63 0 0 0-.558.639 1.9 1.9 0 0 0-.195.845v.483q0 .618.213 1.048.216.426.6.65.384.22.891.22.33 0 .597-.093.27-.095.465-.284.195-.191.302-.475l.81.227a1.8 1.8 0 0 1-.43.724q-.302.309-.746.483a2.8 2.8 0 0 1-.998.171m6.746-.114v-5.455h.838v5.455zm.427-6.364a.6.6 0 0 1-.423-.167.54.54 0 0 1-.174-.401q0-.234.174-.401a.6.6 0 0 1 .422-.167q.245 0 .42.167a.53.53 0 0 1 .177.401.53.53 0 0 1-.178.401.58.58 0 0 1-.418.167m2.984 3.083v3.281h-.838v-5.455h.81v.853h.071q.192-.416.582-.668.39-.255 1.009-.256.554 0 .97.228.415.223.646.682.23.454.23 1.15v3.466h-.838v-3.409q0-.643-.333-1.002-.334-.362-.916-.362-.402 0-.718.174a1.25 1.25 0 0 0-.493.508 1.7 1.7 0 0 0-.182.81m8.338 3.281v-7.273h.838v2.685h.071q.093-.143.256-.362.167-.224.476-.398.312-.177.845-.178.69 0 1.214.345.525.345.82.976.296.633.296 1.492 0 .867-.295 1.502a2.33 2.33 0 0 1-.817.98q-.523.345-1.204.345-.524 0-.842-.174a1.6 1.6 0 0 1-.486-.402 5 5 0 0 1-.263-.376h-.1v.838zm.824-2.727q0 .618.181 1.09.18.468.53.735.346.263.852.263.525 0 .877-.277.355-.28.532-.753.181-.476.181-1.058 0-.576-.177-1.037a1.6 1.6 0 0 0-.53-.735q-.35-.274-.883-.274-.512 0-.86.26-.348.255-.526.717a3 3 0 0 0-.177 1.069m7.76 2.841q-.788 0-1.36-.348a2.34 2.34 0 0 1-.877-.98q-.306-.633-.305-1.471 0-.837.305-1.477.31-.642.86-1.001.554-.363 1.292-.363.426 0 .842.142.415.143.756.462.341.316.543.838.203.522.203 1.286v.355h-4.205v-.725h3.353q0-.461-.185-.823a1.4 1.4 0 0 0-.519-.572 1.45 1.45 0 0 0-.788-.21q-.501 0-.866.249a1.63 1.63 0 0 0-.558.639 1.9 1.9 0 0 0-.195.845v.483q0 .618.213 1.048.216.426.6.65.384.22.891.22.33 0 .597-.093.27-.095.465-.284.195-.191.302-.475l.81.227a1.8 1.8 0 0 1-.43.724q-.302.309-.746.483a2.8 2.8 0 0 1-.998.171m5.793 0q-.681 0-1.203-.345a2.33 2.33 0 0 1-.817-.98q-.295-.636-.295-1.502 0-.86.295-1.492.294-.631.82-.976.525-.345 1.215-.345.532 0 .841.178.313.174.476.398.167.22.259.362h.071v-2.685h.838v7.273h-.809v-.838h-.1a5 5 0 0 1-.262.376 1.6 1.6 0 0 1-.487.402q-.316.174-.842.174m.114-.753q.504 0 .852-.263.349-.267.529-.735.182-.472.182-1.09 0-.611-.178-1.069a1.55 1.55 0 0 0-.526-.717q-.348-.26-.859-.26-.532 0-.888.274-.352.27-.529.735a2.9 2.9 0 0 0-.174 1.037q0 .582.178 1.058.18.473.532.753.356.276.881.277"/><path fill="#09090B" d="M119.288 185.619q-.915 0-1.619-.315-.699-.315-1.095-.869a2.1 2.1 0 0 1-.392-1.262 2.232 2.232 0 0 1 .861-1.798 2 2 0 0 1 .895-.401v-.051a1.76 1.76 0 0 1-1.045-.699 2.04 2.04 0 0 1-.387-1.244 2.04 2.04 0 0 1 .353-1.193 2.5 2.5 0 0 1 .993-.831 3.3 3.3 0 0 1 1.436-.303q.797 0 1.424.307.63.303.993.831.361.525.366 1.189a2.07 2.07 0 0 1-.401 1.244 1.77 1.77 0 0 1-1.031.699v.051q.49.086.882.401.397.31.631.78.239.464.243 1.018a2.13 2.13 0 0 1-.401 1.262q-.396.554-1.099.869-.7.315-1.607.315m0-1.078q.542 0 .938-.179.396-.183.613-.507.218-.328.222-.767a1.43 1.43 0 0 0-.239-.805 1.6 1.6 0 0 0-.626-.55 2 2 0 0 0-.908-.2q-.515 0-.916.2a1.6 1.6 0 0 0-.631.55 1.4 1.4 0 0 0-.225.805 1.35 1.35 0 0 0 .208.767q.218.324.618.507.401.18.946.179m0-4.061q.435 0 .772-.175.336-.174.528-.485.197-.312.2-.729a1.34 1.34 0 0 0-.196-.716 1.24 1.24 0 0 0-.524-.473 1.7 1.7 0 0 0-.78-.17q-.451 0-.792.17a1.24 1.24 0 0 0-.524.473 1.33 1.33 0 0 0-.184.716q-.004.417.188.729.192.31.528.485.342.175.784.175m5.472 5.101a.83.83 0 0 1-.601-.247.83.83 0 0 1-.251-.605.8.8 0 0 1 .251-.597.82.82 0 0 1 .601-.251q.35 0 .601.251a.8.8 0 0 1 .252.597q0 .234-.12.43a.9.9 0 0 1-.307.307.8.8 0 0 1-.426.115m5.039-8.808v8.727h-1.321v-7.406h-.052l-2.088 1.363v-1.261l2.178-1.423z"/><path fill="#71717A" d="M136.581 182.219v3.281h-.838v-7.273h.838v2.671h.071q.191-.423.575-.671.387-.253 1.03-.253.558 0 .976.224.42.22.65.678.235.454.235 1.158v3.466h-.838v-3.409q0-.65-.338-1.005-.333-.359-.927-.359-.411 0-.738.174a1.3 1.3 0 0 0-.512.508q-.184.334-.184.81m5.27 3.281v-5.455h.81v.824h.056q.15-.405.54-.657.391-.252.881-.252a7 7 0 0 1 .44.014v.853a2 2 0 0 0-.195-.032 2 2 0 0 0-.316-.025q-.398 0-.71.167-.31.163-.491.454a1.23 1.23 0 0 0-.177.657v3.452z"/></g></g><defs><filter id="a" width="310" height="237" x="0" y="0" color-interpolation-filters="sRGB" filterUnits="userSpaceOnUse"><feFlood flood-opacity="0" result="BackgroundImageFix"/><feColorMatrix in="SourceAlpha" result="hardAlpha" values="0 0 0 0 0 0 0 0 0 0 0 0 0 0 0 0 0 0 127 0"/><feOffset dy="1"/><feGaussianBlur stdDeviation="2"/><feComposite in2="hardAlpha" operator="out"/><feColorMatrix values="0 0 0 0 0.0470588 0 0 0 0 0.0470588 0 0 0 0 0.0509804 0 0 0 0.05 0"/><feBlend in2="BackgroundImageFix" result="effect1_dropShadow_15855_160760"/><feBlend in="SourceGraphic" in2="effect1_dropShadow_15855_160760" result="shape"/></filter><filter id="c" width="118" height="31" x="38.5" y="169.5" color-interpolation-filters="sRGB" filterUnits="userSpaceOnUse"><feFlood flood-opacity="0" result="BackgroundImageFix"/><feColorMatrix in="SourceAlpha" result="hardAlpha" values="0 0 0 0 0 0 0 0 0 0 0 0 0 0 0 0 0 0 127 0"/><feMorphology in="SourceAlpha" radius="1" result="effect1_dropShadow_15855_160760"/><feOffset dy="4"/><feGaussianBlur stdDeviation="2"/><feComposite in2="hardAlpha" operator="out"/><feColorMatrix values="0 0 0 0 0.0470588 0 0 0 0 0.0470588 0 0 0 0 0.0509804 0 0 0 0.05 0"/><feBlend in2="BackgroundImageFix" result="effect1_dropShadow_15855_160760"/><feColorMatrix in="SourceAlpha" result="hardAlpha" values="0 0 0 0 0 0 0 0 0 0 0 0 0 0 0 0 0 0 127 0"/><feMorphology in="SourceAlpha" radius="1" result="effect2_dropShadow_15855_160760"/><feOffset dy="4"/><feGaussianBlur stdDeviation="2"/><feComposite in2="hardAlpha" operator="out"/><feColorMatrix values="0 0 0 0 0.0470588 0 0 0 0 0.0470588 0 0 0 0 0.0509804 0 0 0 0.1 0"/><feBlend in2="effect1_dropShadow_15855_160760" result="effect2_dropShadow_15855_160760"/><feBlend in="SourceGraphic" in2="effect2_dropShadow_15855_160760" result="shape"/></filter><linearGradient id="b" x1="110.451" x2="110.451" y1="230.5" y2="109.5" gradientUnits="userSpaceOnUse"><stop stop-color="#059669" stop-opacity=".05"/><stop offset="1" stop-color="#059669" stop-opacity=".4"/></linearGradient></defs></svg>