<svg xmlns="http://www.w3.org/2000/svg" width="304" height="390" fill="none"><g filter="url(#a)"><g clip-path="url(#b)"><path fill="#fff" d="M2 9a8 8 0 0 1 8-8h284a8 8 0 0 1 8 8v370a8 8 0 0 1-8 8H10a8 8 0 0 1-8-8z"/><path fill="#09090B" d="M31.955 35.196v-2.65H45.88v2.65h-5.395V50h-3.137V35.196zM47.07 50V36.91h2.991v2.18h.136q.359-1.133 1.228-1.746a3.38 3.38 0 0 1 2.003-.622q.255 0 .57.025.325.017.538.06v2.838a3.2 3.2 0 0 0-.623-.12 6 6 0 0 0-.81-.06q-.843 0-1.516.367a2.7 2.7 0 0 0-1.049.998q-.383.639-.383 1.474V50zm13.048.264q-1.245 0-2.242-.443a3.66 3.66 0 0 1-1.568-1.33q-.57-.877-.57-2.164 0-1.108.408-1.833.41-.724 1.117-1.159a5.6 5.6 0 0 1 1.593-.656 13 13 0 0 1 1.85-.332q1.151-.12 1.866-.214.716-.102 1.04-.306.333-.213.333-.657v-.05q0-.964-.571-1.492-.572-.529-1.645-.529-1.133 0-1.799.495-.656.494-.886 1.167l-2.88-.409q.34-1.193 1.124-1.994a4.9 4.9 0 0 1 1.918-1.21q1.133-.41 2.506-.41.945 0 1.883.222a5.3 5.3 0 0 1 1.713.733q.775.503 1.245 1.372.477.87.477 2.174V50h-2.966v-1.798h-.102a3.8 3.8 0 0 1-.793 1.022q-.502.47-1.27.759-.759.282-1.781.281m.801-2.267q.93 0 1.61-.366a2.7 2.7 0 0 0 1.05-.989q.374-.613.374-1.338v-1.543q-.145.12-.494.222a7 7 0 0 1-.767.179q-.427.076-.844.136l-.724.103q-.69.093-1.236.306-.545.213-.861.597-.315.375-.315.972 0 .852.622 1.286t1.585.435m12.298-5.667V50h-3.085V36.91h2.949v2.224h.153a3.74 3.74 0 0 1 1.44-1.748q.997-.647 2.464-.647 1.355 0 2.36.58 1.016.579 1.569 1.678.563 1.1.554 2.668V50h-3.085v-7.858q0-1.313-.682-2.054-.674-.741-1.867-.741-.81 0-1.44.358a2.5 2.5 0 0 0-.98 1.014q-.35.665-.35 1.61m21.887-1.96-2.813.306a2.3 2.3 0 0 0-.417-.801 2.1 2.1 0 0 0-.784-.605q-.495-.23-1.21-.23-.965 0-1.62.417-.648.419-.64 1.083-.008.57.418.929.435.357 1.432.588l2.233.477q1.859.4 2.761 1.27.912.87.92 2.276-.007 1.234-.724 2.181-.707.938-1.968 1.466-1.261.53-2.898.529-2.403 0-3.87-1.006-1.465-1.015-1.746-2.821l3.008-.29q.204.886.87 1.338.665.452 1.73.452 1.099 0 1.764-.452.673-.45.673-1.116 0-.562-.435-.93-.426-.365-1.33-.562l-2.232-.468q-1.884-.392-2.787-1.322-.903-.936-.895-2.369-.009-1.21.656-2.096.674-.895 1.867-1.381 1.2-.495 2.77-.494 2.3 0 3.622.98 1.33.98 1.645 2.65m6.592 9.894q-1.245 0-2.242-.443a3.66 3.66 0 0 1-1.568-1.33q-.57-.877-.57-2.164 0-1.108.408-1.833.41-.724 1.117-1.159a5.6 5.6 0 0 1 1.594-.656 13 13 0 0 1 1.849-.332q1.15-.12 1.867-.214.715-.102 1.039-.306.333-.213.333-.657v-.05q0-.964-.571-1.492-.571-.529-1.645-.529-1.134 0-1.798.495-.657.494-.887 1.167l-2.88-.409q.34-1.193 1.124-1.994a4.9 4.9 0 0 1 1.918-1.21q1.134-.41 2.506-.41.945 0 1.883.222a5.3 5.3 0 0 1 1.713.733q.775.503 1.245 1.372.477.87.477 2.174V50h-2.966v-1.798h-.102a3.8 3.8 0 0 1-.793 1.022q-.502.47-1.27.759-.758.282-1.781.281m.801-2.267q.928 0 1.611-.366.682-.375 1.048-.989.375-.613.375-1.338v-1.543q-.144.12-.494.222a7 7 0 0 1-.767.179q-.426.076-.844.136l-.724.103a5.4 5.4 0 0 0-1.236.306q-.546.213-.861.597-.315.375-.315.972 0 .852.622 1.286t1.585.435m14.923 2.259q-1.96 0-3.366-.861a5.74 5.74 0 0 1-2.156-2.378q-.75-1.525-.75-3.511 0-1.995.767-3.52.767-1.534 2.165-2.387 1.406-.86 3.323-.86 1.594 0 2.821.588 1.237.579 1.969 1.645.733 1.056.835 2.471h-2.948a2.82 2.82 0 0 0-.853-1.576q-.665-.64-1.781-.64-.946 0-1.662.512-.716.502-1.116 1.449-.392.945-.392 2.267 0 1.338.392 2.3.391.955 1.099 1.475.716.512 1.679.512.682 0 1.219-.256.544-.265.912-.759.366-.495.503-1.201h2.948q-.11 1.389-.818 2.463-.706 1.065-1.926 1.67-1.218.597-2.864.597m14.679-13.347v2.386h-7.526V36.91zm-5.668-3.136h3.085v12.29q0 .621.188.954.196.324.511.443.315.12.699.12.29 0 .528-.043.248-.043.375-.077l.52 2.412q-.246.086-.707.188-.451.102-1.108.119-1.16.034-2.088-.35a3.25 3.25 0 0 1-1.474-1.21q-.537-.818-.529-2.045zM134.679 50V36.91h3.085V50zm1.551-14.949q-.733 0-1.261-.486-.53-.494-.529-1.184 0-.699.529-1.185a1.78 1.78 0 0 1 1.261-.494q.742 0 1.261.494.53.486.529 1.185 0 .69-.529 1.184a1.78 1.78 0 0 1-1.261.486m10.417 15.205q-1.917 0-3.324-.844-1.406-.845-2.182-2.36-.767-1.518-.767-3.546 0-2.029.767-3.554.776-1.526 2.182-2.37 1.407-.843 3.324-.843t3.324.843q1.406.845 2.173 2.37.776 1.525.776 3.554t-.776 3.545a5.67 5.67 0 0 1-2.173 2.36q-1.407.845-3.324.845m.017-2.472q1.04 0 1.739-.57.699-.58 1.039-1.552.35-.972.35-2.165 0-1.201-.35-2.173-.34-.98-1.039-1.56-.7-.58-1.739-.58-1.065 0-1.773.58-.699.58-1.048 1.56-.34.972-.341 2.173 0 1.193.341 2.165.35.972 1.048 1.551.708.57 1.773.571m11.96-5.454V50h-3.086V36.91h2.949v2.224h.154a3.74 3.74 0 0 1 1.44-1.748q.997-.647 2.463-.647 1.355 0 2.361.58 1.014.579 1.568 1.678.563 1.1.554 2.668V50h-3.085v-7.858q0-1.313-.682-2.054-.673-.741-1.867-.741-.809 0-1.44.358a2.5 2.5 0 0 0-.98 1.014q-.35.665-.349 1.61m21.886-1.96-2.813.306a2.25 2.25 0 0 0-.417-.801 2.1 2.1 0 0 0-.784-.605q-.495-.23-1.21-.23-.964 0-1.62.417-.648.419-.639 1.083-.008.57.418.929.434.357 1.431.588l2.233.477q1.858.4 2.762 1.27.912.87.92 2.276a3.56 3.56 0 0 1-.724 2.181q-.708.938-1.969 1.466-1.262.53-2.898.529-2.403 0-3.869-1.006-1.466-1.015-1.747-2.821l3.008-.29q.205.886.87 1.338t1.73.452q1.1 0 1.764-.452.673-.45.673-1.116 0-.562-.434-.93-.427-.365-1.33-.562l-2.233-.468q-1.884-.392-2.787-1.322-.903-.936-.895-2.369-.008-1.21.657-2.096.673-.895 1.866-1.381 1.201-.495 2.77-.494 2.3 0 3.622.98 1.33.98 1.645 2.65"/><path fill="#71717A" d="M32.233 78V67.818h3.44q1.194 0 1.96.408.764.402 1.133 1.109.367.705.367 1.605t-.367 1.596-1.129 1.094q-.76.393-1.944.393H32.91v-1.114h2.744q.816 0 1.313-.239.502-.238.726-.676.228-.442.228-1.054 0-.611-.228-1.069a1.56 1.56 0 0 0-.731-.706q-.502-.253-1.328-.253h-2.167V78zm4.793-4.574L39.53 78H38.1l-2.465-4.574zm7.123 4.733q-1.103 0-1.904-.487a3.27 3.27 0 0 1-1.228-1.372q-.429-.885-.428-2.058 0-1.174.428-2.069.432-.9 1.203-1.402.775-.507 1.81-.507.596 0 1.178.2.58.198 1.059.645.477.443.76 1.174t.283 1.8v.496h-5.886v-1.014h4.693q0-.645-.258-1.153a1.95 1.95 0 0 0-.726-.8q-.468-.294-1.104-.294-.7 0-1.213.348a2.3 2.3 0 0 0-.78.895 2.6 2.6 0 0 0-.274 1.183v.677q0 .864.298 1.466.305.597.84.91.538.308 1.249.308.462 0 .835-.13.378-.133.651-.397.273-.268.423-.666l1.133.318q-.18.578-.601 1.014-.423.433-1.044.677-.622.237-1.397.238m8.049 0q-1.074 0-1.85-.507a3.3 3.3 0 0 1-1.193-1.397q-.417-.89-.418-2.033 0-1.163.428-2.054a3.4 3.4 0 0 1 1.203-1.397q.775-.507 1.81-.507.805 0 1.451.299.646.297 1.06.835.412.537.511 1.253h-1.173q-.134-.522-.596-.925-.457-.408-1.233-.408-.687 0-1.203.358-.513.354-.8 1-.284.641-.284 1.506 0 .885.278 1.541.283.656.796 1.02.517.362 1.213.362.456 0 .83-.159t.631-.457q.259-.3.368-.716H55.2q-.099.675-.492 1.218a2.75 2.75 0 0 1-1.029.855q-.636.313-1.481.313m7.92 0q-1.104 0-1.905-.487a3.27 3.27 0 0 1-1.228-1.372q-.427-.885-.427-2.058 0-1.174.427-2.069.434-.9 1.203-1.402.775-.507 1.81-.507.596 0 1.178.2.582.198 1.06.645.476.443.76 1.174.283.73.283 1.8v.496h-5.886v-1.014h4.693q0-.645-.258-1.153a1.95 1.95 0 0 0-.726-.8q-.468-.294-1.104-.294-.701 0-1.213.348a2.3 2.3 0 0 0-.78.895 2.6 2.6 0 0 0-.274 1.183v.677q0 .864.298 1.466.303.597.84.91.537.308 1.248.308.463 0 .836-.13.378-.133.65-.397.274-.268.423-.666l1.134.318q-.18.578-.602 1.014-.422.433-1.044.677-.621.237-1.397.238m6.12-4.753V78h-1.174v-7.636h1.134v1.193h.1q.268-.582.814-.935.548-.358 1.412-.358.776 0 1.358.318.581.314.904.955.324.636.324 1.61V78h-1.174v-4.773q0-.9-.467-1.402-.468-.507-1.283-.507-.561 0-1.004.244-.438.244-.691.71-.255.468-.254 1.134m10.337-3.042v.994h-3.958v-.994zm-2.804-1.83h1.173v7.278q0 .498.144.746.15.244.378.328.234.08.492.08.194 0 .318-.02l.2-.04.238 1.054q-.12.045-.333.09a2.5 2.5 0 0 1-.542.05q-.497 0-.975-.214a1.94 1.94 0 0 1-.785-.652q-.309-.437-.308-1.103zm11.827 1.83v.994h-3.957v-.994zm-2.804-1.83h1.173v7.278q0 .498.145.746.149.244.377.328.234.08.492.08.195 0 .319-.02l.199-.04.238 1.054q-.12.045-.333.09-.213.05-.542.05-.497 0-.974-.214a1.94 1.94 0 0 1-.786-.652q-.308-.437-.308-1.103zM87.363 78v-7.636h1.133v1.153h.08q.21-.567.756-.92a2.22 2.22 0 0 1 1.233-.353q.13 0 .323.005.194.006.293.015v1.193q-.06-.015-.273-.044a3 3 0 0 0-.443-.035q-.557 0-.994.234a1.76 1.76 0 0 0-.686.636 1.7 1.7 0 0 0-.249.92V78zm7.456.179q-.726 0-1.317-.273a2.26 2.26 0 0 1-.94-.8q-.348-.528-.348-1.274 0-.656.258-1.063.259-.413.692-.647t.954-.348q.526-.12 1.059-.189.696-.09 1.129-.134.436-.05.636-.164.204-.114.204-.398v-.04q0-.735-.403-1.143-.398-.408-1.208-.408-.84 0-1.317.368-.478.368-.672.786l-1.113-.398q.298-.696.795-1.084.503-.393 1.094-.547a4.5 4.5 0 0 1 1.173-.159q.368 0 .845.09.483.084.93.353.453.269.75.81.3.542.3 1.452V78h-1.174v-1.034h-.06q-.12.249-.398.532t-.74.482-1.129.199m.179-1.054q.696 0 1.173-.273a1.86 1.86 0 0 0 .975-1.616v-1.074q-.075.09-.328.164a6 6 0 0 1-.577.124 26 26 0 0 1-1.124.15q-.458.06-.855.193a1.5 1.5 0 0 0-.636.393q-.24.258-.239.706 0 .612.453.925.457.308 1.158.308m6.636-3.719V78h-1.173v-7.636h1.133v1.193h.1q.268-.582.815-.935.546-.358 1.412-.358.775 0 1.357.318.582.314.905.955.323.636.323 1.61V78h-1.173v-4.773q0-.9-.468-1.402-.467-.507-1.282-.507-.562 0-1.005.244-.437.244-.691.71-.253.468-.253 1.134m12.425-1.332-1.054.298a2 2 0 0 0-.293-.512 1.4 1.4 0 0 0-.517-.418q-.328-.164-.84-.164-.701 0-1.169.324-.462.318-.462.81 0 .438.318.691.319.253.994.423l1.134.278q1.024.25 1.526.76.502.509.502 1.308 0 .657-.378 1.174-.372.516-1.044.815-.67.298-1.561.298-1.168 0-1.934-.507-.765-.507-.969-1.481l1.114-.279q.159.617.601.925.448.308 1.168.308.821 0 1.303-.348.487-.353.487-.845a.9.9 0 0 0-.278-.666q-.279-.275-.855-.408l-1.273-.298q-1.049-.25-1.541-.77-.487-.528-.487-1.318 0-.646.363-1.144.368-.496.999-.78a3.5 3.5 0 0 1 1.442-.284q1.133 0 1.779.497.652.498.925 1.313m4.153 6.105q-.726 0-1.318-.273a2.26 2.26 0 0 1-.939-.8q-.348-.528-.348-1.274 0-.656.258-1.063.258-.413.691-.647t.955-.348q.526-.12 1.059-.189.696-.09 1.128-.134.438-.05.637-.164.203-.114.203-.398v-.04q0-.735-.402-1.143-.398-.408-1.208-.408-.841 0-1.318.368t-.671.786l-1.114-.398q.298-.696.796-1.084a3 3 0 0 1 1.093-.547q.597-.159 1.174-.159.368 0 .845.09.481.084.93.353.451.269.75.81.299.542.299 1.452V78h-1.174v-1.034h-.059a2 2 0 0 1-.398.532q-.279.284-.741.482-.462.2-1.128.199m.179-1.054q.696 0 1.173-.273a1.87 1.87 0 0 0 .726-.706q.248-.433.248-.91v-1.074q-.074.09-.328.164a6 6 0 0 1-.576.124 27 27 0 0 1-1.124.15q-.457.06-.855.193a1.5 1.5 0 0 0-.637.393q-.238.258-.238.706 0 .612.452.925.457.308 1.159.308m8.564 1.034q-1.073 0-1.849-.507a3.3 3.3 0 0 1-1.193-1.397q-.418-.89-.418-2.033 0-1.163.428-2.054a3.4 3.4 0 0 1 1.203-1.397q.775-.507 1.81-.507.804 0 1.451.299a2.8 2.8 0 0 1 1.059.835q.413.537.512 1.253h-1.173a1.8 1.8 0 0 0-.597-.925q-.457-.408-1.233-.408-.685 0-1.203.358-.512.354-.8 1-.283.641-.283 1.506 0 .885.278 1.541.283.656.795 1.02.517.362 1.213.362a2.1 2.1 0 0 0 .831-.159q.373-.159.631-.457.258-.3.368-.716h1.173a2.71 2.71 0 0 1-1.521 2.073q-.636.313-1.482.313m8.039-7.795v.994h-3.957v-.994zm-2.803-1.83h1.173v7.278q0 .498.144.746a.74.74 0 0 0 .378.328q.234.08.492.08.194 0 .318-.02l.199-.04.239 1.054q-.12.045-.333.09-.215.05-.542.05-.498 0-.975-.214a1.94 1.94 0 0 1-.785-.652q-.309-.437-.308-1.103zM136.759 78v-7.636h1.174V78zm.597-8.91a.84.84 0 0 1-.592-.233.75.75 0 0 1-.243-.561q0-.33.243-.562a.84.84 0 0 1 .592-.234q.343 0 .587.234a.75.75 0 0 1 .248.562.75.75 0 0 1-.248.561.82.82 0 0 1-.587.234m5.828 9.07q-1.034 0-1.815-.493a3.35 3.35 0 0 1-1.213-1.377q-.432-.885-.432-2.068 0-1.194.432-2.084a3.34 3.34 0 0 1 1.213-1.382q.781-.492 1.815-.492t1.81.492q.78.494 1.213 1.382.437.89.437 2.084 0 1.183-.437 2.068a3.3 3.3 0 0 1-1.213 1.377q-.776.492-1.81.492m0-1.055q.785 0 1.293-.403a2.37 2.37 0 0 0 .75-1.058q.244-.657.244-1.422t-.244-1.427a2.4 2.4 0 0 0-.75-1.07q-.508-.406-1.293-.407-.786 0-1.293.408a2.4 2.4 0 0 0-.75 1.069q-.244.66-.244 1.427 0 .765.244 1.422.243.656.75 1.058.507.403 1.293.403m6.424-3.699V78h-1.173v-7.636h1.134v1.193h.099q.269-.582.815-.935.548-.358 1.412-.358.776 0 1.358.318.581.314.904.955.324.636.324 1.61V78h-1.174v-4.773q0-.9-.467-1.402-.468-.507-1.283-.507-.561 0-1.004.244a1.74 1.74 0 0 0-.691.71q-.254.468-.254 1.134m12.426-1.332-1.054.298a2 2 0 0 0-.294-.512 1.4 1.4 0 0 0-.517-.418q-.327-.164-.84-.164-.701 0-1.168.324-.462.318-.462.81 0 .438.318.691t.994.423l1.134.278q1.023.25 1.526.76.502.509.502 1.308 0 .657-.378 1.174-.372.516-1.044.815-.671.298-1.561.298-1.169 0-1.934-.507-.766-.507-.969-1.481l1.113-.279q.16.617.602.925.447.308 1.168.308.82 0 1.303-.348.486-.353.487-.845a.89.89 0 0 0-.279-.666q-.278-.275-.855-.408l-1.272-.298q-1.05-.25-1.542-.77-.486-.528-.487-1.318 0-.646.363-1.144.368-.496.999-.78a3.5 3.5 0 0 1 1.442-.284q1.134 0 1.78.497.65.498.925 1.313m9.243-1.71v.994h-4.116v-.994zM168.394 78v-8.69q0-.657.308-1.094t.8-.656a2.5 2.5 0 0 1 1.039-.22q.433 0 .706.07.274.07.408.13l-.338 1.014a6 6 0 0 0-.249-.075 1.5 1.5 0 0 0-.407-.044q-.582 0-.841.293-.253.294-.253.86V78zm4.528 0v-7.636h1.133v1.153h.08q.209-.567.755-.92a2.23 2.23 0 0 1 1.233-.353q.13 0 .323.005.194.006.294.015v1.193a4 4 0 0 0-.274-.044 3 3 0 0 0-.442-.035q-.557 0-.995.234a1.77 1.77 0 0 0-.686.636 1.7 1.7 0 0 0-.248.92V78zm8.078.16q-1.034 0-1.814-.493a3.34 3.34 0 0 1-1.213-1.377q-.433-.885-.433-2.068 0-1.194.433-2.084a3.33 3.33 0 0 1 1.213-1.382q.78-.492 1.814-.492t1.81.492q.78.494 1.213 1.382.438.89.438 2.084 0 1.183-.438 2.068a3.3 3.3 0 0 1-1.213 1.377q-.775.492-1.81.492m0-1.055q.786 0 1.293-.403a2.4 2.4 0 0 0 .751-1.058q.243-.657.243-1.422t-.243-1.427a2.4 2.4 0 0 0-.751-1.07q-.507-.406-1.293-.407t-1.292.408a2.4 2.4 0 0 0-.751 1.069q-.243.66-.244 1.427 0 .765.244 1.422t.751 1.058q.507.403 1.292.403m5.252.895v-7.636h1.133v1.193h.1a1.92 1.92 0 0 1 .77-.95q.532-.343 1.278-.343.756 0 1.258.343.507.338.79.95h.08q.293-.592.88-.94.587-.353 1.407-.353 1.023 0 1.675.642.651.636.651 1.983V78h-1.173v-5.11q0-.846-.462-1.209a1.7 1.7 0 0 0-1.089-.363q-.805 0-1.248.487-.442.483-.442 1.223V78h-1.194v-5.23q0-.651-.422-1.05-.423-.402-1.089-.402-.458 0-.855.244a1.83 1.83 0 0 0-.636.676q-.24.428-.239.99V78zm16.861 2.864q-.298 0-.532-.05a1.4 1.4 0 0 1-.323-.09l.298-1.034q.427.11.756.08a.9.9 0 0 0 .581-.293q.259-.26.473-.84l.218-.597-2.824-7.676h1.273l2.108 6.085h.08l2.108-6.085h1.272l-3.241 8.75q-.22.59-.542.979a2 2 0 0 1-.751.582q-.422.189-.954.189m9.866-2.705q-1.034 0-1.815-.492a3.35 3.35 0 0 1-1.213-1.377q-.432-.885-.432-2.068 0-1.194.432-2.084a3.34 3.34 0 0 1 1.213-1.382q.78-.492 1.815-.492 1.033 0 1.81.492.78.494 1.213 1.382.437.89.437 2.084 0 1.183-.437 2.068a3.3 3.3 0 0 1-1.213 1.377q-.777.492-1.81.492m0-1.054q.785 0 1.292-.403.508-.402.751-1.058.244-.657.244-1.422t-.244-1.427a2.4 2.4 0 0 0-.751-1.07q-.506-.406-1.292-.407t-1.293.408a2.4 2.4 0 0 0-.75 1.069q-.244.66-.244 1.427 0 .765.244 1.422.243.656.75 1.058.507.403 1.293.403m10.064-2.227v-4.514h1.173V78h-1.173v-1.293h-.08a2.5 2.5 0 0 1-.835.99q-.567.402-1.432.402-.715 0-1.273-.313a2.2 2.2 0 0 1-.875-.954q-.318-.641-.318-1.616v-4.852h1.173v4.772q0 .835.468 1.333.472.497 1.203.497.438 0 .89-.224.458-.224.765-.686.314-.462.314-1.178M226.365 78v-7.636h1.133v1.153h.08q.208-.567.756-.92a2.2 2.2 0 0 1 1.233-.353q.129 0 .323.005.194.006.293.015v1.193a4 4 0 0 0-.273-.044 3 3 0 0 0-.443-.035q-.556 0-.994.234a1.712 1.712 0 0 0-.935 1.556V78zm14.555-5.926-1.054.298a2 2 0 0 0-.293-.512 1.4 1.4 0 0 0-.517-.418q-.328-.164-.84-.164-.701 0-1.168.324-.463.318-.463.81 0 .438.318.691.319.253.995.423l1.133.278q1.025.25 1.527.76.502.509.502 1.308 0 .657-.378 1.174-.374.516-1.044.815-.672.298-1.561.298-1.169 0-1.934-.507-.766-.507-.97-1.481l1.114-.279q.16.617.601.925.448.308 1.169.308.82 0 1.302-.348.488-.353.488-.845a.89.89 0 0 0-.279-.666q-.278-.275-.855-.408l-1.273-.298q-1.049-.25-1.541-.77-.487-.528-.487-1.318 0-.646.363-1.144.368-.496.999-.78a3.5 3.5 0 0 1 1.442-.284q1.134 0 1.78.497.651.498.924 1.313m5.227-1.71v.994h-3.958v-.994zm-2.804-1.83h1.173v7.278q0 .498.144.746.15.244.378.328.234.08.492.08.195 0 .319-.02l.198-.04.239 1.054q-.12.045-.333.09-.214.05-.542.05a2.4 2.4 0 0 1-.974-.214 1.94 1.94 0 0 1-.786-.652q-.308-.437-.308-1.103zm7.589 9.625q-1.033 0-1.815-.492a3.35 3.35 0 0 1-1.213-1.377q-.432-.885-.432-2.068 0-1.194.432-2.084a3.34 3.34 0 0 1 1.213-1.382q.782-.492 1.815-.492 1.034 0 1.81.492.78.494 1.213 1.382.437.89.437 2.084 0 1.183-.437 2.068a3.3 3.3 0 0 1-1.213 1.377q-.776.492-1.81.492m0-1.054q.786 0 1.293-.403a2.37 2.37 0 0 0 .75-1.058q.244-.657.244-1.422t-.244-1.427a2.4 2.4 0 0 0-.75-1.07q-.507-.406-1.293-.407t-1.293.408a2.4 2.4 0 0 0-.75 1.069q-.244.66-.244 1.427 0 .765.244 1.422.243.656.75 1.058.507.403 1.293.403m5.251.895v-7.636h1.134v1.153h.079q.21-.567.756-.92a2.23 2.23 0 0 1 1.233-.353q.13 0 .323.005.194.006.293.015v1.193a3 3 0 0 0-.273-.044 3 3 0 0 0-.442-.035q-.558 0-.995.234a1.712 1.712 0 0 0-.934 1.556V78zm8.179.16q-1.104 0-1.905-.488a3.28 3.28 0 0 1-1.228-1.372q-.427-.885-.427-2.058 0-1.174.427-2.069.433-.9 1.204-1.402.775-.507 1.809-.507.597 0 1.178.2.582.198 1.059.645.478.443.761 1.174t.283 1.8v.496h-5.886v-1.014h4.693q0-.645-.258-1.153a1.95 1.95 0 0 0-.726-.8q-.468-.294-1.104-.294-.7 0-1.213.348a2.3 2.3 0 0 0-.78.895 2.6 2.6 0 0 0-.274 1.183v.677q0 .864.298 1.466.304.597.841.91.537.308 1.248.308.462 0 .835-.13.378-.133.651-.397.273-.268.423-.666l1.133.318q-.179.578-.601 1.014-.423.433-1.044.677-.622.237-1.397.238m5.801-.08a.86.86 0 0 1-.631-.264.86.86 0 0 1-.264-.631.86.86 0 0 1 .264-.632.86.86 0 0 1 .631-.263q.369 0 .632.263a.86.86 0 0 1 .263.632.93.93 0 0 1-.447.775.86.86 0 0 1-.448.12"/><g clip-path="url(#c)"><g clip-path="url(#d)"><mask id="e" fill="#fff"><path d="M26 107h126v40H26z"/></mask><path fill="#E4E4E7" d="M152 147v-1H26v2h126z" mask="url(#e)"/><path fill="#71717A" d="M43.575 125.129h-1.55a2.37 2.37 0 0 0-.93-1.516 2.6 2.6 0 0 0-.791-.398 3.1 3.1 0 0 0-.92-.134q-.88 0-1.576.442-.69.443-1.093 1.298-.398.855-.398 2.088 0 1.243.398 2.098.402.855 1.098 1.293t1.566.437q.483 0 .915-.129.438-.134.79-.393a2.378 2.378 0 0 0 .94-1.496l1.551.005q-.124.75-.482 1.382a3.8 3.8 0 0 1-.91 1.084 4.1 4.1 0 0 1-1.263.701 4.7 4.7 0 0 1-1.55.248q-1.323 0-2.357-.626-1.035-.632-1.63-1.805-.593-1.173-.593-2.799 0-1.63.597-2.799.597-1.173 1.63-1.8 1.035-.631 2.352-.631.81 0 1.512.234.706.228 1.267.676.562.442.93 1.084.368.636.497 1.456m6.557 3.704v-4.469h1.491V132h-1.462v-1.322h-.08a2.4 2.4 0 0 1-.844 1.019q-.578.402-1.437.402-.736 0-1.303-.323a2.27 2.27 0 0 1-.885-.969q-.318-.642-.318-1.586v-4.857h1.487v4.678q0 .78.432 1.243.433.462 1.124.462.417 0 .83-.209.418-.208.691-.631.279-.423.274-1.074m9.21-2.605-1.347.239a1.6 1.6 0 0 0-.268-.493 1.3 1.3 0 0 0-.487-.382q-.31-.15-.77-.15-.633 0-1.055.284-.422.278-.422.721 0 .382.283.616t.915.383l1.213.278q1.054.244 1.57.751.519.507.518 1.318 0 .686-.398 1.223-.393.532-1.099.835-.7.303-1.625.303-1.283 0-2.093-.547-.81-.552-.995-1.566l1.437-.219q.134.562.552.851.417.283 1.089.283.73 0 1.168-.303.438-.309.438-.751a.78.78 0 0 0-.269-.602q-.264-.243-.81-.367l-1.293-.284q-1.069-.243-1.58-.775-.508-.532-.508-1.348 0-.676.378-1.183t1.044-.79q.666-.29 1.526-.289 1.237 0 1.95.537.71.532.939 1.427m5.349-1.864v1.193H60.52v-1.193zm-3.053-1.83h1.487v7.224q0 .432.13.651.128.214.332.293.21.075.453.075a1.7 1.7 0 0 0 .313-.025q.135-.024.209-.04l.268 1.228a2.927 2.927 0 0 1-.965.159 2.6 2.6 0 0 1-1.093-.208 1.9 1.9 0 0 1-.82-.677q-.315-.456-.314-1.148zm7.832 9.62q-1.073 0-1.874-.492a3.3 3.3 0 0 1-1.243-1.377q-.443-.886-.443-2.068 0-1.189.443-2.079a3.3 3.3 0 0 1 1.243-1.382q.8-.492 1.874-.492t1.874.492a3.3 3.3 0 0 1 1.243 1.382q.442.89.442 2.079 0 1.183-.442 2.068a3.3 3.3 0 0 1-1.243 1.377q-.8.492-1.874.492m.005-1.248q.696 0 1.153-.368.457-.367.676-.979.225-.612.224-1.347a3.9 3.9 0 0 0-.224-1.343 2.2 2.2 0 0 0-.676-.989q-.458-.373-1.153-.373-.701 0-1.164.373a2.2 2.2 0 0 0-.68.989 4 4 0 0 0-.22 1.343q0 .735.22 1.347.223.612.68.979.463.369 1.164.368M74.689 132v-7.636h1.427v1.243h.094q.24-.632.78-.985.542-.358 1.298-.358.765 0 1.283.358a2.1 2.1 0 0 1 .77.985h.08q.273-.612.87-.975.597-.368 1.422-.368 1.04 0 1.695.651.661.652.661 1.964V132h-1.486v-4.982q0-.775-.423-1.123a1.54 1.54 0 0 0-1.009-.348q-.726 0-1.129.447-.402.443-.402 1.139V132h-1.482v-5.076q0-.621-.388-.999-.387-.378-1.009-.378-.422 0-.78.224a1.63 1.63 0 0 0-.572.611 1.9 1.9 0 0 0-.214.91V132zm15.664.154q-1.128 0-1.944-.482a3.28 3.28 0 0 1-1.253-1.367q-.437-.885-.437-2.073 0-1.174.437-2.069a3.4 3.4 0 0 1 1.233-1.397q.795-.502 1.86-.502.646 0 1.252.214a3 3 0 0 1 1.09.671q.48.457.76 1.188.279.727.278 1.765v.527h-6.07v-1.113h4.614q0-.587-.24-1.039a1.8 1.8 0 0 0-.67-.721 1.87 1.87 0 0 0-1.005-.264q-.626 0-1.093.308a2.1 2.1 0 0 0-.716.796 2.3 2.3 0 0 0-.249 1.059v.87q0 .765.269 1.302.273.537.76.821.488.278 1.139.278.422 0 .77-.119.349-.125.602-.368.254-.243.388-.602l1.407.254a2.55 2.55 0 0 1-.607 1.089 2.95 2.95 0 0 1-1.088.721q-.652.253-1.487.253m4.926-.154v-7.636h1.436v1.213h.08a1.85 1.85 0 0 1 .736-.97 2.1 2.1 0 0 1 1.203-.358 7 7 0 0 1 .631.035v1.422a3 3 0 0 0-.318-.055 3 3 0 0 0-.457-.035q-.528 0-.94.224a1.66 1.66 0 0 0-.885 1.497V132z"/><mask id="f" fill="#fff"><path d="M26 147h126v72H26z"/></mask><path fill="#E4E4E7" d="M152 219v-1H26v2h126z" mask="url(#f)"/><path fill="#18181B" d="M40.672 170.493a1.45 1.45 0 0 0-.656-1.094q-.578-.393-1.452-.393-.627 0-1.084.199-.458.194-.71.537a1.27 1.27 0 0 0-.25.771q0 .363.17.626.173.263.452.443.283.174.607.293.322.114.621.189l.994.258q.487.12 1 .324.512.202.95.537.436.333.705.825.274.492.274 1.178 0 .865-.448 1.536-.442.672-1.288 1.059-.84.388-2.033.388-1.143 0-1.979-.363-.834-.363-1.307-1.029-.472-.671-.522-1.591h1.541q.045.552.358.92.318.362.81.542.498.174 1.09.174.65 0 1.158-.204.512-.209.805-.577.293-.372.293-.87 0-.452-.258-.741a1.9 1.9 0 0 0-.691-.477 7 7 0 0 0-.98-.333l-1.203-.328q-1.222-.333-1.939-.98-.71-.645-.71-1.71 0-.879.477-1.536.477-.656 1.292-1.019.816-.368 1.84-.368 1.034 0 1.824.363.795.363 1.253.999.458.631.477 1.452zm6.902-.129v1.193h-4.171v-1.193zm-3.053-1.83h1.487v7.224q0 .432.129.651.129.214.333.293.21.075.452.075a1.7 1.7 0 0 0 .314-.025q.135-.024.208-.04l.269 1.228a2.927 2.927 0 0 1-.965.159 2.6 2.6 0 0 1-1.093-.208 1.9 1.9 0 0 1-.82-.677q-.314-.456-.314-1.148zm7.906 9.62q-1.128 0-1.944-.482a3.28 3.28 0 0 1-1.252-1.367q-.438-.885-.438-2.073 0-1.174.438-2.069a3.4 3.4 0 0 1 1.232-1.397q.795-.502 1.86-.502.645 0 1.253.214a3 3 0 0 1 1.088.671q.483.458.761 1.188.279.727.279 1.765v.527h-6.07v-1.113h4.613q0-.587-.239-1.039a1.8 1.8 0 0 0-.671-.721 1.87 1.87 0 0 0-1.004-.264q-.626 0-1.094.308a2.1 2.1 0 0 0-.716.796 2.3 2.3 0 0 0-.248 1.059v.87q0 .765.268 1.302.274.537.76.821.487.278 1.14.278.421 0 .77-.119.348-.125.601-.368.255-.243.388-.602l1.407.254a2.55 2.55 0 0 1-.607 1.089 2.95 2.95 0 0 1-1.088.721q-.651.253-1.487.253m4.926 2.71v-10.5h1.451v1.238h.125q.129-.24.373-.552a2.1 2.1 0 0 1 .676-.547q.433-.239 1.143-.239a3 3 0 0 1 1.65.468q.727.467 1.14 1.347.417.879.417 2.118t-.413 2.123q-.413.88-1.133 1.357-.721.472-1.646.472-.696 0-1.138-.234a2.2 2.2 0 0 1-.686-.546 4 4 0 0 1-.383-.557h-.09v4.052zm1.456-6.682q0 .805.234 1.412t.676.949q.443.339 1.084.338.666 0 1.114-.353.447-.357.676-.969.234-.612.233-1.377 0-.756-.228-1.357a2.1 2.1 0 0 0-.676-.95q-.448-.348-1.119-.348-.645 0-1.094.333-.442.333-.67.93-.23.596-.23 1.392m8.67-.716V178h-1.486v-10.182h1.467v3.789h.095q.267-.617.82-.98.551-.363 1.442-.363.784 0 1.372.323.592.323.915.965.328.636.328 1.591V178h-1.487v-4.678q0-.84-.432-1.303-.433-.467-1.204-.467-.526 0-.944.224a1.6 1.6 0 0 0-.651.656q-.234.428-.234 1.034m9.159 4.703q-.726 0-1.313-.268a2.2 2.2 0 0 1-.93-.791q-.338-.517-.338-1.268 0-.646.249-1.064.25-.417.671-.661.423-.243.945-.368a9 9 0 0 1 1.064-.189l1.113-.129q.427-.054.622-.174.194-.119.194-.388v-.034q0-.652-.368-1.01-.363-.358-1.084-.358-.75 0-1.183.333-.428.329-.592.731l-1.397-.318q.249-.696.726-1.124a2.94 2.94 0 0 1 1.109-.626 4.3 4.3 0 0 1 1.317-.199q.457 0 .97.11.516.103.964.387.453.283.74.811.29.522.29 1.357V178h-1.453v-1.044h-.06q-.143.288-.432.567-.288.278-.74.462-.453.184-1.084.184m.323-1.193q.615 0 1.054-.244.442-.243.67-.636.235-.398.235-.85v-.985q-.08.08-.309.15-.224.065-.512.114-.288.045-.562.084l-.457.06a3.7 3.7 0 0 0-.79.184 1.35 1.35 0 0 0-.567.373q-.21.239-.209.636 0 .552.408.835.408.279 1.039.279m6.912-3.51V178h-1.487v-7.636h1.427v1.243h.094q.264-.607.826-.975.566-.368 1.426-.368.78 0 1.368.328.585.324.91.965.323.64.323 1.586V178h-1.487v-4.678q0-.83-.432-1.298-.433-.472-1.189-.472-.516 0-.92.224a1.6 1.6 0 0 0-.63.656q-.23.428-.23 1.034m6.88 4.534v-7.636h1.487V178zm.75-8.815a.95.95 0 0 1-.665-.258.84.84 0 0 1-.274-.627.83.83 0 0 1 .274-.626.93.93 0 0 1 .666-.263q.388 0 .661.263a.82.82 0 0 1 .278.626.84.84 0 0 1-.278.627.93.93 0 0 1-.661.258m6.028 8.969q-1.129 0-1.944-.482a3.28 3.28 0 0 1-1.253-1.367q-.437-.885-.437-2.073 0-1.174.437-2.069a3.4 3.4 0 0 1 1.233-1.397q.795-.502 1.86-.502.645 0 1.252.214a3 3 0 0 1 1.089.671q.482.458.761 1.188.278.727.278 1.765v.527h-6.07v-1.113h4.613q0-.587-.238-1.039a1.8 1.8 0 0 0-.671-.721 1.87 1.87 0 0 0-1.005-.264q-.626 0-1.094.308a2.1 2.1 0 0 0-.715.796 2.3 2.3 0 0 0-.249 1.059v.87q0 .765.269 1.302.273.537.76.821.487.278 1.139.278.422 0 .77-.119.348-.125.602-.368.253-.243.388-.602l1.407.254a2.55 2.55 0 0 1-.607 1.089 2.95 2.95 0 0 1-1.089.721q-.652.253-1.486.253m14.303-7.661a1.45 1.45 0 0 0-.656-1.094q-.578-.393-1.452-.393-.627 0-1.084.199-.458.194-.711.537a1.27 1.27 0 0 0-.248.771q0 .363.169.626.174.263.452.443.283.174.607.293.323.114.621.189l.994.258q.487.12 1 .324.512.202.949.537.438.333.706.825.274.492.274 1.178 0 .865-.448 1.536-.442.672-1.287 1.059-.84.388-2.034.388-1.143 0-1.978-.363t-1.308-1.029q-.472-.671-.522-1.591h1.541q.045.552.358.92.318.362.811.542.497.174 1.088.174.651 0 1.159-.204.512-.209.805-.577.294-.372.293-.87 0-.452-.258-.741a1.9 1.9 0 0 0-.691-.477 7 7 0 0 0-.98-.333l-1.203-.328q-1.222-.333-1.939-.98-.711-.645-.711-1.71 0-.879.478-1.536a3.14 3.14 0 0 1 1.292-1.019q.816-.368 1.84-.368 1.034 0 1.824.363.796.363 1.253.999.457.631.478 1.452zm4.824 2.973V178h-1.487v-10.182h1.467v3.789h.094q.269-.617.821-.98t1.441-.363q.786 0 1.372.323.593.323.915.965.328.636.328 1.591V178h-1.486v-4.678q0-.84-.433-1.303-.432-.467-1.203-.467-.527 0-.944.224a1.6 1.6 0 0 0-.652.656q-.233.428-.233 1.034m9.157 4.703q-.726 0-1.312-.268a2.2 2.2 0 0 1-.93-.791q-.338-.517-.338-1.268 0-.646.249-1.064.248-.417.671-.661.423-.243.944-.368a9 9 0 0 1 1.064-.189l1.114-.129q.427-.054.621-.174.194-.119.194-.388v-.034q0-.652-.368-1.01-.363-.358-1.083-.358-.751 0-1.184.333-.428.329-.591.731l-1.397-.318q.248-.696.726-1.124a2.94 2.94 0 0 1 1.108-.626 4.3 4.3 0 0 1 1.318-.199q.458 0 .969.11.517.103.965.387.452.283.74.811.29.522.289 1.357V178h-1.452v-1.044h-.06q-.144.288-.432.567a2.3 2.3 0 0 1-.741.462q-.452.184-1.084.184m.323-1.193q.617 0 1.054-.244.443-.243.672-.636.233-.398.233-.85v-.985q-.079.08-.308.15-.224.065-.512.114-.288.045-.562.084l-.457.06a3.7 3.7 0 0 0-.791.184q-.353.129-.566.373-.21.239-.209.636 0 .552.407.835.409.279 1.039.279m6.42 1.118a.97.97 0 0 1-.701-.288.96.96 0 0 1-.293-.706q0-.408.293-.696a.96.96 0 0 1 .701-.293q.408 0 .701.293a.94.94 0 0 1 .293.696q0 .273-.139.502a1 1 0 0 1-.358.358.94.94 0 0 1-.497.134m3.714 0a.96.96 0 0 1-.701-.288.96.96 0 0 1-.293-.706q0-.408.293-.696a.96.96 0 0 1 .701-.293q.407 0 .701.293a.94.94 0 0 1 .293.696q0 .273-.139.502-.135.224-.358.358a.94.94 0 0 1-.497.134m3.719 0a.96.96 0 0 1-.701-.288.96.96 0 0 1-.294-.706q0-.408.294-.696a.96.96 0 0 1 .701-.293.96.96 0 0 1 .701.293.94.94 0 0 1 .293.696q0 .273-.139.502-.135.224-.358.358a.94.94 0 0 1-.497.134"/><path fill="#71717A" d="m40.483 192.074-1.054.298a2 2 0 0 0-.293-.512 1.4 1.4 0 0 0-.517-.418q-.33-.164-.84-.164-.702 0-1.169.324-.462.318-.462.81 0 .438.318.691.319.254.994.423l1.134.278q1.023.249 1.526.761.502.507.502 1.307 0 .657-.378 1.173-.372.517-1.044.816-.671.298-1.56.298-1.17 0-1.935-.507t-.97-1.482l1.114-.278q.16.616.602.925.448.308 1.168.308.82 0 1.303-.348.487-.353.487-.845a.89.89 0 0 0-.278-.666q-.279-.274-.855-.408l-1.273-.298q-1.05-.249-1.541-.771-.488-.526-.488-1.317 0-.646.363-1.144a2.5 2.5 0 0 1 1-.78 3.5 3.5 0 0 1 1.441-.284q1.134 0 1.78.497.651.498.925 1.313m5.226-1.71v.994h-3.957v-.994zm-2.804-1.83h1.174v7.278q0 .498.144.746.15.244.378.328.234.08.492.08.194 0 .318-.02l.199-.04.239 1.054q-.12.045-.334.09a2.5 2.5 0 0 1-.541.049q-.498 0-.975-.213a1.94 1.94 0 0 1-.785-.652q-.309-.437-.309-1.103zm7.689 9.625q-1.103 0-1.904-.487a3.27 3.27 0 0 1-1.228-1.372q-.428-.885-.428-2.059 0-1.173.428-2.068.433-.9 1.203-1.402.775-.507 1.81-.507.596 0 1.178.199.581.2 1.059.646.478.442.76 1.174.285.73.284 1.799v.498H47.87v-1.015h4.693q0-.646-.259-1.153a1.94 1.94 0 0 0-.726-.8q-.468-.294-1.103-.294-.702 0-1.214.348a2.3 2.3 0 0 0-.78.895 2.6 2.6 0 0 0-.273 1.183v.676q0 .866.298 1.467.303.597.84.91.537.308 1.248.308.462 0 .835-.129.379-.135.651-.398.274-.269.423-.666l1.133.318q-.179.577-.601 1.014-.423.433-1.044.676-.621.24-1.397.239m4.947 2.705v-10.5h1.133v1.213h.14q.129-.2.357-.507.234-.314.666-.557.438-.249 1.184-.249.965 0 1.7.482.735.483 1.149 1.368.412.885.412 2.088 0 1.212-.412 2.103-.414.885-1.144 1.372-.73.482-1.685.482-.736 0-1.179-.244a2.2 2.2 0 0 1-.68-.561 8 8 0 0 1-.369-.527h-.099v4.037zm1.153-6.682q0 .865.254 1.526.254.657.74 1.029.487.368 1.194.368.736 0 1.228-.388.497-.393.745-1.054.255-.666.254-1.481a4 4 0 0 0-.249-1.452 2.25 2.25 0 0 0-.74-1.029q-.493-.383-1.238-.383-.717 0-1.204.363-.487.358-.735 1.004-.249.642-.249 1.497m8.551-.776V198h-1.173v-10.182h1.173v3.739h.1q.268-.592.805-.94.542-.353 1.442-.353.78 0 1.367.313.586.308.91.95.328.636.328 1.621V198h-1.173v-4.773q0-.909-.473-1.407-.467-.502-1.297-.502-.578 0-1.034.244-.453.243-.716.711-.26.467-.259 1.133m10.26 4.733a3.5 3.5 0 0 1-1.576-.348 2.9 2.9 0 0 1-1.123-.954 2.6 2.6 0 0 1-.463-1.382h1.194q.07.69.626 1.143.561.447 1.342.447.628 0 1.114-.293.492-.293.77-.805.284-.517.284-1.169 0-.666-.293-1.188a2.15 2.15 0 0 0-.796-.83 2.25 2.25 0 0 0-1.158-.308 3.1 3.1 0 0 0-.96.144q-.492.144-.81.373l-1.154-.139.617-5.012h5.29v1.094h-4.256l-.358 3.003h.06q.313-.248.785-.413t.985-.164q.934 0 1.665.448.735.442 1.153 1.213.423.77.423 1.76 0 .973-.437 1.74a3.2 3.2 0 0 1-1.194 1.203q-.76.437-1.73.437m8.717 0a3.8 3.8 0 0 1-1.253-.238 3 3 0 0 1-1.143-.771q-.518-.547-.83-1.477-.314-.935-.314-2.346 0-1.352.254-2.396.253-1.05.735-1.765.483-.722 1.164-1.094a3.2 3.2 0 0 1 1.546-.373q.855 0 1.521.343.671.337 1.094.945.423.606.547 1.397H86.33a2.25 2.25 0 0 0-.656-1.139q-.487-.452-1.293-.452-1.183 0-1.865 1.029-.675 1.03-.68 2.888h.079q.279-.422.661-.721a2.974 2.974 0 0 1 1.844-.631 3.04 3.04 0 0 1 1.602.438q.725.432 1.163 1.198.437.76.437 1.745 0 .944-.422 1.73a3.2 3.2 0 0 1-1.189 1.243q-.76.458-1.79.447m0-1.094q.626 0 1.123-.313.503-.314.79-.84.294-.526.294-1.173 0-.631-.283-1.149a2.16 2.16 0 0 0-.77-.83 2.04 2.04 0 0 0-1.115-.308q-.472 0-.88.189-.407.183-.715.507a2.4 2.4 0 0 0-.478.741 2.354 2.354 0 0 0 .895 2.853q.503.323 1.139.323m11.242 3.64q-1.521 0-2.69-.418-1.168-.413-1.964-1.218-.795-.805-1.203-1.974-.407-1.168-.407-2.674 0-1.458.412-2.606a5.3 5.3 0 0 1 1.208-1.948 5.2 5.2 0 0 1 1.93-1.228q1.138-.423 2.575-.423 1.395 0 2.446.457 1.053.453 1.76 1.228a5.15 5.15 0 0 1 1.063 1.735q.358.965.358 1.989 0 .721-.069 1.462a5.5 5.5 0 0 1-.294 1.362 2.2 2.2 0 0 1-.69.994q-.463.378-1.253.378-.348 0-.766-.109a2 2 0 0 1-.74-.363 1 1 0 0 1-.384-.681h-.06q-.118.288-.367.547a1.7 1.7 0 0 1-.641.412q-.393.155-.96.134a2.6 2.6 0 0 1-1.138-.288 2.5 2.5 0 0 1-.826-.726 3.4 3.4 0 0 1-.497-1.069 5 5 0 0 1-.164-1.317q0-.672.199-1.228a3.1 3.1 0 0 1 .552-.975q.358-.417.835-.666a2.9 2.9 0 0 1 1.039-.313 2.8 2.8 0 0 1 .905.045q.407.09.671.273.264.18.333.398h.06v-.557h1.054v4.494q0 .418.233.736.234.318.681.318.508 0 .776-.348.273-.347.373-1.073.104-.726.104-1.86 0-.666-.184-1.312a4.3 4.3 0 0 0-.546-1.218 4 4 0 0 0-.92-1 4.3 4.3 0 0 0-1.308-.676q-.745-.248-1.695-.248-1.169 0-2.093.363a4.2 4.2 0 0 0-1.566 1.049 4.6 4.6 0 0 0-.98 1.67q-.333.98-.333 2.227 0 1.268.333 2.252.339.985.995 1.661.66.676 1.635 1.024.975.353 2.248.353.547 0 1.078-.104.532-.105.94-.229t.587-.184l.278.915a6 6 0 0 1-.805.258q-.493.13-1.054.214a7 7 0 0 1-1.064.085m-.577-3.958q.666 0 1.079-.268t.602-.811q.188-.542.188-1.367 0-.836-.208-1.302-.21-.468-.617-.657t-1.004-.188q-.567 0-.97.298a1.9 1.9 0 0 0-.611.785q-.21.488-.209 1.064 0 .637.17 1.198.168.558.551.905.382.343 1.03.343m10.904 4.296q-.85 0-1.462-.219a3.1 3.1 0 0 1-1.019-.567 3.1 3.1 0 0 1-.641-.746l.935-.656q.159.21.402.477.245.274.666.473.428.204 1.119.204.924 0 1.526-.448.602-.447.602-1.402v-1.551h-.1a6 6 0 0 1-.367.517 2.1 2.1 0 0 1-.677.542q-.437.234-1.183.234-.925 0-1.66-.438-.732-.437-1.159-1.273-.422-.835-.422-2.028 0-1.173.412-2.043.413-.875 1.149-1.353.735-.482 1.7-.482.746 0 1.183.249.443.243.676.557.24.308.368.507h.12v-1.213h1.133v7.855q0 .984-.447 1.601a2.55 2.55 0 0 1-1.193.909 4.5 4.5 0 0 1-1.661.294m-.04-4.196q.707 0 1.193-.323.487-.324.741-.93t.254-1.452q0-.825-.249-1.457a2.2 2.2 0 0 0-.736-.989q-.486-.358-1.203-.358-.745 0-1.243.378-.492.378-.74 1.014a3.9 3.9 0 0 0-.244 1.412q0 .795.249 1.407.253.607.745.955.498.343 1.233.343M111.24 198v-7.636h1.133v1.193h.1q.239-.611.77-.95.532-.343 1.278-.343.756 0 1.258.343.508.339.79.95h.08q.294-.592.88-.94.587-.353 1.407-.353 1.024 0 1.675.642.652.636.652 1.983V198h-1.174v-5.111q0-.845-.462-1.208a1.7 1.7 0 0 0-1.089-.363q-.806 0-1.248.487-.442.483-.442 1.223V198h-1.193v-5.23q0-.651-.423-1.049-.423-.403-1.089-.403-.458 0-.855.244a1.83 1.83 0 0 0-.636.676 2 2 0 0 0-.239.989V198zm14.415.179q-.726 0-1.317-.273a2.26 2.26 0 0 1-.94-.801q-.348-.526-.348-1.273 0-.656.258-1.064.26-.412.691-.646.433-.234.955-.348.526-.119 1.059-.189.696-.089 1.129-.134.436-.05.636-.164.204-.114.204-.398v-.04q0-.735-.403-1.143-.398-.408-1.208-.408-.84 0-1.318.368-.477.368-.671.786l-1.113-.398q.298-.696.795-1.084a3 3 0 0 1 1.094-.547 4.6 4.6 0 0 1 1.173-.159q.368 0 .845.09.483.084.93.353.453.269.751.81.298.542.298 1.452V198h-1.173v-1.034h-.06a2 2 0 0 1-.398.532q-.278.284-.74.482-.463.2-1.129.199m.179-1.054q.696 0 1.173-.273a1.86 1.86 0 0 0 .975-1.616v-1.074q-.075.09-.328.164a6 6 0 0 1-.577.124q-.323.05-.632.09-.303.035-.492.059-.458.06-.855.194a1.47 1.47 0 0 0-.636.393q-.239.258-.239.706 0 .612.453.925.458.308 1.158.308m6.318.955a.86.86 0 0 1-.632-.264.86.86 0 0 1-.263-.631q0-.368.263-.632a.86.86 0 0 1 .632-.263q.367 0 .631.263a.86.86 0 0 1 .264.632.84.84 0 0 1-.125.447.9.9 0 0 1-.323.328.85.85 0 0 1-.447.12m3.818 0a.86.86 0 0 1-.632-.264.86.86 0 0 1-.263-.631q0-.368.263-.632a.87.87 0 0 1 .632-.263q.368 0 .631.263a.86.86 0 0 1 .264.632.84.84 0 0 1-.125.447.9.9 0 0 1-.323.328.85.85 0 0 1-.447.12m3.818 0a.86.86 0 0 1-.631-.264.86.86 0 0 1-.264-.631q0-.368.264-.632a.86.86 0 0 1 .631-.263q.368 0 .631.263a.86.86 0 0 1 .264.632.85.85 0 0 1-.124.447.93.93 0 0 1-.324.328.85.85 0 0 1-.447.12"/><mask id="g" fill="#fff"><path d="M26 219h126v72H26z"/></mask><path fill="#E4E4E7" d="M152 291v-1H26v2h126z" mask="url(#g)"/><path fill="#18181B" d="M39.076 239.818h1.531v7.219q0 .98-.388 1.675a2.6 2.6 0 0 1-1.078 1.064q-.696.363-1.631.363a3.7 3.7 0 0 1-1.546-.313 2.54 2.54 0 0 1-1.08-.91q-.391-.602-.392-1.461h1.527q0 .422.193.73.2.309.542.483.348.169.796.169.488 0 .825-.204.344-.208.522-.612.18-.402.179-.984zm6.865 10.336q-1.074 0-1.875-.492a3.3 3.3 0 0 1-1.243-1.377q-.442-.885-.442-2.068 0-1.189.442-2.079a3.3 3.3 0 0 1 1.243-1.382q.801-.492 1.874-.492 1.074 0 1.875.492a3.3 3.3 0 0 1 1.243 1.382q.442.89.442 2.079 0 1.183-.442 2.068a3.3 3.3 0 0 1-1.243 1.377q-.801.492-1.874.492m.005-1.248q.696 0 1.153-.368.457-.367.676-.979.224-.612.224-1.347a3.9 3.9 0 0 0-.224-1.343 2.2 2.2 0 0 0-.676-.989q-.458-.373-1.153-.373-.702 0-1.164.373a2.2 2.2 0 0 0-.681.989 4 4 0 0 0-.219 1.343q0 .735.219 1.347.224.612.681.979.462.369 1.164.368m10.936-4.678-1.348.239a1.6 1.6 0 0 0-.268-.493 1.3 1.3 0 0 0-.487-.382q-.31-.15-.77-.15-.633 0-1.055.284-.422.278-.422.721 0 .382.283.616.284.234.915.383l1.213.278q1.054.244 1.57.751.518.507.518 1.318 0 .686-.398 1.223-.393.532-1.099.835-.7.303-1.625.303-1.283 0-2.093-.547-.81-.552-.995-1.566l1.437-.219q.135.562.552.851.417.283 1.089.283.73 0 1.168-.303.438-.309.438-.751a.78.78 0 0 0-.269-.602q-.263-.243-.81-.367l-1.293-.284q-1.069-.244-1.58-.775-.508-.532-.508-1.348 0-.675.378-1.183.378-.507 1.044-.79.666-.29 1.526-.289 1.238 0 1.95.537.71.532.939 1.427m3.27 1.238V250h-1.487v-10.182h1.467v3.789h.094q.27-.617.82-.98.553-.363 1.443-.363.784 0 1.372.323.591.323.914.965.329.636.328 1.591V250h-1.486v-4.678q0-.84-.432-1.303-.433-.467-1.204-.467-.527 0-.944.224a1.6 1.6 0 0 0-.651.656q-.234.428-.234 1.034m11.772 1.367v-4.469h1.492V250h-1.462v-1.322h-.08a2.4 2.4 0 0 1-.844 1.019q-.578.402-1.437.402-.736 0-1.303-.323a2.27 2.27 0 0 1-.885-.969q-.318-.642-.318-1.586v-4.857h1.487v4.678q0 .78.432 1.243.433.462 1.124.462.417 0 .83-.209.418-.208.691-.631.279-.423.273-1.074m5.712 3.336q-.726 0-1.313-.268a2.2 2.2 0 0 1-.93-.791q-.338-.517-.338-1.268 0-.646.249-1.064.25-.417.671-.661.423-.243.945-.368a9 9 0 0 1 1.064-.189l1.113-.129q.428-.054.622-.174.194-.119.194-.388v-.034q0-.652-.368-1.01-.363-.358-1.084-.358-.75 0-1.183.333-.428.329-.592.731l-1.397-.318q.249-.696.726-1.124a2.95 2.95 0 0 1 1.109-.626 4.3 4.3 0 0 1 1.317-.199q.457 0 .97.11.516.103.964.387.453.283.74.811.29.522.29 1.357V250h-1.453v-1.044h-.06q-.143.288-.432.567-.288.278-.74.462-.453.184-1.084.184m.323-1.193q.615 0 1.054-.244a1.7 1.7 0 0 0 .67-.636q.235-.398.235-.85v-.985q-.08.08-.309.15a5 5 0 0 1-.512.114q-.289.045-.561.084l-.458.06a3.7 3.7 0 0 0-.79.184 1.35 1.35 0 0 0-.567.373q-.21.239-.209.636 0 .552.408.835.408.279 1.039.279m13.207-9.158h1.531v7.219q0 .98-.388 1.675a2.6 2.6 0 0 1-1.078 1.064q-.697.363-1.631.363a3.7 3.7 0 0 1-1.546-.313 2.54 2.54 0 0 1-1.08-.91q-.392-.602-.392-1.461h1.526q0 .422.194.73.199.309.542.483.348.169.796.169.487 0 .825-.204.343-.208.522-.612.18-.402.179-.984zm6.864 10.336q-1.073 0-1.874-.492a3.3 3.3 0 0 1-1.243-1.377q-.442-.885-.442-2.068 0-1.189.442-2.079a3.3 3.3 0 0 1 1.243-1.382q.8-.492 1.874-.492t1.875.492q.8.493 1.243 1.382.442.89.442 2.079 0 1.183-.442 2.068a3.3 3.3 0 0 1-1.243 1.377q-.801.492-1.875.492m.005-1.248q.696 0 1.154-.368.457-.367.676-.979.224-.612.224-1.347 0-.732-.224-1.343a2.2 2.2 0 0 0-.676-.989q-.458-.373-1.154-.373-.7 0-1.163.373a2.2 2.2 0 0 0-.681.989 4 4 0 0 0-.219 1.343q0 .735.219 1.347.224.612.681.979.462.369 1.163.368m6.701-3.44V250h-1.487v-7.636h1.427v1.243h.095q.262-.607.825-.975.566-.368 1.427-.368.78 0 1.367.328a2.2 2.2 0 0 1 .91.965q.323.64.323 1.586V250h-1.487v-4.678q0-.83-.432-1.298-.433-.472-1.188-.472-.518 0-.92.224a1.6 1.6 0 0 0-.632.656q-.228.428-.228 1.034m10.172 4.688q-1.13 0-1.944-.482a3.3 3.3 0 0 1-1.253-1.367q-.438-.885-.438-2.073 0-1.174.438-2.069a3.4 3.4 0 0 1 1.233-1.397q.795-.502 1.859-.502.647 0 1.253.214t1.089.671q.482.458.761 1.188.278.727.278 1.765v.527h-6.07v-1.113h4.613q0-.587-.238-1.039a1.8 1.8 0 0 0-.672-.721 1.87 1.87 0 0 0-1.004-.264q-.626 0-1.094.308a2.1 2.1 0 0 0-.715.796 2.3 2.3 0 0 0-.249 1.059v.87q0 .765.268 1.302.274.537.761.821.487.278 1.139.278.422 0 .77-.119.348-.125.602-.368a1.6 1.6 0 0 0 .388-.602l1.406.254a2.54 2.54 0 0 1-.606 1.089 2.95 2.95 0 0 1-1.089.721q-.652.253-1.486.253m10.648-5.926-1.348.239a1.6 1.6 0 0 0-.268-.493 1.34 1.34 0 0 0-.487-.382q-.309-.15-.771-.15-.631 0-1.054.284-.423.278-.423.721 0 .382.284.616t.915.383l1.213.278q1.053.244 1.571.751.517.507.517 1.318 0 .686-.398 1.223-.393.532-1.099.835-.7.303-1.625.303-1.283 0-2.093-.547-.811-.552-.995-1.566l1.437-.219q.133.562.552.851.417.283 1.089.283.73 0 1.168-.303.438-.309.437-.751a.78.78 0 0 0-.268-.602q-.264-.243-.81-.367l-1.293-.284q-1.07-.244-1.581-.775-.507-.532-.507-1.348 0-.675.378-1.183.378-.507 1.044-.79.666-.29 1.526-.289 1.238 0 1.949.537.71.532.94 1.427"/><path fill="#71717A" d="M35.074 262.364h1.173v8.193q0 .705-.243 1.223-.24.517-.726.8-.483.284-1.218.284h-.239v-1.094h.219q.537 0 .785-.318.249-.313.249-.895zm.577-1.273a.83.83 0 0 1-.592-.234.75.75 0 0 1-.244-.562q0-.328.244-.561a.83.83 0 0 1 .592-.234q.343 0 .586.234a.74.74 0 0 1 .249.561.74.74 0 0 1-.249.562.82.82 0 0 1-.586.234m3.6 8.989a.86.86 0 0 1-.631-.264.86.86 0 0 1-.264-.631q0-.368.264-.632a.86.86 0 0 1 .631-.263q.368 0 .632.263a.86.86 0 0 1 .263.632.928.928 0 0 1-.447.775.85.85 0 0 1-.448.12m3-7.716h1.174v8.193q0 .705-.244 1.223-.238.517-.726.8-.481.284-1.218.284h-.239v-1.094h.22q.536 0 .785-.318.249-.313.249-.895zm.577-1.273a.83.83 0 0 1-.591-.234.75.75 0 0 1-.244-.562q0-.328.244-.561a.83.83 0 0 1 .591-.234q.343 0 .587.234a.74.74 0 0 1 .248.561.74.74 0 0 1-.248.562.82.82 0 0 1-.587.234m5.848 9.068q-1.034 0-1.815-.492a3.34 3.34 0 0 1-1.213-1.377q-.432-.885-.432-2.068 0-1.193.432-2.084a3.35 3.35 0 0 1 1.213-1.382q.78-.492 1.815-.492t1.81.492q.78.493 1.213 1.382.437.89.437 2.084 0 1.183-.437 2.068a3.3 3.3 0 0 1-1.213 1.377q-.775.492-1.81.492m0-1.054q.786 0 1.293-.403a2.37 2.37 0 0 0 .75-1.059 4 4 0 0 0 .244-1.421q0-.766-.244-1.427a2.4 2.4 0 0 0-.75-1.069q-.508-.408-1.293-.408t-1.293.408a2.4 2.4 0 0 0-.75 1.069 4.1 4.1 0 0 0-.244 1.427q0 .765.244 1.421.243.657.75 1.059.508.403 1.293.403m6.425-3.699V270h-1.174v-7.636h1.134v1.193h.1q.267-.582.815-.935.546-.358 1.412-.358.776 0 1.357.318.582.313.905.955.323.636.323 1.611V270H58.8v-4.773q0-.9-.468-1.402-.467-.507-1.282-.507-.562 0-1.005.244a1.74 1.74 0 0 0-.69.711q-.255.467-.254 1.133m10.218 4.753q-1.104 0-1.905-.487a3.27 3.27 0 0 1-1.228-1.372q-.427-.885-.427-2.059 0-1.173.427-2.068.433-.9 1.204-1.402.775-.507 1.81-.507.596 0 1.177.199.582.2 1.06.646.477.442.76 1.174.284.73.284 1.799v.498h-5.887v-1.015h4.693q0-.646-.258-1.153a1.94 1.94 0 0 0-.726-.8q-.468-.294-1.104-.294-.7 0-1.213.348a2.3 2.3 0 0 0-.78.895 2.6 2.6 0 0 0-.274 1.183v.676q0 .865.298 1.467.304.597.84.91.538.308 1.249.308.462 0 .835-.129a1.8 1.8 0 0 0 .651-.398q.273-.269.423-.666l1.133.318q-.18.577-.601 1.014-.423.433-1.044.676-.622.24-1.397.239m10.355-6.085-1.054.298a2 2 0 0 0-.293-.512 1.4 1.4 0 0 0-.517-.418q-.328-.164-.84-.164-.702 0-1.168.324-.463.318-.463.81 0 .438.318.691t.995.423l1.133.278q1.025.248 1.526.761.503.507.503 1.307 0 .657-.378 1.173-.374.517-1.044.816-.672.298-1.561.298-1.17 0-1.934-.507-.766-.507-.97-1.482l1.114-.278q.159.616.601.925.448.308 1.169.308.82 0 1.302-.348.487-.353.487-.845a.89.89 0 0 0-.278-.666q-.278-.275-.855-.408l-1.273-.298q-1.05-.249-1.54-.771-.488-.527-.488-1.317 0-.646.363-1.144a2.5 2.5 0 0 1 1-.78 3.5 3.5 0 0 1 1.44-.284q1.135 0 1.78.497.652.498.925 1.313m7.772 8.611q-1.52 0-2.69-.418-1.168-.412-1.963-1.218-.796-.805-1.203-1.974-.408-1.168-.408-2.674 0-1.457.413-2.606a5.3 5.3 0 0 1 1.208-1.948 5.2 5.2 0 0 1 1.929-1.228q1.138-.423 2.575-.423 1.397 0 2.446.457 1.055.453 1.76 1.228a5.15 5.15 0 0 1 1.064 1.735q.358.964.358 1.989 0 .721-.07 1.462a5.5 5.5 0 0 1-.293 1.362 2.2 2.2 0 0 1-.691.994q-.462.378-1.253.378-.348 0-.766-.109a2 2 0 0 1-.74-.363 1 1 0 0 1-.383-.681h-.06q-.12.288-.368.547a1.7 1.7 0 0 1-.641.412q-.393.155-.96.134a2.6 2.6 0 0 1-1.138-.288 2.5 2.5 0 0 1-.825-.726 3.4 3.4 0 0 1-.498-1.069 5 5 0 0 1-.164-1.317q0-.672.2-1.228.198-.556.551-.975a2.8 2.8 0 0 1 .835-.666 2.9 2.9 0 0 1 1.04-.313 2.8 2.8 0 0 1 .904.045q.408.09.671.273.264.18.334.398h.06v-.557h1.053v4.494q0 .418.234.736t.68.318q.508 0 .776-.348.274-.348.373-1.073.105-.726.105-1.86 0-.666-.184-1.312a4.3 4.3 0 0 0-.547-1.218 4 4 0 0 0-.92-1 4.3 4.3 0 0 0-1.307-.676q-.747-.248-1.696-.248-1.167 0-2.093.363a4.2 4.2 0 0 0-1.566 1.049 4.6 4.6 0 0 0-.98 1.67q-.332.98-.332 2.227 0 1.268.333 2.252.338.985.994 1.661.661.676 1.636 1.024.974.353 2.247.353.547 0 1.079-.104.532-.105.94-.229t.586-.184l.279.915a6 6 0 0 1-.806.258q-.493.13-1.054.214a7 7 0 0 1-1.064.085m-.576-3.958q.666 0 1.078-.268t.602-.811q.189-.542.189-1.367 0-.835-.209-1.302-.21-.468-.617-.657-.407-.188-1.004-.188-.566 0-.97.298a1.9 1.9 0 0 0-.61.785q-.21.488-.21 1.064 0 .637.17 1.198.168.558.551.905.384.343 1.03.343m10.068 1.452q-.726 0-1.317-.273a2.27 2.27 0 0 1-.94-.801q-.348-.526-.348-1.273 0-.656.259-1.064.258-.412.69-.646.433-.234.955-.348.528-.119 1.06-.189.695-.089 1.128-.134.437-.05.636-.164.204-.114.204-.398v-.04q0-.735-.403-1.143-.398-.408-1.208-.408-.84 0-1.317.368-.478.368-.672.786l-1.113-.398q.298-.696.795-1.084.503-.393 1.094-.547a4.5 4.5 0 0 1 1.173-.159q.368 0 .846.09.48.084.93.353t.75.81q.298.541.298 1.452V270h-1.173v-1.034h-.06q-.12.249-.397.532-.279.284-.741.482-.463.2-1.129.199m.18-1.054q.695 0 1.172-.273.483-.274.726-.706.249-.433.249-.91v-1.074q-.075.09-.328.164a6 6 0 0 1-.577.124q-.323.05-.631.09-.305.035-.492.059-.457.06-.856.194a1.5 1.5 0 0 0-.636.393q-.24.259-.239.706 0 .612.453.925.457.308 1.158.308m8.564 1.034q-1.034 0-1.815-.492a3.34 3.34 0 0 1-1.213-1.377q-.432-.885-.432-2.068 0-1.193.432-2.084a3.34 3.34 0 0 1 1.213-1.382q.782-.492 1.815-.492 1.034 0 1.81.492.78.493 1.213 1.382.437.89.437 2.084 0 1.183-.437 2.068a3.3 3.3 0 0 1-1.213 1.377q-.776.492-1.81.492m0-1.054q.786 0 1.293-.403.507-.402.75-1.059.244-.656.244-1.421 0-.766-.244-1.427a2.4 2.4 0 0 0-.75-1.069q-.507-.408-1.293-.408t-1.293.408a2.4 2.4 0 0 0-.75 1.069 4.1 4.1 0 0 0-.244 1.427q0 .765.244 1.421.243.657.75 1.059.507.403 1.293.403m6.425-9.287V270h-1.174v-10.182zm3.004 10.262a.86.86 0 0 1-.632-.264.86.86 0 0 1-.263-.631q0-.368.263-.632a.86.86 0 0 1 .632-.263q.367 0 .631.263a.86.86 0 0 1 .264.632.84.84 0 0 1-.125.447.9.9 0 0 1-.323.328.85.85 0 0 1-.447.12m6.102.079q-1.074 0-1.849-.507a3.3 3.3 0 0 1-1.193-1.397q-.418-.89-.418-2.033 0-1.163.428-2.054a3.4 3.4 0 0 1 1.203-1.397q.775-.507 1.809-.507.806 0 1.452.298.647.299 1.059.836a2.6 2.6 0 0 1 .512 1.253h-1.173a1.82 1.82 0 0 0-.597-.925q-.457-.408-1.233-.408a2.06 2.06 0 0 0-1.203.358q-.512.353-.8.999-.284.642-.284 1.507 0 .885.279 1.541.283.656.795 1.019.517.363 1.213.363.458 0 .831-.159a1.7 1.7 0 0 0 .631-.457q.258-.299.368-.716h1.173a2.7 2.7 0 0 1-.492 1.218 2.76 2.76 0 0 1-1.029.855q-.636.313-1.482.313m7.821 0q-1.035 0-1.815-.492a3.35 3.35 0 0 1-1.213-1.377q-.433-.885-.433-2.068 0-1.193.433-2.084a3.35 3.35 0 0 1 1.213-1.382q.78-.492 1.815-.492 1.033 0 1.809.492.781.493 1.213 1.382.438.89.438 2.084 0 1.183-.438 2.068a3.3 3.3 0 0 1-1.213 1.377q-.776.492-1.809.492m0-1.054q.785 0 1.292-.403.507-.402.751-1.059.243-.656.243-1.421 0-.766-.243-1.427a2.4 2.4 0 0 0-.751-1.069q-.507-.408-1.292-.408-.786 0-1.293.408a2.4 2.4 0 0 0-.751 1.069 4.1 4.1 0 0 0-.243 1.427q0 .765.243 1.421.244.657.751 1.059.507.403 1.293.403m5.251.895v-7.636h1.133v1.193h.1q.239-.611.77-.95.532-.343 1.278-.343.756 0 1.258.343.507.339.79.95h.08a2.2 2.2 0 0 1 .88-.94q.587-.353 1.407-.353 1.024 0 1.675.642.651.636.652 1.983V270h-1.174v-5.111q0-.845-.462-1.208a1.7 1.7 0 0 0-1.089-.363q-.806 0-1.248.487-.442.483-.442 1.223V270H134.7v-5.23q0-.651-.423-1.049-.423-.403-1.089-.403-.457 0-.855.244a1.83 1.83 0 0 0-.636.676 2 2 0 0 0-.239.989V270z"/><mask id="h" fill="#fff"><path d="M26 291h126v72H26z"/></mask><path fill="#E4E4E7" d="M152 363v-1H26v2h126z" mask="url(#h)"/><path fill="#18181B" d="M35.119 322v-10.182h3.629q1.183 0 1.964.408.785.408 1.173 1.128.388.717.388 1.656 0 .935-.393 1.646-.389.705-1.173 1.098-.78.393-1.964.393h-2.75v-1.322h2.61q.746 0 1.214-.214.472-.214.69-.622.22-.407.22-.979 0-.577-.224-.999a1.44 1.44 0 0 0-.691-.647q-.468-.228-1.228-.228h-1.93V322zm5.026-4.594L42.66 322h-1.75l-2.465-4.594zm5.364.06V322h-1.486v-10.182h1.466v3.789h.095q.268-.617.82-.98t1.442-.363q.785 0 1.372.323.592.323.915.965.328.636.328 1.591V322h-1.487v-4.678q0-.84-.432-1.303-.433-.467-1.203-.467-.527 0-.945.224a1.6 1.6 0 0 0-.651.656q-.234.428-.234 1.034m10.152 4.688q-1.074 0-1.874-.492a3.3 3.3 0 0 1-1.243-1.377q-.442-.885-.442-2.068 0-1.189.442-2.079a3.3 3.3 0 0 1 1.243-1.382q.8-.492 1.874-.492 1.073 0 1.874.492a3.3 3.3 0 0 1 1.243 1.382q.443.89.443 2.079 0 1.183-.443 2.068a3.3 3.3 0 0 1-1.242 1.377q-.801.492-1.875.492m.005-1.248q.696 0 1.154-.368.456-.367.676-.979.223-.612.223-1.347a3.9 3.9 0 0 0-.223-1.343 2.2 2.2 0 0 0-.676-.989q-.458-.373-1.154-.373-.7 0-1.163.373a2.2 2.2 0 0 0-.681.989 4 4 0 0 0-.219 1.343q0 .735.219 1.347.224.612.68.979.464.369 1.164.368m6.7-3.44V322H60.88v-7.636h1.427v1.243h.094q.264-.607.826-.975.566-.368 1.427-.368.78 0 1.367.328.585.323.91.965.323.64.323 1.586V322h-1.487v-4.678q0-.83-.432-1.298-.434-.472-1.188-.472-.518 0-.92.224a1.6 1.6 0 0 0-.632.656q-.228.428-.228 1.034m9.74 4.683a2.96 2.96 0 0 1-1.65-.472q-.721-.477-1.134-1.357-.408-.885-.408-2.123t.413-2.118q.418-.88 1.143-1.347a2.97 2.97 0 0 1 1.646-.468q.711 0 1.143.239.438.234.677.547.243.313.377.552h.09v-3.784h1.486V322h-1.451v-1.188h-.125q-.134.243-.387.557a2.2 2.2 0 0 1-.686.546q-.438.234-1.134.234m.328-1.268q.642 0 1.084-.338.448-.343.676-.949.234-.607.234-1.412 0-.796-.229-1.392-.228-.597-.671-.93t-1.094-.333q-.67 0-1.118.348a2.13 2.13 0 0 0-.677.95 3.9 3.9 0 0 0-.223 1.357q0 .765.228 1.377.23.612.676.969.453.353 1.114.353m7.8 1.288q-.727 0-1.313-.268a2.2 2.2 0 0 1-.93-.791q-.338-.517-.338-1.268 0-.646.249-1.064.249-.417.67-.661.423-.243.945-.368a9 9 0 0 1 1.064-.189l1.114-.129q.428-.054.621-.174.195-.119.194-.388v-.034q0-.652-.368-1.01-.363-.358-1.083-.358-.75 0-1.184.333-.427.329-.591.731l-1.397-.318q.248-.695.726-1.124a2.94 2.94 0 0 1 1.108-.626 4.3 4.3 0 0 1 1.318-.199q.457 0 .97.11.516.103.964.387.452.283.74.811.29.522.289 1.357V322H82.55v-1.044h-.06q-.144.288-.432.567-.289.277-.74.462-.453.184-1.085.184m.323-1.193q.616 0 1.053-.244.443-.243.672-.636.233-.398.233-.85v-.985q-.08.08-.308.15-.225.065-.512.114-.288.045-.562.084l-.457.06a3.7 3.7 0 0 0-.79.184 1.35 1.35 0 0 0-.567.373q-.21.238-.21.636 0 .552.408.835.407.279 1.04.279m9.25 1.024v-10.182h3.628q1.184 0 1.964.408.786.408 1.173 1.128.388.717.388 1.656 0 .935-.392 1.646-.389.705-1.174 1.098-.78.393-1.964.393h-2.749v-1.322h2.61q.746 0 1.213-.214.472-.214.691-.622.22-.407.22-.979 0-.577-.225-.999a1.44 1.44 0 0 0-.69-.647q-.468-.228-1.229-.228h-1.929V322zm5.025-4.594L97.348 322h-1.75l-2.466-4.594zm5.365.06V322H98.71v-10.182h1.467v3.789h.094q.269-.617.821-.98t1.441-.363q.785 0 1.373.323.591.323.914.965.328.636.328 1.591V322h-1.486v-4.678q0-.84-.433-1.303-.432-.467-1.203-.467-.527 0-.944.224a1.6 1.6 0 0 0-.652.656q-.233.428-.233 1.034m10.152 4.688q-1.074 0-1.875-.492a3.3 3.3 0 0 1-1.242-1.377q-.443-.885-.443-2.068 0-1.189.443-2.079a3.3 3.3 0 0 1 1.242-1.382q.801-.492 1.875-.492t1.874.492q.8.493 1.243 1.382.442.89.442 2.079 0 1.183-.442 2.068a3.3 3.3 0 0 1-1.243 1.377q-.8.492-1.874.492m.005-1.248q.696 0 1.153-.368.457-.367.676-.979a3.9 3.9 0 0 0 .224-1.347q0-.731-.224-1.343a2.2 2.2 0 0 0-.676-.989q-.457-.373-1.153-.373-.701 0-1.164.373a2.2 2.2 0 0 0-.681.989 4 4 0 0 0-.219 1.343q0 .735.219 1.347.224.612.681.979.463.369 1.164.368m8.072 1.243a2.96 2.96 0 0 1-1.65-.472q-.722-.477-1.134-1.357-.408-.885-.407-2.123 0-1.239.412-2.118.418-.88 1.144-1.347a2.97 2.97 0 0 1 1.645-.468q.71 0 1.144.239.437.234.676.547.243.313.378.552h.089v-3.784h1.487V322h-1.452v-1.188h-.124a4 4 0 0 1-.388.557 2.15 2.15 0 0 1-.686.546q-.438.234-1.134.234m.328-1.268q.642 0 1.084-.338.448-.343.676-.949.234-.607.234-1.412 0-.796-.229-1.392-.228-.597-.671-.93-.442-.333-1.094-.333-.67 0-1.118.348a2.13 2.13 0 0 0-.676.95 3.9 3.9 0 0 0-.224 1.357q0 .765.229 1.377.228.612.676.969.452.353 1.113.353m8.869 1.273q-1.13 0-1.944-.482a3.27 3.27 0 0 1-1.253-1.367q-.438-.885-.438-2.073 0-1.174.438-2.069a3.4 3.4 0 0 1 1.233-1.397q.795-.502 1.859-.502.647 0 1.253.214t1.089.671q.482.458.76 1.188.279.726.279 1.765v.527h-6.071v-1.113h4.614q0-.587-.239-1.039a1.8 1.8 0 0 0-.671-.721 1.87 1.87 0 0 0-1.004-.264q-.627 0-1.094.308a2.1 2.1 0 0 0-.716.796 2.3 2.3 0 0 0-.248 1.059v.87q0 .765.268 1.302.274.537.761.821a2.26 2.26 0 0 0 1.138.278q.423 0 .771-.119.348-.125.602-.368t.387-.602l1.407.254a2.55 2.55 0 0 1-.606 1.089 2.95 2.95 0 0 1-1.089.721q-.651.253-1.486.253m10.647-5.926-1.347.239a1.6 1.6 0 0 0-.268-.493 1.34 1.34 0 0 0-.488-.382q-.308-.15-.77-.15-.631 0-1.054.284-.423.278-.423.721 0 .382.284.616t.914.383l1.213.278q1.054.244 1.572.751.517.507.517 1.318 0 .686-.398 1.223-.393.531-1.099.835-.7.303-1.626.303-1.282 0-2.093-.547-.81-.552-.994-1.566l1.437-.219q.134.562.552.851.417.283 1.088.283.732 0 1.169-.303.437-.309.437-.751a.78.78 0 0 0-.268-.602q-.264-.243-.811-.367l-1.292-.284q-1.07-.244-1.581-.775-.507-.532-.507-1.348 0-.676.378-1.183t1.044-.79q.666-.29 1.526-.289 1.238 0 1.949.537.711.532.939 1.427"/><path fill="#71717A" d="M35.074 342v-7.636h1.133v1.153h.08q.21-.566.756-.92a2.23 2.23 0 0 1 1.233-.353q.129 0 .323.005.194.006.293.015v1.193a4 4 0 0 0-.273-.044 2.6 2.6 0 0 0-.443-.035q-.557 0-.994.234a1.76 1.76 0 0 0-.686.636 1.7 1.7 0 0 0-.249.92V342zm5.189.08a.86.86 0 0 1-.631-.264.86.86 0 0 1-.264-.631q0-.368.264-.632a.86.86 0 0 1 .631-.263q.368 0 .631.263a.86.86 0 0 1 .264.632.929.929 0 0 1-.447.775.85.85 0 0 1-.448.12m3-.08v-7.636h1.134v1.153h.08q.208-.566.755-.92a2.23 2.23 0 0 1 1.233-.353q.13 0 .323.005.194.006.294.015v1.193q-.06-.014-.274-.044a2.6 2.6 0 0 0-.442-.035q-.558 0-.995.234a1.76 1.76 0 0 0-.686.636 1.7 1.7 0 0 0-.248.92V342zm6.383-4.594V342h-1.174v-10.182h1.174v3.739h.099q.269-.592.805-.94.543-.353 1.442-.353.78 0 1.367.313.588.308.91.95.328.636.328 1.621V342h-1.173v-4.773q0-.909-.472-1.407-.467-.502-1.298-.502-.576 0-1.034.244-.452.243-.716.711-.258.467-.258 1.133m10.2 4.753q-1.034 0-1.815-.492a3.34 3.34 0 0 1-1.213-1.377q-.432-.885-.432-2.068 0-1.193.432-2.084a3.34 3.34 0 0 1 1.213-1.382q.78-.492 1.815-.492t1.81.492q.78.493 1.213 1.382.437.89.437 2.084 0 1.183-.437 2.068a3.3 3.3 0 0 1-1.213 1.377q-.775.492-1.81.492m0-1.054q.786 0 1.293-.403a2.37 2.37 0 0 0 .75-1.059 4 4 0 0 0 .244-1.421q0-.766-.244-1.427a2.4 2.4 0 0 0-.75-1.069q-.508-.408-1.293-.408t-1.293.408a2.4 2.4 0 0 0-.75 1.069 4.1 4.1 0 0 0-.244 1.427q0 .765.244 1.421.243.657.75 1.059.509.403 1.293.403m8.135 1.054q-.954 0-1.685-.482-.732-.487-1.144-1.372-.413-.891-.413-2.103 0-1.203.413-2.088t1.148-1.368q.737-.482 1.7-.482.746 0 1.179.249.438.243.666.557.234.308.363.507h.1v-3.759h1.173V342h-1.134v-1.173h-.139a8 8 0 0 1-.368.527q-.239.313-.68.561-.444.244-1.18.244m.159-1.054q.705 0 1.193-.368.488-.372.74-1.029.255-.661.254-1.526 0-.855-.248-1.497-.249-.646-.736-1.004-.487-.363-1.203-.363-.746 0-1.243.383a2.3 2.3 0 0 0-.74 1.029 4.1 4.1 0 0 0-.244 1.452q0 .815.248 1.481.255.661.746 1.054.497.388 1.233.388m8.854 1.054q-1.104 0-1.904-.487a3.27 3.27 0 0 1-1.228-1.372q-.427-.885-.427-2.059 0-1.173.427-2.068.433-.9 1.203-1.402.775-.507 1.81-.507.596 0 1.178.199.582.2 1.06.646.475.442.76 1.174.283.73.283 1.799v.498H74.27v-1.015h4.693a2.5 2.5 0 0 0-.258-1.153 1.94 1.94 0 0 0-.726-.8q-.468-.294-1.104-.294-.701 0-1.213.348a2.3 2.3 0 0 0-.78.895 2.6 2.6 0 0 0-.274 1.183v.676q0 .865.298 1.467.303.597.84.91.537.308 1.248.308.463 0 .835-.129a1.8 1.8 0 0 0 .652-.398q.273-.269.422-.666l1.134.318q-.18.577-.602 1.014-.422.433-1.044.676-.621.24-1.397.239m10.356-6.085-1.054.298a2 2 0 0 0-.293-.512 1.4 1.4 0 0 0-.517-.418q-.328-.164-.84-.164-.701 0-1.169.324-.462.318-.462.81 0 .438.318.691.319.253.994.423l1.134.278q1.025.248 1.526.761.502.507.502 1.307 0 .657-.377 1.173-.374.517-1.044.816-.671.298-1.562.298-1.167 0-1.934-.507-.765-.507-.969-1.482l1.114-.278q.159.616.601.925.448.308 1.169.308.819 0 1.302-.348.487-.353.487-.845a.89.89 0 0 0-.278-.666q-.278-.275-.855-.408l-1.273-.298q-1.05-.249-1.541-.771-.487-.527-.487-1.317 0-.646.362-1.144a2.5 2.5 0 0 1 1-.78 3.5 3.5 0 0 1 1.442-.284q1.133 0 1.78.497.651.498.924 1.313m7.772 8.611q-1.52 0-2.69-.418-1.168-.412-1.963-1.218-.796-.805-1.204-1.974-.407-1.168-.407-2.674 0-1.457.412-2.606a5.3 5.3 0 0 1 1.209-1.948 5.2 5.2 0 0 1 1.928-1.228q1.14-.423 2.576-.423 1.396 0 2.446.457 1.055.453 1.76 1.228a5.2 5.2 0 0 1 1.064 1.735q.358.964.358 1.989 0 .721-.07 1.462a5.5 5.5 0 0 1-.293 1.362 2.2 2.2 0 0 1-.691.994q-.463.378-1.253.378-.348 0-.766-.109a2 2 0 0 1-.74-.363 1 1 0 0 1-.383-.681h-.06q-.12.288-.368.547a1.7 1.7 0 0 1-.641.412q-.393.155-.96.134a2.6 2.6 0 0 1-1.138-.288 2.5 2.5 0 0 1-.826-.726 3.4 3.4 0 0 1-.497-1.069 5 5 0 0 1-.164-1.317q0-.672.199-1.228a3.1 3.1 0 0 1 .552-.975q.358-.417.835-.666a2.9 2.9 0 0 1 1.04-.313 2.8 2.8 0 0 1 .904.045q.408.09.671.273.264.18.333.398h.06v-.557h1.054v4.494q0 .418.234.736.233.318.68.318.508 0 .776-.348.274-.348.373-1.073.105-.726.105-1.86 0-.666-.184-1.312a4.3 4.3 0 0 0-.547-1.218 4 4 0 0 0-.92-1 4.3 4.3 0 0 0-1.308-.676q-.746-.248-1.695-.248-1.168 0-2.093.363a4.2 4.2 0 0 0-1.566 1.049 4.6 4.6 0 0 0-.98 1.67q-.332.98-.333 2.227 0 1.268.334 2.252.337.985.994 1.661.66.676 1.636 1.024.974.353 2.247.353.546 0 1.079-.104.53-.105.94-.229.406-.124.586-.184l.278.915a6 6 0 0 1-.805.258q-.493.13-1.054.214a7 7 0 0 1-1.064.085m-.577-3.958q.666 0 1.08-.268.412-.268.6-.811.19-.542.19-1.367 0-.835-.21-1.302-.207-.468-.616-.657-.407-.188-1.004-.188-.566 0-.97.298a1.9 1.9 0 0 0-.61.785q-.21.488-.21 1.064 0 .637.17 1.198.168.558.551.905.382.343 1.03.343m10.924 1.432q-1.033 0-1.815-.492a3.35 3.35 0 0 1-1.213-1.377q-.432-.885-.432-2.068 0-1.193.432-2.084a3.35 3.35 0 0 1 1.213-1.382q.782-.492 1.815-.492 1.034 0 1.81.492.78.493 1.213 1.382.437.89.437 2.084 0 1.183-.437 2.068a3.3 3.3 0 0 1-1.213 1.377q-.776.492-1.81.492m0-1.054q.786 0 1.293-.403.507-.402.75-1.059.244-.656.244-1.421 0-.766-.244-1.427a2.4 2.4 0 0 0-.75-1.069q-.507-.408-1.293-.408t-1.293.408a2.4 2.4 0 0 0-.75 1.069 4.1 4.1 0 0 0-.244 1.427q0 .765.244 1.421.243.657.75 1.059.508.403 1.293.403m10.064-2.227v-4.514h1.173V342h-1.173v-1.293h-.08a2.5 2.5 0 0 1-.835.99q-.567.402-1.432.402-.715 0-1.272-.313-.557-.318-.875-.954-.32-.642-.319-1.616v-4.852h1.174v4.772q0 .835.467 1.333.472.497 1.203.497a2 2 0 0 0 .89-.224q.457-.224.766-.686.313-.462.313-1.178m6.643-4.514v.994h-3.957v-.994zm-2.804-1.83h1.173v7.278q0 .498.145.746a.74.74 0 0 0 .377.328q.234.08.493.08.194 0 .318-.02l.199-.04.238 1.054q-.118.045-.333.09a2.5 2.5 0 0 1-.542.049q-.497 0-.974-.213a1.94 1.94 0 0 1-.786-.652q-.308-.437-.308-1.103zm5.906-.716V342h-1.173v-10.182zm3.004 10.262a.86.86 0 0 1-.631-.264.86.86 0 0 1-.263-.631.86.86 0 0 1 .263-.632.86.86 0 0 1 .631-.263q.368 0 .632.263a.86.86 0 0 1 .263.632.84.84 0 0 1-.124.447.9.9 0 0 1-.323.328.85.85 0 0 1-.448.12m3.819 0a.86.86 0 0 1-.632-.264.86.86 0 0 1-.263-.631q0-.368.263-.632a.86.86 0 0 1 .632-.263q.367 0 .631.263a.86.86 0 0 1 .264.632.84.84 0 0 1-.125.447.9.9 0 0 1-.323.328.85.85 0 0 1-.447.12m3.818 0a.86.86 0 0 1-.632-.264.86.86 0 0 1-.263-.631q0-.368.263-.632a.87.87 0 0 1 .632-.263q.368 0 .631.263a.86.86 0 0 1 .264.632.84.84 0 0 1-.125.447.9.9 0 0 1-.323.328.85.85 0 0 1-.447.12"/></g><g clip-path="url(#i)"><mask id="j" fill="#fff"><path d="M152 107h126v40H152z"/></mask><path fill="#E4E4E7" d="M278 147v-1H152v2h126z" mask="url(#j)"/><path fill="#71717A" d="M219.465 132h-1.631l3.664-10.182h1.775L226.937 132h-1.63l-2.879-8.332h-.079zm.273-3.987h5.29v1.292h-5.29zm8.55 3.987v-7.636h1.427v1.243h.095q.238-.632.78-.985.542-.358 1.298-.358.765 0 1.282.358.522.358.771.985h.08q.273-.612.87-.975.596-.368 1.421-.368 1.04 0 1.696.651.661.652.661 1.964V132h-1.486v-4.982q0-.775-.423-1.123a1.54 1.54 0 0 0-1.009-.348q-.726 0-1.129.447-.403.443-.403 1.139V132h-1.481v-5.076q0-.621-.388-.999t-1.009-.378a1.44 1.44 0 0 0-.781.224 1.6 1.6 0 0 0-.571.611 1.87 1.87 0 0 0-.214.91V132zm15.59.154q-1.074 0-1.874-.492a3.3 3.3 0 0 1-1.243-1.377q-.443-.886-.443-2.068 0-1.189.443-2.079a3.3 3.3 0 0 1 1.243-1.382q.8-.492 1.874-.492t1.874.492 1.243 1.382.443 2.079q0 1.183-.443 2.068a3.3 3.3 0 0 1-1.243 1.377q-.8.492-1.874.492m.005-1.248q.696 0 1.153-.368.458-.367.677-.979a3.9 3.9 0 0 0 .223-1.347q0-.731-.223-1.343a2.2 2.2 0 0 0-.677-.989q-.457-.373-1.153-.373-.7 0-1.163.373a2.2 2.2 0 0 0-.681.989 4 4 0 0 0-.219 1.343q0 .735.219 1.347.224.612.681.979.462.369 1.163.368m10.051-2.073v-4.469h1.492V132h-1.462v-1.322h-.079a2.4 2.4 0 0 1-.846 1.019q-.576.402-1.436.402-.736 0-1.303-.323a2.28 2.28 0 0 1-.885-.969q-.318-.642-.318-1.586v-4.857h1.486v4.678q0 .78.433 1.243.432.462 1.124.462.417 0 .83-.209.417-.208.691-.631.278-.423.273-1.074m4.976-1.367V132h-1.487v-7.636h1.427v1.243h.094a2.2 2.2 0 0 1 .826-.975q.567-.368 1.427-.368.78 0 1.367.328a2.2 2.2 0 0 1 .91.965q.323.64.323 1.586V132h-1.487v-4.678q0-.83-.432-1.298-.433-.472-1.189-.472a1.85 1.85 0 0 0-.919.224 1.6 1.6 0 0 0-.632.656q-.228.428-.228 1.034m10.445-3.102v1.193h-4.171v-1.193zm-3.053-1.83h1.487v7.224q0 .432.129.651a.67.67 0 0 0 .333.293q.209.075.453.075.178 0 .313-.025.134-.024.209-.04l.268 1.228a2.925 2.925 0 0 1-.964.159 2.6 2.6 0 0 1-1.094-.208 1.87 1.87 0 0 1-.82-.677q-.314-.456-.314-1.148z"/><mask id="k" fill="#fff"><path d="M152 147h126v72H152z"/></mask><path fill="#E4E4E7" d="M278 219v-1H152v2h126z" mask="url(#k)"/><path fill="#18181B" d="M207.707 189.273v-12.728h.816v12.728zm2.745-8.909a1.56 1.56 0 0 0-.726-1.174q-.637-.417-1.561-.417-.677 0-1.184.218a1.9 1.9 0 0 0-.785.602 1.44 1.44 0 0 0-.279.87q0 .408.194.701.2.288.507.482.308.19.647.314.337.119.621.193l1.034.279q.398.104.885.288.493.184.94.502.452.314.746.806.293.492.293 1.208 0 .825-.433 1.491-.427.666-1.252 1.059-.82.393-1.994.393-1.094 0-1.894-.353-.796-.353-1.253-.984a2.8 2.8 0 0 1-.512-1.467h1.273q.05.576.387.955a2.1 2.1 0 0 0 .865.556q.528.18 1.134.179.706 0 1.268-.228.561-.234.89-.647.327-.417.328-.974 0-.507-.284-.825a2.1 2.1 0 0 0-.745-.517 8 8 0 0 0-1-.348l-1.253-.358q-1.193-.344-1.889-.98t-.696-1.665q0-.855.463-1.492a3.07 3.07 0 0 1 1.252-.994 4.2 4.2 0 0 1 1.765-.358q.985 0 1.75.353.766.348 1.213.955.453.606.478 1.377zm3.18 7.636v-.895l3.361-3.679q.591-.646.974-1.123.383-.483.567-.905.189-.428.189-.895 0-.537-.259-.93a1.67 1.67 0 0 0-.696-.606 2.25 2.25 0 0 0-.994-.214q-.586 0-1.024.243-.432.24-.671.672a2.1 2.1 0 0 0-.234 1.014h-1.173q0-.895.413-1.571a2.86 2.86 0 0 1 1.123-1.054 3.4 3.4 0 0 1 1.606-.378q.895 0 1.586.378.691.377 1.084 1.019t.392 1.427q0 .562-.203 1.099-.2.531-.696 1.188-.493.65-1.368 1.591l-2.287 2.446v.079h4.733V188zm10.247-1.392-.08.537q-.084.567-.259 1.213a23 23 0 0 1-.352 1.218q-.184.571-.304.91h-.895l.169-.84q.105-.522.209-1.169.11-.641.179-1.312l.06-.557zm2.267 1.392 4.554-9.009v-.079h-5.25v-1.094h6.522v1.154L227.438 188zm10.782.139q-1.123 0-1.914-.611-.79-.617-1.208-1.785-.418-1.173-.418-2.834 0-1.65.418-2.819.422-1.173 1.213-1.79.795-.621 1.909-.621t1.904.621q.796.617 1.213 1.79.423 1.169.423 2.819 0 1.66-.418 2.834-.418 1.168-1.208 1.785-.79.61-1.914.611m0-1.094q1.113 0 1.73-1.073.616-1.074.616-3.063 0-1.323-.283-2.252-.279-.93-.805-1.417a1.78 1.78 0 0 0-1.258-.487q-1.104 0-1.725 1.089-.622 1.084-.622 3.067 0 1.323.279 2.247.278.925.8 1.407a1.8 1.8 0 0 0 1.268.482m8.69 1.094q-1.024 0-1.81-.363-.78-.367-1.218-1.009a2.54 2.54 0 0 1-.432-1.472q-.005-.645.253-1.193.26-.552.706-.919a2.17 2.17 0 0 1 1.01-.473v-.059a1.97 1.97 0 0 1-1.164-.821 2.5 2.5 0 0 1-.427-1.446q-.006-.776.392-1.388.399-.611 1.094-.964.701-.353 1.596-.353.885 0 1.581.353t1.094.964q.402.612.407 1.388a2.5 2.5 0 0 1-.442 1.446 1.96 1.96 0 0 1-1.148.821v.059q.551.1.994.473.442.367.706.919.263.548.268 1.193a2.57 2.57 0 0 1-.447 1.472q-.438.642-1.218 1.009-.775.363-1.795.363m0-1.094q.692 0 1.193-.223.503-.224.776-.632a1.7 1.7 0 0 0 .278-.954 1.83 1.83 0 0 0-.298-1.019 2 2 0 0 0-.8-.696 2.5 2.5 0 0 0-1.149-.254q-.651 0-1.163.254a2.03 2.03 0 0 0-.801.696 1.8 1.8 0 0 0-.283 1.019q-.005.547.263.954.274.408.781.632.507.223 1.203.223m0-4.832q.547 0 .97-.219.427-.218.671-.611.243-.393.248-.92a1.7 1.7 0 0 0-.243-.9 1.6 1.6 0 0 0-.662-.596 2.14 2.14 0 0 0-.984-.214 2.2 2.2 0 0 0-.999.214 1.54 1.54 0 0 0-.661.596 1.66 1.66 0 0 0-.229.9q-.005.527.234.92.243.393.671.611.427.219.984.219m5.926 5.867a.86.86 0 0 1-.631-.264.86.86 0 0 1-.264-.631q0-.368.264-.632a.86.86 0 0 1 .631-.263q.368 0 .632.263a.86.86 0 0 1 .263.632.93.93 0 0 1-.447.775.85.85 0 0 1-.448.12m6.038.059q-.984 0-1.755-.338a3 3 0 0 1-1.218-.939 2.53 2.53 0 0 1-.487-1.407h1.253q.04.492.338.85.298.352.78.547.483.193 1.069.193.657 0 1.164-.228.507-.23.795-.637t.288-.944a1.77 1.77 0 0 0-.278-.99 1.85 1.85 0 0 0-.815-.676q-.537-.243-1.313-.243h-.815v-1.094h.815q.607 0 1.064-.219a1.651 1.651 0 0 0 .985-1.551q0-.517-.229-.9a1.57 1.57 0 0 0-.646-.596 2.1 2.1 0 0 0-.975-.214q-.527 0-.994.194-.462.189-.756.552a1.44 1.44 0 0 0-.318.865h-1.193q.03-.8.482-1.402.453-.608 1.183-.945a3.8 3.8 0 0 1 1.616-.338q.945 0 1.621.383.676.378 1.039.999t.363 1.342q0 .861-.453 1.467a2.3 2.3 0 0 1-1.218.84v.08q.964.159 1.507.82.542.656.542 1.626 0 .83-.453 1.491a3.07 3.07 0 0 1-1.223 1.034q-.775.378-1.765.378m5.792-.139 4.554-9.009v-.079h-5.25v-1.094h6.523v1.154L264.667 188z"/><mask id="l" fill="#fff"><path d="M152 219h126v72H152z"/></mask><path fill="#E4E4E7" d="M278 291v-1H152v2h126z" mask="url(#l)"/><path fill="#18181B" d="M208.801 261.273v-12.728h.815v12.728zm2.744-8.909a1.56 1.56 0 0 0-.726-1.174q-.636-.417-1.561-.417-.675 0-1.183.218a1.9 1.9 0 0 0-.785.602 1.44 1.44 0 0 0-.279.87q0 .408.194.701.2.288.507.482.309.19.646.314.339.119.622.193l1.034.279q.397.104.885.288.492.184.94.502.452.314.745.806.294.492.294 1.208 0 .825-.433 1.491-.428.666-1.253 1.059-.82.393-1.993.393-1.094 0-1.894-.353-.796-.352-1.253-.984a2.8 2.8 0 0 1-.512-1.467h1.272q.05.577.388.955a2.1 2.1 0 0 0 .865.556q.527.18 1.134.179.706 0 1.267-.228.563-.234.89-.647.328-.417.328-.974 0-.507-.283-.825a2.1 2.1 0 0 0-.746-.517 8 8 0 0 0-.999-.348l-1.253-.358q-1.193-.344-1.889-.98t-.696-1.665q0-.855.462-1.492a3.1 3.1 0 0 1 1.253-.994 4.2 4.2 0 0 1 1.765-.358q.985 0 1.75.353.766.348 1.213.955.453.606.477 1.377zm6.621 7.775q-.984 0-1.755-.338a3 3 0 0 1-1.218-.939 2.53 2.53 0 0 1-.487-1.407h1.253q.04.492.338.85.299.352.78.547.483.193 1.069.193.657 0 1.164-.228.507-.23.795-.637t.288-.944a1.77 1.77 0 0 0-.278-.99 1.85 1.85 0 0 0-.815-.676q-.537-.243-1.313-.243h-.815v-1.094h.815q.607 0 1.064-.219a1.651 1.651 0 0 0 .985-1.551q0-.517-.229-.9a1.57 1.57 0 0 0-.646-.596 2.1 2.1 0 0 0-.975-.214q-.527 0-.994.194-.462.189-.756.552a1.44 1.44 0 0 0-.318.865h-1.193q.03-.8.482-1.402.453-.608 1.183-.945a3.8 3.8 0 0 1 1.616-.338q.945 0 1.621.383.675.378 1.039.999t.363 1.342q0 .861-.453 1.467a2.3 2.3 0 0 1-1.218.84v.08q.964.159 1.507.82.542.656.542 1.626 0 .83-.453 1.491a3.07 3.07 0 0 1-1.223 1.034q-.775.378-1.765.378m6.929-1.531-.079.537a11 11 0 0 1-.259 1.213q-.168.647-.353 1.218-.183.571-.303.91h-.895l.169-.84q.105-.522.209-1.169.11-.641.179-1.312l.06-.557zm5.12 1.531q-1.124 0-1.914-.611-.79-.616-1.208-1.785-.418-1.173-.418-2.834 0-1.65.418-2.819.422-1.173 1.213-1.79.795-.621 1.909-.621t1.904.621q.796.617 1.213 1.79.423 1.169.423 2.819 0 1.66-.418 2.834-.417 1.169-1.208 1.785-.79.61-1.914.611m0-1.094q1.113 0 1.73-1.073.616-1.074.616-3.063 0-1.323-.283-2.252-.279-.93-.805-1.417a1.78 1.78 0 0 0-1.258-.487q-1.104 0-1.725 1.089-.622 1.084-.622 3.067 0 1.323.279 2.247.278.925.8 1.407a1.8 1.8 0 0 0 1.268.482m8.67-9.366q.627.005 1.253.239.627.233 1.144.775.516.537.83 1.467t.313 2.331q0 1.357-.258 2.412-.254 1.048-.736 1.77-.477.72-1.164 1.093a3.15 3.15 0 0 1-1.541.373q-.855 0-1.526-.338a3 3 0 0 1-1.094-.949 3.3 3.3 0 0 1-.542-1.417h1.213q.165.7.652 1.158.492.452 1.297.452 1.179 0 1.86-1.029.686-1.029.686-2.908h-.08a3.1 3.1 0 0 1-.661.721 2.9 2.9 0 0 1-1.845.631 3.1 3.1 0 0 1-1.605-.432 3.3 3.3 0 0 1-1.164-1.198q-.432-.766-.432-1.75 0-.936.417-1.711.423-.78 1.184-1.243.765-.462 1.799-.447m0 1.094q-.625 0-1.128.313a2.25 2.25 0 0 0-.791.835 2.36 2.36 0 0 0-.288 1.159q0 .636.278 1.158.283.518.771.825a2.1 2.1 0 0 0 1.119.303 2.12 2.12 0 0 0 1.59-.696q.309-.327.483-.74.174-.418.174-.87a2.27 2.27 0 0 0-.289-1.119 2.3 2.3 0 0 0-.785-.845 2.03 2.03 0 0 0-1.134-.323m9.075-.955V260h-1.233v-8.889h-.06l-2.486 1.65v-1.252l2.546-1.691zm3.201 10.262a.86.86 0 0 1-.631-.264.86.86 0 0 1-.263-.631.86.86 0 0 1 .263-.632.86.86 0 0 1 .631-.263q.368 0 .632.263a.86.86 0 0 1 .263.632.93.93 0 0 1-.447.775.85.85 0 0 1-.448.12m5.946.059q-1.124 0-1.914-.611-.79-.616-1.208-1.785-.417-1.173-.417-2.834 0-1.65.417-2.819.423-1.173 1.213-1.79.796-.621 1.909-.621 1.114 0 1.905.621.795.617 1.213 1.79.422 1.169.422 2.819 0 1.66-.417 2.834-.418 1.169-1.209 1.785-.79.61-1.914.611m0-1.094q1.114 0 1.731-1.073.616-1.074.616-3.063 0-1.323-.283-2.252-.278-.93-.806-1.417a1.78 1.78 0 0 0-1.258-.487q-1.103 0-1.725 1.089-.621 1.084-.621 3.067 0 1.323.278 2.247.279.925.801 1.407.527.482 1.267.482m8.611 1.094a3.5 3.5 0 0 1-1.576-.348 2.9 2.9 0 0 1-1.123-.954 2.6 2.6 0 0 1-.463-1.382h1.193q.07.69.627 1.143.562.447 1.342.447.627 0 1.114-.293.492-.293.77-.805.284-.517.284-1.169 0-.666-.293-1.188a2.16 2.16 0 0 0-.796-.83 2.25 2.25 0 0 0-1.158-.308 3.1 3.1 0 0 0-.96.144 2.7 2.7 0 0 0-.81.373l-1.154-.139.617-5.012h5.29v1.094h-4.256l-.358 3.003h.06q.312-.248.785-.413a3 3 0 0 1 .985-.164q.935 0 1.665.448.736.442 1.153 1.213.423.77.423 1.76 0 .973-.437 1.74a3.2 3.2 0 0 1-1.194 1.203q-.76.437-1.73.437"/><mask id="m" fill="#fff"><path d="M152 291h126v72H152z"/></mask><path fill="#E4E4E7" d="M278 363v-1H152v2h126z" mask="url(#m)"/><path fill="#18181B" d="M208.131 333.273v-12.728h.815v12.728zm2.744-8.909a1.56 1.56 0 0 0-.725-1.174q-.637-.417-1.562-.417-.675 0-1.183.218a1.9 1.9 0 0 0-.785.602 1.44 1.44 0 0 0-.279.87q0 .408.194.701.2.288.507.482.308.19.647.314.338.119.621.193l1.034.279q.398.104.885.288.492.184.94.502.452.314.745.806.294.492.294 1.208 0 .825-.433 1.491-.427.666-1.253 1.059-.82.393-1.993.393-1.094 0-1.894-.353-.796-.352-1.253-.984a2.8 2.8 0 0 1-.512-1.467h1.272q.05.577.388.955a2.1 2.1 0 0 0 .865.556q.527.18 1.134.179.705 0 1.268-.228.561-.234.889-.647a1.53 1.53 0 0 0 .329-.974q0-.507-.284-.825a2.1 2.1 0 0 0-.746-.517 8 8 0 0 0-.999-.348l-1.253-.358q-1.193-.344-1.889-.98t-.696-1.665q0-.856.462-1.492a3.1 3.1 0 0 1 1.253-.994 4.2 4.2 0 0 1 1.765-.358q.985 0 1.75.353.766.348 1.213.955.453.606.478 1.377zm6.76-2.546V332h-1.232v-8.889h-.06l-2.486 1.65v-1.252l2.546-1.691zm4.097 8.79-.079.537a11 11 0 0 1-.259 1.213q-.169.647-.353 1.218t-.303.91h-.895l.169-.84q.104-.522.209-1.169.109-.641.179-1.312l.059-.557zm1.915-.696v-1.014l4.475-7.08h.736v1.571h-.498l-3.38 5.35v.079h6.025v1.094zM228.44 332v-10.182h1.173V332zm4.428 0v-.895l3.361-3.679q.592-.646.975-1.123.383-.483.566-.905.189-.428.189-.895 0-.537-.258-.93a1.67 1.67 0 0 0-.696-.606 2.25 2.25 0 0 0-.995-.214q-.586 0-1.024.243-.432.24-.671.672a2.1 2.1 0 0 0-.234 1.014h-1.173q0-.895.413-1.571a2.86 2.86 0 0 1 1.123-1.054 3.4 3.4 0 0 1 1.606-.378q.895 0 1.586.378t1.084 1.019q.393.642.393 1.427 0 .562-.204 1.099-.2.531-.696 1.188-.492.65-1.367 1.591l-2.287 2.446v.079h4.733V332zm8.477 0v-.895l3.361-3.679q.591-.646.974-1.123.382-.483.567-.905.189-.428.189-.895 0-.537-.259-.93a1.67 1.67 0 0 0-.696-.606 2.25 2.25 0 0 0-.994-.214q-.586 0-1.024.243-.432.24-.671.672a2.1 2.1 0 0 0-.234 1.014h-1.173q0-.895.412-1.571.414-.676 1.124-1.054a3.4 3.4 0 0 1 1.606-.378q.894 0 1.586.378.69.378 1.084 1.019.392.642.392 1.427 0 .562-.204 1.099-.198.531-.696 1.188-.491.65-1.367 1.591l-2.287 2.446v.079h4.733V332zm9.352.08a.86.86 0 0 1-.632-.264.86.86 0 0 1-.263-.631q0-.368.263-.632a.86.86 0 0 1 .632-.263q.367 0 .631.263a.86.86 0 0 1 .263.632.84.84 0 0 1-.124.447.9.9 0 0 1-.323.328.85.85 0 0 1-.447.12m5.946.059q-1.124 0-1.914-.611-.79-.616-1.209-1.785-.417-1.173-.417-2.834 0-1.65.417-2.819.423-1.173 1.213-1.79.796-.621 1.91-.621t1.904.621q.795.617 1.213 1.79.422 1.169.422 2.819 0 1.66-.417 2.834-.418 1.169-1.208 1.785-.79.61-1.914.611m0-1.094q1.113 0 1.73-1.073.616-1.074.616-3.063 0-1.322-.283-2.252-.279-.93-.806-1.417a1.78 1.78 0 0 0-1.257-.487q-1.104 0-1.726 1.089-.621 1.083-.621 3.067 0 1.323.278 2.247.279.925.801 1.407a1.8 1.8 0 0 0 1.268.482m5.19-1.133v-1.014l4.474-7.08h.736v1.571h-.497l-3.381 5.35v.079h6.026v1.094zm4.793 2.088v-10.182h1.173V332z"/></g></g></g><path stroke="#E4E4E7" d="M10 1.5h284a7.5 7.5 0 0 1 7.5 7.5v370a7.5 7.5 0 0 1-7.5 7.5H10a7.5 7.5 0 0 1-7.5-7.5V9A7.5 7.5 0 0 1 10 1.5Z"/></g><defs><clipPath id="b"><path fill="#fff" d="M2 9a8 8 0 0 1 8-8h284a8 8 0 0 1 8 8v370a8 8 0 0 1-8 8H10a8 8 0 0 1-8-8z"/></clipPath><clipPath id="c"><path fill="#fff" d="M26 107h252v256H26z"/></clipPath><clipPath id="d"><path fill="#fff" d="M26 107h126v256H26z"/></clipPath><clipPath id="i"><path fill="#fff" d="M152 107h126v256H152z"/></clipPath><filter id="a" width="304" height="390" x="0" y="0" color-interpolation-filters="sRGB" filterUnits="userSpaceOnUse"><feFlood flood-opacity="0" result="BackgroundImageFix"/><feColorMatrix in="SourceAlpha" result="hardAlpha" values="0 0 0 0 0 0 0 0 0 0 0 0 0 0 0 0 0 0 127 0"/><feOffset dy="1"/><feGaussianBlur stdDeviation="1"/><feColorMatrix values="0 0 0 0 0 0 0 0 0 0 0 0 0 0 0 0 0 0 0.05 0"/><feBlend in2="BackgroundImageFix" result="effect1_dropShadow_15855_145161"/><feBlend in="SourceGraphic" in2="effect1_dropShadow_15855_145161" result="shape"/></filter></defs></svg>