<svg xmlns="http://www.w3.org/2000/svg" width="304" height="166" fill="none"><g filter="url(#a)"><path fill="#fff" d="M2 9a8 8 0 0 1 8-8h284a8 8 0 0 1 8 8v146a8 8 0 0 1-8 8H10a8 8 0 0 1-8-8z"/><path stroke="#E4E4E7" d="M10 1.5h284a7.5 7.5 0 0 1 7.5 7.5v146a7.5 7.5 0 0 1-7.5 7.5H10a7.5 7.5 0 0 1-7.5-7.5V9A7.5 7.5 0 0 1 10 1.5Z"/><path fill="#09090B" d="M30.724 24.546h3.162v11.403q0 1.875-.886 3.298-.878 1.423-2.472 2.225-1.593.792-3.724.792-2.139 0-3.733-.792-1.593-.802-2.472-2.225-.877-1.423-.877-3.298V24.546h3.162v11.139q0 1.09.477 1.943a3.47 3.47 0 0 0 1.363 1.338q.879.477 2.08.477t2.08-.477a3.4 3.4 0 0 0 1.363-1.338q.477-.852.477-1.943zm6.463 22.363v-18h3.034v2.165h.179a5.7 5.7 0 0 1 .673-1.014q.435-.546 1.176-.93.742-.39 1.892-.391 1.518 0 2.736.775 1.227.767 1.943 2.276.725 1.5.725 3.682 0 2.156-.708 3.664-.706 1.509-1.926 2.301-1.218.793-2.761.793-1.125 0-1.867-.375-.741-.375-1.193-.903a6 6 0 0 1-.69-1.014h-.128v6.971zm3.025-11.454q0 1.27.358 2.224.367.954 1.049 1.491.69.53 1.67.529 1.023 0 1.713-.546.69-.554 1.04-1.508.358-.963.358-2.19 0-1.22-.35-2.165-.349-.945-1.04-1.483-.69-.537-1.72-.537-.99 0-1.68.52t-1.048 1.457q-.35.938-.35 2.208M57.88 47.182q-1.662 0-2.855-.452-1.194-.443-1.918-1.193a4.1 4.1 0 0 1-1.005-1.662l2.778-.673q.188.383.545.758.359.384.964.63.614.257 1.542.257 1.313 0 2.173-.64.861-.63.861-2.08v-2.48h-.153a4.4 4.4 0 0 1-.7.98q-.45.503-1.2.845-.742.34-1.867.34-1.509 0-2.736-.707-1.219-.715-1.943-2.13-.716-1.425-.716-3.563 0-2.156.716-3.64.724-1.49 1.952-2.258a5 5 0 0 1 2.735-.775q1.15 0 1.892.392.75.383 1.194.929.443.537.673 1.014h.17v-2.165h3.043v13.304q0 1.679-.801 2.779-.801 1.098-2.19 1.644-1.39.546-3.154.546m.026-7.79q.98 0 1.67-.477.69-.478 1.048-1.372.358-.896.358-2.148 0-1.236-.358-2.165-.35-.93-1.04-1.44-.681-.52-1.678-.52-1.032 0-1.722.537t-1.04 1.474q-.35.93-.35 2.114 0 1.202.35 2.105.358.895 1.049 1.398.698.495 1.713.494M67.186 42V28.91h2.992v2.18h.137q.357-1.133 1.227-1.746a3.38 3.38 0 0 1 2.003-.622q.255 0 .57.025.325.017.538.06v2.838a3.2 3.2 0 0 0-.623-.12 6 6 0 0 0-.81-.06q-.843 0-1.516.367a2.7 2.7 0 0 0-1.048.998q-.384.639-.384 1.474V42zm13.05.264q-1.246 0-2.242-.443a3.66 3.66 0 0 1-1.569-1.33q-.57-.877-.57-2.164 0-1.108.408-1.833.41-.724 1.117-1.159a5.6 5.6 0 0 1 1.594-.656 13 13 0 0 1 1.85-.332q1.149-.12 1.866-.214.715-.102 1.04-.306.332-.213.332-.657v-.05q0-.964-.571-1.492-.571-.529-1.645-.529-1.134 0-1.798.495-.656.494-.887 1.167l-2.88-.409q.34-1.193 1.124-1.994a4.9 4.9 0 0 1 1.918-1.21q1.134-.41 2.506-.41.945 0 1.883.222a5.3 5.3 0 0 1 1.713.733q.775.503 1.245 1.372.477.87.477 2.174V42h-2.966v-1.798h-.102a3.8 3.8 0 0 1-.793 1.022q-.502.47-1.27.759-.759.282-1.78.281m.8-2.267q.93 0 1.611-.366a2.7 2.7 0 0 0 1.048-.989q.375-.613.375-1.338v-1.543q-.144.12-.494.222a7 7 0 0 1-.767.179q-.426.076-.844.136l-.724.103q-.69.093-1.236.306t-.86.597q-.316.375-.316.972 0 .852.622 1.286t1.585.435m14.071 2.233q-1.543 0-2.761-.792-1.22-.793-1.926-2.302-.708-1.508-.708-3.664 0-2.182.716-3.682.725-1.509 1.952-2.276a5 5 0 0 1 2.736-.775q1.15 0 1.892.392.741.383 1.176.929.435.537.673 1.014h.128v-6.529h3.094V42h-3.034v-2.062h-.188a5.3 5.3 0 0 1-.69 1.014q-.452.528-1.193.903t-1.867.375m.861-2.531q.98 0 1.67-.529.69-.537 1.049-1.491.358-.955.358-2.224t-.358-2.208q-.35-.937-1.04-1.457-.682-.52-1.679-.52-1.03 0-1.722.537-.69.537-1.04 1.483-.349.945-.349 2.165 0 1.227.35 2.19.357.955 1.048 1.508.699.546 1.713.546m15.194 2.557q-1.969 0-3.401-.819a5.54 5.54 0 0 1-2.19-2.335q-.767-1.516-.767-3.57 0-2.021.767-3.546.776-1.534 2.165-2.387 1.389-.86 3.264-.86 1.21 0 2.284.392a5.16 5.16 0 0 1 1.909 1.193q.836.81 1.313 2.062.477 1.245.477 2.966v.946h-10.73v-2.08h7.773q-.009-.886-.384-1.576a2.8 2.8 0 0 0-1.048-1.1q-.665-.4-1.551-.4-.947 0-1.662.46-.717.453-1.117 1.193a3.4 3.4 0 0 0-.4 1.611v1.816q0 1.141.417 1.96.418.81 1.168 1.244.75.426 1.756.426a3.7 3.7 0 0 0 1.218-.187 2.7 2.7 0 0 0 .946-.571q.4-.375.605-.93l2.881.325a4.5 4.5 0 0 1-1.04 1.994q-.758.844-1.943 1.313-1.185.46-2.71.46m20.921-13.347v2.387h-7.525v-2.387zm-5.668-3.136h3.086v12.29q0 .621.187.954.196.324.512.443.315.12.698.12.29 0 .529-.043.247-.043.375-.077l.52 2.412q-.248.086-.708.188-.451.102-1.108.119-1.158.034-2.088-.35a3.25 3.25 0 0 1-1.474-1.21q-.537-.818-.529-2.045zm13.818 16.483q-1.917 0-3.324-.844-1.406-.845-2.182-2.36-.767-1.518-.767-3.546 0-2.029.767-3.554.776-1.525 2.182-2.37 1.407-.843 3.324-.843t3.324.843 2.173 2.37q.776 1.525.776 3.554t-.776 3.545a5.67 5.67 0 0 1-2.173 2.36q-1.407.845-3.324.845m.017-2.472q1.04 0 1.739-.57.699-.58 1.039-1.552.35-.972.35-2.165 0-1.201-.35-2.173-.34-.98-1.039-1.56-.7-.58-1.739-.58-1.065 0-1.773.58-.699.58-1.048 1.56-.34.972-.341 2.173 0 1.194.341 2.165.35.972 1.048 1.551.708.57 1.773.571M155.214 42V24.546h6.545q2.011 0 3.375.75 1.372.75 2.071 2.062.708 1.304.708 2.966 0 1.679-.708 2.983-.707 1.304-2.088 2.054-1.38.741-3.4.741h-4.338v-2.6h3.911q1.177 0 1.927-.408.75-.41 1.108-1.125.366-.717.366-1.645 0-.93-.366-1.637a2.5 2.5 0 0 0-1.117-1.099q-.75-.4-1.935-.4h-2.897V42zm15.309 0V28.91h2.991v2.18h.137q.357-1.133 1.227-1.746a3.38 3.38 0 0 1 2.003-.622q.255 0 .571.025.324.017.537.06v2.838a3.2 3.2 0 0 0-.623-.12 6 6 0 0 0-.809-.06 3.1 3.1 0 0 0-1.517.367 2.7 2.7 0 0 0-1.049.998q-.383.639-.383 1.474V42zm14.687.256q-1.918 0-3.324-.844-1.407-.845-2.182-2.36-.767-1.518-.767-3.546 0-2.029.767-3.554.775-1.525 2.182-2.37 1.405-.843 3.324-.843 1.917 0 3.323.843 1.406.845 2.174 2.37.775 1.525.775 3.554t-.775 3.545q-.767 1.517-2.174 2.36-1.406.845-3.323.845m.017-2.472q1.04 0 1.738-.57.7-.58 1.04-1.552.35-.972.349-2.165 0-1.201-.349-2.173-.34-.98-1.04-1.56-.699-.58-1.738-.58-1.066 0-1.773.58-.7.58-1.048 1.56-.342.972-.341 2.173 0 1.194.341 2.165.348.972 1.048 1.551.707.57 1.773.571"/><path fill="#71717A" d="M25.915 59.818h1.233v6.742q0 1.044-.492 1.864a3.45 3.45 0 0 1-1.378 1.288q-.89.467-2.088.467t-2.088-.467a3.5 3.5 0 0 1-1.382-1.288q-.487-.82-.487-1.864v-6.742h1.233v6.642q0 .746.328 1.328.328.576.935.91.611.328 1.461.328t1.462-.329a2.3 2.3 0 0 0 .935-.91q.327-.581.328-1.327zm4.71 5.588V70H29.45v-7.636h1.133v1.193h.1q.268-.582.815-.935.547-.358 1.412-.358.776 0 1.357.318.582.314.905.955.324.636.323 1.61V70h-1.173v-4.773q0-.9-.467-1.402-.468-.507-1.283-.507-.563 0-1.004.244-.438.244-.691.71-.255.468-.254 1.134m8.189-5.588V70H37.64V59.818zm5.25 10.341q-1.034 0-1.814-.492a3.34 3.34 0 0 1-1.213-1.377q-.432-.885-.432-2.068 0-1.194.432-2.084a3.34 3.34 0 0 1 1.213-1.382q.78-.492 1.815-.492t1.81.492q.78.493 1.212 1.382.438.89.438 2.084 0 1.183-.437 2.068a3.3 3.3 0 0 1-1.214 1.377q-.775.492-1.81.492m0-1.054q.787 0 1.293-.403.508-.402.751-1.058.244-.657.244-1.422t-.244-1.427a2.4 2.4 0 0 0-.75-1.07q-.508-.406-1.293-.407-.786 0-1.293.408a2.4 2.4 0 0 0-.75 1.069q-.244.66-.244 1.427 0 .765.244 1.422.243.656.75 1.058.508.403 1.293.403m8.354 1.054q-1.073 0-1.85-.507a3.3 3.3 0 0 1-1.192-1.397q-.418-.89-.418-2.033 0-1.163.428-2.054a3.4 3.4 0 0 1 1.203-1.397q.775-.507 1.81-.507.804 0 1.451.298.646.3 1.06.836.411.537.511 1.253h-1.173q-.134-.522-.597-.925-.457-.408-1.233-.408-.685 0-1.203.358-.512.353-.8 1-.284.641-.284 1.506 0 .885.279 1.541.284.656.795 1.02.518.362 1.213.362.458 0 .83-.159.375-.159.632-.457.258-.3.368-.716h1.173q-.099.675-.492 1.218a2.75 2.75 0 0 1-1.03.855q-.635.313-1.48.313m5.812-2.943-.02-1.452h.239l3.34-3.4h1.453l-3.56 3.6h-.1zM57.136 70V59.818h1.174V70zm4.853 0-2.983-3.778.835-.816L63.48 70zm8.947.179q-.726 0-1.317-.273a2.26 2.26 0 0 1-.94-.8q-.348-.528-.348-1.274 0-.656.259-1.063.258-.413.69-.647.434-.234.955-.348.528-.12 1.06-.189.695-.09 1.128-.134.437-.05.636-.164.204-.114.204-.398v-.04q0-.735-.403-1.143-.398-.408-1.208-.408-.84 0-1.317.368-.478.368-.671.786l-1.114-.398q.299-.696.795-1.084a3 3 0 0 1 1.094-.547 4.5 4.5 0 0 1 1.173-.159q.368 0 .846.09.481.084.93.353t.75.81q.298.542.298 1.452V70h-1.173v-1.034h-.06q-.12.249-.397.532-.279.284-.741.482-.462.2-1.129.199m.18-1.054q.695 0 1.172-.273a1.86 1.86 0 0 0 .975-1.616v-1.074q-.076.09-.328.164a6 6 0 0 1-.577.124 26 26 0 0 1-1.123.15q-.457.06-.856.193a1.5 1.5 0 0 0-.636.393q-.239.258-.239.706 0 .612.453.925.457.308 1.158.308m6.635-9.307V70h-1.173V59.818zm3.322 0V70H79.9V59.818zm9.487 2.546v.994h-4.116v-.994zM87.677 70v-8.69q0-.657.308-1.094a1.9 1.9 0 0 1 .8-.656 2.5 2.5 0 0 1 1.04-.22q.432 0 .706.07t.407.13l-.338 1.014a6 6 0 0 0-.248-.075 1.5 1.5 0 0 0-.408-.044q-.582 0-.84.293-.254.293-.254.86V70zm7.415.16q-1.103 0-1.904-.488A3.27 3.27 0 0 1 91.96 68.3q-.428-.885-.428-2.058 0-1.174.428-2.069.433-.9 1.203-1.402.775-.507 1.81-.507.596 0 1.178.2.581.198 1.059.645.478.442.76 1.174.284.73.284 1.8v.496h-5.886v-1.014h4.693q0-.645-.259-1.153a1.95 1.95 0 0 0-.726-.8q-.468-.294-1.103-.294-.702 0-1.213.348a2.3 2.3 0 0 0-.781.895 2.6 2.6 0 0 0-.273 1.183v.677q0 .864.298 1.466.303.597.84.91.537.308 1.248.308.463 0 .835-.13.379-.133.651-.397.274-.268.423-.666l1.134.318q-.18.578-.602 1.014-.423.433-1.044.677-.621.237-1.397.238m7.194.019q-.726 0-1.318-.273a2.26 2.26 0 0 1-.939-.8q-.348-.528-.348-1.274 0-.656.258-1.063.26-.413.691-.647.433-.234.955-.348.526-.12 1.059-.189.696-.09 1.128-.134.438-.05.637-.164.204-.114.204-.398v-.04q0-.735-.403-1.143-.398-.408-1.208-.408-.84 0-1.318.368-.477.368-.671.786l-1.114-.398q.299-.696.796-1.084a3 3 0 0 1 1.094-.547q.596-.159 1.173-.159.368 0 .845.09.483.084.93.353.452.269.751.81.297.542.298 1.452V70h-1.173v-1.034h-.06a2 2 0 0 1-.398.532q-.278.284-.741.482-.462.2-1.128.199m.179-1.054q.696 0 1.173-.273.483-.274.726-.706.249-.433.249-.91v-1.074q-.075.09-.329.164a6 6 0 0 1-.576.124 27 27 0 0 1-1.124.15q-.458.06-.855.193a1.5 1.5 0 0 0-.636.393q-.239.258-.239.706 0 .612.452.925.458.308 1.159.308m8.783-6.761v.994h-3.957v-.994zm-2.804-1.83h1.174v7.279q0 .496.144.745a.74.74 0 0 0 .378.328q.234.08.492.08.194 0 .318-.02l.199-.04.239 1.054q-.12.045-.333.09-.215.05-.542.05-.498 0-.975-.214a1.93 1.93 0 0 1-.785-.652q-.309-.437-.309-1.103zm9.382 6.344v-4.514h1.173V70h-1.173v-1.293h-.08a2.5 2.5 0 0 1-.835.99q-.567.402-1.432.402-.715 0-1.273-.313-.556-.318-.875-.954-.318-.641-.318-1.616v-4.852h1.174v4.772q0 .835.467 1.333.472.497 1.203.497.438 0 .89-.224.457-.224.766-.686.313-.462.313-1.178M121.148 70v-7.636h1.134v1.153h.079q.209-.566.756-.92a2.2 2.2 0 0 1 1.233-.353q.13 0 .323.005.194.006.293.015v1.193a4 4 0 0 0-.273-.044 3 3 0 0 0-.443-.035q-.556 0-.994.233a1.712 1.712 0 0 0-.935 1.556V70zm8.178.16q-1.103 0-1.904-.488a3.28 3.28 0 0 1-1.228-1.372q-.427-.885-.427-2.058 0-1.174.427-2.069.433-.9 1.203-1.402.776-.507 1.81-.507.597 0 1.178.2.582.198 1.059.645.477.442.761 1.174.283.73.283 1.8v.496h-5.886v-1.014h4.693q0-.645-.258-1.153a1.95 1.95 0 0 0-.726-.8q-.468-.294-1.104-.294-.701 0-1.213.348a2.3 2.3 0 0 0-.781.895 2.6 2.6 0 0 0-.273 1.183v.677q0 .864.298 1.466.304.597.84.91.537.308 1.248.308.463 0 .836-.13.377-.133.651-.397.273-.268.422-.666l1.134.318q-.179.578-.602 1.014a2.9 2.9 0 0 1-1.044.677q-.621.237-1.397.238m10.356-6.086-1.054.298a2 2 0 0 0-.293-.512 1.4 1.4 0 0 0-.517-.417q-.328-.165-.84-.165-.701 0-1.169.324-.462.318-.462.81 0 .438.318.691.319.253.994.423l1.134.278q1.024.25 1.526.76.502.509.502 1.308 0 .657-.377 1.174-.374.516-1.044.815-.671.298-1.562.298-1.167 0-1.934-.507-.765-.507-.969-1.481l1.114-.279q.159.617.601.925.448.308 1.169.308.82 0 1.302-.348.487-.353.487-.845a.89.89 0 0 0-.278-.666q-.279-.275-.855-.408l-1.273-.298q-1.049-.25-1.541-.77-.487-.528-.487-1.318 0-.646.363-1.144.367-.497.999-.78a3.5 3.5 0 0 1 1.442-.284q1.133 0 1.779.497.652.498.925 1.313m8.09 6.105a3.1 3.1 0 0 1-1.317-.273 2.26 2.26 0 0 1-.94-.8q-.348-.528-.348-1.274 0-.656.259-1.063.258-.413.691-.647t.954-.348q.528-.12 1.059-.189.696-.09 1.129-.134.436-.05.636-.164.204-.114.204-.398v-.04q0-.735-.403-1.143-.398-.408-1.208-.408-.84 0-1.317.368-.478.368-.672.786l-1.113-.398q.299-.696.795-1.084.503-.393 1.094-.547.597-.159 1.173-.159.368 0 .846.09.482.084.929.353.453.269.751.81.298.542.298 1.452V70h-1.173v-1.034h-.06a2 2 0 0 1-.397.532q-.279.284-.741.482-.463.2-1.129.199m.179-1.054q.696 0 1.173-.273.483-.274.726-.706.249-.433.249-.91v-1.074q-.075.09-.328.164a6 6 0 0 1-.577.124 26 26 0 0 1-1.124.15q-.456.06-.855.193a1.5 1.5 0 0 0-.636.393q-.239.258-.239.706 0 .612.453.925.457.308 1.158.308m6.636-3.719V70h-1.173v-7.636h1.133v1.193h.1q.268-.582.815-.935.547-.358 1.412-.358.775 0 1.357.318.582.314.905.955.323.636.323 1.61V70h-1.173v-4.773q0-.9-.467-1.402-.468-.507-1.283-.507-.562 0-1.004.244a1.74 1.74 0 0 0-.691.71q-.254.468-.254 1.134m9.9 4.753q-.955 0-1.686-.482-.73-.487-1.143-1.372-.413-.891-.413-2.103 0-1.203.413-2.088t1.148-1.368q.737-.482 1.701-.482.745 0 1.178.249.438.243.666.557.234.307.363.507h.099v-3.759h1.174V70h-1.134v-1.173h-.139a8 8 0 0 1-.368.527 2.2 2.2 0 0 1-.681.561q-.443.244-1.178.244m.159-1.054q.705 0 1.193-.368.488-.372.741-1.029.253-.661.253-1.526 0-.856-.248-1.497-.249-.645-.736-1.004-.488-.363-1.203-.363-.746 0-1.243.383a2.3 2.3 0 0 0-.741 1.03 4.1 4.1 0 0 0-.243 1.45q0 .816.248 1.482.254.662.746 1.054.496.388 1.233.388m12.672 3.918q-.85 0-1.461-.219a3.1 3.1 0 0 1-1.019-.567 3.1 3.1 0 0 1-.642-.745l.935-.657q.159.21.403.478.243.273.666.472.428.204 1.118.204.926 0 1.527-.448.601-.447.601-1.402v-1.55h-.099q-.13.207-.368.516a2.1 2.1 0 0 1-.676.542q-.437.234-1.184.234a3.2 3.2 0 0 1-1.66-.438q-.73-.437-1.158-1.272-.423-.836-.423-2.029 0-1.173.413-2.043.413-.875 1.148-1.353.736-.482 1.7-.482.747 0 1.184.249.442.243.676.557.238.307.368.507h.119v-1.213h1.133v7.855q0 .985-.447 1.6a2.55 2.55 0 0 1-1.193.91 4.5 4.5 0 0 1-1.661.294m-.039-4.196q.705 0 1.193-.323.487-.324.741-.93.253-.606.253-1.452 0-.825-.248-1.457a2.2 2.2 0 0 0-.736-.989q-.487-.358-1.203-.358-.747 0-1.243.378-.492.378-.741 1.014a3.9 3.9 0 0 0-.244 1.412q0 .796.249 1.407.254.606.746.955.496.342 1.233.343m8.69 1.332q-1.104 0-1.904-.487a3.27 3.27 0 0 1-1.228-1.372q-.428-.885-.428-2.058 0-1.174.428-2.069.432-.9 1.203-1.402.775-.507 1.81-.507.596 0 1.178.2.582.198 1.059.645.478.442.76 1.174.284.73.284 1.8v.496h-5.887v-1.014h4.694q0-.645-.259-1.153a1.95 1.95 0 0 0-.726-.8q-.467-.294-1.103-.294-.702 0-1.213.348a2.3 2.3 0 0 0-.781.895 2.6 2.6 0 0 0-.273 1.183v.677q0 .864.298 1.466.303.597.84.91.537.308 1.248.308.462 0 .835-.13.378-.133.651-.397.274-.268.423-.666l1.134.318q-.18.578-.602 1.014-.423.433-1.044.677-.621.237-1.397.238m8.268-7.795v.994h-3.958v-.994zm-2.804-1.83h1.173v7.279q0 .496.144.745.15.244.378.328.234.08.492.08.194 0 .318-.02l.199-.04.239 1.054q-.12.045-.333.09-.214.05-.542.05-.497 0-.975-.214a1.94 1.94 0 0 1-.785-.652q-.308-.437-.308-1.103zm13.319 6.344v-4.514h1.173V70h-1.173v-1.293h-.08a2.5 2.5 0 0 1-.835.99q-.567.402-1.432.402-.716 0-1.273-.313a2.2 2.2 0 0 1-.875-.954q-.318-.641-.318-1.616v-4.852h1.173v4.772q0 .835.468 1.333.472.497 1.203.497.437 0 .89-.224.458-.224.765-.686.314-.462.314-1.178m4.495-1.472V70h-1.173v-7.636h1.133v1.193h.1q.269-.582.815-.935.547-.358 1.412-.358.776 0 1.357.318.582.314.905.955.324.636.323 1.61V70h-1.173v-4.773q0-.9-.467-1.402-.468-.507-1.283-.507-.562 0-1.004.244a1.74 1.74 0 0 0-.691.71q-.254.468-.254 1.134m8.19-5.588V70h-1.174V59.818zM219.586 70v-7.636h1.173V70zm.596-8.91a.83.83 0 0 1-.591-.233.75.75 0 0 1-.244-.562q0-.328.244-.561a.83.83 0 0 1 .591-.234q.343 0 .587.234a.74.74 0 0 1 .248.561.74.74 0 0 1-.248.562.82.82 0 0 1-.587.234m2.726 8.91v-7.636h1.133v1.193h.1a1.92 1.92 0 0 1 .77-.95q.533-.343 1.278-.343.756 0 1.258.343.507.338.79.95h.08q.293-.592.88-.94.587-.353 1.407-.353 1.024 0 1.675.642.651.636.652 1.983V70h-1.174v-5.11q0-.846-.462-1.209a1.7 1.7 0 0 0-1.089-.363q-.805 0-1.248.487-.442.483-.442 1.223V70h-1.193v-5.23q0-.651-.423-1.05-.423-.402-1.089-.402-.458 0-.855.244a1.83 1.83 0 0 0-.636.676 2 2 0 0 0-.239.99V70zm12.168 0v-7.636h1.173V70zm.596-8.91a.83.83 0 0 1-.591-.233.75.75 0 0 1-.244-.562q0-.328.244-.561a.83.83 0 0 1 .591-.234q.344 0 .587.234a.74.74 0 0 1 .249.561.74.74 0 0 1-.249.562.82.82 0 0 1-.587.234m6.047 1.274v.994h-3.957v-.994zm-2.804-1.83h1.173v7.279q0 .496.145.745a.75.75 0 0 0 .377.328q.234.08.493.08.194 0 .318-.02l.199-.04.238 1.054q-.118.045-.333.09-.213.05-.542.05a2.4 2.4 0 0 1-.974-.214 1.94 1.94 0 0 1-.786-.652q-.308-.437-.308-1.103zm7.689 9.625q-1.104 0-1.904-.487a3.26 3.26 0 0 1-1.228-1.372q-.428-.885-.428-2.058 0-1.174.428-2.069.432-.9 1.203-1.402.775-.507 1.809-.507.597 0 1.179.2.58.198 1.059.645.477.442.76 1.174.284.73.284 1.8v.496h-5.887v-1.014h4.693q0-.645-.258-1.153a1.95 1.95 0 0 0-.726-.8q-.467-.294-1.104-.294-.7 0-1.213.348a2.3 2.3 0 0 0-.78.895 2.6 2.6 0 0 0-.274 1.183v.677q0 .864.299 1.466.303.597.84.91.537.308 1.248.308.462 0 .835-.13.378-.133.651-.397.273-.268.423-.666l1.133.318q-.179.578-.601 1.014-.423.433-1.044.677-.622.237-1.397.238m7.83 0q-.954 0-1.685-.482-.732-.487-1.144-1.372-.413-.891-.413-2.103 0-1.203.413-2.088.412-.885 1.149-1.368.735-.482 1.7-.482.746 0 1.178.249.438.243.666.557.234.307.363.507h.1v-3.759h1.173V70H256.8v-1.173h-.139a8 8 0 0 1-.368.527 2.2 2.2 0 0 1-.681.561q-.443.244-1.178.244m.159-1.054q.706 0 1.193-.368.488-.372.741-1.029.254-.661.254-1.526 0-.856-.249-1.497-.249-.645-.736-1.004-.487-.363-1.203-.363-.745 0-1.243.383a2.3 2.3 0 0 0-.741 1.03 4.1 4.1 0 0 0-.243 1.45q0 .816.248 1.482.254.662.746 1.054.498.388 1.233.388M21.321 90.18q-.726 0-1.317-.273a2.26 2.26 0 0 1-.94-.8q-.348-.528-.348-1.274 0-.656.258-1.063.259-.414.692-.647t.954-.348q.526-.12 1.059-.189.696-.09 1.129-.134.436-.05.636-.164.204-.114.204-.398v-.04q0-.735-.403-1.143-.398-.408-1.208-.408-.84 0-1.317.368-.478.368-.672.786l-1.113-.398q.298-.696.795-1.084a3 3 0 0 1 1.094-.547 4.5 4.5 0 0 1 1.173-.159q.368 0 .845.09.483.084.93.353.453.269.75.81.3.542.299 1.452V90h-1.173v-1.034h-.06a2 2 0 0 1-.398.532q-.278.284-.74.482-.463.2-1.129.199m.179-1.054q.696 0 1.173-.273a1.86 1.86 0 0 0 .975-1.616v-1.074q-.076.09-.328.164a6 6 0 0 1-.577.124 26 26 0 0 1-1.124.15q-.457.06-.855.193a1.5 1.5 0 0 0-.636.393q-.24.258-.239.706 0 .612.453.925.457.308 1.158.308m8.565 1.034q-1.074 0-1.85-.507a3.3 3.3 0 0 1-1.193-1.397q-.417-.89-.417-2.033 0-1.163.427-2.054a3.4 3.4 0 0 1 1.203-1.397q.775-.507 1.81-.507.805 0 1.452.299.646.297 1.059.835.412.537.512 1.253h-1.174q-.135-.522-.596-.925-.457-.408-1.233-.408-.687 0-1.203.358-.512.354-.8 1-.284.641-.284 1.506 0 .884.278 1.541.284.656.796 1.02.517.362 1.213.362.457 0 .83-.159.374-.159.631-.457.259-.3.368-.716h1.174q-.1.675-.492 1.218a2.75 2.75 0 0 1-1.03.855q-.636.313-1.481.313m7.82 0q-1.074 0-1.85-.507a3.3 3.3 0 0 1-1.192-1.397q-.418-.89-.418-2.033 0-1.163.428-2.054a3.4 3.4 0 0 1 1.203-1.397q.775-.507 1.81-.507.805 0 1.45.299.648.297 1.06.835.413.537.512 1.253h-1.173q-.135-.522-.597-.925-.457-.408-1.233-.408-.685 0-1.203.358-.512.354-.8 1-.284.641-.284 1.506 0 .884.279 1.541.283.656.795 1.02.518.362 1.213.362.458 0 .83-.159.374-.159.632-.457.258-.3.368-.716h1.173q-.099.675-.492 1.218a2.75 2.75 0 0 1-1.03.855q-.636.313-1.48.313m7.92 0q-1.103 0-1.904-.487a3.27 3.27 0 0 1-1.228-1.372q-.428-.885-.428-2.058 0-1.174.428-2.069.433-.9 1.203-1.402.775-.507 1.81-.507.596 0 1.178.2.581.198 1.059.645.477.443.76 1.174t.284 1.8v.496H43.08v-1.014h4.694q0-.645-.259-1.153a1.95 1.95 0 0 0-.726-.8q-.467-.294-1.104-.294-.7 0-1.213.348a2.3 2.3 0 0 0-.78.895 2.6 2.6 0 0 0-.273 1.183v.677q0 .864.298 1.466.303.597.84.91.537.308 1.248.308.462 0 .835-.13.379-.133.651-.397.274-.268.423-.666l1.133.318q-.179.578-.601 1.014-.423.433-1.044.677-.621.237-1.397.238m10.356-6.085-1.054.298a2 2 0 0 0-.294-.512 1.4 1.4 0 0 0-.517-.418q-.327-.164-.84-.164-.701 0-1.168.324-.462.318-.462.81 0 .438.318.691t.994.423l1.134.278q1.023.25 1.526.76.502.509.502 1.308 0 .657-.378 1.174-.372.516-1.044.815-.671.298-1.561.298-1.169 0-1.934-.507-.766-.507-.97-1.481l1.114-.279q.16.617.602.925.447.308 1.168.308.82 0 1.303-.348.486-.353.487-.845a.89.89 0 0 0-.279-.666q-.278-.275-.855-.408l-1.272-.298q-1.05-.25-1.542-.77-.486-.528-.487-1.318 0-.646.363-1.144a2.47 2.47 0 0 1 1-.78 3.5 3.5 0 0 1 1.441-.284q1.135 0 1.78.497.65.498.925 1.313m7.314 0-1.054.298a2 2 0 0 0-.293-.512 1.4 1.4 0 0 0-.517-.418q-.328-.164-.84-.164-.701 0-1.169.324-.462.318-.462.81 0 .438.318.691.319.253.994.423l1.134.278q1.025.25 1.526.76.502.509.502 1.308 0 .657-.377 1.174-.374.516-1.044.815-.672.298-1.562.298-1.168 0-1.934-.507-.765-.507-.969-1.481l1.114-.279q.159.617.601.925.448.308 1.169.308.819 0 1.302-.348.487-.353.487-.845a.89.89 0 0 0-.278-.666q-.278-.275-.855-.408l-1.273-.298q-1.05-.25-1.541-.77-.487-.528-.487-1.318 0-.646.363-1.144a2.47 2.47 0 0 1 .999-.78 3.5 3.5 0 0 1 1.442-.284q1.133 0 1.78.497.651.498.924 1.313m9.164-1.71v.994h-3.957v-.994zm-2.804-1.83h1.173v7.278q0 .498.145.746.149.244.377.328.234.08.492.08.195 0 .319-.02l.199-.04.238 1.054q-.12.045-.333.09-.213.05-.542.05-.497 0-.974-.214a1.94 1.94 0 0 1-.786-.652q-.308-.437-.308-1.103zm7.59 9.625q-1.035 0-1.815-.492a3.34 3.34 0 0 1-1.213-1.377q-.433-.885-.433-2.068 0-1.194.433-2.084a3.34 3.34 0 0 1 1.213-1.382q.78-.492 1.814-.492t1.81.492q.78.494 1.213 1.382.438.89.437 2.084 0 1.183-.437 2.068a3.3 3.3 0 0 1-1.213 1.377q-.775.492-1.81.492m0-1.054q.785 0 1.292-.403.507-.402.75-1.058.244-.657.244-1.422t-.243-1.427a2.4 2.4 0 0 0-.751-1.07q-.508-.406-1.293-.407t-1.292.408a2.4 2.4 0 0 0-.751 1.069q-.244.66-.244 1.427 0 .765.244 1.422.243.656.75 1.058.508.403 1.293.403m12.29 1.054q-1.034 0-1.814-.492a3.34 3.34 0 0 1-1.213-1.377q-.433-.885-.433-2.068 0-1.194.433-2.084a3.34 3.34 0 0 1 1.213-1.382q.78-.492 1.814-.492t1.81.492q.78.494 1.213 1.382.438.89.437 2.084 0 1.183-.437 2.068a3.3 3.3 0 0 1-1.213 1.377q-.775.492-1.81.492m0-1.054q.786 0 1.293-.403.507-.402.75-1.058.244-.657.244-1.422t-.243-1.427a2.4 2.4 0 0 0-.751-1.07q-.508-.406-1.293-.407t-1.292.408a2.4 2.4 0 0 0-.751 1.069q-.244.66-.244 1.427 0 .765.244 1.422t.75 1.058q.509.403 1.293.403m10.064-2.227v-4.514h1.173V90h-1.173v-1.293h-.08a2.5 2.5 0 0 1-.835.99q-.567.402-1.432.402-.715 0-1.272-.313a2.2 2.2 0 0 1-.875-.954q-.319-.641-.319-1.616v-4.852h1.174v4.772q0 .835.467 1.333.472.497 1.203.497.438 0 .89-.224.457-.224.766-.686.313-.462.313-1.178M103.1 90v-7.636h1.134v1.153h.079q.209-.567.756-.92a2.23 2.23 0 0 1 1.233-.353q.13 0 .323.005.194.006.293.015v1.193a3 3 0 0 0-.273-.044 3 3 0 0 0-.443-.035q-.556 0-.994.234a1.712 1.712 0 0 0-.934 1.556V90zm14.556-5.926-1.054.298a2 2 0 0 0-.294-.512 1.4 1.4 0 0 0-.517-.418q-.327-.164-.84-.164-.701 0-1.168.324-.462.318-.462.81 0 .438.318.691t.994.423l1.134.278q1.023.25 1.526.76.502.509.502 1.308 0 .657-.378 1.174-.372.516-1.044.815-.671.298-1.561.298-1.168 0-1.934-.507-.765-.507-.969-1.481l1.113-.279q.16.617.602.925.448.308 1.168.308.82 0 1.303-.348.487-.353.487-.845a.9.9 0 0 0-.278-.666q-.279-.275-.856-.408l-1.272-.298q-1.05-.25-1.542-.77-.487-.528-.487-1.318 0-.646.363-1.144.368-.496.999-.78a3.5 3.5 0 0 1 1.442-.284q1.134 0 1.78.497.65.498.925 1.313m6.718 2.804v-4.514h1.173V90h-1.173v-1.293h-.08a2.5 2.5 0 0 1-.835.99q-.567.402-1.432.402-.715 0-1.273-.313a2.2 2.2 0 0 1-.875-.954q-.318-.641-.318-1.616v-4.852h1.173v4.772q0 .835.468 1.333.472.497 1.203.497.438 0 .89-.224.458-.224.765-.686.314-.462.314-1.178m3.322 5.986v-10.5h1.133v1.213h.14a10 10 0 0 1 .358-.507q.232-.314.666-.557.437-.249 1.183-.249.965 0 1.7.482.737.483 1.149 1.368t.412 2.088q0 1.213-.412 2.103-.413.885-1.144 1.372-.73.482-1.685.482-.736 0-1.178-.244a2.2 2.2 0 0 1-.681-.561 7 7 0 0 1-.368-.527h-.1v4.037zm1.153-6.682q0 .864.254 1.526.254.656.741 1.03.486.367 1.193.367.736 0 1.228-.388.497-.392.746-1.054.253-.666.253-1.481 0-.806-.248-1.452a2.25 2.25 0 0 0-.741-1.029q-.492-.383-1.238-.383-.715 0-1.203.363-.487.358-.736 1.004-.249.642-.249 1.497m7.378 6.682v-10.5h1.134v1.213h.139a10 10 0 0 1 .358-.507q.234-.314.666-.557.438-.249 1.183-.249.965 0 1.701.482.735.483 1.148 1.368t.413 2.088q0 1.213-.413 2.103-.412.885-1.143 1.372-.731.482-1.686.482-.735 0-1.178-.244a2.2 2.2 0 0 1-.681-.561 8 8 0 0 1-.368-.527h-.1v4.037zm1.154-6.682q0 .864.253 1.526.254.656.741 1.03.487.367 1.193.367.736 0 1.228-.388.497-.392.746-1.054.253-.666.253-1.481 0-.806-.248-1.452a2.25 2.25 0 0 0-.741-1.029q-.492-.383-1.238-.383-.715 0-1.203.363-.487.358-.736 1.004-.248.642-.248 1.497m10.48 3.977q-1.035 0-1.815-.492a3.35 3.35 0 0 1-1.213-1.377q-.433-.885-.433-2.068 0-1.194.433-2.084a3.34 3.34 0 0 1 1.213-1.382q.78-.492 1.815-.492 1.033 0 1.809.492.781.494 1.213 1.382.438.89.438 2.084 0 1.183-.438 2.068a3.3 3.3 0 0 1-1.213 1.377q-.776.492-1.809.492m0-1.054q.785 0 1.292-.403.507-.402.751-1.058.244-.657.244-1.422t-.244-1.427a2.4 2.4 0 0 0-.751-1.07q-.507-.406-1.292-.407-.786 0-1.293.408a2.4 2.4 0 0 0-.751 1.069q-.243.66-.243 1.427 0 .765.243 1.422.244.656.751 1.058.507.403 1.293.403m5.251.895v-7.636h1.133v1.153h.08q.208-.567.756-.92a2.2 2.2 0 0 1 1.233-.353q.13 0 .323.005.194.006.293.015v1.193a4 4 0 0 0-.273-.044 3 3 0 0 0-.443-.035q-.556 0-.994.234a1.712 1.712 0 0 0-.935 1.556V90zm9.008-7.636v.994h-3.957v-.994zm-2.804-1.83h1.174v7.278q0 .498.144.746a.74.74 0 0 0 .378.328q.234.08.492.08.194 0 .318-.02l.199-.04.239 1.054q-.12.045-.333.09-.215.05-.542.05-.498 0-.975-.214a1.94 1.94 0 0 1-.785-.652q-.309-.437-.309-1.103zm11.828 1.83v.994h-3.957v-.994zm-2.804-1.83h1.173v7.278q0 .498.144.746.15.244.378.328.234.08.492.08.195 0 .319-.02l.198-.04.239 1.054q-.119.045-.333.09-.214.05-.542.05a2.4 2.4 0 0 1-.974-.214 1.94 1.94 0 0 1-.786-.652q-.308-.437-.308-1.103zm7.688 9.625q-1.103 0-1.904-.487a3.28 3.28 0 0 1-1.228-1.372q-.427-.885-.427-2.058 0-1.174.427-2.069.433-.9 1.203-1.402.777-.507 1.81-.507.597 0 1.178.2.582.198 1.059.645.478.443.761 1.174t.283 1.8v.496h-5.886v-1.014h4.693q0-.645-.258-1.153a1.95 1.95 0 0 0-.726-.8q-.468-.294-1.104-.294-.701 0-1.213.348a2.3 2.3 0 0 0-.78.895 2.6 2.6 0 0 0-.274 1.183v.677q0 .864.298 1.466.304.597.841.91.537.308 1.247.308.463 0 .836-.13.378-.133.651-.397.273-.268.423-.666l1.133.318q-.179.578-.601 1.014-.423.433-1.045.677a3.9 3.9 0 0 1-1.397.238m7.194.02a3.1 3.1 0 0 1-1.317-.273 2.26 2.26 0 0 1-.94-.8q-.348-.528-.348-1.274 0-.656.259-1.063.258-.414.691-.647t.954-.348q.528-.12 1.059-.189.696-.09 1.129-.134.438-.05.636-.164.204-.114.204-.398v-.04q0-.735-.403-1.143-.397-.408-1.208-.408-.84 0-1.317.368t-.671.786l-1.114-.398q.299-.696.795-1.084.503-.393 1.094-.547.597-.159 1.174-.159.367 0 .845.09.482.084.929.353.453.269.751.81.298.542.298 1.452V90h-1.173v-1.034h-.06a2 2 0 0 1-.397.532q-.279.284-.741.482-.463.2-1.129.199m.179-1.054q.696 0 1.174-.273a1.86 1.86 0 0 0 .974-1.616v-1.074q-.075.09-.328.164a6 6 0 0 1-.577.124 26 26 0 0 1-1.123.15q-.458.06-.855.193a1.5 1.5 0 0 0-.637.393q-.238.258-.238.706 0 .612.452.925.458.308 1.158.308m5.463.875v-7.636h1.133v1.193h.1a1.92 1.92 0 0 1 .77-.95q.533-.343 1.278-.343.756 0 1.258.343.508.338.79.95h.08q.294-.592.88-.94.587-.353 1.407-.353 1.024 0 1.675.642.652.636.652 1.983V90h-1.174v-5.11q0-.846-.462-1.209a1.7 1.7 0 0 0-1.089-.363q-.805 0-1.248.487-.442.483-.442 1.223V90h-1.193v-5.23q0-.651-.423-1.05-.423-.402-1.089-.402-.458 0-.855.244a1.83 1.83 0 0 0-.636.676 2 2 0 0 0-.239.99V90zm13.023.08a.86.86 0 0 1-.631-.264.86.86 0 0 1-.264-.631.86.86 0 0 1 .264-.632.86.86 0 0 1 .631-.263.86.86 0 0 1 .631.263.86.86 0 0 1 .264.632.85.85 0 0 1-.124.447.93.93 0 0 1-.324.328.85.85 0 0 1-.447.12"/><g filter="url(#b)"><path fill="#18181B" d="M18 117a6 6 0 0 1 6-6h256a6 6 0 0 1 6 6v24a6 6 0 0 1-6 6H24a6 6 0 0 1-6-6z"/><path fill="#FAFAFA" d="M130.666 123.818h1.541v6.697q0 1.07-.502 1.894a3.5 3.5 0 0 1-1.412 1.293q-.91.467-2.132.467-1.22 0-2.128-.467a3.5 3.5 0 0 1-1.412-1.293q-.502-.825-.502-1.894v-6.697h1.536v6.573q0 .69.303 1.228.309.537.87.845.562.303 1.333.303.775 0 1.337-.303.567-.308.865-.845.303-.537.303-1.228zm3.656 13.046v-10.5h1.451v1.238h.125q.129-.24.372-.552.244-.313.677-.547.432-.239 1.143-.239.924 0 1.651.468.725.466 1.138 1.347.417.879.418 2.118 0 1.238-.413 2.123-.413.88-1.133 1.357a2.94 2.94 0 0 1-1.646.472q-.696 0-1.139-.234a2.2 2.2 0 0 1-.686-.546 4 4 0 0 1-.382-.557h-.09v4.052zm1.456-6.682q0 .805.234 1.412t.676.949q.442.339 1.084.338.666 0 1.113-.353.448-.357.677-.969.233-.612.233-1.377 0-.756-.228-1.357a2.1 2.1 0 0 0-.677-.95q-.447-.348-1.118-.348-.647 0-1.094.333-.443.333-.671.93-.23.596-.229 1.392m10.386 6.841q-.91 0-1.566-.239-.651-.238-1.064-.631a2.7 2.7 0 0 1-.617-.86l1.278-.527q.135.218.358.462.229.249.617.423.392.174 1.009.174.845 0 1.397-.413.552-.408.552-1.303v-1.501h-.095a3.4 3.4 0 0 1-.388.542 2.1 2.1 0 0 1-.686.517q-.437.219-1.138.219a3.2 3.2 0 0 1-1.631-.423q-.72-.427-1.143-1.258-.418-.835-.418-2.053t.413-2.088q.417-.87 1.143-1.332a2.97 2.97 0 0 1 1.646-.468q.711 0 1.148.239.438.234.681.547.25.313.383.552h.11v-1.238h1.456v7.805q0 .984-.457 1.616a2.7 2.7 0 0 1-1.238.934q-.775.304-1.75.304m-.015-4.37q.642 0 1.084-.299a1.86 1.86 0 0 0 .676-.865q.234-.566.234-1.357 0-.77-.229-1.357-.229-.586-.671-.915-.443-.333-1.094-.333-.67 0-1.119.348-.447.343-.676.935a3.7 3.7 0 0 0-.223 1.322q0 .751.228 1.318.23.566.676.885.453.318 1.114.318m5.454 1.347v-7.636h1.437v1.213h.079a1.85 1.85 0 0 1 .736-.97 2.1 2.1 0 0 1 1.203-.358 7 7 0 0 1 .631.035v1.422a3 3 0 0 0-.318-.055 3 3 0 0 0-.457-.035q-.527 0-.94.224a1.66 1.66 0 0 0-.885 1.497V134zm7.527.169a3.1 3.1 0 0 1-1.313-.268 2.2 2.2 0 0 1-.929-.791q-.339-.517-.338-1.268 0-.646.248-1.064.25-.417.671-.661a3.5 3.5 0 0 1 .945-.368 9 9 0 0 1 1.064-.189l1.113-.129q.428-.054.622-.174.194-.119.194-.388v-.034q0-.652-.368-1.01-.363-.357-1.084-.358-.75 0-1.183.333-.427.329-.592.731l-1.397-.318q.249-.696.726-1.124a2.95 2.95 0 0 1 1.109-.626 4.3 4.3 0 0 1 1.317-.199q.457 0 .97.11.516.103.964.387.453.283.741.811.288.522.288 1.357V134h-1.451v-1.044h-.06a2.1 2.1 0 0 1-.433.567 2.3 2.3 0 0 1-.74.462q-.453.184-1.084.184m.323-1.193q.616 0 1.054-.244.443-.243.671-.636a1.65 1.65 0 0 0 .234-.85v-.985q-.08.08-.308.15a5 5 0 0 1-.513.114q-.288.045-.561.084l-.458.06a3.7 3.7 0 0 0-.79.184 1.35 1.35 0 0 0-.567.373q-.209.239-.209.636 0 .552.408.835.408.279 1.039.279m8.284 1.173a2.96 2.96 0 0 1-1.651-.472q-.72-.477-1.133-1.357-.408-.885-.408-2.123t.413-2.118q.417-.88 1.143-1.347a2.97 2.97 0 0 1 1.646-.468q.711 0 1.143.239.438.234.676.547.244.313.378.552h.09v-3.784h1.486V134h-1.451v-1.188h-.125a4 4 0 0 1-.388.557 2.1 2.1 0 0 1-.686.546q-.437.234-1.133.234m.328-1.268q.642 0 1.084-.338.447-.343.676-.949.234-.607.234-1.412 0-.796-.229-1.392-.229-.597-.671-.93t-1.094-.333q-.67 0-1.119.348a2.13 2.13 0 0 0-.676.95 3.9 3.9 0 0 0-.223 1.357q0 .765.228 1.377.23.612.676.969.453.353 1.114.353m8.868 1.273q-1.128 0-1.944-.482a3.3 3.3 0 0 1-1.253-1.367q-.437-.885-.437-2.073 0-1.174.437-2.069a3.4 3.4 0 0 1 1.233-1.397q.796-.502 1.86-.502.646 0 1.252.214a3 3 0 0 1 1.089.671q.482.457.761 1.188.278.727.278 1.765v.527h-6.07v-1.113h4.614q0-.587-.239-1.039a1.8 1.8 0 0 0-.671-.721 1.87 1.87 0 0 0-1.004-.264q-.627 0-1.094.308a2.1 2.1 0 0 0-.716.796 2.3 2.3 0 0 0-.249 1.059v.87q0 .765.269 1.302.274.537.76.821.488.278 1.139.278.423 0 .771-.119a1.6 1.6 0 0 0 .989-.97l1.407.254a2.55 2.55 0 0 1-.607 1.089 2.95 2.95 0 0 1-1.088.721q-.652.253-1.487.253"/></g></g><defs><filter id="a" width="304" height="166" x="0" y="0" color-interpolation-filters="sRGB" filterUnits="userSpaceOnUse"><feFlood flood-opacity="0" result="BackgroundImageFix"/><feColorMatrix in="SourceAlpha" result="hardAlpha" values="0 0 0 0 0 0 0 0 0 0 0 0 0 0 0 0 0 0 127 0"/><feOffset dy="1"/><feGaussianBlur stdDeviation="1"/><feColorMatrix values="0 0 0 0 0 0 0 0 0 0 0 0 0 0 0 0 0 0 0.05 0"/><feBlend in2="BackgroundImageFix" result="effect1_dropShadow_15853_30988"/><feBlend in="SourceGraphic" in2="effect1_dropShadow_15853_30988" result="shape"/></filter><filter id="b" width="274" height="42" x="15" y="109" color-interpolation-filters="sRGB" filterUnits="userSpaceOnUse"><feFlood flood-opacity="0" result="BackgroundImageFix"/><feColorMatrix in="SourceAlpha" result="hardAlpha" values="0 0 0 0 0 0 0 0 0 0 0 0 0 0 0 0 0 0 127 0"/><feOffset dy="1"/><feGaussianBlur stdDeviation="1"/><feColorMatrix values="0 0 0 0 0 0 0 0 0 0 0 0 0 0 0 0 0 0 0.06 0"/><feBlend in2="BackgroundImageFix" result="effect1_dropShadow_15853_30988"/><feColorMatrix in="SourceAlpha" result="hardAlpha" values="0 0 0 0 0 0 0 0 0 0 0 0 0 0 0 0 0 0 127 0"/><feOffset dy="1"/><feGaussianBlur stdDeviation="1.5"/><feColorMatrix values="0 0 0 0 0 0 0 0 0 0 0 0 0 0 0 0 0 0 0.1 0"/><feBlend in2="effect1_dropShadow_15853_30988" result="effect2_dropShadow_15853_30988"/><feBlend in="SourceGraphic" in2="effect2_dropShadow_15853_30988" result="shape"/></filter></defs></svg>